<?xml version="1.0" encoding="utf-8"?>
<!-- (c) mapshakers 2015, Licence: CC0 1.0 Universal, www.mapshakers.com  -->
<!DOCTYPE svg PUBLIC "-//W3C//DTD SVG 1.1//EN" "http://www.w3.org/Graphics/SVG/1.1/DTD/svg11.dtd">
<svg version="1.1" id="adit" xmlns="http://www.w3.org/2000/svg" xmlns:xlink="http://www.w3.org/1999/xlink" x="0px" y="0px"
	 width="256px" height="256px" viewBox="0 0 256 256" style="enable-background:new 0 0 256 256;" xml:space="preserve">
<style type="text/css">
<![CDATA[
	.st0{fill:#D1D1D1;}
	.st1{fill:#454545;}
]]>
</style>
<path class="st0" d="M194.834,232.205c-4.875,0-9.453-1.892-12.889-5.327l-52.313-52.313l-49.515,49.514
	c-3.435,3.436-8.012,5.327-12.888,5.327c-4.876,0-9.454-1.892-12.89-5.328l-6.517-6.517c-7.106-7.107-7.106-18.67-0.001-25.776
	l49.514-49.516L76.55,121.481l-6.488,6.487c-5.27,5.27-14.506,9.122-21.961,9.155l-18.784,0.084c-4.994,0-9.565-1.934-12.954-5.446
	c-3.389-3.512-5.158-8.15-4.982-13.06l0.716-19.997c0.263-7.354,4.231-16.467,9.434-21.67l48.989-48.989
	c3.437-3.436,8.013-5.328,12.889-5.328s9.453,1.892,12.889,5.327L120.254,52c3.436,3.435,5.328,8.013,5.328,12.888
	c0,4.876-1.892,9.453-5.328,12.888l-11.409,11.409l20.788,20.788l19.371-19.372l-12.825-12.825
	c-3.437-3.435-5.328-8.012-5.328-12.888c0-4.876,1.892-9.454,5.328-12.889l23.956-23.955c3.436-3.435,8.013-5.327,12.889-5.327
	s9.453,1.892,12.889,5.328l48.989,48.989c5.201,5.201,9.17,14.315,9.434,21.668l0.716,19.999c0.176,4.908-1.593,9.547-4.981,13.059
	c-3.389,3.513-7.96,5.446-12.872,5.446l-18.865-0.084c-7.454-0.033-16.689-3.884-21.962-9.155l-5.07-5.072l-19.371,19.373
	l52.312,52.313c7.106,7.107,7.106,18.67,0,25.777l-6.518,6.519C204.286,230.313,199.709,232.205,194.834,232.205z"/>
<path class="st1" d="M174.855,116.453c3.545-3.544,9.344-3.544,12.889,0l5.07,5.071c3.545,3.545,10.545,6.463,15.559,6.485
	l18.783,0.084c5.013,0.022,8.967-4.058,8.787-9.067l-0.715-19.997c-0.181-5.009-3.228-12.008-6.771-15.552l-17.53-17.53
	c-3.544-3.544-8.119-8.121-10.167-10.168c-2.048-2.048-6.623-6.624-10.168-10.168l-11.124-11.123c-3.544-3.545-9.345-3.545-12.89,0
	l-23.956,23.955c-3.545,3.544-3.545,9.344,0,12.888l12.826,12.826c3.545,3.544,3.545,9.344,0,12.888l-19.371,19.372
	c-3.544,3.544-9.345,3.544-12.889,0l-20.787-20.788c-3.544-3.544-3.544-9.345,0-12.888l11.409-11.409
	c3.545-3.543,3.545-9.344,0-12.888L89.854,34.489c-3.544-3.544-9.344-3.544-12.889,0L65.843,45.612
	c-3.544,3.543-8.12,8.12-10.169,10.168c-2.048,2.048-6.624,6.624-10.168,10.168l-17.53,17.53
	c-3.545,3.544-6.592,10.542-6.771,15.552l-0.716,19.997c-0.179,5.009,3.775,9.089,8.788,9.067l18.784-0.084
	c5.012-0.022,12.014-2.94,15.558-6.485l6.487-6.487c3.544-3.544,9.344-3.544,12.889,0l20.787,20.788
	c3.544,3.545,3.544,9.344,0,12.889l-49.514,49.515c-3.544,3.544-3.544,9.344,0,12.889l6.518,6.517c3.544,3.545,9.344,3.545,12.889,0
	l49.514-49.513c3.544-3.545,9.345-3.545,12.889,0l52.313,52.313c3.545,3.544,9.344,3.544,12.889,0l6.519-6.519
	c3.545-3.545,3.545-9.344,0-12.889l-52.313-52.313c-3.545-3.545-3.545-9.344,0-12.889L174.855,116.453z"/>
</svg>
