<?xml version="1.0" encoding="utf-8"?>
<!-- (c) mapshakers 2015, Licence: CC0 1.0 Universal, www.mapshakers.com  -->
<!DOCTYPE svg PUBLIC "-//W3C//DTD SVG 1.1//EN" "http://www.w3.org/Graphics/SVG/1.1/DTD/svg11.dtd">
<svg version="1.1" id="architecture" xmlns="http://www.w3.org/2000/svg" xmlns:xlink="http://www.w3.org/1999/xlink" x="0px"
	 y="0px" width="256px" height="256px" viewBox="0 0 256 256" style="enable-background:new 0 0 256 256;" xml:space="preserve">
<style type="text/css">
<![CDATA[
	.st0{fill:#D1D1D1;}
	.st1{fill:#454545;}
]]>
</style>
<path class="st0" d="M230.468,27.223H25.739c-7.921,0-14.366,6.445-14.366,14.366v24.526c0,7.921,6.445,14.366,14.366,14.366h2.24
	c-0.028,0.347-0.053,0.695-0.053,1.049v6.562c0,7.043,5.73,12.773,12.773,12.773h0.028v6.213c0,11.219,7.614,20.846,18.295,24.637
	v97.395c0,5.522,4.477,10,10,10h24.809c0.735,0,1.45-0.085,2.141-0.235h18.402c0.69,0.15,1.405,0.235,2.141,0.235h23.297
	c0.735,0,1.45-0.085,2.141-0.235h18.401c0.69,0.15,1.405,0.235,2.141,0.235h24.688c5.522,0,10-4.478,10-10v-97.394
	c10.682-3.791,18.298-13.418,18.298-24.638v-6.213h0.028c7.043,0,12.773-5.73,12.773-12.773v-6.562c0-0.354-0.024-0.702-0.053-1.049
	h2.239c7.922,0,14.366-6.445,14.366-14.366V41.589C244.834,33.668,238.39,27.223,230.468,27.223z"/>
<path class="st1" d="M50.727,99.448v7.631c0,9.015,8.186,16.321,18.295,16.359V229.11h24.809v-82.499
	c0-6.214,5.084-11.299,11.299-11.299h0.084c6.215,0,11.3,5.085,11.3,11.299v82.499h23.297v-82.434
	c0-6.25,5.104-11.364,11.341-11.364c6.238,0,11.342,5.114,11.342,11.364v82.434h24.688V123.438
	c10.111-0.039,18.298-7.344,18.298-16.359v-7.631H50.727z"/>
<g>
	<path class="st1" d="M218.281,81.531c0-1.525-1.248-2.773-2.773-2.773H40.698c-1.525,0-2.773,1.248-2.773,2.773v6.562
		c0,1.525,1.248,2.773,2.773,2.773h174.81c1.525,0,2.773-1.248,2.773-2.773V81.531z"/>
</g>
<g>
	<path class="st1" d="M234.834,41.589c0-2.401-1.965-4.366-4.366-4.366H25.739c-2.401,0-4.366,1.965-4.366,4.366v24.526
		c0,2.401,1.965,4.366,4.366,4.366h204.729c2.401,0,4.366-1.965,4.366-4.366V41.589z"/>
</g>
</svg>
