<?xml version="1.0" encoding="utf-8"?>
<!-- (c) mapshakers 2015, Licence: CC0 1.0 Universal, www.mapshakers.com  -->
<!DOCTYPE svg PUBLIC "-//W3C//DTD SVG 1.1//EN" "http://www.w3.org/Graphics/SVG/1.1/DTD/svg11.dtd">
<svg version="1.1" id="atm" xmlns="http://www.w3.org/2000/svg" xmlns:xlink="http://www.w3.org/1999/xlink" x="0px" y="0px"
	 width="256px" height="256px" viewBox="0 0 256 256" style="enable-background:new 0 0 256 256;" xml:space="preserve">
<style type="text/css">
<![CDATA[
	.st0{fill:#464646;}
	.st1{fill:#D1D1D1;}
]]>
</style>
<path class="st1" d="M202.895,8.273H53.106c-7.637,0-13.85,6.213-13.85,13.85v155.201c0,7.636,6.213,13.85,13.85,13.85h13.731v43.57
	c0,7.158,5.824,12.982,12.982,12.982h66.229c7.158,0,12.982-5.824,12.982-12.982v-43.57h43.863c7.637,0,13.85-6.214,13.85-13.85
	V22.123C216.744,14.486,210.531,8.273,202.895,8.273z"/>
<g>
	<path class="st0" d="M181.092,38.01h-13.26c-2.539,0-4.617,2.078-4.617,4.617v14.945c0,2.54,2.078,4.617,4.617,4.617h13.26
		c2.537,0,4.615-2.078,4.615-4.617V42.627C185.707,40.088,183.629,38.01,181.092,38.01z"/>
	<path class="st0" d="M202.895,17.506H53.106c-2.539,0-4.616,2.078-4.616,4.617v155.201c0,2.539,2.077,4.615,4.616,4.615h22.965
		v52.805c0,2.069,1.678,3.749,3.748,3.749h66.229c2.07,0,3.748-1.68,3.748-3.749v-52.805h53.098c2.539,0,4.617-2.076,4.617-4.615
		V22.123C207.512,19.584,205.434,17.506,202.895,17.506z M113.402,230.994H83.569v-81.719h29.833V230.994z M142.299,230.994h-10.776
		v-81.719h10.776V230.994z M193.615,163.427c0,2.539-2.078,4.616-4.617,4.616h-39.201v-18.768h1.465
		c2.539,0,4.617-2.077,4.617-4.616v-7.721c0-2.539-2.078-4.617-4.617-4.617H75.256c-2.539,0-4.617,2.078-4.617,4.617v7.721
		c0,2.539,2.078,4.616,4.617,4.616h0.815v18.768h-9.067c-2.54,0-4.617-2.077-4.617-4.616V36.02c0-2.539,2.078-4.617,4.617-4.617
		h121.994c2.539,0,4.617,2.078,4.617,4.617V163.427z"/>
	<path class="st0" d="M181.092,69.448h-13.26c-2.539,0-4.617,2.077-4.617,4.617V89.01c0,2.539,2.078,4.617,4.617,4.617h13.26
		c2.537,0,4.615-2.078,4.615-4.617V74.064C185.707,71.525,183.629,69.448,181.092,69.448z"/>
	<path class="st0" d="M152.203,36.166H75.256c-2.539,0-4.617,2.077-4.617,4.617v77.127c0,2.539,2.078,4.617,4.617,4.617h76.947
		c2.539,0,4.615-2.078,4.615-4.617V40.783C156.818,38.243,154.742,36.166,152.203,36.166z M128.991,98.438
		c-2.331,4.493-6.023,7.338-10.781,8.816c-1.219,0.38-1.595,0.922-1.583,2.181c0.042,4.705-0.007,4.705-4.664,4.689
		c-0.905-0.001-1.81,0-2.905,0c0-1.512-0.055-2.789,0.016-4.058c0.065-1.114-0.28-1.467-1.462-1.742
		c-3.374-0.785-6.69-1.83-9.995-2.883c-0.479-0.153-1.084-0.902-1.095-1.389c-0.088-3.793-0.045-7.592-0.032-11.389
		c0-0.152,0.126-0.304,0.197-0.466c1.848,1.258,3.595,2.573,5.462,3.692c2.525,1.514,5.298,2.183,8.265,1.918
		c3.17-0.281,6.048-2.573,6.742-5.39c0.805-3.278-0.291-5.784-3.523-7.681c-1.576-0.927-3.293-1.612-4.9-2.491
		c-2.088-1.141-4.218-2.24-6.176-3.579c-8.83-6.021-8.065-20.289,1.132-25.656c0.582-0.339,1.133-0.826,1.761-0.969
		c3.243-0.74,4.207-2.804,3.629-5.878c-0.087-0.466-0.011-0.964-0.011-1.596c2.518,0,4.925,0,7.53,0c0,1.708,0,3.398,0,4.791
		c3.317,1.083,6.363,2.09,9.42,3.064c1.111,0.353,1.437,1.052,1.416,2.198c-0.07,3.605-0.025,7.215-0.025,11.269
		c-0.886-0.721-1.503-1.24-2.137-1.738c-2.591-2.045-5.373-3.823-8.805-3.538c-1.56,0.13-3.249,0.749-4.54,1.638
		c-2.583,1.78-2.736,5.624-0.354,7.672c1.37,1.176,3.045,2.028,4.653,2.888c2.048,1.092,4.194,2.003,6.259,3.067
		C131.537,80.542,133.036,90.642,128.991,98.438z"/>
	<path class="st0" d="M181.092,100.884h-13.26c-2.539,0-4.617,2.078-4.617,4.617v14.945c0,2.54,2.078,4.617,4.617,4.617h13.26
		c2.537,0,4.615-2.077,4.615-4.617v-14.945C185.707,102.962,183.629,100.884,181.092,100.884z"/>
	<path class="st0" d="M181.092,132.321h-13.26c-2.539,0-4.617,2.078-4.617,4.617v14.945c0,2.539,2.078,4.617,4.617,4.617h13.26
		c2.537,0,4.615-2.078,4.615-4.617v-14.945C185.707,134.399,183.629,132.321,181.092,132.321z"/>
</g>
</svg>
