<?xml version="1.0" encoding="utf-8"?>
<!-- (c) mapshakers 2015, Licence: CC0 1.0 Universal, www.mapshakers.com  -->
<!DOCTYPE svg PUBLIC "-//W3C//DTD SVG 1.1//EN" "http://www.w3.org/Graphics/SVG/1.1/DTD/svg11.dtd">
<svg version="1.1" id="avatar" xmlns="http://www.w3.org/2000/svg" xmlns:xlink="http://www.w3.org/1999/xlink" x="0px" y="0px"
	 width="256px" height="256px" viewBox="0 0 256 256" style="enable-background:new 0 0 256 256;" xml:space="preserve">
<style type="text/css">
<![CDATA[
	.st0{fill:#464646;}
	.st1{fill:#D1D1D1;}
]]>
</style>
<path class="st1" d="M231.188,184.075c-0.416-12.356-6.088-22.913-16.4-30.529c-7.225-5.336-15.536-9.082-26.953-12.146
	c-3.118-0.838-6.229-1.551-9.236-2.238c-2.242-0.514-4.359-0.998-6.479-1.53c-2.534-0.636-4.666-1.002-6.522-1.631
	c-1.063-0.358-2.675-0.772-3.502-1.44c-0.586-0.474-0.295-1.642,0.061-2.307c4.035-7.565,7.635-15.459,9.418-24.694
	c9.496-7.683,9.826-18.991,9.976-24.081c0.104-3.601-0.776-6.625-2.507-8.901c0.037-3.687,0.064-7.489-0.119-11.345
	c-0.209-4.366-0.884-8.467-2.008-12.193c-3.727-12.34-11.977-20.75-23.859-24.32c-0.275-0.083-0.545-0.154-0.808-0.215
	c-4.123-4.965-11.279-9.628-23.61-9.628c-7.646,0-15.361,1.737-21.228,3.25c-9.698,2.5-17.093,6.836-22.607,13.256
	c-7.604,8.852-10.975,19.765-10.303,33.361c0.14,2.843,0.426,5.62,0.733,8.326c-1.764,2.167-2.973,5.318-2.856,9.903
	c0.234,9.174,3.515,16.451,10.303,22.808c0.251,0.938,0.486,1.941,0.731,2.985c0.484,2.063,0.985,4.197,1.733,6.449
	c1.509,4.546,4.45,8.179,5.478,12.309c0.868,3.486,0.426,4.008-1.713,4.729c-0.848,0.286-2.849,0.936-3.75,1.188
	c-3.752,1.054-7.183,1.707-10.942,2.732c-5.348,1.458-10.877,2.967-16.33,4.541c-6.754,1.951-16.722,5.371-25.258,12.514
	c-6.134,5.129-13.366,12.506-14.863,24.102c-0.958,7.423-0.993,15.105-0.105,22.836c0.735,6.393,3.985,11.327,9.659,14.67
	c9.245,5.445,19.545,9.874,31.489,13.537c19.387,5.945,40.073,9.12,61.486,9.432c1.351,0.021,2.696,0.029,4.044,0.029
	c24.752,0,47.07-3.291,68.232-10.063c10.229-3.273,19.201-7.258,27.427-12.178c8.142-4.871,10.202-11.349,10.497-15.93
	c0.063-0.995,0.133-1.991,0.201-2.988C231.02,193.967,231.355,189.102,231.188,184.075z"/>
<path class="st0" d="M220.514,201.021c-0.24,3.742-2.55,6.131-5.652,7.986c-7.994,4.782-16.493,8.403-25.34,11.235
	c-22.473,7.188-45.558,9.897-69.083,9.557c-19.992-0.291-39.578-3.128-58.699-8.993c-10.228-3.137-20.09-7.141-29.346-12.593
	c-2.863-1.687-4.417-3.866-4.8-7.196c-0.784-6.82-0.789-13.617,0.088-20.414c0.991-7.68,5.759-13.024,11.36-17.709
	c6.312-5.28,13.815-8.322,21.618-10.576c9.147-2.643,18.36-5.053,27.527-7.625c3.121,8.227,7.298,15.041,12.478,20.313
	c7.166,7.292,16.084,11.308,25.112,11.308c13.404,0,25.777-8.562,33.093-22.901c1.344-2.633,2.538-5.353,3.604-8.164
	c2.371,0.803,4.781,1.472,7.211,2.081c5.172,1.299,10.408,2.346,15.558,3.729c8.411,2.258,16.495,5.281,23.604,10.531
	c7.709,5.693,12.025,13.278,12.348,22.822C221.378,189.936,220.867,195.491,220.514,201.021z M90.155,101.066
	c0.845,0.752,1.538,1.889,1.859,2.978c0.976,3.31,1.532,6.75,2.617,10.019c2.636,7.94,6.661,15.177,13.104,20.597
	c5.994,5.042,12.969,7.456,19.825,7.456c10.129,0,20.002-5.269,26.083-15.114c4.358-7.063,6.971-14.7,8.381-22.824
	c0.188-1.074,0.527-2.559,1.297-3.022c6.878-4.15,8.021-10.87,8.229-17.97c0.078-2.647-0.548-3.086-2.549-3.291
	c0-5.429,0.188-10.817-0.068-16.183c-0.158-3.284-0.646-6.64-1.594-9.78c-2.648-8.771-8.181-14.935-17.163-17.633
	c-1.377-0.414-3.37,0.075-4.12-1.233c-3.554-6.196-10.119-8.187-17.421-8.187c-6.177,0-12.879,1.424-18.731,2.933
	c-6.756,1.742-12.873,4.68-17.519,10.089c-6.531,7.603-8.378,16.675-7.9,26.353c0.23,4.675,0.916,9.328,1.407,14.11
	c-3.496,0.279-3.593,1.542-3.521,4.356C82.547,91.652,84.951,96.44,90.155,101.066z"/>
</svg>
