<?xml version="1.0" encoding="utf-8"?>
<!-- (c) mapshakers 2015, Licence: CC0 1.0 Universal, www.mapshakers.com  -->
<!DOCTYPE svg PUBLIC "-//W3C//DTD SVG 1.1//EN" "http://www.w3.org/Graphics/SVG/1.1/DTD/svg11.dtd">
<svg version="1.1" id="bag" xmlns="http://www.w3.org/2000/svg" xmlns:xlink="http://www.w3.org/1999/xlink" x="0px"
	 y="0px" width="256px" height="256px" viewBox="0 0 256 256" style="enable-background:new 0 0 256 256;" xml:space="preserve">
<style type="text/css">
<![CDATA[
	.st0{fill:#D1D1D1;}
	.st1{fill:#454545;}
]]>
</style>
<path class="st0" d="M107.484,217.919c-31.792,0-31.792,0-33.546-0.617c-16.001-5.638-22.97-15.643-22.604-32.444
	c0.257-11.783,0.505-21.609,1.16-31.84c0.02-0.317,0.041-0.637,0.062-0.953c-0.431,0.057-0.862,0.084-1.29,0.084
	c-3.418,0-6.667-1.758-8.515-4.758c-4.083-6.633-13.772-22.37-19.94-32.374l-0.904-1.469c-1.545-2.406-3.324-6.153-4.261-8.978
	l-3.026-9.135c-0.961-2.898-1.776-7.22-1.938-10.275c0-0.003-0.125-2.356-0.221-5.58C11.933,62.121,21.327,53.452,29.3,49.254
	c7.93-4.176,18.719-6.293,32.065-6.293c13.044,0,24.108,2.028,24.573,2.115c3.1,0.577,5.844,2.176,7.73,4.503
	c0.262,0.324,0.502,0.661,0.72,1.011c2.765-8.634,9.214-14.915,18.601-17.958l1.732-0.563c0.152-0.049,0.305-0.095,0.459-0.137
	c3.56-0.97,10.952-1.311,12.268-1.311c0.703,0,4.024,0.042,6.909,0.797l0.287,0.048c13.028,2.178,22.543,10.499,25.459,21.797
	c0.226,0.083,0.451,0.169,0.679,0.258c0.356-1.062,0.891-2.066,1.592-2.966c1.921-2.465,4.76-4.134,7.996-4.701
	c0.419-0.073,10.378-1.79,22.665-1.79c16.109,0,28.801,2.899,37.721,8.616c12.398,7.945,12.797,25.338,12.803,27.295
	c0.004,2.129-0.074,5.335-0.229,7.085c-0.149,1.721-1.108,7.488-2.118,10.514l-2.256,6.759c-0.938,2.808-2.746,6.663-4.299,9.171
	c-0.133,0.212-13.285,21.456-20.938,33.602c-0.67,1.063-1.494,2.259-2.449,3.549c-1.918,2.592-4.922,4.052-8.039,4.052
	c-0.371,0-0.746-0.021-1.121-0.063c0.688,12.14,1.076,23.742,1.365,34.06c0.369,13.112-9.74,21.8-10.896,22.747
	c-4.604,3.781-11.988,6.429-17.952,6.436C174.627,217.883,136.072,217.919,107.484,217.919z M193.416,98.4
	c1.876,5.804,3.434,11.826,4.662,18.042l11.926-19.663c0.91-1.665,2.295-4.452,3.021-6.087c0.166-0.379,0.459-1.09,0.781-1.966
	c-3.002,1.321-6.041,2.9-9.19,4.538c-2.011,1.044-4.091,2.125-6.206,3.16l-0.59,0.289c-0.902,0.571-1.875,1.021-2.905,1.342
	C194.418,98.209,193.917,98.324,193.416,98.4z M42.791,87.417c4.433,8.881,9.265,17.896,14.646,27.318
	c0.965-4.551,2.061-8.935,3.295-13.206c0.657-2.272,1.387-4.659,2.221-7.119c-0.611-0.086-1.222-0.231-1.825-0.437
	c-0.186-0.063-0.378-0.133-0.552-0.203C60.509,93.745,50.193,89.686,42.791,87.417z"/>
<g>
	<path class="st1" d="M32.264,88.689c-1.446-2.95-1.213-8.827,0.774-10.763c2-1.949,7.414-1.596,10.864-0.611
		c7.977,2.275,20.391,7.171,20.391,7.171c0.019,0.008,0.039,0.013,0.059,0.02c3.732-8.58,9.02-17.442,17.011-25.062
		c1.463-1.394,3.007-2.567,4.539-3.569c-0.382-0.471-0.989-0.819-1.789-0.968c0,0-32.583-6.055-50.152,3.195
		c-8.478,4.463-11.783,11.892-11.502,21.177c0.092,3.094,0.211,5.351,0.211,5.351c0.114,2.16,0.763,5.606,1.444,7.659l3.026,9.135
		c0.68,2.053,2.133,5.108,3.228,6.79c0,0,0,0,0.956,1.554c6.17,10.006,15.861,25.746,19.944,32.378
		c0.482-5.252,1.071-10.252,1.777-15.036c-0.034-0.06-0.065-0.119-0.099-0.179C45.608,114.438,38.64,101.695,32.264,88.689z"/>
	<path class="st1" d="M179.794,90.423c-3.515-8.31-8.185-15.86-14.524-22.373c-3.349-3.44-7.426-5.193-11.906-6.458
		c-0.971-0.274-2.315-1.494-2.379-2.358c-0.619-8.574-6.641-16.009-17.996-17.907c-0.842-0.142-0.842-0.142-0.842-0.142
		c-0.902-0.311-3.017-0.565-4.697-0.565c-1.682,0-7.702,0.431-9.64,0.959c0,0,0,0-1.735,0.563
		c-7.449,2.415-11.97,7.46-12.988,15.248c-0.355,2.716-1.269,4.007-3.971,4.998c-3.173,1.164-6.377,2.973-8.813,5.295
		c-10.523,10.035-16.015,22.955-19.965,36.622c-4.659,16.117-6.797,32.667-7.864,49.349c-0.669,10.455-0.913,20.94-1.142,31.419
		c-0.272,12.516,4.104,18.63,15.92,22.793c0.301,0.106,97.367,0.016,97.367,0.016c3.604-0.004,8.832-1.877,11.618-4.165
		c0,0,7.486-6.145,7.244-14.736c-0.483-17.223-1.168-34.463-2.584-51.629C189.564,121.228,186.143,105.435,179.794,90.423z
		 M116.496,52.997c0,0,1.118-6.636,9.957-6.805c7.535-0.144,9.999,7.236,9.999,7.236c0.923,3.815,0.071,5.816-3.533,5.816h-11.852
		C117.463,59.244,115.406,56.433,116.496,52.997z M127.403,79.25c9.857,0,17.847,3.022,17.847,6.75s-7.99,6.75-17.847,6.75
		c-9.856,0-17.847-3.022-17.847-6.75S117.546,79.25,127.403,79.25z M137.471,191.949h-20.134c-13.5,0-23.212-10.965-21.581-24.366
		l4.164-34.217C101.55,119.965,113.918,109,127.403,109c13.486,0,25.853,10.965,27.484,24.366l4.164,34.217
		C160.682,180.984,150.971,191.949,137.471,191.949z"/>
	<path class="st1" d="M225.361,61.1c-18.029-11.555-53.268-5.396-53.268-5.396c-0.828,0.145-1.447,0.505-1.83,0.995
		c1.326,0.964,2.635,2.076,3.893,3.369c6.891,7.078,12.3,15.387,16.535,25.401c0.425,1.005,0.836,2.019,1.24,3.04
		c0.289-0.09,0.563-0.237,0.81-0.445c0,0,0,0,1.274-0.625c7.231-3.537,14.256-7.761,21.846-10.208
		c6.795-2.19,10.498,1.799,9.109,8.862c-0.834,4.22-2.808,8.657-2.808,8.657c-0.878,1.977-2.454,5.141-3.501,7.033L204.68,124.84
		c-0.863,1.378-1.908,3.524-2.652,5.38c0.189,1.722,0.365,3.451,0.509,5.196c0.257,3.111,0.485,6.209,0.696,9.287
		c0.662-0.895,1.398-1.934,2.026-2.93c7.72-12.252,20.896-33.536,20.896-33.536c1.14-1.839,2.631-5.021,3.316-7.072l2.256-6.759
		c0.685-2.051,1.533-6.991,1.643-8.228c0.109-1.237,0.193-4.019,0.189-6.181C233.559,79.999,233.525,66.332,225.361,61.1z"/>
</g>
</svg>
