<?xml version="1.0" encoding="utf-8"?>
<!-- (c) mapshakers 2015, Licence: CC0 1.0 Universal, www.mapshakers.com  -->
<!DOCTYPE svg PUBLIC "-//W3C//DTD SVG 1.1//EN" "http://www.w3.org/Graphics/SVG/1.1/DTD/svg11.dtd">
<svg version="1.1" id="bar" xmlns="http://www.w3.org/2000/svg" xmlns:xlink="http://www.w3.org/1999/xlink" x="0px" y="0px"
	 width="256px" height="256px" viewBox="0 0 256 256" style="enable-background:new 0 0 256 256;" xml:space="preserve">
<style type="text/css">
<![CDATA[
	.st0{fill:#D1D1D1;}
	.st1{fill:#454545;}
]]>
</style>
<path class="st0" d="M240.7,74.081c-0.668-13.084-6.392-25.125-16.114-33.902c-9.016-8.14-20.682-12.624-32.846-12.624
	c-13.873,0-27.148,5.89-36.422,16.16c-3.058,3.386-4.612,7.76-4.381,12.316c0.071,1.396,0.328,2.75,0.719,4.056H48.286
	c-14.786,0-19.876,7.813-21.379,11.172c-1.502,3.359-3.933,12.362,5.923,23.384l49.717,55.595C89.714,158.252,96,174.712,96,185.463
	v14.173c0,9.14-7.473,20.06-15.993,23.369l-2.304,0.896c-4.64,1.803-16.965,6.591-14.958,17.302
	c2.007,10.711,15.23,10.711,20.208,10.711h63.094c4.979,0,18.2,0,20.207-10.711c2.008-10.711-10.316-15.499-14.956-17.302
	l-2.306-0.896c-8.52-3.31-15.992-14.229-15.992-23.369v-14.173c0-10.751,6.286-27.21,13.452-35.224l28.907-32.326
	c0.418,0.625,0.861,1.235,1.363,1.81c3.006,3.434,7.166,5.49,11.717,5.793c1.102,0.073,2.217,0.11,3.315,0.11
	c13.828,0,27.083-5.897,36.364-16.179C236.898,99.725,241.367,87.164,240.7,74.081z"/>
<path class="st1" d="M191.256,115.126c-0.88,0-1.764-0.029-2.65-0.088c-3.9-0.259-6.854-3.632-6.594-7.533
	c0.26-3.901,3.641-6.854,7.533-6.594c7.676,0.512,15.008-2.462,20.145-8.153c4.455-4.935,6.724-11.308,6.385-17.946
	c-0.34-6.638-3.243-12.747-8.178-17.201c-10.185-9.196-25.951-8.39-35.146,1.795c-2.62,2.903-7.097,3.13-9.999,0.51
	s-3.131-7.097-0.511-9.999c14.428-15.979,39.164-17.243,55.144-2.816c7.741,6.988,12.297,16.573,12.828,26.989
	s-3.025,20.415-10.015,28.155C212.732,110.516,202.303,115.126,191.256,115.126z"/>
<path class="st1" d="M175.865,76.081"/>
<path class="st1" d="M139.498,143.073l49.718-55.595c8.8-9.84,5.198-17.89-8.002-17.89H48.786c-13.2,0-16.801,8.05-8.001,17.89
	l49.717,55.595c8.799,9.839,15.999,28.688,15.999,41.89v14.173c0,13.2-10.067,27.911-22.371,32.69l-2.305,0.896
	c-12.304,4.778-11.571,8.689,1.629,8.689h63.094c13.2,0,13.933-3.911,1.629-8.689l-2.305-0.896
	c-12.304-4.779-22.371-19.49-22.371-32.69v-14.173C123.5,171.764,130.699,152.912,139.498,143.073z M107,128
	c-10.217,0-18.5-6.604-18.5-14.75S96.783,98.5,107,98.5s18.5,6.604,18.5,14.75S117.217,128,107,128z"/>
</svg>