<?xml version="1.0" encoding="utf-8"?>
<!-- (c) mapshakers 2015, Licence: CC0 1.0 Universal, www.mapshakers.com  -->
<!DOCTYPE svg PUBLIC "-//W3C//DTD SVG 1.1//EN" "http://www.w3.org/Graphics/SVG/1.1/DTD/svg11.dtd">
<svg version="1.1" id="barracks" xmlns="http://www.w3.org/2000/svg" xmlns:xlink="http://www.w3.org/1999/xlink" x="0px"
	 y="0px" width="256px" height="256px" viewBox="0 0 256 256" style="enable-background:new 0 0 256 256;" xml:space="preserve">
<style type="text/css">
<![CDATA[
	.st0{fill:#D1D1D1;}
	.st1{fill:#454545;}
]]>
</style>
<path class="st0" d="M236.646,101.815l-21.283-16.277c0.2-0.791,0.305-1.614,0.305-2.453v-38.59c0-11.028-8.972-20-20-20h-10
	c-11.028,0-20,8.972-20,20v3.037l-22.924-17.532c-3.993-3.057-8.963-4.74-13.993-4.74c-5.029,0-9.999,1.682-13.991,4.736
	l-93.906,71.819c-10.084,7.715-12.014,22.197-4.3,32.285c4.393,5.743,11.063,9.037,18.298,9.037c5.096,0,9.931-1.638,13.984-4.737
	c0.078-0.06,0.155-0.121,0.231-0.183c0.158-0.128,5.079-4.125,12.48-10.078l1.49,10.87c0.323,2.356,1.476,4.521,3.251,6.104
	l34.494,30.765l-2.443,2.739c-6.292-2.625-11.734-3.114-14.916-3.114c-1.733,0-2.897,0.142-3.315,0.203
	c-10.769,1.568-12.663,8.19-12.978,10.965c-0.309,2.729,0.038,9.432,9.703,13.396c0.32,0.189,1.157,0.719,2.614,1.854l-3.445,3.446
	c-3.824,0.516-7.59,2.426-10.583,5.418c-2.729,2.729-4.603,6.171-5.277,9.693c-0.932,4.863,0.41,9.527,3.68,12.796l5.06,5.06
	c2.557,2.559,6.044,3.969,9.819,3.969c4.516,0,9.134-2.028,12.671-5.564c3.053-3.053,4.91-6.828,5.413-10.607l3.438-3.438
	c1.145,1.467,1.678,2.309,1.869,2.631c3.302,8.062,8.413,9.772,12.154,9.772c2.417,0,10.443-0.94,12.206-13.046
	c0.151-1.036,1.072-8.681-2.911-18.229l4.288-3.822l4.059,3.621c-3.985,9.551-3.063,17.198-2.912,18.234
	c1.766,12.106,9.79,13.048,12.208,13.048c3.742,0,8.855-1.714,12.154-9.774c0.191-0.321,0.722-1.161,1.861-2.622l3.447,3.447
	c0.506,3.773,2.362,7.543,5.411,10.591c3.536,3.534,8.153,5.562,12.668,5.562c3.771,0,7.258-1.407,9.819-3.966l5.063-5.063
	c5.855-5.856,5.154-15.734-1.604-22.495c-2.996-2.991-6.767-4.9-10.593-5.413l-3.438-3.438c1.463-1.142,2.302-1.672,2.623-1.861
	c9.662-3.969,10.01-10.666,9.701-13.395c-0.314-2.774-2.208-9.396-12.979-10.966c-0.419-0.062-1.582-0.203-3.313-0.203
	c-3.181,0-8.622,0.489-14.914,3.114l-2.237-2.51l33.904-30.221c1.697-1.513,2.828-3.56,3.206-5.802l2.221-13.17
	c8.378,6.731,14.077,11.36,14.247,11.499c0.077,0.063,0.154,0.123,0.233,0.184c4.054,3.1,8.889,4.737,13.981,4.737
	c7.233,0,13.903-3.294,18.303-9.042C248.66,124.011,246.729,109.53,236.646,101.815z M134.193,79.935
	c9.521,6.899,23.787,17.998,37.277,28.668l-8.518,1.167c-2.357,0.323-4.521,1.476-6.105,3.251l-29.035,32.553l-28.854-32.371
	c-1.513-1.698-3.56-2.829-5.802-3.207l-7.328-1.236c13.559-10.727,27.926-21.907,37.479-28.827c0.025-0.016,0.299-0.2,0.41-0.279
	c1.337-0.96,3.116-1.489,5.009-1.489"/>
<path class="st1" d="M175.667,60.143V44.496c0-5.5,4.5-10,10-10h10c5.5,0,10,4.5,10,10v38.59L175.667,60.143z M233.005,128.023
	c-2.489,3.252-6.264,5.116-10.358,5.116c-2.881,0-5.615-0.929-7.908-2.682c0,0-51.82-42.115-75.121-58.941
	c-0.084-0.061-0.168-0.092-0.252-0.14c-2.885-2.004-6.592-3.211-10.639-3.211c-4.146,0-7.928,1.273-10.843,3.367
	c-0.036,0.023-0.071,0.034-0.107,0.06C94.426,88.469,42.76,130.458,42.76,130.458c-2.292,1.753-5.027,2.681-7.909,2.681
	c-4.095,0-7.87-1.863-10.356-5.113c-4.364-5.708-3.272-13.902,2.434-18.267l93.905-71.818c2.26-1.729,5.071-2.68,7.916-2.68
	c2.846,0,5.656,0.952,7.915,2.681l93.905,71.817C236.275,114.123,237.368,122.316,233.005,128.023z"/>
<path class="st1" d="M175.517,215.419l-14.142-14.142c9.585-9.16,13.107-10.531,13.107-10.531c5.406-2.1,5.137-4.503-0.605-5.34
	c0,0-8.938-1.303-19.01,5.55l-14.133-15.855l41.369-36.874l3.623-21.484l-21.416,2.935l-36.5,40.923l-36.316-40.744l-21.486-3.623
	l2.936,21.418l41.958,37.421l-14.342,16.079c-10.071-6.853-19.011-5.549-19.011-5.549c-5.74,0.836-6.012,3.24-0.605,5.34
	c0,0,3.523,1.371,13.1,10.524L79.9,215.611c-2.006-0.955-5.066-0.098-7.411,2.246c-2.746,2.746-3.463,6.484-1.599,8.348l5.063,5.063
	c1.862,1.863,5.6,1.146,8.346-1.599c2.351-2.351,3.207-5.425,2.238-7.432l14.138-14.138c9.168,9.59,10.541,13.115,10.541,13.115
	c2.099,5.407,4.503,5.135,5.339-0.604c0,0,1.302-8.939-5.549-19.012l16.824-14.996l16.591,14.798
	c-6.854,10.072-5.551,19.013-5.551,19.013c0.837,5.74,3.241,6.014,5.341,0.605c0,0,1.372-3.524,10.532-13.109l14.142,14.142
	c-0.964,2.007-0.106,5.074,2.24,7.421c2.747,2.745,6.482,3.461,8.348,1.598l5.063-5.063c1.863-1.863,1.146-5.602-1.598-8.347
	C180.587,215.314,177.521,214.457,175.517,215.419z"/>
</svg>
