<?xml version="1.0" encoding="utf-8"?>
<!-- (c) mapshakers 2015, Licence: CC0 1.0 Universal, www.mapshakers.com  -->
<!DOCTYPE svg PUBLIC "-//W3C//DTD SVG 1.1//EN" "http://www.w3.org/Graphics/SVG/1.1/DTD/svg11.dtd">
<svg version="1.1" id="battlefield" xmlns="http://www.w3.org/2000/svg" xmlns:xlink="http://www.w3.org/1999/xlink" x="0px" y="0px"
	 width="256px" height="256px" viewBox="0 0 256 256" style="enable-background:new 0 0 256 256;" xml:space="preserve">
<style type="text/css">
<![CDATA[
	.st0{fill:#D1D1D1;}
	.st1{fill:#454545;}
]]>
</style>
<path class="st0" d="M33.811,249.595c-4.842,0-9.278-1.771-12.492-4.983l-9.595-9.595c-7.669-7.672-6.338-21.019,3.029-30.389
	c5.069-5.07,11.562-7.983,17.821-8.002l15.472-15.472c-9.146-8.094-13.311-10.414-14.024-10.784
	c-12.19-4.836-14.102-11.686-13.545-16.599c0.562-4.955,4.009-11.267,17.246-13.198c0.476-0.069,2.242-0.294,5.033-0.294
	c6.208,0,17.583,1.128,30.459,7.813l15.805-17.72l-70.434-62.82c-1.829-1.631-3.016-3.86-3.349-6.288l-5.564-40.6
	c-0.445-3.247,0.681-6.511,3.034-8.792c1.937-1.879,4.516-2.906,7.169-2.906c0.569,0,1.142,0.047,1.712,0.144l40.729,6.864
	c2.31,0.39,4.418,1.555,5.977,3.303l59.885,67.188l60.23-67.529c1.63-1.829,3.86-3.016,6.287-3.349l40.599-5.565
	c0.468-0.064,0.936-0.096,1.4-0.096c2.767,0,5.439,1.116,7.393,3.13c2.281,2.353,3.308,5.65,2.764,8.882l-6.865,40.728
	c-0.39,2.31-1.555,4.418-3.303,5.977l-69.317,61.785l15.409,17.288c12.872-6.682,24.246-7.81,30.452-7.81
	c2.793,0,4.561,0.225,5.036,0.294c13.236,1.929,16.685,8.239,17.246,13.193c0.557,4.914-1.355,11.763-13.546,16.6
	c-0.714,0.37-4.878,2.691-14.022,10.784l15.474,15.473c6.257,0.021,12.748,2.934,17.817,8.003
	c9.368,9.368,10.699,22.717,3.031,30.389l-9.599,9.596c-3.212,3.212-7.648,4.983-12.489,4.983c-0.001,0-0.001,0-0.003,0
	c-6.282-0.001-12.806-2.922-17.896-8.016c-5.173-5.172-7.978-11.684-7.998-17.816l-15.475-15.474
	c-8.093,9.146-10.413,13.311-10.783,14.023c-3.585,9.039-8.705,13.624-15.223,13.624c-4.499,0-12.375-2.251-14.575-17.323
	c-0.109-0.754-2.253-16.593,7.524-35.488l-19.536-17.425L108.24,183.13c9.777,18.896,7.632,34.731,7.522,35.482
	c-2.196,15.074-10.073,17.325-14.572,17.325c-6.516,0-11.635-4.582-15.22-13.623c-0.371-0.714-2.693-4.879-10.786-14.022
	l-15.476,15.476c-0.022,6.131-2.828,12.642-7.999,17.813C46.616,246.675,40.092,249.595,33.811,249.595z"/>
<g>
	<polygon class="st1" points="91.936,183.865 72.471,164.401 196.097,25.792 236.695,20.227 229.831,60.955 	"/>
	<path class="st1" d="M105.57,217.128c-1.585,10.882-6.142,11.397-10.122,1.146c0,0-3.189-8.209-26.182-31.202
		c-22.993-22.992-31.204-26.181-31.204-26.181c-10.251-3.982-9.734-8.539,1.147-10.126c0,0,23.854-3.478,46.845,19.515
		C109.048,193.273,105.57,217.128,105.57,217.128z"/>
	
		<rect x="50.902" y="159.125" transform="matrix(0.7071 0.7071 -0.7071 0.7071 156.4846 15.2847)" class="st1" width="17.778" height="74.843"/>
	<path class="st1" d="M44.426,234.299c-5.206,5.205-12.29,6.563-15.822,3.03l-9.596-9.596c-3.533-3.533-2.175-10.616,3.03-15.823
		l0,0c5.206-5.205,12.289-6.561,15.821-3.028l9.596,9.595C50.987,222.01,49.631,229.093,44.426,234.299L44.426,234.299z"/>
</g>
<g>
	<polygon class="st1" points="183.517,164.027 164.053,183.492 25.442,59.866 19.878,19.267 60.606,26.131 	"/>
	<path class="st1" d="M216.779,150.394c10.882,1.585,11.396,6.141,1.146,10.121c0,0-8.209,3.188-31.202,26.182
		c-22.991,22.992-26.18,31.204-26.18,31.204c-3.983,10.251-8.539,9.734-10.127-1.147c0,0-3.479-23.853,19.515-46.846
		C192.925,146.913,216.779,150.394,216.779,150.394z"/>
	
		<rect x="187.309" y="158.752" transform="matrix(0.7071 -0.7071 0.7071 0.7071 -81.2498 196.1903)" class="st1" width="17.778" height="74.841"/>
	<path class="st1" d="M233.95,211.537c5.205,5.205,6.563,12.289,3.03,15.823l-9.597,9.594c-3.533,3.534-10.618,2.177-15.822-3.029
		l0,0c-5.205-5.205-6.562-12.288-3.028-15.821l9.595-9.596C221.661,204.975,228.744,206.331,233.95,211.537L233.95,211.537z"/>
</g>
</svg>
