<?xml version="1.0" encoding="utf-8"?>
<!-- (c) mapshakers 2015, Licence: CC0 1.0 Universal, www.mapshakers.com  -->
<!DOCTYPE svg PUBLIC "-//W3C//DTD SVG 1.1//EN" "http://www.w3.org/Graphics/SVG/1.1/DTD/svg11.dtd">
<svg version="1.1" id="beach" xmlns="http://www.w3.org/2000/svg" xmlns:xlink="http://www.w3.org/1999/xlink" x="0px" y="0px"
	 width="256px" height="256px" viewBox="0 0 256 256" style="enable-background:new 0 0 256 256;" xml:space="preserve">
<style type="text/css">
<![CDATA[
	.st0{fill:#464646;}
	.st1{fill:#D1D1D1;}
]]>
</style>
<path class="st1" d="M252.479,126.63c-0.101-0.812-0.242-1.628-0.437-2.5c-5.095-22.859-16.944-42.513-35.228-58.416
	c-19.65-17.092-42.936-27.293-69.31-30.438c-0.012-0.607-0.037-1.2-0.063-1.77c-0.373-8.251-6.353-14.819-14.537-15.972
	c-0.736-0.104-1.49-0.156-2.24-0.156c-7.436,0-14.155,5.066-15.976,12.042c-0.533,2.037-0.656,3.994-0.636,5.732
	c-17.652,2.063-34.319,7.57-49.711,16.479C37.892,66.94,20.095,88.669,11.444,116.216c-0.755,2.405-1.305,4.705-1.887,7.139
	c-0.253,1.061-0.515,2.157-0.806,3.303c-1.064,4.189,0.684,8.588,4.333,10.902c1.643,1.043,3.503,1.559,5.357,1.559
	c2.264,0,4.519-0.768,6.354-2.276c4.709-3.874,14.15-6.28,24.638-6.28c8.146,0,15.938,1.479,20.844,3.959
	c1.458,0.736,3.012,1.09,4.542,1.09c0.816-0.002,1.626-0.102,2.411-0.297c0.763,0.93,1.7,1.728,2.781,2.343
	c1.537,0.875,3.243,1.309,4.944,1.309c1.984,0,3.963-0.59,5.663-1.758c5.22-3.586,12.554-6.383,20.84-8.114
	c-0.213,0.813-0.334,1.662-0.334,2.538v58.775c0,1.873,0.529,3.684,1.491,5.243c-4.058,0.475-8.035,0.813-11.929,0.982
	c-2.594,0.113-5.147,0.172-7.588,0.172c-11.986,0-22.564-1.367-32.338-4.179c-9.737-2.8-18.394-6.507-26.467-11.331
	c-1.593-0.952-3.365-1.416-5.127-1.416c-2.549,0-5.075,0.973-6.995,2.852c-3.246,3.175-3.946,8.138-1.705,12.086
	c6.781,11.945,15.159,21.213,25.612,28.334c6.871,4.681,13.505,7.922,20.281,9.908c7.093,2.08,14.442,3.137,21.842,3.137
	c7.832,0,15.877-1.182,23.91-3.512c6.593-1.912,13.066-4.174,19.39-6.473c-2.772,2.992-3.481,7.417-1.664,11.157
	c1.695,3.493,5.222,5.633,8.992,5.633c0.646,0,1.3-0.063,1.952-0.192c4.326-0.859,8.599-1.865,12.729-2.838
	c11.381-2.678,22.131-5.207,34.898-5.207c10.406,0,21.021,1.729,32.449,5.284c0.982,0.306,1.982,0.453,2.972,0.453
	c3.403,0,6.662-1.744,8.519-4.762c2.076-3.375,1.937-7.597-0.209-10.8c1.82-0.623,3.477-1.767,4.717-3.391
	c2.969-3.888,2.688-9.353-0.66-12.917c-0.168-0.178-0.299-0.323-0.411-0.448c-0.363-0.399-0.815-0.898-1.452-1.455
	c-6.289-5.494-13.135-10.16-20.346-13.873c-11.754-6.047-23.918-9.112-36.155-9.112c-1.282,0-2.585,0.034-3.873,0.101
	c-9.966,0.514-19.267,2.719-27.14,4.865c0.082-0.516,0.129-1.042,0.129-1.578v-55.803c0-1.002-0.149-1.971-0.426-2.886
	c9.359,1.615,17.703,4.66,23.984,8.893c1.669,1.124,3.617,1.706,5.588,1.706c0.924,0,1.852-0.128,2.758-0.388
	c2.104-0.604,3.93-1.874,5.225-3.589c0.775,0.188,1.57,0.285,2.367,0.285c1.125-0.002,2.252-0.19,3.334-0.572
	c8.386-2.967,15.964-4.407,23.166-4.407c8.76,0,16.811,2.153,24.611,6.585c1.549,0.879,3.248,1.305,4.934,1.305
	c2.802,0,5.563-1.176,7.516-3.396C251.925,132.68,252.848,129.595,252.479,126.63z"/>
<g>
	<path class="st0" d="M227.757,214.26c-5.614-4.904-11.714-9.1-18.343-12.512c-10.964-5.641-22.539-8.557-34.938-7.918
		c-8.812,0.455-17.344,2.406-25.793,4.734c-15.584,4.295-31.35,7.346-47.558,8.059c-14.616,0.641-29.018-0.328-43.128-4.387
		c-10.113-2.908-19.751-6.93-28.833-12.357c5.69,10.023,12.989,18.496,22.546,25.007c5.44,3.705,11.153,6.726,17.466,8.578
		c13.418,3.935,26.926,3.451,40.152-0.385c10.845-3.146,21.407-7.291,32.042-11.131c13.417-4.847,27.07-8.449,41.428-8.988
		c12.645-0.476,24.702,1.789,36.123,7.246c3.246,1.554,6.375,3.356,9.989,5.274C228.318,214.85,228.063,214.527,227.757,214.26z"/>
	<path class="st0" d="M192,216.625c-17.293-2.619-38.383,3.723-53.166,16.375c24.316-4.833,46.707-14.417,84.999-2.5
		C223.833,230.5,213.555,219.891,192,216.625z"/>
	<path class="st0" d="M242.552,127.847c-0.063-0.518-0.157-1.033-0.271-1.543c-4.738-21.266-15.703-38.843-32.029-53.045
		C189.4,55.123,164.893,45.89,137.408,44.417C113.204,43.12,90.369,48.12,69.35,60.286c-23.427,13.56-40.16,32.8-48.364,58.927
		c-0.967,3.076-1.614,6.252-2.542,9.906c12.831-10.554,41.779-10.883,56.344-3.523c0.16-0.271,0.259-0.389,0.307-0.53
		c0.096-0.281,0.186-0.568,0.241-0.861c4.736-25.032,16.812-45.998,35.176-63.475c3.293-3.134,6.337-3.46,8.567-0.99
		c2.23,2.47,1.646,5.161-1.652,8.287c-16.956,16.076-27.966,35.445-32.298,58.493c-0.133,0.708-0.106,1.448-0.171,2.443
		c21.325-14.65,65.903-16.924,91.14,0.076c0.055-0.125,0.166-0.26,0.148-0.379c-0.128-0.963-0.241-1.93-0.428-2.883
		c-4.529-23.095-15.752-42.425-32.898-58.413c-2.697-2.515-3.042-5.324-0.896-7.663c2.056-2.239,5.09-2.132,7.731,0.306
		c13.879,12.805,24.338,27.962,30.82,45.707c2.375,6.5,3.993,13.276,5.87,19.634c18.882-6.677,37.707-7.507,56.051,2.91
		C242.495,128.266,242.577,128.05,242.552,127.847z"/>
	<path class="st0" d="M125.874,38.851c1.553,0.095,3.125-0.113,4.688-0.199c0,0.025,0,0.051,0,0.076c0.67,0,1.344-0.036,2.013,0.005
		c5.017,0.313,5.106,0.23,4.878-4.773c-0.155-3.419-2.547-6.045-5.941-6.523c-3.008-0.423-6.358,1.483-7.149,4.513
		c-0.474,1.813-0.308,3.83-0.175,5.738C124.219,38.132,125.263,38.813,125.874,38.851z"/>
	<path class="st0" d="M130.82,131.12c-3.273,0-6.521,0.182-9.694,0.511v58.775c5.098-0.852,10.368-1.95,15.823-3.275v-55.803
		C134.934,131.195,132.891,131.12,130.82,131.12z"/>
</g>
</svg>
