<?xml version="1.0" encoding="utf-8"?>
<!-- (c) mapshakers 2015, Licence: CC0 1.0 Universal, www.mapshakers.com  -->
<!DOCTYPE svg PUBLIC "-//W3C//DTD SVG 1.1//EN" "http://www.w3.org/Graphics/SVG/1.1/DTD/svg11.dtd">
<svg version="1.1" id="boundary_stone" xmlns="http://www.w3.org/2000/svg" xmlns:xlink="http://www.w3.org/1999/xlink" x="0px" y="0px"
	 width="256px" height="256px" viewBox="0 0 256 256" style="enable-background:new 0 0 256 256;" xml:space="preserve">
<style type="text/css">
<![CDATA[
	.st0{fill:#D1D1D1;}
	.st1{fill:#454545;}
]]>
</style>
<path class="st0" d="M184.359,208.411v-70.664V85.31c0-5.668-2.32-13.178-5.517-17.856l-38.812-56.816
	C137.149,6.419,132.764,4,128.001,4c-4.764,0-9.148,2.419-12.031,6.638L77.159,67.454c-3.196,4.679-5.517,12.189-5.517,17.856
	v52.437v70.662l-25.808,19.084v6.451c0,9.203,7.487,16.691,16.691,16.691h130.951c9.204,0,16.691-7.488,16.691-16.691v-6.451
	L184.359,208.411z"/>
<g>
	<polygon class="st1" points="128,108.55 81.642,142.829 81.642,186.15 128,151.872 174.359,186.15 174.359,142.83 	"/>
	<path class="st1" d="M128,81.208l46.359,34.279V85.35c0-3.68-1.698-9.177-3.774-12.216l-38.811-56.815
		c-2.076-3.039-5.472-3.039-7.548,0L85.416,73.134c-2.076,3.039-3.774,8.536-3.774,12.216v30.137L128,81.208z"/>
	<path class="st1" d="M128,179.213l-72.166,53.362v1.408c0,3.68,3.011,6.691,6.691,6.691h25.808h79.335h25.808
		c3.68,0,6.691-3.012,6.691-6.691v-1.407L128,179.213z"/>
</g>
</svg>
