<?xml version="1.0" encoding="utf-8"?>
<!-- (c) mapshakers 2015, Licence: CC0 1.0 Universal, www.mapshakers.com  -->
<!DOCTYPE svg PUBLIC "-//W3C//DTD SVG 1.1//EN" "http://www.w3.org/Graphics/SVG/1.1/DTD/svg11.dtd">
<svg version="1.1" id="buddhism" xmlns="http://www.w3.org/2000/svg" xmlns:xlink="http://www.w3.org/1999/xlink"
	 x="0px" y="0px" width="256px" height="256px" viewBox="0 0 256 256" style="enable-background:new 0 0 256 256;"
	 xml:space="preserve">
<style type="text/css">
<![CDATA[
	.st0{fill:#D1D1D1;}
	.st1{fill:#454545;}
]]>
</style>
<path class="st0" d="M71.034,256.465c-2.302,0-4.495-0.117-6.369-0.227c-8.569-0.504-15.617-4.424-19.849-11.035
	c-4.659-7.281-5.226-16.826-1.555-26.188c6.794-17.356,12.62-35.619,18.253-53.281c1.438-4.51,2.876-9.021,4.332-13.521
	c0.846-2.635,1.273-6.05,1.264-10.13c-0.101-26.331,12.222-44.099,35.737-51.703c-0.233-0.378-0.444-0.771-0.631-1.179
	c-14.678-32.08-6.553-61.514,22.876-82.879c1.887-1.37,4.106-2.053,6.323-2.053c2.3,0,4.599,0.735,6.522,2.202
	c14.037,10.696,23.131,23.141,27.025,36.989c4.063,14.451,2.396,30.076-4.955,46.44c-0.115,0.259-0.24,0.513-0.379,0.76
	c26.906,7.901,33.535,30.45,36.352,51.82c2.088,15.852,6.291,31.322,10.742,47.703c1.801,6.623,3.657,13.465,5.35,20.283
	c6.328,5.813,9.945,12.801,10.256,19.883c0.273,6.303-2.18,12.342-6.912,17.006c-5.967,5.883-14.542,6.789-21.434,7.521
	c-2.267,0.24-4.403,0.469-6.155,0.82c-0.999,0.195-1.976,0.289-2.966,0.289c-2.687,0-5.039-0.682-6.576-1.192
	c-15.387-5.094-31.15-7.68-46.838-7.68c-15.691,0-31.856,2.587-48.044,7.688C79.806,255.938,75.877,256.465,71.034,256.465z
	 M95.476,187.232c0.955-1.021,1.684-2.104,2.185-3.237c0.776-1.761,1.267-4.25,0.98-7.747
	C97.587,179.904,96.533,183.563,95.476,187.232z M163.494,175.662c-0.25,2.852,0.027,5.287,0.84,7.302
	c0.501,1.245,1.268,2.445,2.297,3.599C166.631,186.563,164.252,178.296,163.494,175.662z"/>
<path class="st1" d="M112.004,84.725c-12.733-27.83-5.768-51.412,19.412-69.692c23.947,18.246,31.634,41.851,18.777,70.457
	c-2.207,0.965-5.988,1.597-7.811,3.827c-0.876,1.076,1.453,5.535,3.229,7.753c1.242,1.553,3.904,2.307,6.066,2.729
	c24.413,4.748,30.682,21.686,33.631,44.092c3.105,23.592,10.76,46.598,16.482,69.846c0.322,1.287,0.832,2.818,1.773,3.597
	c7.742,6.397,11.215,15.541,4.293,22.36c-4.67,4.604-14.574,3.929-22.162,5.457c-1.254,0.244-2.752-0.146-4.016-0.563
	c-33.843-11.203-67.619-10.729-101.517-0.044c-4.614,1.452-9.938,1.242-14.874,0.953c-12.079-0.71-16.328-11.547-12.013-22.553
	c8.641-22.07,15.507-44.846,22.806-67.418c1.364-4.248,1.797-8.974,1.786-13.467c-0.089-23.049,10.305-37.377,33.232-42.813
	c3.604-0.854,6.112-6.289,9.129-9.606C117.433,88.401,115.554,86.844,112.004,84.725z M78.728,206.494
	c33.931-7.786,39.399-26.844,18.424-63.945C90.84,164.455,85.028,184.609,78.728,206.494z M183.748,207.139
	c-6.411-22.307-12.257-42.582-18.566-64.568C144.116,178.82,149.118,197.223,183.748,207.139z"/>
</svg>
