<?xml version="1.0" encoding="utf-8"?>
<!-- (c) mapshakers 2015, Licence: CC0 1.0 Universal, www.mapshakers.com  -->
<!DOCTYPE svg PUBLIC "-//W3C//DTD SVG 1.1//EN" "http://www.w3.org/Graphics/SVG/1.1/DTD/svg11.dtd">
<svg version="1.1" id="building" xmlns="http://www.w3.org/2000/svg" xmlns:xlink="http://www.w3.org/1999/xlink" x="0px" y="0px"
	 width="256px" height="256px" viewBox="0 0 256 256" style="enable-background:new 0 0 256 256;" xml:space="preserve">
<style type="text/css">
<![CDATA[
	.st0{fill:#464646;}
	.st1{fill:#D1D1D1;}
]]>
</style>
<path class="st1" d="M169.234,71.584c0.646-1.645,1-3.408,1-5.266c0-9.553-9.139-16.756-21.26-16.756h-4.371
	c0.18-0.847,0.283-1.721,0.283-2.623V32.311c-0.004-7.937-7.207-13.921-16.757-13.921c-9.553,0-16.757,5.987-16.757,13.926v14.625
	c0,0.902,0.105,1.776,0.284,2.623h-4.631c-12.121,0-21.262,7.203-21.262,16.756c0,1.857,0.354,3.621,1,5.266
	C76.649,73.215,68.892,81.98,68.892,92.549V216.35c0,11.724,9.538,21.262,21.261,21.262h46.504h26.438h2.75
	c11.725,0,21.262-9.538,21.262-21.262V92.549C187.107,81.98,179.352,73.215,169.234,71.584z"/>
<g>
	<path class="st0" d="M107.026,73.076h41.949c6.193,0,11.26-3.041,11.26-6.758c0-3.714-5.066-6.755-11.26-6.756h-41.949
		c-6.194,0-11.262,3.041-11.262,6.756C95.764,70.035,100.832,73.076,107.026,73.076z"/>
	<path class="st0" d="M165.848,81.287H90.153c-6.193,0-11.261,5.067-11.261,11.262V216.35c0,6.192,5.068,11.262,11.261,11.262
		h46.504v-2.922v-8.517v-34.769c0-2.479,2.026-4.506,4.505-4.506h17.454c2.478,0,4.505,2.026,4.505,4.506v43.285
		c0,0.092-0.02,0.177-0.025,0.267v2.653h2.752c6.193,0,11.262-5.067,11.262-11.262v-123.8
		C177.107,86.354,172.041,81.287,165.848,81.287z M119.977,197.732c0,2.478-2.027,4.504-4.505,4.504H98.017
		c-2.478,0-4.504-2.026-4.504-4.504v-17.455c0-2.479,2.027-4.504,4.504-4.504h17.455c2.478,0,4.505,2.025,4.505,4.504V197.732z
		 M119.977,159.727c0,2.479-2.027,4.504-4.505,4.504H98.017c-2.478,0-4.504-2.025-4.504-4.504v-17.455
		c0-2.479,2.027-4.504,4.504-4.504h17.455c2.478,0,4.505,2.025,4.505,4.504V159.727z M119.977,120.312
		c0,2.478-2.027,4.505-4.505,4.505H98.017c-2.478,0-4.504-2.027-4.504-4.505v-17.454c0-2.479,2.027-4.506,4.504-4.506h17.455
		c2.478,0,4.505,2.027,4.505,4.506V120.312z M163.121,159.727c0,2.479-2.027,4.504-4.505,4.504h-17.454
		c-2.479,0-4.505-2.025-4.505-4.504v-17.455c0-2.479,2.026-4.504,4.505-4.504h17.454c2.478,0,4.505,2.025,4.505,4.504V159.727z
		 M163.121,120.312c0,2.478-2.027,4.505-4.505,4.505h-17.454c-2.479,0-4.505-2.027-4.505-4.505v-17.454
		c0-2.479,2.026-4.506,4.505-4.506h17.454c2.478,0,4.505,2.027,4.505,4.506V120.312z"/>
	<path class="st0" d="M128.13,50.866c3.716,0,6.757-1.767,6.757-3.926V32.315c0-2.159-3.041-3.926-6.757-3.926
		c-3.715,0-6.756,1.767-6.757,3.926V46.94C121.373,49.099,124.414,50.866,128.13,50.866z"/>
</g>
</svg>
