<?xml version="1.0" encoding="utf-8"?>
<!-- (c) mapshakers 2015, Licence: CC0 1.0 Universal, www.mapshakers.com  -->
<!DOCTYPE svg PUBLIC "-//W3C//DTD SVG 1.1//EN" "http://www.w3.org/Graphics/SVG/1.1/DTD/svg11.dtd">
<svg version="1.1" id="burger" xmlns="http://www.w3.org/2000/svg" xmlns:xlink="http://www.w3.org/1999/xlink" x="0px" y="0px"
	 width="256px" height="256px" viewBox="0 0 256 256" style="enable-background:new 0 0 256 256;" xml:space="preserve">
<style type="text/css">
<![CDATA[
	.st0{fill:#464646;}
	.st1{fill:#D1D1D1;}
]]>
</style>
<path class="st1" d="M223.876,184.617c4.701-0.872,8.427-2.665,11.281-5.413c3.767-3.625,5.677-8.633,5.677-14.886
	c0-8.41-5.098-14.541-8.932-18.42c-1.924-1.945-4.502-2.969-7.114-2.969c-0.065,0-0.132,0-0.198,0.002
	c4.795-2.311,8.917-5.531,10.915-9.718c2.252-4.719,1.629-9.969-1.666-14.041c-1.401-1.735-2.985-2.803-5.187-3.503
	c6.02-5.805,5.998-14.74,5.982-22.075l-0.002-1.318c0.001-1.819-0.392-18.243-14.35-34.669
	c-17.883-21.045-48.672-31.729-91.512-31.752h-0.14c-42.778,0-73.529,10.678-91.401,31.737
	c-13.94,16.428-14.345,32.858-14.345,34.678v0.19c0,7.85,0,19.031,8.041,24.738c-3.013,0.843-3.963,1.533-4.696,2.064
	c-6.168,4.477-5.759,9.961-5.297,12.11c1.094,5.085,4.787,7.402,8.699,8.71c-0.13-0.006-0.26-0.008-0.389-0.008
	c-2.41,0-4.783,0.871-6.643,2.524c-6.148,5.461-12.434,12.313-12.434,21.717c0,4.98,2.065,16.632,20.36,21.738
	c-2.557,1.053-4.863,2.823-6.283,5.805c-4.221,8.857-3.458,18.982,2.096,27.781c5.915,9.37,16.098,15.668,25.339,15.668h154.932
	c8.098,0,16.414-4.592,22.248-12.281c6.527-8.604,8.639-19.379,5.791-29.561C233.268,188.525,229.25,186.07,223.876,184.617z"/>
<path class="st0" d="M126.588,194.759c52.618-6.721,97.334-2.513,98.432,1.406c4.317,15.438-8.283,29.146-18.408,29.146H51.678
	c-10.124,0-25.305-14.675-18.408-29.146C35.793,190.87,81.327,200.539,126.588,194.759z M32.104,127.358
	c-6.897,5.005,13.487,2.96,18.408,10.078c4.631,6.698,10.089,16.731,13.117,13.943c4.602-4.236,16.107-15.912,59.57-13.561
	c6.682,0.36,82.246-0.383,82.246-0.383c10.125,0,24.936-6.639,20.617-11.977c-1.098-1.356-17.387-1.692-100.812-4.863
	C79.896,118.874,34.626,125.528,32.104,127.358z M220.697,109.277c-1.998-0.146-4.305-0.268-7.032-0.41
	c-9.424-0.489-24.994-1.07-50.789-2.033c-10.624-0.396-22.962-0.857-37.276-1.401c-5.047-0.192-10.312-0.289-15.648-0.289
	c-23.411,0-43.871,1.859-53.983,2.967c-7.142,0.783-12.463,1.505-16.465,2.163c-6.666-1.772-6.617-9.188-6.617-18.002
	c0,0,0-56.468,95.88-56.416c95.902,0.053,95.866,56.416,95.866,56.416C224.634,99.913,224.914,106.503,220.697,109.277z
	 M68.543,92.954c0-1.694-2.519-3.068-5.625-3.068s-5.625,1.374-5.625,3.068c0,1.694,2.519,3.068,5.625,3.068
	S68.543,94.648,68.543,92.954z M87.917,75.313c0-1.694-2.519-3.068-5.625-3.068s-5.625,1.374-5.625,3.068s2.519,3.068,5.625,3.068
	S87.917,77.008,87.917,75.313z M101.723,85.54c0-1.694-2.518-3.068-5.625-3.068s-5.625,1.374-5.625,3.068s2.519,3.068,5.625,3.068
	S101.723,87.234,101.723,85.54z M121.966,50.002c0-1.694-1.395-3.068-3.113-3.068c-1.718,0-3.112,1.374-3.112,3.068
	s1.394,3.068,3.112,3.068C120.571,53.07,121.966,51.697,121.966,50.002z M140.012,72.246c0-1.694-2.519-3.068-5.623-3.068
	c-3.106,0-5.625,1.374-5.625,3.068c0,1.694,2.519,3.068,5.625,3.068C137.493,75.313,140.012,73.939,140.012,72.246z M168.963,59.207
	c0-2.118-2.634-3.835-5.88-3.835c-3.247,0-5.881,1.717-5.881,3.835s2.634,3.835,5.881,3.835
	C166.329,63.042,168.963,61.324,168.963,59.207z M184.303,83.75c0-1.694-2.519-3.068-5.623-3.068c-3.107,0-5.625,1.374-5.625,3.068
	s2.518,3.068,5.625,3.068C181.784,86.818,184.303,85.445,184.303,83.75z M224.791,152.93c-6.293,3.162-13.943,4.68-19.346,4.68
	c-0.399,0.005-49.123,0.48-71.51,0.48c-0.002,0-0.002,0-0.004,0c-8.202,0-10.335-0.063-11.229-0.111
	c-3.635-0.196-7.163-0.297-10.485-0.297c-30.014,0-38.43,7.793-42.024,11.119l-0.353,0.327c-2.032,1.87-4.651,2.902-7.374,2.902
	c-7.439,0-11.867-6.771-16.993-14.609c-0.783-1.196-1.559-2.386-2.314-3.487c-1.383-0.947-5.792-1.859-7.948-2.306
	c-1.922-0.397-4.011-0.835-5.97-1.551c-5.349,4.752-9.076,9.166-9.076,14.241c0,7.037,7.329,10.99,15.866,12.793
	c43.423,9.183,124.122-8.492,172.303-2.439c19.431,2.439,22.498-3.316,22.498-10.354
	C230.834,160.271,228.462,156.645,224.791,152.93z"/>
</svg>
