<?xml version="1.0" encoding="utf-8"?>
<!-- (c) mapshakers 2015, Licence: CC0 1.0 Universal, www.mapshakers.com  -->
<!DOCTYPE svg PUBLIC "-//W3C//DTD SVG 1.1//EN" "http://www.w3.org/Graphics/SVG/1.1/DTD/svg11.dtd">
<svg version="1.1" id="camera" xmlns="http://www.w3.org/2000/svg" xmlns:xlink="http://www.w3.org/1999/xlink" x="0px" y="0px"
	 width="256px" height="256px" viewBox="0 0 256 256" style="enable-background:new 0 0 256 256;" xml:space="preserve">
<style type="text/css">
<![CDATA[
	.st0{fill:#464646;}
	.st1{fill:#D1D1D1;}
]]>
</style>
<path class="st1" d="M40.5,218.75c-16.542,0-30-13.458-30-30v-80.022c0-1.821,0.487-3.529,1.338-5c-0.851-1.471-1.338-3.179-1.338-5
	V90.75c0-16.158,12.84-29.374,28.854-29.979c2.597-5.335,8.074-9.021,14.396-9.021h19.5c4.075,0,7.799,1.531,10.627,4.049
	l1.566-3.921c3.332-8.339,12.614-14.627,21.592-14.627h41.428c8.98,0,18.266,6.289,21.594,14.629l3.543,8.871H215
	c16.542,0,30,13.458,30,30v7.978c0,1.821-0.486,3.529-1.338,5c0.852,1.471,1.338,3.179,1.338,5v80.022c0,16.542-13.458,30-30,30
	L40.5,218.75L40.5,218.75z"/>
<path class="st0" d="M130.416,106.396c-20.782,0-37.688,16.907-37.688,37.688s16.907,37.688,37.688,37.688
	s37.688-16.904,37.688-37.688S151.197,106.396,130.416,106.396z M95.968,98.728c9.417-7.084,21.117-11.29,33.782-11.29
	s24.365,4.205,33.782,11.29H236V90.75c0-11-9-20-20-20h-48.727c-0.006-0.888-0.188-1.84-0.582-2.836l-4.922-12.328
	c-1.83-4.585-7.367-8.336-12.308-8.336h-41.428c-4.937,0-10.474,3.752-12.305,8.336l-4.923,12.328
	c-0.398,0.996-0.578,1.948-0.583,2.836H80.25v-3c0-3.3-2.7-6-6-6h-19.5c-3.3,0-6,2.7-6,6v3H41.5c-11,0-20,9-20,20v7.978H95.968z
	 M173.797,108.728c7.667,9.622,12.266,21.792,12.266,35.022c0,31.05-25.263,56.313-56.313,56.313S73.438,174.8,73.438,143.75
	c0-13.23,4.598-25.4,12.264-35.022H21.5v80.022c0,11,9,20,20,20H216c11,0,20-9,20-20v-80.022H173.797z"/>
</svg>
