<?xml version="1.0" encoding="utf-8"?>
<!-- (c) mapshakers 2015, Licence: CC0 1.0 Universal, www.mapshakers.com  -->
<!DOCTYPE svg PUBLIC "-//W3C//DTD SVG 1.1//EN" "http://www.w3.org/Graphics/SVG/1.1/DTD/svg11.dtd">
<svg version="1.1" id="camp_site" xmlns="http://www.w3.org/2000/svg" xmlns:xlink="http://www.w3.org/1999/xlink" x="0px" y="0px"
	 width="256px" height="256px" viewBox="0 0 256 256" style="enable-background:new 0 0 256 256;" xml:space="preserve">
<style type="text/css">
<![CDATA[
	.st0{fill:#D1D1D1;}
	.st1{fill:#454545;}
]]>
</style>
<path class="st0" d="M25.991,243.51c-10.432,0-18.919-8.486-18.919-18.918c0-9.869,7.596-17.998,17.249-18.847L90.239,90.064
	c0.367-1.21,0.876-2.371,1.525-3.471l12.691-21.478l5.71-10.02L99.412,36.899c-2.17-3.671-2.78-7.968-1.718-12.1
	c1.063-4.131,3.669-7.601,7.341-9.771c2.458-1.454,5.266-2.223,8.118-2.223c5.622,0,10.892,3.006,13.752,7.845l1.913,3.236
	l2.098-3.551c2.863-4.84,8.133-7.845,13.754-7.845c2.85,0,5.656,0.768,8.115,2.22c3.674,2.17,6.281,5.64,7.344,9.772
	c1.063,4.13,0.451,8.427-1.718,12.099l-10.959,18.546l4.651,8.161l13.953,23.612c0.686,1.161,1.216,2.387,1.587,3.663
	l65.599,115.122c10.09,0.391,18.177,8.721,18.177,18.905c0,10.432-8.487,18.918-18.919,18.918H25.991z"/>
<path class="st1" d="M232.5,217.146h-5.077L158.225,95.708c-0.103-0.77-0.357-1.533-0.777-2.244l-13.993-23.68l-7.563-13.272
	l13.911-23.542c1.677-2.838,0.736-6.498-2.102-8.174c-2.839-1.677-6.497-0.735-8.175,2.102l-10.44,17.669l-0.285-0.5l-0.267,0.468
	l-10.236-17.321c-1.678-2.838-5.337-3.78-8.174-2.102c-2.838,1.677-3.779,5.337-2.102,8.174l13.706,23.193l-8.622,15.131
	l-12.727,21.538c-0.398,0.675-0.645,1.396-0.757,2.126L30.174,217.146h-4.183c-4.926,0-8.919,3.994-8.919,8.92
	s3.993,8.918,8.919,8.918H232.5c4.926,0,8.919-3.992,8.919-8.918S237.426,217.146,232.5,217.146z M78.745,217.063l50.5-91.947
	l50.5,91.947H78.745z"/>
</svg>
