<?xml version="1.0" encoding="utf-8"?>
<!-- (c) mapshakers 2015, Licence: CC0 1.0 Universal, www.mapshakers.com  -->
<!DOCTYPE svg PUBLIC "-//W3C//DTD SVG 1.1//EN" "http://www.w3.org/Graphics/SVG/1.1/DTD/svg11.dtd">
<svg version="1.1" id="car" xmlns="http://www.w3.org/2000/svg" xmlns:xlink="http://www.w3.org/1999/xlink" x="0px" y="0px"
	 width="256px" height="256px" viewBox="0 0 256 256" style="enable-background:new 0 0 256 256;" xml:space="preserve">
<style type="text/css">
<![CDATA[
	.st0{fill:#D1D1D1;}
	.st1{fill:#454545;}
]]>
</style>
<path class="st0" d="M197.602,193.902c-13.949,0-25.677-9.694-28.797-22.701c-0.361,0.04-0.729,0.061-1.103,0.061H88.301
	c-0.277,0-0.552-0.012-0.824-0.033c-3.129,12.991-14.85,22.674-28.789,22.674c-14.048,0-25.842-9.834-28.861-22.979
	c-0.237,0.018-0.475,0.025-0.713,0.025c-0.563,0-1.128-0.049-1.691-0.145c-14.565-2.498-25.258-15.007-25.427-29.74l-0.018-1.555
	c-0.184-16.173,9.789-30.58,22.704-32.801c5.288-0.91,15.88-7.146,22.139-14.13C56.074,82.256,73.7,74.446,87.82,74.413l40.63-0.095
	c14.163,0,31.94,7.811,41.438,18.169l0.557,0.608c6.123,6.675,19.291,14.003,28.182,15.686l28.553,5.399
	c15.568,2.943,28.217,16.086,28.801,29.922c0.271,6.498-2.129,12.793-6.758,17.729c-5.426,5.785-13.471,9.214-22.072,9.405
	c-0.073,0.003-0.149,0.004-0.227,0.004c-0.18,0-0.357-0.006-0.533-0.014C223.262,184.221,211.54,193.902,197.602,193.902z"/>
<path class="st1" d="M57.699,144.684c10.83,0,19.609,8.779,19.609,19.609s-8.779,19.609-19.609,19.609
	c-10.83,0-19.609-8.779-19.609-19.609S46.869,144.684,57.699,144.684z M196.611,144.684c10.83,0,19.609,8.779,19.609,19.609
	s-8.779,19.609-19.609,19.609s-19.609-8.779-19.609-19.609S185.781,144.684,196.611,144.684z M224.333,124.004l-28.554-5.399
	c-10.979-2.076-26.139-10.514-33.691-18.749l-0.561-0.611c-7.551-8.235-22.869-14.953-34.043-14.927l-40.63,0.095
	c-11.173,0.026-26.282,6.704-33.575,14.841c-7.293,8.137-19.845,15.926-27.891,17.311c-8.047,1.384-14.526,11.657-14.399,22.83
	l0.018,1.557c0.114,10.004,7.545,18.355,17.118,19.999c1.669-14.845,14.292-26.423,29.574-26.423
	c15.39,0,28.089,11.74,29.613,26.734h79.402c1.524-14.994,14.226-26.734,29.614-26.734c15.381,0,28.076,11.729,29.609,26.714
	c10.906-0.244,19.439-7.663,19.062-16.72C244.611,135.313,235.313,126.08,224.333,124.004z M70.165,120.12
	c-11.173-0.042-16.083-5.62-10.91-12.396c5.172-6.775,18.546-12.321,29.719-12.321h11.196l7.153,24.854L70.165,120.12z
	 M148.546,120.407l-30.642-0.112l-7.165-24.892h15.477c11.175,0,25.339,5.643,31.479,12.541
	C163.838,114.84,159.721,120.448,148.546,120.407z"/>
</svg>
