<?xml version="1.0" encoding="utf-8"?>
<!-- (c) mapshakers 2015, Licence: CC0 1.0 Universal, www.mapshakers.com  -->
<!DOCTYPE svg PUBLIC "-//W3C//DTD SVG 1.1//EN" "http://www.w3.org/Graphics/SVG/1.1/DTD/svg11.dtd">
<svg version="1.1" id="cartography" xmlns="http://www.w3.org/2000/svg" xmlns:xlink="http://www.w3.org/1999/xlink" x="0px" y="0px"
	 width="256px" height="256px" viewBox="0 0 256 256" style="enable-background:new 0 0 256 256;" xml:space="preserve">
<style type="text/css">
<![CDATA[
	.st0{fill:#464646;}
	.st1{fill:#D1D1D1;}
]]>
</style>
<path class="st1" d="M183.554,121.198l55.363-42.133c10.948-8.335,13.075-24.025,4.742-34.975c-4.76-6.254-12.003-9.84-19.87-9.84
	c-5.496,0-10.718,1.761-15.103,5.095L188.394,54.79c0.307-3.724-0.407-7.387-2.287-10.549c-4.896-8.223-16.492-12.525-25.417-12.525
	H96.163c-10.25,0-21.914,6.655-27.131,15.482l-9.649,16.331c-2.991,5.061-3.89,11.16-2.928,16.947L38.478,63.029
	c-3.455-3.351-8.008-5.197-12.822-5.197c-5.021,0-9.713,1.983-13.217,5.591c-7.065,7.288-6.888,18.968,0.395,26.035l57.144,55.454
	l-45.41,34.558c-10.949,8.336-13.076,24.025-4.744,34.97c4.76,6.257,12.002,9.845,19.872,9.845c5.498,0,10.721-1.763,15.103-5.098
	l22.596-17.196c-1.262,3.762-0.971,7.403,1.046,10.588c4.677,7.386,17.616,8.183,22.961,8.183h61.157
	c10.243,0,21.911-6.643,27.143-15.452l2.772-4.672c3.182-5.361,4.006-11.876,2.747-17.948l19.643,18.454
	c3.427,3.221,7.904,4.994,12.607,4.994c5.067,0,9.96-2.116,13.418-5.802c3.369-3.584,5.141-8.266,4.987-13.182
	c-0.152-4.918-2.212-9.481-5.796-12.846L183.554,121.198z"/>
<g>
	<path class="st0" d="M168.096,120.396l64.764-49.287c6.572-5.004,7.846-14.388,2.843-20.962c-5.001-6.57-14.386-7.843-20.959-2.844
		L98.824,135.525L31.515,70.207c-3.334-3.234-8.66-3.155-11.896,0.177c-3.235,3.337-3.155,8.663,0.179,11.898l65.485,63.549
		l-54.657,41.595c-6.572,5.004-7.846,14.387-2.843,20.959c2.942,3.867,7.4,5.899,11.913,5.899c3.158,0,6.34-0.996,9.046-3.056
		l105.775-80.5l67.194,63.127c1.624,1.526,3.692,2.281,5.759,2.281c2.24,0,4.478-0.888,6.131-2.649
		c3.184-3.388,3.019-8.712-0.369-11.892L168.096,120.396z"/>
	<path class="st0" d="M93.36,108.333c4.964,4.577,13.448,5.01,18.853,0.963l60.018-44.941c5.404-4.047,7.781-10.797,5.283-14.999
		c-2.502-4.202-10.07-7.641-16.824-7.641H96.163c-6.752,0-15.086,4.756-18.522,10.569l-9.65,16.331
		c-3.435,5.813-2.184,14.314,2.78,18.891L93.36,108.333z"/>
	<path class="st0" d="M163.544,160.748c-4.991-4.547-13.528-4.999-18.974-1.006l-50.02,36.693
		c-5.444,3.992-8.892,8.852-7.662,10.793c1.23,1.942,7.761,3.532,14.513,3.532h61.157c6.752,0,15.096-4.75,18.543-10.556
		l2.772-4.672c3.446-5.807,2.183-14.276-2.81-18.824L163.544,160.748z"/>
</g>
</svg>
