<?xml version="1.0" encoding="utf-8"?>
<!-- (c) mapshakers 2015, Licence: CC0 1.0 Universal, www.mapshakers.com  -->
<!DOCTYPE svg PUBLIC "-//W3C//DTD SVG 1.1//EN" "http://www.w3.org/Graphics/SVG/1.1/DTD/svg11.dtd">
<svg version="1.1" id="cash" xmlns="http://www.w3.org/2000/svg" xmlns:xlink="http://www.w3.org/1999/xlink" x="0px" y="0px"
	 width="256px" height="256px" viewBox="0 0 256 256" style="enable-background:new 0 0 256 256;" xml:space="preserve">
<style type="text/css">
<![CDATA[
	.st0{fill:#464646;}
	.st1{fill:#D1D1D1;}
]]>
</style>
<path class="st1" d="M233.176,73.007H69.268c-8.892,0-16.126,7.235-16.126,16.127v7.572c0,0.274,0.018,0.545,0.041,0.813H44.99
	c-8.892,0-16.127,7.234-16.127,16.127v6.825h-7.479c-8.892,0-16.127,7.235-16.127,16.126v81.512c0,8.893,7.235,16.127,16.127,16.127
	h163.908c8.894,0,16.128-7.234,16.128-16.127v-6.836c0.066,0.002,0.133,0.01,0.201,0.01h7.275c8.894,0,16.127-7.234,16.127-16.126
	v-8.431c0.289,0.026,0.582,0.045,0.877,0.045h7.275c8.893,0,16.127-7.235,16.127-16.127V89.134
	C249.303,80.242,242.068,73.007,233.176,73.007z"/>
<g>
	<path class="st0" d="M208.896,107.001H44.989c-3.67,0-6.645,2.975-6.645,6.646v7.571h145.999c9.526,0,17.277,7.75,17.277,17.276
		v63.308h7.276c3.67,0,6.646-2.975,6.646-6.645v-81.511C215.542,109.976,212.566,107.001,208.896,107.001z"/>
</g>
<circle class="st0" cx="103.337" cy="177.354" r="24.554"/>
<path class="st0" d="M185.291,129.953H21.383c-3.67,0-6.645,2.975-6.645,6.645v81.514c0,3.668,2.975,6.645,6.645,6.645h163.908
	c3.67,0,6.646-2.977,6.646-6.645v-81.514C191.938,132.928,188.961,129.953,185.291,129.953z M152.871,211.463H51.453
	c-0.411-13.65-10.367-24.896-23.425-27.292v-13.636c13.058-2.396,23.014-13.643,23.425-27.292h101.418
	c1.083,14.073,11.925,25.405,25.775,27.241v13.735C164.796,186.059,153.954,197.391,152.871,211.463z"/>
<g>
	<path class="st0" d="M233.176,82.489H69.268c-3.669,0-6.645,2.975-6.645,6.645v7.572h145.999c9.526,0,17.276,7.75,17.276,17.277
		v63.307h7.276c3.671,0,6.646-2.976,6.646-6.646V89.134C239.82,85.463,236.848,82.489,233.176,82.489z"/>
</g>
</svg>
