<?xml version="1.0" encoding="utf-8"?>
<!-- (c) mapshakers 2015, Licence: CC0 1.0 Universal, www.mapshakers.com  -->
<!DOCTYPE svg PUBLIC "-//W3C//DTD SVG 1.1//EN" "http://www.w3.org/Graphics/SVG/1.1/DTD/svg11.dtd">
<svg version="1.1" id="city" xmlns="http://www.w3.org/2000/svg" xmlns:xlink="http://www.w3.org/1999/xlink" x="0px" y="0px"
	 width="256px" height="256px" viewBox="0 0 256 256" style="enable-background:new 0 0 256 256;" xml:space="preserve">
<style type="text/css">
<![CDATA[
	.st0{fill:#464646;}
	.st1{fill:#D1D1D1;}
]]>
</style>
<path class="st1" d="M224.139,58.118l-29.14-16.603c-3.549-2.021-8.063-3.134-12.71-3.134c-4.648,0-9.162,1.113-12.71,3.135
	l-29.14,16.602c-7.424,4.229-12.812,13.499-12.812,22.042v25.041c0,2.575,0.017,6.049,0.017,6.049l-14.083-0.063l0.015-7.732V52.364
	c0-10.123-8.235-18.358-18.358-18.358H70.045v-7.452c0-8.773-7.137-15.91-15.93-15.91c-8.773,0-15.91,7.137-15.91,15.91v8.372
	c-7.315,2.418-12.608,9.321-12.608,17.437v153.513c0,10.123,8.235,18.358,18.358,18.358h43.224c2.444,0,4.78-0.904,6.593-2.498
	c0.114,10.211,8.446,18.483,18.683,18.483h32.777c10.308,0,18.692-8.386,18.692-18.692v-2.225l-0.05-18.615l7.852-0.121h46.291
	c10.438,0,18.933-8.491,18.933-18.931V80.16C236.949,71.617,231.563,62.346,224.139,58.118z"/>
<g>
	<path class="st0" d="M145.232,121.886H137.1c-4.779,0-12.605,0-17.387,0h-7.258c-4.781,0-8.693,3.912-8.693,8.694v54.23
		c0.333-0.062,0.676-0.098,1.028-0.098h13.162c3.081,0,5.601,2.52,5.601,5.602v7.093c0,3.081-2.52,5.602-5.601,5.602H104.79
		c-0.352,0-0.693-0.036-1.028-0.1v18.616c0,4.781,3.912,8.692,8.693,8.692h32.777c4.781,0,8.692-3.911,8.692-8.692v-2.225h-12.62
		v0.002c-3.08,0-5.601-2.521-5.601-5.602v-7.096c0-3.08,2.521-5.601,5.601-5.601h12.62V130.58
		C153.925,125.798,150.014,121.886,145.232,121.886z M116.971,150.34c-3.08,0-5.601-2.521-5.601-5.601v-7.095
		c0-3.078,2.52-5.601,5.601-5.601h13.162c3.081,0,5.602,2.521,5.602,5.601v7.095c0,3.079-2.521,5.601-5.602,5.601H116.971z
		 M148.889,172.825c0,3.08-2.521,5.601-5.601,5.601h-13.161c-3.08,0-5.601-2.521-5.601-5.601v-7.093
		c0-3.082,2.521-5.602,5.601-5.602h13.161c3.08,0,5.601,2.52,5.601,5.602V172.825z"/>
	<path class="st0" d="M219.188,66.807L190.05,50.205c-4.271-2.432-11.253-2.432-15.521,0l-29.141,16.602
		c-4.269,2.432-7.761,8.441-7.761,13.354v25.041h8.302V94.83c0-4.597,3.76-8.358,8.357-8.358h19.643
		c4.598,0,8.357,3.761,8.357,8.358v10.587c0,4.597-3.76,8.358-8.357,8.358h-4.578c1.498,2.557,2.373,5.522,2.373,8.694v68.098
		h46.293c4.91,0,8.932-4.019,8.932-8.931V80.16C226.949,75.248,223.457,69.238,219.188,66.807z M215.727,168.093
		c0,4.597-3.764,8.357-8.359,8.357h-19.643c-4.598,0-8.357-3.761-8.357-8.357v-10.589c0-4.597,3.761-8.355,8.357-8.355h19.643
		c4.597,0,8.359,3.762,8.359,8.355V168.093z M215.727,130.869c0,3.081-2.521,5.602-5.602,5.602h-13.163
		c-3.08,0-5.601-2.521-5.601-5.602v-7.093c0-3.08,2.521-5.601,5.601-5.601h13.163c3.081,0,5.602,2.52,5.602,5.601V130.869z"/>
	<path class="st0" d="M95.22,44.006H60.045V26.554c0-3.251-2.66-5.91-5.91-5.91h-0.02c-3.251,0-5.91,2.659-5.91,5.91v17.45h-4.25
		c-4.597,0-8.358,3.761-8.358,8.358v153.513c0,4.598,3.761,8.357,8.358,8.357h43.224c-0.129-0.849-0.217-1.711-0.217-2.597v-55.214
		h-5.818c-4.597,0-8.358-3.761-8.358-8.357v-10.586c0-4.6,3.761-8.358,8.358-8.358h5.818v-8.428c0-9.302,7.398-16.889,16.616-17.236
		V52.364C103.578,47.767,99.817,44.006,95.22,44.006z M44.072,98.029c0-3.388,2.773-6.161,6.162-6.161h14.48
		c3.39,0,6.162,2.772,6.162,6.161v7.806c0,3.389-2.772,6.161-6.162,6.161H50.232c-3.389,0-6.162-2.773-6.162-6.161L44.072,98.029z
		 M78.226,179.212L78.224,189.8c0,4.599-3.761,8.358-8.358,8.358H50.225c-4.597,0-8.358-3.762-8.358-8.358v-10.588
		c0-4.597,3.761-8.356,8.358-8.356h19.643C74.465,170.855,78.226,174.616,78.226,179.212z M96.403,73.676
		c0,4.597-3.761,8.358-8.358,8.358H68.403c-4.597,0-8.358-3.761-8.358-8.358V63.089c0-4.597,3.761-8.358,8.358-8.358h19.642
		c4.597,0,8.358,3.761,8.358,8.358V73.676z"/>
</g>
</svg>
