<?xml version="1.0" encoding="utf-8"?>
<!-- (c) mapshakers 2015, Licence: CC0 1.0 Universal, www.mapshakers.com  -->
<!DOCTYPE svg PUBLIC "-//W3C//DTD SVG 1.1//EN" "http://www.w3.org/Graphics/SVG/1.1/DTD/svg11.dtd">
<svg version="1.1" id="compass_alt" xmlns="http://www.w3.org/2000/svg" xmlns:xlink="http://www.w3.org/1999/xlink" x="0px" y="0px"
	 width="256px" height="256px" viewBox="0 0 256 256" style="enable-background:new 0 0 256 256;" xml:space="preserve">
<style type="text/css">
<![CDATA[
	.st0{fill:#464646;}
	.st1{fill:#D1D1D1;}
]]>
</style>
<path class="st1" d="M129.195,255.264c-4.336,0-8.133-2.91-9.261-7.099l-18.06-67.08l-27.773,15.99
	c-1.494,0.86-3.144,1.28-4.783,1.28c-2.482,0-4.938-0.963-6.785-2.811c-3.067-3.066-3.694-7.811-1.53-11.566l16.146-28.045
	l-67.194-18.09c-4.188-1.128-7.098-4.925-7.098-9.262s2.91-8.134,7.098-9.262l67.152-18.08L61.004,73.273
	c-2.164-3.758-1.537-8.501,1.53-11.568c1.847-1.847,4.303-2.809,6.785-2.809c1.639,0,3.288,0.419,4.783,1.279l28.321,16.306
	l18.303-67.979c1.128-4.188,4.925-7.098,9.262-7.098c4.337,0,8.134,2.91,9.262,7.098l18.159,67.45l27.399-15.776
	c1.493-0.86,3.145-1.279,4.782-1.279c2.481,0,4.938,0.962,6.785,2.809c3.065,3.066,3.692,7.81,1.53,11.568l-15.725,27.311
	l67.258,18.109c4.188,1.128,7.099,4.925,7.099,9.262s-2.909,8.134-7.099,9.262l-67.93,18.288l16.395,28.475
	c2.164,3.759,1.537,8.502-1.529,11.567c-1.848,1.847-4.305,2.81-6.785,2.81c-1.639,0-3.288-0.418-4.783-1.278l-28.22-16.248
	l-18.129,67.337C137.33,252.354,133.533,255.264,129.195,255.264z"/>
<path class="st0" d="M166.979,149.484l79.97-21.53l-79.3-21.351l21.945-38.116l-38.205,21.998l-21.4-79.49l-21.544,80.019
	L69.316,68.487L91.64,107.26l-79.191,21.321l79.234,21.333l-22.367,38.85l38.579-22.214l21.3,79.121l21.371-79.377l39.025,22.47
	L166.979,149.484z M129.459,137.188c2.366-0.002,4.508-0.963,6.057-2.517l43.603,43.604l-49.658-30.197L129.459,137.188
	L129.459,137.188z M226.561,127.954l-63.121,15.383l-8.471-14.711l0.387-0.672H226.561z M148.914,128.624h-10.898
	c0-2.363-0.959-4.502-2.508-6.051l43.605-43.609L148.914,128.624z M145.254,94.017l-15.261,8.786V31.396L145.254,94.017z
	 M129.456,109.164v10.902c-2.365,0-4.505,0.958-6.054,2.507L79.798,78.964L129.456,109.164z M95.17,113.392l8.746,15.19H32.835
	L95.17,113.392z M79.803,178.273L110,128.616h10.895c0,0.004,0,0.006,0,0.01c0,2.362,0.958,4.501,2.503,6.051l-13.094,13.095
	l-0.034-0.138l-5.887,5.888l0.003,0.004l0.035,0.129L79.803,178.273z M114.022,163.023l15.167-8.733v70.981L114.022,163.023z"/>
</svg>
