<?xml version="1.0" encoding="utf-8"?>
<!-- (c) mapshakers 2015, Licence: CC0 1.0 Universal, www.mapshakers.com  -->
<!DOCTYPE svg PUBLIC "-//W3C//DTD SVG 1.1//EN" "http://www.w3.org/Graphics/SVG/1.1/DTD/svg11.dtd">
<svg version="1.1" id="compass" xmlns="http://www.w3.org/2000/svg" xmlns:xlink="http://www.w3.org/1999/xlink" x="0px" y="0px"
	 width="256px" height="256px" viewBox="0 0 256 256" style="enable-background:new 0 0 256 256;" xml:space="preserve">
<style type="text/css">
<![CDATA[
	.st0{fill:#464646;}
	.st1{fill:#D1D1D1;}
]]>
</style>
<path class="st1" d="M128.666,254.34c-32.768,0-63.574-12.76-86.743-35.93c-47.829-47.83-47.829-125.656,0-173.487
	c23.17-23.17,53.977-35.93,86.744-35.93c32.767,0,63.574,12.76,86.744,35.93c47.829,47.83,47.829,125.656,0,173.487
	C192.241,241.58,161.436,254.34,128.666,254.34z"/>
<path class="st0" d="M208.34,51.994c-21.281-21.281-49.576-33.001-79.673-33.001c-30.096,0-58.391,11.72-79.673,33.001
	c-43.93,43.932-43.93,115.414,0,159.345c21.281,21.281,49.576,33.001,79.672,33.001c30.098,0,58.393-11.72,79.674-33.001
	C252.27,167.407,252.27,95.925,208.34,51.994z M45.67,140.291h10.674c5.346,0,9.68-4.334,9.68-9.68c0-5.347-4.334-9.68-9.681-9.68
	h-10.42c1.96-15.244,8.105-30.041,18.451-42.514l40.987,40.987l-27.48,57.046c-2.214,4.596-1.432,7.286,1.562,7.286
	c1.165,0,2.666-0.408,4.455-1.271l57.043-27.48l40.979,40.98c-12.563,10.443-27.735,16.875-43.944,18.662v-11.096
	c0-5.348-4.334-9.682-9.681-9.682c-5.346,0-9.68,4.334-9.68,9.682v11.006c-18.495-2.206-35.614-10.46-48.988-23.835
	C55.545,176.619,47.567,158.712,45.67,140.291z M115.28,129.975c0.037-0.291,0.094-0.576,0.149-0.86
	c0.039-0.204,0.08-0.407,0.128-0.608c0.042-0.172,0.09-0.342,0.138-0.512c0.057-0.203,0.113-0.406,0.179-0.604
	c0.052-0.155,0.113-0.307,0.17-0.46c0.077-0.206,0.151-0.414,0.238-0.614c0.039-0.089,0.084-0.173,0.125-0.261
	c0.233-0.509,0.495-1.002,0.788-1.475c0.035-0.056,0.066-0.115,0.101-0.171c0.142-0.221,0.295-0.434,0.449-0.646
	c0.063-0.087,0.124-0.177,0.188-0.262c0.157-0.207,0.323-0.405,0.492-0.602c0.069-0.081,0.137-0.163,0.208-0.242
	c0.178-0.198,0.362-0.389,0.551-0.576c0.067-0.066,0.134-0.132,0.202-0.197c0.203-0.192,0.411-0.379,0.625-0.559
	c0.054-0.045,0.108-0.089,0.163-0.133c0.236-0.192,0.478-0.379,0.727-0.555c0.017-0.012,0.034-0.021,0.051-0.034
	c1.723-1.203,3.74-2.015,5.923-2.305c0.587-0.078,1.182-0.132,1.791-0.132c7.458,0,13.504,6.046,13.504,13.502
	c0,0.607-0.054,1.205-0.133,1.793c-0.29,2.186-1.104,4.201-2.307,5.926c-0.013,0.016-0.021,0.029-0.031,0.047
	c-0.174,0.246-0.359,0.482-0.549,0.719c-0.047,0.058-0.094,0.115-0.143,0.173c-0.175,0.209-0.357,0.411-0.546,0.61
	c-0.069,0.072-0.144,0.146-0.214,0.221c-0.182,0.183-0.365,0.359-0.557,0.531c-0.088,0.078-0.18,0.154-0.271,0.231
	c-0.187,0.159-0.375,0.315-0.569,0.466c-0.104,0.079-0.211,0.152-0.314,0.229c-0.194,0.14-0.391,0.278-0.592,0.407
	c-0.108,0.07-0.227,0.136-0.338,0.203c-0.426,0.254-0.863,0.487-1.316,0.696c-0.089,0.04-0.174,0.087-0.264,0.126
	c-0.178,0.077-0.36,0.141-0.543,0.21c-0.178,0.067-0.354,0.14-0.532,0.199c-0.181,0.062-0.365,0.11-0.55,0.163
	c-0.188,0.055-0.377,0.109-0.566,0.154c-0.188,0.045-0.374,0.082-0.563,0.119c-0.285,0.057-0.567,0.112-0.858,0.15l-29.165,14.053
	L115.28,129.975z M193.209,184.625l-40.697-40.698l27.479-57.044c3.073-6.385,0.366-9.092-6.019-6.016l-57.042,27.48L75.7,67.117
	c12.567-10.35,27.717-16.704,43.885-18.442v9.98c0,5.346,4.334,9.68,9.681,9.68c5.346,0,9.68-4.334,9.68-9.68v-9.834
	c18.406,2.247,35.439,10.487,48.761,23.806c13.793,13.793,21.718,31.254,23.821,49.272h-10.307c-5.347,0-9.681,4.334-9.681,9.68
	c0,5.346,4.334,9.68,9.681,9.68h10.326C209.768,156.785,203.664,171.9,193.209,184.625z"/>
</svg>
