<?xml version="1.0" encoding="utf-8"?>
<!-- (c) mapshakers 2015, Licence: CC0 1.0 Universal, www.mapshakers.com  -->
<!DOCTYPE svg PUBLIC "-//W3C//DTD SVG 1.1//EN" "http://www.w3.org/Graphics/SVG/1.1/DTD/svg11.dtd">
<svg version="1.1" id="construction" xmlns="http://www.w3.org/2000/svg" xmlns:xlink="http://www.w3.org/1999/xlink" x="0px"
	 y="0px" width="256px" height="256px" viewBox="0 0 256 256" style="enable-background:new 0 0 256 256;" xml:space="preserve">
<style type="text/css">
<![CDATA[
	.st0{fill:#D1D1D1;}
	.st1{fill:#454545;}
]]>
</style>
<path class="st0" d="M245.862,111.418l-20.579-20.58c-1.188-1.188-5.079-4.861-9.633-8.816c0.52-3.052,0.238-6.175-0.871-9.229
	c-1.775-4.883-5.301-8.705-8.516-11.797c-4.77-4.59-9.551-9.415-14.176-14.082c-6.819-6.882-13.871-13.998-21.23-20.724
	c-5.328-4.866-13.506-11.529-22.965-13.203C129.017,9.643,110.356,7.117,90.6,4.442c-7.304-0.989-14.693-1.989-22.19-3.046
	c-0.467-0.065-0.934-0.098-1.397-0.098c-3.096,0-6.052,1.44-7.958,3.947c-2.192,2.882-2.654,6.724-1.209,10.044
	c0.377,0.867,0.511,1.598,0.552,1.886c-0.093,3.986,2.216,7.076,5.868,8.734c12.766,5.798,48.165,23.829,58.525,37.45
	c7.043,9.262,0.291,22.14-1.491,25.189c-16.958,16.966-37.504,37.977-57.387,58.307c-18.289,18.701-37.201,38.039-52.586,53.473
	c-8.225,8.248-8.134,19.512,0.226,28.027c4.311,4.391,8.939,9.041,14.567,14.635c5.196,5.164,10.45,9.801,17.571,9.801
	c7.188,0,12.558-4.77,17.878-10.084c26.601-26.57,91.361-92.816,105.191-107.082c1.846,1.76,3.585,3.359,4.938,4.604
	c0.919,0.846,1.869,1.721,2.171,2.023l20.581,20.58c3.172,3.17,7.388,4.918,11.873,4.918s8.702-1.748,11.872-4.918l27.666-27.666
	c3.172-3.172,4.919-7.388,4.919-11.875S249.033,114.588,245.862,111.418z"/>
<path class="st1" d="M161.192,127.045l39.797-39.22c7.543-7.233,3.659-12.931-2.423-18.782
	c-11.862-11.416-23.072-23.529-35.215-34.626c-5.099-4.656-11.503-9.597-17.967-10.741c-25.721-4.558-51.7-7.669-79.133-11.536
	c1.331,3.057,1.385,5.505,1.385,5.505s48.171,21.858,62.351,40.502c12.567,16.525-1.562,37.496-1.562,37.496L161.192,127.045z"/>
<path class="st1" d="M114.936,110.917c11.049,11.044,21.151,21.144,31.902,31.888c-1.978,2.169-64.045,64.647-93.099,93.667
	c-9.506,9.496-12.036,9.508-21.333,0.267c-4.851-4.822-9.687-9.665-14.482-14.549c-4.452-4.535-4.817-9.41-0.28-13.961
	C49.891,175.887,82.218,143.623,114.936,110.917z"/>
<path class="st1" d="M180.178,126.42c-2.65,2.651-2.65,6.951,0,9.602l20.581,20.58c2.652,2.652,6.951,2.652,9.603,0l27.667-27.667
	c2.652-2.652,2.652-6.952,0-9.604l-20.579-20.58c-2.651-2.651-6.951-2.652-9.604,0L180.178,126.42z"/>
</svg>
