<?xml version="1.0" encoding="utf-8"?>
<!-- (c) mapshakers 2015, Licence: CC0 1.0 Universal, www.mapshakers.com  -->
<!DOCTYPE svg PUBLIC "-//W3C//DTD SVG 1.1//EN" "http://www.w3.org/Graphics/SVG/1.1/DTD/svg11.dtd">
<svg version="1.1" id="contour" xmlns="http://www.w3.org/2000/svg" xmlns:xlink="http://www.w3.org/1999/xlink" x="0px"
	 y="0px" width="256px" height="256px" viewBox="0 0 256 256" style="enable-background:new 0 0 256 256;" xml:space="preserve">
<style type="text/css">
<![CDATA[
	.st0{fill:#464646;}
	.st1{fill:#D1D1D1;}
]]>
</style>
<g>
	<path class="st1" d="M126,253C59.761,253,5.871,199.11,5.871,132.871S59.761,12.742,126,12.742s120.129,53.89,120.129,120.129
		S192.239,253,126,253z"/>
</g>
<g>
	<circle class="st0" cx="117" cy="140.57" r="22.57"/>
</g>
<g>
	<path class="st0" d="M119.579,201.871c-34.621,0-62.787-28.166-62.787-62.787c0-34.621,28.166-62.787,62.787-62.787
		s62.787,28.166,62.787,62.787C182.365,173.705,154.199,201.871,119.579,201.871z M119.579,100.297
		c-21.387,0-38.787,17.399-38.787,38.787c0,21.388,17.399,38.787,38.787,38.787s38.787-17.399,38.787-38.787
		C158.365,117.697,140.966,100.297,119.579,100.297z"/>
</g>
<g>
	<path class="st0" d="M126,243c-60.725,0-110.129-49.403-110.129-110.129C15.871,72.146,65.275,22.742,126,22.742
		c60.726,0,110.129,49.404,110.129,110.129C236.129,193.597,186.726,243,126,243z M126,46.742
		c-47.492,0-86.129,38.637-86.129,86.129C39.871,180.362,78.508,219,126,219c47.491,0,86.129-38.638,86.129-86.129
		C212.129,85.379,173.491,46.742,126,46.742z"/>
</g>
</svg>
