<?xml version="1.0" encoding="utf-8"?>
<!-- (c) mapshakers 2015, Licence: CC0 1.0 Universal, www.mapshakers.com  -->
<!DOCTYPE svg PUBLIC "-//W3C//DTD SVG 1.1//EN" "http://www.w3.org/Graphics/SVG/1.1/DTD/svg11.dtd">
<svg version="1.1" id="court_house" xmlns="http://www.w3.org/2000/svg" xmlns:xlink="http://www.w3.org/1999/xlink" x="0px" y="0px"
	 width="256px" height="256px" viewBox="0 0 256 256" style="enable-background:new 0 0 256 256;" xml:space="preserve">
<style type="text/css">
<![CDATA[
	.st0{fill:#D1D1D1;}
	.st1{fill:#454545;}
]]>
</style>
<path class="st0" d="M49.742,251.834c-5.523,0-10-4.478-10-10V230.5c0-11.763,9.57-21.333,21.333-21.333h5.432
	c0.942-2.253,2.347-4.266,4.094-5.92c-5.965,2.16-12.693,3.363-19.859,3.363c-25.37,0-45.242-15.078-45.242-34.326
	c0-3.097,0-10.349,18.355-55.58c5.952-14.668,11.959-28.698,15.228-36.252c-6.896-1.118-13.648-3.935-20.149-8.417
	c-10.517-7.249-8.425-23.569-7.534-28.399c0.517-2.801,2.205-5.249,4.638-6.729c1.668-1.014,10.421-6.074,18.961-6.074
	c3.912,0,7.364,1.013,10.26,3.009c0.478,0.33,0.822,0.55,1.064,0.696c1.676-0.507,5.302-2.214,7.158-3.087
	c9.148-4.308,21.678-10.208,39.678-10.208c5.734,0,11.686,0.624,17.78,1.861c3.873-6.904,9.313-11.391,10.16-12.065
	c1.823-1.451,4.026-2.177,6.229-2.177s4.406,0.726,6.229,2.177c0.782,0.623,5.819,4.771,9.653,11.191
	c5.859-1.176,11.601-1.77,17.151-1.77c17.021,0,29.161,5.374,38.026,9.297c1.875,0.83,5.539,2.452,7.227,2.92
	c0.239-0.152,0.579-0.381,1.051-0.722c2.978-2.158,6.584-3.253,10.715-3.253c8.368,0,16.935,4.694,18.567,5.634
	c2.468,1.423,4.212,3.831,4.795,6.619c1.004,4.807,3.477,21.074-6.868,28.567c-5.672,4.108-11.568,6.911-17.62,8.385
	c3.001,6.913,9.554,22.143,16.042,38.131c18.354,45.231,18.354,52.483,18.354,55.58c0,19.248-19.873,34.326-45.242,34.326
	c-25.37,0-45.243-15.078-45.243-34.326c0-3.097,0-10.349,18.355-55.581c6.559-16.162,13.184-31.549,16.14-38.354
	c-5.845-1.436-10.921-3.683-15.048-5.509c-6.446-2.854-12.013-5.318-19.442-5.318c-3.991,0-8.318,0.71-13.094,2.157
	c5.348,29.355,13.566,84.411,8.129,121.458c1.877,2.471,3.434,5.174,4.629,8.028h9.096c7.196,0,13.383,4.408,16,10.667h9.721
	c11.764,0,21.334,9.57,21.334,21.333v11.334c0,5.522-4.478,10-10,10H49.742z M61.481,78.329c2.951,6.793,9.583,22.196,16.148,38.375
	c18.355,45.232,18.355,52.484,18.355,55.581c0,10.724-6.168,20.153-16.019,26.401c0.829-0.122,1.678-0.186,2.541-0.186h10.161
	c1.383-3.31,3.251-6.407,5.548-9.185c-5.067-36.799,2.937-90.718,8.169-119.628c-4.76-1.378-9.064-2.054-13.024-2.054
	c-7.836,0-13.528,2.681-20.118,5.784C69.904,74.989,65.96,76.846,61.481,78.329z"/>
<path class="st1" d="M50.742,78.721c0,0-35.242,80.128-35.242,93.563s15.779,24.326,35.242,24.326
	c19.464,0,35.243-10.891,35.243-24.326S50.742,78.721,50.742,78.721z M50.742,166.822c-8.896,0-21.063,1.804-21.063-4.336
	c0-6.141,21.063-57.565,21.063-57.565s20.802,50.676,20.802,56.817C71.543,167.878,59.637,166.822,50.742,166.822z M205.409,78.055
	c0,0-35.243,80.128-35.243,93.563s15.779,24.326,35.243,24.326s35.242-10.891,35.242-24.326S205.409,78.055,205.409,78.055z
	 M205.409,166.156c-8.896,0-21.064,1.804-21.064-4.336c0-6.141,21.064-57.565,21.064-57.565s20.801,50.676,20.801,56.817
	C226.21,167.212,214.304,166.156,205.409,166.156z M230.954,43c0,0-12.525-7.22-18.424-2.945c-5.547,4.016-7.454,3.599-18.189-1.153
	c-12.083-5.348-29.425-13.007-57.019-4.925c-1.804-8.593-9.994-15.116-9.994-15.116s-8.816,7.02-10.17,16.089
	c-29.272-8.636-47.105-0.25-59.417,5.547c-10.621,5-12.52,5.464-18.158,1.578c-5.999-4.135-18.35,3.375-18.35,3.375
	s-2.624,14.215,3.375,18.35c7.729,5.328,14.839,7.2,21.294,7.2c8.997,0,16.722-3.638,23.079-6.631
	c11.762-5.539,23.917-11.257,48.813-1.292c-4.326,22.368-16.097,89.938-8.927,129.576c-4.567,4.005-7.742,9.56-8.697,15.845H82.506
	c-4.05,0-7.333,3.284-7.333,7.333v3.334H61.075c-6.26,0-11.333,5.074-11.333,11.333v11.334h11.333h133.576h11.334V230.5
	c0-6.259-5.074-11.333-11.334-11.333h-18.388v-3.334c0-4.049-3.283-7.333-7.333-7.333H152.34c-0.89-5.854-3.706-11.073-7.778-14.998
	c7.559-39.847-4.617-109.042-8.881-130.977c24.089-10.057,36.229-4.697,47.98,0.505c11.036,4.885,26.151,11.574,44.348-1.606
	C233.91,57.149,230.954,43,230.954,43z M127.417,57.811c-4.866,0-8.811-3.945-8.811-8.811s3.945-8.811,8.811-8.811
	s8.811,3.945,8.811,8.811S132.283,57.811,127.417,57.811z"/>
</svg>
