<?xml version="1.0" encoding="utf-8"?>
<!-- (c) mapshakers 2015, Licence: CC0 1.0 Universal, www.mapshakers.com  -->
<!DOCTYPE svg PUBLIC "-//W3C//DTD SVG 1.1//EN" "http://www.w3.org/Graphics/SVG/1.1/DTD/svg11.dtd">
<svg version="1.1" id="crown" xmlns="http://www.w3.org/2000/svg" xmlns:xlink="http://www.w3.org/1999/xlink" x="0px" y="0px"
	 width="256px" height="256px" viewBox="0 0 256 256" style="enable-background:new 0 0 256 256;" xml:space="preserve">
<style type="text/css">
<![CDATA[
	.st0{fill:#464646;}
	.st1{fill:#D1D1D1;}
]]>
</style>
<path class="st1" d="M243.207,80.209c-2.648-3.627-6.917-5.707-11.707-5.707c-1.749,0-3.566,0.273-5.4,0.813l-37.591,11.046
	c-9.815,2.885-16.771,12.763-16.178,22.977l1.097,18.824h-10.914l5.639-19.97c2.273-8.05,0.699-19.037-3.744-26.126l-22.821-36.404
	c-3.259-5.199-8.28-8.181-13.776-8.181c-5.505,0-10.53,2.99-13.787,8.203L91.294,82.07c-4.427,7.087-5.998,18.069-3.734,26.114
	l5.621,19.978H82.376l1.092-18.824c0.592-10.21-6.359-20.09-16.167-22.983L29.908,75.327c-1.84-0.542-3.663-0.818-5.416-0.818
	c-4.787,0-9.052,2.078-11.702,5.702c-2.874,3.93-3.514,9.058-1.802,14.44l28.557,89.794c1.099,3.455,3.109,6.593,5.694,9.188
	c-4.013,3.059-6.489,7.374-6.489,12.242c0,9.48,9.346,16.907,21.277,16.907h131.946c11.932,0,21.276-7.427,21.276-16.907
	c0-4.012-1.688-7.646-4.521-10.516c3.504-2.866,6.25-6.643,7.608-10.902l28.661-89.8C246.717,89.273,246.081,84.143,243.207,80.209z
	"/>
<g>
	<path class="st0" d="M191.973,198.968H60.027c-6.202,0-11.277,3.108-11.277,6.907s5.074,6.907,11.277,6.907h131.946
		c6.202,0,11.277-3.108,11.277-6.907S198.175,198.968,191.973,198.968z"/>
	<path class="st0" d="M228.918,84.91l-37.59,11.046c-5.277,1.551-9.333,7.312-9.014,12.802l1.129,19.421
		c0.32,5.491-3.918,9.983-9.418,9.983h-14.728c-5.5,0-8.776-4.33-7.282-9.623l6.512-23.065c1.496-5.293,0.328-13.437-2.594-18.096
		l-22.82-36.404c-2.922-4.66-7.695-4.656-10.609,0.009L99.775,87.368c-2.914,4.665-4.079,12.813-2.59,18.108l6.488,23.059
		c1.489,5.295-1.792,9.627-7.292,9.627H81.779c-5.5,0-9.739-4.492-9.421-9.983l1.126-19.42c0.318-5.491-3.737-11.256-9.013-12.812
		L27.079,84.919c-5.275-1.556-8.229,1.46-6.562,6.701l28.557,89.794c1.667,5.24,7.53,9.529,13.03,9.529h55.697c5.5,0,14.5,0,20,0
		h55.971c5.5,0,11.367-4.287,13.039-9.526c7.166-22.45,28.662-89.8,28.662-89.8C237.145,86.377,234.195,83.359,228.918,84.91z
		 M84.167,179.223c-5.615,0-10.167-4.552-10.167-10.166c0-5.615,4.552-10.168,10.167-10.168c5.615,0,10.167,4.553,10.167,10.168
		C94.334,174.671,89.782,179.223,84.167,179.223z M128,176.572l-16-16.001l15.999-16L144,160.572L128,176.572z M171.834,178.891
		c-5.432,0-9.834-4.402-9.834-9.834c0-5.433,4.402-9.834,9.834-9.834s9.834,4.401,9.834,9.834
		C181.668,174.488,177.266,178.891,171.834,178.891z"/>
</g>
</svg>
