<?xml version="1.0" encoding="utf-8"?>
<!-- (c) mapshakers 2015, Licence: CC0 1.0 Universal, www.mapshakers.com  -->
<!DOCTYPE svg PUBLIC "-//W3C//DTD SVG 1.1//EN" "http://www.w3.org/Graphics/SVG/1.1/DTD/svg11.dtd">
<svg version="1.1" id="crucifix" xmlns="http://www.w3.org/2000/svg" xmlns:xlink="http://www.w3.org/1999/xlink" x="0px" y="0px"
	 width="256px" height="256px" viewBox="0 0 256 256" style="enable-background:new 0 0 256 256;" xml:space="preserve">
<style type="text/css">
<![CDATA[
	.st0{fill:#D1D1D1;}
	.st1{fill:#454545;}
]]>
</style>
<path class="st0" d="M126.753,256.28c-14.121,0-25.609-11.488-25.609-25.609V119.808H69.667c-14.121,0-25.609-11.488-25.609-25.609
	s11.488-25.609,25.609-25.609h31.477V35.329c0-14.121,11.488-25.609,25.609-25.609c14.122,0,25.61,11.488,25.61,25.609v33.261
	h31.477c14.121,0,25.609,11.488,25.609,25.609s-11.488,25.609-25.609,25.609h-31.477v110.863
	C152.363,244.792,140.875,256.28,126.753,256.28z"/>
<path class="st1" d="M199.449,94.199c0,8.621-6.988,15.609-15.609,15.609h-41.477v120.863c0,8.621-6.989,15.609-15.61,15.609
	c-8.621,0-15.609-6.988-15.609-15.609V109.808H69.667c-8.621,0-15.609-6.988-15.609-15.609s6.988-15.609,15.609-15.609h41.477
	V35.329c0-8.621,6.988-15.609,15.609-15.609c8.621,0,15.61,6.988,15.61,15.609v43.261h41.477
	C192.461,78.589,199.449,85.578,199.449,94.199z"/>
</svg>
