<?xml version="1.0" encoding="utf-8"?>
<!-- (c) mapshakers 2015, Licence: CC0 1.0 Universal, www.mapshakers.com  -->
<!DOCTYPE svg PUBLIC "-//W3C//DTD SVG 1.1//EN" "http://www.w3.org/Graphics/SVG/1.1/DTD/svg11.dtd">
<svg version="1.1" id="database" xmlns="http://www.w3.org/2000/svg" xmlns:xlink="http://www.w3.org/1999/xlink" x="0px" y="0px"
	 width="256px" height="256px" viewBox="0 0 256 256" style="enable-background:new 0 0 256 256;" xml:space="preserve">
<style type="text/css">
<![CDATA[
	.st0{fill:#D1D1D1;}
	.st1{fill:#454545;}
]]>
</style>
<path class="st0" d="M240.519,147.131l-8.25-14.597c-2.532-4.482-7.304-7.267-12.452-7.267c-2.288,0-4.563,0.558-6.596,1.616
	c-0.425,0.201-5.011,2.3-11.197,2.3c-3.504,0-6.955-0.661-10.291-1.978c-1.675-0.654-3.43-0.985-5.215-0.985
	c-1.79,0-3.549,0.333-5.249,1c-3.299,1.303-6.75,1.963-10.257,1.963c-1.087,0-2.124-0.064-3.098-0.172
	c3.767-1.007,7.383-2.163,10.904-3.479c5.47-2.042,11.803-4.84,17.299-10.096c4.307-4.114,6.53-8.717,6.61-13.676
	c0.146-8.843,0.136-16.756-0.03-24.194c-0.124-5.517-4.169-10.188-8.13-11.973c0.594-0.533,1.178-1.091,1.751-1.677
	c8.463-8.642,8.619-19.987,0.396-28.904c-0.758-0.822-1.589-1.608-2.616-2.477c-6.114-5.164-13.016-7.972-18.346-9.841
	c-11.479-4.026-24.064-6.498-39.611-7.776l-9.758-0.805c-0.274-0.023-0.548-0.034-0.823-0.034h-16.53
	c-0.367,0-0.733,0.02-1.098,0.061c-0.434,0.048-0.867,0.102-1.3,0.156c-0.681,0.085-1.325,0.167-1.821,0.192
	c-15.268,0.812-28.434,2.895-40.248,6.365c-7.744,2.274-16.636,5.253-24.159,11.853c-3.38,2.961-6.017,6.648-7.423,10.374
	c-3.057,8.084-0.439,16.409,7.004,22.39c-0.132,0.059-0.264,0.121-0.395,0.184c-4.919,2.375-7.846,7.12-7.828,12.696
	c0.006,1.876,0.03,3.753,0.054,5.63c0.06,4.692,0.116,9.124-0.102,13.514c-0.371,7.45,2.173,13.716,7.572,18.69
	c-0.021,0.011-0.043,0.022-0.065,0.034c-4.674,2.415-7.458,7.066-7.449,12.441l0.007,3.782c0.013,5.894,0.025,11.986-0.022,17.953
	c-0.046,5.666,1.98,10.677,5.858,14.49l0.197,0.194c0.471,0.464,0.972,0.957,1.51,1.461c-2.698,1.372-7.621,4.993-7.57,13.114
	c0.01,1.467,0.025,2.935,0.04,4.402c0.054,5.267,0.105,10.241-0.072,15.241c-0.184,5.206,1.213,12.701,8.917,18.838
	c5.673,4.517,11.975,7.052,16.222,8.566c11.689,4.169,24.328,6.647,40.983,8.037c2.361,0.196,4.724,0.379,7.085,0.562l3.316,0.258
	c0.261,0.021,0.522,0.031,0.784,0.031h16.53c0.629,0,1.258-0.06,1.876-0.178c0.266-0.051,0.531-0.107,0.795-0.165l0.194-0.041
	c2.301-0.214,4.605-0.404,6.91-0.596c1.382-0.114,2.764-0.229,4.145-0.348c3.632-0.313,6.806-2.578,8.283-5.91
	c0.425-0.96,0.69-1.965,0.8-2.978c5.629,4.857,12.043,7.708,16.604,9.736c2.055,0.912,6.168,2.741,7.506,3.821
	c1.614,6.254,7.336,10.728,13.845,10.728c6.505,0,12.228-4.474,13.845-10.729c1.336-1.08,5.45-2.907,7.506-3.821
	c12.146-5.398,37.419-16.631,26.051-56.038c-1.761-6.106-1.87-9.073-1.806-10.214c0.504-0.38,1.208-0.866,1.559-1.109
	c1.01-0.693,2.091-1.445,3.219-2.33C242.497,161.026,244.023,153.335,240.519,147.131z"/>
<path class="st1" d="M42.335,46.617c0.903-2.392,2.711-4.682,4.66-6.39c5.842-5.124,13.07-7.63,20.387-9.779
	c12.387-3.639,25.102-5.29,37.961-5.974c1.233-0.064,2.458-0.259,3.687-0.395c5.51,0,11.021,0,16.53,0
	c3.256,0.269,6.512,0.54,9.768,0.806c12.643,1.04,25.102,3.032,37.115,7.246c5.459,1.915,10.723,4.261,15.203,8.045
	c0.601,0.507,1.186,1.039,1.717,1.615c4.633,5.024,4.602,10.236-0.189,15.128c-4.425,4.521-10.068,7.035-15.873,9.159
	c-10.959,4.007-22.359,6.013-33.928,7.191c-11.57,1.178-23.16,1.484-34.77,0.749c-16.149-1.023-32.118-3.104-47.138-9.543
	c-3.863-1.656-7.542-3.981-10.888-6.543C42.994,55.185,40.549,51.341,42.335,46.617z M189.209,108.206
	c1.896-1.812,3.477-3.935,3.52-6.611c0.131-7.933,0.148-15.873-0.028-23.805c-0.024-1.085-1.2-2.616-2.229-3.075
	c-1.043-0.463-2.998-0.343-3.804,0.369c-4.401,3.892-9.677,5.972-15.095,7.762c-15.512,5.125-31.529,7.12-47.792,7.378
	c-17.275,0.274-34.49-0.417-51.403-4.357c-8.719-2.031-17.211-4.682-24.201-10.696c-1.25-1.075-2.755-1.23-4.239-0.511
	c-1.491,0.72-2.18,1.976-2.175,3.658c0.021,6.558,0.264,13.13-0.06,19.673c-0.298,5.998,2.469,9.928,7.173,13.009
	c6.285,4.116,13.287,6.457,20.471,8.312c15.716,4.055,31.762,5.313,51.589,5.523c4.075-0.254,11.81-0.552,19.507-1.263
	c11.9-1.101,23.625-3.202,34.877-7.408C180.377,114.276,185.24,112.002,189.209,108.206z M131.451,190.717
	c-6.971,0.387-13.968,0.426-20.983,0.235c-13.387-0.364-26.703-1.449-39.739-4.718c-7.911-1.984-15.639-4.486-22.019-9.903
	c-1.434-1.218-2.956-1.729-4.701-0.95c-1.789,0.799-2.267,2.34-2.255,4.206c0.045,6.688,0.198,13.383-0.038,20.063
	c-0.163,4.604,1.726,7.933,5.152,10.662c4.001,3.186,8.584,5.271,13.352,6.971c12.436,4.436,25.362,6.398,38.453,7.49
	c3.451,0.287,6.906,0.545,10.357,0.816c5.51,0,11.021,0,16.53,0c0.573-0.109,1.141-0.267,1.719-0.32
	c3.776-0.354,7.561-0.644,11.341-0.97c-0.155-0.204-0.315-0.397-0.468-0.606C131.771,214.902,129.541,203.838,131.451,190.717z
	 M231.813,152.051l-8.25-14.598c-0.789-1.396-2.246-2.186-3.746-2.186c-0.688,0-1.387,0.166-2.034,0.516
	c-0.063,0.033-6.57,3.4-15.759,3.4c-4.765,0-9.449-0.895-13.928-2.662c-0.508-0.198-1.041-0.301-1.578-0.301
	c-0.535,0-1.07,0.103-1.576,0.301c-4.479,1.769-9.164,2.662-13.93,2.662c-9.212,0-15.709-3.375-15.759-3.399
	c-0.647-0.351-1.346-0.517-2.034-0.517c-1.5,0-2.957,0.787-3.746,2.186l-8.25,14.598c-1.045,1.85-0.582,4.188,1.09,5.497
	c0.92,0.722,1.83,1.353,2.713,1.959c2.82,1.95,4.459,3.172,5.301,5.577c1.174,3.365,0.636,9.003-1.602,16.759
	c-8.953,31.035,8.072,38.604,20.504,44.13c7.467,3.318,12.096,5.59,13.084,10.276c0.418,1.987,2.174,3.411,4.205,3.411
	s3.785-1.424,4.205-3.411c0.989-4.688,5.615-6.958,13.084-10.276c12.432-5.525,29.457-13.095,20.504-44.13
	c-2.236-7.756-2.774-13.394-1.602-16.759c0.841-2.405,2.479-3.627,5.301-5.577c0.883-0.606,1.793-1.237,2.713-1.959
	C232.396,156.236,232.857,153.9,231.813,152.051z M44.628,157.755c1.531,1.506,3.127,3.119,5.009,4.056
	c4.611,2.297,9.263,4.664,14.147,6.229c17.398,5.566,35.412,6.912,58.838,7.236c2.99-0.271,7.428-0.592,12.534-1.03
	c0.09-0.53,0.156-0.995,0.201-1.386c-0.856-0.59-1.986-1.377-3.164-2.301c-7.168-5.621-9.118-15.461-4.631-23.396l3.862-6.832
	c-0.445,0.021-0.889,0.045-1.334,0.063c-19.293,0.773-38.54,0.231-57.477-4.104c-8.853-2.027-17.461-4.709-24.547-10.829
	c-1.238-1.07-2.792-1.115-4.255-0.359c-1.404,0.725-2.041,1.947-2.038,3.54c0.012,7.276,0.043,14.556-0.015,21.832
	C41.735,153.329,42.635,155.795,44.628,157.755z"/>
</svg>
