<?xml version="1.0" encoding="utf-8"?>
<!-- (c) mapshakers 2015, Licence: CC0 1.0 Universal, www.mapshakers.com  -->
<!DOCTYPE svg PUBLIC "-//W3C//DTD SVG 1.1//EN" "http://www.w3.org/Graphics/SVG/1.1/DTD/svg11.dtd">
<svg version="1.1" id="dentist" xmlns="http://www.w3.org/2000/svg" xmlns:xlink="http://www.w3.org/1999/xlink" x="0px" y="0px"
	 width="256px" height="256px" viewBox="0 0 256 256" style="enable-background:new 0 0 256 256;" xml:space="preserve">
<style type="text/css">
<![CDATA[
	.st0{fill:#D1D1D1;}
	.st1{fill:#454545;}
]]>
</style>
<path class="st0" d="M137.432,250.574c-3.195,0-5.973-0.855-8.25-2.543c-2.914-2.155-4.271-5.217-4.833-8.176
	c-3.108,3.687-7.457,5.852-12.367,5.852c-4.685,0-9.342-2.084-13.115-5.867c-5.649-5.665-10.718-11.77-15.619-17.673
	c-2.002-2.412-4.072-4.905-6.119-7.289c-0.587-0.685-1.08-1.444-1.463-2.262l-0.572-1.218c-9.81-20.873-19.076-40.586-16.537-64.938
	c1.952-18.706-0.934-35.598-7.717-45.188c-12.482-17.641-18.35-32.962-9.059-54.805c6.653-15.637,19.197-24.47,35.322-24.872
	c0.629-0.016,1.258-0.023,1.889-0.023c9.186,0,18.229,1.623,26.633,3.377c1.748,0.365,3.462,0.542,5.242,0.542
	c2.58,0,5.371-0.375,8.784-1.18l2.923-0.692c10.796-2.563,21.96-5.213,33.477-6.054c1.64-0.12,3.304-0.181,4.943-0.181
	c19.301,0,35.188,8.191,42.499,21.912c8.529,15.999,7.199,33.644-4.068,53.942c-9.727,17.521-8.756,28.103-6.029,46.82
	c3.733,25.633-2.676,51.584-20.17,81.672c-3.793,6.524-8.774,11.813-13.596,16.926c-1.572,1.671-3.059,3.246-4.482,4.845
	c-2.51,2.812-6.273,4.979-10.336,5.957l-0.144,0.032C142.766,249.947,140.158,250.574,137.432,250.574z"/>
<path class="st1" d="M194.668,43.333c-7.021-13.177-23.322-17.527-37.889-16.46c-11.713,0.856-21.447,9.581-32.946,12.294
	c-6.214,1.466-11.987,2.025-18.365,0.694c-8.606-1.796-19.391-9.151-28.117-8.934c-12.465,0.311-21.333,6.95-26.369,18.789
	C43.319,67.731,48.258,79.646,59,94.833c9.571,13.53,11.334,34.419,9.5,52c-2.295,22.019,6.59,40.376,16.214,60.864
	c7.029,8.188,13.633,16.796,21.23,24.414c5.454,5.469,11.76,2.938,13.09-4.773c0.67-3.88,0.502-8.046-0.062-11.97
	c-0.911-6.354-14.271-46.86-15.307-53.201c-1.332-8.167-2.181-19.433,2.001-28.854c7.167-16.146,33.747-11.208,36.833-0.146
	c4,14.334,2.201,34.61,0.834,42.001c-2.155,11.652-6.319,45.527-9.028,57.096c-0.535,2.282-0.509,6.078,0.823,7.064
	c1.563,1.154,4.912,0.322,7.338-0.26c1.88-0.452,3.953-1.478,5.218-2.891c5.84-6.55,12.555-12.671,16.896-20.141
	c13.739-23.631,22.795-48.6,18.92-75.205c-2.849-19.546-4.078-32.83,7.183-53.114C199.5,71.833,202.059,57.195,194.668,43.333z
	 M153.957,86.79l-10.623,19.423L132.711,86.79l-19.423-10.623l19.423-10.623l10.623-19.423l10.623,19.423l19.423,10.623
	L153.957,86.79z"/>
</svg>
