<?xml version="1.0" encoding="utf-8"?>
<!-- (c) mapshakers 2015, Licence: CC0 1.0 Universal, www.mapshakers.com  -->
<!DOCTYPE svg PUBLIC "-//W3C//DTD SVG 1.1//EN" "http://www.w3.org/Graphics/SVG/1.1/DTD/svg11.dtd">
<svg version="1.1" id="disabled" xmlns="http://www.w3.org/2000/svg" xmlns:xlink="http://www.w3.org/1999/xlink" x="0px" y="0px"
	 width="256px" height="256px" viewBox="0 0 256 256" style="enable-background:new 0 0 256 256;" xml:space="preserve">
<style type="text/css">
<![CDATA[
	.st0{fill:#D1D1D1;}
	.st1{fill:#454545;}
]]>
</style>
<path class="st0" d="M114.096,245.027c-44.653,0-80.98-36.326-80.98-80.979c0-31.08,18.186-59.804,46.33-73.179
	c0.78-0.371,1.595-0.634,2.424-0.792c-0.228-3.56-0.392-7.125-0.492-10.691c-0.152-5.225,1.105-10.583,3.636-15.482
	c0.274-0.531,0.593-1.032,0.952-1.499C75.945,51.872,74.68,35.272,83.685,23.233c5.742-7.676,14.882-12.26,24.451-12.262
	c6.574,0,12.826,2.081,18.082,6.018c6.55,4.906,10.785,12.021,11.923,20.032c1.147,8.092-0.979,16.211-5.99,22.86
	c-0.953,1.265-2.004,2.443-3.135,3.529c2.5,2.641,4.279,6.156,5.766,9.093c1.725,3.408,3.642,7.663,5.57,12.355h25.953
	c11.187,0,20.286,8.618,20.286,19.21c0,10.592-9.101,19.211-20.286,19.211H152.96c0.347,1.502,0.649,2.94,0.913,4.313l28.41,2.12
	c4.011,0.302,7.857,1.72,11.17,4.108c2.829,1.771,5.193,4.215,6.861,7.102l27.824,48.164c2.734,4.734,3.461,10.251,2.047,15.532
	c-1.414,5.282-4.803,9.696-9.539,12.43c-3.104,1.793-6.642,2.742-10.221,2.742c0,0,0,0-0.001,0
	c-7.29-0.001-14.085-3.92-17.731-10.229l-5.812-10.061C173.441,227.094,145.328,245.027,114.096,245.027z"/>
<path class="st1" d="M174.823,175.111l-12.785-1.063c-4.63,22.224-24.364,38.972-47.942,38.972
	c-27.002,0-48.971-21.969-48.971-48.971c0-16.951,8.659-31.916,21.785-40.709l-3.173-23.438
	c-23.991,11.401-40.622,35.864-40.622,64.146c0,39.138,31.842,70.979,70.98,70.979c31.135,0,57.633-20.159,67.176-48.104
	L174.823,175.111z M98.582,56.493C97.605,56.456,97.464,56.526,98.582,56.493L98.582,56.493z M219.479,194.089l-27.821-48.162
	c-0.944-1.634-2.265-2.907-3.785-3.795c-1.806-1.378-3.962-2.269-6.333-2.446l-36.475-2.723c-0.338-5.871-2.379-14.525-5.17-23.683
	h26.408c5.682,0,10.287-4.125,10.287-9.211c0-5.087-4.605-9.21-10.287-9.21h-32.742c-5.495-14.383-11.519-26.552-13.342-25.314
	c-0.082-0.198,0.086,0.192,0,0c-3.731,1.924-7.923,2.982-12.226,2.982c-5.048,0-9.875-1.391-14.095-4.033
	c-1.69,3.272-2.633,6.897-2.524,10.611c0.633,22.533,3.888,44.917,9.696,66.7c2.634,9.922,12.686,16.965,22.859,17.284l55.551,4.146
	c0.105,0.01,0.213,0.002,0.315,0.008l21.558,37.314c2.893,5.004,9.293,6.719,14.297,3.828
	C220.657,205.498,222.371,199.096,219.479,194.089z M108.137,20.971c4.22,0,8.463,1.309,12.085,4.021
	c9.182,6.878,10.92,19.611,3.942,28.871c-3.94,5.226-10.016,7.98-16.172,7.98c-4.271,0-8.579-1.326-12.24-4.072
	c-9.002-6.752-10.818-19.512-4.059-28.549C95.73,23.825,101.908,20.972,108.137,20.971"/>
</svg>
