<?xml version="1.0" encoding="utf-8"?>
<!-- (c) mapshakers 2015, Licence: CC0 1.0 Universal, www.mapshakers.com  -->
<!DOCTYPE svg PUBLIC "-//W3C//DTD SVG 1.1//EN" "http://www.w3.org/Graphics/SVG/1.1/DTD/svg11.dtd">
<svg version="1.1" id="download" xmlns="http://www.w3.org/2000/svg" xmlns:xlink="http://www.w3.org/1999/xlink" x="0px"
	 y="0px" width="256px" height="256px" viewBox="0 0 256 256" style="enable-background:new 0 0 256 256;" xml:space="preserve">
<style type="text/css">
<![CDATA[
	.st0{fill:#464646;}
	.st1{fill:#D1D1D1;}
]]>
</style>
<path class="st1" d="M139.562,12.152c12.313,0,22.332,10.019,22.332,22.332v48.56c0,1.265,1.068,2.333,2.333,2.333h28.017
	c10.622,0,14.299,6.108,15.387,8.735c1.088,2.626,2.808,9.545-4.703,17.057l-59.135,59.136c-4.21,4.209-9.818,6.525-15.792,6.525
	c-5.975,0-11.582-2.316-15.791-6.525l-59.136-59.136c-7.511-7.511-5.791-14.43-4.703-17.057c1.088-2.626,4.765-8.734,15.386-8.734
	h28.018c1.265,0,2.333-1.068,2.333-2.333v-48.56c0-12.313,10.018-22.332,22.331-22.332H139.562z"/>
<g>
	<path class="st1" d="M34.617,243.15c-13.536,0-24.548-11.013-24.548-24.549v-57.854c0-13.536,11.012-24.549,24.548-24.549
		s24.548,11.013,24.548,24.549v33.306h137.67v-33.306c0-13.536,11.013-24.549,24.549-24.549s24.548,11.013,24.548,24.549v57.854
		c0,13.536-11.012,24.549-24.548,24.549H34.617z"/>
</g>
<path class="st0" d="M164.227,95.377c-6.783,0-12.333-5.55-12.333-12.333v-48.56c0-6.783-5.55-12.332-12.332-12.332h-23.125
	c-6.782,0-12.331,5.549-12.331,12.332v48.56c0,6.783-5.551,12.333-12.333,12.333H63.755c-6.782,0-8.407,3.924-3.611,8.72
	l59.135,59.136c4.797,4.796,12.645,4.796,17.442,0l59.135-59.136c4.796-4.796,3.171-8.72-3.612-8.72H164.227z"/>
<g>
	<path class="st0" d="M221.384,233.15H34.617c-8.034,0-14.548-6.514-14.548-14.549v-57.854c0-8.034,6.514-14.549,14.548-14.549
		c8.035,0,14.548,6.515,14.548,14.549v43.306h157.67v-43.306c0-8.034,6.514-14.549,14.549-14.549
		c8.034,0,14.548,6.515,14.548,14.549v57.854C235.932,226.637,229.418,233.15,221.384,233.15z"/>
</g>
</svg>
