<?xml version="1.0" encoding="utf-8"?>
<!-- (c) mapshakers 2015, Licence: CC0 1.0 Universal, www.mapshakers.com  -->
<!DOCTYPE svg PUBLIC "-//W3C//DTD SVG 1.1//EN" "http://www.w3.org/Graphics/SVG/1.1/DTD/svg11.dtd">
<svg version="1.1" id="drag_lift" xmlns="http://www.w3.org/2000/svg" xmlns:xlink="http://www.w3.org/1999/xlink" x="0px" y="0px"
	 width="256px" height="256px" viewBox="0 0 256 256" style="enable-background:new 0 0 256 256;" xml:space="preserve">
<style type="text/css">
<![CDATA[
	.st0{fill:#D1D1D1;}
	.st1{fill:#454545;}
]]>
</style>
<path class="st0" d="M122.938,243.07c-23.644,0-45.838-1.417-62.494-3.99c-9.222-1.424-20.736-3.667-29.399-8.479
	c-10.173-2.457-17.621-11.737-17.621-22.351c0-12.687,10.321-23.007,23.007-23.007c9.016,0,16.952,5.194,20.706,12.978
	c8.927,2.031,24.836,4.148,46.937,4.947v-62.481c-5.364-2.716-9.05-8.282-9.05-14.695v-13.053
	c-16.432-8.772-26.745-24.5-26.745-41.488c0-6.422,1.43-12.722,4.182-18.562L14.384,35.784C6.353,33.418,1.743,24.96,4.106,16.929
	c1.889-6.416,7.878-10.896,14.565-10.896c1.449,0,2.892,0.208,4.288,0.619l63.714,18.765c2.564-1.056,5.314-1.603,8.136-1.603
	c7.163,0,13.657,3.487,17.604,9.184l129.204,38.053c8.031,2.365,12.642,10.823,10.277,18.855
	c-1.892,6.418-7.88,10.898-14.564,10.898c-1.45,0-2.894-0.208-4.29-0.619L145.29,74.339c3.411,3.018,5.564,7.425,5.564,12.327
	v39.326c0,6.413-3.686,11.979-9.05,14.695v62.481c22.104-0.799,38.012-2.916,46.936-4.947c3.753-7.783,11.688-12.978,20.704-12.978
	c12.687,0,23.008,10.32,23.008,23.006c0,10.612-7.447,19.893-17.619,22.352c-8.662,4.813-20.177,7.056-29.4,8.479
	C168.776,241.653,146.582,243.07,122.938,243.07z M101.56,65.632c-1.034,1.876-1.571,3.85-1.571,5.819
	c0,1.031,0.141,2.052,0.415,3.053c2.926-2.667,6.815-4.296,11.078-4.296h19.78l-24.417-7.191
	C105.212,64.125,103.432,65.006,101.56,65.632z"/>
<g>
	<path class="st1" d="M237.329,91.6c-0.56,0-1.129-0.079-1.692-0.245L16.983,26.956c-3.168-0.934-4.981-4.259-4.048-7.429
		s4.26-4.979,7.429-4.047l218.653,64.397c3.17,0.934,4.981,4.259,4.049,7.429C242.298,89.911,239.913,91.6,237.329,91.6z"/>
</g>
<path class="st1" d="M223.249,208.249c0-7.622-6.182-13.804-13.805-13.804c-6.803,0-12.443,4.927-13.58,11.403
	c-10.452,3.277-35.803,6.853-72.925,6.853c-37.122,0-62.472-3.575-72.925-6.851c-1.138-6.479-6.779-11.405-13.583-11.405
	c-7.623,0-13.804,6.182-13.804,13.805c0,6.92,5.096,12.632,11.734,13.632c6.962,4.296,17.287,6.528,27.488,8.104
	c16.207,2.504,37.903,3.883,61.089,3.883s44.882-1.379,61.089-3.883c10.201-1.575,20.527-3.808,27.488-8.104
	C218.154,220.881,223.249,215.168,223.249,208.249z"/>
<path class="st1" d="M104.227,125.992c0,4.006,3.249,7.255,7.255,7.255h22.914c4.007,0,7.255-3.249,7.255-7.255V86.666
	c0-4.007-3.248-7.255-7.255-7.255h-22.914c-4.006,0-7.255,3.249-7.255,7.255V125.992z"/>
<rect x="113.277" y="130.486" class="st1" width="19.324" height="87.427"/>
<g>
	<path class="st1" d="M124.32,110.91c-25.827,0-46.838-17.702-46.838-39.459c0-12.466,6.739-23.927,18.487-31.442l7.169,11.208
		c-7.85,5.021-12.352,12.396-12.352,20.234c0,14.422,15.043,26.154,33.533,26.154V110.91z"/>
</g>
<circle class="st1" cx="94.809" cy="45.271" r="12.254"/>
</svg>
