<?xml version="1.0" encoding="utf-8"?>
<!-- (c) mapshakers 2015, Licence: CC0 1.0 Universal, www.mapshakers.com  -->
<!DOCTYPE svg PUBLIC "-//W3C//DTD SVG 1.1//EN" "http://www.w3.org/Graphics/SVG/1.1/DTD/svg11.dtd">
<svg version="1.1" id="facebook" xmlns="http://www.w3.org/2000/svg" xmlns:xlink="http://www.w3.org/1999/xlink" x="0px" y="0px"
	 width="256px" height="256px" viewBox="0 0 256 256" style="enable-background:new 0 0 256 256;" xml:space="preserve">
<style type="text/css">
<![CDATA[
	.st0{fill:#464646;}
	.st1{fill:#D1D1D1;}
]]>
</style>
<path id="facebook_1_" class="st1" d="M92.435,249.011c-5.523,0-10-4.478-10-10V142.52H70.306c-5.523,0-10-4.479-10-10V95.523
	c0-5.523,4.477-10,10-10h12.128V73.049c0-18.117,4.452-32.33,13.232-42.243c9.056-10.226,23.744-15.547,43.654-15.816
	c0.046,0,29.179-0.001,29.179-0.001c5.522,0,10,4.477,10,10v36.996c0,5.523-4.478,10-10,10h-17.804
	c-2.045,0.075-3.403,0.259-4.266,0.43c-0.23,1.065-0.43,2.611-0.43,4.783v8.325h22.5c2.813,0,5.498,1.186,7.393,3.266
	c1.896,2.08,2.826,4.862,2.564,7.664L175,133.449c-0.48,5.14-4.795,9.068-9.957,9.068H146v96.492c0,5.522-4.479,10-10,10
	L92.435,249.011L92.435,249.011z"/>
<path id="facebook" class="st0" d="M168.5,95.523l-3.457,36.997H136v106.491H92.435V132.52H70.306V95.523h22.128V73.049
	c0-15.674,3.573-27.545,10.718-35.612c7.145-8.068,19.247-12.217,36.304-12.447H168.5v36.996h-17.979
	c-6.914,0.23-11.064,1.614-12.447,4.149C136.691,68.9,136,72.588,136,77.198v18.325H168.5z"/>
</svg>
