<?xml version="1.0" encoding="utf-8"?>
<!-- (c) mapshakers 2015, Licence: CC0 1.0 Universal, www.mapshakers.com  -->
<!DOCTYPE svg PUBLIC "-//W3C//DTD SVG 1.1//EN" "http://www.w3.org/Graphics/SVG/1.1/DTD/svg11.dtd">
<svg version="1.1" id="fire" xmlns="http://www.w3.org/2000/svg" xmlns:xlink="http://www.w3.org/1999/xlink" x="0px" y="0px"
	 width="256px" height="256px" viewBox="0 0 256 256" style="enable-background:new 0 0 256 256;" xml:space="preserve">
<style type="text/css">
<![CDATA[
	.st0{fill:#464646;}
	.st1{fill:#D1D1D1;}
]]>
</style>
<path class="st1" d="M156.547,240.001c-3.152,0-6.214-1.493-8.139-4.185c-2.719-3.803-2.44-8.983,0.672-12.474
	c4.809-5.392,6.107-13.589,3.473-21.927c-2.721-8.614-8.377-17.207-13.406-23.698c-1.102,1.735-2.358,3.519-3.789,5.294
	c-1.903,2.366-4.772,3.729-7.789,3.729c-0.209,0-0.418-0.007-0.628-0.021c-3.242-0.203-6.182-1.97-7.886-4.734
	c-6.052-9.822-9.53-20.627-11.527-29.953c-6.847,8.927-14.442,20.65-18.56,32.945c-4.064,12.14-3.597,24.897,1.281,35.004
	c1.915,3.968,1.009,8.72-2.23,11.703c-1.895,1.744-4.326,2.646-6.778,2.646c-1.741,0-3.492-0.453-5.068-1.381
	c-40.174-23.634-52.264-77.979-28.123-126.412c24.085-48.322,74.458-85.101,76.59-86.643c1.739-1.257,3.795-1.896,5.86-1.896
	c1.619,0,3.243,0.393,4.727,1.188c3.373,1.81,5.418,5.386,5.266,9.212c-0.021,0.552-1.676,57.076,34.316,79.626
	c21.985,13.773,33.782,38.5,31.559,66.146c-2.348,29.16-19.949,54.083-45.938,65.042
	C159.169,239.746,157.85,240.001,156.547,240.001z"/>
<path class="st0" d="M169.5,116.5c-41.5-26-39-88.5-39-88.5S80.265,64.323,57,111c-20.791,41.713-12.906,91.479,24.243,113.332
	c-5.938-12.301-6.69-27.798-1.758-42.527c9.557-28.539,35.358-53.321,35.358-53.321s-0.342,27.051,12.725,48.258
	c6.825-8.479,8.936-17.256,8.936-17.256s19.254,18.873,25.584,38.918c3.723,11.781,1.588,23.599-5.545,31.596
	C203.609,210.152,210.889,142.43,169.5,116.5z"/>
</svg>
