<?xml version="1.0" encoding="utf-8"?>
<!-- (c) mapshakers 2015, Licence: CC0 1.0 Universal, www.mapshakers.com  -->
<!DOCTYPE svg PUBLIC "-//W3C//DTD SVG 1.1//EN" "http://www.w3.org/Graphics/SVG/1.1/DTD/svg11.dtd">
<svg version="1.1" id="flag" xmlns="http://www.w3.org/2000/svg" xmlns:xlink="http://www.w3.org/1999/xlink" x="0px" y="0px"
	 width="256px" height="256px" viewBox="0 0 256 256" style="enable-background:new 0 0 256 256;" xml:space="preserve">
<style type="text/css">
<![CDATA[
	.st0{fill:#464646;}
	.st1{fill:#D1D1D1;}
]]>
</style>
<path class="st1" d="M198.533,119.778v-3.339c0-0.492-0.035-0.976-0.107-1.462c-0.148-1.092-0.135-5.646-0.117-11.947
	c0.021-7.235,0.104-16.713,0.187-25.8l0.041-4.621V60.47c0-3.711-2.056-7.118-5.341-8.848c-1.463-0.771-3.063-1.152-4.658-1.152
	c-1.984,0-3.961,0.59-5.657,1.753c-3.978,2.728-8.192,5.242-11.876,7.083c-5.021,2.51-9.949,3.783-14.648,3.783
	c-4.691,0-9.42-1.275-14.049-3.789c-2.474-1.343-4.988-2.762-7.423-4.134l-0.127-0.072c-2.668-1.505-5.428-3.063-8.208-4.565
	c-7.353-3.972-14.903-5.985-22.441-5.985c-0.304,0-0.611,0.023-0.916,0.029c2.375-3.752,3.697-8.164,3.697-12.823
	c0-13.234-10.766-24-24-24c-13.234,0-24,10.766-24,24c0,6.343,2.444,12.235,6.674,16.619c-0.024,0.433-0.037,0.867-0.037,1.302
	v6.362v90.127v82.303c0,11.215,7.626,20,17.362,20c9.736,0,17.363-8.785,17.363-20v-90.02c0-0.084-0.013-0.164-0.015-0.247
	c1.332-0.169,2.651-0.253,3.954-0.253c5.211,0,10.416,1.354,15.469,4.029c3.975,2.103,7.993,4.394,11.917,6.629l3.111,1.771
	c7.113,4.036,14.438,6.083,21.771,6.083h0.005c6.619,0,13.33-1.669,19.944-4.962c7.229-3.598,13.314-8.084,18.314-11.998
	c2.428-1.902,3.844-4.818,3.834-7.903C198.547,127.651,198.539,123.707,198.533,119.778z"/>
<g>
	<path class="st0" d="M188.535,119.778h-0.002v-2.081c0-0.419,0-0.838,0-1.258c-0.258-1.735-0.248-5.215-0.225-13.438
		c0.021-7.452,0.106-17.232,0.186-25.861l0.041-4.531V60.47c-4.313,2.958-8.895,5.699-13.061,7.78
		c-6.422,3.21-12.855,4.838-19.119,4.838c0,0,0,0-0.002,0c-6.377,0-12.709-1.683-18.82-5c-2.588-1.405-5.182-2.869-7.691-4.285
		c-2.633-1.486-5.357-3.021-8.046-4.476c-5.875-3.174-11.827-4.784-17.688-4.784c-2.81,0-5.679,0.367-8.526,1.092
		c-7.366,1.875-13.977,5.602-19.004,8.741c0.021,19.825,0.022,39.567,0.023,59.311l0.001,13.019c2.284-1.31,4.641-2.636,7.094-3.804
		c6.902-3.291,13.798-4.959,20.496-4.959c6.858,0,13.636,1.747,20.145,5.19c4.124,2.182,8.224,4.52,12.187,6.777l3.102,1.765
		c5.592,3.173,11.258,4.781,16.842,4.78c5.059,0,10.27-1.316,15.488-3.914c6.375-3.173,11.963-7.285,16.605-10.92
		C188.547,127.676,188.539,123.727,188.535,119.778z"/>
	<path class="st0" d="M75.526,49.671v6.362c4.195-2.467,9.162-5.024,14.708-6.835c-0.063-1.798-0.485-3.471-1.162-4.902
		c4.626-2.285,7.816-7.037,7.816-12.546c0-7.732-6.268-14-14-14c-7.732,0-14,6.268-14,14c0,5.506,3.187,10.256,7.809,12.542
		C75.96,45.849,75.526,47.693,75.526,49.671z"/>
	<path class="st0" d="M79.609,143.84c-1.138,0.652-2.276,1.307-3.422,1.94c-0.22,0.12-0.432,0.245-0.661,0.38v82.303
		c0,5.5,3.313,10,7.362,10c4.05,0,7.363-4.5,7.363-10v-90.02c-1.081,0.424-2.164,0.878-3.25,1.396
		C84.519,141.021,82.134,142.391,79.609,143.84z"/>
</g>
</svg>
