<?xml version="1.0" encoding="utf-8"?>
<!-- (c) mapshakers 2015, Licence: CC0 1.0 Universal, www.mapshakers.com  -->
<!DOCTYPE svg PUBLIC "-//W3C//DTD SVG 1.1//EN" "http://www.w3.org/Graphics/SVG/1.1/DTD/svg11.dtd">
<svg version="1.1" id="fort" xmlns="http://www.w3.org/2000/svg" xmlns:xlink="http://www.w3.org/1999/xlink" x="0px" y="0px"
	 width="256px" height="256px" viewBox="0 0 256 256" style="enable-background:new 0 0 256 256;" xml:space="preserve">
<style type="text/css">
<![CDATA[
	.st0{fill:#D1D1D1;}
	.st1{fill:#454545;}
]]>
</style>
<path class="st0" d="M249.997,61.708c-0.001-0.713-0.001-11.746-0.001-11.746c0-7.72-6.28-14-14-14h-7.182
	c-4.679,0-8.829,2.308-11.373,5.844c-2.544-3.537-6.694-5.844-11.373-5.844h-7.18c-4.36,0-8.262,2.004-10.831,5.139
	c-2.569-3.135-6.471-5.139-10.831-5.139h-7.182c-7.72,0-14,6.28-14,14l0.002,11.732c0.004,2.235,0.4,4.022,1.032,5.451l-0.049,0.023
	c0.129,0.271,0.806,1.738,1.612,3.494l5.923,12.883c0.001,0.528,0.001,32.362,0.001,32.362c0,1.921-0.003,3.528-0.006,3.835l0.045,0
	c-0.032,0.422-0.05,0.863-0.051,1.322l-0.002,8.245h-2.846c-5.1,0-9.572,2.741-12.02,6.827c-2.447-4.086-6.92-6.827-12.02-6.827
	h-13.657c-5.103,0-9.577,2.744-12.024,6.835c-2.447-4.091-6.921-6.835-12.024-6.835h-6.817V85.31
	c0.004-0.778,0.436-2.751,0.756-3.458l5.143-11.188c1.601-3.483,2.836-6.172,2.573-8.962c-0.001-0.713-0.002-11.739-0.002-11.739
	c0-7.72-6.28-14-14-14h-7.181c-4.679,0-8.83,2.308-11.373,5.844c-2.543-3.537-6.694-5.844-11.373-5.844h-7.181
	c-4.36,0-8.262,2.004-10.831,5.139c-2.57-3.135-6.471-5.139-10.831-5.139h-7.18c-7.72,0-14,6.28-14,14l0.002,11.731
	c0.003,2.227,0.396,4.01,1.025,5.437l-0.049,0.023c0.123,0.262,6.759,14.696,6.759,14.696c0.321,0.709,0.752,2.682,0.757,3.459
	V232.21c0,7.72,6.28,14,14,14h71.793c7.72,0,14-6.28,14-14v-30.611c0.008-0.748,0.436-2.639,0.749-3.315
	c2.037-4.276,7.737-11.915,11.846-11.915c3.898,0,9.483,7.063,11.836,11.909c0.314,0.68,0.742,2.572,0.75,3.317v30.615
	c0,7.72,6.28,14,14,14h72.367c7.72,0,14-6.28,14-14c0,0,0-148.14,0.001-148.669l5.923-12.879
	C249.023,67.181,250.257,64.495,249.997,61.708z"/>
<path class="st1" d="M240.002,62.854c-0.004,0-0.006-1.8-0.006-4v-8.891c0-2.2-1.801-4-4-4h-7.182c-2.201,0-4,1.8-4,4v8.891
	c0,2.2-1.801,4-4,4h-6.746c-2.201,0-4-1.8-4-4v-8.891c0-2.2-1.801-4-4-4h-7.18c-2.201,0-4,1.8-4,4v8.891c0,2.2-1.801,4-4,4h-5.662
	c-2.201,0-4-1.8-4-4v-8.891c0-2.2-1.801-4-4-4h-7.182c-2.199,0-4,1.8-4,4v8.891c0,2.2,0.004,4,0.006,4
	c0.004,0,0.76,1.636,1.678,3.635l5.141,11.186c0.918,1.999,1.676,3.635,1.684,3.635s0.014,1.8,0.014,4v30.601c0,2.2-0.004,4-0.008,4
	c-0.002,0-0.006,1.8-0.006,4v11.403c0,2.2-1.799,4-4,4h-8.846c-2.199,0-4,1.8-4,4v5.682c0,2.2-1.799,4-4,4h-8.039
	c-2.199,0-4-1.8-4-4v-5.682c0-2.2-1.799-4-4-4h-13.657c-2.2,0-4,1.8-4,4v5.893c0,2.2-1.8,4-4,4h-8.048c-2.2,0-4-1.8-4-4v-5.893
	c0-2.2-1.8-4-4-4H87.146c-2.2,0-4-1.016-4-2.256s0-4.056,0-6.256v-6.892c0-2.2,0-5.799,0-8V85.309c0-2.2,0.752-5.636,1.67-7.634
	l5.142-11.187c0.918-1.999,1.667-3.634,1.664-3.634s-0.006-1.8-0.006-4v-8.891c0-2.2-1.8-4-4-4h-7.181c-2.2,0-4,1.8-4,4v8.891
	c0,2.2-1.8,4-4,4h-6.746c-2.2,0-4-1.8-4-4v-8.891c0-2.2-1.8-4-4-4h-7.181c-2.2,0-4,1.8-4,4v8.891c0,2.2-1.8,4-4,4h-5.662
	c-2.2,0-4-1.8-4-4v-8.891c0-2.2-1.8-4-4-4h-7.18c-2.2,0-4,1.8-4,4v8.891c0,2.2,0.003,4,0.006,4s0.758,1.636,1.677,3.635
	l5.141,11.186c0.919,1.999,1.67,5.435,1.67,7.635v30.601c0,2.2,0,5.8,0,8v6.892c0,2.2,0,5.8,0,8v28.288c0,2.2,0,4.521,0,5.157
	c0,0.636,0,2.956,0,5.156v43.179c0,2.201,0,5.801,0,8v3.629c0,2.199,1.8,4,4,4h71.793c2.2,0,4-1.801,4-4v-30.615
	c0-2.199,0.774-5.625,1.72-7.611c0,0,8.39-17.615,20.874-17.615c12.484,0,20.867,17.615,20.867,17.615
	c0.945,1.986,1.719,5.412,1.719,7.611v30.615c0,2.199,1.801,4,4,4h72.367c2.199,0,4-1.801,4-4v-3.629c0-2.199,0-5.799,0-8v-43.179
	c0-2.2,0-4.521,0-5.157s0-2.957,0-5.157v-28.287c0-2.2,0-5.8,0-8v-6.892c0-2.2,0-5.799,0-8V85.309c0-2.2,0.004-4,0.012-4
	c0.006,0,0.764-1.635,1.682-3.634l5.143-11.187C239.256,64.489,240.006,62.854,240.002,62.854z M62.9,163.786c0,2.2-1.8,4-4,4
	h-7.667c-2.2,0-4-1.8-4-4V148.94c0-2.2,0.735-5.643,1.634-7.65c0,0,1.873-4.184,6.199-4.184c4.326,0,6.199,4.184,6.199,4.184
	c0.899,2.008,1.634,5.45,1.634,7.65V163.786z M62.9,112.453c0,2.2-1.8,4-4,4h-7.667c-2.2,0-4-1.8-4-4V97.606
	c0-2.2,0.735-5.643,1.635-7.651c0,0,1.873-4.183,6.199-4.183c4.326,0,6.198,4.183,6.198,4.183c0.899,2.008,1.635,5.451,1.635,7.651
	V112.453z M212.232,163.786c0,2.2-1.799,4-4,4h-7.666c-2.199,0-4-1.8-4-4V148.94c0-2.2,0.736-5.643,1.635-7.65
	c0,0,1.873-4.184,6.199-4.184s6.199,4.183,6.199,4.183c0.898,2.009,1.633,5.451,1.633,7.651V163.786z M212.232,112.453
	c0,2.2-1.799,4-4,4h-7.666c-2.199,0-4-1.8-4-4V97.606c0-2.2,0.736-5.643,1.635-7.651c0,0,1.873-4.183,6.199-4.183
	s6.199,4.183,6.199,4.183c0.898,2.008,1.633,5.451,1.633,7.651V112.453z"/>
</svg>
