<?xml version="1.0" encoding="utf-8"?>
<!-- (c) mapshakers 2015, Licence: CC0 1.0 Universal, www.mapshakers.com  -->
<!DOCTYPE svg PUBLIC "-//W3C//DTD SVG 1.1//EN" "http://www.w3.org/Graphics/SVG/1.1/DTD/svg11.dtd">
<svg version="1.1" id="fuel_alt" xmlns="http://www.w3.org/2000/svg" xmlns:xlink="http://www.w3.org/1999/xlink" x="0px" y="0px"
	 width="256px" height="256px" viewBox="0 0 256 256" style="enable-background:new 0 0 256 256;" xml:space="preserve">
<style type="text/css">
<![CDATA[
	.st0{fill:#464646;}
	.st1{fill:#D1D1D1;}
]]>
</style>
<path class="st1" d="M71.257,220.332c-10.477,0-19-8.523-19-19V61.25c0-10.477,8.523-19,19-19h52.08
	c9.748,0,18.63,7.187,20.66,16.717l1.989,9.302c0.322,1.512,2.578,4.126,4.025,4.665l2.168,0.809
	c0.336-1.822,1.092-3.583,2.247-5.16l25.341-34.637c2.855-3.899,8.016-6.516,12.842-6.516h9.666c3.899,0,7.473,1.722,9.802,4.725
	c2.327,3.002,3.106,6.891,2.138,10.667l-11.652,45.335c-0.672,2.604-2.11,4.846-4.037,6.501c3.229,4.082,5.22,9.188,5.221,14.246
	v92.429c0,10.478-8.523,19-19,19L71.257,220.332L71.257,220.332z"/>
<path class="st0" d="M185.311,96.762L146.52,82.304c-4.64-1.729-9.278-7.104-10.313-11.944l-1.99-9.309
	c-1.031-4.841-5.93-8.801-10.88-8.801h-52.08c-4.95,0-9,4.05-9,9v140.082c0,4.95,4.05,9,9,9h113.488c4.948,0,9-4.05,9-9v-92.427
	C193.744,103.955,189.949,98.49,185.311,96.762z M74.835,73.5c0-4.971,4.029-9,9-9h32c4.971,0,9,4.029,9,9s-4.029,9-9,9h-32
	C78.864,82.5,74.835,78.471,74.835,73.5z M148.577,182.491c-14.11,14.942-39.073,10.522-46.893-9.091
	c-2.771-6.946-2.322-13.963-0.196-20.979c2.762-9.112,7.117-17.481,11.999-25.604c4.261-7.088,9.009-13.844,14.004-20.43
	c0.123-0.162,0.268-0.306,0.577-0.657c1.852,2.512,3.645,4.854,5.344,7.262c6.818,9.664,13.148,19.617,17.874,30.508
	c2.258,5.204,4.139,10.534,4.762,16.218C157.005,168.432,154.598,176.116,148.577,182.491z M120.263,169.799
	c-3.442-5.229-5.499-10.939-5.428-17.229c0.041-3.596,0.57-7.188,0.863-10.604c0.069-0.088-0.036,0.012-0.095,0.131
	c-2.499,5.076-4.826,10.213-6.17,15.756c-1.56,6.438-0.607,12.4,2.894,17.984c1.321,2.104,3.238,3.385,5.664,3.873
	c2.013,0.407,3.903-0.33,4.905-1.888c1.097-1.703,0.597-3.289-0.428-4.812C121.742,171.938,120.978,170.884,120.263,169.799z
	 M192.876,85.667c-0.411,1.598-2.013,2.436-3.56,1.861l-25.78-9.572c-1.547-0.574-2.017-2.133-1.041-3.465l25.344-34.641
	c0.976-1.332,3.121-2.421,4.771-2.421h9.666c1.65,0,2.664,1.308,2.254,2.905L192.876,85.667z"/>
</svg>
