<?xml version="1.0" encoding="utf-8"?>
<!-- (c) mapshakers 2015, Licence: CC0 1.0 Universal, www.mapshakers.com  -->
<!DOCTYPE svg PUBLIC "-//W3C//DTD SVG 1.1//EN" "http://www.w3.org/Graphics/SVG/1.1/DTD/svg11.dtd">
<svg version="1.1" id="github" xmlns="http://www.w3.org/2000/svg" xmlns:xlink="http://www.w3.org/1999/xlink" x="0px" y="0px"
	 width="256px" height="256px" viewBox="0 0 256 256" style="enable-background:new 0 0 256 256;" xml:space="preserve">
<style type="text/css">
<![CDATA[
	.st0{fill:#464646;}
	.st1{fill:#D1D1D1;}
]]>
</style>
<path class="st1" d="M221.047,95.011c1.538-5.942,2.315-12.509,2.315-19.597c0-9.743-2.458-19.489-7.307-28.968
	c-1.71-3.343-5.148-5.446-8.903-5.446c-9.515,0-18.192,1.783-25.791,5.299c-6.086,2.816-12.911,7.086-20.771,13.003
	c-9.899-2.316-20.155-3.489-30.561-3.489l-1.143,0.005c-10.935,0.088-22.374,1.322-34.064,3.671
	c-8.208-5.838-15.185-10.105-21.239-12.997C65.954,42.848,57.145,41,47.4,41c-3.72,0-7.132,2.065-8.858,5.36
	c-4.841,9.242-7.408,18.894-7.631,28.687c-0.001,0.076-0.002,0.151-0.002,0.227c0,7.143,0.773,13.793,2.301,19.844
	c-10.141,13.55-15.184,29.558-15.002,47.665c0.005,19.661,2.866,34.722,8.742,46.04c6.3,12.152,16.206,21.36,29.442,27.367
	c12.107,5.493,24.382,8.955,36.483,10.287c11.387,1.256,24.219,1.94,38.142,2.036c0.527,0.003,1.053,0.005,1.578,0.005
	c13.685,0,27.064-1.25,39.68-3.699c27.655-5.104,46.408-17.49,55.736-36.814c0.024-0.053,0.05-0.104,0.073-0.157
	c5.179-11.218,7.695-26.021,7.695-45.258C235.78,124.644,230.828,108.666,221.047,95.011z"/>
<path id="github" class="st0" d="M199.813,163.052c0-8.468-2.775-15.994-8.326-22.58c-5.551-6.585-13.03-9.878-22.438-9.878
	c-3.387,0-9.644,0.705-18.77,2.116c-9.127,1.412-16.888,2.117-23.285,2.117c-6.398,0-14.066-0.705-23.003-2.117
	c-8.938-1.411-15.1-2.116-18.487-2.116c-9.22,0-16.653,3.293-22.298,9.878c-5.645,6.586-8.467,14.019-8.467,22.298
	c0,14.677,4.61,25.778,13.83,33.306c9.408,7.526,24.367,11.29,44.877,11.29h23.708c22.58,0,38.668-3.67,48.265-11.008
	C195.016,189.019,199.813,177.917,199.813,163.052z M209.975,97.006c10.537,12.795,15.806,27.989,15.806,45.583
	c0,17.593-2.258,31.282-6.774,41.067c-7.902,16.37-24.085,26.813-48.546,31.328c-12.607,2.447-25.731,3.622-39.374,3.528
	c-13.642-0.094-26.013-0.752-37.115-1.976c-11.102-1.223-22.251-4.374-33.446-9.454c-11.196-5.081-19.428-12.701-24.697-22.863
	c-5.08-9.784-7.62-23.614-7.62-41.489c-0.188-17.688,5.174-32.835,16.088-45.442c-2.258-6.397-3.387-13.736-3.387-22.015
	C41.097,66.994,43.261,58.903,47.4,51c8.279,0,15.571,1.505,21.874,4.516c6.304,3.01,14.065,7.902,23.285,14.677
	c12.607-2.823,24.744-4.281,36.409-4.375c11.666-0.094,22.957,1.364,33.87,4.375c8.844-6.962,16.418-11.901,22.722-14.818
	c6.303-2.917,13.5-4.375,21.592-4.375c4.139,8.091,6.21,16.229,6.21,24.414S212.232,90.797,209.975,97.006z M98.205,146.399
	c4.516,4.516,6.68,10.726,6.492,18.629c-0.188,7.901-2.352,14.3-6.492,19.191c-2.446,2.635-5.362,3.952-8.75,3.952
	s-6.304-1.317-8.75-3.952c-4.14-4.14-6.492-10.442-7.056-18.909c-0.188-7.715,1.976-13.925,6.492-18.629
	c2.446-2.634,5.457-3.951,9.032-3.951C92.748,142.73,95.759,143.953,98.205,146.399z M174.129,146.399
	c4.328,4.516,6.397,10.726,6.21,18.629c0,7.901-1.976,14.3-5.927,19.191c-2.447,2.635-5.363,3.952-8.75,3.952
	s-6.398-1.317-9.031-3.952c-4.141-4.14-6.399-10.442-6.775-18.909c-0.188-7.715,1.977-13.925,6.492-18.629
	c2.445-2.634,5.362-3.998,8.749-4.093C168.483,142.495,171.494,143.765,174.129,146.399z"/>
</svg>
