<?xml version="1.0" encoding="utf-8"?>
<!-- (c) mapshakers 2015, Licence: CC0 1.0 Universal, www.mapshakers.com  -->
<!DOCTYPE svg PUBLIC "-//W3C//DTD SVG 1.1//EN" "http://www.w3.org/Graphics/SVG/1.1/DTD/svg11.dtd">
<svg version="1.1" id="golf" xmlns="http://www.w3.org/2000/svg" xmlns:xlink="http://www.w3.org/1999/xlink" x="0px" y="0px"
	 width="256px" height="256px" viewBox="0 0 256 256" style="enable-background:new 0 0 256 256;" xml:space="preserve">
<style type="text/css">
<![CDATA[
	.st0{fill:#D1D1D1;}
	.st1{fill:#454545;}
]]>
</style>
<path class="st0" d="M184.189,54.686c-21.593-20.817-43.849-23.789-65.372-26.663c-13.854-1.85-26.938-3.598-40.381-9.906
	c-1.242-0.583-2.576-0.872-3.907-0.872c-0.3,0-0.6,0.034-0.898,0.063c-0.757-1.454-1.889-2.708-3.331-3.595
	c-3.613-2.22-7.17-4.786-10.574-7.626c-1.687-1.407-3.78-2.136-5.895-2.136c-1.323,0-2.654,0.285-3.898,0.867
	c-3.233,1.513-5.3,4.761-5.3,8.332v166.702c-18.623,5.408-31.008,20.092-31.008,37.017c0,21.577,20.633,39.131,45.994,39.131
	c25.362,0,45.995-17.554,45.995-39.131c0-16.67-12.609-31.598-30.931-36.982v-61.54c0.477-0.008,0.956-0.048,1.432-0.131
	c17.785-3.112,34.414-14.617,50.496-25.742c16.581-11.471,32.242-22.305,46.325-22.305c1.213,0,2.419,0.083,3.583,0.247
	c0.433,0.061,0.862,0.091,1.29,0.091c3.478,0,6.709-1.976,8.265-5.167C187.821,61.755,187.061,57.453,184.189,54.686z"/>
<path class="st1" d="M69.363,188.22v32.322c0.061,0.956,0.121,1.913,0.181,2.871c-7.066,1.605-15.084,1.565-22.151-0.105
	c0.109-1.688,0.217-3.377,0.324-5.065v-29.949c-14.958,3.802-25.813,15.157-25.813,28.576c0,16.53,16.474,29.931,36.795,29.931
	c20.322,0,36.795-13.4,36.795-29.931C95.495,203.356,84.483,191.938,69.363,188.22z"/>
<path class="st1" d="M64.563,129.518v-19.716V21.55c-3.857-2.37-7.74-5.137-11.651-8.4v199.595
	c-0.058,1.688-0.116,3.376-0.174,5.065c3.803,1.671,8.119,1.712,11.921,0.105c-0.032-0.957-0.064-1.915-0.097-2.872V129.518z"/>
<path class="st1" d="M73.609,26.443v82.711c35.332-6.185,69.757-52.578,103.276-47.847C144.373,29.963,110.177,43.604,73.609,26.443
	z"/>
</svg>
