<?xml version="1.0" encoding="utf-8"?>
<!-- (c) mapshakers 2015, Licence: CC0 1.0 Universal, www.mapshakers.com  -->
<!DOCTYPE svg PUBLIC "-//W3C//DTD SVG 1.1//EN" "http://www.w3.org/Graphics/SVG/1.1/DTD/svg11.dtd">
<svg version="1.1" id="heart" xmlns="http://www.w3.org/2000/svg" xmlns:xlink="http://www.w3.org/1999/xlink" x="0px" y="0px"
	 width="256px" height="256px" viewBox="0 0 256 256" style="enable-background:new 0 0 256 256;" xml:space="preserve">
<style type="text/css">
<![CDATA[
	.st0{fill:#464646;}
	.st1{fill:#D1D1D1;}
]]>
</style>
<path class="st1" d="M239.697,73.543c-10.381-23.513-34.065-38.706-60.338-38.706c-19.596,0-37.354,8.221-50.01,23.15
	c-0.453,0.535-0.894,1.072-1.327,1.611c-12.571-15.636-30.997-24.46-51.599-24.46c-12.822,0-25.572,3.687-35.902,10.381
	C17.475,60.454,6.94,86.531,13.683,111.952c4.461,16.819,13.307,32.073,26.292,45.338c18.347,18.739,37.154,37.612,55.342,55.865
	c7.048,7.073,14.097,14.146,21.135,21.229c1.882,1.896,5.797,5.835,11.48,5.835l0,0c5.664,0,9.544-3.896,11.41-5.77l12.561-12.605
	c20.006-20.078,40.012-40.156,59.992-60.26c12.723-12.799,21.152-24.979,26.533-38.324
	C245.887,104.76,246.303,88.497,239.697,73.543z"/>
<path class="st0" d="M231.406,77.205c-16.448-37.251-67.942-45.443-95.141-13.358c-2.875,3.395-5.385,7.102-8.505,11.251
	c-1.126-1.696-2.054-3.045-2.934-4.425C106.18,41.445,69.219,37.724,45.451,53.126C26.65,65.31,16.366,86.708,22.445,109.628
	c4.25,16.024,12.588,29.656,24.007,41.32c25.307,25.849,50.929,51.389,76.431,77.047c4.171,4.196,5.904,4.207,10.038,0.057
	c24.188-24.278,48.386-48.551,72.546-72.858c10.26-10.321,19.055-21.678,24.555-35.322
	C235.689,105.809,237.742,91.553,231.406,77.205z M215.229,114.685c-2.019,5.601-12.85,3.216-10.818-2.41
	c2.906-8.061,4.008-17.148-0.705-24.958c-4.624-7.657-12.141-13.311-20.842-17.968c-6-3.212-0.961-9.626,5.662-7.828
	c14.412,3.914,21.858,11.54,26.953,23.555C219.688,95.008,218.779,104.843,215.229,114.685z"/>
</svg>
