<?xml version="1.0" encoding="utf-8"?>
<!-- (c) mapshakers 2015, Licence: CC0 1.0 Universal, www.mapshakers.com  -->
<!DOCTYPE svg PUBLIC "-//W3C//DTD SVG 1.1//EN" "http://www.w3.org/Graphics/SVG/1.1/DTD/svg11.dtd">
<svg version="1.1" id="home" xmlns="http://www.w3.org/2000/svg" xmlns:xlink="http://www.w3.org/1999/xlink" x="0px"
	 y="0px" width="256px" height="256px" viewBox="0 0 256 256" style="enable-background:new 0 0 256 256;" xml:space="preserve">
<style type="text/css">
<![CDATA[
	.st0{fill:#D1D1D1;}
	.st1{fill:#454545;}
]]>
</style>
<path class="st0" d="M66.638,241.313c-13.861,0-25.138-11.277-25.138-25.139v-64.636c0-3.171,0.526-6.528,1.48-9.874
	c-2.571,0.973-5.31,1.474-8.128,1.474c-7.235,0-13.905-3.294-18.299-9.037c-7.714-10.09-5.784-24.572,4.3-32.286l93.906-71.818
	c3.994-3.055,8.963-4.737,13.991-4.737c5.029,0,9.999,1.683,13.992,4.739l22.925,17.532v-3.036c0-11.028,8.972-20,20-20h10
	c11.028,0,20,8.972,20,20v38.59c0,0.838-0.104,1.661-0.305,2.452l21.283,16.277c10.085,7.713,12.016,22.195,4.304,32.281
	c-4.399,5.748-11.069,9.042-18.303,9.042c-2.818,0-5.557-0.501-8.128-1.474c0.954,3.346,1.48,6.702,1.48,9.874v64.636
	c0,13.861-11.277,25.139-25.139,25.139"/>
<path class="st1" d="M193.975,127.204l-53.2-40.688c-6.613-5.058-17.436-5.058-24.049,0l-53.201,40.688
	c-6.614,5.059-12.025,16.01-12.025,24.336v64.636c0,8.326,6.813,15.139,15.138,15.139h79.983v-52.256
	c0-4.491,3.674-8.165,8.165-8.165h18.43c4.491,0,8.165,3.674,8.165,8.165v52.256h9.479c8.326,0,15.139-6.813,15.139-15.139v-64.636
	C205.999,143.213,200.588,132.262,193.975,127.204z M122.047,176.65c0,3.722-3.045,6.767-6.767,6.767H83.553
	c-3.722,0-6.767-3.045-6.767-6.767v-25.967c0-3.722,3.045-6.767,6.767-6.767h31.728c3.722,0,6.767,3.045,6.767,6.767V176.65z
	 M175.667,60.143V44.496c0-5.5,4.5-10,10-10h10c5.5,0,10,4.5,10,10v38.59L175.667,60.143z M233.005,128.023
	c-2.489,3.252-6.264,5.115-10.358,5.115c-2.882,0-5.616-0.928-7.909-2.681c0,0-51.82-42.115-75.121-58.941
	c-0.084-0.061-0.168-0.092-0.252-0.14c-2.885-2.004-6.592-3.211-10.638-3.211c-4.146,0-7.928,1.273-10.843,3.367
	c-0.036,0.023-0.071,0.034-0.107,0.06C94.426,88.469,42.76,130.458,42.76,130.458c-2.292,1.753-5.027,2.681-7.909,2.681
	c-4.095,0-7.87-1.863-10.356-5.113c-4.364-5.708-3.272-13.902,2.434-18.267l93.905-71.818c2.26-1.729,5.071-2.68,7.916-2.68
	s5.656,0.952,7.915,2.681l93.905,71.817C236.276,114.123,237.368,122.316,233.005,128.023z"/>
</svg>
