<?xml version="1.0" encoding="utf-8"?>
<!-- (c) mapshakers 2015, Licence: CC0 1.0 Universal, www.mapshakers.com  -->
<!DOCTYPE svg PUBLIC "-//W3C//DTD SVG 1.1//EN" "http://www.w3.org/Graphics/SVG/1.1/DTD/svg11.dtd">
<svg version="1.1" id="hotel_alt" xmlns="http://www.w3.org/2000/svg" xmlns:xlink="http://www.w3.org/1999/xlink" x="0px" y="0px"
	 width="256px" height="256px" viewBox="0 0 256 256" style="enable-background:new 0 0 256 256;" xml:space="preserve">
<style type="text/css">
<![CDATA[
	.st0{fill:#D1D1D1;}
	.st1{fill:#454545;}
]]>
</style>
<path class="st0" d="M244.23,154.624c-2.147-4.531-8.468-12.199-18.537-12.199c-8.663,0-14.542,5.672-17.385,10.142
	c-4.091-8.887-13.075-15.075-23.483-15.075h-50.6c-0.739,0-1.465,0.021-2.196,0.062c-0.507-0.037-1.011-0.056-1.51-0.056
	c-10.924,0-18.853,8.629-18.853,20.519v6.365c0,1.377,0.111,2.729,0.319,4.049c-1.126-0.861-2.465-1.703-4.056-2.507l-39.615-20.004
	c-2.825-1.426-5.717-2.149-8.596-2.149c-2.592,0-4.981,0.585-7.104,1.626v-8.802c0-4.374-1.401-10.144-3.409-14.031
	c-2.635-5.103-8.991-11.063-18.232-11.063c-9.241,0-15.597,5.959-18.232,11.063c-2.007,3.887-3.408,9.656-3.408,14.03V226.5
	c0,8.271,6.729,15,15,15h13.282c8.271,0,15-6.729,15-15v-2.166h89.766c2.431,0,4.461,0.004,4.823,0.008v-0.007
	c0.172,0.008,0.345,0.012,0.521,0.013l4.656,0.007l5.238-0.007c0.176-0.001,0.349-0.005,0.521-0.013v0.007
	c0.362-0.004,2.393-0.008,4.823-0.008h24.57c2.431,0,4.461,0.004,4.823,0.008v-0.007c0.172,0.008,0.345,0.012,0.521,0.013
	l4.656,0.007l5.238-0.007c0.176-0.001,0.349-0.005,0.521-0.013v0.007c0.11-0.001,0.376-0.003,0.76-0.004v2.162
	c0,8.271,6.729,15,15,15h13.281c8.271,0,15-6.729,15-15v-58.075C247.334,164.224,246.028,158.419,244.23,154.624z"/>
<path class="st1" d="M67.891,181.223h37.45c6.448,0,6.935-2.418,1.083-5.373l-39.615-20.004c-5.853-2.955-10.641,0.389-10.641,7.43
	v5.145C56.167,175.461,61.443,181.223,67.891,181.223z"/>
<path class="st1" d="M37.616,231.5c2.75,0,5-2.25,5-5v-7.166c0-2.75,2.25-5,5-5h94.766c2.75,0,5,0.005,5,0.01
	c0,0.006,2.25,0.011,5,0.011h0.582c2.75,0,5-0.005,5-0.011c0-0.005,2.25-0.01,5-0.01h24.57c2.75,0,5,0.005,5,0.01
	c0,0.006,2.25,0.011,5,0.011h0.582c2.75,0,5-0.005,5-0.011c0-0.005,2.25-0.01,5-0.01h0.937c2.75,0,5,2.25,5,5v7.166
	c0,2.75,2.25,5,5,5h13.281c2.75,0,5-2.25,5-5v-58.075c0-2.75-0.963-7.033-2.141-9.519c0,0-3.071-6.481-9.5-6.481
	c-6.43,0-9.5,6.481-9.5,6.481c-1.178,2.485-2.141,6.769-2.141,9.519v18.908c0,2.75-2.25,5-5,5H47.616c-2.75,0-5-2.25-5-5v-50.739
	c0-2.75-1.032-6.999-2.294-9.443c0,0-2.918-5.651-9.347-5.651c-6.429,0-9.347,5.651-9.347,5.651
	c-1.262,2.444-2.294,6.693-2.294,9.443V226.5c0,2.75,2.25,5,5,5H37.616z"/>
<path class="st1" d="M184.825,149.491h-50.6c-0.867,0-1.632,0.037-2.339,0.094c-5.896-0.749-10.22,3.31-10.22,10.431v6.365
	c0,8.712,7.129,15.842,15.842,15.842h50.6c0.867,0,1.632-0.038,2.339-0.095c5.896,0.749,10.22-3.31,10.22-10.431v-6.365
	C200.667,156.62,193.538,149.491,184.825,149.491z"/>
</svg>
