<?xml version="1.0" encoding="utf-8"?>
<!-- (c) mapshakers 2015, Licence: CC0 1.0 Universal, www.mapshakers.com  -->
<!DOCTYPE svg PUBLIC "-//W3C//DTD SVG 1.1//EN" "http://www.w3.org/Graphics/SVG/1.1/DTD/svg11.dtd">
<svg version="1.1" id="hotel" xmlns="http://www.w3.org/2000/svg" xmlns:xlink="http://www.w3.org/1999/xlink" x="0px" y="0px"
	 width="256px" height="256px" viewBox="0 0 256 256" style="enable-background:new 0 0 256 256;" xml:space="preserve">
<style type="text/css">
<![CDATA[
	.st0{fill:#D1D1D1;}
	.st1{fill:#454545;}
]]>
</style>
<path class="st0" d="M202.041,145.211c-6.579-9.087-13.486-12.715-18.059-15.115c-2.692-1.414-5.808-2.307-9.125-2.64
	c7.597-9.291,12.107-20.84,12.107-33.344c0-10.291-4.609-20.377-5.135-21.493c-2.662-5.655-8.578-9.974-14.807-11.113
	c0.705-1.822,1.108-3.794,1.108-5.862V29.277c0-8.976-7.302-16.277-16.276-16.277H99.752c-8.976,0-16.278,7.302-16.278,16.277
	v26.366c0,2.219,0.449,4.334,1.257,6.264c-5.57,1.559-10.659,5.584-13.073,10.711c-0.525,1.116-5.134,11.202-5.134,21.493
	c0,13.086,4.949,25.121,13.197,34.622c-4.312,0.176-8.338,1.267-11.708,3.203c-3.752,2.155-8.892,5.109-14.802,13.274
	c-4.355,6.017-9.076,18.386,0.177,56.166c4.687,19.136,10.768,35.937,11.024,36.642C67.725,247.129,77.533,254,87.228,254h80.797
	c9.693,0,19.502-6.871,22.813-15.98c0.257-0.707,6.337-17.506,11.024-36.643C211.117,163.596,206.396,151.229,202.041,145.211z"/>
<circle class="st0" cx="127.25" cy="182.5" r="0.25"/>
<circle class="st0" cx="127.5" cy="218" r="0.25"/>
<path class="st1" d="M158.134,55.644c0,3.453-2.825,6.277-6.276,6.277H99.752c-3.453,0-6.278-2.825-6.278-6.277V29.277
	c0-3.453,2.825-6.277,6.278-6.277h52.104c3.453,0,6.277,2.825,6.277,6.277L158.134,55.644L158.134,55.644z"/>
<path class="st1" d="M156.134,71.199c-3.452,0-4.419,2.127-2.146,4.728c0,0,7.912,9.056,7.912,18.186
	c0,16.788-15.771,30.446-35.154,30.446c-19.384,0-35.154-13.658-35.154-30.446c0-9.13,7.913-18.186,7.913-18.186
	c2.271-2.6,1.306-4.728-2.147-4.728H89.66c-3.453,0-7.481,2.556-8.952,5.68c0,0-4.182,8.882-4.182,17.233
	c0,25.096,22.529,45.512,50.221,45.512c27.692,0,50.222-20.417,50.222-45.512c0-8.352-4.184-17.233-4.184-17.233
	c-1.471-3.124-5.499-5.68-8.951-5.68H156.134z"/>
<path class="st1" d="M193.939,151.075c-5.203-7.188-10.404-9.921-14.606-12.128c-4.869-2.557-12.549-2.08-17.065,1.058
	c0,0-19.099,13.271-36.844,13.271c-17.07,0-35.414-12.137-35.414-12.137c-4.587-3.035-12.242-3.275-17.01-0.535
	c-3.401,1.955-7.034,4.041-11.688,10.472c-11.892,16.427,12.5,83.526,12.5,83.526c1.878,5.17,7.916,9.398,13.416,9.398h80.797
	c5.5,0,11.537-4.229,13.416-9.398C181.439,234.602,205.833,167.502,193.939,151.075z M127.25,172.25
	c5.661,0,10.25,4.589,10.25,10.25s-4.589,10.25-10.25,10.25S117,188.161,117,182.5S121.589,172.25,127.25,172.25z M127.5,228.25
	c-5.661,0-10.25-4.589-10.25-10.25s4.589-10.25,10.25-10.25s10.25,4.589,10.25,10.25S133.161,228.25,127.5,228.25z"/>
</svg>
