<?xml version="1.0" encoding="utf-8"?>
<!-- (c) mapshakers 2015, Licence: CC0 1.0 Universal, www.mapshakers.com  -->
<!DOCTYPE svg PUBLIC "-//W3C//DTD SVG 1.1//EN" "http://www.w3.org/Graphics/SVG/1.1/DTD/svg11.dtd">
<svg version="1.1" id="invisible" xmlns="http://www.w3.org/2000/svg" xmlns:xlink="http://www.w3.org/1999/xlink" x="0px" y="0px"
	 width="256px" height="256px" viewBox="0 0 256 256" style="enable-background:new 0 0 256 256;" xml:space="preserve">
<style type="text/css">
<![CDATA[
	.st0{fill:#464646;}
	.st1{fill:#D1D1D1;}
]]>
</style>
<path class="st1" d="M244.275,118.437c-3.086-3.672-6.228-7.052-9.34-10.05c-9.271-8.933-18.92-16.545-28.911-22.842l0.785-0.765
	c3.152-3.071,4.888-7.183,4.889-11.577c0-4.394-1.735-8.505-4.888-11.578l-7.297-7.111c-3.074-2.997-7.146-4.646-11.467-4.646
	s-8.393,1.65-11.467,4.646l-13.082,12.749c-7.905-1.942-15.969-3.183-24.184-3.698c-3.25-0.203-6.519-0.306-9.715-0.306
	c-42.636,0-80.91,18.331-113.757,54.484c-7.405,8.151-7.442,18.323-0.095,26.549c3.808,4.263,8.384,9.235,13.438,13.772
	c7.469,6.707,15.161,12.575,23.104,17.621c-2.868,3.018-4.456,6.933-4.455,11.113c0,4.394,1.737,8.505,4.89,11.576l7.296,7.11
	c3.076,2.996,7.147,4.646,11.466,4.646c4.32,0,8.393-1.65,11.467-4.647l11.607-11.313c11.923,3.105,24.388,4.765,37.471,4.99
	c0.066,0.002,0.132,0.003,0.199,0.003c0.109,0,0.22-0.001,0.328-0.005c42.481-1.222,79.981-19.771,111.461-55.13
	C250.928,136.271,251.023,126.465,244.275,118.437z"/>
<g>
	<path class="st0" d="M71.757,156.67c-12.217-7.333-25.507-17.482-32.42-25.757c15.279-15.812,32.935-27.85,54.398-35.475
		c-8.838,8.916-14.301,21.183-14.301,34.729c0,5.721,0.985,11.207,2.778,16.314l71.438-69.622
		c-4.896-0.896-9.911-1.521-15.055-1.843C92.077,72.103,54.95,91.76,24.333,125.458c-3.484,3.835-3.466,7.344-0.03,11.19
		c3.991,4.468,8.096,8.883,12.548,12.879c7.583,6.81,15.509,12.8,23.866,17.901L71.757,156.67z"/>
	<path class="st0" d="M235.492,125.818c-2.682-3.19-5.516-6.279-8.516-9.169c-9.19-8.854-18.96-16.569-29.384-22.886l-11.217,10.932
		c12.499,6.949,23.67,15.791,34.028,26.381c-16.057,16.46-34.174,28.713-56.383,36.291c14.857-17.702,18.764-35.111,12.084-52.663
		l-71.801,69.974c8.828,1.819,18.113,2.845,27.926,3.015c40.354-1.159,75.006-19.599,103.222-51.289
		C238.59,132.878,238.532,129.434,235.492,125.818z"/>
</g>
<path class="st0" d="M198.99,69.648l-7.296-7.11c-1.003-0.978-2.325-1.466-3.647-1.466s-2.645,0.488-3.647,1.466L60.543,183.242
	c-2.006,1.955-2.006,5.154,0,7.109l7.297,7.111c1.003,0.977,2.325,1.465,3.646,1.465c1.322,0,2.645-0.488,3.647-1.467L198.99,76.757
	C200.996,74.802,200.996,71.603,198.99,69.648z"/>
</svg>
