<?xml version="1.0" encoding="utf-8"?>
<!-- (c) mapshakers 2015, Licence: CC0 1.0 Universal, www.mapshakers.com  -->
<!DOCTYPE svg PUBLIC "-//W3C//DTD SVG 1.1//EN" "http://www.w3.org/Graphics/SVG/1.1/DTD/svg11.dtd">
<svg version="1.1" id="islamism" xmlns="http://www.w3.org/2000/svg" xmlns:xlink="http://www.w3.org/1999/xlink" x="0px" y="0px"
	 width="256px" height="256px" viewBox="0 0 256 256" style="enable-background:new 0 0 256 256;" xml:space="preserve">
<style type="text/css">
<![CDATA[
	.st0{fill:#D1D1D1;}
	.st1{fill:#454545;}
]]>
</style>
<path class="st0" d="M178.677,120.927c-0.86,0-1.727-0.111-2.58-0.339c-3.449-0.921-6.146-3.612-7.074-7.059l-5.418-20.102
	l-20.101-5.417c-3.447-0.929-6.138-3.625-7.06-7.075c-0.922-3.449,0.065-7.128,2.59-9.652l14.654-14.653l-4.994-18.536
	c-0.929-3.445,0.049-7.124,2.565-9.653c1.9-1.912,4.463-2.948,7.09-2.948c0.851,0,1.706,0.108,2.549,0.331l18.674,4.923
	l14.919-14.919c1.9-1.9,4.454-2.929,7.072-2.929c0.869,0,1.745,0.113,2.607,0.346c3.456,0.934,6.149,3.644,7.062,7.105l5.309,20.142
	l20.142,5.309c3.462,0.913,6.172,3.606,7.105,7.062s-0.052,7.147-2.583,9.679L226.287,77.46l4.922,18.674
	c0.909,3.45-0.089,7.123-2.618,9.639c-1.898,1.888-4.444,2.91-7.053,2.91c-0.867,0-1.741-0.113-2.601-0.344l-18.535-4.994
	l-14.653,14.653C183.849,119.898,181.295,120.927,178.677,120.927z"/>
<path class="st0" d="M129.728,252.569c-32.786,0-63.61-12.768-86.794-35.951c-47.858-47.858-47.858-125.73,0-173.588
	c18.48-18.48,41.863-30.391,67.62-34.444c0.522-0.082,1.044-0.122,1.56-0.122c3.978,0,7.646,2.378,9.22,6.139
	c1.778,4.249,0.425,9.163-3.279,11.902c-2.172,1.606-4.358,3.404-6.496,5.342c-0.399,0.362-0.828,0.691-1.28,0.985
	c-5.081,3.29-9.835,7.137-14.131,11.433c-33.531,33.531-33.531,88.09,0,121.622c16.243,16.244,37.839,25.189,60.811,25.189
	c22.971,0,44.567-8.945,60.811-25.189c4.298-4.297,8.146-9.052,11.435-14.133c0.293-0.452,0.621-0.879,0.982-1.277
	c0.629-0.695,1.256-1.394,1.858-2.104c1.95-2.299,4.764-3.532,7.63-3.532c1.513,0,3.04,0.344,4.464,1.055
	c4.12,2.058,6.303,6.663,5.285,11.155c-5.108,22.554-16.486,43.152-32.901,59.568C193.338,239.801,162.514,252.569,129.728,252.569z
	"/>
<path class="st1" d="M208.356,48.676l-6.794-25.777L182.58,41.881l-24.23-6.388l6.499,24.12l-18.743,18.743l25.657,6.914
	l6.915,25.657l18.742-18.742l24.119,6.499l-6.387-24.231l18.981-18.982L208.356,48.676z"/>
<path class="st1" d="M224.84,172.957c-37.49,37.491-98.273,37.491-135.764,0c-37.49-37.49-37.49-98.274,0-135.764
	c4.892-4.892,10.184-9.14,15.766-12.755c2.346-2.127,4.768-4.126,7.267-5.974c-22.734,3.578-44.584,14.118-62.104,31.637
	c-44.029,44.029-44.029,115.417,0,159.446c44.03,44.029,115.417,44.029,159.446,0c15.609-15.609,25.679-34.658,30.22-54.706
	c-0.672,0.792-1.37,1.571-2.072,2.347C233.982,162.771,229.733,168.064,224.84,172.957z"/>
</svg>
