<?xml version="1.0" encoding="utf-8"?>
<!-- (c) mapshakers 2015, Licence: CC0 1.0 Universal, www.mapshakers.com  -->
<!DOCTYPE svg PUBLIC "-//W3C//DTD SVG 1.1//EN" "http://www.w3.org/Graphics/SVG/1.1/DTD/svg11.dtd">
<svg version="1.1" id="judaism" xmlns="http://www.w3.org/2000/svg" xmlns:xlink="http://www.w3.org/1999/xlink" x="0px" y="0px"
	 width="256px" height="256px" viewBox="0 0 256 256" style="enable-background:new 0 0 256 256;" xml:space="preserve">
<style type="text/css">
<![CDATA[
	.st0{fill:#D1D1D1;}
	.st1{fill:#454545;}
]]>
</style>
<path class="st0" d="M128.84,254.811c-3.475-0.009-6.682-1.87-8.416-4.882l-29.873-51.913H26.652c-3.478,0-6.691-1.854-8.432-4.865
	c-1.741-3.009-1.745-6.72-0.011-9.733l31.971-55.559L18.209,72.3c-1.734-3.015-1.73-6.724,0.011-9.735
	c1.741-3.01,4.954-4.864,8.432-4.864h63.899l29.873-51.913c1.734-3.012,4.941-4.873,8.416-4.882c0.01,0,0.019,0,0.027,0
	c3.465,0,6.67,1.841,8.415,4.836l30.28,51.959h64.823c3.487,0,6.708,1.864,8.445,4.888c1.737,3.023,1.726,6.745-0.03,9.757
	l-32.351,55.512l32.351,55.512c1.756,3.013,1.768,6.735,0.03,9.758c-1.737,3.023-4.958,4.888-8.445,4.888h-64.822l-30.281,51.959
	c-1.745,2.995-4.95,4.836-8.415,4.836C128.858,254.811,128.85,254.811,128.84,254.811z M145.427,159.491l18.435-31.633
	l-18.435-31.633h-32.596l-18.203,31.633l18.203,31.633H145.427z"/>
<path class="st1" d="M197.176,127.858l35.21-60.417h-70.42l-33.099-56.795L96.185,67.441H26.652l34.767,60.417l-34.767,60.417
	h69.533l32.683,56.796l33.1-56.796h70.419L197.176,127.858z M199.247,86.485l-13.092,22.463l-13.091-22.463H199.247z
	 M175.136,127.858l-24.112,41.374h-43.826l-23.808-41.374l23.808-41.373h43.826L175.136,127.858z M128.972,48.646l10.954,18.796
	h-21.77L128.972,48.646z M59.581,86.485h25.645l-12.823,22.283L59.581,86.485z M59.581,169.231l12.822-22.282l12.823,22.282H59.581z
	 M128.972,207.071l-10.816-18.797h21.771L128.972,207.071z M186.155,146.769l13.092,22.463h-26.183L186.155,146.769z"/>
</svg>
