<?xml version="1.0" encoding="utf-8"?>
<!-- (c) mapshakers 2015, Licence: CC0 1.0 Universal, www.mapshakers.com  -->
<!DOCTYPE svg PUBLIC "-//W3C//DTD SVG 1.1//EN" "http://www.w3.org/Graphics/SVG/1.1/DTD/svg11.dtd">
<svg version="1.1" id="computer" xmlns="http://www.w3.org/2000/svg" xmlns:xlink="http://www.w3.org/1999/xlink" x="0px" y="0px"
	 width="256px" height="256px" viewBox="0 0 256 256" style="enable-background:new 0 0 256 256;" xml:space="preserve">
<style type="text/css">
<![CDATA[
	.st0{fill:#D1D1D1;}
	.st1{fill:#454545;}
]]>
</style>
<path class="st0" d="M244.61,180.229c-1.867-1.818-4.37-2.834-6.976-2.834h-18.014c3.82-3.719,6.205-8.906,6.205-14.646V59.5
	c0-11.28-9.177-20.457-20.456-20.457H50.629c-11.279,0-20.456,9.177-20.456,20.457v103.248c0,5.74,2.384,10.928,6.205,14.646H18.365
	c-2.605,0-5.107,1.016-6.975,2.834c-4.172,4.059-6.469,9.383-6.469,14.99c0,11.986,10.514,21.738,23.436,21.738h199.285
	c12.923,0,23.436-9.752,23.436-21.738C251.078,189.613,248.781,184.289,244.61,180.229z"/>
<g>
	<path class="st1" d="M205.38,172.644H50.639c-5.775,0-10.457-4.681-10.457-10.456V58.938c0-5.775,4.682-10.457,10.457-10.457
		H205.38c5.775,0,10.456,4.682,10.456,10.457v103.249C215.836,167.963,211.155,172.644,205.38,172.644z M61.096,151.731h133.828
		V69.395H61.096V151.731z"/>
</g>
<path class="st1" d="M237.645,186.833h-74.979c-0.672,3.052-2.1,5.164-3.757,5.164H97.094c-1.658,0-3.085-2.112-3.756-5.164H18.375
	c-2.134,2.077-3.444,4.814-3.444,7.825c0,6.482,6.016,11.737,13.437,11.737h199.285c7.42,0,13.436-5.255,13.436-11.737
	C241.088,191.647,239.778,188.91,237.645,186.833z"/>
</svg>
