<?xml version="1.0" encoding="utf-8"?>
<!-- (c) mapshakers 2015, Licence: CC0 1.0 Universal, www.mapshakers.com  -->
<!DOCTYPE svg PUBLIC "-//W3C//DTD SVG 1.1//EN" "http://www.w3.org/Graphics/SVG/1.1/DTD/svg11.dtd">
<svg version="1.1" id="lighthouse" xmlns="http://www.w3.org/2000/svg" xmlns:xlink="http://www.w3.org/1999/xlink" x="0px" y="0px"
	 width="256px" height="256px" viewBox="0 0 256 256" style="enable-background:new 0 0 256 256;" xml:space="preserve">
<style type="text/css">
<![CDATA[
	.st0{fill:#D1D1D1;}
	.st1{fill:#454545;}
]]>
</style>
<path class="st0" d="M238.833,89.297l-44.644-11.92l45.449-7.787c7.204-1.234,12.175-8.492,11.563-16.88
	c-0.595-8.18-6.464-14.349-13.652-14.349c-0.714,0-1.434,0.063-2.108,0.18l-47.572,8.149c-0.28-3.176-2.051-7.657-8.985-10.688
	c-12.646-5.602-25.515-12.721-37.532-19.576c-3.688-2.106-8.387-3.267-13.231-3.267c-4.8,0-9.459,1.142-13.116,3.212
	c-12.21,6.906-25.265,14.065-37.957,19.627c-9.322,4.031-9.402,10.652-9,13.323l-52.219-9.298c-0.729-0.133-1.473-0.2-2.211-0.2
	c-7.32,0-13.062,6.129-13.653,14.576c-0.591,8.477,4.356,15.824,11.5,17.089l54.126,9.638L17.54,94.103
	c-6.761,1.828-11.04,9.009-10.172,17.077c0.843,7.828,6.462,13.51,13.362,13.51c1.088,0,2.173-0.146,3.192-0.425l57.056-15.408
	c-0.099,0.705-0.166,1.422-0.166,2.164v14.994c0,4.018,1.547,7.979,4.067,11.146c-2.535,2.515-4.068,6.062-4.068,10.12v12.872
	c0,4.02,1.547,7.981,4.067,11.147c-2.534,2.515-4.067,6.062-4.067,10.119v12.871c0,4.02,1.547,7.981,4.068,11.147
	c-2.535,2.515-4.068,6.062-4.068,10.12v15.601c0,7.523,5.388,14.878,12.525,17.104c10.677,3.341,21.766,5.034,32.959,5.035
	c0,0,0.001,0,0.002,0c2.454,0,4.94-0.084,7.383-0.248c4.978-0.33,9.387-3.079,12.132-7.022c2.378,1.884,5.378,3.005,8.688,3.005
	c0,0,0,0,0.001,0c1.506,0,3.021-0.233,4.405-0.664c0,0,0.302-0.092,0.336-0.103c7.142-2.227,12.531-9.579,12.536-17.107v-15.601
	c0-4.06-1.534-7.607-4.07-10.122c2.521-3.165,4.067-7.126,4.07-11.146v-12.87c0-4.06-1.534-7.606-4.069-10.122
	c2.52-3.165,4.066-7.126,4.069-11.145v-12.872c0-4.06-1.534-7.607-4.07-10.122c2.52-3.166,4.067-7.127,4.07-11.146v-14.995
	c0-3.334-1.043-6.318-2.817-8.674c0.248,0.083,0.492,0.173,0.747,0.241l62.884,16.789c0.968,0.25,1.962,0.382,2.953,0.395
	c0.043,0,0.085,0.001,0.127,0.001c6.896,0,12.515-5.658,13.359-13.448C249.911,98.269,245.621,91.108,238.833,89.297z"/>
<path class="st1" d="M20.73,114.689c-1.662,0-3.13-1.896-3.419-4.581c-0.322-2.998,0.949-5.841,2.84-6.353l62.796-16.958
	c1.887-0.52,3.684,1.505,4.005,4.504c0.323,2.999-0.949,5.842-2.84,6.351L21.315,114.61
	C21.119,114.664,20.922,114.689,20.73,114.689z"/>
<path class="st1" d="M86.959,74.738c-0.138,0-0.276-0.013-0.416-0.038L13.215,61.644c-2.038-0.361-3.504-3.293-3.277-6.548
	c0.228-3.253,2.064-5.604,4.099-5.233l73.329,13.057c2.036,0.361,3.503,3.294,3.276,6.547
	C90.432,72.498,88.825,74.738,86.959,74.738z"/>
<path class="st1" d="M235.087,109.691L172.29,92.924c-1.89-0.505-3.162-3.317-2.84-6.281c0.322-2.964,2.119-4.966,4.005-4.452
	l62.798,16.768c1.891,0.504,3.162,3.316,2.839,6.28c-0.288,2.657-1.756,4.532-3.418,4.532
	C235.481,109.768,235.284,109.742,235.087,109.691z"/>
<path class="st1" d="M160.524,67.26c-0.229-3.131,1.238-5.951,3.276-6.3l73.328-12.561c2.034-0.355,3.871,1.908,4.099,5.037
	c0.229,3.129-1.239,5.949-3.277,6.298l-73.328,12.563c-0.141,0.025-0.278,0.036-0.417,0.036
	C162.34,72.332,160.734,70.175,160.524,67.26z"/>
<g>
	<g>
		<path class="st1" d="M107.637,115.751c0.002-3.114-2.558-6.121-5.648-6.896c-1.9-0.474-3.789-1.004-5.665-1.592
			c-3.055-0.951-5.511,0.642-5.511,3.756c0,4.998,0,9.997,0,14.994c0,3.108,2.458,6.606,5.511,7.56
			c1.876,0.588,3.766,1.119,5.665,1.592c3.091,0.773,5.65-1.312,5.648-4.42C107.637,125.748,107.637,120.75,107.637,115.751z"/>
	</g>
	<g>
		<path class="st1" d="M123.713,111.81c-3.162-0.079-5.744,2.23-5.744,5.344c0,4.999,0,9.997,0,14.995
			c0,3.109,2.582,5.893,5.744,5.971c10.967,0.281,21.968-1.234,32.555-4.547c3.054-0.951,5.511-4.449,5.513-7.559
			c0-4.999,0-9.997,0-14.995c0-3.114-2.459-4.708-5.513-3.756C145.681,110.577,134.678,112.092,123.713,111.81z"/>
	</g>
</g>
<g>
	<g>
		<path class="st1" d="M136.448,153.248c0-3.115-2.579-5.375-5.741-5.24c-11.571,0.509-23.208-0.985-34.384-4.482
			c-3.055-0.952-5.512,0.643-5.512,3.756c0,4.292,0,8.581,0,12.872c0,3.109,2.457,6.607,5.512,7.56
			c11.175,3.498,22.814,4.992,34.384,4.481c3.162-0.135,5.741-2.967,5.741-6.073C136.448,161.83,136.448,157.54,136.448,153.248z"/>
	</g>
	<g>
		<path class="st1" d="M152.39,144.654c-3.08,0.832-5.632,3.888-5.632,7.002c0,4.291,0,8.581,0,12.871
			c0,3.109,2.552,5.146,5.632,4.314c1.298-0.349,2.591-0.725,3.878-1.128c3.054-0.952,5.511-4.45,5.513-7.56
			c0-4.292,0-8.581,0-12.872c0-3.114-2.459-4.707-5.513-3.755C154.98,143.929,153.688,144.307,152.39,144.654z"/>
	</g>
</g>
<g>
	<g>
		<path class="st1" d="M116.526,187.424c0-3.114-2.581-5.89-5.716-6.382c-4.886-0.764-9.728-1.89-14.487-3.378
			c-3.055-0.952-5.512,0.643-5.512,3.756c0,4.291,0,8.582,0,12.871c0,3.108,2.457,6.607,5.512,7.56
			c4.759,1.488,9.601,2.614,14.487,3.377c3.135,0.493,5.716-1.824,5.716-4.933C116.526,196.006,116.526,191.716,116.526,187.424z"/>
	</g>
	<g>
		<path class="st1" d="M134.113,181.938c-3.157,0.251-5.747,2.827-5.746,5.941c0,4.291,0,8.581,0,12.871
			c0,3.109,2.589,5.625,5.746,5.375c7.484-0.585,14.915-2.01,22.154-4.275c3.054-0.952,5.511-4.45,5.513-7.56
			c0-4.289,0-8.58,0-12.87c0-3.114-2.459-4.709-5.513-3.757C149.028,179.93,141.596,181.355,134.113,181.938z"/>
	</g>
</g>
<g>
	<g>
		<path class="st1" d="M138.75,221.264c0-3.114-2.572-5.316-5.731-5.107c-12.33,0.828-24.774-0.623-36.695-4.353
			c-3.055-0.953-5.512,0.641-5.512,3.755c0,5.201,0,10.4,0,15.601c0,3.109,2.457,6.607,5.512,7.561
			c11.919,3.729,24.366,5.181,36.695,4.354c3.159-0.21,5.731-3.1,5.731-6.208C138.75,231.664,138.75,226.463,138.75,221.264z"/>
	</g>
	<g>
		<path class="st1" d="M156.034,211.875c-3.054,0.952-5.592,4.104-5.592,7.217c0,5.2,0,10.399,0,15.601
			c0,3.109,2.536,5.049,5.592,4.099c0.078-0.023,0.155-0.048,0.233-0.071c3.054-0.952,5.511-4.451,5.513-7.561
			c0-5.2,0-10.399,0-15.601c0-3.114-2.459-4.708-5.513-3.755C156.189,211.827,156.112,211.852,156.034,211.875z"/>
	</g>
</g>
<path class="st1" d="M146.571,85.7c1.552,7.093-3.119,12.896-10.38,12.896h-15.48c-7.261,0-11.932-5.803-10.381-12.896l2.453-11.218
	c1.551-7.093,8.602-12.896,15.668-12.896c7.066,0,14.116,5.803,15.668,12.896L146.571,85.7z"/>
<path class="st1" d="M174.832,45.146c-12.719-5.635-25.628-12.727-38.442-20.036c-4.526-2.586-11.927-2.602-16.463-0.033
	c-12.97,7.335-26.036,14.459-38.91,20.101c-4.491,1.942-4.03,3.85,1.011,4.395c30.292,3.063,61.488,3.063,91.78,0
	C178.847,49.027,179.314,47.105,174.832,45.146z"/>
</svg>
