<?xml version="1.0" encoding="utf-8"?>
<!-- (c) mapshakers 2015, Licence: CC0 1.0 Universal, www.mapshakers.com  -->
<!DOCTYPE svg PUBLIC "-//W3C//DTD SVG 1.1//EN" "http://www.w3.org/Graphics/SVG/1.1/DTD/svg11.dtd">
<svg version="1.1" id="like" xmlns="http://www.w3.org/2000/svg" xmlns:xlink="http://www.w3.org/1999/xlink" x="0px" y="0px"
	 width="256px" height="256px" viewBox="0 0 256 256" style="enable-background:new 0 0 256 256;" xml:space="preserve">
<style type="text/css">
<![CDATA[
	.st0{fill:#464646;}
	.st1{fill:#D1D1D1;}
]]>
</style>
<path class="st1" d="M59.179,233.398c-10.73,0-19.615-6.641-23.187-17.33c-8.671-25.935-12.42-51.983-11.142-77.424
	c0.586-11.805,8.814-19.822,20.475-19.946c2.395-0.026,4.792-0.034,7.191-0.034c1.849,0,9.084,0.019,10.854,0.019
	c0,0,18.357-0.679,18.42-0.68L82.153,118c3.097,0,5.447,0.787,7.197,1.82c1.454-1.531,3.195-2.693,4.912-3.347
	c2.64-1.002,3.477-2.06,3.99-3.055c0.74-1.434,1.499-2.793,2.231-4.108c0.464-0.833,0.929-1.665,1.38-2.504
	c3.872-7.186,8.992-13.39,15.658-18.974c10.041-8.41,16.875-19.65,21.735-28.678c0.026-0.265,0.053-0.601,0.072-0.874
	c0.033-0.436,0.066-0.867,0.107-1.289c0.232-2.321,0.377-4.634,0.433-6.887c0.397-15.833,11.563-24.112,22.384-24.112
	c3.037,0,6.055,0.599,8.967,1.781c9.706,3.94,12.049,10.517,14.115,16.32c0.163,0.457,0.332,0.932,0.512,1.424
	c4.881,13.422,4.066,31.87-1.935,43.867c-1.044,2.087-2.03,4.203-3.011,6.373c1.07,0.103,2.115,0.193,3.136,0.265
	c1.211,0.085,2.474,0.097,3.549,0.097l2.827-0.01c3.121,0,6.5,0.106,10.066,0.872c8.648,1.857,15.467,6.638,19.195,13.461
	c3.441,6.296,4.027,13.891,1.713,21.61c5.621,9.563,5.396,22.431-0.584,32.41c2.592,10.858-0.959,22.534-9.111,30.248
	c1.146,10.8-3.987,17.483-16.482,21.901c-7.348,2.601-15.279,4.138-24.251,4.699c-8.66,0.541-16.125,1.01-24.474,1.01l0,0
	c-3.529,0-7.027-0.082-10.694-0.252c-0.745-0.033-1.575-0.062-2.474-0.09c-7.491-0.246-19.408-0.638-28.458-5.802
	c-0.226,1.025-0.609,2.079-1.208,3.142c-2.556,4.535-7.074,5.654-9.774,6.322c-3.407,0.842-6.808,1.687-10.209,2.529
	c-5.929,1.471-11.859,2.941-17.792,4.395C63.631,233.119,61.376,233.398,59.179,233.398L59.179,233.398z"/>
<path class="st0" d="M211.193,160.891c5.479-7.549,5.777-18.189,0.613-25.227c-1.236-1.689-1.263-2.945-0.568-4.791
	c4.367-11.648-0.715-21.504-12.858-24.112c-5.008-1.076-9.886-0.398-15.046-0.761c-5.305-0.374-11.02-1.192-16.747-1.598
	c0.54-1.703,0.771-2.797,1.22-3.798c2.352-5.248,4.592-10.552,7.162-15.69c4.902-9.801,5.239-25.635,1.479-35.976
	c-2.192-6.029-2.921-9.433-8.988-11.896c-8.185-3.321-17.291,1.292-17.594,13.306c-0.062,2.546-0.224,5.096-0.478,7.63
	c-0.176,1.766-0.156,3.735-0.955,5.225c-6.441,12.056-13.896,23.423-24.492,32.296c-5.454,4.569-9.915,9.813-13.272,16.044
	c-1.163,2.163-2.407,4.281-3.533,6.462c-2.022,3.919-5.264,6.275-9.317,7.814c-0.886,0.337-2.013,1.565-2.04,2.418
	c-0.323,9.14-0.921,18.304-0.521,27.422c0.688,15.629,3.056,33.547,8.737,45.755c5.004,10.753,23.853,10.281,32.254,10.669
	c12.746,0.587,21.999,0.007,34.083-0.75c7.334-0.459,14.478-1.646,21.542-4.146c10.25-3.625,11.125-7.125,9.242-14.938
	c-0.016-1.036,0.766-2.448,1.625-3.073c7.431-5.419,10.796-15.438,7.81-24.212C209.998,163.34,210.195,162.268,211.193,160.891z
	 M94.479,210.758c-8.052-25.908-12.481-52.24-9.301-79.461c0.295-2.523-0.761-3.339-3.208-3.295l-18.415,0.682
	c-6.04,0-12.082-0.052-18.124,0.016c-6.342,0.066-10.274,4.021-10.593,10.447c-1.27,25.278,2.635,49.815,10.639,73.754
	c2.737,8.191,9.688,12,18.02,9.955c9.331-2.285,18.652-4.613,27.978-6.918C95.471,214.948,95.688,214.641,94.479,210.758z
	 M73,196.053c4.493,0,8.135,3.643,8.135,8.135c0,4.494-3.642,8.138-8.135,8.138s-8.135-3.644-8.135-8.138
	C64.865,199.695,68.507,196.053,73,196.053z"/>
</svg>
