<?xml version="1.0" encoding="utf-8"?>
<!-- (c) mapshakers 2015, Licence: CC0 1.0 Universal, www.mapshakers.com  -->
<!DOCTYPE svg PUBLIC "-//W3C//DTD SVG 1.1//EN" "http://www.w3.org/Graphics/SVG/1.1/DTD/svg11.dtd">
<svg version="1.1" id="lion" xmlns="http://www.w3.org/2000/svg" xmlns:xlink="http://www.w3.org/1999/xlink" x="0px" y="0px"
	 width="256px" height="256px" viewBox="0 0 256 256" style="enable-background:new 0 0 256 256;" xml:space="preserve">
<style type="text/css">
<![CDATA[
	.st0{fill:#464646;}
	.st1{fill:#D1D1D1;}
]]>
</style>
<path class="st1" d="M124.292,253.246c-2.086,0-4.171-0.65-5.936-1.952c-0.68-0.501-15.352-11.36-33.913-28.122
	c-9.34,6.684-15.745,10.317-16.071,10.502c-1.517,0.855-3.212,1.291-4.916,1.291c-1.156,0-2.315-0.199-3.426-0.605
	c-2.747-1.002-4.918-3.154-5.941-5.895c-0.355-0.951-8.542-23.031-14.098-51.75C18.523,149.736,7.64,125.539,7.64,104.769
	c0-31.274,12.363-56.633,35.752-73.336c20.319-14.51,48.519-22.179,81.551-22.179c33.235,0,61.663,7.467,82.209,21.592
	c24.014,16.506,36.705,41.733,36.705,72.954c0,22.616-13.189,49.326-39.213,79.417c-4.447,25.307-10.576,44.037-10.845,44.852
	c-0.913,2.771-2.993,5.008-5.694,6.117c-1.221,0.502-2.513,0.752-3.803,0.752c-1.563,0-3.123-0.367-4.55-1.096
	c-0.325-0.166-6.756-3.471-16.215-9.641c-18.386,16.208-32.708,26.652-33.369,27.134
	C128.418,252.609,126.354,253.246,124.292,253.246z"/>
<path class="st0" d="M112.717,105.845c0,8.384-6.797,15.181-15.181,15.181c-8.384,0-15.181-6.796-15.181-15.181
	c0-8.385,6.796-15.181,15.181-15.181C105.921,90.664,112.717,97.46,112.717,105.845z M153.396,90.663
	c-8.385,0-15.182,6.797-15.182,15.182c0,8.385,6.797,15.182,15.182,15.182c8.386,0,15.184-6.796,15.184-15.182
	C168.58,97.459,161.782,90.663,153.396,90.663z M233.859,103.799c0,23.944-17.549,51.051-38.596,74.958
	c-4.396,26.271-10.959,46.179-10.959,46.179s-9.092-4.645-21.63-13.379c-20.954,19.021-38.384,31.688-38.384,31.688
	s-17.976-13.259-39.166-33.021c-12.48,9.553-21.669,14.738-21.669,14.738s-8.65-23.154-14.105-52.564
	c-17.785-21.936-31.711-46.008-31.711-67.63c0-59.84,48.401-85.515,107.303-85.515C183.846,19.255,233.859,43.958,233.859,103.799z
	 M67.696,76.817c6.736-7.924,12.238-10.673,12.238-10.673c2.446-1.221,2.273-2.747-0.384-3.391c0,0-17.186-4.164-24.484,4.42
	c-7.297,8.584,0.563,23.444,0.563,23.444c1.279,2.416,2.978,2.253,3.774-0.362C59.403,90.255,61.151,84.513,67.696,76.817z
	 M152.609,182.471c-1.51,0.196-3.043,0.309-4.603,0.309c-1.356,0-2.729-0.076-4.106-0.233c-7.297-0.828-13.73-3.729-18.455-8.122
	c-4.723,4.393-11.156,7.294-18.454,8.122c-1.377,0.157-2.75,0.233-4.107,0.233c-1.758,0-3.49-0.133-5.182-0.383
	c11.353,12.471,27.48,18.594,27.48,18.594S141.115,194.887,152.609,182.471z M182.313,108.787c0-25.455-25.324-46.09-56.563-46.09
	c-31.239,0-56.563,20.635-56.563,46.09c0,4.24,0.716,8.341,2.032,12.239h-0.012c0,0,0.011,0.004,0.013,0.005
	c2.54,7.523,7.358,14.275,13.817,19.734c1.064,4.276,1.742,9.432,1.742,15.657c0,2.271,0.223,4.454,0.63,6.55
	c0.524,0.352,1.006,0.786,1.422,1.305c3.438,4.283,9.85,6.453,16.733,5.678c5.717-0.648,10.45-3.172,13.095-6.881v-5.334
	c-0.271-0.377-0.536-0.771-0.787-1.206l-10.878-18.839c-3.919-6.793-0.711-12.347,7.127-12.347c0,0,8.439,1.349,11.222,1.349
	c2.658,0,10.535-1.349,10.535-1.349c7.84,0,11.047,5.554,7.127,12.347l-10.771,18.652v6.725c2.642,3.71,7.377,6.232,13.096,6.883
	c6.881,0.775,13.294-1.395,16.732-5.678c0.371-0.465,0.799-0.855,1.26-1.187c0.477-2.133,0.768-4.354,0.835-6.668
	c0.183-6.267,1.274-11.604,2.813-16.091c6.203-5.381,10.836-11.972,13.309-19.296c0.004-0.002,0.013-0.009,0.015-0.01h-0.012
	C181.596,117.127,182.313,113.026,182.313,108.787z M196.785,67.454c-7.119-8.805-23.383-4.762-23.383-4.762
	c-2.652,0.661-2.852,2.255-0.44,3.545c0,0,5.238,2.802,11.81,10.93c6.385,7.896,8.164,13.852,8.164,13.852
	c0.783,2.62,2.406,2.753,3.606,0.297C196.542,91.316,203.902,76.261,196.785,67.454z"/>
</svg>
