<?xml version="1.0" encoding="utf-8"?>
<!-- (c) mapshakers 2015, Licence: CC0 1.0 Universal, www.mapshakers.com  -->
<!DOCTYPE svg PUBLIC "-//W3C//DTD SVG 1.1//EN" "http://www.w3.org/Graphics/SVG/1.1/DTD/svg11.dtd">
<svg version="1.1" id="lock" xmlns="http://www.w3.org/2000/svg" xmlns:xlink="http://www.w3.org/1999/xlink" x="0px" y="0px"
	 width="256px" height="256px" viewBox="0 0 256 256" style="enable-background:new 0 0 256 256;" xml:space="preserve">
<style type="text/css">
<![CDATA[
	.st0{fill:#464646;}
	.st1{fill:#D1D1D1;}
]]>
</style>
<path class="st1" d="M151.508,233.771c-4.244,0-8.488-0.008-12.732-0.016c-4.233-0.008-8.467-0.016-12.697-0.016
	c-3.964,0-7.926,0.005-11.888,0.009c-3.968,0.005-7.935,0.01-11.902,0.01c-6.034,0-12.069-0.011-18.102-0.048
	c-19.319-0.118-30.923-12.898-31.04-34.191c-0.144-23.97-0.144-46.289,0-68.229c0.102-15.725,6.831-26.993,18.211-31.614
	c-0.208-0.802-0.318-1.643-0.318-2.51V75.333c0-24.262,16.954-44,37.792-44h34.877c20.839,0,37.792,19.738,37.792,44v21.833
	c0,0.864-0.109,1.702-0.314,2.501c11.436,4.638,18.182,16.037,18.244,31.961c0.096,24.376,0.096,46.683,0,68.194
	c-0.104,20.431-12.191,33.729-30.791,33.889C163.57,233.753,158.129,233.771,151.508,233.771z"/>
<path class="st0" d="M189.43,131.669c-0.061-15.279-7.429-24.203-20.604-24.303c-28.326-0.229-56.639-0.2-84.964-0.014
	c-13.356,0.085-20.617,8.596-20.716,24.003c-0.149,22.703-0.136,45.408,0,68.109c0.087,15.938,7.323,24.162,21.101,24.246
	c13.939,0.086,27.878,0.029,41.83,0.029c14.157,0,28.325,0.086,42.476-0.029c13.182-0.111,20.799-8.822,20.877-23.934
	C189.529,177.078,189.518,154.373,189.43,131.669z M138.049,173.543v17.169c0,6.503-5.271,11.772-11.773,11.772
	c-6.501,0-11.772-5.271-11.772-11.772v-17.128c-6.066-3.879-10.092-10.669-10.092-18.402c0-12.059,9.775-21.834,21.833-21.834
	c12.058,0,21.833,9.775,21.833,21.834C148.078,162.889,144.08,169.658,138.049,173.543z M103.926,97.167V75.333
	c0-3.309,2.2-6,4.905-6h34.877c2.704,0,4.903,2.691,4.903,6v21.833H171.5V75.333c0-18.748-12.468-34-27.792-34h-34.877
	c-15.325,0-27.792,15.252-27.792,34v21.833L103.926,97.167L103.926,97.167z"/>
</svg>
