<?xml version="1.0" encoding="utf-8"?>
<!-- (c) mapshakers 2016, Licence: CC0 1.0 Universal, www.mapshakers.com  -->
<!DOCTYPE svg PUBLIC "-//W3C//DTD SVG 1.1//EN" "http://www.w3.org/Graphics/SVG/1.1/DTD/svg11.dtd">
<svg version="1.1" id="magic_portal" xmlns="http://www.w3.org/2000/svg" xmlns:xlink="http://www.w3.org/1999/xlink" x="0px" y="0px"
	 width="256px" height="256px" viewBox="0 0 256 256" style="enable-background:new 0 0 256 256;" xml:space="preserve">
<style type="text/css">
<![CDATA[
	.st0{fill:#464646;}
	.st1{fill:#D1D1D1;}
]]>
</style>
<path class="st1" d="M35.729,219.266c-2.648,0-5.188-1.05-7.063-2.921c-1.88-1.876-2.937-4.423-2.937-7.079V91.667
	c0-2.659,1.059-5.208,2.942-7.084L73.776,39.65c1.875-1.867,4.412-2.916,7.058-2.916H173.5c2.643,0,5.18,1.046,7.053,2.91
	l44.5,44.266C226.939,85.787,228,88.339,228,91v117.859c0,5.516-4.464,9.988-9.979,10
	C218.021,218.859,35.736,219.266,35.729,219.266z"/>
<path class="st0" d="M128.219,135.297c5.638-10.134,5.624-21.899-9.417-38.856c-9.029,1.815-17.103,6.3-23.36,12.596
	C118.426,113.734,126.178,123.693,128.219,135.297z"/>
<path class="st0" d="M123.887,137.375c-7.183-8.77-15.954-15.538-40.647-6.055c-0.707,3.187-1.091,6.492-1.091,9.89
	c0,5.217,0.891,10.226,2.509,14.899C99.171,137.964,112.169,133.652,123.887,137.375z"/>
<path class="st0" d="M119.952,186.188c-11.609-26.367-4.936-36.516,3.601-44.638c-12.188-0.18-22.613,7.158-30.3,29.457
	C100.004,178.829,109.354,184.34,119.952,186.188z"/>
<path class="st0" d="M162.398,170.986c-24.875-4.48-33.1-14.725-35.21-26.729c-5.902,10.608-5.61,23.004,11.63,41.272
	C148.132,183.219,156.32,178.039,162.398,170.986z"/>
<path class="st0" d="M170.169,124.156c-14.278,17.537-27.087,21.697-38.647,18.025c7.263,8.865,16.14,15.697,41.467,5.741
	c0.324-2.192,0.498-4.433,0.498-6.713C173.484,135.184,172.301,129.43,170.169,124.156z"/>
<g>
	<path class="st0" d="M131.854,138.006c11.844,0.176,22.021-6.757,29.641-27.605c-6.438-7.03-15.041-12.043-24.743-13.975
		C146.534,120.537,140.053,130.205,131.854,138.006z"/>
</g>
<path class="st0" d="M73.967,101.886c4.683-6.395,10.476-11.921,17.099-16.299c-0.083-0.422-0.192-0.833-0.353-1.215L78.579,55.553
	c-1.087-2.582-3.597-3.074-5.579-1.093L43.39,84.07c-1.981,1.981-1.487,4.485,1.098,5.564l28.901,12.069
	C73.573,101.781,73.773,101.828,73.967,101.886z"/>
<path class="st0" d="M100.641,80.339c8.286-3.697,17.457-5.769,27.117-5.769c9.076,0,17.725,1.821,25.609,5.106l11.895-28.247
	c1.086-2.582-0.316-4.695-3.117-4.695h-70.56c-2.802,0-4.204,2.112-3.117,4.694L100.641,80.339z"/>
<path class="st0" d="M210.34,84.07L180.73,54.461c-1.98-1.981-4.492-1.49-5.578,1.092l-12.137,28.82
	c-0.033,0.078-0.049,0.165-0.078,0.245c7.071,4.405,13.265,10.086,18.235,16.739l28.068-11.721
	C211.826,88.555,212.32,86.051,210.34,84.07z"/>
<path class="st0" d="M214.366,175.033l-29.188-0.008c-2.884,4.886-6.361,9.379-10.354,13.36v16.841c0,1.998,1.635,3.633,3.634,3.633
	h35.908c1.999,0,3.634-1.635,3.634-3.633v-26.56C218,176.669,216.365,175.034,214.366,175.033z"/>
<path class="st0" d="M213.3,98.652l-26.75,11.172c5.005,9.354,7.851,20.035,7.851,31.386c0,8.701-1.687,17.004-4.719,24.624
	l23.226,0.007c2.802,0.001,5.094-2.29,5.094-5.092v-58.966C218,98.981,215.885,97.573,213.3,98.652z"/>
<path class="st0" d="M61.118,141.21c0-11.104,2.731-21.563,7.534-30.771L40.429,98.652c-2.585-1.08-4.7,0.329-4.7,3.131v58.9
	c0,2.801,2.292,5.094,5.094,5.096l24.996,0.011C62.796,158.182,61.118,149.895,61.118,141.21z"/>
<path class="st0" d="M70.338,175.021H39.385c-2.011,0-3.656,1.646-3.656,3.656v26.932c0,2.011,1.646,3.656,3.656,3.656h36.399
	c2.011,0,3.656-1.646,3.656-3.656v-18.531C75.972,183.426,72.913,179.386,70.338,175.021z"/>
</svg>
