<?xml version="1.0" encoding="utf-8"?>
<!-- (c) mapshakers 2015, Licence: CC0 1.0 Universal, www.mapshakers.com  -->
<!DOCTYPE svg PUBLIC "-//W3C//DTD SVG 1.1//EN" "http://www.w3.org/Graphics/SVG/1.1/DTD/svg11.dtd">
<svg version="1.1" id="magnifier" xmlns="http://www.w3.org/2000/svg" xmlns:xlink="http://www.w3.org/1999/xlink" x="0px" y="0px"
	 width="256px" height="256px" viewBox="0 0 256 256" style="enable-background:new 0 0 256 256;" xml:space="preserve">
<style type="text/css">
<![CDATA[
	.st0{fill:#464646;}
	.st1{fill:#D1D1D1;}
]]>
</style>
<path class="st1" d="M240.173,201.404l-48.608-48.606c-5.332-5.334-12.428-8.272-19.979-8.272c-0.104,0-0.204,0-0.307,0.002
	c8.715-14.012,13.425-30.293,13.425-46.879c0-49.01-39.871-88.883-88.879-88.883c-49.012,0-88.887,39.873-88.887,88.883
	c0,49.012,39.875,88.886,88.887,88.886c16.832,0,33.315-4.843,47.47-13.8c-0.023,7.396,2.854,14.656,8.275,20.076l48.599,48.582
	c5.335,5.352,12.44,8.295,20.007,8.295c7.579,0,14.688-2.947,20.002-8.291c5.34-5.345,8.279-12.445,8.279-20
	C248.457,213.841,245.514,206.739,240.173,201.404z"/>
<path class="st0" d="M233.282,208.297l-48.609-48.609c-5.379-5.381-13.218-6.731-19.866-4.146l-7.795-7.796
	c11.205-13.655,17.947-31.099,17.947-50.1c0-43.636-35.502-79.138-79.134-79.138c-43.641,0-79.142,35.502-79.142,79.138
	c0,43.64,35.493,79.142,79.142,79.142c19.31,0,37.001-6.974,50.751-18.488l7.744,7.745c-2.604,6.648-1.242,14.495,4.139,19.875
	l48.609,48.592c3.623,3.635,8.359,5.432,13.104,5.432c4.746,0,9.492-1.797,13.104-5.432
	C240.521,227.264,240.521,215.527,233.282,208.297z M95.826,153.536c-30.833,0-55.909-25.067-55.909-55.891
	c0-30.829,25.076-55.917,55.909-55.917c30.824,0,55.908,25.08,55.908,55.917C151.734,128.469,126.65,153.536,95.826,153.536z"/>
</svg>
