<?xml version="1.0" encoding="utf-8"?>
<!-- (c) mapshakers 2015, Licence: CC0 1.0 Universal, www.mapshakers.com  -->
<!DOCTYPE svg PUBLIC "-//W3C//DTD SVG 1.1//EN" "http://www.w3.org/Graphics/SVG/1.1/DTD/svg11.dtd">
<svg version="1.1" id="mall" xmlns="http://www.w3.org/2000/svg" xmlns:xlink="http://www.w3.org/1999/xlink" x="0px"
	 y="0px" width="256px" height="256px" viewBox="0 0 256 256" style="enable-background:new 0 0 256 256;" xml:space="preserve">
<style type="text/css">
<![CDATA[
	.st0{fill:#D1D1D1;}
	.st1{fill:#454545;}
]]>
</style>
<g>
	<path class="st0" d="M206.166,103.814c17.922,0,32.5-14.58,32.5-32.5s-14.578-32.5-32.5-32.5h-36.695
		c-8.809,0-17.355,3.646-23.453,10.001l-13.627,14.204c-0.444-2.455-1.232-4.837-2.346-7.105c5.783-5.429,9.404-13.134,9.404-21.672
		c0-16.399-13.341-29.741-29.741-29.741S79.967,17.842,79.967,34.241c0,6.356,2.011,12.247,5.42,17.086
		c-3.087,4.132-5.006,9.151-5.453,14.367c-1.318,15.339-1.886,30.937-1.688,46.36c0.026,2.033,0.67,6.696,0.67,6.696L59.502,139
		H35.5C17.58,139,3,153.579,3,171.5S17.58,204,35.5,204h37.861c8.807,0,17.355-3.646,23.453-10.001l86.516-90.185H206.166z"/>
	<path class="st0" d="M250.617,221.302l-4.957-36.312c-0.984-7.211-4.645-13.882-10.156-18.837c0.293-2.313,0.441-4.654,0.441-7.011
		c0-25.898-18.004-46.969-40.133-46.969s-40.133,21.071-40.133,46.969c0,2.273,0.137,4.536,0.412,6.773
		c-5.66,4.972-9.416,11.729-10.418,19.074l-4.957,36.313c-1.049,7.692,1.16,15.325,6.063,20.941
		c4.9,5.615,12.164,8.836,19.926,8.836h57.924c7.762,0,15.025-3.221,19.928-8.836C249.459,236.628,251.668,228.995,250.617,221.302z
		"/>
</g>
<g>
	<path class="st1" d="M73.361,194H35.5C23.074,194,13,183.927,13,171.5S23.074,149,35.5,149h28.266l89.468-93.262
		c4.242-4.423,10.105-6.924,16.236-6.924h36.695c12.428,0,22.5,10.074,22.5,22.5s-10.072,22.5-22.5,22.5h-27.102l-89.467,93.262
		C85.354,191.499,79.49,194,73.361,194z"/>
</g>
<g>
	<path class="st1" d="M109.708,53.982c-10.885,0-19.741-8.856-19.741-19.741S98.823,14.5,109.708,14.5s19.741,8.856,19.741,19.741
		S120.594,53.982,109.708,53.982z"/>
</g>
<path class="st1" d="M240.709,222.654l-4.957-36.312c-0.914-6.698-5.377-12.592-11.252-15.816c0.947-3.624,1.445-7.452,1.445-11.384
	c0-20.386-13.518-36.969-30.133-36.969s-30.133,16.583-30.133,36.969c0,3.884,0.488,7.663,1.412,11.246
	c-6.002,3.195-10.584,9.158-11.51,15.954l-4.957,36.312c-1.383,10.135,5.854,18.426,16.08,18.426h57.924
	C234.855,241.08,242.092,232.789,240.709,222.654z M195.813,134.367c9.893,0,17.939,11.114,17.939,24.775
	c0,3.027-0.414,5.997-1.191,8.775h-33.498c-0.775-2.778-1.189-5.747-1.189-8.775C177.873,145.481,185.922,134.367,195.813,134.367z
	 M177.18,195.152c-3.082,0-5.584-2.5-5.584-5.585c0-3.084,2.502-5.585,5.584-5.585c3.086,0,5.584,2.501,5.584,5.585
	C182.764,192.652,180.266,195.152,177.18,195.152z M213.576,195.73c-3.084,0-5.586-2.5-5.586-5.585c0-3.084,2.502-5.584,5.586-5.584
	s5.584,2.5,5.584,5.584C219.16,193.23,216.66,195.73,213.576,195.73z"/>
<path class="st1" d="M122.236,76.494c0.164-2.374,0.337-4.748,0.541-7.12c0.336-3.921-0.671-7.643-2.633-10.746
	c-4.286,1.355-8.902,1.925-13.644,1.434c-4.402-0.456-8.513-1.797-12.181-3.885c-2.432,2.726-4.075,6.324-4.422,10.373
	c-1.297,15.096-1.846,30.24-1.652,45.376L122.236,76.494z"/>
</svg>
