<?xml version="1.0" encoding="utf-8"?>
<!-- (c) mapshakers 2015, Licence: CC0 1.0 Universal, www.mapshakers.com  -->
<!DOCTYPE svg PUBLIC "-//W3C//DTD SVG 1.1//EN" "http://www.w3.org/Graphics/SVG/1.1/DTD/svg11.dtd">
<svg version="1.1" id="map" xmlns="http://www.w3.org/2000/svg" xmlns:xlink="http://www.w3.org/1999/xlink" x="0px" y="0px"
	 width="256px" height="256px" viewBox="0 0 256 256" style="enable-background:new 0 0 256 256;" xml:space="preserve">
<style type="text/css">
<![CDATA[
	.st0{fill:#464646;}
	.st1{fill:#D1D1D1;}
]]>
</style>
<path class="st1" d="M226.746,17.522c-2.924,0-5.859,0.72-8.729,2.141l-41.83,20.714c-5.574,2.76-10.295,8.014-13.074,13.997
	c-2.615-6.019-7.123-11.368-12.564-14.41L116.461,20.91c-3.079-1.722-6.247-2.595-9.416-2.595c-5.683,0-10.409,2.731-13.262,7.143
	c-2.915-4.895-8.011-8.016-14.062-8.016c-2.9,0-5.814,0.707-8.663,2.102L28.42,40.42c-9.017,4.416-15.816,15.317-15.816,25.356
	v154.86c0,10.216,7.177,17.919,16.695,17.923c0,0,0,0,0.001,0c2.898,0,5.812-0.707,8.659-2.102l42.635-20.859
	c5.465-2.676,10.103-7.736,12.921-13.539c2.641,5.842,7.052,11.012,12.361,13.98l34.087,19.063c3.08,1.724,6.248,2.597,9.419,2.597
	l0,0c4.812,0,9.282-2.108,12.271-5.785c0.449-0.558,0.851-1.147,1.226-1.763c2.873,5.076,8.042,8.336,14.208,8.339c0,0,0,0,0.001,0
	c2.925,0,5.858-0.724,8.729-2.146l41.828-20.721c8.979-4.449,15.752-15.358,15.752-25.379V35.414
	C243.396,25.213,236.238,17.522,226.746,17.522z"/>
<g>
	<path class="st0" d="M75.827,29.284L33.189,50.162c-5.357,2.623-9.741,9.649-9.741,15.615v154.86c0,5.967,4.384,8.7,9.742,6.08
		l42.636-20.861c5.358-2.623,9.742-9.647,9.742-15.612V35.361C85.568,29.396,81.184,26.661,75.827,29.284z"/>
	<path class="st0" d="M145.256,49.432l-34.087-19.054c-5.207-2.911-9.467-0.412-9.467,5.554v154.501
		c0,5.967,4.261,13.229,9.466,16.141l34.088,19.063c5.207,2.911,9.467,0.413,9.467-5.553V65.569
		C154.723,59.604,150.463,52.341,145.256,49.432z"/>
	<path class="st0" d="M222.831,29.382l-41.829,20.714c-5.346,2.647-9.719,9.694-9.719,15.659v154.839
		c0,5.965,4.373,8.68,9.719,6.033l41.829-20.723c5.345-2.648,9.72-9.696,9.72-15.661V35.414
		C232.551,29.449,228.176,26.734,222.831,29.382z"/>
</g>
</svg>
