<?xml version="1.0" encoding="utf-8"?>
<!-- (c) mapshakers 2015, Licence: CC0 1.0 Universal, www.mapshakers.com  -->
<!DOCTYPE svg PUBLIC "-//W3C//DTD SVG 1.1//EN" "http://www.w3.org/Graphics/SVG/1.1/DTD/svg11.dtd">
<svg version="1.1" id="mapshakers" xmlns="http://www.w3.org/2000/svg" xmlns:xlink="http://www.w3.org/1999/xlink" x="0px" y="0px"
	 width="256px" height="256px" viewBox="0 0 256 256" style="enable-background:new 0 0 256 256;" xml:space="preserve">
<style type="text/css">
<![CDATA[
	.st0{fill:#464646;}
	.st1{fill:#D1D1D1;}
]]>
</style>
<path class="st1" d="M243.25,107.608l-1.928-3.342L210.93,49.72c-0.439-1.037-0.921-2.062-1.492-3.053l-4.24-7.346
	c-0.166-0.288-0.358-0.565-0.535-0.849l-0.168-0.301L204.49,38.2c-6.543-10.251-19.643-17.583-31.717-17.583H90.857
	c-12.511,0-26.146,7.867-32.426,18.717L48.414,56.696l-2.269,3.933l0,0l-31.468,48.664l0.024-0.004
	c-0.571,0.777-1.118,1.58-1.614,2.437l-0.332,0.578c-6.266,10.841-6.267,26.588-0.002,37.444l15.406,26.684
	c0.411,0.711,0.858,1.387,1.322,2.045l27.006,41.766c5.067,8.773,17.836,15.143,30.361,15.143h81.916
	c12.527,0,26.162-7.877,32.416-18.721l5.864-10.145l24.724-41.727c0.349-0.516,0.685-1.041,1-1.588l2.198-3.811l0.005-0.008
	l8.275-14.34C249.51,134.207,249.512,118.462,243.25,107.608z"/>
<g>
	<path class="st0" d="M234.518,113.696l-7.043-12.209c-2.834-4.898-7.771-7.821-13.209-7.821c-3.322,0-6.554,1.092-9.342,3.169
		l-25.593,19.044c-3.69,2.754-5.879,6.64-6.159,10.938c-0.281,4.3,1.389,8.432,4.691,11.645l24.558,23.836
		c2.828,2.743,6.332,4.254,9.871,4.254c4.802,0,9.079-2.643,11.744-7.254l10.479-18.161
		C238.96,133.445,238.96,121.398,234.518,113.696z"/>
	<path class="st0" d="M78.789,156.318c0.28-4.301-1.383-8.43-4.691-11.645l-30.801-29.882c-2.821-2.743-6.325-4.254-9.857-4.254
		c-4.803,0-9.085,2.653-11.75,7.255l-0.347,0.605c-4.445,7.691-4.445,19.738,0,27.441l15.405,26.681
		c2.833,4.903,7.771,7.825,13.207,7.825c3.324,0,6.554-1.097,9.343-3.168l13.329-9.919
		C76.315,164.504,78.509,160.618,78.789,156.318z"/>
	<path class="st0" d="M89.044,136.12c3.482,3.382,8.477,5.317,13.677,5.33c4.255,0,8.341-1.312,11.526-3.685l81.405-60.592
		c7.386-5.497,9.652-16.448,5.051-24.418l-4.23-7.334c-4.447-7.68-14.888-13.715-23.771-13.715H90.786
		c-8.879,0-19.319,6.035-23.764,13.715L49.568,75.673c-4.524,7.821-2.923,19.308,3.571,25.605L89.044,136.12z M74.994,77.364
		L82.4,64.835c3.509-5.95,12.32-10.977,19.229-10.977h59.697c7.52,0,14.718,3.296,16.48,6.252c1.541,2.591-0.801,8.525-6.236,12.595
		l-56.081,41.986c-2.313,1.747-5.357,2.698-8.576,2.698c-3.796,0-7.412-1.333-9.915-3.639L77.737,95.995
		C72.906,91.539,71.657,83.013,74.994,77.364z"/>
	<path class="st0" d="M166.538,145.66c-3.488-3.38-8.472-5.317-13.683-5.317c-4.242,0-8.334,1.298-11.524,3.673l-69.148,51.467
		c-7.501,5.588-10.625,14.748-7.108,20.849c3.285,5.688,12.824,10.146,21.703,10.146h81.916c8.891,0,19.324-6.037,23.76-13.727
		l7.326-12.676c4.519-7.825,2.918-19.313-3.565-25.606L166.538,145.66z M176.793,198.896l-0.575,0.976
		c-3.532,5.944-12.349,10.971-19.263,10.971H100.6c-6.936,0-12.126-1.219-13.855-2.092c0.655-1.478,3.313-4.86,8.246-8.478
		l46.147-33.855c2.332-1.702,5.389-2.652,8.616-2.652c3.853,0,7.509,1.332,10.05,3.649l14.229,12.953
		C178.869,184.78,180.137,193.268,176.793,198.896z"/>
</g>
</svg>
