<?xml version="1.0" encoding="utf-8"?>
<!-- (c) mapshakers 2015, Licence: CC0 1.0 Universal, www.mapshakers.com  -->
<!DOCTYPE svg PUBLIC "-//W3C//DTD SVG 1.1//EN" "http://www.w3.org/Graphics/SVG/1.1/DTD/svg11.dtd">
<svg version="1.1" id="monument" xmlns="http://www.w3.org/2000/svg" xmlns:xlink="http://www.w3.org/1999/xlink" x="0px" y="0px"
	 width="256px" height="256px" viewBox="0 0 256 256" style="enable-background:new 0 0 256 256;" xml:space="preserve">
<style type="text/css">
<![CDATA[
	.st0{fill:#D1D1D1;}
	.st1{fill:#454545;}
]]>
</style>
<path class="st0" d="M65.012,254.209c-10.387,0-18.837-8.45-18.837-18.838v-21.705c0-0.349,0.015-0.699,0.047-1.06
	c-0.031-0.549-0.047-1.079-0.047-1.602v-0.51c0-11.14,6.183-21.219,15.661-26.459L80.779,21.758
	c1.164-9.97,9.938-17.78,19.976-17.78h50.836c10.129,0,18.842,7.896,19.835,17.976l16.007,162.444
	c9.094,5.357,15.02,15.293,15.02,26.097v0.51c0,0.521-0.016,1.053-0.047,1.604c0.031,0.361,0.047,0.713,0.047,1.057v21.705
	c0,10.388-8.45,18.838-18.837,18.838H65.012z"/>
<path class="st1" d="M192.452,210.495c0-9.105-6.095-16.851-14.405-19.373L161.474,22.935c-0.485-4.926-4.933-8.957-9.883-8.957
	h-50.836c-4.95,0-9.47,4.023-10.043,8.939L71.092,190.989c-8.568,2.356-14.917,10.216-14.917,19.506v0.51
	c0,0.639,0.038,1.269,0.096,1.892c-0.061,0.315-0.096,0.579-0.096,0.77c0,1.364,0,4.817,0,7.674c0,2.857,0,9.171,0,14.031
	c0,4.861,3.977,8.838,8.837,8.838c4.861,0,12.887,0,17.837,0h82.928c4.95,0,12.977,0,17.838,0c4.86,0,8.837-3.977,8.837-8.838
	c0-4.86,0-11.174,0-14.031c0-2.856,0-6.31,0-7.674c0-0.19-0.035-0.454-0.097-0.769c0.059-0.624,0.097-1.254,0.097-1.893V210.495z
	 M114.881,31.731h22.934c4.95,0,9.316,4.038,9.702,8.973l1.222,15.601h-36.809c-3.339,0-6.046,2.707-6.046,6.046
	s2.707,6.046,6.046,6.046h37.756l4.88,62.325h-39.381c-3.339,0-6.046,2.707-6.046,6.047c0,3.338,2.707,6.045,6.046,6.045h40.329
	l2.594,33.123c0.386,4.935-3.348,8.973-8.298,8.973h-49.134c-4.95,0-8.626-4.033-8.169-8.962l5.316-57.318h35.735
	c3.34,0,6.045-2.707,6.045-6.046s-2.707-6.046-6.045-6.046H98.943l1.251-13.489h35.688c3.341,0,6.048-2.707,6.048-6.046
	s-2.707-6.046-6.048-6.046h-34.566l3.734-40.263C105.507,35.764,109.931,31.731,114.881,31.731z"/>
</svg>
