<?xml version="1.0" encoding="utf-8"?>
<!-- (c) mapshakers 2015, Licence: CC0 1.0 Universal, www.mapshakers.com  -->
<!DOCTYPE svg PUBLIC "-//W3C//DTD SVG 1.1//EN" "http://www.w3.org/Graphics/SVG/1.1/DTD/svg11.dtd">
<svg version="1.1" id="museum" xmlns="http://www.w3.org/2000/svg" xmlns:xlink="http://www.w3.org/1999/xlink" x="0px" y="0px"
	 width="256px" height="256px" viewBox="0 0 256 256" style="enable-background:new 0 0 256 256;" xml:space="preserve">
<style type="text/css">
<![CDATA[
	.st0{fill:#D1D1D1;}
	.st1{fill:#454545;}
]]>
</style>
<path class="st0" d="M238.986,208.322h-0.2v-5.788v-3.438v-6.901c0-2.792-1.233-5.295-3.187-6.994
	c-0.851-2.221-2.283-4.177-4.119-5.693v-54.474c1.837-1.516,3.271-3.473,4.121-5.695c1.952-1.699,3.187-4.202,3.187-6.993v-6.394
	h0.005V93.449c5.635-3.148,9.462-9.156,9.462-16.057c0-3.247-1.699-6.257-4.48-7.936l-108.9-65.705
	c-1.472-0.889-3.13-1.333-4.788-1.333c-1.657,0-3.315,0.444-4.788,1.333L16.399,69.457c-2.78,1.678-4.48,4.689-4.48,7.936
	c0,6.821,3.739,12.772,9.268,15.949v12.842h0.2v6.162c0,2.791,1.232,5.292,3.184,6.992c0.851,2.223,2.285,4.18,4.122,5.696v54.475
	c-1.836,1.517-3.27,3.472-4.121,5.693c-1.952,1.698-3.185,4.202-3.185,6.993v1.339v9.001v5.788h-0.199
	c-5.119,0-9.268,4.15-9.268,9.269l-0.001,17.25c0,10.333,8.407,18.74,18.741,18.74h198.854c10.334,0,18.74-8.407,18.74-18.74v-17.25
	C248.255,212.473,244.104,208.322,238.986,208.322z M104.691,179.508c-1.836,1.517-3.27,3.472-4.121,5.693
	c-1.952,1.698-3.186,4.202-3.186,6.993v4.931v5.409v5.788h-10.59v-13.861h-0.004v-2.267c0-2.792-1.234-5.296-3.186-6.994
	c-0.851-2.222-2.285-4.177-4.121-5.693v-54.473c1.837-1.517,3.271-3.474,4.123-5.697c1.951-1.699,3.185-4.202,3.185-6.993v-3.034
	h0.032V95.794h10.525v10.157h0.036v6.394c0,2.791,1.233,5.292,3.184,6.992c0.852,2.223,2.285,4.18,4.123,5.696V179.508z
	 M155.482,125.034c1.838-1.517,3.272-3.474,4.124-5.698c1.95-1.7,3.184-4.201,3.184-6.992l0.017-16.551h10.53l0.046,16.551
	c0,2.791,1.232,5.294,3.185,6.993c0.852,2.223,2.284,4.179,4.121,5.695v54.475c-1.835,1.517-3.268,3.472-4.119,5.692
	c-1.953,1.698-3.187,4.202-3.187,6.994v6.437v3.903v5.788h-10.595v-5.788v-6.22v-4.12c0-2.792-1.233-5.296-3.186-6.994
	c-0.852-2.222-2.284-4.177-4.12-5.693V125.034z"/>
<g>
	<path class="st1" d="M21.187,234.378c0,5.23,4.241,9.473,9.473,9.473h198.855c5.231,0,9.472-4.242,9.472-9.473v-7.781
		c0-5.229-4.24-9.471-9.472-9.471H30.661c-5.232,0-9.473,4.241-9.473,9.471L21.187,234.378L21.187,234.378z"/>
</g>
<path class="st1" d="M130.086,11.223L21.187,76.929c0,5.044,4.089,9.133,9.133,9.133h199.534c5.041,0,9.133-4.089,9.133-9.133
	L130.086,11.223z"/>
<g>
	<path class="st1" d="M75.211,114.151v-2.27h2.312v-10.34H58.651h-9.125H30.655v10.34h2.312v2.27c0,2.461,2.234,4.455,4.994,4.465
		v66.382c-2.761,0.01-4.994,2.003-4.994,4.464v2.269h-2.312v10.34h46.868v-10.34h-2.311v-2.269H75.21
		c0-2.461-2.233-4.455-4.994-4.464v-66.382C72.977,118.606,75.211,116.612,75.211,114.151z"/>
	<g>
		<path class="st1" d="M227.207,114.151v-2.27h2.312v-10.34h-18.872h-9.125H182.65v10.34h2.313v2.27
			c0,2.461,2.233,4.455,4.994,4.465v66.382c-2.762,0.01-4.994,2.003-4.994,4.464v2.269h-2.313v10.34h46.868v-10.34h-2.312v-2.269
			h-0.001c0-2.461-2.234-4.455-4.994-4.464v-66.382C224.972,118.606,227.207,116.612,227.207,114.151z"/>
	</g>
	<g>
		<path class="st1" d="M151.209,114.151v-2.27h2.312v-10.34h-18.872h-9.124h-18.872v10.34h2.312v2.27
			c0,2.461,2.235,4.455,4.995,4.465v66.382c-2.76,0.01-4.995,2.003-4.995,4.464v2.269h-2.312v10.34h46.867v-10.34h-2.311v-2.269
			h-0.001c0-2.461-2.232-4.455-4.995-4.464v-66.382C148.976,118.606,151.209,116.612,151.209,114.151z"/>
	</g>
</g>
<rect x="21.188" y="217.128" class="st1" width="217.798" height="11.43"/>
</svg>
