<?xml version="1.0" encoding="utf-8"?>
<!-- (c) mapshakers 2015, Licence: CC0 1.0 Universal, www.mapshakers.com  -->
<!DOCTYPE svg PUBLIC "-//W3C//DTD SVG 1.1//EN" "http://www.w3.org/Graphics/SVG/1.1/DTD/svg11.dtd">
<svg version="1.1" id="music" xmlns="http://www.w3.org/2000/svg" xmlns:xlink="http://www.w3.org/1999/xlink" x="0px" y="0px"
	 width="256px" height="256px" viewBox="0 0 256 256" style="enable-background:new 0 0 256 256;" xml:space="preserve">
<style type="text/css">
<![CDATA[
	.st0{fill:#D1D1D1;}
	.st1{fill:#454545;}
]]>
</style>
<path class="st0" d="M57.149,248.313c-14.944,0-27.672-7.541-34.049-20.174c-10.334-20.479-1.091-47.524,21.043-61.572
	c7.396-4.693,15.504-7.403,23.61-7.912v-95.45c0-9.101,5.854-16.984,14.565-19.617L196.866,8.972
	c1.924-0.582,3.919-0.877,5.929-0.877c4.369,0,8.708,1.437,12.217,4.042c5.182,3.846,8.275,9.997,8.275,16.452v134.576
	c0,0.806-0.096,1.59-0.275,2.34c0.459,17.083-9.343,34.731-25.183,44.784c-8.248,5.234-17.38,8.002-26.407,8.002
	c-14.943,0-27.673-7.543-34.05-20.176c-10.333-20.479-1.091-47.522,21.043-61.57c7.479-4.747,15.687-7.463,23.885-7.926V92.491
	l-73.56,22.135v80.208c0,0.141-0.003,0.277-0.008,0.417c0.589,17.329-9.208,34.926-25.174,45.06
	C75.309,245.546,66.177,248.313,57.149,248.313z"/>
<path class="st1" d="M213.287,28.589c0-3.321-1.571-6.445-4.238-8.425c-2.664-1.979-6.107-2.582-9.29-1.62L85.212,53.16
	c-4.428,1.338-7.458,5.418-7.458,10.044v106.171c-8.708-2.025-18.917-0.29-28.252,5.634c-17.573,11.152-25.397,32.923-17.474,48.623
	c7.925,15.701,28.597,19.39,46.171,8.235c13.534-8.59,21.275-23.473,20.504-37.033h0.037v-87.641l93.56-28.154v60.386
	c-8.769-2.129-19.093-0.424-28.526,5.563c-17.571,11.152-25.396,32.921-17.474,48.621c7.925,15.701,28.597,19.39,46.171,8.236
	c14.084-8.938,21.896-24.693,20.368-38.682h0.448V28.589z"/>
</svg>
