<?xml version="1.0" encoding="utf-8"?>
<!-- (c) mapshakers 2015, Licence: CC0 1.0 Universal, www.mapshakers.com  -->
<!DOCTYPE svg PUBLIC "-//W3C//DTD SVG 1.1//EN" "http://www.w3.org/Graphics/SVG/1.1/DTD/svg11.dtd">
<svg version="1.1" id="nature" xmlns="http://www.w3.org/2000/svg" xmlns:xlink="http://www.w3.org/1999/xlink" x="0px"
	 y="0px" width="256px" height="256px" viewBox="0 0 256 256" style="enable-background:new 0 0 256 256;" xml:space="preserve">
<style type="text/css">
<![CDATA[
	.st0{fill:#464646;}
	.st1{fill:#D1D1D1;}
]]>
</style>
<path class="st1" d="M210.063,197.105c-1.699-0.95-3.394-1.886-5.078-2.814c-3.817-2.105-7.424-4.096-10.979-6.204
	c-2.746-1.63-5.219-3.341-7.396-5.119c0.806-1.887,1.588-3.836,2.268-5.892c4.223-12.791,4.908-26.42,2.098-41.666
	c-5.129-27.817-19.514-48.297-42.752-60.871c-16.752-9.065-34.088-13.662-51.523-13.662c-17.667,0-35.712,4.725-53.641,14.048
	c-1.386,0.722-2.292,1.564-2.792,2.035c-2.279,1.981-3.543,4.888-3.434,7.909c0.11,3.054,1.611,5.89,4.075,7.699
	c9.941,7.3,16.296,16.617,19.428,28.484c1.125,4.26,1.773,9.349,2.524,15.241c0.312,2.448,0.641,5.029,1.029,7.77
	c0.036,0.25,0.081,0.5,0.135,0.75c2.295,10.42,4.624,20.013,9.888,31.897c10.585,23.899,28.794,37.437,54.12,40.235
	c1.842,0.205,3.714,0.308,5.562,0.308c8.269,0,16.688-2.063,25.029-6.137c1.521-0.742,2.806-1.847,3.761-3.19
	c7.333,6.773,15.422,12.896,24.239,18.342c2.53,1.563,5.187,2.354,7.888,2.354c3.051,0,5.977-1,8.696-2.975
	c5.614-4.072,9.515-9.813,11.59-17.061C216.07,204.126,214.111,199.371,210.063,197.105z"/>
<path class="st0" d="M188.902,196.688c-5.338-3.166-10.268-6.899-14.252-11.273c1.654-3.971,3.461-7.632,4.729-11.471
	c3.978-12.051,4.038-24.356,1.759-36.719c-4.365-23.676-16.287-42.317-37.676-53.89c-31.88-17.251-63.936-16.103-95.786,0.46
	c-0.28,0.146-0.497,0.41-0.853,0.714c11.962,8.784,19.549,20.242,23.178,33.991c1.789,6.776,2.413,14.464,3.785,24.161
	c2.462,11.178,4.607,19.481,9.265,30c8.911,20.119,24.067,31.914,46.075,34.347c8.754,0.969,17.102-0.97,25.104-4.877
	c-2.125-2.421-4.234-4.721-6.231-7.111c-9.289-11.119-16.356-22.035-21.997-35.27c-4.364-10.24-6-15-12.876-32.376
	c-5.902-12.102-14.59-21.962-26.02-29.268c-0.963-0.616-1.926-1.232-2.888-1.848c0.556-0.105,1.017-0.019,1.392,0.211
	c5.418,3.322,11.093,6.303,16.18,10.076c10.616,7.875,18.21,18.409,24.499,29.887c5.1,9.303,9.896,18.771,14.934,28.109
	c12.045,22.33,29.092,39.906,50.648,53.216c2.074,1.28,3.693,1.077,5.459-0.203c4.085-2.964,6.505-7.028,7.85-11.721
	C199.67,202.751,194.214,199.839,188.902,196.688z"/>
</svg>
