<?xml version="1.0" encoding="utf-8"?>
<!-- (c) mapshakers 2015, Licence: CC0 1.0 Universal, www.mapshakers.com  -->
<!DOCTYPE svg PUBLIC "-//W3C//DTD SVG 1.1//EN" "http://www.w3.org/Graphics/SVG/1.1/DTD/svg11.dtd">
<svg version="1.1" id="north_alt_III" xmlns="http://www.w3.org/2000/svg" xmlns:xlink="http://www.w3.org/1999/xlink" x="0px" y="0px"
	 width="256px" height="256px" viewBox="0 0 256 256" style="enable-background:new 0 0 256 256;" xml:space="preserve">
<style type="text/css">
<![CDATA[
	.st0{fill:#464646;}
	.st1{fill:#D1D1D1;}
]]>
</style>
<path class="st1" d="M129,248.971c-64.059,0-116.174-52.115-116.174-116.175C12.826,68.737,64.941,16.622,129,16.622
	c64.059,0,116.174,52.115,116.174,116.174C245.174,196.855,193.059,248.971,129,248.971z"/>
<path class="st0" d="M129,26.622c58.639,0,106.174,47.536,106.174,106.174S187.639,238.971,129,238.971
	c-58.638,0-106.174-47.537-106.174-106.175S70.362,26.622,129,26.622z M132.521,41.235c-0.838-1.652-2.207-1.652-3.043,0
	l-41.417,81.76c-0.837,1.651-0.006,3.003,1.845,3.003L124.368,126c1.853,0,4.881,0,6.733,0h40.99c1.854,0,2.684-1.352,1.848-3.003
	L132.521,41.235z M122.274,183.566l20.607,34.207c0.412,0.679,0.725,1.201,0.965,1.606c0.493,0,1.133,0.004,1.826,0.004H165.9
	c0.563,0,1.037-0.478,1.037-1.042v-77.807c0-0.563-0.477-1.038-1.037-1.038h-20.229c-0.563,0-1.038,0.476-1.038,1.038v33.932
	c0,3.012-1.971,3.163-2.365,3.163c-0.969,0-1.82-0.604-2.543-1.799l-20.606-34.208c-0.503-0.835-0.861-1.441-1.118-1.9
	c-0.404-0.021-0.966-0.037-1.672-0.037H96.101c-0.563,0-1.039,0.476-1.039,1.039v77.81c0,0.565,0.476,1.038,1.039,1.038h20.226
	c0.563,0,1.039-0.473,1.039-1.038v-33.603c0-3.012,1.969-3.162,2.364-3.162C120.699,181.77,121.555,182.374,122.274,183.566z"/>
</svg>
