<?xml version="1.0" encoding="utf-8"?>
<!-- (c) mapshakers 2016, Licence: CC0 1.0 Universal, www.mapshakers.com  -->
<!DOCTYPE svg PUBLIC "-//W3C//DTD SVG 1.1//EN" "http://www.w3.org/Graphics/SVG/1.1/DTD/svg11.dtd">
<svg version="1.1" id="pdf" xmlns="http://www.w3.org/2000/svg" xmlns:xlink="http://www.w3.org/1999/xlink" x="0px" y="0px"
	 width="256px" height="256px" viewBox="0 0 256 256" style="enable-background:new 0 0 256 256;" xml:space="preserve">
<style type="text/css">
<![CDATA[
	.st0{fill:#494949;}
	.st1{fill:#D1D1D1;}
]]>
</style>
<path class="st1" d="M56.768,231.232c-8.951,0-16.232-7.282-16.232-16.232V47.831c0-8.951,7.282-16.232,16.232-16.232h81.898
	c4.604,0,9.652,2.395,12.566,5.958l48.563,59.409c2.229,2.724,3.667,6.757,3.667,10.276V215c0,8.95-7.281,16.232-16.23,16.232
	H56.768z"/>
<path class="st0" d="M149.671,149.814c-3.611,0-7.611,0.212-11.921,0.633c-3.956-3.543-7.697-7.969-11.145-13.191
	c-1.395-2.112-2.675-4.21-3.824-6.264c5.301-15.51,5.611-27.73,0.831-34.6c-2.147-3.085-5.311-4.854-8.679-4.854
	c-3.72,0-7.129,2.096-9.354,5.75c-4.7,7.722-3.487,20.5,3.185,34.563c-1.271,3.187-2.762,6.527-4.449,9.964
	c-3.48,7.086-7.015,13.395-10.522,18.782c-15.321,6.69-24.504,16.098-23.001,23.736c0.746,3.791,3.921,6.339,7.901,6.339
	c8.419,0,17.983-11.635,23.578-19.662c5.134-1.96,10.92-3.577,17.231-4.814c5.085-0.998,9.901-1.794,14.356-2.372
	c10.713,7.858,20.055,9.086,24.841,9.086c0.001,0,0.002,0,0.003,0c9.336-0.001,15.855-4.476,15.855-10.882
	C174.557,157.466,171.323,149.814,149.671,149.814z M112.563,154.688l4.094-8.969l5.688,6.969L112.563,154.688z"/>
<path class="st0" d="M192.059,103.296c-0.773-0.947-4.638-5.671-8.584-10.5l-30.937-37.844c-3.947-4.829-8.019-9.808-9.047-11.067
	c-1.028-1.258-3.2-2.288-4.825-2.288s-8.059,0-14.293,0H74.338c-6.236,0-14.143,0-17.571,0c-3.428,0-6.232,2.805-6.232,6.232
	c0,3.427,0,11.335,0,17.571v132.027c0,6.236,0,14.144,0,17.571c0,3.427,2.805,6.232,6.232,6.232c3.427,0,11.335,0,17.571,0h95.323
	c6.235,0,14.144,0,17.571,0c3.427,0,6.23-2.807,6.23-6.232c0-3.428,0-11.335,0-17.571v-76.626c0-6.236,0-12.339,0-13.562
	C193.465,106.018,192.832,104.243,192.059,103.296z M181,197.43c0,6.235-5.104,11.338-11.339,11.338H74.338
	c-6.236,0-11.338-5.103-11.338-11.338V65.401c0-6.236,5.103-11.338,11.338-11.338h50.034c6.235,0,11.338,5.103,11.338,11.338v32.725
	c0,6.236,5.103,11.338,11.339,11.338h22.611c6.236,0,11.339,5.103,11.339,11.338L181,197.43L181,197.43z"/>
</svg>
