<?xml version="1.0" encoding="utf-8"?>
<!-- (c) mapshakers 2015, Licence: CC0 1.0 Universal, www.mapshakers.com  -->
<!DOCTYPE svg PUBLIC "-//W3C//DTD SVG 1.1//EN" "http://www.w3.org/Graphics/SVG/1.1/DTD/svg11.dtd">
<svg version="1.1" id="picnic_site" xmlns="http://www.w3.org/2000/svg" xmlns:xlink="http://www.w3.org/1999/xlink" x="0px" y="0px"
	 width="256px" height="256px" viewBox="0 0 256 256" style="enable-background:new 0 0 256 256;" xml:space="preserve">
<style type="text/css">
<![CDATA[
	.st0{fill:#D1D1D1;}
	.st1{fill:#454545;}
]]>
</style>
<path class="st0" d="M246.8,190.551c-5.795-2.595-14.952-4.551-21.3-4.551h-29.573c6.717-3.245,12.607-8.539,15.792-14.771
	l22.711-44.449c3.327-6.509,3.334-13.349,0.021-18.764c-3.314-5.415-9.408-8.521-16.719-8.521h-15.689l23.281-34.117
	c5.33-7.812,3.311-18.503-4.499-23.832c-2.862-1.954-6.203-2.987-9.662-2.987c-5.676,0-10.975,2.798-14.172,7.485l-35.88,52.58
	c-0.237,0.347-0.441,0.707-0.649,1.064c-0.616-0.118-1.244-0.193-1.883-0.193h-36.91c-2.254,0-4.328,0.755-6,2.014v-2.047
	l-0.003-5.501c0-0.152-0.008-0.452-0.008-0.452c0-16.925-13.26-31.239-14.771-32.815c-0.63-0.662-1.554-2.763-1.618-3.615V30.963
	c2.142-2.527,3.62-6.437,3.62-12.11c0-8.793-7.59-15.947-16.92-15.947H66.939c-9.329,0-16.918,7.154-16.918,15.947
	c0,5.673,1.478,9.583,3.619,12.11l0.001,26.047c-0.066,0.922-0.99,3.024-1.619,3.685c-1.512,1.577-14.771,15.89-14.771,32.817
	c0,0-0.008,0.296-0.009,0.447l-0.004,79.508c0,5.085,2.547,9.611,6.492,12.533H30.5c-6.348,0-15.505,1.956-21.3,4.551
	C4.752,192.541,0,198.039,0,207.5s4.752,14.959,9.2,16.949C14.995,227.044,24.152,229,30.5,229l10.662,0.001l-1.011,1.115
	c-4.295,4.735-5.553,10.51-3.366,15.446c2.182,4.924,7.275,7.863,13.625,7.863l12.193-0.101c7.71-0.064,17.117-4.21,22.368-9.858
	L95.258,232.4c1.478-1.589,5.635-3.4,7.804-3.4h49.996c2.169,0,6.327,1.812,7.804,3.399l10.054,10.817
	c5.251,5.648,14.659,9.794,22.368,9.858l12.192,0.101c6.352,0,11.445-2.939,13.627-7.863c2.188-4.937,0.929-10.711-3.366-15.445
	L214.95,229h10.55c6.348,0,15.505-1.956,21.301-4.551c4.447-1.991,9.199-7.489,9.199-16.949S251.248,192.542,246.8,190.551z"/>
<g>
	<path class="st1" d="M175.271,115.443c-1.388,0-2.79-0.403-4.023-1.245c-3.262-2.226-4.102-6.675-1.876-9.937l35.879-52.579
		c2.226-3.262,6.672-4.104,9.937-1.876c3.262,2.226,4.102,6.675,1.876,9.937l-35.879,52.579
		C179.799,114.351,177.555,115.443,175.271,115.443z"/>
</g>
<path class="st1" d="M105.656,93.512c0,0,0,0,0-0.002c0-13.394-11.989-25.894-11.989-25.894c-2.42-2.523-4.4-7.266-4.4-10.536
	V30.745c0-3.271,0.814-5.946,1.81-5.946c0.996,0,1.811-2.676,1.811-5.946c0-3.271-3.114-5.947-6.92-5.947H66.939
	c-3.805,0-6.918,2.676-6.918,5.947c0,3.271,0.814,5.946,1.809,5.946c0.996,0,1.811,2.676,1.811,5.946V57.08
	c0,3.271-1.98,8.013-4.4,10.536c0,0-11.988,12.5-11.988,25.894c0,0.002,0,0.002,0,0.002c0,0.003-0.003,0.005-0.006,0.005
	c-0.004,0-0.007,2.676-0.007,5.946v74.004c0,3.271,3.113,5.947,6.919,5.947h44.591c3.806,0,6.919-2.676,6.919-5.947V99.463
	c0-3.271-0.002-5.946-0.006-5.946S105.656,93.515,105.656,93.512z M100.418,131.004c-7.395,1.775-14.947,2.663-22.5,2.663
	s-15.105-0.888-22.5-2.663c0-8.667,0-17.333,0-26c7.395,1.775,14.947,2.663,22.5,2.663s15.105-0.888,22.5-2.663
	C100.418,113.67,100.418,122.337,100.418,131.004z"/>
<path class="st1" d="M217.731,109.496h-25.593l-7.901,11.58c-2.769,4.058-7.258,6.242-11.825,6.242
	c-2.776,0-5.581-0.807-8.048-2.489c-5.101-3.481-7.224-9.676-5.786-15.333h-36.91v31.648h63.773c3.379,0,4.689,2.352,2.912,5.225
	l-8.215,13.281c-1.777,2.875-5.998,5.227-9.377,5.229l-49.094,0.024v8.563c0,2.113-0.476,4.123-1.322,5.947h61.66
	c7.865,0,17.229-5.73,20.808-12.734l22.712-44.449C229.104,115.227,225.597,109.496,217.731,109.496z"/>
<path class="st1" d="M242.715,199.678C238.196,197.655,230.45,196,225.5,196h-195c-4.95,0-12.696,1.655-17.214,3.678
	c0,0-3.286,1.471-3.286,7.822s3.286,7.822,3.286,7.822C17.804,217.345,25.55,219,30.5,219h24.233c4.95,0,6.279,3,2.954,6.666
	l-10.129,11.168c-3.326,3.667-1.997,6.633,2.953,6.592l12.009-0.101c4.95-0.041,11.757-3.042,15.127-6.667l10.287-11.066
	c3.37-3.625,10.177-6.592,15.127-6.592h49.996c4.95,0,11.758,2.967,15.128,6.592l10.054,10.816
	c3.37,3.625,10.178,6.626,15.128,6.667l12.008,0.101c4.95,0.041,6.279-2.925,2.954-6.591l-9.903-10.919
	C195.101,222,196.43,219,201.38,219h24.12c4.95,0,12.696-1.655,17.215-3.678c0,0,3.285-1.471,3.285-7.822
	S242.715,199.678,242.715,199.678z"/>
</svg>
