<?xml version="1.0" encoding="utf-8"?>
<!-- (c) mapshakers 2015, Licence: CC0 1.0 Universal, www.mapshakers.com  -->
<!DOCTYPE svg PUBLIC "-//W3C//DTD SVG 1.1//EN" "http://www.w3.org/Graphics/SVG/1.1/DTD/svg11.dtd">
<svg version="1.1" id="pitch" xmlns="http://www.w3.org/2000/svg" xmlns:xlink="http://www.w3.org/1999/xlink" x="0px" y="0px"
	 width="256px" height="256px" viewBox="0 0 256 256" style="enable-background:new 0 0 256 256;" xml:space="preserve">
<style type="text/css">
<![CDATA[
	.st0{fill:#D1D1D1;}
	.st1{fill:#454545;}
]]>
</style>
<path class="st0" d="M197.002,25.819h-32.434h-67H65.002c-5.523,0-10,4.477-10,10v86.5v15v86.5c0,5.522,4.477,10,10,10h32.566
	l14.684-0.078h37.5l14.743,0.078h32.507c5.522,0,10-4.478,10-10v-86.5c0-2.99,0-12.009,0-15v-86.5
	C207.002,30.296,202.524,25.819,197.002,25.819z"/>
<path class="st1" d="M131.002,99.819c-13.953,0-25.711,9.574-29.051,22.5h58.102C156.715,109.394,144.955,99.819,131.002,99.819z"/>
<path class="st1" d="M131.002,159.819c13.953,0,25.713-9.576,29.051-22.5h-58.102C105.291,150.243,117.049,159.819,131.002,159.819z
	"/>
<path class="st1" d="M164.568,35.819v14.702h-0.104c-0.367,3.799-3.566,6.77-7.463,6.77h-52c-4.141,0-7.5-3.358-7.5-7.5
	c0-0.324,0.027-0.641,0.067-0.954V35.819H65.002v86.5h21.637c3.583-21.254,22.106-37.5,44.362-37.5
	c22.258,0,40.781,16.246,44.363,37.5h21.638v-86.5H164.568z"/>
<path class="st1" d="M175.364,137.319c-3.582,21.254-22.105,37.5-44.363,37.5c-22.256,0-40.779-16.246-44.362-37.5H65.002v86.5
	h32.566v-12.573c-0.04-0.313-0.067-0.63-0.067-0.954c0-4.143,3.359-7.5,7.5-7.5h52c4.009,0,7.273,3.147,7.48,7.104h0.014v0.279
	c0.001,0.039,0.006,0.077,0.006,0.116s-0.005,0.077-0.006,0.116v13.411h32.507v-86.5H175.364z"/>
<g>
	<path class="st1" d="M149.752,221.741h-37.5c-2.894,0-5.24-2.347-5.24-5.24s2.346-5.24,5.24-5.24h37.5
		c2.894,0,5.24,2.347,5.24,5.24S152.646,221.741,149.752,221.741z"/>
</g>
<g>
	<path class="st1" d="M149.752,48.408h-37.5c-2.894,0-5.24-2.346-5.24-5.24s2.346-5.24,5.24-5.24h37.5c2.894,0,5.24,2.346,5.24,5.24
		S152.646,48.408,149.752,48.408z"/>
</g>
</svg>
