<?xml version="1.0" encoding="utf-8"?>
<!-- (c) mapshakers 2015, Licence: CC0 1.0 Universal, www.mapshakers.com  -->
<!DOCTYPE svg PUBLIC "-//W3C//DTD SVG 1.1//EN" "http://www.w3.org/Graphics/SVG/1.1/DTD/svg11.dtd">
<svg version="1.1" id="playground" xmlns="http://www.w3.org/2000/svg" xmlns:xlink="http://www.w3.org/1999/xlink" x="0px" y="0px"
	 width="256px" height="256px" viewBox="0 0 256 256" style="enable-background:new 0 0 256 256;" xml:space="preserve">
<style type="text/css">
<![CDATA[
	.st0{fill:#D1D1D1;}
	.st1{fill:#454545;}
]]>
</style>
<path class="st0" d="M240.092,244.205c-64.838-0.006-87.119-26.844-103.388-46.438c-10.261-12.361-16.416-19.187-27.704-20.793
	v51.063c0,8.894-7.551,16.128-16.833,16.128c-7.881,0-14.515-5.217-16.337-12.234c-0.154-0.014-0.32-0.021-0.496-0.021H52
	c-0.18,0-0.349,0.008-0.506,0.021c-1.858,7.02-8.623,12.234-16.661,12.234c-9.466,0-17.167-7.234-17.167-16.128v-71.44
	c0-2.041,0.822-5.252,3.377-7.504c-2.132-3.182-3.377-7.004-3.377-11.111V89.5c0-4.757,1.669-9.132,4.454-12.569
	c-1.874-1.615-2.927-3.372-3.457-4.479c-1.199-2.502-3.311-9.162,2.946-16.939L48.306,22.33c3.804-4.729,9.281-7.441,15.026-7.441
	s11.223,2.711,15.028,7.44l26.696,33.183c6.257,7.777,4.146,14.438,2.947,16.939c-0.53,1.107-1.583,2.865-3.457,4.479
	C107.33,80.368,109,84.743,109,89.5v31.944c36.764,1.173,55.383,24.18,71.829,44.5c14.907,18.42,27.78,34.328,52.452,34.328
	c0.486,0,0.979-0.008,1.475-0.02l0.359-0.004c4.41,0,12.473,1.99,16.923,15.322c2.017,6.039,2.731,12.502,2.731,16.201
	c0,11.517-8.86,12.334-10.281,12.391v0.002c-1.487,0.025-2.936,0.04-4.379,0.04C240.104,244.205,240.098,244.205,240.092,244.205z"
	/>
<path class="st1" d="M97.265,60.233c3.979,4.946,2.041,8.993-4.308,8.993h-59.25c-6.349,0-8.286-4.047-4.308-8.993L56.097,27.05
	c3.979-4.946,10.491-4.946,14.471,0L97.265,60.233z M234.999,208.703c-61.5,1.5-62-77.5-127.249-78.835v35.36
	c44.999,3.725,32.999,69.225,136.562,67.392C245.834,232.62,243.754,208.489,234.999,208.703z M88.999,154.816
	c5.5,0,10,0.943,10,2.097s0,4.28,0,6.949s0,7.536,0,10.815s0,9.09,0,12.912s0,9.633,0,12.913c0,3.279,0,9.091,0,12.912
	c0,3.822,0,9.707,0,13.076c0,3.37-3.075,6.128-6.833,6.128s-6.833-2.758-6.833-6.128c0-3.369-4.5-6.127-10-6.127H51.999
	c-5.5,0-10,2.758-10,6.127c0,3.37-3.225,6.128-7.167,6.128s-7.167-2.758-7.167-6.128c0-3.369,0-9.254,0-13.076
	c0-3.821,0-9.633,0-12.912c0-3.28,0-9.091,0-12.913s0-9.633,0-12.912s0-8.984,0-12.679c0-3.692,0-6.819,0-6.948s4.5-0.234,10-0.234
	H88.999z M75.333,194.54H51.999c-5.5,0-10,2.685-10,5.964s4.5,5.963,10,5.963h23.333c5.5,0,10-2.684,10-5.963
	C85.333,197.225,80.833,194.54,75.333,194.54z M75.333,168.715H51.999c-5.5,0-10,2.684-10,5.963c0,3.28,4.5,5.965,10,5.965h23.333
	c5.5,0,10-2.685,10-5.965C85.333,171.398,80.833,168.715,75.333,168.715z M88.999,77.953c5.5,0,10,4.5,10,10v48.482
	c0,5.5-4.5,10-10,10H37.666c-5.5,0-10-4.5-10-10V87.953c0-5.5,4.5-10,10-10H88.999z M80.666,111.786
	c0-9.573-7.761-17.333-17.334-17.333s-17.333,7.76-17.333,17.333s7.762,17.334,17.333,17.334S80.666,121.359,80.666,111.786z"/>
</svg>
