<?xml version="1.0" encoding="utf-8"?>
<!-- (c) mapshakers 2015, Licence: CC0 1.0 Universal, www.mapshakers.com  -->
<!DOCTYPE svg PUBLIC "-//W3C//DTD SVG 1.1//EN" "http://www.w3.org/Graphics/SVG/1.1/DTD/svg11.dtd">
<svg version="1.1" id="playground_alt" xmlns="http://www.w3.org/2000/svg" xmlns:xlink="http://www.w3.org/1999/xlink" x="0px" y="0px"
	 width="256px" height="256px" viewBox="0 0 256 256" style="enable-background:new 0 0 256 256;" xml:space="preserve">
<style type="text/css">
<![CDATA[
	.st0{fill:#D1D1D1;}
	.st1{fill:#454545;}
]]>
</style>
<path class="st0" d="M125.855,242.5c-63.411,0-115-51.589-115-115s51.589-115,115-115c63.411,0,115,51.589,115,115
	S189.268,242.5,125.855,242.5z"/>
<path class="st1" d="M125.854,30.758c-53.619,0-97.241,43.623-97.241,97.243c0,53.619,43.623,97.241,97.241,97.241
	c53.621,0,97.244-43.622,97.244-97.241C223.098,74.381,179.475,30.758,125.854,30.758z M117.167,81.5
	c10.31,0,18.667,6.119,18.667,13.667s-8.357,13.667-18.667,13.667S98.5,102.715,98.5,95.167S106.857,81.5,117.167,81.5z
	 M91.456,61.969l7.175,15.4c-2.222,1.642-4.147,3.588-5.708,5.763c-8.319-0.667-17.745-0.764-26.896,0.563
	C72.727,74.667,81.426,67.216,91.456,61.969z M125.854,202.482c-19.532,0-37.323-7.568-50.62-19.912
	c5.268-21.813,18.013-47.752,32.933-64.404c2.664,0.753,5.056,1.167,8,1.167c0.38,0,7.291-0.819,7.667-0.833l44.667,73
	C160.501,200.833,132.939,202.482,125.854,202.482z M141.559,85.7c-0.638-1.173-1.379-2.293-2.207-3.355
	c6.272-6.702,14.479-14.065,23.662-18.855c15.776,9.123,27.911,23.854,33.656,41.46C179.616,94.565,160.953,88.031,141.559,85.7z"/>
</svg>
