<?xml version="1.0" encoding="utf-8"?>
<!-- (c) mapshakers 2015, Licence: CC0 1.0 Universal, www.mapshakers.com  -->
<!DOCTYPE svg PUBLIC "-//W3C//DTD SVG 1.1//EN" "http://www.w3.org/Graphics/SVG/1.1/DTD/svg11.dtd">
<svg version="1.1" id="police" xmlns="http://www.w3.org/2000/svg" xmlns:xlink="http://www.w3.org/1999/xlink" x="0px" y="0px"
	 width="256px" height="256px" viewBox="0 0 256 256" style="enable-background:new 0 0 256 256;" xml:space="preserve">
<style type="text/css">
<![CDATA[
	.st0{fill:#D1D1D1;}
	.st1{fill:#454545;}
]]>
</style>
<path class="st0" d="M234.379,47.529l-19.193-33.965c-1.836-3.249-5.223-5.082-8.715-5.082c-1.602,0-3.227,0.386-4.733,1.198
	c-0.147,0.079-15.286,7.912-36.661,7.913c-11.084,0-21.986-2.083-32.407-6.193c-1.179-0.465-2.424-0.697-3.669-0.697
	s-2.49,0.232-3.669,0.697c-10.418,4.109-21.322,6.193-32.407,6.193c-21.43,0-36.546-7.852-36.66-7.912
	c-1.508-0.813-3.133-1.199-4.735-1.199c-3.492,0-6.878,1.833-8.714,5.082L23.621,47.529c-2.432,4.303-1.355,9.736,2.533,12.787
	c2.14,1.679,4.26,3.144,6.31,4.56c6.568,4.538,10.379,7.378,12.333,12.974c2.733,7.827,1.48,20.944-3.725,38.987
	c-20.828,72.208,18.782,89.813,47.703,102.669c17.375,7.721,28.14,13.008,30.44,23.912c0.976,4.625,5.058,7.936,9.785,7.936
	c4.727,0,8.809-3.311,9.785-7.936c2.301-10.904,13.065-16.191,30.439-23.912c28.922-12.855,68.531-30.461,47.703-102.669
	c-5.205-18.043-6.457-31.16-3.725-38.987c1.954-5.596,5.766-8.436,12.334-12.974c2.049-1.417,4.169-2.881,6.309-4.56
	C235.734,57.265,236.811,51.832,234.379,47.529z"/>
<g>
	<path class="st1" d="M146.242,87.143c-3.271-2.857-8.396-4.287-15.375-4.287h-11.625v35.78h8.409c7.859,0,13.74-1.552,17.643-4.658
		c3.901-3.104,5.853-7.626,5.853-13.562C151.147,94.426,149.512,90.001,146.242,87.143z"/>
	<path class="st1" d="M225.673,52.448l-19.193-33.965c0,0-35.123,18.924-77.479,2.218c-42.356,16.706-77.48-2.218-77.48-2.218
		L32.327,52.448c14.691,11.528,33.355,15.153,18.354,67.16C21.374,221.213,119.658,197.079,129,241.354
		c9.342-44.274,107.626-20.141,78.319-121.746C192.318,67.601,210.982,63.976,225.673,52.448z M164.792,129.271
		c-8.107,6.871-19.636,10.305-34.584,10.305h-10.965v42.87H93.686V61.916h38.5c14.619,0,25.734,3.147,33.348,9.439
		c7.611,6.294,11.418,15.678,11.418,28.154C176.952,112.48,172.898,122.4,164.792,129.271z"/>
</g>
</svg>
