<?xml version="1.0" encoding="utf-8"?>
<!-- (c) mapshakers 2015, Licence: CC0 1.0 Universal, www.mapshakers.com  -->
<!DOCTYPE svg PUBLIC "-//W3C//DTD SVG 1.1//EN" "http://www.w3.org/Graphics/SVG/1.1/DTD/svg11.dtd">
<svg version="1.1" id="pub" xmlns="http://www.w3.org/2000/svg" xmlns:xlink="http://www.w3.org/1999/xlink" x="0px" y="0px"
	 width="256px" height="256px" viewBox="0 0 256 256" style="enable-background:new 0 0 256 256;" xml:space="preserve">
<style type="text/css">
<![CDATA[
	.st0{fill:#D1D1D1;}
	.st1{fill:#454545;}
]]>
</style>
<path class="st0" d="M46.17,244.167c-5.523,0-10-4.478-10-10V116.891c-4.511-2.363-8.363-5.862-11.209-10.258
	c-4.356-6.726-5.831-14.746-4.155-22.582c0.125-0.584,0.302-1.155,0.529-1.707c0.042-0.105,5.091-12.727,3.892-23.855
	c-0.986-9.15,2.001-18.12,8.412-25.259c7.065-7.867,17.637-12.563,28.28-12.563c0.219,0,0.438,0.002,0.658,0.006
	c6.901-7.609,16.674-12.006,27.176-12.006c3.738,0,7.463,0.577,11.018,1.692c5.839-3.702,12.625-5.692,19.648-5.692
	c11.34,0,21.988,5.325,28.878,14.038c1.283-0.136,2.575-0.204,3.872-0.204c20.265,0,36.75,16.486,36.75,36.75
	c0,7-2.021,13.865-5.749,19.731v5.438h11.999c23.435,0,42.5,18.036,42.5,40.206v55.771c0,22.17-19.065,40.205-42.5,40.205H184.17
	v17.565c0,5.522-4.479,10-10,10H46.17z"/>
<path class="st1" d="M196.166,90.42h-21.999V72.166h-0.281c3.769-4.61,6.03-10.498,6.03-16.916c0-14.773-11.977-26.75-26.75-26.75
	c-3.007,0-5.895,0.503-8.594,1.418c-4.301-9.019-13.5-15.252-24.156-15.252c-7.007,0-13.383,2.698-18.152,7.107
	c-3.735-1.981-7.992-3.107-12.514-3.107c-9.537,0-17.903,4.995-22.64,12.508c-1.681-0.331-3.416-0.508-5.194-0.508
	c-14.773,0-28.333,12.062-26.75,26.75c1.5,13.917-4.584,28.727-4.584,28.727c-2.311,10.802,4.572,21.431,15.374,23.741l0.211,0.045
	v124.238h128v-27.565h21.999c17.921,0,32.5-13.55,32.5-30.205v-55.771C228.666,103.97,214.087,90.42,196.166,90.42z M81.576,196.691
	c0,5.194-4.212,9.408-9.409,9.408s-9.409-4.214-9.409-9.408v-96.492c0-5.196,4.212-9.409,9.409-9.409s9.409,4.212,9.409,9.409
	V196.691z M119.576,196.691c0,5.194-4.212,9.408-9.409,9.408s-9.409-4.214-9.409-9.408v-96.492c0-5.196,4.212-9.409,9.409-9.409
	s9.409,4.212,9.409,9.409V196.691z M156.575,196.691c0,5.194-4.214,9.408-9.409,9.408s-9.409-4.214-9.409-9.408v-96.492
	c0-5.196,4.214-9.409,9.409-9.409s9.409,4.212,9.409,9.409V196.691z M162.286,66.971c-0.724,0.891-1.119,2.004-1.119,3.153v3.042
	H84.221c-0.151-0.007-0.369-0.014-0.652-0.014c-3.009,0-11.038,0.743-20.578,7.626c-4.155,2.999-6.038,6.73-7.55,9.729
	c-1.958,3.883-2.426,4.614-5.589,4.614c-0.245,0-0.499-0.007-0.762-0.021c-2.409-0.843-6.921-8.557-6.49-11.138
	c0.114-0.287,0.855-1.276,1.396-1.999c2.758-3.682,7.375-9.845,6.084-21.821c-0.222-2.058,0.504-4.034,2.157-5.875
	C54.636,51.595,58.255,50,61.917,50c0.762,0,1.536,0.076,2.3,0.227l6.73,1.324c0.322,0.063,0.646,0.094,0.966,0.094
	c1.694,0,3.302-0.863,4.229-2.334l3.658-5.803C81.974,40.059,85.693,38,89.75,38c1.94,0,3.785,0.457,5.485,1.358l6.266,3.324
	c0.739,0.392,1.543,0.583,2.342,0.583c1.231,0,2.45-0.454,3.396-1.329l5.208-4.815c2.178-2.013,5.008-3.122,7.97-3.122
	c4.506,0,8.674,2.633,10.618,6.708l3.824,8.02c0.85,1.781,2.632,2.849,4.513,2.849c0.534,0,1.075-0.086,1.604-0.266l8.414-2.853
	c1.221-0.414,2.488-0.624,3.773-0.624c6.479,0,11.75,5.271,11.75,11.75C164.916,62.299,164.007,64.854,162.286,66.971z
	 M203.666,176.396c0,2.461-3.08,5.205-7.5,5.205h-21.999V115.42h21.999c4.42,0,7.5,2.743,7.5,5.205V176.396L203.666,176.396z"/>
</svg>
