<?xml version="1.0" encoding="utf-8"?>
<!-- (c) mapshakers 2016, Licence: CC0 1.0 Universal, www.mapshakers.com  -->
<!DOCTYPE svg PUBLIC "-//W3C//DTD SVG 1.1//EN" "http://www.w3.org/Graphics/SVG/1.1/DTD/svg11.dtd">
<svg version="1.1" id="pyramid" xmlns="http://www.w3.org/2000/svg" xmlns:xlink="http://www.w3.org/1999/xlink" x="0px" y="0px"
	 width="256px" height="256px" viewBox="0 0 256 256" style="enable-background:new 0 0 256 256;" xml:space="preserve">
<style type="text/css">
<![CDATA[
	.st0{fill:#464646;}
	.st1{fill:#D1D1D1;}
]]>
</style>
<path class="st1" d="M17.998,240c-3.859,0-7.403-2.126-9.22-5.53c-1.817-3.401-1.611-7.53,0.536-10.737L119.316,59.469
	c1.94-2.896,5.198-4.636,8.684-4.636c3.486,0,6.743,1.739,8.684,4.636l110.004,164.264c2.146,3.205,2.354,7.334,0.535,10.736
	c-1.816,3.404-5.361,5.53-9.22,5.53L17.998,240L17.998,240z"/>
<g>
	<path class="st0" d="M110.058,194.885v-20.082h0.001c0-1.453-1.189-2.643-2.643-2.643H68.108c-1.454,0-2.643,1.189-2.643,2.643
		v20.082c0,1.453,1.189,2.643,2.643,2.643h39.307C108.869,197.527,110.058,196.339,110.058,194.885z"/>
	<path class="st0" d="M64.641,163.843h33.716c1.454,0,2.643-1.188,2.643-2.643v-18.974c0-1.453-1.189-2.643-2.643-2.643H80.886
		c-1.454,0-3.305,0.988-4.114,2.196l-13.303,19.866C62.66,162.855,63.188,163.843,64.641,163.843z"/>
	<path class="st0" d="M86.455,131.27h40.818c1.454,0,2.643-1.189,2.643-2.644v-18.835h0.001c0-1.454-1.188-2.643-2.643-2.643
		h-24.666c-1.454,0-3.305,0.988-4.114,2.196l-13.211,19.729C84.474,130.281,85.002,131.27,86.455,131.27z"/>
	<path class="st0" d="M160.227,142.229v18.973c0,1.453,1.189,2.643,2.644,2.643h28.489c1.453,0,1.98-0.988,1.173-2.195
		l-13.306-19.867c-0.809-1.208-2.66-2.196-4.113-2.196H162.87C161.417,139.585,160.227,140.773,160.227,142.229z"/>
	<path class="st0" d="M114.094,139.584c-1.454,0-2.643,1.189-2.643,2.643v18.976c0,1.453,1.189,2.644,2.643,2.644h33.037
		c1.453,0,2.643-1.189,2.643-2.644v-18.976c0-1.453-1.188-2.643-2.643-2.643H114.094z"/>
	<path class="st0" d="M176.252,174.805v20.08c0,1.453,1.189,2.643,2.643,2.643h35.021c1.453,0,1.98-0.987,1.172-2.195
		l-14.046-20.975c-0.81-1.209-2.66-2.196-4.112-2.196h-18.035C177.441,172.161,176.252,173.35,176.252,174.805z"/>
	<path class="st0" d="M42.084,197.525h10.287v0.002c1.454,0,2.643-1.189,2.643-2.644v-17.969c0-1.453-0.662-1.654-1.471-0.446
		L40.912,195.33C40.103,196.538,40.631,197.525,42.084,197.525z"/>
	<path class="st0" d="M178.139,205.845h-42.793c-1.453,0-2.643,1.189-2.643,2.644v18.419c0,1.452,1.189,2.643,2.643,2.643h42.793
		c1.452,0,2.643-1.188,2.643-2.643v-18.419C180.781,207.035,179.592,205.845,178.139,205.845z"/>
	<path class="st0" d="M236.533,227.354L223.6,208.041c-0.809-1.208-2.66-2.196-4.113-2.196h-25.611
		c-1.453,0-2.643,1.189-2.643,2.644v18.419c0,1.452,1.188,2.643,2.643,2.643h41.486C236.814,229.55,237.341,228.563,236.533,227.354
		z"/>
	<path class="st0" d="M119.609,205.845H79.431c-1.454,0-2.643,1.189-2.643,2.644v18.419c0,1.452,1.189,2.643,2.643,2.643h40.178
		c1.454,0,2.643-1.188,2.643-2.643v-18.419C122.252,207.035,121.063,205.845,119.609,205.845z"/>
	<path class="st0" d="M140.368,109.791v18.835c0,1.453,1.188,2.644,2.644,2.644h26.532c1.453,0,1.979-0.988,1.172-2.196
		l-13.211-19.729c-0.81-1.208-2.659-2.196-4.112-2.196h-10.381C141.559,107.148,140.368,108.337,140.368,109.791z"/>
	<path class="st0" d="M165.8,194.885v-20.082c0-1.453-1.188-2.643-2.643-2.643h-40.004c-1.454,0-2.643,1.189-2.643,2.643v20.082
		c0,1.453,1.189,2.643,2.643,2.643h40.004C164.609,197.527,165.8,196.339,165.8,194.885z"/>
	<path class="st0" d="M63.692,205.844H36.514v0.001c-1.454,0-3.305,0.988-4.114,2.196l-12.932,19.313
		c-0.809,1.207-0.281,2.195,1.172,2.195h43.052c1.454,0,2.643-1.189,2.643-2.643v-18.42
		C66.335,207.034,65.146,205.844,63.692,205.844z"/>
	<path class="st0" d="M108.179,98.831h39.643c1.453,0,1.98-0.988,1.172-2.196l-19.523-29.154c-0.809-1.208-2.132-1.208-2.941,0
		l-19.523,29.154C106.198,97.843,106.726,98.831,108.179,98.831z"/>
</g>
</svg>
