<?xml version="1.0" encoding="utf-8"?>
<!-- (c) mapshakers 2015, Licence: CC0 1.0 Universal, www.mapshakers.com  -->
<!DOCTYPE svg PUBLIC "-//W3C//DTD SVG 1.1//EN" "http://www.w3.org/Graphics/SVG/1.1/DTD/svg11.dtd">
<svg version="1.1" id="restaurant" xmlns="http://www.w3.org/2000/svg" xmlns:xlink="http://www.w3.org/1999/xlink" x="0px" y="0px"
	 width="256px" height="256px" viewBox="0 0 256 256" style="enable-background:new 0 0 256 256;" xml:space="preserve">
<style type="text/css">
<![CDATA[
	.st0{fill:#D1D1D1;}
	.st1{fill:#454545;}
]]>
</style>
<path class="st0" d="M109.71,95.267c9.912-7.071,15.701-19.832,15.701-35.105c0-5.483-4.524-35.145-5.998-44.662
	c-0.146-1.799-0.073-3.273-0.073-3.274c0.211-3.638-1.66-7.08-4.827-8.882c-1.473-0.838-3.108-1.254-4.739-1.254
	c-1.875,0-3.747,0.55-5.362,1.641c-0.096,0.064-0.221,0.151-0.371,0.259c-1.682-1.255-3.699-1.9-5.73-1.9
	c-1.698,0-3.407,0.451-4.939,1.373c-0.399,0.24-0.981,0.615-1.656,1.124c-0.646-0.491-1.205-0.854-1.589-1.09
	c-1.544-0.944-3.274-1.406-4.995-1.406c-2.082,0-4.15,0.677-5.858,1.997c-0.298-0.211-0.558-0.383-0.766-0.514
	c-1.559-0.985-3.336-1.483-5.121-1.483c-1.482,0-2.968,0.344-4.334,1.036c-3.011,1.527-4.995,4.525-5.226,7.892
	c-0.003,0.042-0.138,2.007-0.359,4.46c-1.471,9.494-6.001,39.196-6.001,44.683c0,15.827,6.112,28.803,16.579,35.718
	c0.905,3.336,1.826,6.774,1.455,9.347c-2.874,19.914-4.457,50.496-4.457,86.112c0,22.751,0.651,37.298,2.048,45.779
	c0.686,4.166,2.774,16.842,14.398,16.842c1.673,0,3.1-0.313,4.043-0.518c0.083-0.02,0.167-0.039,0.252-0.058
	c0.084,0.019,0.169,0.038,0.252,0.058c1,0.218,2.369,0.518,4.041,0.518c0.001,0,0.002,0,0.003,0c11.623,0,13.71-12.675,14.396-16.84
	c1.397-8.48,2.047-23.028,2.047-45.781c0-35.57-1.579-66.127-4.446-86.043c-0.377-2.618,0.572-6.117,1.489-9.5
	C109.615,95.62,109.663,95.444,109.71,95.267z"/>
<path class="st0" d="M183.071,116.777c6.153-7.975,12.047-19.572,10.693-65.125c-1.021-34.406-33.094-46.816-34.459-47.328
	c-1.091-0.409-2.229-0.609-3.361-0.609c-1.925,0-3.833,0.579-5.458,1.706c-2.582,1.788-4.124,4.729-4.126,7.871
	c-0.002,3.429-0.055,82.859-0.002,89.99c-3.561,81.491-4.65,123.456-1.231,141.449c1.786,9.395,9.324,9.87,10.817,9.87
	c1.559,0,2.822-0.32,3.744-0.555c0.76-0.193,1.261-0.321,2.063-0.321c0.867,0,1.903,0.156,3.082,0.464
	c0.925,0.241,1.875,0.363,2.825,0.364c0.003,0,0.006,0,0.009,0c6.262,0,10.662-4.39,13.077-13.049
	c1.286-4.608,2.316-11.016,3.149-19.585c1.598-16.431,2.407-40.435,2.407-71.347c0-22.577-1.787-28.581-3.791-33.058
	C182.68,117.285,182.895,117.006,183.071,116.777z"/>
<g>
	<path class="st1" d="M102.942,191.339c0,62.693-4.995,52.411-11.158,52.411c-6.162,0-11.158,10.282-11.158-52.411
		c0-36.655,1.708-66.378,4.358-84.743c1.883-13.045-11.936-26.813,6.8-26.813c18.765,0,4.925,13.793,6.81,26.879
		C101.238,125.032,102.942,154.726,102.942,191.339z"/>
	<path class="st1" d="M109.894,16.647c-0.25-2.736-0.12-4.975-0.12-4.975s-3.333,2.25-3.333,5l1.667,40.246c0,2.75-1.441,5-3.203,5
		c-1.761,0-3.201-2.25-3.201-5l-1.026-40.246c0-2.75-2.364-5-2.364-5s-3.738,2.25-3.738,5l0.348,40.246c0,2.75-1.44,5-3.201,5
		s-3.202-2.25-3.202-5l0.292-40.246c0-2.75-3.682-5-3.682-5s-2.42,2.25-2.42,5l-0.971,40.246c0,2.75-1.44,5-3.201,5
		c-1.761,0-3.202-2.25-3.202-5l1.611-40.246c0-2.75-3.56-5-3.56-5s-0.153,2.239-0.403,4.975c0,0-5.935,38.275-5.935,43.515
		c0,19.667,10.919,31.347,24.39,31.347c13.47,0,24.39-11.68,24.39-31.347C115.829,54.922,109.894,16.647,109.894,16.647z"/>
</g>
<path class="st1" d="M167.251,244.915c6.028,1.572,9.468-30.97,9.468-94.344c0-32.546-3.856-26.753-3.856-33.075
	c0-11.007,13.242-1.005,11.325-65.56c-0.843-28.371-28.244-38.639-28.244-38.639s-0.058,85.204,0,90.149
	c-3.139,71.805-4.843,121.389-1.402,139.493C155.467,247.807,156.948,242.227,167.251,244.915z"/>
</svg>
