<?xml version="1.0" encoding="utf-8"?>
<!-- (c) mapshakers 2015, Licence: CC0 1.0 Universal, www.mapshakers.com  -->
<!DOCTYPE svg PUBLIC "-//W3C//DTD SVG 1.1//EN" "http://www.w3.org/Graphics/SVG/1.1/DTD/svg11.dtd">
<svg version="1.1" id="rocks" xmlns="http://www.w3.org/2000/svg" xmlns:xlink="http://www.w3.org/1999/xlink" x="0px" y="0px"
	 width="256px" height="256px" viewBox="0 0 256 256" style="enable-background:new 0 0 256 256;" xml:space="preserve">
<style type="text/css">
<![CDATA[
	.st0{fill:#D1D1D1;}
	.st1{fill:#454545;}
]]>
</style>
<g>
	<path class="st0" d="M37.088,245.471c-6.829,0-12.933-2.888-16.745-7.922c-3.813-5.034-4.937-11.691-3.085-18.265L70.436,30.463
		c3.318-11.78,10.998-13.052,14.146-13.052c3.436,0,9.834,1.434,14.087,11.04l21.165,47.799l10.185-24.419
		c4.302-10.314,11.525-11.427,14.431-11.427c3.003,0,10.423,1.164,14.476,11.94l16.887,44.912l9.71-10.014
		c5.07-5.229,10.176-6.326,13.565-6.326c7.82,0,14.216,5.724,16.294,14.582l29.112,124.058c1.54,6.564,0.173,13.169-3.752,18.122
		c-3.925,4.952-10.043,7.792-16.785,7.792H37.088z"/>
</g>
<g>
	<path class="st1" d="M234.758,221.841c1.759,7.496-3.102,13.63-10.802,13.63H37.088c-7.7,0-12.292-6.064-10.205-13.476
		L80.062,33.174c2.087-7.412,6.346-7.715,9.463-0.674l24.915,56.27c3.117,7.041,8.093,6.987,11.057-0.12l13.751-32.968
		c2.964-7.107,7.606-7.024,10.316,0.183l17.514,46.579c2.71,7.207,9.313,8.581,14.674,3.053l10.949-11.292
		c5.36-5.528,11.186-3.917,12.944,3.579L234.758,221.841z M69.108,190.02c-2.087,7.411,2.504,13.476,10.205,13.476h104.296
		c7.7,0,12.561-6.134,10.802-13.63l-6.529-27.827c-1.759-7.496-7.584-9.107-12.944-3.58l-5.354,5.521
		c-5.36,5.527-11.963,4.153-14.673-3.055l-6.883-18.305c-2.711-7.208-7.353-7.29-10.316-0.184l-11.334,27.176
		c-2.964,7.106-7.94,7.16-11.057,0.12l-19.085-43.103c-3.117-7.041-7.376-6.737-9.463,0.674L69.108,190.02z"/>
</g>
</svg>
