<?xml version="1.0" encoding="utf-8"?>
<!-- (c) mapshakers 2015, Licence: CC0 1.0 Universal, www.mapshakers.com  -->
<!DOCTYPE svg PUBLIC "-//W3C//DTD SVG 1.1//EN" "http://www.w3.org/Graphics/SVG/1.1/DTD/svg11.dtd">
<svg version="1.1" id="sailboat" xmlns="http://www.w3.org/2000/svg" xmlns:xlink="http://www.w3.org/1999/xlink" x="0px" y="0px"
	 width="256px" height="256px" viewBox="0 0 256 256" style="enable-background:new 0 0 256 256;" xml:space="preserve">
<style type="text/css">
<![CDATA[
	.st0{fill:#464646;}
	.st1{fill:#D1D1D1;}
]]>
</style>
<path class="st1" d="M48.978,249.887c-8.569,0-17.09-5.277-20.721-12.836L7.881,194.607c-2.54-5.289-2.379-10.896,0.442-15.381
	c2.822-4.486,7.807-7.061,13.677-7.061h1.321c-3.567-4.139-3.571-9.413-3.495-12.257c-0.19-4.99-0.786-44.288,24.905-84.617
	c29.044-45.582,66.651-61.321,68.238-61.968l0.643-0.268c2.022-0.845,4.113-1.719,6.725-1.719c1.86,0,11.144,0.646,11.144,13.402
	v49.482c2.273-1.021,4.367-1.087,4.859-1.087c2.307,0,4.408,0.643,6.18,1.298c3.121,1.034,25.817,9.155,47.723,33.278
	c21.266,23.417,26.56,45.868,27.314,49.567c1.217,4.779,0.59,8.834-1.867,12.057c-0.629,0.824-1.635,1.898-3.105,2.832h28.75
	c10.064,0,13.053,6.408,13.729,8.373c0.676,1.964,2.266,8.854-5.666,15.048l-38.313,29.921c-5.398,4.217-14.261,7.835-21.07,8.604
	L51.23,249.762C50.492,249.846,49.734,249.887,48.978,249.887z"/>
<path class="st0" d="M204.927,217.627c-3.899,3.046-11.116,5.993-16.036,6.548L50.11,239.824
	c-4.919,0.555-10.696-2.643-12.839-7.104l-20.375-42.441c-2.143-4.461,0.154-8.112,5.104-8.112h219.333
	c4.95,0,5.808,2.493,1.907,5.539L204.927,217.627z M29.833,159.834c-0.13,4.404,0.284,7.063,4.691,7.063h78.943
	c4.407,0,8.013-3.604,8.013-8.013V24.74c0-4.407-0.658-3.84-4.731-2.157c0,0-35.915,14.66-63.583,58.083
	C27.671,120.687,29.833,159.834,29.833,159.834z M207.805,159.52c0.725,2.644,0.668,4.701-2.82,4.701h-63.883
	c-3.488,0-6.343-2.854-6.343-6.343V86.582c0-3.489,0.472-4.205,4.464-2.705c0,0,22.102,6.863,43.615,30.557
	C203.938,137.669,207.805,159.52,207.805,159.52z"/>
</svg>
