<?xml version="1.0" encoding="utf-8"?>
<!-- (c) mapshakers 2015, Licence: CC0 1.0 Universal, www.mapshakers.com  -->
<!DOCTYPE svg PUBLIC "-//W3C//DTD SVG 1.1//EN" "http://www.w3.org/Graphics/SVG/1.1/DTD/svg11.dtd">
<svg version="1.1" id="school" xmlns="http://www.w3.org/2000/svg" xmlns:xlink="http://www.w3.org/1999/xlink" x="0px" y="0px"
	 width="256px" height="256px" viewBox="0 0 256 256" style="enable-background:new 0 0 256 256;" xml:space="preserve">
<style type="text/css">
<![CDATA[
	.st0{fill:#464646;}
	.st1{fill:#D1D1D1;}
]]>
</style>
<path class="st1" d="M208.525,88.463c4.998-17.362-0.194-49.09-0.816-52.725c-0.48-2.812-2.139-5.284-4.558-6.795
	c-1.604-1.003-3.443-1.52-5.299-1.52c-0.94,0-1.885,0.133-2.806,0.401c-0.4,0.117-8.784,2.58-19.267,6.552
	c-14.01-7.708-31.106-11.911-48.739-11.911c-17.649,0-34.758,4.209-48.773,11.93c-10.505-3.983-18.916-6.453-19.317-6.57
	c-0.92-0.269-1.865-0.401-2.805-0.401c-1.856,0-3.695,0.517-5.3,1.52c-2.418,1.511-4.077,3.983-4.557,6.794
	c-0.631,3.694-5.896,35.9-0.672,53.194c1.318,11.168,6.695,21.781,15.438,30.693c-14.562,23.001-13.113,58.694-11.128,70.785
	c0.591,3.602,1.58,9.629,6.97,12.297c1.7,0.84,3.534,1.266,5.452,1.266c2.532,0,4.676-0.739,6.59-1.594
	c3.897,9.679,9.525,18.294,16.579,25.315c0.681,10.298,6.734,17.583,14.9,17.583c2.426,0,4.655-0.662,6.624-1.836
	c1.968,1.174,4.197,1.836,6.623,1.836c1.329,0,2.593-0.215,3.796-0.582c0.181,0.041,0.358,0.095,0.543,0.125
	c3.024,0.498,6.063,0.75,9.03,0.75c3.171,0,6.389-0.282,9.563-0.84c0.113-0.02,0.221-0.057,0.332-0.08
	c1.246,0.396,2.56,0.627,3.941,0.627c2.426,0,4.655-0.662,6.624-1.836c1.968,1.174,4.197,1.836,6.623,1.836
	c8.287,0,14.389-7.508,14.916-18.049c6.09-6.189,11.129-13.65,14.857-21.96c1.701,0.694,3.588,1.238,5.76,1.238
	c1.921,0,3.759-0.428,5.457-1.269c5.094-2.52,6.294-7.829,7.086-13.05c1.982-13.062,3.049-47.866-11.434-70.349
	C201.005,112.385,207.197,100.838,208.525,88.463z"/>
<circle class="st0" cx="95.012" cy="83.46" r="12.514"/>
<circle class="st0" cx="160.311" cy="83.46" r="12.513"/>
<path class="st0" d="M132.555,224.715c-1.795,0.475-3.639,0.734-5.521,0.734c-1.718,0-3.404-0.207-5.05-0.604
	c0.012,0.297,0.027,0.594,0.027,0.898c0,3.676-0.896,6.9-2.384,9.209c2.422,0.398,4.894,0.617,7.407,0.617
	c2.662,0,5.275-0.24,7.834-0.689c-1.463-2.303-2.344-5.496-2.344-9.137C132.523,225.395,132.539,225.055,132.555,224.715z"/>
<path class="st0" d="M198.667,86.506c4.979-15.206-0.814-49.083-0.814-49.083s-10.743,3.14-22.974,8.034
	c-12.696-8.076-29.457-12.992-47.838-12.992c-18.397,0-35.171,4.925-47.871,13.013c-12.251-4.906-23.024-8.055-23.024-8.055
	s-5.882,34.404-0.693,49.431c1.126,12.161,8.247,23.152,19.289,31.504c-21.314,21.298-16.255,73.978-13.414,75.384
	c2.43,1.201,5.704-2.582,13.823-4.494c3.177,12.498,9.367,23.391,17.532,31.475c1.217-4.721,4.141-7.891,7.735-7.891
	c2.765,0,5.128,1.881,6.629,4.896c0.308-0.615,0.645-1.191,1.021-1.705c-8.282-9.18-13.686-24.201-13.686-41.188
	c0-27.953,14.619-32.172,32.652-32.172s32.651,4.219,32.651,32.172c0,16.807-5.288,31.693-13.423,40.898
	c0.459,0.584,0.868,1.254,1.232,1.982c1.5-3.008,3.861-4.885,6.623-4.885c3.504,0,6.368,3.016,7.637,7.543
	c7.358-7.42,13.07-17.148,16.37-28.268c7.195,1.982,10.25,5.307,12.549,4.168c2.866-1.418,7.995-55.033-13.984-75.95l-0.224,0.086
	C189.25,111.775,197.561,99.833,198.667,86.506z M95.012,109.519c-14.393,0-26.059-11.667-26.059-26.06
	c0-14.392,11.667-26.059,26.059-26.059c14.392,0,26.059,11.667,26.059,26.059C121.071,97.852,109.404,109.519,95.012,109.519z
	 M138.77,120.729l-8.69,11.604c-1.671,2.23-4.406,2.23-6.077,0l-8.69-11.604c-1.671-2.231-1.318-5.554,0.785-7.384l7.122-6.2
	c2.102-1.83,5.543-1.83,7.645,0l7.121,6.2C140.088,115.174,140.44,118.498,138.77,120.729z M160.112,109.519
	c-14.392,0-26.06-11.667-26.06-26.06c0-14.392,11.668-26.059,26.06-26.059s26.06,11.667,26.06,26.059
	C186.172,97.852,174.504,109.519,160.112,109.519z"/>
<ellipse class="st0" cx="113.664" cy="225.744" rx="4.968" ry="9.533"/>
<ellipse class="st0" cx="100.417" cy="225.744" rx="4.968" ry="9.533"/>
<ellipse class="st0" cx="154.117" cy="225.744" rx="4.968" ry="9.533"/>
<ellipse class="st0" cx="140.87" cy="225.744" rx="4.968" ry="9.533"/>
</svg>
