<?xml version="1.0" encoding="utf-8"?>
<!-- (c) mapshakers 2015, Licence: CC0 1.0 Universal, www.mapshakers.com  -->
<!DOCTYPE svg PUBLIC "-//W3C//DTD SVG 1.1//EN" "http://www.w3.org/Graphics/SVG/1.1/DTD/svg11.dtd">
<svg version="1.1" id="sinkhole" xmlns="http://www.w3.org/2000/svg" xmlns:xlink="http://www.w3.org/1999/xlink" x="0px" y="0px"
	 width="256px" height="256px" viewBox="0 0 256 256" style="enable-background:new 0 0 256 256;" xml:space="preserve">
<style type="text/css">
<![CDATA[
	.st0{fill:#D1D1D1;}
	.st1{fill:#454545;}
]]>
</style>
<g>
	<path class="st0" d="M235.858,94.702c-4.319,0-7.952,2.503-10.803,7.44l-42.396,73.444c-0.048-0.521-0.097-1.016-0.145-1.464
		l-0.911-8.383c-0.352-3.24,0.697-9.298,2.117-12.23l3.713-7.664c1.718-3.547,5.82-9.314,8.607-12.103l8.375-8.376
		c0.284-0.283,6.948-6.956,8.915-9.699c2.646-3.693,4.32-14.56,4.771-17.805l0.571-4.118c0.063-0.455,0.873-1.16,1.332-1.16h3.846
		c9.991,0,18.117-8.127,18.117-18.118v-6.341c0-9.99-8.126-18.118-18.117-18.118h-14.493c-5.367,0-13.292,0.995-18.056,2.896
		c-9.907,3.956-13.309,24.233-13.337,24.437l-1.472,10.602c-0.417,3.01-2.936,8.071-5.085,10.219l-6.934,6.934
		c-0.682,0.681-6.689,6.695-7.802,8.008c-0.442,0.524-1.618,1.915-6.658,12.324l-6.145,12.684
		c-0.171,0.356-4.237,8.763-5.123,11.524c-1.119,3.496-0.387,12.286,0.15,17.215l0.579,5.338c0.127,1.167-0.354,2.945-1.084,4.451
		l-9.658-48.526c-0.668-3.355-2.225-10.436-3.338-13.229c-1.925-4.828-11.621-12.431-13.546-13.907l-8.849-6.784
		c-2.073-1.589-4.661-6.003-5.036-8.587l-1.218-8.399c-0.77-5.308-2.88-12.996-5.425-17.42c-5.296-9.204-25.797-9.779-26.001-9.779
		H33.618c-9.99,0-18.118,8.128-18.118,18.118v6.341c0,9.99,8.127,18.118,18.118,18.118l10.097,0.001L21.093,132.89
		c-3.188,5.683-5.593,14.879-5.593,21.393v18.899c0,10.392,6.654,13.164,10.585,13.164c4.352,0,7.988-2.548,10.807-7.572
		l32.081-57.158c1.626,1.359,3.132,2.539,4.176,3.34c0,0,9.855,7.556,10.192,7.814c-0.208,0.371-49.642,88.45-49.642,88.45
		c-2.778,4.95-2.919,10.268-0.387,14.591c2.531,4.323,7.237,6.801,12.912,6.801h2.658c8.323,0,17.32-5.268,21.393-12.524
		l26.093-46.489l4.161,20.908c0.552,2.773-0.296,8.114-1.681,10.581l-3.442,6.133c-2.777,4.95-2.919,10.268-0.388,14.591
		s7.237,6.801,12.913,6.801c0,0,1.998,0.075,2.659,0c5.491-0.618,16.214-3.704,21.326-5.801c3.791-1.556,9.57-6.423,13.309-9.524
		l14.571-12.091l-3.455,5.984c-2.848,4.935-3.044,10.256-0.535,14.598c2.508,4.344,7.213,6.834,12.912,6.834h2.801
		c8.28,0,17.293-5.204,21.432-12.374l47.798-82.8c3.273-5.671,5.741-14.885,5.741-21.433v-18.121
		C246.488,97.478,239.807,94.702,235.858,94.702z"/>
	<path class="st0" d="M235.903,192.428c-4.352,0-7.987,2.548-10.808,7.572l-11.909,21.22c-2.777,4.949-2.919,10.267-0.389,14.591
		c2.531,4.322,7.239,6.801,12.913,6.801h2.66c9.99,0,18.117-8.127,18.117-18.117v-18.9
		C246.488,195.201,239.835,192.428,235.903,192.428z"/>
</g>
<g>
	<path class="st1" d="M223.852,59.066h-14.493c-4.983,0-11.596,1.013-14.696,2.25c-3.1,1.237-7.037,12.334-7.723,17.269
		l-1.473,10.603c-0.685,4.936-4.129,11.855-7.651,15.378l-6.935,6.935c-3.523,3.523-6.802,6.875-7.287,7.449
		c-0.485,0.573-3.254,5.941-5.426,10.425l-6.144,12.683c-2.172,4.484-4.263,9.137-4.648,10.338
		c-0.385,1.202-0.011,8.521,0.527,13.474l0.58,5.338c0.538,4.953-2.158,11.609-5.993,14.791l-1.825,1.517
		c-3.834,3.181-7.28,5.611-7.658,5.397c-0.378-0.212-1.483-4.383-2.455-9.271l-10.702-53.761
		c-0.972-4.887-2.263-10.125-2.867-11.641c-0.604-1.516-6.689-7.042-10.644-10.074l-8.85-6.784
		c-3.954-3.032-7.774-9.546-8.488-14.477l-1.218-8.398c-0.715-4.931-2.655-11.322-4.313-14.203
		c-1.657-2.88-13.166-5.237-18.148-5.237H33.618c-4.982,0-9.059,4.076-9.059,9.059v6.341c0,4.982,4.077,9.059,9.059,9.059h16.51
		c4.982,0,7.063,3.555,4.625,7.9l-25.76,45.897c-2.438,4.347-4.434,11.978-4.434,16.96v18.899c0,4.981,1.996,5.504,4.434,1.158
		l33.822-60.261c2.438-4.344,4.93-6.881,5.536-5.635c0.606,1.245,6.355,6.29,10.309,9.322l9.144,7.01
		c3.954,3.031,7.197,5.549,7.206,5.597c0.01,0.047-1.978,3.64-4.417,7.984l-48.995,87.296c-2.439,4.346-0.357,7.9,4.625,7.9h2.658
		c4.982,0,11.055-3.555,13.493-7.9l33.658-59.969c2.439-4.346,5.229-3.901,6.203,0.984l7.178,36.067
		c0.973,4.888-0.227,12.439-2.666,16.784l-3.442,6.133c-2.438,4.346-0.357,7.9,4.625,7.9c0,0,1.994,0.027,2.659,0
		c9.993-0.407,16.879-4.636,16.879-4.636c2.751-1.549,8.138-5.421,11.971-8.603l23.73-19.692
		c3.834-3.182,10.396-10.23,10.724-12.462c0.327-2.229,0.155-8.107-0.384-13.062l-0.911-8.381
		c-0.538-4.953,0.799-12.675,2.97-17.159l3.713-7.664c2.173-4.484,6.832-11.035,10.354-14.559l8.377-8.376
		c3.523-3.523,7.103-7.379,7.955-8.569c0.853-1.19,2.478-8.839,3.162-13.773l0.572-4.12c0.686-4.935,5.323-8.973,10.305-8.973h3.846
		c4.983,0,9.06-4.076,9.06-9.059v-6.341C232.911,63.143,228.835,59.066,223.852,59.066z"/>
	<g>
		<path class="st1" d="M164.186,225.708c-2.489,4.315-0.452,7.846,4.531,7.846h2.801c4.981,0,11.097-3.53,13.587-7.846l47.797-82.8
			c2.49-4.314,4.527-11.921,4.527-16.903v-18.121c0-4.982-2.037-5.528-4.527-1.213L164.186,225.708z"/>
	</g>
	<g>
		<path class="st1" d="M228.371,233.554c4.981,0,9.058-4.077,9.058-9.06v-18.9c0-4.983-1.994-5.505-4.434-1.16l-11.908,21.22
			c-2.439,4.346-0.357,7.9,4.624,7.9H228.371z"/>
	</g>
</g>
</svg>
