<?xml version="1.0" encoding="utf-8"?>
<!-- (c) mapshakers 2015, Licence: CC0 1.0 Universal, www.mapshakers.com  -->
<!DOCTYPE svg PUBLIC "-//W3C//DTD SVG 1.1//EN" "http://www.w3.org/Graphics/SVG/1.1/DTD/svg11.dtd">
<svg version="1.1" id="smoking" xmlns="http://www.w3.org/2000/svg" xmlns:xlink="http://www.w3.org/1999/xlink" x="0px" y="0px"
	 width="256px" height="256px" viewBox="0 0 256 256" style="enable-background:new 0 0 256 256;" xml:space="preserve">
<style type="text/css">
<![CDATA[
	.st0{fill:#464646;}
	.st1{fill:#D1D1D1;}
]]>
</style>
<path class="st1" d="M242.943,170.634c0.551-1.041,0.922-2.188,1.076-3.401c1.908-14.928,3.039-44.097-10.836-71.744
	C215.919,61.087,181.947,40.204,132.21,33.42c-1.069-0.146-1.623-0.188-2.39-0.223c-0.489-0.021-1.021-0.038-1.574-0.038
	c-3.865,0-6.998,0.846-9.577,2.588c-0.415,0.28-0.807,0.59-1.175,0.929c-2.153,1.981-3.413,4.789-3.456,7.673
	c-0.05,2.822,0.839,5.319,2.649,7.431c1.21,1.442,2.803,2.514,4.597,3.091c39.854,12.827,67.702,40,76.86,52.577
	c1.223,1.68,2.42,3.416,3.59,5.197c-3.035-2.449-6.242-4.667-9.616-6.65c-10.39-6.1-21.392-9.844-30.784-12.702
	c-19.591-5.96-35.974-12.963-50.083-21.407C95.828,62.65,83.897,52.671,74.772,41.375c-4.616-5.711-8.489-12.083-12.59-18.83
	l-1.284-2.11c-2.469-4.05-6.566-7.254-10.961-8.572c-0.942-0.282-1.909-0.421-2.871-0.421c-2.03,0-4.038,0.619-5.739,1.81
	c-2.506,1.756-4.07,4.562-4.245,7.617c-0.822,14.315,0.927,27.264,5.347,39.59c3.348,9.322,7.471,16.979,12.606,23.41
	c11.193,14.014,26.212,23.815,44.64,29.132c10.243,2.955,20.731,5.14,30.875,7.253c3.032,0.632,6.063,1.263,9.091,1.915
	c18.248,3.93,32.188,9.07,43.873,16.177c11.365,6.909,19.959,15.688,26.244,26.816H19.315c-7.082,0-12.844,5.762-12.844,12.844
	v32.983c0,7.081,5.762,12.844,12.844,12.844h191.396c3.316,0,6.344-1.265,8.624-3.334h4.589c1.143,0,2.248-0.151,3.299-0.435
	c1.049,0.283,2.155,0.435,3.297,0.435h5.404c6.78,0,12.297-5.339,12.297-11.899v-28.201
	C248.221,176.359,246.132,172.786,242.943,170.634z"/>
<path class="st0" d="M210.711,175.163H19.315c-1.564,0-2.844,1.28-2.844,2.844v32.983c0,1.564,1.28,2.844,2.844,2.844h191.396
	c1.564,0,2.844-1.279,2.844-2.844v-32.983C213.555,176.441,212.275,175.163,210.711,175.163z M204.221,201.309
	c0,1.33-1.088,2.418-2.416,2.418H80.917c-1.329,0-2.417-1.088-2.417-2.418v-13.619c0-1.33,1.087-2.418,2.417-2.418h120.888
	c1.328,0,2.416,1.088,2.416,2.418V201.309z M226.221,208.6c0,1.045-1.033,1.9-2.297,1.9h-5.404c-1.264,0-2.297-0.855-2.297-1.9
	v-28.201c0-1.047,1.033-1.898,2.297-1.898h5.404c1.264,0,2.297,0.854,2.297,1.898V208.6z M238.221,208.6
	c0,1.045-1.033,1.9-2.297,1.9h-5.404c-1.264,0-2.297-0.855-2.297-1.9v-28.201c0-1.047,1.033-1.898,2.297-1.898h5.404
	c1.264,0,2.297,0.854,2.297,1.898V208.6z M222.016,164.602c0.203-0.396,0.43-0.775,0.646-1.17
	c-1.829-6.091-4.148-11.959-7.02-17.578c-6.729-13.176-15.99-23.833-28.588-31.233c-8.955-5.258-18.699-8.736-28.632-11.758
	c-18.313-5.572-35.928-12.59-52.311-22.395c-14.77-8.845-28.186-19.27-39.119-32.805c-5.548-6.865-10.009-14.434-14.635-22.021
	c-1.389-2.278-3.594-3.688-5.293-4.197c-0.708,12.337,0.681,24.221,4.775,35.637c2.694,7.503,6.142,14.455,11.008,20.549
	c10.344,12.95,23.917,21.24,39.599,25.765c12.859,3.71,26.149,6.167,39.298,9c16.585,3.572,32.521,8.624,46.963,17.408
	c12.726,7.735,22.922,18.018,30.229,31.29c0.869,1.581,1.687,3.207,2.502,4.875C221.602,165.507,221.785,165.055,222.016,164.602z
	 M234.102,165.963c3.476-27.179,4.66-107.917-103.246-122.636c-0.746-0.102-0.984-0.118-1.479-0.14
	c-1.567-0.07-3.732-0.084-5.111,0.847c-0.116,0.107-0.226,0.294-0.229,0.493c-0.009,0.52,0.122,0.595,0.311,0.825
	c42.714,13.747,71.911,42.517,81.88,56.21c14.483,19.892,24.631,45.093,26.461,62.62C233.202,164.73,233.672,165.33,234.102,165.963
	z"/>
</svg>
