<?xml version="1.0" encoding="utf-8"?>
<!-- (c) mapshakers 2015, Licence: CC0 1.0 Universal, www.mapshakers.com  -->
<!DOCTYPE svg PUBLIC "-//W3C//DTD SVG 1.1//EN" "http://www.w3.org/Graphics/SVG/1.1/DTD/svg11.dtd">
<svg version="1.1" id="star" xmlns="http://www.w3.org/2000/svg" xmlns:xlink="http://www.w3.org/1999/xlink" x="0px" y="0px"
	 width="256px" height="256px" viewBox="0 0 256 256" style="enable-background:new 0 0 256 256;" xml:space="preserve">
<style type="text/css">
<![CDATA[
	.st0{fill:#464646;}
	.st1{fill:#D1D1D1;}
]]>
</style>
<path class="st1" d="M131.264,252.073c-5.062,0-14.637-2.011-21.904-15.468L92.547,205.47c-5.373-9.954-19.95-19.75-31.198-20.966
	l-35.176-3.803c-11.466-1.24-19.797-6.747-22.857-15.109c-3.06-8.361-0.25-17.945,7.708-26.292l24.417-25.608
	c7.804-8.187,12.617-25.08,10.298-36.151l-7.255-34.626c-2.503-11.955,0.875-19.27,4.15-23.301c3.912-4.815,9.72-7.468,16.355-7.468
	c4.484,0,9.258,1.2,14.189,3.566l31.898,15.307c4.325,2.075,10.501,3.265,16.944,3.265c7.843,0,15.552-1.735,20.621-4.642
	l30.691-17.6c5.395-3.093,10.668-4.661,15.675-4.661c6.169,0,11.699,2.438,15.573,6.865c3.3,3.772,6.906,10.718,5.343,22.384
	l-4.7,35.069c-1.502,11.21,4.533,27.706,12.916,35.299l26.225,23.753c8.551,7.744,12.053,17.097,9.611,25.659
	c-2.438,8.564-10.346,14.665-21.688,16.738l-34.806,6.367c-11.127,2.034-24.947,12.873-29.58,23.19l-14.486,32.282
	C148.543,245.848,140.468,252.073,131.264,252.073z"/>
<path class="st0" d="M236.85,139.049l-26.226-23.753c-11.054-10.013-18.478-30.301-16.497-45.085l4.7-35.068
	c1.981-14.783-6.985-20.808-19.923-13.389l-30.692,17.6c-12.94,7.42-34.531,8.211-47.979,1.758L68.335,25.805
	c-13.448-6.453-21.949,0.213-18.892,14.812l7.255,34.627c3.057,14.599-2.863,35.377-13.154,46.173l-24.416,25.606
	c-10.292,10.797-6.581,20.939,8.249,22.543l35.177,3.805c14.828,1.602,32.762,13.652,39.846,26.777l16.812,31.137
	c7.087,13.123,17.882,12.729,23.988-0.879l14.487-32.282c6.105-13.608,23.107-26.938,37.781-29.623l34.805-6.366
	C244.943,159.451,247.904,149.063,236.85,139.049z"/>
</svg>
