<?xml version="1.0" encoding="utf-8"?>
<!-- (c) mapshakers 2015, Licence: CC0 1.0 Universal, www.mapshakers.com  -->
<!DOCTYPE svg PUBLIC "-//W3C//DTD SVG 1.1//EN" "http://www.w3.org/Graphics/SVG/1.1/DTD/svg11.dtd">
<svg version="1.1" id="theatre" xmlns="http://www.w3.org/2000/svg" xmlns:xlink="http://www.w3.org/1999/xlink" x="0px" y="0px"
	 width="256px" height="256px" viewBox="0 0 256 256" style="enable-background:new 0 0 256 256;" xml:space="preserve">
<style type="text/css">
<![CDATA[
	.st0{fill:#D1D1D1;}
	.st1{fill:#454545;}
]]>
</style>
<path class="st0" d="M159.04,255.538c-3.189-0.001-6.384-0.276-9.493-0.818c-0.017-0.002-0.604-0.115-0.635-0.122
	c-27.395-5.771-48.569-32.123-56.639-70.489c-0.07-0.331-0.139-0.665-0.207-1.001h-2.86c-0.217,0-0.433-0.005-0.647-0.016
	C64.808,182.783,41.385,166,24.127,136.937C4.738,104.284-4.537,51.779,4.667,26.777c2.772-7.529,8.943-12.024,16.506-12.024
	c5.483,0,10.335,2.338,15.952,5.047c7.447,3.59,16.714,8.059,29.086,8.059c2.438,0,4.943-0.177,7.445-0.525
	c16.222-2.26,24.917-10.45,31.903-17.03c5.137-4.839,10.448-9.841,18.1-9.841c3.213,0,9.338,1.008,14.254,7.756
	c8.455,11.614,14.751,32.658,16.944,56.528c0.188,0.875,0.287,1.783,0.287,2.713v8.44c6.2,5.841,13.7,11.64,25.752,13.958
	c3.021,0.582,5.999,0.877,8.855,0.877c9.669,0,17.037-3.353,23.537-6.311c5.268-2.395,10.713-4.871,17.008-4.871
	c1.473,0,2.939,0.139,4.359,0.412c8.354,1.606,14.7,7.54,17.413,16.277c7.832,25.229-0.667,79.365-23.767,114.048
	c-19.153,28.754-44.398,45.248-69.258,45.248C159.042,255.538,159.044,255.538,159.04,255.538z"/>
<path class="st1" d="M238.792,101.941c-1.614-5.201-4.932-6.866-7.432-7.347c-4.046-0.779-8.222,1.121-13.509,3.524
	c-9.2,4.186-21.801,9.919-40.251,6.369c-18.328-3.527-28.556-13.601-36.025-20.956c-4.555-4.486-7.848-7.728-12.009-8.529
	c-2.567-0.494-6.35-0.195-9.781,4.035c-15.314,18.888-22.895,69.538-15.598,104.226c6.976,33.16,24.387,55.748,46.575,60.423
	l0.095,0.019l0.093,0.017c22.339,3.896,46.891-10.616,65.675-38.817C237.418,173.685,245.617,123.922,238.792,101.941z
	 M145.401,128.454c11.078,4.971,14.172,22.122,14.172,22.122s-14.869,9.096-25.947,4.123c-11.076-4.971-14.169-22.123-14.169-22.123
	S134.325,123.484,145.401,128.454z M156.014,213.816c-19.721-3.796-30.211-35.44-30.211-35.44s14.343,11.625,34.063,15.421
	c19.725,3.796,37.357-1.677,37.357-1.677S175.735,217.612,156.014,213.816z M198.745,167.232
	c-12.13,0.504-22.563-13.458-22.563-13.458s9.239-14.78,21.37-15.283c12.131-0.504,22.563,13.457,22.563,13.457
	S210.875,166.728,198.745,167.232z"/>
<path class="st1" d="M126.548,17.725c-8.033-11.028-15.402,19.26-51.928,24.348c-36.526,5.087-53.847-21.762-58.561-8.958
	c-7.574,20.572,0.689,69.12,18.436,99.007c16.51,27.802,37.613,41.05,56.45,39.699c-1.652-11.644-2.038-24.737-1.125-38.021
	c-0.965,0.095-1.937,0.204-2.916,0.339c-19.892,2.771-34.816,13.641-34.816,13.641s12.111-31.061,32.002-33.832
	c2.68-0.374,5.362-0.2,8.001,0.355c1.122-6.758,2.949-15.568,5.812-24.314c-8.292-5.531-12.436-17.119-12.436-17.119
	s13.176-11.41,24.919-8.323c0.245,0.063,0.483,0.143,0.723,0.219c4.014-4.145,9.238-5.928,14.585-4.899
	c6.063,1.169,10.447,5.487,15.521,10.485c0.021,0.021,0.045,0.044,0.066,0.065C139.582,48.445,133.987,27.94,126.548,17.725z
	 M59.931,98.373c-10.453,6.178-26.243-1.195-26.243-1.195s1.156-17.39,11.607-23.567c10.453-6.178,26.245,1.197,26.245,1.197
	S70.383,92.197,59.931,98.373z"/>
</svg>
