<?xml version="1.0" encoding="utf-8"?>
<!-- (c) mapshakers 2015, Licence: CC0 1.0 Universal, www.mapshakers.com  -->
<!DOCTYPE svg PUBLIC "-//W3C//DTD SVG 1.1//EN" "http://www.w3.org/Graphics/SVG/1.1/DTD/svg11.dtd">
<svg version="1.1" id="toilet" xmlns="http://www.w3.org/2000/svg" xmlns:xlink="http://www.w3.org/1999/xlink" x="0px"
	 y="0px" width="256px" height="256px" viewBox="0 0 256 256" style="enable-background:new 0 0 256 256;" xml:space="preserve">
<style type="text/css">
<![CDATA[
	.st0{fill:#464646;}
	.st1{fill:#D1D1D1;}
]]>
</style>
<g>
	<path class="st1" d="M243.07,228.656l-21.288-54.229c0.583,0.063,1.173,0.106,1.771,0.106c1.04,0,2.09-0.102,3.133-0.305
		c8.806-1.722,14.564-10.287,12.842-19.092l-15.082-77.071c-1.295-6.605-6.521-11.633-12.943-12.853
		c2.227-4.618,3.486-9.827,3.486-15.342c0-18.854-14.658-34.193-32.676-34.193s-32.676,15.339-32.676,34.193
		c0,5.809,1.396,11.282,3.848,16.078c-6.371,1.255-11.547,6.262-12.834,12.834l-15.083,77.07c-0.833,4.265,0.042,8.6,2.469,12.205
		c2.428,3.605,6.111,6.051,10.38,6.885c1.028,0.201,2.081,0.304,3.125,0.304c0.035,0,0.067-0.004,0.104-0.004L120.289,228.6
		c-1.115,2.784-0.775,5.94,0.907,8.426c1.682,2.484,4.484,3.975,7.484,3.975h30.889c4.44,2.912,9.652,4.486,15.002,4.486h11.572
		c5.35,0,10.561-1.574,15.002-4.486h33.514c2.988,0,5.785-1.479,7.468-3.948C243.811,234.58,244.164,231.438,243.07,228.656z"/>
	<path class="st1" d="M121.415,94.679c0-11.839-8.726-21.859-20.39-23.53c-0.717-0.151-1.424-0.222-2.138-0.239
		c4.201-5.875,6.691-13.164,6.691-21.05c0-19.408-15.082-35.198-33.622-35.198S38.334,30.451,38.334,49.858
		c0,7.88,2.487,15.166,6.683,21.037h-3.319c-13.114,0-23.784,10.67-23.784,23.784v69.612c0,12.273,9.344,22.404,21.293,23.652
		v30.681c0,14.168,11.527,25.692,25.694,25.692h10.493c14.168,0,25.696-11.524,25.696-25.692v-30.8
		c11.481-1.682,20.326-11.594,20.326-23.533L121.415,94.679L121.415,94.679z"/>
</g>
<g>
	<path class="st0" d="M71.956,76.016c13.554,0,24.583-11.735,24.583-26.158c0-14.424-11.029-26.158-24.583-26.158
		c-13.555,0-24.583,11.734-24.583,26.158C47.373,64.283,58.401,76.016,71.956,76.016z"/>
	<path class="st0" d="M182.313,75.025c13.033,0,23.638-11.283,23.638-25.153c0-13.871-10.603-25.154-23.638-25.154
		s-23.638,11.283-23.638,25.154S169.277,75.025,182.313,75.025z"/>
	<path class="st0" d="M198.477,139.8h-32.91l-36.887,92.159h33.887c3.22,2.789,7.41,4.488,12.004,4.488h11.572
		c4.594,0,8.783-1.699,12.004-4.488h36.511L198.477,139.8z"/>
	<path class="st0" d="M140.148,166.073c3.916,0.764,7.717-1.79,8.486-5.708l11.028-56.357l5.62,29.765h33.582l6.154-32.596
		l11.442,58.473c0.675,3.449,3.702,5.845,7.091,5.845c0.461,0,0.928-0.045,1.396-0.136c3.919-0.768,6.476-4.566,5.709-8.485
		l-15.083-77.068c-0.769-3.92-4.571-6.474-8.486-5.708c-1.702,0.333-3.146,1.239-4.174,2.478c-5.91,4.279-13.048,6.788-20.728,6.788
		c-7.614,0-14.692-2.465-20.572-6.675c-0.967-0.927-2.196-1.6-3.607-1.877c-0.468-0.092-0.936-0.136-1.396-0.136
		c-3.389,0-6.412,2.394-7.09,5.844l-15.082,77.069C133.674,161.507,136.23,165.305,140.148,166.073z"/>
	<path class="st0" d="M99.401,80.051c-0.252-0.069-0.514-0.119-0.803-0.119H87.492c-3.875,2.312-8.229,3.82-12.86,4.339h-7.134
		l-0.002-0.004c-4.61-0.526-8.945-2.031-12.805-4.334H41.697c-8.143,0-14.745,6.602-14.745,14.744v69.611
		c0,8.144,6.602,14.744,14.745,14.744h6.549v39.589c0,9.197,7.458,16.654,16.656,16.654h10.493c9.199,0,16.656-7.457,16.656-16.654
		v-39.589h5.58c8.143,0,14.745-6.601,14.745-14.744v-69.61C112.375,87.136,106.708,80.927,99.401,80.051z"/>
</g>
</svg>
