<?xml version="1.0" encoding="utf-8"?>
<!-- (c) mapshakers 2015, Licence: CC0 1.0 Universal, www.mapshakers.com  -->
<!DOCTYPE svg PUBLIC "-//W3C//DTD SVG 1.1//EN" "http://www.w3.org/Graphics/SVG/1.1/DTD/svg11.dtd">
<svg version="1.1" id="city_gate" xmlns="http://www.w3.org/2000/svg" xmlns:xlink="http://www.w3.org/1999/xlink" x="0px" y="0px"
	 width="256px" height="256px" viewBox="0 0 256 256" style="enable-background:new 0 0 256 256;" xml:space="preserve">
<style type="text/css">
<![CDATA[
	.st0{fill:#D1D1D1;}
	.st1{fill:#454545;}
]]>
</style>
<path class="st0" d="M109.114,250.525c-0.21,0-0.421-0.008-0.63-0.022c-11.214-0.779-22.474-2.178-33.465-4.156
	c-4.332-0.78-7.484-4.55-7.484-8.952V91.301L52.422,71.578c-1.216-1.588-1.875-3.532-1.875-5.532V14.572
	c0-5.023,4.072-9.096,9.096-9.096h140.646c5.023,0,9.096,4.072,9.096,9.096v51.474c0,2-0.659,3.944-1.876,5.532L192.396,91.3
	v146.094c0,4.402-3.152,8.172-7.484,8.952c-10,1.8-20.259,3.121-30.515,3.932c-0.679,0.161-1.388,0.247-2.116,0.247H109.114z"/>
<path class="st1" d="M180.774,14.839c0,8.579,0,17.156,0,25.733c-6.603,1.189-13.354,1.189-19.955,0c0-8.577,0-17.154,0-25.733
	h-20.837c0,8.74,0,17.479,0,26.219c-6.602,1.189-13.354,1.189-19.956,0c0-8.739,0-17.479,0-26.219H99.19c0,8.579,0,17.156,0,25.733
	c-6.603,1.189-13.354,1.189-19.956,0c0-8.577,0-17.154,0-25.733H59.642v51.474l16.987,22.172c0,49.725,0,99.453,0,149.177
	c10.769,1.938,21.612,3.278,32.484,4.034v-39.913c0,0,1.998-30.184,21.112-41.018c20.59,10.834,20.59,41.018,20.59,41.018v39.913
	c10.873-0.755,21.717-2.096,32.485-4.034c0-49.725,0-99.452,0-149.178l16.987-22.171V14.839H180.774z M140.265,122.418
	c-6.815,1.228-13.784,1.228-20.598,0c0-6.753,0-13.506,0-20.26c-0.002-0.006,0.981-14.689,10.428-20.259
	c10.175,5.555,10.17,20.224,10.17,20.259C140.265,108.912,140.265,115.665,140.265,122.418z"/>
</svg>
