<?xml version="1.0" encoding="utf-8"?>
<!-- (c) mapshakers 2015, Licence: CC0 1.0 Universal, www.mapshakers.com  -->
<!DOCTYPE svg PUBLIC "-//W3C//DTD SVG 1.1//EN" "http://www.w3.org/Graphics/SVG/1.1/DTD/svg11.dtd">
<svg version="1.1" id="train" xmlns="http://www.w3.org/2000/svg" xmlns:xlink="http://www.w3.org/1999/xlink" x="0px" y="0px"
	 width="256px" height="256px" viewBox="0 0 256 256" style="enable-background:new 0 0 256 256;" xml:space="preserve">
<style type="text/css">
<![CDATA[
	.st0{fill:#D1D1D1;}
	.st1{fill:#454545;}
]]>
</style>
<path class="st0" d="M231.799,237.386l-28.715-44.846h14.394c5.256,0,9.516-4.261,9.516-9.516V65.955
	c0.239-3.956-2.027-6.384-4.05-8.549c-0.978-1.048-2.394-2.551-4.14-4.373c-3.183-3.319-8.128-8.382-13.614-13.655
	c-22.21-21.343-30.783-24.551-33.6-25.604c-9.313-3.484-24.062-5.481-40.467-5.481c-16.404,0-31.153,1.998-40.466,5.481
	c-16.579,6.203-46.982,38.832-52.909,45.31c-1.605,1.754-2.495,4.045-2.495,6.423v117.519c0,5.255,4.26,9.516,9.516,9.516h14.394
	l-28.713,44.847c-1.875,2.928-2.003,6.647-0.333,9.698c1.669,3.051,4.87,4.948,8.348,4.948h53.983c4.686,0,8.673-3.411,9.4-8.039
	l8.028-51.117c0.018-0.112,0.021-0.225,0.035-0.337h42.427c0.014,0.112,0.017,0.225,0.035,0.337l8.03,51.117
	c0.728,4.628,4.715,8.039,9.4,8.039h53.983c3.478,0,6.679-1.897,8.349-4.948C233.803,244.034,233.675,240.314,231.799,237.386z"/>
<g>
	<polygon class="st1" points="71.192,194.051 100.475,194.051 92.447,245.168 38.464,245.168 	"/>
	<polygon class="st1" points="191.057,194.051 161.772,194.051 169.803,245.168 223.786,245.168 	"/>
</g>
<path class="st1" d="M168.257,25.336c-17.388-6.505-56.876-6.505-74.265,0c-15.277,5.715-49.223,42.82-49.223,42.82v117.519h172.709
	V68.156C217.479,68.156,183.533,31.051,168.257,25.336z M80.851,172.66c-7.954,0-14.404-6.449-14.404-14.404
	c0-7.953,6.449-14.403,14.404-14.403s14.403,6.449,14.403,14.403C95.254,166.211,88.805,172.66,80.851,172.66z M122.534,120.459
	c0,4.485-3.635,8.121-8.121,8.121H67.548c-4.486,0-8.121-3.635-8.121-8.121V84.366c0-4.486,3.635-8.122,8.121-8.122h46.864
	c4.486,0,8.121,3.636,8.121,8.122V120.459z M99.059,45.639c0-5.603,14.356-10.146,32.066-10.146c17.71,0,32.066,4.543,32.066,10.146
	c0,5.604-14.356,10.146-32.066,10.146C113.416,55.786,99.059,51.243,99.059,45.639z M181.399,172.66
	c-7.954,0-14.403-6.449-14.403-14.404c0-7.953,6.449-14.403,14.403-14.403c7.955,0,14.404,6.449,14.404,14.403
	C195.804,166.211,189.354,172.66,181.399,172.66z M202.823,120.459c0,4.485-3.636,8.121-8.12,8.121h-46.866
	c-4.484,0-8.12-3.635-8.12-8.121V84.366c0-4.486,3.636-8.122,8.12-8.122h46.866c4.484,0,8.12,3.636,8.12,8.122V120.459
	L202.823,120.459z"/>
</svg>
