<?xml version="1.0" encoding="utf-8"?>
<!-- (c) mapshakers 2015, Licence: CC0 1.0 Universal, www.mapshakers.com  -->
<!DOCTYPE svg PUBLIC "-//W3C//DTD SVG 1.1//EN" "http://www.w3.org/Graphics/SVG/1.1/DTD/svg11.dtd">
<svg version="1.1" id="tram" xmlns="http://www.w3.org/2000/svg" xmlns:xlink="http://www.w3.org/1999/xlink" x="0px" y="0px"
	 width="256px" height="256px" viewBox="0 0 256 256" style="enable-background:new 0 0 256 256;" xml:space="preserve">
<style type="text/css">
<![CDATA[
	.st0{fill:#D1D1D1;}
	.st1{fill:#454545;}
]]>
</style>
<path class="st0" d="M174.114,43.313l4.923-9.009h1.377c9.104,0,16.511-7.408,16.511-16.512c0-9.105-7.407-16.513-16.511-16.513
	H75.588c-9.105,0-16.513,7.407-16.513,16.513c0,9.104,7.407,16.512,16.513,16.512h1.641l4.833,8.845
	c-2.971,2.574-5.586,5.363-7.918,8.277h-0.021v0.026c-18.239,22.822-18.092,53.744-18.036,56.582v95.144
	c0,5.187,4.205,9.393,9.392,9.393h11.965l-17.803,26.523c-1.934,2.879-2.122,6.592-0.49,9.653c1.632,3.061,4.818,4.974,8.288,4.974
	h34.574c4.598,0,8.52-3.33,9.267-7.866l5.141-31.226c0.113-0.688,0.148-1.377,0.109-2.059h22.943
	c-0.038,0.682-0.004,1.372,0.109,2.059l5.143,31.226c0.749,4.537,4.671,7.866,9.268,7.866h34.574c3.469,0,6.656-1.913,8.287-4.975
	c1.632-3.061,1.443-6.773-0.489-9.652l-17.805-26.523h11.967c5.188,0,9.393-4.206,9.393-9.393v-95.161
	C199.965,105.069,200.081,66.056,174.114,43.313z"/>
<g>
	<polygon class="st1" points="88.396,213.572 107.151,213.572 102.01,244.798 67.437,244.798 	"/>
	<polygon class="st1" points="167.602,213.572 148.847,213.572 153.989,244.798 188.563,244.798 	"/>
</g>
<path class="st1" d="M128,37.313c-64.422,0-62.523,71.087-62.523,71.087v95.248h125.047V108.4
	C190.522,108.4,192.422,37.313,128,37.313z M128,186.911c-9.649,0-17.473-7.823-17.473-17.472c0-9.65,7.823-17.473,17.473-17.473
	c9.646,0,17.472,7.821,17.472,17.473C145.472,179.088,137.646,186.911,128,186.911z M175.372,108.051v25.164H80.629v-25.164
	c0,0-1.438-53.858,47.371-53.858C176.809,54.193,175.372,108.051,175.372,108.051z"/>
<g>
	<path class="st1" d="M180.413,25.381H75.587c-3.933,0-7.121-3.188-7.121-7.12c0-3.933,3.188-7.121,7.121-7.121h104.826
		c3.933,0,7.118,3.188,7.118,7.121C187.531,22.194,184.346,25.381,180.413,25.381z"/>
</g>
<g>
	<g>
		<path class="st1" d="M155.107,51.239c-1.155,0-2.326-0.281-3.409-0.874c-3.45-1.886-4.718-6.212-2.834-9.663l12.296-22.499
			c1.887-3.45,6.213-4.719,9.661-2.833c3.451,1.886,4.719,6.212,2.835,9.663L161.36,47.532
			C160.069,49.899,157.627,51.239,155.107,51.239z"/>
	</g>
	<g>
		<path class="st1" d="M100.892,50.755c-2.52,0-4.961-1.341-6.255-3.708L82.343,24.548c-1.885-3.451-0.616-7.776,2.834-9.662
			c3.451-1.885,7.777-0.617,9.663,2.833l12.294,22.499c1.885,3.451,0.616,7.777-2.834,9.663
			C103.215,50.473,102.046,50.755,100.892,50.755z"/>
	</g>
</g>
</svg>
