<?xml version="1.0" encoding="utf-8"?>
<!-- (c) mapshakers 2015, Licence: CC0 1.0 Universal, www.mapshakers.com  -->
<!DOCTYPE svg PUBLIC "-//W3C//DTD SVG 1.1//EN" "http://www.w3.org/Graphics/SVG/1.1/DTD/svg11.dtd">
<svg version="1.1" id="tree_leaf" xmlns="http://www.w3.org/2000/svg" xmlns:xlink="http://www.w3.org/1999/xlink" x="0px" y="0px"
	 width="256px" height="256px" viewBox="0 0 256 256" style="enable-background:new 0 0 256 256;" xml:space="preserve">
<style type="text/css">
<![CDATA[
	.st0{fill:#D1D1D1;}
	.st1{fill:#454545;}
]]>
</style>
<path class="st0" d="M117.586,247.312c-2.826,0-5.591-1.231-7.487-3.328c-3.298-3.647-2.97-7.728-2.427-14.487
	c0.335-4.165,0.891-9.68,1.534-16.064c0.961-9.542,2.566-25.475,3.24-37.691c-2.986,0.922-6.174,1.4-9.507,1.4
	c-10.424,0-21.08-4.728-28.504-12.646c-4.347-4.637-7.281-10.051-8.63-15.787c-24.047-5.488-36.569-25.664-36.569-44.672
	c0-12.808,4.872-24.831,13.83-34.389c-0.181-1.779-0.272-3.566-0.272-5.35c0-29.145,23.71-52.855,52.854-52.855
	c7.881,0,15.543,1.728,22.555,5.047c8.48-7.646,19.145-11.904,30.274-11.904c19.414,0,36.427,12.543,43.928,31.786
	c20.489,6.167,35.263,26.971,35.263,50.99c0,10.509-2.862,20.815-8.126,29.485c0.43,2.868,0.646,5.778,0.646,8.693
	c0,13.807-4.784,26.868-13.472,36.775c-0.455,0.52-0.962,0.989-1.515,1.404c-8.884,6.67-18.021,10.053-27.155,10.053
	c-0.001,0-0.001,0-0.001,0c-7.56,0-13.984-2.318-19.141-5.324c-2.582,29.853,0.866,51.614,2.432,61.498
	c0.974,6.149,1.563,9.861-1.68,13.657c-1.899,2.225-4.758,3.544-7.683,3.544c-0.364,0-0.726-0.019-1.083-0.057l-32.169,0.16
	C118.347,247.291,117.968,247.312,117.586,247.312z"/>
<path class="st1" d="M217.666,87.36c0-21.793-14.376-39.774-32.979-42.489c-4.748-17.535-19.161-30.287-36.211-30.287
	c-11.31,0-21.453,5.617-28.393,14.514c-6.932-4.822-15.35-7.657-24.436-7.657c-23.667,0-42.854,19.187-42.854,42.855
	c0,3.066,0.328,6.056,0.94,8.939c-8.935,7.792-14.498,18.707-14.498,30.8C39.235,117.932,48.833,138,75,140
	c-1.167,18.084,20.199,31.47,35.517,25.825c0.956-18.279,0.704-62.25-19.35-100.659c33.483,31.179,32.677,85.198,31.537,101.889
	c-0.051,23.355-6.997,72.171-5.01,70.198l34.141-0.17c2.166,1.666-8.167-30.5-1.69-80.652c1.308-5.71,2.4-6.938,2.4-6.938
	s18.389,27.447,46.652,6.227c6.792-7.746,10.99-18.408,10.99-30.182c0-3.747-0.428-7.379-1.225-10.843
	C214.396,107.276,217.666,97.75,217.666,87.36z"/>
</svg>
