<?xml version="1.0" encoding="utf-8"?>
<!-- (c) mapshakers 2015, Licence: CC0 1.0 Universal, www.mapshakers.com  -->
<!DOCTYPE svg PUBLIC "-//W3C//DTD SVG 1.1//EN" "http://www.w3.org/Graphics/SVG/1.1/DTD/svg11.dtd">
<svg version="1.1" id="tree_cinofer" xmlns="http://www.w3.org/2000/svg" xmlns:xlink="http://www.w3.org/1999/xlink" x="0px" y="0px"
	 width="256px" height="256px" viewBox="0 0 256 256" style="enable-background:new 0 0 256 256;" xml:space="preserve">
<style type="text/css">
<![CDATA[
	.st0{fill:#D1D1D1;}
	.st1{fill:#454545;}
]]>
</style>
<path class="st0" d="M221.926,201.23l-33.039-57.318c-0.278-0.482-0.601-0.923-0.943-1.341c0.868-0.814,1.645-1.599,2.298-2.307
	c3.627-3.933,3.517-10.023-0.251-13.822c-1.765-1.779-4.682-6.239-7.771-10.96c-4.664-7.13-10.554-16.116-17.832-24.301
	c4.641-1.909,7.755-5.467,9.025-9.006c1.491-4.153,0.083-8.793-3.464-11.417c-0.218-0.161-21.955-16.58-37.17-56.765
	c-1.442-3.811-5.053-6.364-9.126-6.457c-0.076-0.001-0.152-0.002-0.228-0.002c-3.984,0-7.598,2.369-9.181,6.04
	C92.202,64.69,80.757,74.465,79.23,75.602c-2.315,1.106-4.135,3.071-5.05,5.508c-1.09,2.902-0.772,6.146,0.861,8.782
	c1.264,2.041,4.852,7.248,10.163,10.317c-4.189,4.912-8.012,10.27-11.754,15.521c-3.856,5.413-7.499,10.526-10.968,14.254
	c-2.77,2.977-3.461,7.334-1.75,11.022c1.644,3.542,5.191,5.79,9.068,5.79c0.145,0,0.289-0.004,0.434-0.011l-38.638,52.938
	c-2.491,3.413-2.568,8.023-0.192,11.518c1.891,2.782,5.012,4.379,8.269,4.379c0.834,0,1.678-0.105,2.512-0.321l10.837-2.813
	c6.458-1.677,12.785-2.527,18.808-2.527c8.773,0,16.618,1.851,23.315,5.499c3.381,1.842,6.685,3.375,9.933,4.612
	c-1.077,7.734-2.089,13.871-2.1,13.937c-0.476,2.874,0.326,5.813,2.194,8.047s4.618,3.544,7.53,3.585c0,0,32.808,0.466,32.854,0.466
	c3.04,0,5.918-1.384,7.817-3.764c1.929-2.417,2.63-5.591,1.9-8.596c-0.02-0.082-1.958-8.079-3.911-17.373
	c0.927-0.548,1.853-1.117,2.778-1.727c4.851-3.19,9.285-4.877,12.822-4.877c2.364,0,4.425,0.771,6.482,2.425
	c7.086,5.7,15.001,8.59,23.524,8.59c6.862,0,12.686-1.972,16.364-3.626l4.031-1.814c2.577-1.16,4.543-3.356,5.411-6.045
	C223.646,206.609,223.337,203.679,221.926,201.23z"/>
<path class="st1" d="M113.696,74.102c0.652,0,1.371,0.094,2.167,0.294c5.325,1.343,9.495,9.12,14.079,9.12
	c0.207,0,0.418-0.016,0.627-0.05c4.565-0.728,4.232-8.708,6.918-8.708c0.356,0,0.77,0.142,1.254,0.462
	c8.596,5.684,14.357,7.387,18.179,7.387c5.714,0,7.082-3.811,7.082-3.811s-24.142-17.864-40.574-61.263
	C96.167,80.75,83.542,84.625,83.542,84.625s4.922,7.945,9.975,7.945c0.186,0,0.373-0.011,0.559-0.033
	C107.96,90.87,104.965,74.1,113.696,74.102z"/>
<path class="st1" d="M125.012,213.962c-7.881,0-16.086-2.383-25.083-7.284c-8.18-4.457-17.634-6.718-28.099-6.718
	c-6.868,0-14.042,0.958-21.321,2.849l-10.835,2.812l41.137-56.363l3.227,2.329c4.935,3.563,9.872,5.369,14.674,5.369
	c6.684-0.001,12.785-3.643,15.924-9.5c3.751-6.999,8.086-10.4,13.252-10.4c5.738,0,11.135,4.352,14.708,7.229l0.271,0.221
	c7.354,5.923,14.747,8.929,21.971,8.929c4.097,0,8.144-0.968,12.024-2.875l3.361-1.652l33.039,57.318l-4.031,1.814
	c-2.783,1.252-7.168,2.745-12.26,2.745c-6.186,0-11.99-2.146-17.257-6.382c-3.823-3.073-8.114-4.633-12.75-4.633
	c-5.573,0-11.737,2.194-18.317,6.522c-7.844,5.161-15.574,7.671-23.629,7.671L125.012,213.962L125.012,213.962z"/>
<g>
	<path class="st1" d="M125.012,220.962c-3.224,0-6.486-0.36-9.812-1.089c-1.187,8.704-2.356,15.768-2.356,15.768l32.712,0.465
		c0,0-2.078-8.559-4.14-18.438C136.033,219.875,130.605,220.962,125.012,220.962z"/>
</g>
<g>
	<path class="st1" d="M148.167,89.25c-1.634-1.36-6.778-4.504-9.16-3.815c-2.913,0.843-3.843,5.62-8.217,6.317
		c-0.556,0.088-1.12,0.133-1.683,0.133c-5.018,0-8.669-3.388-11.604-6.11c-1.284-1.19-3.223-2.989-4.113-3.214
		c-0.015-0.004-0.03-0.007-0.045-0.011c-0.499,0.768-1.176,2.24-1.654,3.281c-1.867,4.061-5.907,8.47-11.552,13.357
		c-11.682,10.115-20.864,27.429-30.337,37.609c0.369-0.018,0.74-0.027,1.113-0.027c4.816,0,9.196,1.504,13.017,4.467
		c4.545,3.523,9.014,5.312,13.28,5.312c6.189,0,10.429-3.797,12.333-7.351c4.463-8.327,10.129-12.55,16.842-12.55
		c7.179,0,13.251,4.896,17.27,8.137l0.258,0.209c6.618,5.329,13.151,8.032,19.422,8.032c9.365,0,16.279-5.991,19.554-9.541
		C175.945,126.482,165.035,103.292,148.167,89.25z"/>
</g>
</svg>
