<?xml version="1.0" encoding="utf-8"?>
<!-- (c) mapshakers 2015, Licence: CC0 1.0 Universal, www.mapshakers.com  -->
<!DOCTYPE svg PUBLIC "-//W3C//DTD SVG 1.1//EN" "http://www.w3.org/Graphics/SVG/1.1/DTD/svg11.dtd">
<svg version="1.1" id="underground" xmlns="http://www.w3.org/2000/svg" xmlns:xlink="http://www.w3.org/1999/xlink" x="0px"
	 y="0px" width="256px" height="256px" viewBox="0 0 256 256" style="enable-background:new 0 0 256 256;" xml:space="preserve">
<style type="text/css">
<![CDATA[
	.st0{fill:#D1D1D1;}
	.st1{fill:#454545;}
]]>
</style>
<path class="st0" d="M12.422,254.155c-5.104,0-9.242-4.138-9.242-9.242V104.917c-0.038-3.895,0.426-39.684,28.463-68.369
	C54.151,13.521,87.118,1.845,129.628,1.845c42.612,0,75.387,11.741,97.414,34.896c26.449,27.803,27.034,61.573,26.855,68.447v90.528
	c0.011,0.186,0.016,0.372,0.016,0.56v48.637c0,5.104-4.137,9.242-9.241,9.242H12.422z"/>
<polygon class="st1" points="79.844,201.856 103.419,201.856 96.955,243.01 53.495,243.01 "/>
<polygon class="st1" points="179.408,201.856 155.831,201.856 162.297,243.01 205.758,243.01 "/>
<path class="st1" d="M129.626,57.603c-78.362,0-76.051,58.179-76.051,58.179v77.953h152.103v-77.953
	C205.678,115.781,207.988,57.603,129.626,57.603z M72.006,136.09v-20.594c0,0-1.75-44.078,57.619-44.078
	c59.371,0,57.621,44.078,57.621,44.078v20.594H72.006L72.006,136.09z M83.996,177.637c-6.151,0-11.138-4.986-11.138-11.138
	s4.987-11.139,11.138-11.139c6.151,0,11.138,4.987,11.138,11.139S90.147,177.637,83.996,177.637z M176.525,176.876
	c-6.151,0-11.138-4.986-11.138-11.138s4.986-11.138,11.138-11.138s11.138,4.986,11.138,11.138S182.677,176.876,176.525,176.876z"/>
<g>
	<path class="st1" d="M244.654,225.913h-26.801l0.017-118.943c0.005-0.157,0.682-24.297-17.206-42.859
		c-14.976-15.54-38.876-23.42-71.036-23.42c-32.443,0-56.738,8.026-72.208,23.854c-18.229,18.65-18.205,42.552-18.199,42.789
		l0.004,0.306v118.274H12.423V107.718c-0.032-3.296,0.328-35.817,25.831-61.908C58.958,24.629,89.7,13.889,129.629,13.889
		c39.982,0,70.504,10.775,90.719,32.025c24.477,25.729,24.434,57.64,24.309,61.95v118.049H244.654z"/>
</g>
</svg>
