<?xml version="1.0" encoding="utf-8"?>
<!-- (c) mapshakers 2015, Licence: CC0 1.0 Universal, www.mapshakers.com  -->
<!DOCTYPE svg PUBLIC "-//W3C//DTD SVG 1.1//EN" "http://www.w3.org/Graphics/SVG/1.1/DTD/svg11.dtd">
<svg version="1.1" id="unesco" xmlns="http://www.w3.org/2000/svg" xmlns:xlink="http://www.w3.org/1999/xlink" x="0px"
	 y="0px" width="256px" height="256px" viewBox="0 0 256 256" style="enable-background:new 0 0 256 256;" xml:space="preserve">
<style type="text/css">
<![CDATA[
	.st0{fill:#464646;}
	.st1{fill:#D1D1D1;}
]]>
</style>
<path class="st1" d="M143.598,241.216c-2.945,0-6.08-0.388-9.318-1.149c-3.303-0.779-6.122-2.286-8.343-4.369
	c-2.899,2.923-7.008,4.71-12.208,5.228c-1.409,0.142-2.858,0.212-4.308,0.212c-3.456,0-6.897-0.39-10.228-1.158
	c-25.368-5.85-47.963-20.644-63.623-41.658c-15.583-20.91-23.687-47.174-22.819-73.95c1.675-51.727,41.906-97.27,93.582-105.936
	c6.521-1.094,13.131-1.648,19.646-1.648c56.477,0,103.643,41.049,112.152,97.606c4.211,27.992-2.769,56.635-19.651,80.652
	c-16.9,24.042-41.488,40.255-69.233,45.652C147.465,241.04,145.564,241.216,143.598,241.216z"/>
<path class="st0" d="M228.241,115.879c-8.828-58.675-61.948-97.363-120.256-87.583c-47.05,7.89-83.718,49.357-85.241,96.397
	c-1.641,50.684,30.992,94.543,78.695,105.542c3.641,0.841,7.584,1.109,11.296,0.74c6.142-0.613,8.219-3.314,8.229-9.428
	c0.028-15.563,0.119-31.124-0.114-46.682c-0.032-2.215-1.183-4.928-2.729-6.526c-11.042-11.407-22.323-22.585-33.519-33.844
	c-1.184-1.188-2.312-2.431-2.832-2.979c15.145-15.148,29.912-29.917,44.633-44.64c14.25,14.307,28.906,29.026,44.228,44.415
	c-12.59,12.443-25.17,24.779-37.58,37.286c-1.384,1.394-2.531,3.735-2.555,5.651c-0.201,15.877-0.082,31.758-0.131,47.637
	c-0.016,4.438,2.146,7.51,6.209,8.468c3.453,0.815,7.32,1.215,10.761,0.546C199.451,220.741,236.15,168.452,228.241,115.879z
	 M147.464,210.172c0-10.009-0.116-19.968,0.136-29.918c0.034-1.398,1.707-2.908,2.889-4.102
	c14.943-15.133,29.934-30.217,45.742-46.146c-23.654-23.097-47.455-46.337-70.831-69.163
	c-23.276,23.117-46.838,46.516-71.211,70.722c10.399,10.098,21.104,20.449,31.756,30.856c4.995,4.881,10.046,9.724,14.733,14.894
	c1.518,1.675,2.677,4.305,2.759,6.539c0.313,8.696,0.126,17.412,0.126,26.476c-39.344-8.22-68.319-49.263-63.568-89.494
	c5.264-44.575,44.109-77.597,90.093-75.45c42.238,1.974,77.807,37.629,80.204,81.572
	C212.383,165.256,182.536,205.008,147.464,210.172z"/>
</svg>
