<?xml version="1.0" encoding="utf-8"?>
<!-- (c) mapshakers 2015, Licence: CC0 1.0 Universal, www.mapshakers.com  -->
<svg version="1.1" id="viewpoint" xmlns="http://www.w3.org/2000/svg" xmlns:xlink="http://www.w3.org/1999/xlink" x="0px" y="0px"
	 width="256px" height="256px" viewBox="0 0 256 256" style="enable-background:new 0 0 256 256;" xml:space="preserve">
<style type="text/css">
<![CDATA[
	.st0{fill:#D1D1D1;}
	.st1{fill:#464646;}
]]>
</style>
<path class="st0" d="M246.154,166.229l-28.334-105c-1.176-4.364-5.135-7.395-9.653-7.395h-0.459c0.298-0.947,0.459-1.955,0.459-3
	v-28c0-5.523-4.478-10-10-10H152.5c-5.521,0-10,4.477-10,10v18.041v9.959v2.354h-26.375v-1.451c0.027-0.297,0.042-0.598,0.042-0.902
	v-28c0-5.523-4.477-10-10-10H60.5c-5.523,0-10,4.477-10,10v28c0,1.045,0.162,2.053,0.459,3H50.5c-4.52,0-8.477,3.031-9.655,7.395
	l-28.333,105c-0.229,0.851-0.345,1.727-0.345,2.605v57c0,1.027,0.156,2.02,0.446,2.953c3.584,13.336,27.559,15.379,41.887,15.379
	c13.041,0,34.072-1.691,40.449-12.051c1.387-1.717,2.218-3.902,2.218-6.281v-71h9c5.062,0,9.235-3.766,9.897-8.646
	c0.781,0.196,1.594,0.313,2.436,0.313h22.667c0.499,0,0.985-0.049,1.465-0.119c0.745,4.786,4.873,8.453,9.868,8.453h9v71
	c0,2.38,0.831,4.564,2.219,6.282c6.379,10.356,27.408,12.05,40.448,12.05c14.306,0,38.224-2.037,41.869-15.313
	c0.302-0.953,0.464-1.968,0.464-3.021v-57C246.5,167.954,246.384,167.078,246.154,166.229z"/>
<g>
	<path class="st1" d="M60.5,26.833c0-2.2,1.8-4,4-4h37.667c2.2,0,4,1.8,4,4v20c0,2.2-1.8,4-4,4H64.5c-2.2,0-4-1.8-4-4V26.833z"/>
</g>
<g>
	<path class="st1" d="M54.5,63.833c-2.2,0-4.469,1.738-5.042,3.862l-26.249,97.277c-0.573,2.124-1.042,5.662-1.042,7.862v49
		c0,2.2,0.007,4,0.016,4s1.586,0.88,3.505,1.956c0,0,11.374,6.376,28.813,6.376s28.813-6.376,28.813-6.376
		c1.919-1.076,3.571-1.956,3.671-1.956c0.101,0,0.183-1.8,0.183-4v-73c0-2.2,1.8-4,4-4h11c2.2,0,4-1.8,4-4V67.833c0-2.2-1.8-4-4-4
		H54.5z"/>
</g>
<g>
	<path class="st1" d="M152.5,26.833c0-2.2,1.8-4,4-4h37.667c2.2,0,4,1.8,4,4v20c0,2.2-1.8,4-4,4H156.5c-2.2,0-4-1.8-4-4V26.833z"/>
</g>
<path class="st1" d="M204.167,63.833c2.2,0,4.469,1.738,5.042,3.862l26.249,97.277c0.573,2.124,1.042,5.662,1.042,7.862v49
	c0,2.2-0.007,4-0.016,4s-1.586,0.88-3.505,1.956c0,0-11.372,6.376-28.813,6.376s-28.813-6.376-28.813-6.376
	c-1.919-1.076-3.571-1.956-3.672-1.956s-0.183-1.8-0.183-4v-73c0-2.2-1.8-4-4-4h-11c-2.2,0-4-1.8-4-4V67.833c0-2.2,1.8-4,4-4
	H204.167z"/>
<g>
	<path class="st1" d="M118.5,67.833c0-2.2,1.8-4,4-4h14.667c2.2,0,4,1.8,4,4V132.5c0,2.2-1.8,4-4,4H122.5c-2.2,0-4-1.8-4-4V67.833z"
		/>
</g>
</svg>
