<?xml version="1.0" encoding="utf-8"?>
<!-- (c) mapshakers 2015, Licence: CC0 1.0 Universal, www.mapshakers.com  -->
<!DOCTYPE svg PUBLIC "-//W3C//DTD SVG 1.1//EN" "http://www.w3.org/Graphics/SVG/1.1/DTD/svg11.dtd">
<svg version="1.1" id="village" xmlns="http://www.w3.org/2000/svg" xmlns:xlink="http://www.w3.org/1999/xlink" x="0px" y="0px"
	 width="256px" height="256px" viewBox="0 0 256 256" style="enable-background:new 0 0 256 256;" xml:space="preserve">
<style type="text/css">
<![CDATA[
	.st0{fill:#464646;}
	.st1{fill:#D1D1D1;}
]]>
</style>
<path class="st1" d="M209.098,82.054l-8.154-6.237V58.669c0-7.293-5.933-13.227-13.227-13.227h-4.631
	c-5.272,0-9.821,3.108-11.945,7.583l-5.513-4.217c-2.537-1.943-5.696-3.013-8.892-3.013c-3.198,0-6.356,1.071-8.889,3.01
	l-43.475,33.25c-3.102,2.372-5.095,5.813-5.611,9.689c-0.517,3.875,0.506,7.72,2.874,10.814c0.073,0.096,0.151,0.187,0.227,0.28
	c-0.855-0.156-1.724-0.242-2.597-0.242c-3.196,0-6.354,1.069-8.888,3.01l-43.475,33.249c-6.408,4.901-7.633,14.101-2.735,20.505
	c2.608,3.416,6.482,5.466,10.734,5.719v29.875c0,8.604,7.002,15.605,15.606,15.605h37.03h16.092h4.388
	c8.605,0,15.606-7.002,15.606-15.605v-29.874c4.246-0.252,8.12-2.303,10.737-5.718c1.722-2.252,2.67-4.851,2.92-7.484
	c1.491,1.192,3.37,1.882,5.362,1.882h22.844c8.605,0,15.606-7.001,15.606-15.605v-29.875c4.246-0.251,8.12-2.302,10.737-5.718
	C216.729,96.155,215.503,86.957,209.098,82.054z"/>
<path class="st0" d="M129.461,153.762l-24.628-18.839c-3.063-2.342-8.073-2.342-11.134,0l-24.631,18.839
	c-3.063,2.342-5.568,7.41-5.568,11.267v29.925c0,3.854,3.154,7.008,7.009,7.008h37.03v-24.193c0-2.079,1.701-3.779,3.78-3.779h8.532
	c2.08,0,3.78,1.701,3.78,3.779v24.193h4.388c3.855,0,7.009-3.153,7.009-7.008v-29.927
	C135.029,161.172,132.523,156.104,129.461,153.762z M96.161,176.652c0,1.724-1.41,3.134-3.134,3.134H78.34
	c-1.723,0-3.133-1.41-3.133-3.134v-12.021c0-1.724,1.41-3.134,3.133-3.134h14.689c1.723,0,3.133,1.41,3.133,3.134L96.161,176.652z"
	/>
<path class="st0" d="M192.346,58.669c0-2.546-2.083-4.629-4.629-4.629h-4.631c-2.548,0-4.63,2.084-4.63,4.629v7.245l13.89,10.621
	V58.669L192.346,58.669z"/>
<path class="st0" d="M134.876,115.47c0-2.547-2.084-4.629-4.629-4.629h-4.631c-2.547,0-4.63,2.083-4.63,4.629v7.245l13.89,10.622
	V115.47z"/>
<path class="st0" d="M203.875,88.883L160.4,55.634c-1.044-0.8-2.346-1.242-3.664-1.242c-1.317,0-2.619,0.44-3.665,1.242
	l-43.474,33.249c-2.642,2.021-3.148,5.815-1.127,8.458c1.149,1.504,2.897,2.367,4.793,2.367c1.334,0,2.6-0.429,3.662-1.24
	c0,0,23.919-19.44,34.731-27.253c0.017-0.012,0.032-0.017,0.049-0.027c1.351-0.969,3.102-1.559,5.021-1.559
	c1.874,0,3.59,0.558,4.925,1.486c0.039,0.021,0.077,0.037,0.118,0.065c10.786,7.79,34.778,27.287,34.778,27.287
	c1.061,0.811,2.325,1.241,3.66,1.241c1.897,0,3.643-0.863,4.796-2.37C207.021,94.698,206.517,90.905,203.875,88.883z"/>
<path class="st0" d="M146.405,145.683l-43.475-33.249c-1.045-0.801-2.346-1.241-3.664-1.241c-1.318,0-2.619,0.44-3.666,1.241
	l-43.474,33.249c-2.642,2.021-3.148,5.815-1.127,8.458c1.149,1.505,2.898,2.367,4.794,2.367c1.333,0,2.601-0.43,3.661-1.24
	c0,0,23.92-19.441,34.731-27.254c0.016-0.012,0.033-0.016,0.05-0.027c1.349-0.969,3.1-1.559,5.02-1.559
	c1.874,0,3.589,0.558,4.925,1.487c0.039,0.021,0.077,0.037,0.117,0.065c10.787,7.79,34.777,27.287,34.777,27.287
	c1.062,0.811,2.327,1.241,3.662,1.241c1.896,0,3.642-0.863,4.796-2.37C149.552,151.498,149.046,147.705,146.405,145.683z"/>
<path class="st0" d="M186.931,96.961l-24.628-18.838c-3.063-2.343-8.073-2.343-11.133,0l-24.632,18.838
	c-0.457,0.35-0.9,0.767-1.326,1.225c0.137-0.002,0.269-0.018,0.406-0.018h4.63c11.086,0,20.104,9.019,20.104,20.105v13.749
	l5.456,4.173c3.149,2.412,5.443,5.532,6.837,8.968h2.363h16.094h4.388c3.855,0,7.009-3.154,7.009-7.009v-29.927
	C192.499,104.373,189.994,99.304,186.931,96.961z"/>
</svg>
