<?xml version="1.0" encoding="utf-8"?>
<!-- (c) mapshakers 2015, Licence: CC0 1.0 Universal, www.mapshakers.com  -->
<!DOCTYPE svg PUBLIC "-//W3C//DTD SVG 1.1//EN" "http://www.w3.org/Graphics/SVG/1.1/DTD/svg11.dtd">
<svg version="1.1" id="volcano" xmlns="http://www.w3.org/2000/svg" xmlns:xlink="http://www.w3.org/1999/xlink" x="0px" y="0px"
	 width="256px" height="256px" viewBox="0 0 256 256" style="enable-background:new 0 0 256 256;" xml:space="preserve">
<style type="text/css">
<![CDATA[
	.st0{fill:#D1D1D1;}
	.st1{fill:#454545;}
]]>
</style>
<path class="st0" d="M235.479,220.732L177.73,115.326c-5.011-9.146-15.434-16.294-25.413-17.838
	c1.656-3.692,2.016-7.218,1.615-10.212c12.743-4.385,20.688-13.681,21.118-14.192c2.643-3.145,7.374-8.21,10.328-11.058
	c1.085-1.045,4.747-5.029,6.295-12.394c1.449-6.897-0.029-13.715-4.06-18.709c-2.733-3.383-5.169-5.676-7.246-6.819
	c-3.065-1.685-8.113-5.468-10.589-7.94c-1.097-1.093-11.111-10.683-25.115-10.683c-11.674,0-20.14,6.263-21.066,6.977
	c-0.747,0.576-3.063,1.379-5.139,1.379c-0.53,0-0.798-0.055-0.851-0.067c-1.62-0.37-4.512-0.557-8.595-0.557
	c-23.917,0-41.952,13.398-41.952,31.166c0,8.838,4.229,13.968,5.076,14.906c1.646,1.822,3.755,6.321,4.104,8.751
	c0.206,1.436,1.279,6.628,6.441,13.179c4.295,5.451,12.012,12.29,16.228,15.881c0.469,0.4,0.908,0.768,1.354,1.143
	c-8.866,2.46-17.557,8.984-21.995,17.088L20.521,220.733c-3.727,6.805-3.97,13.905-0.666,19.481
	c3.12,5.266,8.875,8.285,15.791,8.285h184.708c6.916,0,12.672-3.02,15.791-8.285C239.449,234.638,239.206,227.537,235.479,220.732z"
	/>
<path class="st1" d="M179.835,37.207c-2.884-3.57-4.281-4.339-4.281-4.339c-3.907-2.146-9.684-6.478-12.838-9.625
	c0,0-7.779-7.762-18.052-7.762c-8.605,0-14.963,4.898-14.963,4.898c-3.53,2.72-9.974,4.133-14.318,3.14c0,0-1.344-0.307-6.371-0.307
	c-18.216,0-31.952,9.099-31.952,21.166c0,5.438,2.498,8.204,2.498,8.204c2.987,3.307,5.948,9.623,6.582,14.034
	c0,0,0.496,3.459,4.396,8.409c3.898,4.946,11.689,11.759,14.859,14.458c11.62,9.899,13.404,9.899,15.662,9.899
	c0.164,0,0.344-0.007,0.507-0.018c1.788-0.119,3.494-0.334,5.143-0.543c2.111-0.268,4.105-0.519,5.922-0.519
	c0.602,0,1.145,0.027,1.665,0.082c0.374,0.04,0.746,0.061,1.106,0.061c3.25,0,6.048-1.639,7.482-4.384
	c2.289-4.378,0.571-7.297,0.571-7.297c-2.258-3.842-4.066-7.023-4.015-7.071c0.048-0.047,0.508-0.168,0.911-0.16c0,0,0,0,0.364,0
	c15.858,0,26.681-12.881,26.681-12.881c2.868-3.413,7.839-8.734,11.046-11.827c0,0,2.411-2.322,3.446-7.247
	C182.717,43.629,181.969,39.851,179.835,37.207z M162.275,50.033c-2.865,3.414-7.329,9.173-9.919,12.799
	c0,0-4.087,5.723-14.354,5.723c-1.131,0-1.131,0-1.131,0c-1.201-0.108-2.905,0.591-3.789,1.553c-0.883,0.962-2.4,5.707-0.368,9.673
	c0,0,4.286,8.369,1.591,9.62c-5.155,2.394-9.822,1.503-15.715-0.246c-1.074-0.318-15.969-15.423-20.164-20.748
	c-2.89-3.667-1.071-6.275-1.071-6.275c2.548-3.656,1.714-8.783-1.854-11.392c0,0,0,0,0-3.166c0-5.754,8.311-10.42,18.563-10.42
	c5.145,0,5.595,0.172,5.595,0.172c4.162,1.595,9.859,0.063,12.66-3.402c0,0,2.106-2.607,8.666-2.607
	c6.618,0,8.767,2.706,8.767,2.706c2.771,3.49,7.845,7.507,11.277,8.928c0,0,0,0,2.184,2.703
	C164.556,47.318,162.275,50.033,162.275,50.033z"/>
<path class="st1" d="M226.708,225.537L168.96,120.131c-3.906-7.13-13.156-12.963-20.557-12.963h-40.808
	c-7.4,0-16.651,5.833-20.557,12.963L29.292,225.537c-3.906,7.131-1.046,12.963,6.354,12.963h184.708
	C227.755,238.5,230.614,232.668,226.708,225.537z M190.496,224.131l-41.403-60.514c-4.537-6.63-11.472-6.243-15.411,0.861
	l-2.598,4.686c-3.939,7.104-9.443,6.557-12.231-1.218l-7.19-20.053c-2.788-7.775-8.194-8.355-12.013-1.29s-7.285,5.989-7.702-2.39
	l-0.499-10.019c-0.417-8.38,5.296-15.368,12.695-15.529l36.906-0.802c7.398-0.161,15.813,6.031,18.694,13.762l33.759,90.507
	C196.386,229.863,195.033,230.762,190.496,224.131z"/>
</svg>
