<?xml version="1.0" encoding="utf-8"?>
<!-- (c) mapshakers 2015, Licence: CC0 1.0 Universal, www.mapshakers.com  -->
<!DOCTYPE svg PUBLIC "-//W3C//DTD SVG 1.1//EN" "http://www.w3.org/Graphics/SVG/1.1/DTD/svg11.dtd">
<svg version="1.1" id="watermill" xmlns="http://www.w3.org/2000/svg" xmlns:xlink="http://www.w3.org/1999/xlink" x="0px" y="0px"
	 width="256px" height="256px" viewBox="0 0 256 256" style="enable-background:new 0 0 256 256;" xml:space="preserve">
<style type="text/css">
<![CDATA[
	.st0{fill:#D1D1D1;}
	.st1{fill:#454545;}
]]>
</style>
<path class="st0" d="M245.936,209.217l-0.365-0.396c-0.325-0.358-0.771-0.85-1.391-1.395c-2.613-2.281-5.334-4.398-8.141-6.357
	c1.605-0.452,3.113-1.305,4.354-2.545c3.166-3.164,3.844-8.047,1.658-11.953c-0.396-0.711-9.992-17.492-32.479-24.797
	c-4.629-1.504-9.609-2.267-14.805-2.267c-7.957,0-16.115,1.775-23.929,5.085c0.19-0.367,0.371-0.74,0.528-1.117
	c1.771-4.312,0.695-9.423-2.723-13.285c3.756-2.561,5.654-6.476,5.654-11.676c0-5.236-1.924-9.171-5.727-11.73
	c0.082-0.087,0.166-0.177,0.254-0.269c2.705-2.862,3.479-7.046,1.976-10.687l-1.713-4.129c-1.606-3.86-5.331-6.587-9.825-7.344
	c0.073-0.19,0.15-0.391,0.23-0.601c0.285-0.745,0.451-1.512,0.551-2.281c11.053,8.832,19.501,15.694,19.691,15.85
	c0.076,0.063,0.154,0.124,0.232,0.184c3.702,2.83,8.118,4.326,12.77,4.326c6.604,0,12.695-3.007,16.715-8.256
	c7.043-9.209,5.281-22.435-3.93-29.483l-19.116-14.62c0.112-0.599,0.17-1.213,0.17-1.836V34.963
	c0-10.182-8.284-18.466-18.468-18.466h-8.467c-10.154,0-18.42,8.239-18.467,18.383l-15.157-11.592
	c-3.647-2.791-8.186-4.327-12.779-4.327c-4.595,0-9.134,1.537-12.777,4.326L20.957,84.094c-9.21,7.046-10.972,20.272-3.929,29.481
	c4.011,5.247,10.103,8.257,16.713,8.257c3.443,0,6.753-0.823,9.741-2.395c0.226,2.656,1.318,5.309,3.197,7.574
	c-3.588,2.558-5.403,6.413-5.403,11.503c0,5.334,1.996,9.313,5.942,11.864c-0.06,0.063-0.12,0.127-0.182,0.192
	c-2.708,2.869-3.477,7.062-1.962,10.703l0.563,1.358c1.119,2.698,3.409,5.437,3.87,5.974c0.736,0.853,2.982,3.146,6.652,4.256
	c-0.008,0.021-0.016,0.041-0.023,0.062c-1.292,3.386-0.623,7.166,1.656,9.922c-0.223-0.015-0.445-0.044-0.668-0.044
	c-2.549,0-5.075,0.973-6.995,2.852c-3.246,3.175-3.946,8.138-1.705,12.086c6.233,10.979,13.938,19.502,23.556,26.054
	c6.326,4.31,12.438,7.294,18.688,9.127c6.53,1.915,13.295,2.886,20.107,2.886c7.204,0,14.601-1.085,21.982-3.227
	c7.915-2.294,15.627-5.135,23.085-7.883c2.215-0.815,4.43-1.633,6.646-2.434c13.238-4.781,24.24-7.189,34.629-7.58
	c0.863-0.031,1.724-0.049,2.58-0.049c9.226,0,17.586,1.854,25.554,5.659c1.759,0.843,3.595,1.841,5.538,2.897
	c1.023,0.558,2.074,1.129,3.175,1.713c1.485,0.787,3.093,1.166,4.681,1.166c3.035,0,6.008-1.383,7.955-3.936
	C249.566,218.245,249.285,212.78,245.936,209.217z"/>
<g>
	<path class="st1" d="M237.602,214.957c-5.104-4.457-10.647-8.27-16.672-11.37c-9.963-5.126-20.48-7.776-31.75-7.196
		c-8.007,0.414-15.761,2.188-23.441,4.303c-14.162,3.904-28.489,6.677-43.219,7.324c-13.283,0.582-26.372-0.299-39.195-3.986
		c-9.191-2.643-17.95-6.297-26.204-11.23c5.172,9.109,11.805,16.809,20.49,22.725c4.944,3.367,10.136,6.112,15.873,7.795
		c12.195,3.576,24.471,3.137,36.492-0.35c9.856-2.857,19.453-6.626,29.118-10.115c12.194-4.405,24.601-7.68,37.65-8.168
		c11.493-0.433,22.45,1.625,32.827,6.584c2.951,1.414,5.795,3.053,9.08,4.795C238.111,215.493,237.878,215.2,237.602,214.957z"/>
	<path class="st1" d="M156.218,185.84c22.624-3.417,44.164-12.826,77.104,5.61c0,0-7.822-13.989-26.838-20.167
		C191.227,166.328,171.309,171.913,156.218,185.84z"/>
	<path class="st1" d="M60.392,163.479c0.683,0,1.035-0.111,1.465-0.246c0.17-0.053,0.408-0.084,0.652-0.084
		c0.368,0,0.75,0.069,0.938,0.232c0.314,0.271,2.044,2.868,2.794,4.032c0,0,0,0.185,0.608,1.257
		c0.607,1.069,0.807,2.589,0.442,3.373c-0.364,0.785-0.663,1.426-1.814,4.443c0,0,0.472,0.472,1.048,1.046
		c0.575,0.575,1.994,1.664,3.155,2.416c0,0,0.31,0.202,1.682,0.202c1.374,0,1.374,0,1.374,0c-0.001,0,0.58-0.393,1.291-0.867
		c0.562-0.381,1.579-0.704,2.375-0.704c0.21,0,0.406,0.022,0.573,0.073c0,0,0,0,1.328,0.984c1.327,0.987,4.963,3.498,4.845,3.784
		c-0.12,0.286-0.079,3.879-0.079,3.879c0.016,1.384,0.643,2.771,1.396,3.082c0.751,0.312,1.981,0.749,2.732,0.976c0,0,0,0,0.683,0
		c2.103,0,2.827-0.868,3.712-1.93c0,0,1.333-1.604,1.445-1.873c0.06-0.146,0.28-0.182,0.469-0.182c0.161,0,0.301,0.023,0.301,0.023
		c1.363,0.24,3.568,0.735,4.902,1.101c0,0,3.811,1.05,3.811,1.803c0,0.755,1.462,4.396,1.462,4.396
		c0.514,1.282,0.936,2.333,3.897,2.333c2.959,0,3.384-1.051,3.898-2.333c0,0,1.461-3.642,1.461-4.396
		c0-0.753,0.634-0.978,0.634-0.978c1.303-0.467,3.492-0.983,4.864-1.15c0,0,0.216,0.094,1.513,0.149
		c1.301,0.057,2.769,0.716,3.261,1.468c0.496,0.75,0.9,1.367,2.466,3.184c0,0,0,0,2.103,0c0.687,0,0.687,0,0.687,0
		c0.75-0.224,1.979-0.662,2.73-0.975c0.755-0.313,1.355-1.698,1.342-3.081c0,0,0.02-1.583-0.1-2.646
		c-0.117-1.065-0.065-2.367,0.113-2.899c0.184-0.532,2.742-2.386,3.942-3.071c0.006,0,0.254-0.002,1.461-0.457
		c0.621-0.233,1.304-0.352,1.896-0.352c0.57,0,1.058,0.107,1.328,0.328c0.551,0.449,1.002,0.813,2.334,1.68c0,0,0,0,1.371,0
		c1.369,0,1.683-0.203,1.683-0.203c1.157-0.752,2.577-1.839,3.155-2.417c0.574-0.575,0.604-2.086,0.063-3.36
		c0,0-1.517-3.578-2.011-4.073c-0.497-0.496-0.205-1.082-0.205-1.082c0.613-1.238,1.811-3.147,2.658-4.241
		c0,0,0.227-0.098,1.172-1.003c0.828-0.797,1.828-1.354,2.386-1.354c0.076,0,0.146,0.012,0.202,0.033
		c0.482,0.18,0.875,0.324,1.626,0.551c0,0,0,0,0.687,0c2.103,0,3.312-1.406,3.312-1.406c0.901-1.047,1.896-2.521,2.208-3.271
		c0.311-0.756-0.241-2.165-1.225-3.135c0.002,0-2.738-2.707-3.349-2.961c-0.61-0.253-0.549-0.987-0.549-0.987
		c0.114-1.38,0.429-3.615,0.7-4.971c0,0,0.746-3.749,0.922-3.749c0.18,0,3.379-1.396,3.379-1.396
		c1.268-0.554,2.303-1.004,2.303-3.961c0-2.964-1.037-3.416-2.306-3.969c0,0-3.194-1.393-3.372-1.393
		c-0.176,0-0.283-0.525-0.283-0.525c-0.271-1.354-0.697-3.579-0.939-4.942c0,0,0.07-0.162-0.082-1.372
		c-0.153-1.211,0.24-2.678,0.873-3.261c0.634-0.583,1.15-1.06,3.371-3.408c0,0-0.254-0.615-0.568-1.367
		c-0.313-0.752-0.822-1.982-1.135-2.736c-0.313-0.75-1.697-1.382-3.08-1.399c0,0-0.783-0.01-1.641-0.01
		c-0.974,0-2.045,0.013-2.181,0.068c-0.021,0.01-0.045,0.013-0.069,0.013c-0.254,0-0.591-0.477-0.591-0.477
		c-0.798-1.13-2.063-3.009-2.81-4.17c0,0-0.063-0.301-0.695-1.424c-0.636-1.125-0.85-2.696-0.473-3.493
		c0.375-0.795,0.682-1.448,1.834-4.464c0,0-0.473-0.471-1.047-1.045c-0.574-0.577-1.519-1.521-2.096-2.096
		c-0.308-0.307-0.885-0.465-1.554-0.465c-0.579,0-1.228,0.119-1.824,0.359c0,0-1.339,0.522-2.14,0.901
		c-0.674,0.32-1.487,0.532-1.977,0.532c-0.095,0-0.175-0.007-0.24-0.023c-0.42-0.098-3.02-1.8-4.155-2.592
		c0,0-0.056-0.161-1.022-0.917c-0.969-0.757-1.731-2.083-1.693-2.95c0.035-0.864,0.066-1.573-0.023-4.801
		c0,0-0.617-0.254-1.367-0.565c-0.75-0.312-1.984-0.822-2.737-1.134c-0.146-0.06-0.316-0.089-0.502-0.089
		c-0.784,0-1.865,0.499-2.661,1.28c0,0-1.029,0.984-1.617,1.625c-0.584,0.64-1.41,1.203-1.835,1.253
		c-0.016,0.002-0.036,0.003-0.059,0.003c-0.588,0-3.478-0.601-4.77-0.925c0,0-3.591-0.9-3.591-1.455
		c0-0.555-1.441-4.046-1.441-4.046c-0.527-1.279-0.96-2.326-3.919-2.326c-2.961,0-3.392,1.046-3.92,2.326
		c0,0-1.439,3.49-1.439,4.046c0,0.555-0.681,0.759-0.681,0.759c-1.324,0.401-3.526,0.892-4.896,1.096c0,0-0.182-0.052-0.952-0.052
		c-0.175,0-0.379,0.002-0.618,0.009c-0.037,0.001-0.074,0.002-0.111,0.002c-1.276,0-2.789-0.582-3.408-1.322
		c-0.638-0.763-1.159-1.387-3.506-3.605c0,0-0.615,0.255-1.367,0.568c-0.752,0.312-1.982,0.823-2.735,1.133
		c-0.751,0.313-1.365,1.699-1.361,3.083c0,0-0.022,1.524,0.066,2.518c0.089,0.993-0.015,2.187-0.231,2.653
		c-0.217,0.465-2.818,2.313-4.005,3.025c0,0-0.271,0.023-1.466,0.548c-0.64,0.282-1.426,0.424-2.156,0.424
		c-0.633,0-1.223-0.107-1.636-0.326c-0.89-0.471-1.619-0.855-4.637-2.006c0,0-0.471,0.471-1.046,1.046
		c-0.576,0.575-1.518,1.517-2.094,2.093c-0.575,0.574-0.608,2.089-0.075,3.365c0,0,1.476,3.522,1.908,3.957
		c0.433,0.433,0.125,1.03,0.125,1.03c-0.633,1.229-1.831,3.142-2.662,4.244c0,0-0.237,0.117-1.157,1.051
		c-0.858,0.872-2.3,1.523-3.316,1.523c-0.071,0-0.139-0.004-0.206-0.009c-0.708-0.071-1.327-0.132-2.726-0.132
		c-0.611,0-1.371,0.011-2.354,0.039c0,0-0.254,0.617-0.566,1.368c-0.312,0.752-0.821,1.984-1.133,2.734
		c-0.311,0.752,0.238,2.162,1.223,3.135c0,0,1.084,1.115,1.884,1.768c0.799,0.649,1.628,1.574,1.841,2.055
		c0.214,0.478-0.224,3.555-0.5,4.909c0,0-0.694,3.391-0.922,3.391s-3.467,1.4-3.467,1.4c-1.268,0.547-2.306,0.998-2.306,3.959
		s1.038,3.408,2.306,3.957c0,0,3.239,1.401,3.467,1.401c0.229,0,0.349,0.563,0.349,0.563c0.291,1.351,0.733,3.571,0.984,4.932
		c0,0-0.066,0.185,0.101,1.402c0.167,1.215-0.206,2.685-0.827,3.265c-0.623,0.579-1.131,1.053-3.349,3.401
		c0,0,0.255,0.614,0.565,1.365c0.312,0.751,1.306,2.225,2.207,3.274C57.079,162.075,58.289,163.479,60.392,163.479z M88.129,168.462
		c-0.523,0.522-1.247,0.792-1.969,0.792c-0.627,0-1.255-0.202-1.751-0.609l-5.859-5.731c-0.901-1.052-0.837-2.707,0.141-3.688
		l11.023-11.021c0.488-0.488,1.132-0.733,1.777-0.733c0.644,0,1.29,0.245,1.779,0.733l5.782,5.78c0.978,0.979,0.978,2.578,0,3.558
		L88.129,168.462z M117.5,175.49c0,0-5.459,1.378-9.712,1.378c-3.79,0-8.449-1.044-8.449-1.044c-1.35-0.305-1.654-1.352-0.676-2.33
		l8.17-8.168c0.49-0.49,1.136-0.735,1.781-0.735c0.644,0,1.289,0.245,1.777,0.735l7.769,7.771
		C119.139,174.072,118.841,175.148,117.5,175.49z M101.052,136.865l5.003-5.006c0.489-0.487,1.133-0.732,1.779-0.732
		c0.645,0,1.29,0.245,1.779,0.732l5.782,5.779c0.979,0.98,0.979,2.579,0.001,3.56l-5.005,5.005
		c-0.488,0.488-1.133,0.734-1.779,0.734c-0.645,0-1.289-0.246-1.779-0.734l-5.781-5.781
		C100.074,139.443,100.074,137.845,101.052,136.865z M137.081,162.873l-4.987,5.043c-0.496,0.429-1.131,0.639-1.762,0.639
		c-0.702,0-1.406-0.261-1.92-0.775l-10.238-10.238c-0.979-0.979-0.979-2.578,0-3.559l5.002-5.002
		c0.491-0.489,1.136-0.734,1.78-0.734s1.288,0.245,1.778,0.734l10.194,10.195C137.904,160.15,137.975,161.816,137.081,162.873z
		 M142.415,129.744c0.388-0.389,0.785-0.575,1.144-0.575c0.547,0,1.002,0.435,1.186,1.249l0.855,5.943
		c0.105,1.379,0.1,3.637-0.016,5.014l-1.059,6.796c-0.198,0.81-0.664,1.238-1.217,1.238c-0.365,0-0.769-0.187-1.156-0.576
		l-7.635-7.635c-0.979-0.979-0.979-2.579,0-3.558L142.415,129.744z M128.144,109.771c0.515-0.517,1.219-0.777,1.924-0.777
		c0.634,0,1.268,0.209,1.763,0.635l5.731,5.861c0.881,1.068,0.799,2.743-0.18,3.72l-10.65,10.651
		c-0.489,0.486-1.133,0.732-1.777,0.732c-0.645,0-1.289-0.246-1.779-0.732l-5.782-5.784c-0.98-0.978-0.98-2.579,0-3.555
		L128.144,109.771z M98.49,102.137c0,0,5.201-1.266,9.298-1.266c4.125,0,9.367,1.283,9.367,1.283
		c1.344,0.328,1.646,1.397,0.664,2.376l-8.207,8.206c-0.489,0.488-1.134,0.734-1.778,0.734c-0.645,0-1.289-0.246-1.778-0.734
		l-8.229-8.228C96.848,103.531,97.146,102.462,98.49,102.137z M78.744,114.566l5.042-4.988c0.496-0.419,1.127-0.626,1.758-0.626
		c0.711,0,1.423,0.264,1.942,0.782l10.787,10.787c0.978,0.978,0.978,2.579,0,3.557l-5.004,5.004
		c-0.49,0.488-1.134,0.732-1.779,0.732s-1.289-0.244-1.778-0.732L78.88,118.249C77.903,117.272,77.841,115.615,78.744,114.566z
		 M70.006,136.366l1.167-7.21c0.206-0.808,0.677-1.235,1.234-1.235c0.367,0,0.772,0.188,1.161,0.576l8.366,8.366
		c0.978,0.979,0.978,2.578,0,3.557l-8.483,8.48c-0.389,0.39-0.792,0.578-1.157,0.578c-0.554,0-1.021-0.433-1.219-1.242l-1.076-6.859
		C69.886,139.999,69.889,137.746,70.006,136.366z"/>
	<path class="st1" d="M176.58,34.963c0-4.656-3.811-8.466-8.467-8.466h-8.467c-4.655,0-8.467,3.809-8.467,8.466v13.248l25.4,19.425
		V34.963z"/>
	<path class="st1" d="M104.041,59.671c2.469-1.773,5.671-2.851,9.181-2.851c3.426,0,6.566,1.022,9.009,2.719
		c0.071,0.04,0.142,0.066,0.213,0.118c19.729,14.246,63.602,49.904,63.602,49.904c1.94,1.485,4.257,2.271,6.695,2.271
		c3.467,0,6.663-1.578,8.771-4.331c3.695-4.832,2.768-11.769-2.063-15.465L119.944,31.23c-1.913-1.463-4.293-2.269-6.703-2.269
		c-2.41,0-4.789,0.805-6.702,2.269L27.032,92.036c-4.832,3.696-5.757,10.634-2.061,15.466c2.104,2.752,5.3,4.33,8.768,4.33
		c2.438,0,4.755-0.786,6.695-2.27c0,0,43.746-35.55,63.517-49.84C103.981,59.7,104.01,59.69,104.041,59.671z"/>
</g>
</svg>
