<?xml version="1.0" encoding="utf-8"?>
<!-- (c) mapshakers 2015, Licence: CC0 1.0 Universal, www.mapshakers.com  -->
<!DOCTYPE svg PUBLIC "-//W3C//DTD SVG 1.1//EN" "http://www.w3.org/Graphics/SVG/1.1/DTD/svg11.dtd">
<svg version="1.1" id="waterwork" xmlns="http://www.w3.org/2000/svg" xmlns:xlink="http://www.w3.org/1999/xlink" x="0px" y="0px"
	 width="256px" height="256px" viewBox="0 0 256 256" style="enable-background:new 0 0 256 256;" xml:space="preserve">
<style type="text/css">
<![CDATA[
	.st0{fill:#464646;}
	.st1{fill:#D1D1D1;}
]]>
</style>
<path class="st1" d="M232.199,209.633c-0.168-0.178-0.301-0.324-0.412-0.447c-0.363-0.4-0.814-0.899-1.451-1.457
	c-6.287-5.492-13.132-10.158-20.348-13.873c-11.752-6.045-23.918-9.111-36.155-9.111c-1.28,0-2.584,0.033-3.872,0.101
	c-10.299,0.531-19.898,2.866-27.936,5.08c-12.004,3.31-23.072,5.527-33.544,6.743c0.114-0.297,0.222-0.6,0.318-0.911
	c0.582-1.881,1.246-3.772,1.948-5.776c0.152-0.435,0.305-0.869,0.457-1.305c1.382-0.57,2.772-1.17,4.163-1.798
	c1.25,0.599,2.503,1.185,3.752,1.765l1.004,0.461c0.446,0.203,0.893,0.405,1.336,0.619l0.061,0.034
	c0.943,0.526,3.15,1.761,6.186,1.761c0.527,0,1.06-0.037,1.53-0.105c2.521-0.352,4.799-1.537,6.594-3.444
	c1.077-1.147,2.195-2.28,3.382-3.479l1.399-1.42c1.216-1.236,2.42-2.479,3.621-3.752c0.488-0.52,0.904-1.069,1.264-1.642
	c4.258,0.952,8.621,1.44,13.007,1.441c0.001,0,0.001,0,0.003,0c24.551,0,46.338-14.854,55.503-37.841
	c5.269-13.214,5.474-27.413,0.625-43.403c-4.435-14.634-11.233-29.18-22.047-47.165c-6.916-11.505-15.147-23.52-25.164-36.723
	c-0.405-0.535-0.766-0.933-1.085-1.283l-0.408-0.456c-1.904-2.152-4.635-3.376-7.492-3.376c-0.146,0-0.295,0.003-0.441,0.01
	c-3.018,0.133-5.813,1.623-7.605,4.054c-1.021,1.386-2.035,2.742-3.035,4.082c-2.238,3.002-4.354,5.837-6.465,8.828
	c-9.707,13.759-21.966,32.14-31.301,52.953c-0.314-0.875-0.636-1.748-0.938-2.629c-1.711-4.977-6.003-8.069-11.201-8.069
	c-0.049,0-0.151,0.001-0.2,0.001c-1.858,0.027-3.717,0.042-5.576,0.042c-1.805,0-3.611-0.014-5.419-0.045
	c-0.055-0.001-0.188-0.002-0.244-0.002c-5.272,0-9.62,3.107-11.348,8.114c-0.67,1.945-1.508,4.337-2.452,6.826
	c-1.265,0.526-2.566,1.049-3.897,1.567c-2.385-1.116-4.705-2.258-6.898-3.349c-1.902-0.947-3.749-1.408-5.646-1.408
	c-3.204,0-6.254,1.359-8.592,3.83c-2.171,2.296-4.558,4.686-7.509,7.519c-3.926,3.768-4.858,9.139-2.432,14.018
	c1.28,2.572,2.328,4.743,3.244,6.722c-0.583,1.306-1.193,2.634-1.829,3.976c-2.369,0.846-4.874,1.695-7.584,2.573
	c-5.313,1.717-8.543,6.233-8.429,11.788c0.069,3.375,0.07,6.887,0.002,10.73c-0.097,5.484,3.111,9.936,8.366,11.611
	c1.772,0.566,3.534,1.176,5.4,1.82c0.657,0.227,1.314,0.453,1.973,0.678c0.571,1.397,1.198,2.818,1.89,4.279
	c-0.479,1.002-0.938,1.993-1.389,2.967c-0.571,1.233-1.141,2.468-1.736,3.681c-2.355,4.788-1.444,10.063,2.385,13.774
	c2.811,2.721,5.343,5.254,7.733,7.737c3.005,3.129,6.298,3.786,8.531,3.786c1.853,0,3.7-0.454,5.486-1.35
	c2.525-1.262,4.731-2.328,6.754-3.262c1.292,0.555,2.631,1.149,4.031,1.787c0.784,2.169,1.589,4.502,2.294,6.823
	c0.188,0.616,0.414,1.2,0.666,1.761c-6.446-0.669-12.5-1.811-18.264-3.469c-9.736-2.8-18.394-6.506-26.467-11.331
	c-1.592-0.952-3.365-1.416-5.127-1.416c-2.549,0-5.075,0.974-6.995,2.851c-3.246,3.174-3.946,8.139-1.705,12.086
	c6.78,11.944,15.158,21.213,25.613,28.336c6.87,4.68,13.504,7.92,20.282,9.908c7.094,2.08,14.442,3.135,21.842,3.135
	c7.832,0,15.876-1.182,23.91-3.51c6.591-1.912,13.064-4.174,19.387-6.473c-2.772,2.992-3.479,7.416-1.663,11.156
	c1.695,3.492,5.222,5.633,8.992,5.633c0.646,0,1.3-0.063,1.952-0.191c4.326-0.86,8.599-1.865,12.729-2.839
	c11.381-2.678,22.131-5.208,34.898-5.208c10.406,0,21.021,1.729,32.449,5.285c0.982,0.307,1.982,0.453,2.972,0.453
	c3.403,0,6.662-1.744,8.519-4.762c2.076-3.375,1.937-7.598-0.209-10.801c1.82-0.621,3.478-1.766,4.717-3.39
	C235.827,218.662,235.548,213.197,232.199,209.633z"/>
<g>
	<path class="st0" d="M32.637,141.173c-0.02,1.106,0.368,1.578,1.412,1.911c3.459,1.105,6.871,2.357,10.324,3.488
		c1.197,0.389,1.846,0.992,2.308,2.271c1.051,2.917,2.335,5.766,3.739,8.533c0.679,1.339,0.861,2.369,0.138,3.762
		c-1.581,3.051-2.928,6.221-4.443,9.307c-0.443,0.9-0.368,1.466,0.365,2.177c2.708,2.62,5.379,5.28,7.992,7.997
		c0.757,0.788,1.346,0.914,2.333,0.42c3.306-1.653,6.639-3.262,10.025-4.744c0.682-0.297,1.728-0.195,2.45,0.102
		c3.232,1.33,6.423,2.76,9.587,4.242c0.611,0.286,1.278,0.881,1.503,1.488c1.269,3.402,2.499,6.824,3.555,10.297
		c0.468,1.537,1.214,1.988,2.771,1.932c3.439-0.123,6.888-0.084,10.33-0.016c1.211,0.024,1.827-0.279,2.218-1.541
		c1.073-3.467,2.362-6.867,3.504-10.314c0.358-1.079,0.98-1.608,2.062-2.026c3.078-1.187,6.113-2.505,9.092-3.927
		c1.023-0.487,1.758-0.654,2.84-0.111c0.773,0.387,1.551,0.768,2.33,1.143c1.417,0.685,2.842,1.351,4.267,2.013
		c0.867,0.403,1.744,0.788,2.603,1.207c0.625,0.305,1.285,0.815,1.915,0.724c0.232-0.031,0.458-0.146,0.676-0.377
		c1.615-1.722,3.291-3.383,4.945-5.07c1.168-1.188,2.326-2.384,3.471-3.596c0.359-0.382,0.383-1.428,0.138-1.977
		c-1.508-3.375-3.176-6.678-4.696-10.049c-0.275-0.614-0.342-1.504-0.123-2.135c1.146-3.299,2.369-6.574,3.681-9.813
		c0.271-0.67,0.926-1.397,1.581-1.661c3.188-1.285,6.418-2.468,9.666-3.587c1.199-0.413,1.753-0.94,1.707-2.33
		c-0.116-3.572-0.09-7.15-0.012-10.723c0.027-1.231-0.343-1.851-1.543-2.255c-3.193-1.079-6.316-2.367-9.517-3.428
		c-1.207-0.399-1.665-1.106-2.063-2.232c-1.084-3.048-2.389-6.017-3.502-9.056c-0.25-0.682-0.338-1.635-0.057-2.265
		c1.555-3.495,3.289-6.911,4.846-10.406c0.229-0.517,0.082-1.53-0.296-1.934c-2.575-2.751-5.296-5.363-7.883-8.101
		c-0.834-0.881-1.486-0.876-2.507-0.364c-3.245,1.629-6.522,3.204-9.846,4.664c-0.688,0.302-1.709,0.242-2.444-0.021
		c-3.11-1.111-6.134-2.463-9.264-3.508c-1.136-0.38-1.716-0.908-2.088-1.978c-1.148-3.308-2.4-6.579-3.536-9.891
		c-0.323-0.942-0.768-1.333-1.797-1.319c-3.768,0.055-7.539,0.062-11.308-0.003c-1.089-0.018-1.614,0.335-1.971,1.371
		c-1.161,3.369-2.365,6.728-3.696,10.034c-0.28,0.696-1.078,1.361-1.797,1.673c-3.086,1.343-6.216,2.594-9.37,3.771
		c-0.684,0.255-1.649,0.325-2.288,0.039c-3.374-1.51-6.699-3.134-10.01-4.78c-0.984-0.491-1.653-0.567-2.513,0.342
		c-2.544,2.691-5.179,5.299-7.85,7.863c-0.8,0.769-0.888,1.374-0.403,2.349c1.647,3.31,3.256,6.643,4.742,10.028
		c0.294,0.671,0.207,1.707-0.093,2.41c-1.369,3.214-2.834,6.391-4.37,9.529c-0.32,0.654-0.994,1.337-1.662,1.585
		c-3.525,1.311-7.086,2.53-10.665,3.689c-1.103,0.356-1.53,0.875-1.506,2.065C32.71,133.764,32.702,137.469,32.637,141.173z
		 M91.96,112.435c12.621,0.043,22.886,10.48,22.849,23.237c-0.036,12.799-10.379,23.051-23.241,23.031
		c-12.864-0.018-23.075-10.411-23.027-23.438C68.588,122.537,78.995,112.392,91.96,112.435z"/>
	<path class="st0" d="M127.538,80.824c2.065,0,5.106,0.61,7.86,3.52c1.168,1.236,2.36,2.442,3.625,3.719
		c1.406,1.42,2.858,2.888,4.289,4.416c2.857,3.056,3.655,7.873,1.945,11.718c-0.822,1.847-1.68,3.646-2.508,5.386
		c-0.43,0.904-0.848,1.781-1.253,2.648c0.237,0.605,0.483,1.219,0.735,1.85c0.371,0.929,0.75,1.876,1.123,2.845
		c0.877,0.317,1.735,0.638,2.582,0.954c1.485,0.555,2.891,1.079,4.285,1.55c4.899,1.653,7.758,5.751,7.644,10.958
		c-0.091,4.127-0.087,7.282,0.01,10.229c0.171,5.226-2.729,9.379-7.757,11.11c-2.446,0.844-4.686,1.654-6.775,2.457
		c-0.6,1.543-1.191,3.121-1.77,4.728c0.392,0.835,0.789,1.67,1.188,2.504c0.834,1.749,1.695,3.558,2.521,5.406
		c0.082,0.182,0.156,0.37,0.229,0.563c23.008,6.251,49.166-4.629,59.207-29.815c4.86-12.188,4.074-24.497,0.344-36.799
		c-4.845-15.988-12.482-30.669-21.047-44.913c-7.475-12.434-15.803-24.286-24.564-35.838c-0.215-0.284-0.471-0.537-1.016-1.152
		c-3.25,4.405-6.395,8.514-9.377,12.738c-11.766,16.677-22.697,33.853-30.939,52.592c1.346-0.644,2.746-1.329,4.225-2.071
		C124.095,81.249,125.793,80.824,127.538,80.824z M168.262,136.893c1.273-1.894,2.613-3.74,3.867-5.645
		c6.037-9.17,9.646-19.191,9.521-30.223c-0.071-6.306-0.998-12.602-1.516-18.592c-0.119-0.155,0.063,0.015,0.168,0.225
		c4.385,8.908,8.465,17.913,10.823,27.639c2.737,11.289,1.065,21.755-5.075,31.551c-2.316,3.694-5.681,5.934-9.935,6.793
		c-3.532,0.713-6.849-0.578-8.606-3.311C165.586,142.342,166.464,139.559,168.262,136.893z"/>
	<path class="st0" d="M178.8,203.961c12.644-0.477,24.702,1.789,36.123,7.246c3.246,1.553,6.375,3.355,9.989,5.273
		c-0.592-0.631-0.848-0.953-1.154-1.221c-5.613-4.904-11.714-9.1-18.343-12.512c-10.964-5.641-22.54-8.557-34.938-7.918
		c-8.812,0.455-17.344,2.406-25.793,4.734c-15.584,4.295-31.35,7.346-47.558,8.059c-14.616,0.641-29.018-0.328-43.128-4.387
		c-10.113-2.908-19.751-6.93-28.833-12.357c5.69,10.023,12.989,18.496,22.547,25.008c5.44,3.705,11.153,6.725,17.466,8.578
		c13.418,3.934,26.926,3.451,40.152-0.385c10.845-3.146,21.407-7.291,32.042-11.131C150.789,208.104,164.443,204.5,178.8,203.961z"
		/>
	<path class="st0" d="M188,217.625c-17.293-2.619-38.383,3.723-53.166,16.375c24.316-4.833,46.707-14.417,84.999-2.5
		C219.833,231.5,209.555,220.891,188,217.625z"/>
</g>
</svg>
