<?xml version="1.0" encoding="utf-8"?>
<!-- (c) mapshakers 2015, Licence: CC0 1.0 Universal, www.mapshakers.com  -->
<!DOCTYPE svg PUBLIC "-//W3C//DTD SVG 1.1//EN" "http://www.w3.org/Graphics/SVG/1.1/DTD/svg11.dtd">
<svg version="1.1" id="wind_generator" xmlns="http://www.w3.org/2000/svg" xmlns:xlink="http://www.w3.org/1999/xlink" x="0px" y="0px"
	 width="256px" height="256px" viewBox="0 0 256 256" style="enable-background:new 0 0 256 256;" xml:space="preserve">
<style type="text/css">
<![CDATA[
	.st0{fill:#D1D1D1;}
	.st1{fill:#454545;}
]]>
</style>
<path class="st0" d="M229.111,135.12c-4.38-2.605-10.511-5.625-18.22-8.975c-14.129-6.138-31.769-12.603-46.034-16.869
	c-9.549-2.856-15.938-4.219-20.715-4.421l-1.195-0.05c-0.672-0.917-1.406-1.802-2.247-2.621c-0.833-0.813-1.734-1.53-2.672-2.183
	l-0.075-1.125c-0.313-4.68-1.652-10.891-4.342-20.139c-4.066-13.977-10.224-31.37-16.069-45.393
	C107.75,9.854,102.582,3.061,94.503,3.061c-1.052,0-2.094,0.15-3.095,0.446c-9.326,2.75-8.808,13.691-8.587,18.364
	c0.239,5.061,1.075,11.818,2.484,20.082c2.585,15.16,6.772,33.45,10.927,47.731c3.125,10.742,5.63,17.107,8.379,21.286l0.762,1.158
	l-0.964,0.515c-4.343,2.319-9.542,6.47-17.385,13.879c-10.026,9.474-22.207,22.322-31.789,33.529
	c-17.268,20.196-18.822,26.01-18.933,30.233c-0.081,3.09,1.002,5.977,3.048,8.124c2.117,2.226,5.053,3.451,8.267,3.452
	c0.025,0,0.051,0,0.076,0c3.119,0,8.423-0.139,30.968-17.319c7.658-5.836,16.067-12.731,23.765-19.444l-5.387,91.588h52.648
	l-6.628-112.691c2.943,1.085,6.396,2.214,10.479,3.436c22.166,6.631,55.778,13.731,70.486,13.731c0.001,0,0.001,0,0.001,0
	c8.723,0,14.012-2.949,15.717-8.757C242.49,143.078,232.771,137.297,229.111,135.12z"/>
<g>
	<circle class="st1" cx="126.143" cy="117.118" r="10.855"/>
	<path class="st1" d="M112.965,105.472c3.237-3.681,7.969-6.017,13.256-6.017c0.592,0,1.177,0.032,1.754,0.089
		c-0.243-3.622-1.357-9.041-3.966-18.014c-7.975-27.412-24.755-69.914-29.773-68.432c-5.02,1.48,3.624,46.382,11.598,73.792
		C108.859,97.289,111.017,102.51,112.965,105.472z"/>
	<path class="st1" d="M119.727,133.53c-5.221-2.067-9.208-6.546-10.607-12.067c-3.177,1.696-7.668,5.185-15.227,12.326
		c-20.75,19.607-50.906,53.937-47.298,57.725c3.607,3.791,39.616-24.395,60.363-44C114.14,140.728,117.812,136.555,119.727,133.53z"
		/>
	<path class="st1" d="M161.992,118.857c-9.254-2.768-14.681-3.859-18.271-4.01c0.096,0.745,0.162,1.5,0.162,2.271
		c0,5.35-2.388,10.133-6.146,13.373c2.982,2.013,8.264,4.245,18.668,7.357c27.35,8.182,72.206,16.973,73.745,11.729
		C231.696,144.332,189.34,127.037,161.992,118.857z"/>
	<path class="st1" d="M127.538,134.119l-2.764,4.366c-2.195,3.466-5.809,7.6-11.54,13.178l-5.588,95.021h31.438l-6.708-114.046
		C130.839,133.311,129.219,133.808,127.538,134.119z"/>
</g>
</svg>
