<?xml version="1.0" encoding="utf-8"?>
<!-- (c) mapshakers 2015, Licence: CC0 1.0 Universal, www.mapshakers.com  -->
<!DOCTYPE svg PUBLIC "-//W3C//DTD SVG 1.1//EN" "http://www.w3.org/Graphics/SVG/1.1/DTD/svg11.dtd">
<svg version="1.1" id="zoo" xmlns="http://www.w3.org/2000/svg" xmlns:xlink="http://www.w3.org/1999/xlink" x="0px" y="0px"
	 width="256px" height="256px" viewBox="0 0 256 256" style="enable-background:new 0 0 256 256;" xml:space="preserve">
<style type="text/css">
<![CDATA[
	.st0{fill:#D1D1D1;}
	.st1{fill:#454545;}
]]>
</style>
<path class="st0" d="M203.4,57.808c-9.93-8.523-21.788-15.21-34.914-19.728c1.927-4.243,3.514-8.601,4.6-11.827
	c1.507-4.477-0.327-9.394-4.395-11.796c-1.583-0.936-3.338-1.39-5.079-1.39c-2.729,0-5.427,1.115-7.376,3.24
	c-2.637,2.872-5.77,5.769-8.514,7.968c-0.209-2.035-0.375-4.214-0.466-6.257c-0.21-4.817-3.829-8.797-8.604-9.466
	c-0.467-0.065-0.932-0.097-1.393-0.097c-4.248,0-8.104,2.711-9.48,6.838c-1.033,3.099-2.304,6.418-3.361,8.863
	c-1.775-0.542-3.483-1.373-4.283-1.853c-1.612-0.996-3.435-1.493-5.256-1.493c-1.907,0-3.813,0.545-5.474,1.631
	c-3.247,2.124-4.972,5.934-4.427,9.774c0.033,0.231,0.1,0.654,0.22,1.232c-20.038,3.642-38.276,12.05-52.616,24.361
	c-27.954,3.323-49.352,27.099-49.352,55.65c0,25.063,16.284,46.675,40.01,53.706c3,3.424,6.305,6.662,9.888,9.689
	c-0.479,1.24-0.915,2.488-1.305,3.74c-1.001,3.217-0.315,6.723,1.826,9.325c0.523,0.636,1.085,1.251,1.666,1.856
	c-0.338,0.146-0.674,0.299-0.999,0.483c-3.322,1.886-5.28,5.5-5.045,9.313c1.156,18.742,13.165,50.184,80.6,50.184
	c22.502,0,40.83-3.505,54.475-10.417c17.199-8.713,26.71-22.839,27.502-40.85c0.169-3.84-1.878-7.437-5.266-9.253
	c-0.383-0.205-0.775-0.381-1.174-0.533c0.734-0.833,1.434-1.685,2.062-2.572c1.85-2.614,2.335-5.957,1.305-8.989
	c-0.64-1.886-1.38-3.751-2.214-5.589c2.184-2.048,4.248-4.18,6.179-6.383c23.739-7.024,40.031-28.639,40.031-53.712
	C252.771,84.901,231.365,61.124,203.4,57.808z"/>
<circle class="st1" cx="97.292" cy="111.825" r="23.713"/>
<g>
	<path class="st1" d="M129.873,203.134c29.165,0,59.846-7.22,69.433-20.774c-8.37-24.648-35.976-42.746-68.763-42.746
		c-33.323,0-61.31,18.689-69.172,43.955C71.882,196.344,101.589,203.134,129.873,203.134z M137.374,147.298
		c3.587-2.068,8.17-0.837,10.238,2.75l7.186,12.46c2.066,3.588,0.836,8.172-2.751,10.24c-1.179,0.681-2.467,1.005-3.737,1.005
		c-2.593,0-5.113-1.348-6.502-3.755l-7.185-12.46C132.556,153.95,133.787,149.366,137.374,147.298z M104.792,162.508l7.184-12.46
		c2.068-3.587,6.654-4.817,10.239-2.75c3.587,2.066,4.819,6.652,2.75,10.24l-7.184,12.46c-1.388,2.407-3.91,3.755-6.501,3.755
		c-1.271,0-2.559-0.324-3.738-1.005C103.955,170.681,102.724,166.096,104.792,162.508z"/>
	<path class="st1" d="M129.873,217.704c-21.83,0-42.294-3.497-57.624-9.848c-5.154-2.135-9.436-4.461-12.997-6.897
		c1.853,30.027,32.417,40.8,70.619,40.8c38.584,0,70.636-10.998,71.986-41.706C185.356,212.098,157.536,217.704,129.873,217.704z"/>
</g>
<path class="st1" d="M119.073,40.653c-3.509-5.016-4.194-9.842-4.194-9.842s7.81,4.825,14.666,3.707
	c2.51-0.41,7.722-16.063,7.722-16.063s0.804,18.373,3.852,19.305c7.065,2.163,22.49-14.697,22.49-14.697s-5.546,16.48-9.808,20.101
	c-4.044,3.435-20.329,6.102-20.329,6.102S121.479,44.089,119.073,40.653z"/>
<path class="st1" d="M199.229,67.481c-17.295-15.972-42.795-26.073-71.236-26.073c-28.442,0-53.942,10.101-71.238,26.074
	c-24.258,1.312-43.525,21.393-43.525,45.979c0,21.844,15.214,40.121,35.62,44.849c16.822,20.76,45.983,34.491,79.144,34.491
	c33.158,0,62.316-13.729,79.139-34.487c20.416-4.722,35.639-23.002,35.639-44.853C242.771,88.87,223.497,68.786,199.229,67.481z
	 M190.499,143.363c-5.682,19.382-19.68,33.097-36.064,33.097c-10.221,0-19.514-5.346-26.441-14.066
	c-6.929,8.721-16.22,14.066-26.442,14.066c-16.403,0-30.418-13.75-36.086-33.169c-15.114-1.544-26.906-14.31-26.906-29.83
	c0-16.562,13.426-29.987,29.987-29.987c2.662,0,5.243,0.352,7.702,1.003c6.792-7.902,15.63-12.693,25.303-12.693
	c10.222,0,19.515,5.346,26.442,14.068c6.928-8.722,16.221-14.068,26.441-14.068c9.76,0,18.67,4.876,25.486,12.908
	c2.686-0.788,5.523-1.218,8.461-1.218c16.561,0,29.986,13.425,29.986,29.987C218.368,129.31,206.071,142.275,190.499,143.363z"/>
<circle class="st1" cx="161.202" cy="111.825" r="23.713"/>
</svg>