<?xml version="1.0" encoding="utf-8"?>
<!-- Generator: Adobe Illustrator 16.0.0, SVG Export Plug-In . SVG Version: 6.00 Build 0)  -->
<!DOCTYPE svg PUBLIC "-//W3C//DTD SVG 1.1//EN" "http://www.w3.org/Graphics/SVG/1.1/DTD/svg11.dtd">
<svg version="1.1" id="zoo" xmlns="http://www.w3.org/2000/svg" xmlns:xlink="http://www.w3.org/1999/xlink" x="0px" y="0px"
	 width="300px" height="300px" viewBox="10.599 -39.792 300 300" style="enable-background:new 10.599 -39.792 300 300;"
	 xml:space="preserve">
<style type="text/css">
<![CDATA[
	.st0{fill:#0A749E;}
]]>
</style>
<g>
	<path class="st0" d="M96.221,207.994c-5.718-2.367-10.468-4.946-14.416-7.647c2.055,33.307,35.957,45.256,78.331,45.256
		c42.798,0,78.351-12.199,79.848-46.262c-18.304,13.358-49.161,19.58-79.846,19.58C135.924,218.921,113.225,215.041,96.221,207.994z
		"/>
	<path class="st0" d="M251.418,37.932c-15.946-14.729-37.372-25.534-61.727-30.387c0.305-0.2,0.589-0.401,0.829-0.604
		c5.432-4.615,12.501-25.619,12.501-25.619s-19.66,21.488-28.663,18.73c-3.886-1.188-4.909-24.604-4.909-24.604
		s-6.644,19.949-9.842,20.474c-8.738,1.424-18.692-4.726-18.692-4.726s0.873,6.15,5.347,12.543c0.338,0.482,0.832,0.994,1.431,1.521
		C116.696,7.921,89.223,20.03,69.838,37.933c-30.918,1.672-55.473,27.266-55.473,58.6c0,27.84,19.39,51.133,45.396,57.161
		c4.68,5.773,10.106,11.121,16.174,15.953c-1.256,2.676-2.34,5.422-3.215,8.238c13.395,16.28,51.256,24.936,87.305,24.936
		c37.17,0,76.271-9.201,88.492-26.477c-0.809-2.379-1.772-4.701-2.854-6.979c5.926-4.756,11.239-10.004,15.828-15.666
		c26.021-6.02,45.421-29.315,45.421-57.167C306.913,65.193,282.348,39.595,251.418,37.932z M169.585,131.658
		c4.571-2.635,10.413-1.065,13.048,3.504l9.159,15.881c2.632,4.572,1.065,10.414-3.507,13.052c-1.502,0.869-3.144,1.28-4.762,1.28
		c-3.307,0-6.518-1.719-8.286-4.784l-9.158-15.882C163.445,140.137,165.014,134.296,169.585,131.658z M153.77,144.709l-9.156,15.882
		c-1.769,3.065-4.982,4.784-8.285,4.784c-1.62,0-3.261-0.411-4.764-1.28c-4.571-2.633-6.142-8.479-3.505-13.052l9.155-15.881
		c2.637-4.569,8.48-6.139,13.05-3.504C154.836,134.291,156.407,140.137,153.77,144.709z M240.292,134.642
		c-1.761,6.006-4.152,11.582-7.059,16.586c-16.613-17.84-42.828-29.363-72.354-29.363c-29.705,0-56.07,11.662-72.672,29.687
		c-3.006-5.111-5.468-10.83-7.268-17c-19.265-1.968-34.292-18.238-34.292-38.019c0-21.106,17.11-38.218,38.218-38.218
		c3.393,0,6.683,0.448,9.816,1.278c8.655-10.07,19.92-16.178,32.248-16.178c13.027,0,24.872,6.813,33.7,17.93
		c8.829-11.115,20.674-17.93,33.699-17.93c12.438,0,23.794,6.215,32.48,16.45c3.424-1.004,7.038-1.552,10.782-1.552
		c21.107,0,38.219,17.11,38.219,38.218C275.812,116.734,260.138,133.259,240.292,134.642z"/>
	<path class="st0" d="M207.221,74.976c-32.287-4.023-38.002,29.579-38.002,29.579s16.366-8.044,35.029-5.719
		c18.661,2.326,32.555,14.142,32.555,14.142S239.509,78.999,207.221,74.976z"/>
	<path class="st0" d="M115.963,74.695c-32.18,4.797-28.659,38.7-28.659,38.7s13.713-11.418,32.313-14.19
		c18.604-2.772,35.048,4.15,35.048,4.15S148.146,69.899,115.963,74.695z"/>
</g>
</svg>
