<?xml version="1.0" encoding="utf-8"?>
<!-- Generator: Adobe Illustrator 16.0.0, SVG Export Plug-In . SVG Version: 6.00 Build 0)  -->
<!DOCTYPE svg PUBLIC "-//W3C//DTD SVG 1.1//EN" "http://www.w3.org/Graphics/SVG/1.1/DTD/svg11.dtd">
<svg version="1.1" id="Layer_1" xmlns="http://www.w3.org/2000/svg" xmlns:xlink="http://www.w3.org/1999/xlink" x="0px" y="0px"
	 width="500px" height="500px" viewBox="0 0 500 500" style="enable-background:new 0 0 500 500;" xml:space="preserve">
<style type="text/css">
<![CDATA[
	.st0{fill:#464646;}
	.st1{fill:#29B5E7;}
	.st2{fill:#454545;}
]]>
</style>
<path class="st0" d="M142.924,124.254c19.245-2.458,35.6-0.919,36.001,0.514c1.579,5.646-3.03,10.66-6.733,10.66h-56.666
	c-3.703,0-9.255-5.367-6.733-10.66C109.717,122.832,126.371,126.368,142.924,124.254z M108.367,99.603
	c-2.522,1.831,4.933,1.083,6.733,3.686c1.694,2.45,3.69,6.12,4.797,5.1c1.683-1.549,5.892-5.819,21.788-4.959
	c2.444,0.132,30.081-0.14,30.081-0.14c3.703,0,9.12-2.428,7.541-4.38c-0.402-0.496-6.359-0.619-36.872-1.779
	C125.847,96.5,109.29,98.934,108.367,99.603z M177.345,92.989c-0.731-0.053-1.575-0.098-2.572-0.149
	c-3.447-0.179-9.141-0.392-18.576-0.744c-3.886-0.145-8.398-0.314-13.633-0.512c-1.846-0.071-3.772-0.106-5.724-0.106
	c-8.562,0-16.045,0.68-19.744,1.085c-2.612,0.286-4.559,0.551-6.022,0.791c-2.438-0.648-2.42-3.36-2.42-6.584
	c0,0,0-20.652,35.068-20.633c35.075,0.019,35.063,20.633,35.063,20.633C178.785,89.564,178.887,91.976,177.345,92.989z
	 M121.695,87.02c0-0.62-0.921-1.122-2.058-1.122c-1.136,0-2.057,0.502-2.057,1.122c0,0.62,0.921,1.122,2.057,1.122
	C120.774,88.142,121.695,87.64,121.695,87.02z M128.781,80.567c0-0.619-0.921-1.122-2.058-1.122s-2.057,0.503-2.057,1.122
	c0,0.62,0.921,1.122,2.057,1.122S128.781,81.188,128.781,80.567z M133.831,84.308c0-0.62-0.921-1.122-2.057-1.122
	c-1.137,0-2.058,0.502-2.058,1.122s0.921,1.122,2.058,1.122C132.909,85.43,133.831,84.928,133.831,84.308z M141.234,71.31
	c0-0.62-0.51-1.122-1.138-1.122s-1.138,0.502-1.138,1.122c0,0.62,0.51,1.122,1.138,1.122S141.234,71.93,141.234,71.31z
	 M147.834,79.445c0-0.619-0.921-1.122-2.057-1.122s-2.057,0.503-2.057,1.122c0,0.62,0.921,1.123,2.057,1.123
	C146.913,80.567,147.834,80.065,147.834,79.445z M158.423,74.677c0-0.775-0.963-1.403-2.15-1.403c-1.188,0-2.151,0.628-2.151,1.403
	s0.963,1.403,2.151,1.403C157.459,76.08,158.423,75.451,158.423,74.677z M164.033,83.653c0-0.619-0.921-1.122-2.056-1.122
	c-1.137,0-2.057,0.503-2.057,1.122c0,0.62,0.92,1.122,2.057,1.122C163.112,84.775,164.033,84.273,164.033,83.653z M178.842,108.956
	c-2.302,1.156-5.1,1.711-7.076,1.711c-0.146,0.003-17.966,0.176-26.154,0.176c-0.001,0-0.001,0-0.001,0c-3,0-3.78-0.023-4.107-0.041
	c-1.33-0.071-2.62-0.108-3.835-0.108c-10.977,0-14.056,2.85-15.37,4.066l-0.129,0.12c-0.743,0.684-1.701,1.061-2.697,1.061
	c-2.721,0-4.34-2.477-6.215-5.342c-0.286-0.438-0.57-0.873-0.846-1.276c-0.506-0.347-2.119-0.68-2.907-0.843
	c-0.703-0.146-1.467-0.306-2.184-0.568c-1.956,1.739-3.319,3.353-3.319,5.208c0,2.574,2.681,4.02,5.803,4.679
	c15.882,3.359,45.397-3.105,63.019-0.892c7.107,0.892,8.229-1.214,8.229-3.788C181.052,111.641,180.185,110.314,178.842,108.956z"/>
<path class="st2" d="M380.076,122.867c-1.627-1.627-3.754-2.222-5.145-1.554l-9.805-9.804c6.646-6.353,9.088-7.302,9.088-7.302
	c3.75-1.456,3.561-3.123-0.418-3.702c0,0-6.197-0.904-13.182,3.847l-10.209-11.455l28.164-25.104l2.51-14.897l-14.848,2.036
	l-24.842,27.851l-24.715-27.727l-14.895-2.511l2.035,14.849l28.572,25.483l-10.357,11.611c-6.982-4.751-13.18-3.848-13.18-3.848
	c-3.98,0.58-4.17,2.247-0.42,3.703c0,0,2.443,0.951,9.086,7.3l-9.805,9.804c-1.391-0.665-3.516-0.07-5.143,1.556
	c-1.902,1.904-2.4,4.495-1.107,5.786l3.51,3.511c1.293,1.292,3.883,0.795,5.787-1.109c1.627-1.629,2.221-3.756,1.553-5.147
	l9.803-9.803c6.354,6.646,7.305,9.089,7.305,9.089c1.455,3.75,3.123,3.562,3.703-0.418c0,0,0.902-6.198-3.848-13.182l12.129-10.812
	l11.969,10.675c-4.752,6.983-3.848,13.181-3.848,13.181c0.58,3.98,2.246,4.17,3.703,0.42c0,0,0.951-2.443,7.301-9.088l9.805,9.804
	c-0.668,1.392-0.072,3.518,1.553,5.146c1.904,1.903,4.496,2.399,5.787,1.108l3.512-3.51
	C382.479,127.361,381.98,124.771,380.076,122.867z"/>
<path class="st2" d="M278.578,63.355c-1.408,0-2.561,1.152-2.561,2.56v2.85c0,1.408-1.775,2.667-2.832,2.699
	c-1.141,0.035-3.348-1.291-3.348-2.699v-2.85c0-1.408-1.152-2.56-2.561-2.56h-1.334c-1.408,0-2.561,1.152-2.561,2.56v3.001
	c0,1.409-1.832,2.672-2.953,2.674c-1.141,0-3.229-1.266-3.229-2.674v-3.001c0-1.408-1.15-2.56-2.559-2.56h-1.334
	c-1.408,0-2.561,1.152-2.561,2.56v2.85c0,1.408-1.818,2.636-2.957,2.641c-1.143,0.005-3.224-1.233-3.224-2.641v-2.85
	c0-1.408-1.152-2.56-2.561-2.56h-0.642c-1.407,0-2.501,0.266-2.509-0.878c-0.03-4.74,0.65-6.28,1.506-7.397l2.148-2.803
	c0.856-1.118,1.557-3.185,1.557-4.593V36.861c0-1.409-1.152-2.561-2.56-2.561h-0.924c-1.409,0-2.561,1.152-2.561,2.561v2.85
	c0,1.409-1.867,2.703-3.003,2.695c-1.143-0.007-3.178-1.286-3.178-2.695v-2.85c0-1.409-1.152-2.561-2.56-2.561h-1.335
	c-1.409,0-2.562,1.152-2.562,2.561v3c0,1.408-1.944,2.653-3.037,2.643c-1.143-0.011-3.145-1.235-3.145-2.643v-3
	c0-1.409-1.151-2.561-2.559-2.561h-1.334c-1.408,0-2.56,1.152-2.56,2.561v2.85c0,1.409-1.982,2.669-3.129,2.673
	c-1.142,0.003-3.053-1.264-3.053-2.673v-2.85c0-1.409-1.153-2.561-2.561-2.561h-0.948c-1.408,0-2.56,1.152-2.56,2.561v10.823
	c0,1.408,0.7,3.475,1.557,4.593l2.147,2.804c0.857,1.117,1.557,3.184,1.557,4.593c0,0,0,8.312,0,13.748c0,9.967,0,27.339,0,27.339
	c0,1.408,0,2.841,0,3.185c0,0.343,1.153,0.625,2.561,0.625h17.766c1.409,0,3.713,0,5.121,0h4.627c1.408,0,3.712,0,5.121,0h2.481
	c1.409,0,2.56-1.152,2.56-2.56v-8.815c0-1.408,0.471-3.612,1.047-4.898c0,0,4.385-9.795,11.088-9.795
	c6.701,0,11.086,9.795,11.086,9.795c0.576,1.286,1.047,3.49,1.047,4.898v8.815c0,1.408,1.152,2.56,2.561,2.56h6.674
	c1.408,0,2.561-1.152,2.561-2.56V81.701c0-1.408,0-3.476,0-4.595c0-1.118,0-3.186,0-4.593v-6.599c0-1.408-1.152-2.56-2.561-2.56
	H278.578z M227.239,90.961c0,1.408-1.152,2.56-2.562,2.56h-3.643c-1.408,0-2.56-1.152-2.56-2.56v-6.866
	c0-1.409,0.472-3.611,1.046-4.897c0,0,0.916-2.045,3.336-2.045s3.335,2.045,3.335,2.045c0.576,1.286,1.047,3.489,1.047,4.897V90.961
	z M227.239,66.875c0,1.409-1.152,2.561-2.562,2.561h-3.643c-1.408,0-2.56-1.152-2.56-2.561v-6.865c0-1.408,0.472-3.612,1.046-4.896
	c0,0,0.915-2.045,3.336-2.045c2.42,0,3.335,2.045,3.335,2.045c0.576,1.285,1.047,3.488,1.047,4.896V66.875z"/>
<path class="st2" d="M353.63,426.915l3.738-0.279c-0.373,6.169-9.842,11.565-25.004,11.134c-3.094-8.854-4.697-21.687-4.123-30.984
	c3.902-1.85,10.918-1.572,13.969-1.343c0.26,0.854,0.676,1.409,1.146,1.409c0.789,0,1.43-1.552,1.43-3.466
	c0-1.913-0.641-3.465-1.43-3.465c-0.48,0-0.908,0.582-1.166,1.472c-2.764,0.311-8.771,0.741-13.119-0.717
	c0.52-2.189,1.26-3.869,2.246-4.812c3.512-1.913,5.898-5.638,5.898-9.91c0-6.218-5.059-11.277-11.275-11.277
	c-6.219,0-11.279,5.06-11.279,11.277c0,4.069,2.168,7.642,5.408,9.626c0.811,1.054,1.465,2.888,1.955,5.25
	c-4.648,1.508-11.41,0.866-13.449,0.622c-0.256-0.924-0.691-1.531-1.186-1.531c-0.789,0-1.428,1.552-1.428,3.465
	c0,1.914,0.639,3.466,1.428,3.466c0.49,0,0.922-0.597,1.178-1.507c2.168-0.179,9.734-0.635,14.246,1.211
	c0.793,9.468-0.15,22.495-3.176,31.235c-15.367,0.549-24.752-4.924-25.127-11.155l3.738,0.279l-8.715-7.435
	c0,6.878,3.166,19.759,11.73,23.87c10.086,4.843,17.201,5.588,24.676,16.605v-0.011v0.011c7.475-11.018,14.588-11.763,24.674-16.605
	c8.563-4.11,11.729-16.992,11.729-23.87L353.63,426.915z M320.147,385.954c0-3.193,2.598-5.791,5.791-5.791s5.791,2.598,5.791,5.791
	c0,3.192-2.598,5.791-5.791,5.791S320.147,389.147,320.147,385.954z"/>
<g>
	<path class="st2" d="M123.427,214.199H60.275c-2.012,0-3.658,1.646-3.658,3.658v15.605c0,2.011,1.646,3.656,3.658,3.656h63.152
		c2.011,0,3.657-1.645,3.657-3.656v-15.605C127.084,215.845,125.438,214.199,123.427,214.199z"/>
	<path class="st2" d="M54.058,176.466h75.831c2.012,0,2.554-1.221,1.205-2.713l-13.388-14.813c-1.348-1.492-4.098-2.713-6.11-2.713
		H72.35c-2.012,0-4.761,1.221-6.109,2.714l-13.388,14.812C51.504,175.245,52.046,176.466,54.058,176.466z"/>
	<path class="st2" d="M129.003,180.124H54.059c-2.012,0-3.658,0.018-3.659,0.04c0,0,0,0,0,0.02c0,4.551,3.688,8.239,8.239,8.239
		c4.384,0,6.599-4.466,6.599-4.466c0.893-1.803,2.355-1.803,3.249,0c0,0,2.215,4.466,6.599,4.466c4.384,0,6.599-4.468,6.599-4.468
		c0.893-1.802,2.354-1.802,3.248,0c0,0,2.214,4.468,6.599,4.468c4.385,0,6.599-4.469,6.599-4.469c0.893-1.802,2.355-1.802,3.248,0
		c0,0,2.215,4.469,6.599,4.469c4.385,0,6.599-4.466,6.599-4.466c0.893-1.803,2.354-1.803,3.249,0c0,0,2.214,4.466,6.599,4.466
		c4.55,0,8.239-3.688,8.239-8.239c0-0.02,0-0.02,0-0.02C132.661,180.142,131.014,180.124,129.003,180.124z"/>
	<path class="st2" d="M118.429,210.858c1.006,0,1.829-0.823,1.829-1.829v-15.938c0-1.006-2.216-2.873-2.87-3.389
		c-0.653-0.516-1.714-0.522-2.356-0.013c-0.643,0.51-2.82,2.372-2.82,3.377v15.963c0,1.006,0.823,1.829,1.828,1.829H118.429z"/>
	<path class="st2" d="M68.931,210.858c1.006,0,1.829-0.823,1.829-1.829v-15.938c0-1.006-2.217-2.873-2.87-3.389
		c-0.653-0.516-1.714-0.522-2.356-0.013c-0.643,0.51-2.82,2.372-2.82,3.377v15.963c0,1.006,0.823,1.829,1.829,1.829H68.931z"/>
</g>
<path class="st2" d="M446.785,167.427h-8.045v-6.676h-0.104c1.377-1.686,2.205-3.84,2.205-6.187c0-5.403-4.381-9.784-9.783-9.784
	c-1.1,0-2.156,0.184-3.145,0.519c-1.572-3.299-4.938-5.579-8.836-5.579c-2.561,0-4.895,0.987-6.637,2.6
	c-1.367-0.725-2.924-1.137-4.578-1.137c-3.488,0-6.547,1.827-8.281,4.575c-0.613-0.121-1.248-0.186-1.898-0.186
	c-5.402,0-10.363,4.413-9.783,9.784c0.549,5.09-1.678,10.507-1.678,10.507c-0.844,3.95,1.674,7.838,5.623,8.683l0.078,0.016v45.439
	h46.816V209.92h8.045c6.555,0,11.887-4.956,11.887-11.047v-20.398C458.672,172.383,453.34,167.427,446.785,167.427z
	 M404.875,206.296c0,1.9-1.541,3.44-3.441,3.44c-1.902,0-3.443-1.541-3.443-3.44v-35.292c0-1.9,1.541-3.441,3.443-3.441
	c1.9,0,3.441,1.541,3.441,3.441V206.296z M418.771,206.296c0,1.9-1.541,3.44-3.439,3.44c-1.902,0-3.441-1.541-3.441-3.44v-35.292
	c0-1.9,1.539-3.441,3.441-3.441c1.898,0,3.439,1.541,3.439,3.441V206.296z M432.305,206.296c0,1.9-1.541,3.44-3.441,3.44
	s-3.441-1.541-3.441-3.44v-35.292c0-1.9,1.541-3.441,3.441-3.441s3.441,1.541,3.441,3.441V206.296z M434.395,158.851
	c-0.266,0.326-0.41,0.733-0.41,1.153v1.113h-28.143c-0.055-0.002-0.135-0.005-0.24-0.005c-1.1,0-4.035,0.271-7.525,2.789
	c-1.52,1.097-2.207,2.461-2.762,3.559c-0.715,1.421-0.887,1.688-2.043,1.688c-0.09,0-0.184-0.003-0.279-0.008
	c-0.881-0.308-2.531-3.13-2.373-4.074c0.041-0.105,0.313-0.467,0.51-0.731c1.008-1.347,2.697-3.601,2.225-7.981
	c-0.08-0.753,0.186-1.476,0.789-2.149c0.879-0.977,2.201-1.561,3.541-1.561c0.279,0,0.563,0.028,0.842,0.083l2.461,0.485
	c0.119,0.023,0.236,0.034,0.354,0.034c0.619,0,1.207-0.315,1.547-0.854l1.338-2.122c0.795-1.262,2.156-2.015,3.639-2.015
	c0.709,0,1.385,0.167,2.006,0.497l2.293,1.216c0.27,0.143,0.564,0.213,0.855,0.213c0.451,0,0.896-0.166,1.242-0.486l1.906-1.761
	c0.795-0.737,1.832-1.142,2.914-1.142c1.648,0,3.172,0.963,3.883,2.453l1.4,2.934c0.309,0.651,0.961,1.042,1.648,1.042
	c0.197,0,0.395-0.031,0.588-0.097l3.078-1.044c0.445-0.151,0.91-0.228,1.379-0.228c2.369,0,4.299,1.928,4.299,4.297
	C435.355,157.142,435.023,158.077,434.395,158.851z M449.527,198.874c0,0.9-1.125,1.903-2.742,1.903h-8.045v-24.205h8.045
	c1.617,0,2.742,1.003,2.742,1.904V198.874L449.527,198.874z"/>
<g>
	<path class="st2" d="M164.223,372.322c-0.591-1.902-1.805-2.511-2.719-2.688c-1.479-0.285-3.007,0.41-4.94,1.289
		c-3.365,1.531-7.974,3.628-14.722,2.329c-6.703-1.29-10.444-4.975-13.176-7.664c-1.667-1.642-2.871-2.827-4.393-3.12
		c-0.939-0.181-2.323-0.071-3.578,1.476c-5.601,6.909-8.373,25.434-5.705,38.121c2.552,12.128,8.919,20.389,17.035,22.099
		l0.035,0.007l0.034,0.007c8.17,1.424,17.15-3.883,24.02-14.197C163.72,398.563,166.719,380.361,164.223,372.322z M130.065,382.019
		c4.052,1.818,5.184,8.092,5.184,8.092s-5.438,3.326-9.49,1.508c-4.05-1.817-5.183-8.091-5.183-8.091
		S126.015,380.201,130.065,382.019z M133.947,413.24c-7.212-1.389-11.049-12.963-11.049-12.963s5.246,4.252,12.458,5.641
		c7.214,1.388,13.663-0.614,13.663-0.614S141.16,414.628,133.947,413.24z M149.576,396.202c-4.437,0.185-8.252-4.923-8.252-4.923
		s3.379-5.405,7.816-5.59c4.437-0.184,8.252,4.922,8.252,4.922S154.012,396.018,149.576,396.202z"/>
	<path class="st2" d="M108.146,361.688c0,0,4.818-4.172,9.114-3.043c0.089,0.022,0.176,0.052,0.264,0.08
		c1.468-1.517,3.379-2.168,5.335-1.792c2.217,0.428,3.82,2.007,5.676,3.834c0.008,0.009,0.016,0.018,0.024,0.024
		c-0.621-8.036-2.667-15.536-5.389-19.272c-2.938-4.032-5.632,7.045-18.992,8.906c-13.36,1.859-19.694-7.96-21.418-3.276
		c-2.77,7.524,0.252,25.279,6.743,36.21c6.038,10.17,13.756,15.016,20.646,14.521c-0.604-4.26-0.745-9.049-0.411-13.907
		c-0.353,0.035-0.709,0.075-1.067,0.124c-7.275,1.014-12.734,4.989-12.734,4.989s4.43-11.36,11.705-12.373
		c0.98-0.138,1.961-0.073,2.926,0.13c0.411-2.472,1.079-5.694,2.125-8.894C109.66,365.928,108.146,361.688,108.146,361.688z
		 M98.805,371.017c-3.822,2.26-9.598-0.437-9.598-0.437s0.423-6.36,4.246-8.619c3.823-2.26,9.598,0.437,9.598,0.437
		S102.628,368.758,98.805,371.017z"/>
</g>
<g>
	<circle class="st0" cx="421.417" cy="255.771" r="4.577"/>
	<circle class="st0" cx="445.3" cy="255.77" r="4.577"/>
	<path class="st0" d="M435.149,307.433c-0.658,0.175-1.332,0.27-2.02,0.27c-0.629,0-1.246-0.076-1.848-0.221
		c0.004,0.108,0.01,0.217,0.01,0.327c0,1.346-0.326,2.524-0.871,3.369c0.885,0.145,1.789,0.225,2.709,0.225
		c0.973,0,1.93-0.087,2.865-0.252c-0.535-0.842-0.859-2.01-0.859-3.342C435.136,307.682,435.144,307.557,435.149,307.433z"/>
	<path class="st0" d="M459.329,256.884c1.82-5.562-0.297-17.951-0.297-17.951s-3.93,1.147-8.404,2.938
		c-4.643-2.955-10.773-4.753-17.496-4.753c-6.729,0-12.863,1.802-17.508,4.76c-4.48-1.794-8.422-2.945-8.422-2.945
		s-2.15,12.583-0.254,18.079c0.412,4.447,3.018,8.467,7.055,11.521c-7.795,7.791-5.945,27.058-4.904,27.572
		c0.887,0.438,2.086-0.944,5.055-1.645c1.162,4.572,3.426,8.556,6.412,11.513c0.445-1.728,1.514-2.886,2.83-2.886
		c1.01,0,1.875,0.688,2.424,1.79c0.111-0.225,0.234-0.436,0.373-0.624c-3.029-3.357-5.006-8.851-5.006-15.064
		c0-10.224,5.348-11.767,11.943-11.767c6.594,0,11.941,1.543,11.941,11.767c0,6.147-1.934,11.592-4.908,14.959
		c0.166,0.213,0.316,0.458,0.449,0.725c0.549-1.1,1.412-1.787,2.422-1.787c1.283,0,2.33,1.104,2.793,2.76
		c2.691-2.714,4.781-6.271,5.988-10.34c2.631,0.726,3.748,1.941,4.59,1.525c1.049-0.52,2.924-20.129-5.115-27.778l-0.082,0.03
		C455.884,266.126,458.925,261.758,459.329,256.884z M421.417,265.301c-5.264,0-9.529-4.268-9.529-9.531
		c0-5.265,4.266-9.531,9.529-9.531s9.531,4.267,9.531,9.531C430.948,261.033,426.681,265.301,421.417,265.301z M437.421,269.4
		l-3.178,4.245c-0.611,0.814-1.611,0.814-2.223,0l-3.178-4.245c-0.611-0.815-0.482-2.03,0.287-2.7l2.605-2.268
		c0.768-0.67,2.027-0.67,2.795,0l2.605,2.268C437.903,267.369,438.032,268.585,437.421,269.4z M445.228,265.301
		c-5.264,0-9.531-4.268-9.531-9.531c0-5.265,4.268-9.531,9.531-9.531s9.531,4.267,9.531,9.531
		C454.759,261.033,450.491,265.301,445.228,265.301z"/>
	<ellipse class="st0" cx="428.239" cy="307.81" rx="1.816" ry="3.487"/>
	<ellipse class="st0" cx="423.396" cy="307.81" rx="1.818" ry="3.487"/>
	<ellipse class="st0" cx="443.034" cy="307.81" rx="1.816" ry="3.487"/>
	<ellipse class="st0" cx="438.188" cy="307.81" rx="1.816" ry="3.487"/>
</g>
<g>
	<path class="st2" d="M212.555,430.353c-0.331-3.245-0.523-7.893,0.205-13.528c0.302-1.317,0.554-1.601,0.554-1.601
		s4.244,6.333,10.766,1.437c1.567-1.786,2.536-4.247,2.536-6.964c0-0.865-0.099-1.703-0.283-2.503
		c1.255-1.712,2.009-3.91,2.009-6.309c0-5.028-3.316-9.178-7.61-9.805c-1.095-4.047-4.421-6.989-8.356-6.989
		c-2.611,0-4.951,1.296-6.552,3.35c-1.6-1.113-3.543-1.767-5.64-1.767c-5.461,0-9.89,4.427-9.89,9.889
		c0,0.708,0.076,1.397,0.217,2.063c-2.062,1.799-3.346,4.316-3.346,7.108c0,3.207,2.215,7.838,8.254,8.3
		c-0.269,4.173,4.661,7.262,8.196,5.959c0.221-4.218,0.162-14.364-4.466-23.229c7.728,7.195,7.542,19.661,7.279,23.513
		c-0.007,2.834-0.453,7.29-0.808,10.813c-0.603-0.004-1.151-0.004-1.631-0.004c-15.35,0-21.608,6.135-24.019,13.577
		c0.448,0.136,0.884,0.324,1.299,0.572c3.156,1.886,6.547,3.336,10.366,4.436c3.82,1.099,7.968,1.633,12.683,1.633
		c0.969,0,1.985-0.023,3.018-0.068c5.528-0.243,11.443-1.251,18.082-3.079c3.367-0.929,7.398-1.906,11.764-2.131
		c0.555-0.029,1.117-0.045,1.67-0.045c5.273,0,10.503,1.316,15.544,3.911c3.068,1.578,5.977,3.562,8.648,5.895
		c0.334,0.293,0.576,0.56,0.736,0.737C247.737,435.648,225.66,431.303,212.555,430.353z"/>
	<path class="st2" d="M260.896,458.867c-2.289-1.997-4.773-3.707-7.477-5.098c-4.466-2.299-9.183-3.487-14.235-3.227
		c-3.591,0.186-7.067,0.98-10.511,1.93c-6.35,1.749-12.775,2.993-19.379,3.283c-5.957,0.262-11.826-0.133-17.575-1.787
		c-4.121-1.186-8.049-2.824-11.75-5.036c2.319,4.085,5.292,7.536,9.188,10.19c2.217,1.51,4.544,2.74,7.117,3.495
		c5.469,1.604,10.973,1.406,16.362-0.157c4.419-1.281,8.724-2.971,13.057-4.536c5.467-1.974,11.031-3.441,16.882-3.662
		c5.153-0.193,10.064,0.729,14.719,2.953c1.322,0.633,2.6,1.368,4.07,2.149C261.123,459.107,261.02,458.977,260.896,458.867z"/>
	<path class="st2" d="M247.407,458.629c-6.877-1.534-13.041,1.695-19.065,5.921c9.91-1.613,19.812-3.449,29.836,0.17
		c-0.182-0.215-0.254-0.318-0.338-0.4C254.674,461.23,251.16,459.467,247.407,458.629z"/>
</g>
<g>
	<path class="st2" d="M387.399,336.224h19.059c1.262,0,2.295-1.032,2.295-2.296v-9.644c0-1.263-1.033-2.296-2.297-2.296h-19.057
		c-1.262,0-2.295,1.033-2.295,2.296v9.644C385.104,335.19,386.138,336.224,387.399,336.224z"/>
	<path class="st2" d="M397.272,364.643c10.129,0,18.369-7.467,18.369-16.646c0-3.055-1.529-6.303-1.529-6.303
		c-0.539-1.143-2.012-2.077-3.273-2.077h-2.818c-1.262,0-1.615,0.777-0.785,1.729c0,0,2.895,3.313,2.895,6.652
		c0,6.14-5.768,11.135-12.857,11.135s-12.857-4.995-12.857-11.135c0-3.34,2.895-6.652,2.895-6.652
		c0.83-0.951,0.477-1.729-0.785-1.729h-2.816c-1.262,0-2.736,0.935-3.273,2.077c0,0-1.529,3.248-1.529,6.303
		C378.905,357.177,387.146,364.643,397.272,364.643z"/>
	<path class="st2" d="M421.849,368.831c-1.904-2.629-3.805-3.628-5.342-4.436c-1.781-0.935-4.59-0.761-6.242,0.387
		c0,0-6.984,4.854-13.475,4.854c-6.244,0-12.953-4.44-12.953-4.44c-1.678-1.109-4.479-1.196-6.223-0.194
		c-1.242,0.715-2.572,1.478-4.273,3.829c-4.35,6.009,4.572,30.55,4.572,30.55c0.686,1.891,2.895,3.438,4.906,3.438h29.551
		c2.012,0,4.221-1.547,4.906-3.438C417.276,399.381,426.198,374.84,421.849,368.831z M397.458,376.575
		c2.07,0,3.748,1.679,3.748,3.75c0,2.069-1.678,3.749-3.748,3.749c-2.072,0-3.75-1.68-3.75-3.749
		C393.708,378.254,395.386,376.575,397.458,376.575z M397.548,397.058c-2.07,0-3.748-1.679-3.748-3.749s1.678-3.749,3.748-3.749
		s3.75,1.679,3.75,3.749S399.618,397.058,397.548,397.058z"/>
</g>
<g>
	<path class="st0" d="M103.75,315.454H55.491c-2.268,0-4.125,1.137-4.125,2.527c0,1.389,1.856,2.525,4.125,2.525h48.259
		c2.268,0,4.125-1.137,4.125-2.525C107.875,316.591,106.018,315.454,103.75,315.454z"/>
	<path class="st0" d="M117.262,273.738l-13.748,4.041c-1.93,0.566-3.414,2.673-3.297,4.681l0.413,7.104
		c0.117,2.009-1.433,3.652-3.445,3.652h-5.387c-2.012,0-3.209-1.584-2.663-3.521l2.382-8.435c0.547-1.938,0.12-4.916-0.949-6.619
		l-8.347-13.315c-1.069-1.704-2.814-1.702-3.88,0.003l-8.313,13.308c-1.066,1.707-1.492,4.687-0.947,6.624l2.373,8.433
		c0.545,1.938-0.655,3.522-2.667,3.522h-5.34c-2.012,0-3.563-1.644-3.446-3.652l0.413-7.102c0.116-2.01-1.367-4.117-3.297-4.687
		l-13.676-4.033c-1.929-0.569-3.01,0.534-2.4,2.451l10.444,32.841c0.61,1.917,2.754,3.485,4.766,3.485h20.371
		c2.011,0,5.303,0,7.314,0h20.471c2.011,0,4.157-1.567,4.769-3.483c2.621-8.211,10.483-32.844,10.483-32.844
		C120.271,274.275,119.192,273.171,117.262,273.738z M64.32,308.233c-2.053,0-3.718-1.665-3.718-3.719s1.665-3.719,3.718-3.719
		c2.054,0,3.718,1.665,3.718,3.719S66.375,308.233,64.32,308.233z M80.352,307.263l-5.852-5.851l5.852-5.853l5.853,5.853
		L80.352,307.263z M96.384,308.111c-1.986,0-3.597-1.609-3.597-3.597s1.61-3.597,3.597-3.597c1.987,0,3.597,1.609,3.597,3.597
		C99.981,306.501,98.371,308.111,96.384,308.111z"/>
</g>
<g>
	<path class="st1" d="M223.813,298.588c-2.853-1.182-5.223-2.468-7.193-3.815c1.025,16.618,17.941,22.58,39.084,22.58
		c21.354,0,39.094-6.086,39.84-23.08c-9.133,6.663-24.529,9.768-39.838,9.768C243.623,304.04,232.296,302.104,223.813,298.588z"/>
	<path class="st1" d="M301.248,213.735c-7.957-7.349-18.645-12.741-30.799-15.162c0.152-0.101,0.293-0.201,0.414-0.302
		c2.711-2.304,6.238-12.783,6.238-12.783s-9.809,10.722-14.301,9.345c-1.939-0.593-2.451-12.277-2.451-12.277
		s-3.314,9.955-4.91,10.216c-4.359,0.71-9.328-2.358-9.328-2.358s0.436,3.068,2.667,6.258c0.17,0.241,0.416,0.496,0.717,0.758
		c-15.466,1.329-29.175,7.37-38.849,16.304c-15.426,0.833-27.678,13.604-27.678,29.239c0,13.889,9.675,25.513,22.651,28.521
		c2.335,2.88,5.043,5.549,8.07,7.959c-0.627,1.336-1.167,2.706-1.604,4.111c6.683,8.123,25.576,12.441,43.562,12.441
		c18.545,0,38.055-4.591,44.152-13.211c-0.402-1.188-0.883-2.346-1.424-3.482c2.959-2.373,5.609-4.991,7.898-7.815
		c12.984-3.005,22.662-14.629,22.662-28.523C328.938,227.337,316.682,214.564,301.248,213.735z M260.418,260.5
		c2.279-1.315,5.195-0.531,6.51,1.748l4.57,7.926c1.313,2.28,0.533,5.192-1.75,6.511c-0.748,0.434-1.568,0.638-2.375,0.638
		c-1.648,0-3.252-0.857-4.135-2.388l-4.57-7.923C257.354,264.73,258.137,261.817,260.418,260.5z M252.525,267.012l-4.566,7.924
		c-0.883,1.529-2.487,2.388-4.135,2.388c-0.808,0-1.627-0.205-2.378-0.639c-2.279-1.313-3.063-4.23-1.746-6.511l4.568-7.925
		c1.315-2.28,4.23-3.064,6.511-1.749C253.059,261.814,253.842,264.73,252.525,267.012z M295.697,261.989
		c-0.879,2.997-2.07,5.779-3.521,8.276c-8.289-8.901-21.369-14.652-36.104-14.652c-14.821,0-27.976,5.818-36.259,14.813
		c-1.499-2.55-2.729-5.402-3.626-8.482c-9.611-0.98-17.109-9.099-17.109-18.969c0-10.531,8.537-19.069,19.068-19.069
		c1.693,0,3.335,0.223,4.898,0.638c4.319-5.025,9.938-8.072,16.09-8.072c6.502,0,12.411,3.399,16.815,8.946
		c4.406-5.547,10.316-8.946,16.814-8.946c6.207,0,11.873,3.1,16.207,8.208c1.709-0.501,3.512-0.774,5.381-0.774
		c10.531,0,19.068,8.537,19.068,19.069C313.42,253.055,305.6,261.299,295.697,261.989z"/>
	<path class="st1" d="M279.195,232.218c-16.109-2.007-18.961,14.758-18.961,14.758s8.166-4.012,17.479-2.852
		c9.313,1.161,16.244,7.056,16.244,7.056S295.307,234.226,279.195,232.218z"/>
	<path class="st1" d="M233.663,232.078c-16.056,2.393-14.3,19.309-14.3,19.309s6.842-5.697,16.125-7.08
		c9.281-1.384,17.488,2.071,17.488,2.071S249.721,229.686,233.663,232.078z"/>
</g>
</svg>
