<?xml version="1.0" encoding="utf-8"?>
<!-- Generator: Adobe Illustrator 16.0.0, SVG Export Plug-In . SVG Version: 6.00 Build 0)  -->
<!DOCTYPE svg PUBLIC "-//W3C//DTD SVG 1.1//EN" "http://www.w3.org/Graphics/SVG/1.1/DTD/svg11.dtd">
<svg version="1.1" id="zoo" xmlns="http://www.w3.org/2000/svg" xmlns:xlink="http://www.w3.org/1999/xlink" x="0px" y="0px"
	 width="2190.384px" height="338.139px" viewBox="0 -58.862 2190.384 338.139"
	 style="enable-background:new 0 -58.862 2190.384 338.139;" xml:space="preserve">
<style type="text/css">
<![CDATA[
	.st0{fill:#29B5E7;}
	.st1{fill:#D1D1D1;}
]]>
</style>
<g>
	<path class="st0" d="M98.221,197.994c-5.718-2.367-10.468-4.946-14.416-7.647c2.055,33.307,35.957,45.256,78.331,45.256
		c42.798,0,78.351-12.199,79.848-46.262c-18.304,13.358-49.161,19.58-79.846,19.58C137.924,208.921,115.225,205.041,98.221,197.994z
		"/>
	<path class="st0" d="M253.418,27.932c-15.946-14.729-37.372-25.534-61.727-30.387c0.305-0.2,0.589-0.401,0.829-0.604
		c5.432-4.615,12.501-25.619,12.501-25.619s-19.66,21.488-28.663,18.73c-3.886-1.188-4.909-24.604-4.909-24.604
		s-6.644,19.949-9.842,20.474c-8.738,1.424-18.692-4.726-18.692-4.726s0.873,6.15,5.347,12.543c0.338,0.482,0.832,0.994,1.431,1.521
		C118.696-2.079,91.223,10.03,71.838,27.933c-30.918,1.672-55.473,27.266-55.473,58.6c0,27.84,19.39,51.133,45.396,57.161
		c4.68,5.773,10.106,11.121,16.174,15.953c-1.256,2.676-2.34,5.422-3.215,8.238c13.395,16.28,51.256,24.936,87.305,24.936
		c37.17,0,76.271-9.201,88.492-26.477c-0.809-2.379-1.772-4.701-2.854-6.979c5.926-4.756,11.239-10.004,15.828-15.666
		c26.021-6.02,45.421-29.315,45.421-57.167C308.913,55.193,284.348,29.595,253.418,27.932z M171.585,121.658
		c4.571-2.635,10.413-1.065,13.048,3.504l9.159,15.881c2.632,4.572,1.065,10.414-3.507,13.052c-1.502,0.869-3.144,1.28-4.762,1.28
		c-3.307,0-6.518-1.719-8.286-4.784l-9.158-15.882C165.445,130.137,167.014,124.296,171.585,121.658z M155.77,134.709l-9.156,15.882
		c-1.769,3.065-4.982,4.784-8.285,4.784c-1.62,0-3.261-0.411-4.764-1.28c-4.571-2.633-6.142-8.479-3.505-13.052l9.155-15.881
		c2.637-4.569,8.48-6.139,13.05-3.504C156.836,124.291,158.407,130.137,155.77,134.709z M242.292,124.642
		c-1.761,6.006-4.152,11.582-7.059,16.586c-16.613-17.84-42.828-29.363-72.354-29.363c-29.705,0-56.07,11.662-72.672,29.687
		c-3.006-5.111-5.468-10.83-7.268-17c-19.265-1.968-34.292-18.238-34.292-38.019c0-21.106,17.11-38.218,38.218-38.218
		c3.393,0,6.683,0.448,9.816,1.278c8.655-10.07,19.92-16.178,32.248-16.178c13.027,0,24.872,6.813,33.7,17.93
		c8.829-11.115,20.674-17.93,33.699-17.93c12.438,0,23.794,6.215,32.48,16.45c3.424-1.004,7.038-1.552,10.782-1.552
		c21.107,0,38.219,17.11,38.219,38.218C277.812,106.734,262.138,123.259,242.292,124.642z"/>
	<path class="st0" d="M209.221,64.976c-32.287-4.023-38.002,29.579-38.002,29.579s16.366-8.044,35.029-5.719
		c18.661,2.326,32.555,14.142,32.555,14.142S241.509,68.999,209.221,64.976z"/>
	<path class="st0" d="M117.963,64.695c-32.18,4.797-28.659,38.7-28.659,38.7s13.713-11.418,32.313-14.19
		c18.604-2.772,35.048,4.15,35.048,4.15S150.146,59.899,117.963,64.695z"/>
</g>
<g>
	<g>
		<g>
			<path class="st0" d="M1519.352,190.372c-21.641,0-41.962-8.404-57.221-23.666c-15.285-15.283-23.703-35.604-23.703-57.22
				c-0.002-21.615,8.415-41.937,23.701-57.223c15.282-15.284,35.604-23.702,57.22-23.702s41.938,8.417,57.225,23.701
				c7.98,7.981,7.981,20.966,0.001,28.946c-3.866,3.865-9.007,5.994-14.475,5.995c-5.467,0-10.605-2.128-14.471-5.994
				c-7.554-7.553-17.597-11.713-28.278-11.713s-20.724,4.16-28.276,11.712c-7.553,7.553-11.712,17.594-11.712,28.275
				c0,10.683,4.16,20.725,11.713,28.277c7.54,7.54,17.583,11.692,28.277,11.692s20.736-4.152,28.276-11.692
				c3.865-3.865,9.004-5.994,14.471-5.994c5.468,0,10.608,2.129,14.475,5.995c7.979,7.979,7.979,20.964,0,28.947
				C1561.311,181.969,1540.989,190.372,1519.352,190.372z"/>
		</g>
	</g>
</g>
<g>
	<g>
		<g>
			<g>
				<path class="st0" d="M1400.323,189.006c-11.285,0-20.467-9.183-20.467-20.469V46.516c0-11.286,9.182-20.467,20.467-20.467
					c11.286,0,20.468,9.182,20.468,20.467v122.021C1420.791,179.823,1411.609,189.006,1400.323,189.006z"/>
			</g>
		</g>
		<g>
			<g>
				<path class="st0" d="M1400.321,4.505c-5.388,0-10.664-2.184-14.475-5.992c-3.811-3.823-5.993-9.098-5.993-14.476
					c0-5.391,2.184-10.667,5.992-14.475c3.811-3.809,9.086-5.993,14.476-5.993c5.392,0,10.667,2.185,14.475,5.994
					c3.808,3.804,5.992,9.08,5.992,14.474c0,5.393-2.185,10.669-5.993,14.476C1410.987,2.321,1405.711,4.505,1400.321,4.505z"/>
			</g>
		</g>
	</g>
</g>
<g>
	<path class="st0" d="M1888.665,189.449c-11.286,0-20.468-9.181-20.468-20.466v-60.522c0-0.106,0.005-0.211,0.011-0.315
		c-0.007-0.093-0.011-0.197-0.011-0.303c0-21.338-13.091-39.365-28.587-39.365c-15.493,0-28.583,18.027-28.583,39.365v61.102
		c0,11.286-9.182,20.469-20.468,20.469c-11.285,0-20.467-9.183-20.467-20.469V48.01c0-11.286,9.182-20.467,20.467-20.467
		c6.875,0,13.231,3.474,16.991,9.078c9.878-5.949,20.896-9.078,32.06-9.078c38.335,0,69.523,36.022,69.523,80.3
		c0,0.107-0.005,0.212-0.012,0.317c0.007,0.09,0.012,0.195,0.012,0.301v60.522C1909.134,180.268,1899.951,189.449,1888.665,189.449z
		"/>
</g>
<g>
	<g>
		<g>
			<g>
				<path class="st0" d="M1675.942,189.679c-44.803,0-81.253-36.451-81.253-81.255c0-44.802,36.45-81.251,81.253-81.251
					s81.252,36.449,81.252,81.251C1757.194,153.228,1720.745,189.679,1675.942,189.679z M1675.942,68.109
					c-22.231,0-40.318,18.085-40.318,40.315c0,22.231,18.087,40.318,40.318,40.318c22.23,0,40.316-18.086,40.316-40.318
					C1716.259,86.194,1698.173,68.109,1675.942,68.109z"/>
			</g>
		</g>
	</g>
</g>
<g>
	<g>
		<g>
			<path class="st0" d="M1991.449,188.128c-0.522,0-1.038-0.003-1.551-0.011c-0.515-0.007-1.029-0.016-1.545-0.028
				c-33.175-0.878-57.544-14.75-66.861-38.061c-1.675-4.197-1.601-8.786,0.208-12.924c1.847-4.218,5.262-7.46,9.616-9.13
				c1.95-0.747,4.145-1.141,6.348-1.141c4.766,0,9.17,1.756,12.084,4.818c1.409,1.481,2.417,3.211,3.251,4.716l1.453,2.638
				c0.754,1.351,1.658,2.909,2.806,4.23c1.892,2.171,4.646,4.144,8.184,5.858c4.153,2.008,9.053,3.398,14.976,4.249
				c1.275,0.186,2.531,0.332,3.735,0.438c2.491,0.227,5.019,0.342,7.524,0.342c3.865,0,7.83-0.269,11.782-0.798
				c4.743-0.632,9.72-1.81,14.795-3.501c2.811-0.938,6.828-2.502,9.243-5.243c1.048-1.184,1.728-2.951,1.736-4.503
				c0.039-6.591-9.96-9.629-14.765-11.089c-6.5-1.975-12.415-3.542-18.082-4.79c-24.141-5.321-39.604-8.99-50.771-15.051
				c-15.01-8.144-22.075-20.642-21.601-38.209c0.572-21.012,20.527-37.17,52.079-42.17c6.347-1.006,12.82-1.516,19.241-1.516
				c9.47,0,18.437,1.083,26.65,3.22c23.456,6.105,32.561,18.669,36.068,28.134c0.358,0.971,0.489,2.02,0.604,2.945
				c0.036,0.279,0.062,0.484,0.091,0.683c0.187,1.272,0.263,2.404,0.233,3.46c-0.058,2.307-0.665,4.535-1.806,6.612
				c-2.302,4.179-6.113,7.201-10.458,8.294c-1.24,0.313-2.604,0.535-4.053,0.659c-0.465,0.04-0.938,0.06-1.406,0.06
				c-5.466,0-7.906-3.035-10.061-5.712c-0.518-0.644-1.054-1.31-1.635-1.943c-3.858-4.207-8.133-7.075-13.454-9.027
				c-4.24-1.557-8.31-2.413-13.606-2.862c-3.257-0.276-6.141-0.411-8.816-0.411c-2.633,0-5.085,0.125-7.496,0.384
				c-1.513,0.161-3.044,0.364-4.556,0.605c-5.534,0.875-11.335,2.015-16.29,4.413c-1.386,0.67-2.564,1.406-3.604,2.249
				c-1.808,1.468-2.905,3.354-3.009,5.17c-0.075,1.343,0.419,2.569,1.47,3.641c2.196,2.241,5.209,3.213,8.398,4.243
				c0.336,0.108,0.664,0.213,0.99,0.322c2.573,0.841,4.892,1.544,7.066,2.143c5.499,1.513,11.041,2.813,16.21,3.992
				c3.951,0.899,7.824,1.756,11.091,2.475c32.044,7.063,48.917,16.376,56.421,31.142c5.42,10.672,4.927,23.079-1.466,36.878
				C2049.594,179.128,2018.315,188.128,1991.449,188.128z"/>
		</g>
	</g>
</g>
<path class="st1" d="M468.963,27.376c-16.868,0-31.136,5.857-41.622,16.979c-10.486-11.121-24.754-16.979-41.621-16.979
	c-18.909,0-34.563,7.343-45.271,21.232c-11.002,14.271-16.351,34.637-16.351,62.254v58.117c0,11.047,8.953,20,20,20
	c11.046,0,20-8.953,20-20v-58.117c0-23.854,5.03-33.944,8.03-37.834c2.154-2.795,5.453-5.652,13.591-5.652
	c8.137,0,11.437,2.857,13.591,5.652c2.999,3.891,8.029,13.979,8.029,37.834v58.117c0,11.047,8.954,20,20.001,20
	c11.046,0,20-8.953,20-20v-58.117c0-23.854,5.03-33.944,8.03-37.834c2.154-2.795,5.453-5.652,13.592-5.652
	c8.137,0,11.437,2.857,13.591,5.652c3,3.891,8.031,13.979,8.031,37.834v58.117c0,11.047,8.953,20,20,20c11.046,0,20-8.953,20-20
	v-58.117c0-27.618-5.35-47.982-16.353-62.255C503.525,34.719,487.871,27.376,468.963,27.376z"/>
<path class="st1" d="M795.571,26.267c-15.877,0-30.705,4.546-43.275,12.386c-2.814-7.643-10.137-13.104-18.756-13.104
	c-11.045,0-20,8.955-20,20v62.038c-0.002,0.246-0.018,0.486-0.018,0.732c0,0.244,0.016,0.486,0.018,0.729v129.007
	c0,11.047,8.955,20,20,20c11.047,0,20-8.953,20-20v-59.308c12.303,7.369,26.68,11.617,42.031,11.617
	c45.244,0,82.051-36.807,82.051-82.047C877.622,63.075,840.815,26.267,795.571,26.267z M795.571,150.365
	c-22.939,0-41.637-18.469-42.031-41.316v-1.463c0.395-22.849,19.092-41.318,42.031-41.318c23.188,0,42.051,18.862,42.051,42.051
	C837.622,131.504,818.759,150.365,795.571,150.365z"/>
<path class="st1" d="M1138.421,25.958c-21.906-2.144-43.334,4.373-60.342,18.349c-17.006,13.977-27.551,33.737-29.691,55.643
	c-2.145,21.905,4.373,43.333,18.35,60.338c13.975,17.004,33.734,27.551,55.641,29.693c2.734,0.268,5.457,0.399,8.168,0.399
	c19.014,0,37.287-6.518,52.172-18.745c8.535-7.013,9.77-19.615,2.758-28.15c-7.014-8.533-19.615-9.769-28.15-2.758
	c-8.754,7.192-19.789,10.545-31.053,9.442c-11.271-1.102-21.439-6.528-28.631-15.278c-7.193-8.75-10.545-19.777-9.441-31.05
	c1.102-11.271,6.527-21.438,15.277-28.631c8.752-7.192,19.785-10.547,31.051-9.441c6.205,0.605,12.141,2.575,17.408,5.684
	l-23.475,23.613c-7.787,7.833-7.75,20.496,0.082,28.285c7.832,7.787,20.496,7.75,28.285-0.084l37.99-38.214
	c6.959-6.999,7.771-18.026,1.914-25.97C1182.887,40.302,1161.634,28.228,1138.421,25.958z"/>
<path class="st1" d="M1010.811,99.594c12.143-14.698,19.447-33.534,19.447-54.047c0-11.045-8.955-20-20-20c-11.047,0-20,8.955-20,20
	c0,24.804-20.18,44.981-44.98,44.981c-5.014,0-9.928-0.813-14.605-2.42c-1.156-0.397-2.326-0.663-3.494-0.842V-22.583
	c0-11.046-8.953-20-20-20c-11.045,0-20,8.954-20,20v192.948c0,11.047,8.955,20,20,20c11.047,0,20-8.953,20-20
	c0-23.213,18.885-42.098,42.096-42.098c23.213,0,42.096,18.885,42.096,42.098c0,11.047,8.955,20,20,20c11.047,0,20-8.953,20-20
	C1051.368,140.246,1035.055,113.879,1010.811,99.594z"/>
<path class="st1" d="M1353.893,95.72c-3.316-20.709-9.869-38.027-10.146-38.755c-3.938-10.319-15.496-15.495-25.814-11.559
	c-10.32,3.938-15.494,15.494-11.559,25.814c8.016,21.013,14.244,56.777,4.543,66.48c-16.396,16.396-43.072,16.396-59.467,0.002
	c-9.629-9.629-3.42-45.436,4.543-66.481c3.938-10.32-1.236-21.878-11.557-25.815c-10.322-3.938-21.879,1.238-25.814,11.558
	c-0.277,0.729-6.832,18.047-10.148,38.756c-5.092,31.785-0.148,55.426,14.693,70.27c10.877,10.877,24.078,18.047,38.018,21.525
	v49.987c0,11.045,8.953,20,20,20c11.045,0,20-8.955,20-20v-49.987c13.939-3.48,27.139-10.65,38.018-21.527
	C1354.04,151.146,1358.985,127.504,1353.893,95.72z"/>
<g>
	<path class="st1" d="M682.323,193.98c-10.485,0-19.017-8.531-19.017-19.017v-61.596c0-23.422-19.053-42.477-42.473-42.477
		s-42.473,19.055-42.473,42.477c0,23.42,19.053,42.474,42.473,42.474c0,0,0.133,0.001,0.134,0.001c1.681,0,7.279-0.336,11.536-1.827
		c2.032-0.711,4.146-1.07,6.282-1.07c8.068,0,15.281,5.117,17.948,12.735c3.465,9.897-1.768,20.769-11.663,24.233
		c-10.498,3.676-21.145,3.961-24.157,3.961h-0.154c-44.344-0.031-80.433-36.146-80.433-80.507c0-44.393,36.115-80.51,80.507-80.51
		s80.507,36.117,80.507,80.51v61.596C701.341,185.449,692.81,193.98,682.323,193.98z"/>
</g>
</svg>
