<?xml version="1.0" encoding="utf-8"?>
<!-- Generator: Adobe Illustrator 16.0.0, SVG Export Plug-In . SVG Version: 6.00 Build 0)  -->
<!DOCTYPE svg PUBLIC "-//W3C//DTD SVG 1.1//EN" "http://www.w3.org/Graphics/SVG/1.1/DTD/svg11.dtd">
<svg version="1.1" id="zoo" xmlns="http://www.w3.org/2000/svg" xmlns:xlink="http://www.w3.org/1999/xlink" x="0px" y="0px"
	 width="2064.104px" height="338.139px" viewBox="0 0 2064.104 338.139" enable-background="new 0 0 2064.104 338.139"
	 xml:space="preserve">
<g>
	<path fill="#95BCEB" d="M88.221,260.577c-5.718-2.367-10.468-4.946-14.416-7.647c2.055,33.307,35.957,45.256,78.331,45.256
		c42.798,0,78.351-12.199,79.848-46.262c-18.304,13.358-49.161,19.58-79.846,19.58C127.924,271.504,105.225,267.624,88.221,260.577z
		"/>
	<path fill="#95BCEB" d="M243.418,90.515c-15.946-14.729-37.372-25.534-61.727-30.387c0.305-0.2,0.589-0.401,0.829-0.604
		c5.432-4.612,12.501-25.616,12.501-25.616s-19.66,21.485-28.663,18.729c-3.886-1.188-4.909-24.604-4.909-24.604
		s-6.644,19.946-9.842,20.474c-8.738,1.424-18.692-4.729-18.692-4.729s0.873,6.15,5.347,12.546c0.338,0.479,0.832,0.991,1.431,1.521
		c-30.997,2.661-58.47,14.771-77.855,32.673c-30.918,1.671-55.473,27.266-55.473,58.6c0,27.84,19.39,51.133,45.396,57.158
		c4.68,5.773,10.106,11.121,16.174,15.953c-1.256,2.679-2.34,5.422-3.215,8.238c13.395,16.28,51.256,24.937,87.305,24.937
		c37.17,0,76.271-9.199,88.492-26.478c-0.809-2.379-1.772-4.701-2.854-6.979c5.926-4.758,11.239-10.006,15.828-15.665
		c26.021-6.021,45.421-29.315,45.421-57.167C298.913,117.776,274.348,92.178,243.418,90.515z M161.585,184.241
		c4.571-2.638,10.413-1.065,13.048,3.504l9.159,15.881c2.632,4.572,1.065,10.414-3.507,13.052c-1.502,0.869-3.144,1.28-4.762,1.28
		c-3.307,0-6.518-1.719-8.286-4.784l-9.158-15.882C155.445,192.72,157.014,186.879,161.585,184.241z M145.77,197.292l-9.156,15.882
		c-1.769,3.065-4.982,4.784-8.285,4.784c-1.62,0-3.261-0.411-4.764-1.28c-4.571-2.633-6.142-8.479-3.505-13.052l9.155-15.881
		c2.637-4.569,8.48-6.142,13.05-3.504C146.836,186.874,148.407,192.72,145.77,197.292z M232.292,187.225
		c-1.761,6.006-4.152,11.582-7.059,16.586c-16.613-17.84-42.828-29.36-72.354-29.36c-29.705,0-56.07,11.659-72.672,29.687
		c-3.006-5.111-5.468-10.83-7.268-17c-19.265-1.968-34.292-18.238-34.292-38.019c0-21.106,17.11-38.221,38.218-38.221
		c3.393,0,6.683,0.448,9.816,1.278c8.655-10.07,19.92-16.178,32.248-16.178c13.027,0,24.872,6.813,33.7,17.93
		c8.829-11.115,20.674-17.93,33.699-17.93c12.438,0,23.794,6.215,32.48,16.45c3.424-1.007,7.038-1.555,10.782-1.555
		c21.107,0,38.219,17.11,38.219,38.221C267.812,169.317,252.138,185.842,232.292,187.225z"/>
	<path fill="#95BCEB" d="M199.221,127.559c-32.287-4.021-38.002,29.579-38.002,29.579s16.366-8.044,35.029-5.719
		c18.661,2.326,32.555,14.142,32.555,14.142S231.509,131.582,199.221,127.559z"/>
	<path fill="#95BCEB" d="M107.963,127.278c-32.18,4.8-28.659,38.7-28.659,38.7s13.713-11.418,32.313-14.188
		c18.604-2.772,35.048,4.147,35.048,4.147S140.146,122.482,107.963,127.278z"/>
</g>
<g>
	<g>
		<g>
			<path fill="#95BCEB" d="M1509.352,252.955c-21.641,0-41.963-8.404-57.221-23.666c-15.285-15.283-23.703-35.604-23.703-57.223
				c-0.002-21.612,8.414-41.937,23.701-57.223c15.281-15.284,35.604-23.702,57.221-23.702c21.615,0,41.938,8.417,57.227,23.701
				c7.979,7.981,7.979,20.966,0,28.946c-3.865,3.864-9.006,5.994-14.477,5.995c-5.467,0-10.604-2.128-14.471-5.994
				c-7.555-7.555-17.598-11.713-28.275-11.713c-10.684,0-20.727,4.158-28.277,11.712c-7.553,7.553-11.711,17.594-11.711,28.272
				c0,10.686,4.16,20.728,11.713,28.277c7.539,7.54,17.582,11.692,28.277,11.692c10.691,0,20.732-4.152,28.273-11.692
				c3.865-3.865,9.004-5.994,14.471-5.994c5.471,0,10.607,2.129,14.477,5.995c7.979,7.979,7.979,20.964,0,28.947
				C1551.311,244.552,1530.989,252.955,1509.352,252.955z"/>
		</g>
	</g>
</g>
<g>
	<g>
		<g>
			<g>
				<path fill="#95BCEB" d="M1390.323,251.589c-11.285,0-20.468-9.183-20.468-20.469V109.099c0-11.286,9.183-20.467,20.468-20.467
					c11.287,0,20.469,9.182,20.469,20.467V231.12C1410.792,242.406,1401.61,251.589,1390.323,251.589z"/>
			</g>
		</g>
		<g>
			<g>
				<path fill="#95BCEB" d="M1390.321,67.088c-5.388,0-10.664-2.187-14.477-5.992c-3.811-3.823-5.99-9.098-5.99-14.476
					c0-5.394,2.184-10.667,5.988-14.478c3.813-3.809,9.087-5.993,14.479-5.993c5.393,0,10.668,2.188,14.475,5.994
					c3.811,3.807,5.992,9.08,5.992,14.477c0,5.393-2.187,10.669-5.992,14.476C1400.987,64.904,1395.711,67.088,1390.321,67.088z"/>
			</g>
		</g>
	</g>
</g>
<g>
	<path fill="#95BCEB" d="M1878.665,252.032c-11.285,0-20.467-9.184-20.467-20.469v-60.521c0-0.106,0.004-0.211,0.01-0.315
		c-0.006-0.093-0.01-0.194-0.01-0.303c0-21.338-13.093-39.365-28.588-39.365c-15.492,0-28.582,18.027-28.582,39.365v61.102
		c0,11.286-9.186,20.472-20.471,20.472c-11.284,0-20.467-9.186-20.467-20.472V110.593c0-11.286,9.183-20.467,20.467-20.467
		c6.875,0,13.23,3.474,16.99,9.078c9.879-5.949,20.896-9.078,32.063-9.078c38.336,0,69.521,36.021,69.521,80.3
		c0,0.107-0.006,0.212-0.012,0.317c0.006,0.09,0.012,0.192,0.012,0.301v60.521C1899.133,242.851,1889.952,252.032,1878.665,252.032z
		"/>
</g>
<g>
	<g>
		<g>
			<g>
				<path fill="#95BCEB" d="M1665.942,252.262c-44.805,0-81.252-36.451-81.252-81.255c0-44.802,36.447-81.251,81.252-81.251
					c44.803,0,81.252,36.449,81.252,81.251C1747.194,215.811,1710.745,252.262,1665.942,252.262z M1665.942,130.692
					c-22.23,0-40.318,18.085-40.318,40.315c0,22.231,18.088,40.318,40.318,40.318c22.229,0,40.314-18.086,40.314-40.318
					C1706.258,148.777,1688.172,130.692,1665.942,130.692z"/>
			</g>
		</g>
	</g>
</g>
<g>
	<g>
		<g>
			<path fill="#95BCEB" d="M1981.45,250.711c-0.523,0-1.039-0.003-1.552-0.011c-0.517-0.01-1.028-0.019-1.545-0.028
				c-33.177-0.878-57.546-14.75-66.86-38.063c-1.677-4.194-1.604-8.783,0.207-12.924c1.848-4.218,5.262-7.46,9.616-9.13
				c1.948-0.747,4.146-1.141,6.349-1.141c4.766,0,9.17,1.756,12.084,4.815c1.407,1.481,2.416,3.211,3.25,4.719l1.453,2.638
				c0.754,1.351,1.657,2.909,2.807,4.229c1.894,2.172,4.646,4.146,8.185,5.858c4.151,2.008,9.054,3.397,14.978,4.249
				c1.275,0.186,2.531,0.332,3.734,0.438c2.489,0.229,5.02,0.344,7.521,0.344c3.865,0,7.83-0.271,11.783-0.8
				c4.741-0.633,9.719-1.811,14.795-3.501c2.812-0.938,6.828-2.503,9.242-5.241c1.049-1.187,1.729-2.951,1.735-4.503
				c0.039-6.594-9.959-9.631-14.767-11.092c-6.5-1.975-12.414-3.542-18.082-4.789c-24.141-5.319-39.604-8.988-50.771-15.052
				c-15.01-8.144-22.075-20.642-21.603-38.209c0.572-21.012,20.526-37.17,52.078-42.17c6.349-1.006,12.819-1.516,19.241-1.516
				c9.47,0,18.438,1.083,26.65,3.22c23.454,6.105,32.562,18.669,36.065,28.134c0.358,0.974,0.49,2.021,0.604,2.945
				c0.034,0.279,0.062,0.483,0.091,0.683c0.188,1.272,0.264,2.404,0.232,3.46c-0.06,2.31-0.666,4.535-1.808,6.612
				c-2.303,4.179-6.112,7.201-10.459,8.294c-1.237,0.313-2.604,0.535-4.053,0.659c-0.465,0.04-0.938,0.06-1.406,0.06
				c-5.465,0-7.903-3.032-10.061-5.712c-0.519-0.644-1.054-1.31-1.636-1.94c-3.856-4.207-8.133-7.075-13.453-9.027
				c-4.239-1.557-8.311-2.413-13.606-2.862c-3.256-0.273-6.142-0.411-8.813-0.411c-2.636,0-5.086,0.125-7.496,0.387
				c-1.515,0.161-3.045,0.361-4.558,0.604c-5.532,0.875-11.336,2.018-16.291,4.413c-1.385,0.67-2.563,1.406-3.604,2.249
				c-1.808,1.468-2.904,3.354-3.009,5.17c-0.076,1.343,0.418,2.569,1.47,3.644c2.196,2.238,5.209,3.213,8.397,4.24
				c0.336,0.108,0.664,0.215,0.989,0.322c2.572,0.841,4.894,1.544,7.065,2.146c5.498,1.513,11.041,2.813,16.209,3.989
				c3.951,0.899,7.824,1.757,11.093,2.478c32.043,7.063,48.916,16.376,56.42,31.142c5.42,10.672,4.929,23.079-1.466,36.878
				C2039.594,241.711,2008.314,250.711,1981.45,250.711z"/>
		</g>
	</g>
</g>
<path fill="#D1D1D1" d="M458.963,89.959c-16.868,0-31.136,5.854-41.622,16.979c-10.483-11.121-24.754-16.979-41.621-16.979
	c-18.909,0-34.563,7.343-45.271,21.229c-11.002,14.271-16.354,34.64-16.354,62.254v58.117c0,11.047,8.953,20,20,20
	c11.046,0,20-8.953,20-20v-58.117c0-23.854,5.03-33.941,8.03-37.834c2.154-2.795,5.453-5.649,13.591-5.649
	c8.139,0,11.438,2.854,13.591,5.649c2.999,3.894,8.029,13.979,8.029,37.834v58.117c0,11.047,8.954,20,20.001,20
	c11.046,0,20-8.953,20-20v-58.117c0-23.854,5.03-33.941,8.03-37.834c2.153-2.795,5.453-5.649,13.592-5.649
	c8.137,0,11.438,2.854,13.591,5.649c3,3.894,8.031,13.979,8.031,37.834v58.117c0,11.047,8.953,20,20,20c11.046,0,20-8.953,20-20
	v-58.117c0-27.615-5.35-47.979-16.354-62.255C493.525,97.302,477.871,89.959,458.963,89.959z"/>
<path fill="#D1D1D1" d="M785.571,88.85c-15.877,0-30.705,4.546-43.275,12.386c-2.813-7.643-10.137-13.104-18.756-13.104
	c-11.045,0-20,8.955-20,20v62.038c-0.002,0.246-0.019,0.486-0.019,0.729c0,0.244,0.017,0.486,0.019,0.729v129.007
	c0,11.047,8.955,20,20,20c11.047,0,20-8.953,20-20V241.33c12.303,7.369,26.68,11.617,42.031,11.617
	c45.243,0,82.051-36.81,82.051-82.05C867.622,125.658,830.814,88.85,785.571,88.85z M785.571,212.948
	c-22.939,0-41.64-18.472-42.031-41.316v-1.463c0.395-22.852,19.092-41.318,42.031-41.318c23.188,0,42.051,18.862,42.051,42.051
	C827.622,194.087,808.759,212.948,785.571,212.948z"/>
<path fill="#D1D1D1" d="M1128.42,88.541c-21.906-2.146-43.333,4.373-60.341,18.349c-17.006,13.979-27.551,33.737-29.691,55.646
	c-2.145,21.902,4.373,43.333,18.353,60.338c13.975,17.004,33.732,27.551,55.641,29.69c2.734,0.271,5.457,0.399,8.168,0.399
	c19.016,0,37.287-6.521,52.172-18.745c8.535-7.013,9.771-19.615,2.76-28.15c-7.016-8.53-19.615-9.769-28.15-2.758
	c-8.754,7.192-19.789,10.545-31.053,9.442c-11.271-1.104-21.439-6.528-28.631-15.278c-7.193-8.75-10.547-19.774-9.441-31.05
	c1.102-11.271,6.525-21.438,15.277-28.631c8.752-7.193,19.783-10.547,31.051-9.441c6.205,0.605,12.141,2.575,17.408,5.687
	l-23.477,23.61c-7.787,7.833-7.75,20.496,0.082,28.285c7.832,7.787,20.496,7.75,28.285-0.084l37.99-38.214
	c6.959-6.999,7.77-18.026,1.914-25.97C1172.887,102.885,1151.633,90.811,1128.42,88.541z"/>
<path fill="#D1D1D1" d="M1000.811,162.177c12.146-14.698,19.447-33.534,19.447-54.047c0-11.045-8.955-20-20-20
	c-11.047,0-20,8.955-20,20c0,24.804-20.18,44.979-44.979,44.979c-5.017,0-9.931-0.813-14.605-2.42
	c-1.156-0.396-2.326-0.663-3.494-0.842V40c0-11.046-8.953-20-20-20c-11.045,0-20,8.954-20,20v192.948c0,11.047,8.955,20,20,20
	c11.047,0,20-8.953,20-20c0-23.216,18.888-42.101,42.099-42.101c23.213,0,42.096,18.885,42.096,42.101c0,11.047,8.955,20,20,20
	c11.047,0,20-8.953,20-20C1041.368,202.829,1025.055,176.462,1000.811,162.177z"/>
<path fill="#D1D1D1" d="M1343.893,158.303c-3.314-20.709-9.869-38.027-10.146-38.755c-3.938-10.319-15.496-15.495-25.814-11.559
	c-10.316,3.938-15.49,15.491-11.559,25.813c8.016,21.013,14.244,56.777,4.543,66.48c-16.396,16.396-43.072,16.396-59.467,0.002
	c-9.629-9.631-3.42-45.438,4.543-66.481c3.938-10.32-1.236-21.878-11.559-25.813c-10.32-3.938-21.879,1.235-25.813,11.558
	c-0.277,0.729-6.832,18.047-10.148,38.756c-5.092,31.785-0.146,55.426,14.693,70.271c10.877,10.877,24.078,18.047,38.018,21.522
	v49.987c0,11.045,8.953,20,20,20c11.048,0,20-8.955,20-20v-49.987c13.939-3.479,27.143-10.647,38.021-21.527
	C1344.04,213.729,1348.985,190.087,1343.893,158.303z"/>
<g>
	<path fill="#D1D1D1" d="M672.323,256.563c-10.485,0-19.02-8.528-19.02-19.017V175.95c0-23.425-19.053-42.479-42.473-42.479
		s-42.473,19.055-42.473,42.479c0,23.42,19.053,42.474,42.473,42.474c0,0,0.133,0.001,0.134,0.001c1.684,0,7.279-0.336,11.536-1.827
		c2.032-0.711,4.146-1.07,6.282-1.07c8.065,0,15.279,5.117,17.945,12.735c3.468,9.897-1.768,20.771-11.66,24.233
		c-10.498,3.676-21.146,3.961-24.157,3.961h-0.154c-44.344-0.031-80.433-36.146-80.433-80.507c0-44.396,36.115-80.513,80.507-80.513
		s80.507,36.117,80.507,80.513v61.596C691.341,248.032,682.81,256.563,672.323,256.563z"/>
</g>
</svg>
