<?xml version="1.0" encoding="utf-8"?>
<!-- (c) mapshakers 2015, Licence: CC0 1.0 Universal, www.mapshakers.com  -->
<!DOCTYPE svg PUBLIC "-//W3C//DTD SVG 1.1//EN" "http://www.w3.org/Graphics/SVG/1.1/DTD/svg11.dtd">
<svg version="1.1" id="airport" xmlns="http://www.w3.org/2000/svg" xmlns:xlink="http://www.w3.org/1999/xlink" x="0px" y="0px"
	 width="256px" height="256px" viewBox="0 0 256 256" style="enable-background:new 0 0 256 256;" xml:space="preserve">
<style type="text/css">
<![CDATA[
	.st0{fill:#D1D1D1;}
	.st1{fill:#454545;}
]]>
</style>
<path class="st0" d="M172.497,225.684c-3.627,0-8.729-0.717-14.367-2.02l-16.568-3.827c-0.555-0.128-1.152-0.247-1.788-0.358
	c-4.115,5.086-8.738,6.01-11.551,6.01s-7.437-0.924-11.551-6.009c-0.635,0.11-1.234,0.229-1.79,0.358l-16.566,3.826
	c-5.638,1.303-10.74,2.02-14.367,2.02c-1.754,0-7.093,0-10.557-4.239c-1.994-2.44-2.777-5.611-2.149-8.7
	c0.568-2.791,1.518-7.463,19.958-17.038l9.275-4.816c4.349-2.258,8.201-9.02,7.926-13.913l-1.664-29.593
	c-0.07-1.246-0.562-3.336-3.071-3.336c-0.372,0-0.77,0.049-1.182,0.144l-70.283,16.23c-3.165,0.731-6.201,1.103-9.023,1.103
	c-8.149,0-12.407-3.119-14.543-5.736c-2.435-2.98-3.383-6.884-2.604-10.708c1.914-9.377,14.011-17.896,20.857-21.451l67.825-35.225
	c5.244-2.724,8.149-7.896,8.18-9.409c-0.394-6.982-0.675-11.687-0.719-12.256c-0.02-0.257-0.034-0.565-0.034-0.823v-0.572
	c0-11.744,9.206-34.603,26.082-34.603c16.877,0,26.084,22.859,26.084,34.603v0.568c0,0.281-0.012,0.563-0.035,0.843
	c-0.042,0.542-0.321,5.199-0.711,12.131c0.057,1.435,2.994,6.541,8.189,9.239l68.361,35.503
	c6.847,3.556,18.945,12.075,20.856,21.451c0.78,3.825-0.169,7.728-2.604,10.709c-2.137,2.616-6.396,5.735-14.544,5.735l0,0
	c-2.821,0-5.856-0.37-9.021-1.101l-70.83-16.358c-0.412-0.095-0.81-0.143-1.182-0.143c-2.51,0-3.002,2.09-3.072,3.336l-1.672,29.719
	c-0.275,4.893,3.576,11.654,7.925,13.912l9.274,4.816c18.435,9.574,19.388,14.243,19.957,17.032c0.631,3.09-0.151,6.263-2.146,8.704
	C179.592,225.684,174.252,225.684,172.497,225.684z"/>
<path class="st1" d="M241.17,147.078c-0.808-3.96-7.858-10.519-15.668-14.574l-68.361-35.503
	c-7.81-4.056-13.913-12.459-13.564-18.675c0.35-6.215,0.679-11.801,0.73-12.413c0,0,0,0,0-0.568c0-8.682-7.201-24.603-16.084-24.603
	c-8.882,0-16.082,15.919-16.082,24.603c0,0.572,0,0.572,0,0.572c0.053,0.616,0.385,6.265,0.739,12.554
	c0.354,6.289-5.747,14.752-13.556,18.809l-67.825,35.225c-7.81,4.056-14.86,10.614-15.668,14.574
	c-0.808,3.961,5.547,5.581,14.122,3.601l70.282-16.23c8.575-1.98,15.994,3.588,16.488,12.374l1.664,29.594
	c0.494,8.786-5.492,19.293-13.302,23.349l-9.275,4.816c-7.81,4.056-14.455,8.626-14.767,10.157s6.448,1.163,15.022-0.817
	l16.568-3.827c2.683-0.619,5.899-1.045,9.315-1.277c1.571,3.727,3.8,6.672,6.274,6.672c2.475,0,4.704-2.945,6.275-6.672
	c3.416,0.232,6.633,0.658,9.315,1.277l16.568,3.827c8.574,1.98,15.334,2.349,15.021,0.817s-6.958-6.102-14.768-10.157l-9.274-4.816
	c-7.81-4.056-13.795-14.563-13.301-23.349l1.672-29.719c0.494-8.786,7.914-14.354,16.488-12.375l70.829,16.357
	C235.623,152.659,241.978,151.039,241.17,147.078z"/>
</svg>
