<?xml version="1.0" encoding="utf-8"?>
<!-- (c) mapshakers 2015, Licence: CC0 1.0 Universal, www.mapshakers.com  -->
<!DOCTYPE svg PUBLIC "-//W3C//DTD SVG 1.1//EN" "http://www.w3.org/Graphics/SVG/1.1/DTD/svg11.dtd">
<svg version="1.1" id="archeological" xmlns="http://www.w3.org/2000/svg" xmlns:xlink="http://www.w3.org/1999/xlink" x="0px" y="0px"
	 width="256px" height="256px" viewBox="0 0 256 256" style="enable-background:new 0 0 256 256;" xml:space="preserve">
<style type="text/css">
<![CDATA[
	.st0{fill:#D1D1D1;}
	.st1{fill:#454545;}
]]>
</style>
<g id="stit_1_">
</g>
<g id="stit">
	<path class="st0" d="M222.994,91.79c0-20.284-12.811-37.619-30.738-44.297c0.844-3.15,1.214-6.447,0.916-9.886
		c-0.225-2.567-1.482-4.933-3.483-6.555c-1.7-1.376-3.813-2.116-5.977-2.116c-0.386,0-0.772,0.023-1.158,0.071
		c-24.357,2.998-46.16,3.231-52.263,3.231c-1.357,0-2.106-0.011-2.147-0.012c-0.048,0-0.094-0.001-0.143-0.001c0,0,0,0-0.002,0
		c0,0,0,0-0.002,0c-0.046,0-0.094,0-0.141,0.001c-0.041,0.001-0.792,0.012-2.147,0.012c-6.103,0-27.907-0.233-52.263-3.231
		c-0.388-0.047-0.774-0.071-1.16-0.071c-2.164,0-4.276,0.74-5.976,2.116c-2.002,1.622-3.259,3.987-3.482,6.555
		c-0.3,3.439,0.071,6.736,0.915,9.886C45.816,54.171,33.006,71.506,33.006,91.79c0,14.123,6.218,26.81,16.042,35.473
		c-0.537,3.122-0.793,6.114-0.841,8.908c-0.409,23.599,13.258,48.492,37.833,70.628c-8.578,4.918-14.111,11.734-14.111,20.38
		c0,12.058,15.801,14.588,22.549,15.668c8.928,1.43,20.833,2.217,33.522,2.217s24.595-0.787,33.523-2.217
		c6.746-1.08,22.548-3.61,22.548-15.668c0-8.646-5.533-15.462-14.11-20.38c24.574-22.136,38.241-47.029,37.833-70.628
		c-0.048-2.794-0.304-5.786-0.842-8.908C216.776,118.6,222.994,105.913,222.994,91.79z"/>
	<g>
		<path class="st1" d="M80.081,129.215c-20.722,0-37.581-16.931-37.581-37.741c0-20.81,16.859-37.74,37.581-37.74
			c20.723,0,37.582,16.93,37.582,37.74C117.663,112.284,100.804,129.215,80.081,129.215z M80.081,68.924
			c-12.345,0-22.39,10.116-22.39,22.549c0,12.434,10.044,22.55,22.39,22.55c12.346,0,22.39-10.116,22.39-22.55
			C102.471,79.04,92.427,68.924,80.081,68.924z"/>
	</g>
	<g>
		<path class="st1" d="M175.918,129.215c-20.723,0-37.581-16.931-37.581-37.741c0-20.81,16.858-37.74,37.581-37.74
			c20.722,0,37.581,16.93,37.581,37.74C213.499,112.284,196.64,129.215,175.918,129.215z M175.918,68.924
			c-12.347,0-22.39,10.116-22.39,22.549c0,12.434,10.043,22.55,22.39,22.55c12.345,0,22.391-10.116,22.391-22.55
			C198.309,79.04,188.263,68.924,175.918,68.924z"/>
	</g>
	<path class="st1" d="M127.999,206.608c-25.723,0-46.576,9.067-46.576,20.254c0,5.594,23.289,8.391,46.576,8.391
		c23.289,0,46.577-2.797,46.577-8.391C174.576,215.676,153.723,206.608,127.999,206.608z"/>
	<path class="st1" d="M160.766,85.08c-13.523-7.111,24.817-25.479,22.946-46.965c-29.935,3.685-55.713,3.29-55.713,3.29
		s-25.777,0.395-55.713-3.29c-1.871,21.487,36.47,39.854,22.947,46.965c-64.64,33.989-40.674,97.803,32.766,139.726
		C201.44,182.883,225.406,119.069,160.766,85.08z M175.466,159.935c-10.043,24.492-35.228,41.063-35.228,41.063
		s14.051-15.666,23.841-40.262c6.675-16.769,1.838-31.522,1.838-31.522S185.511,135.442,175.466,159.935z"/>
</g>
</svg>
