<?xml version="1.0" encoding="utf-8"?>
<!-- (c) mapshakers 2015, Licence: CC0 1.0 Universal, www.mapshakers.com  -->
<!DOCTYPE svg PUBLIC "-//W3C//DTD SVG 1.1//EN" "http://www.w3.org/Graphics/SVG/1.1/DTD/svg11.dtd">
<svg version="1.1" id="arrow_up" xmlns="http://www.w3.org/2000/svg" xmlns:xlink="http://www.w3.org/1999/xlink" x="0px"
	 y="0px" width="256px" height="256px" viewBox="0 0 256 256" style="enable-background:new 0 0 256 256;" xml:space="preserve">
<style type="text/css">
<![CDATA[
	.st0{fill:#D1D1D1;}
	.st1{fill:#454545;}
]]>
</style>
<path class="st0" d="M127,253.836c-14.345,0-23.226-11.288-26.212-17.959c-2.827-6.313-4.959-16.294-4.959-23.213V146.31
	l-43.353,18.906c-2.769,1.331-5.289,1.979-7.699,1.979c-4.329,0-8.134-2.153-10.178-5.761c-1.657-2.923-2.779-7.83,1.278-14.604
	l77.406-129.225c3.197-5.338,8.197-8.4,13.717-8.4c5.52,0,10.52,3.062,13.718,8.4l77.407,129.224
	c4.06,6.776,2.933,11.691,1.272,14.62c-2.051,3.618-5.87,5.778-10.217,5.778l0,0c-2.392,0-4.894-0.633-7.639-1.934l-43.371-18.741
	v66.112c0,6.919-2.132,16.897-4.959,23.213C150.227,242.547,141.346,253.836,127,253.836z"/>
<path class="st1" d="M205.685,156.189c4.95,2.396,6.688,0.496,3.862-4.223L132.139,22.743c-2.826-4.718-7.451-4.718-10.277,0
	L44.456,151.967c-2.826,4.719-1.101,6.593,3.834,4.165l48.229-21.033c5.12-2.008,9.31,0.85,9.31,6.35v71.216
	c0,5.5,1.839,14.107,4.086,19.127c0,0,5.393,12.045,17.085,12.045c11.693,0,17.085-12.045,17.085-12.045
	c2.247-5.02,4.086-13.627,4.086-19.127v-70.95c0-5.5,4.19-8.359,9.312-6.354L205.685,156.189z"/>
</svg>
