<?xml version="1.0" encoding="utf-8"?>
<!-- (c) mapshakers 2015, Licence: CC0 1.0 Universal, www.mapshakers.com  -->
<!DOCTYPE svg PUBLIC "-//W3C//DTD SVG 1.1//EN" "http://www.w3.org/Graphics/SVG/1.1/DTD/svg11.dtd">
<svg version="1.1" id="arrow_up_double" xmlns="http://www.w3.org/2000/svg" xmlns:xlink="http://www.w3.org/1999/xlink" x="0px"
	 y="0px" width="256px" height="256px" viewBox="0 0 256 256" style="enable-background:new 0 0 256 256;" xml:space="preserve">
<style type="text/css">
<![CDATA[
	.st0{fill:#D1D1D1;}
	.st1{fill:#454545;}
]]>
</style>
<path class="st0" d="M16.062,109.289c0-12.317,7.924-26.453,18.431-32.88l73.234-44.798c10.756-6.579,26.978-6.579,37.734,0
	l73.233,44.798c10.508,6.427,18.431,20.563,18.431,32.88v9.434c0,7.833-3.295,14.26-9.041,17.632
	c-5.747,3.373-12.965,3.117-19.804-0.701l-72.592-40.528c-4.675-2.61-13.515-2.61-18.19,0l-72.592,40.528
	c-6.839,3.818-14.058,4.074-19.803,0.701c-5.746-3.372-9.042-9.799-9.042-17.632V109.289z"/>
<path class="st0" d="M16.062,206.896c0-12.316,7.923-26.452,18.43-32.88l73.235-44.797c10.755-6.581,26.978-6.581,37.734,0
	l73.233,44.797c10.508,6.429,18.431,20.563,18.431,32.88v9.436c0,7.833-3.295,14.26-9.041,17.633
	c-5.747,3.373-12.965,3.117-19.804-0.701l-72.592-40.529c-4.675-2.61-13.515-2.61-18.19,0l-72.592,40.529
	c-6.839,3.818-14.058,4.074-19.803,0.701c-5.746-3.373-9.042-9.8-9.042-17.633V206.896z"/>
<path class="st1" d="M40.032,126.924c-7.684,4.289-13.97,0.6-13.97-8.201v-9.434c0-8.8,6.142-19.757,13.648-24.349l73.234-44.798
	c7.507-4.592,19.791-4.592,27.297,0l73.234,44.798c7.507,4.592,13.648,15.549,13.648,24.349v9.434c0,8.8-6.286,12.49-13.97,8.201
	l-72.592-40.529c-7.684-4.29-20.256-4.29-27.94,0L40.032,126.924z"/>
<path class="st1" d="M40.032,224.532c-7.684,4.29-13.97,0.6-13.97-8.2v-9.436c0-8.8,6.142-19.757,13.648-24.35l73.234-44.797
	c7.507-4.593,19.791-4.593,27.297,0l73.234,44.797c7.507,4.593,13.648,15.55,13.648,24.35v9.436c0,8.8-6.287,12.49-13.97,8.2
	l-72.592-40.529c-7.684-4.29-20.256-4.29-27.94,0L40.032,224.532z"/>
</svg>
