<?xml version="1.0" encoding="utf-8"?>
<!-- (c) mapshakers 2015, Licence: CC0 1.0 Universal, www.mapshakers.com  -->
<!DOCTYPE svg PUBLIC "-//W3C//DTD SVG 1.1//EN" "http://www.w3.org/Graphics/SVG/1.1/DTD/svg11.dtd">
<svg version="1.1" id="bars" xmlns="http://www.w3.org/2000/svg" xmlns:xlink="http://www.w3.org/1999/xlink" x="0px" y="0px"
	 width="256px" height="256px" viewBox="0 0 256 256" style="enable-background:new 0 0 256 256;" xml:space="preserve">
<style type="text/css">
<![CDATA[
	.st0{fill:#464646;}
	.st1{fill:#D1D1D1;}
]]>
</style>
<path class="st1" d="M43.059,225.834c-9.131,0-16.559-7.428-16.559-16.559v-20.883c0-9.131,7.428-16.559,16.559-16.559h173.882
	c9.131,0,16.559,7.428,16.559,16.559v20.883c0,9.131-7.428,16.559-16.559,16.559H43.059z M43.059,155.667
	c-9.131,0-16.559-7.428-16.559-16.559v-20.882c0-9.131,7.428-16.559,16.559-16.559h173.882c9.131,0,16.559,7.428,16.559,16.559
	v20.882c0,9.131-7.428,16.559-16.559,16.559H43.059z M43.059,85.5c-9.131,0-16.559-7.428-16.559-16.559V48.059
	c0-9.131,7.428-16.559,16.559-16.559h173.882c9.131,0,16.559,7.428,16.559,16.559v20.882c0,9.131-7.428,16.559-16.559,16.559H43.059
	z"/>
<path class="st0" d="M223.5,68.941c0,3.607-2.951,6.559-6.559,6.559H43.059c-3.607,0-6.559-2.952-6.559-6.559V48.059
	c0-3.607,2.952-6.559,6.559-6.559h173.882c3.607,0,6.559,2.952,6.559,6.559V68.941z M223.5,118.226c0-3.607-2.951-6.559-6.559-6.559
	H43.059c-3.607,0-6.559,2.952-6.559,6.559v20.882c0,3.607,2.952,6.559,6.559,6.559h173.882c3.607,0,6.559-2.951,6.559-6.559V118.226
	z M223.5,188.393c0-3.607-2.951-6.559-6.559-6.559H43.059c-3.607,0-6.559,2.951-6.559,6.559v20.883c0,3.607,2.952,6.559,6.559,6.559
	h173.882c3.607,0,6.559-2.951,6.559-6.559V188.393z"/>
</svg>
