<?xml version="1.0" encoding="utf-8"?>
<!-- (c) mapshakers 2015, Licence: CC0 1.0 Universal, www.mapshakers.com  -->
<!DOCTYPE svg PUBLIC "-//W3C//DTD SVG 1.1//EN" "http://www.w3.org/Graphics/SVG/1.1/DTD/svg11.dtd">
<svg version="1.1" id="battlefield" xmlns="http://www.w3.org/2000/svg" xmlns:xlink="http://www.w3.org/1999/xlink" x="0px"
	 y="0px" width="256px" height="256px" viewBox="0 0 256 256" style="enable-background:new 0 0 256 256;" xml:space="preserve">
<style type="text/css">
<![CDATA[
	.st0{fill:#D1D1D1;}
	.st1{fill:#454545;}
]]>
</style>
<path class="st0" d="M33.811,249.595c-4.842,0-9.278-1.771-12.492-4.983l-9.595-9.594c-7.669-7.673-6.338-21.02,3.029-30.39
	c5.069-5.069,11.562-7.983,17.821-8.002l15.472-15.472c-9.146-8.094-13.311-10.414-14.024-10.784
	c-12.19-4.836-14.102-11.687-13.545-16.599c0.562-4.955,4.009-11.268,17.246-13.198c0.476-0.069,2.242-0.294,5.033-0.294
	c6.208,0,17.583,1.128,30.459,7.813l15.805-17.72l-70.434-62.82c-1.829-1.631-3.016-3.86-3.349-6.288l-5.564-40.6
	c-0.445-3.247,0.681-6.511,3.034-8.792c1.937-1.879,4.516-2.906,7.169-2.906c0.569,0,1.142,0.047,1.712,0.144l40.729,6.864
	c2.31,0.39,4.418,1.555,5.977,3.303l59.885,67.188l60.23-67.529c1.63-1.829,3.86-3.016,6.286-3.349l40.6-5.565
	c0.469-0.064,0.936-0.096,1.4-0.096c2.767,0,5.438,1.116,7.393,3.13c2.281,2.353,3.309,5.65,2.764,8.882l-6.865,40.728
	c-0.389,2.31-1.555,4.418-3.303,5.977l-69.316,61.785l15.408,17.288c12.873-6.682,24.246-7.81,30.453-7.81
	c2.793,0,4.561,0.225,5.035,0.294c13.236,1.929,16.686,8.239,17.246,13.192c0.557,4.914-1.355,11.764-13.546,16.601
	c-0.714,0.37-4.878,2.69-14.022,10.784l15.475,15.473c6.257,0.021,12.748,2.934,17.816,8.003c9.369,9.368,10.699,22.717,3.031,30.39
	l-9.599,9.596c-3.212,3.212-7.647,4.982-12.489,4.982c-0.001,0-0.001,0-0.003,0c-6.282-0.001-12.806-2.922-17.896-8.016
	c-5.174-5.172-7.979-11.684-7.998-17.816l-15.476-15.474c-8.093,9.146-10.413,13.312-10.782,14.022
	c-3.586,9.039-8.705,13.625-15.224,13.625c-4.499,0-12.375-2.252-14.575-17.323c-0.109-0.755-2.253-16.593,7.524-35.488
	l-19.536-17.425L108.24,183.13c9.777,18.896,7.632,34.731,7.522,35.481c-2.196,15.074-10.073,17.326-14.572,17.326
	c-6.516,0-11.635-4.582-15.22-13.623c-0.371-0.715-2.693-4.879-10.786-14.022l-15.476,15.476
	c-0.022,6.131-2.828,12.643-7.999,17.813C46.616,246.675,40.092,249.595,33.811,249.595z"/>
<path class="st1" d="M236.98,227.359l-9.598,9.595c-3.533,3.534-10.617,2.177-15.822-3.029c-4.448-4.448-6.074-10.262-4.249-14.065
	l-26.807-26.807c-17.362,18.167-19.962,24.848-19.962,24.848c-3.982,10.252-8.539,9.734-10.127-1.146c0,0-2.47-16.946,10.522-36.039
	l-32.724-29.187L95.049,181.09c12.989,19.093,10.521,36.038,10.521,36.038c-1.585,10.882-6.142,11.397-10.122,1.146
	c0,0-2.6-6.681-19.972-24.854l-26.804,26.804c1.83,3.804,0.205,9.622-4.247,14.075c-5.206,5.205-12.29,6.563-15.822,3.03
	l-9.596-9.597c-3.533-3.532-2.175-10.615,3.03-15.822c4.447-4.446,10.257-6.071,14.06-4.252l26.808-26.809
	c-18.164-17.359-24.843-19.959-24.843-19.959c-10.251-3.981-9.734-8.539,1.147-10.125c0,0,16.946-2.47,36.039,10.521l28.314-31.746
	L25.442,59.866l-5.564-40.599l40.728,6.864l67.573,75.811l67.919-76.15l40.598-5.565l-6.864,40.728l-77.006,68.638l27.916,31.32
	c19.093-12.989,36.038-10.519,36.038-10.519c10.882,1.584,11.396,6.141,1.146,10.121c0,0-6.68,2.599-24.85,19.966l26.807,26.806
	c3.804-1.825,9.618-0.2,14.068,4.25C239.154,216.742,240.514,223.826,236.98,227.359z"/>
</svg>
