<?xml version="1.0" encoding="utf-8"?>
<!-- (c) mapshakers 2015, Licence: CC0 1.0 Universal, www.mapshakers.com  -->
<!DOCTYPE svg PUBLIC "-//W3C//DTD SVG 1.1//EN" "http://www.w3.org/Graphics/SVG/1.1/DTD/svg11.dtd">
<svg version="1.1" id="bicycle" xmlns="http://www.w3.org/2000/svg" xmlns:xlink="http://www.w3.org/1999/xlink" x="0px" y="0px"
	 width="256px" height="256px" viewBox="0 0 256 256" style="enable-background:new 0 0 256 256;" xml:space="preserve">
<style type="text/css">
<![CDATA[
	.st0{fill-rule:evenodd;clip-rule:evenodd;fill:#454545;}
	.st1{fill-rule:evenodd;clip-rule:evenodd;fill:#D1D1D1;}
	.st2{fill:#454545;}
]]>
</style>
<path class="st1" d="M194.912,126.479c-1.802,0-3.582,0.094-5.341,0.263c10.294-1.702,17.481-9.971,17.096-20.268
	c-0.293-7.818-5.637-13.071-13.299-13.071c-1.655,0-3.236,0.215-4.765,0.423c-1.309,0.178-2.545,0.346-3.695,0.367l-0.463,0.004
	c-4.864,0-11.942-0.832-13.676-1.453c-3.201-1.168-3.63-1.61-4.17-9.212c-0.089-1.262-0.189-2.62-0.342-4.028
	c3.461,1.389,7.227,2.171,11.171,2.19l0.161,0c17.426,0,31.102-13.555,31.134-30.858c0.017-8.227-3.201-15.965-9.059-21.79
	c-5.835-5.803-13.589-9.003-21.869-9.012c-13.829,0-25.578,9.142-29.494,21.688c-2.501-1.397-5.177-2.356-7.987-2.844
	c-3.309-0.575-6.705-0.949-10.095-1.111c-0.843-0.04-1.695-0.061-2.547-0.061c-13.899,0-28.672,5.468-40.532,15.004
	c-12.9,10.373-21.759,25.005-24.944,41.201l-0.292,1.472c-1.485,7.474-3.17,15.945-1.096,24.278c0.608,2.446,1.515,4.738,2.7,6.88
	c-0.804-0.035-1.609-0.062-2.421-0.062c-30.554,0-55.412,24.856-55.412,55.411c0,30.554,24.858,55.411,55.412,55.411
	c28.596,0,52.199-21.776,55.106-49.617c3.214,5.767,8.695,10.213,15.831,10.213c1.015,0,2.039-0.099,3.049-0.294
	c2.274-0.44,4.288-1.281,6.051-2.419c5.973,24.153,27.817,42.117,53.788,42.117c30.553,0,55.409-24.857,55.41-55.41
	C250.321,151.337,225.465,126.479,194.912,126.479z M146.695,154.638c-1.269-7.67-2.529-15.324-3.787-23.038
	c-1.511-9.268-7.108-13.746-11.536-15.869c-3.997-1.917-7.25-3.487-10.333-4.975c-3.761-1.814-7.27-3.507-11.562-5.559
	c0.203-0.781,0.395-1.627,0.543-2.531c1.709-10.41,5.739-12.11,14.567-15.835c0.325-0.138,0.654-0.277,0.987-0.417
	c5.009,17.528,14.724,30.181,27.666,35.888c9.634,4.248,19.293,4.947,26.632,5.082l0.332,0.006l2.349-0.124
	c1.37-0.074,2.739-0.147,4.109-0.205c0.29-0.012,0.567-0.051,0.854-0.074C170.006,129.334,155.067,139.884,146.695,154.638z"/>
<g>
	<path class="st2" d="M61.088,155.076c14.785,0,26.813,12.029,26.813,26.814s-12.028,26.813-26.813,26.813
		c-14.785,0-26.814-12.029-26.814-26.813C34.273,167.105,46.302,155.076,61.088,155.076 M61.088,136.012
		c-25.338,0-45.879,20.54-45.879,45.879c0,25.337,20.541,45.878,45.879,45.878c25.336,0,45.877-20.542,45.877-45.878
		C106.965,156.552,86.425,136.012,61.088,136.012L61.088,136.012z"/>
</g>
<g>
	<path class="st2" d="M194.913,155.075h-0.002c14.785,0.001,26.813,12.031,26.814,26.815c-0.001,14.785-12.029,26.813-26.813,26.813
		c-14.785,0-26.814-12.028-26.814-26.813S180.127,155.076,194.913,155.075 M194.912,136.011
		c-25.337,0.001-45.879,20.541-45.879,45.88c0,25.337,20.542,45.878,45.879,45.878c25.338,0,45.877-20.54,45.878-45.877
		C240.789,156.553,220.251,136.012,194.912,136.011L194.912,136.011z"/>
</g>
<path class="st0" d="M177.821,29.566c11.811,0.013,21.393,9.542,21.37,21.251c-0.022,11.99-9.6,21.403-21.716,21.344
	c-11.584-0.058-21.06-9.678-21.03-21.354C156.475,39.047,166.028,29.553,177.821,29.566z"/>
<path class="st0" d="M185.075,103.724c-4.294,0.075-13.854-0.667-17.575-2.026c-12.293-4.488-9.359-14.815-11.141-24.109
	c-0.057-0.291-0.136-0.584-0.203-0.876c-6.85-6.5-11.15-15.697-11.154-25.835c-1.874-1.293-4.011-2.208-6.318-2.608
	c-2.942-0.511-5.936-0.838-8.92-0.981c-23.732-1.137-52.08,17.271-58.214,48.462c-2.797,14.223-6.594,29.091,14.984,37.465
	c7.209,2.797,8.41,3.368,25.344,6.824c1.334,0.272,1.925,1.291,2.036,2.72c1.754,22.688,6.699,17.684,8.685,34.404
	c0.686,5.772,5.093,12.158,10.661,11.082c5.665-1.098,8.007-8.075,7.065-13.748c-2.29-13.786-4.576-27.571-6.824-41.363
	c-0.651-3.99-2.533-7.025-6.252-8.809c-10.385-4.982-15.756-7.618-26.158-12.565c-4.198-1.997-1.237-6.003-0.476-10.637
	c3.601-21.933,18.598-19.979,31.884-28.945c0.357,4.468,1.19,7.52,1.19,7.52c3.12,13.638,10.212,28.068,23.399,33.883
	c7.308,3.222,15.063,4.128,22.961,4.272c2.074-0.106,4.146-0.229,6.219-0.316c6.483-0.27,11.095-4.803,10.873-10.707
	C196.912,100.703,191.618,103.607,185.075,103.724z"/>
</svg>
