<?xml version="1.0" encoding="utf-8"?>
<!-- (c) mapshakers 2015, Licence: CC0 1.0 Universal, www.mapshakers.com  -->
<!DOCTYPE svg PUBLIC "-//W3C//DTD SVG 1.1//EN" "http://www.w3.org/Graphics/SVG/1.1/DTD/svg11.dtd">
<svg version="1.1" id="bus" xmlns="http://www.w3.org/2000/svg" xmlns:xlink="http://www.w3.org/1999/xlink" x="0px" y="0px"
	 width="256px" height="256px" viewBox="0 0 256 256" style="enable-background:new 0 0 256 256;" xml:space="preserve">
<style type="text/css">
<![CDATA[
	.st0{fill:#D1D1D1;}
	.st1{fill:#454545;}
]]>
</style>
<path class="st0" d="M194.301,250.271c-16.818,0-30.5-12.33-30.5-27.486v-10.014H93.134v10.014c0,15.156-13.682,27.486-30.5,27.486
	c-16.818,0-30.5-12.33-30.5-27.486v-10.553c-8.312-2.025-14.5-9.535-14.5-18.461v-161c0-10.477,8.523-19,19-19h182
	c10.478,0,19,8.523,19,19v161c0,8.316-5.374,15.404-12.833,17.973v11.041C224.801,237.941,211.119,250.271,194.301,250.271z"/>
<path class="st1" d="M220.5,23.5h-182c-4.971,0-9,4.029-9,9v161c0,4.971,4.029,9,9,9H44v20.016C44,232.172,53.178,240,64.5,240
	S85,232.172,85,222.514V202.5h90.667v20.016c0,9.656,9.179,17.484,20.5,17.484s20.5-7.828,20.5-17.484V202.5h3.833
	c4.971,0,9-4.029,9-9v-161C229.5,27.529,225.471,23.5,220.5,23.5z M143.689,131.334c0.576-6.752,9.519-12.334,20.068-12.334
	c10.551,0,19.492,5.582,20.069,12.334H143.689z M210.813,166.688c0,8.09-6.557,14.646-14.646,14.646s-14.646-6.557-14.646-14.646
	c0-8.088,6.557-14.646,14.646-14.646S210.813,158.6,210.813,166.688z M206.5,59.597v63.807c0,3.94-2.877,7.2-6.643,7.817
	c-0.53-15.633-16.514-28.221-36.1-28.221c-19.632,0-35.646,12.649-36.104,28.334H61.763c-4.38,0-7.93-3.551-7.93-7.93V85.167h40.334
	c4.971,0,9-4.029,9-9V51.833c0-0.056-0.007-0.11-0.008-0.166h95.411C202.949,51.667,206.5,55.218,206.5,59.597z M49.854,166.688
	c0-8.088,6.557-14.646,14.646-14.646s14.646,6.558,14.646,14.646c0,8.09-6.557,14.646-14.646,14.646S49.854,174.777,49.854,166.688z
	"/>
</svg>
