<?xml version="1.0" encoding="utf-8"?>
<!-- (c) mapshakers 2015, Licence: CC0 1.0 Universal, www.mapshakers.com  -->
<!DOCTYPE svg PUBLIC "-//W3C//DTD SVG 1.1//EN" "http://www.w3.org/Graphics/SVG/1.1/DTD/svg11.dtd">
<svg version="1.1" id="bus_stop" xmlns="http://www.w3.org/2000/svg" xmlns:xlink="http://www.w3.org/1999/xlink" x="0px" y="0px"
	 width="256px" height="256px" viewBox="0 0 256 256" style="enable-background:new 0 0 256 256;" xml:space="preserve">
<style type="text/css">
<![CDATA[
	.st0{fill:#D1D1D1;}
	.st1{fill:#454545;}
]]>
</style>
<path class="st0" d="M77.308,252.927c-8.28,0-15.016-6.735-15.016-15.015c0-8.28,6.736-15.017,15.016-15.017H96.63V57.108
	c-6.661-5.907-10.627-14.497-10.627-23.534c0-17.313,14.086-31.399,31.399-31.399c17.314,0,31.399,14.086,31.399,31.399
	c0,7.073-2.429,13.871-6.677,19.323h43.038c18.128,0,32.878,14.75,32.878,32.879v80.661c0,10.971-5.424,21.146-14.524,27.275
	c-0.158,0.111-0.32,0.22-0.485,0.322c-5.329,3.456-11.501,5.28-17.868,5.28h-46.989v23.581h22.543
	c8.28,0,15.016,6.736,15.016,15.017c0,8.279-6.735,15.015-15.016,15.015H77.308z"/>
<g>
	<rect x="107.318" y="29.221" class="st1" width="22.221" height="208.686"/>
</g>
<circle class="st1" cx="118.429" cy="35.018" r="21.738"/>
<g>
	<path class="st1" d="M161.744,244.71h-83.41c-2.957,0-5.354-2.396-5.354-5.354c0-2.959,2.397-5.355,5.354-5.355h83.41
		c2.956,0,5.354,2.396,5.354,5.355C167.098,242.313,164.7,244.71,161.744,244.71z"/>
</g>
<g>
	<path class="st1" d="M169.854,115.366c2.224-1.535,3.337-4.074,3.337-7.616c0-3.306-1.212-5.677-3.633-7.114
		c-2.42-1.437-6.248-2.154-11.482-2.154h-9.623v19.186h10.627C164.038,117.668,167.629,116.901,169.854,115.366z"/>
	<path class="st1" d="M159.787,132.192h-11.334v22.493h11.926c5.038,0,8.756-0.964,11.158-2.893c2.4-1.929,3.603-4.881,3.603-8.855
		C175.138,135.774,170.021,132.192,159.787,132.192z"/>
	<path class="st1" d="M186.189,64.003h-55.171c-12.822,0-23.216,10.395-23.216,23.216v80.661c0,12.822,10.395,23.217,23.216,23.217
		h55.171c12.822,0,23.217-10.395,23.217-23.217V87.22C209.406,74.398,199.012,64.003,186.189,64.003z M185.617,163.188
		c-5.688,4.409-13.412,6.613-23.174,6.613H130.15V83.486h26.862c12.241,0,21.125,1.742,26.656,5.224
		c5.529,3.483,8.295,9.024,8.295,16.619c0,5.158-1.21,9.388-3.631,12.694s-5.638,5.293-9.653,5.963v0.59
		c5.47,1.22,9.418,3.503,11.838,6.848c2.421,3.348,3.631,7.793,3.631,13.344C194.148,152.641,191.304,158.78,185.617,163.188z"/>
</g>
</svg>
