<?xml version="1.0" encoding="utf-8"?>
<!-- (c) mapshakers 2015, Licence: CC0 1.0 Universal, www.mapshakers.com  -->
<!DOCTYPE svg PUBLIC "-//W3C//DTD SVG 1.1//EN" "http://www.w3.org/Graphics/SVG/1.1/DTD/svg11.dtd">
<svg version="1.1" id="cable_car" xmlns="http://www.w3.org/2000/svg" xmlns:xlink="http://www.w3.org/1999/xlink" x="0px" y="0px"
	 width="256px" height="256px" viewBox="0 0 256 256" style="enable-background:new 0 0 256 256;" xml:space="preserve">
<style type="text/css">
<![CDATA[
	.st0{fill:#D1D1D1;}
	.st1{fill:#454545;}
]]>
</style>
<path class="st0" d="M251.066,76.888c-1.948-3.575-5.172-6.176-9.074-7.325l-89.574-26.381
	c-3.756-12.425-15.343-21.416-28.82-21.416c-7.176,0-14.105,2.609-19.502,7.184l-81.489-24c-1.4-0.412-2.848-0.621-4.302-0.621
	c-6.709,0-12.718,4.496-14.614,10.933C1.319,23.32,5.945,31.807,14.002,34.18l80.069,23.581c0.338,1.699,0.822,3.363,1.446,4.976
	l-40.596,60.391H34.761c-13.192,0-23.925,10.733-23.925,23.925v80.692c0,13.193,10.733,23.926,23.925,23.926h170.954
	c13.191,0,23.925-10.732,23.925-23.926v-80.692c0-13.191-10.733-23.925-23.925-23.925h-19.491l-27.69-46.381l74.847,22.044
	c1.402,0.414,2.854,0.624,4.312,0.624c6.707,0,12.715-4.495,14.612-10.934C253.453,84.577,253.013,80.46,251.066,76.888z
	 M122.733,83.138l23.876,39.99H95.852L122.733,83.138z"/>
<g>
	<path class="st1" d="M68.316,146.346l-13.338-7.943l61.954-92.164c1.485-2.209,4.069-3.518,6.875-3.454
		c2.777,0.067,5.313,1.506,6.674,3.787l55.022,92.164l-13.759,7.278l-48.547-81.31L68.316,146.346z"/>
</g>
<path class="st1" d="M205.718,131.164H34.764c-8.114,0-14.691,6.578-14.691,14.691v80.692c0,8.113,6.578,14.692,14.691,14.692
	h170.954c8.113,0,14.691-6.579,14.691-14.692v-80.692C220.409,137.742,213.831,131.164,205.718,131.164z M109.932,196.721
	c0,2.616-2.119,4.736-4.735,4.736H45.326c-2.615,0-4.735-2.12-4.735-4.736v-41.242c0-2.615,2.119-4.735,4.735-4.735h59.871
	c2.615,0,4.735,2.12,4.735,4.735V196.721z M200.684,196.721c0,2.616-2.12,4.736-4.736,4.736h-59.87c-2.615,0-4.735-2.12-4.735-4.736
	v-41.242c0-2.615,2.12-4.735,4.735-4.735h59.87c2.616,0,4.736,2.12,4.736,4.735V196.721z"/>
<g>
	<path class="st1" d="M237.693,88.984c-0.562,0-1.132-0.079-1.697-0.246L16.614,24.125c-3.179-0.937-4.998-4.273-4.062-7.453
		c0.936-3.18,4.274-4.996,7.453-4.061l219.382,64.612c3.18,0.936,4.998,4.273,4.062,7.454
		C242.679,87.29,240.286,88.984,237.693,88.984z"/>
</g>
<circle class="st1" cx="123.601" cy="50.674" r="20.871"/>
</svg>
