<?xml version="1.0" encoding="utf-8"?>
<!-- (c) mapshakers 2015, Licence: CC0 1.0 Universal, www.mapshakers.com  -->
<!DOCTYPE svg PUBLIC "-//W3C//DTD SVG 1.1//EN" "http://www.w3.org/Graphics/SVG/1.1/DTD/svg11.dtd">
<svg version="1.1" id="caravan_site" xmlns="http://www.w3.org/2000/svg" xmlns:xlink="http://www.w3.org/1999/xlink" x="0px"
	 y="0px" width="256px" height="256px" viewBox="0 0 256 256" style="enable-background:new 0 0 256 256;" xml:space="preserve">
<style type="text/css">
<![CDATA[
	.st0{fill:#D1D1D1;}
	.st1{fill:#454545;}
]]>
</style>
<path class="st0" d="M244.665,211.838H233.53c0.556-2.476,0.848-4.874,0.841-7.084c-0.035-11.475-3.545-41.783-35.296-75.296
	c-16.021-16.913-47.74-34.984-88.717-34.984H34.01c-17.408,0-31.57,14.162-31.57,31.57v84.939c0,17.408,14.163,31.57,31.57,31.57
	h18.486c1.086,0,2.153-0.177,3.167-0.504C61.166,250.441,70.649,256,81.412,256c11.062,0,20.776-5.869,26.201-14.656
	c1.477,0.784,3.135,1.209,4.839,1.209h4.623c0.321,0.03,0.644,0.045,0.97,0.045h57.604c0.319,0,0.637-0.015,0.954-0.045h24.085
	c0.321,0.03,0.646,0.045,0.976,0.045h43.003c5.709,0,10.335-4.627,10.335-10.334v-10.091
	C255,216.466,250.374,211.838,244.665,211.838z"/>
<circle class="st1" cx="81.412" cy="224.872" r="20.439"/>
<path class="st1" d="M218.003,221.818c3.769-5.715,6.049-12.654,6.034-17.387c-0.045-14.7-6.594-40.914-32.464-68.222
	c-15.927-16.812-45.923-31.756-81.215-31.756H34.01c-11.729,0-21.236,9.509-21.236,21.236v84.938
	c0,11.729,9.507,21.236,21.236,21.236h18.486c-0.002-0.12-0.019-0.236-0.019-0.356v-17.52c0-11.729,9.507-21.238,21.236-21.238
	h17.52c11.729,0,21.236,9.51,21.236,21.238v17.52c0,0.12-0.017,0.236-0.019,0.356h5.635l-0.042,0.045h57.604l0.043-0.045h25.972
	v0.045h43.003v-10.091H218.003L218.003,221.818z M101.696,168.157H52.82c-9.23,0-16.71-7.479-16.71-16.709v-5.43
	c0-9.23,7.48-16.711,16.71-16.711h48.876c9.228,0,16.71,7.48,16.71,16.711v5.43C118.406,160.678,110.924,168.157,101.696,168.157z
	 M143.526,222.747v-55.389c0-11.729,6.932-21.237,15.479-21.237h1.162c8.549,0,15.479,9.509,15.479,21.237v55.389H143.526z"/>
</svg>
