<?xml version="1.0" encoding="utf-8"?>
<!-- (c) mapshakers 2015, Licence: CC0 1.0 Universal, www.mapshakers.com  -->
<!DOCTYPE svg PUBLIC "-//W3C//DTD SVG 1.1//EN" "http://www.w3.org/Graphics/SVG/1.1/DTD/svg11.dtd">
<svg version="1.1" id="castle" xmlns="http://www.w3.org/2000/svg" xmlns:xlink="http://www.w3.org/1999/xlink" x="0px" y="0px"
	 width="256px" height="256px" viewBox="0 0 256 256" style="enable-background:new 0 0 256 256;" xml:space="preserve">
<style type="text/css">
<![CDATA[
	.st0{fill:#D1D1D1;}
	.st1{fill:#454545;}
]]>
</style>
<path class="st0" d="M245.943,51.748c-7.404-10.481-14.959-23.839-22.02-36.711c-3.086-5.63-8.057-8.859-13.637-8.859
	c-5.546,0-10.492,3.195-13.571,8.762c-7.173,12.964-14.838,26.397-22.247,36.772c-3.443,4.756-4.561,10.196-3.066,14.925
	c1.26,3.987,4.253,7.078,8.226,8.542c-2.272,2.955-3.487,6.707-3.438,10.774l-1,28.04c0-5.523-4.478-10-10-10h-4.773
	c-6.4,0-11.913,4.192-14.324,10.174c-2.456-5.862-7.911-9.949-14.231-9.949h-5.708c-6.704,0-12.435,4.599-14.646,11.037
	c-2.211-6.438-7.942-11.037-14.646-11.037h-0.348c-0.684-0.148-1.394-0.226-2.122-0.226h-3.125c-2.652,0-5.196,1.054-7.071,2.929
	c-1.875,1.875-3.444,4.419-3.444,7.071l-0.485-28.04c0.047-3.956-1.108-7.609-3.261-10.525c0.081-0.026,0.163-0.047,0.244-0.074
	c0.064-0.021,0.128-0.042,0.191-0.064c4.098-1.416,7.191-4.563,8.486-8.633c1.505-4.729,0.404-10.184-2.982-14.91
	c-7.398-10.474-14.956-23.835-22.02-36.711c-3.086-5.63-8.056-8.859-13.636-8.859c-5.546,0-10.493,3.195-13.571,8.762
	c-7.175,12.965-14.84,26.4-22.248,36.773c-3.443,4.757-4.56,10.197-3.066,14.925c1.26,3.987,4.254,7.078,8.226,8.541
	c-2.271,2.955-3.486,6.706-3.438,10.774V122v21.055v42.908c0,0.008-0.001,0.015-0.001,0.021v53.838c0,5.522,4.477,10,10,10h78.708
	h53.485h77.885c5.522,0,10-4.478,10-10V225.75v-39.764V111.5h-0.001V85.954c0.047-3.956-1.108-7.609-3.261-10.525
	c0.081-0.026,0.163-0.047,0.244-0.074c0.063-0.021,0.127-0.042,0.191-0.064c4.098-1.416,7.19-4.563,8.486-8.633
	C250.431,61.929,249.33,56.474,245.943,51.748z"/>
<path class="st1" d="M74.775,57.518c-7.484-10.596-15.081-23.93-22.621-37.674c-2.665-4.862-7.018-4.892-9.688-0.062
	c-7.632,13.792-15.321,27.187-22.896,37.794c-2.643,3.652-2.373,7.239,0.594,8.263c17.826,5.76,36.183,5.76,54.009,0
	C77.139,64.814,77.414,61.2,74.775,57.518z"/>
<path class="st1" d="M70.265,85.885c0.063-3.72-2.079-6.444-4.836-6.444c-0.324,0-0.656,0.037-0.995,0.115
	c-5.703,1.938-11.705,2.907-17.707,2.907c-6.002,0-12.004-0.968-17.708-2.907c-0.338-0.078-0.67-0.115-0.994-0.115
	c-2.758,0-4.898,2.724-4.836,6.444c0,19.056,0,38.113,0,57.17c0,21.003,11.77,31.505,23.539,31.505
	c11.77,0,23.538-10.502,23.538-31.505C70.265,123.998,70.265,104.942,70.265,85.885z"/>
<path class="st1" d="M237.775,57.518c-7.484-10.596-15.082-23.93-22.621-37.674c-2.665-4.862-7.018-4.892-9.688-0.062
	c-7.632,13.792-15.321,27.187-22.896,37.794c-2.644,3.652-2.372,7.239,0.595,8.263c17.825,5.76,36.183,5.76,54.009,0
	C240.139,64.814,240.414,61.2,237.775,57.518z"/>
<path class="st1" d="M233.265,85.885c0.063-3.72-2.079-6.444-4.836-6.444c-0.323,0-0.656,0.037-0.995,0.115
	c-5.702,1.938-11.705,2.907-17.707,2.907s-12.004-0.968-17.707-2.907c-0.338-0.078-0.67-0.115-0.994-0.115
	c-2.758,0-4.898,2.724-4.836,6.444c0,19.056,0,38.113,0,57.17c0,21.003,11.77,31.505,23.539,31.505s23.537-10.502,23.537-31.505
	C233.265,123.998,233.265,104.942,233.265,85.885z"/>
<path class="st1" d="M209.729,193.92c-21.592,0-44.539-19.229-44.539-54.865v-25.061h-2.299h-2.475
	c-3.091,0-5.619,3.114-5.619,6.921v6.123c0,3.806-2.528,6.919-5.62,6.919H143.1c-3.09,0-5.619-3.113-5.619-6.919v-5.897
	c0-3.806-2.529-6.921-5.62-6.921h-5.708c-3.092,0-5.62,3.115-5.62,6.921v5.897c0,3.806-2.528,6.919-5.62,6.919H108.1
	c-3.091,0-5.62-3.113-5.62-6.919v-5.897c0-3.806-2.529-6.921-5.62-6.921h-2.47v-0.226h-3.125l0,25.059
	c0,35.639-22.947,54.867-44.538,54.867c-8.082,0-16.353-2.695-23.54-7.936v53.838H59.22h35.17h7.505c3.091,0,5.62-3.114,5.62-6.921
	V182.77c0-0.247,0.01-0.494,0.03-0.741c-0.013-0.191-0.023-0.383-0.023-0.575c0-7.344,9.508-13.351,21.13-13.351
	c11.62,0,21.128,6.007,21.128,13.351c0,0.259-0.016,0.515-0.038,0.769c0.011,0.185,0.02,0.367,0.02,0.548v50.132
	c0,3.807,2.529,6.921,5.62,6.921h7.51h35.165h35.21v-53.836C226.079,191.225,217.81,193.92,209.729,193.92z"/>
</svg>
