<?xml version="1.0" encoding="utf-8"?>
<!-- (c) mapshakers 2015, Licence: CC0 1.0 Universal, www.mapshakers.com  -->
<!DOCTYPE svg PUBLIC "-//W3C//DTD SVG 1.1//EN" "http://www.w3.org/Graphics/SVG/1.1/DTD/svg11.dtd">
<svg version="1.1" id="castle_defensive" xmlns="http://www.w3.org/2000/svg" xmlns:xlink="http://www.w3.org/1999/xlink" x="0px" y="0px"
	 width="256px" height="256px" viewBox="0 0 256 256" style="enable-background:new 0 0 256 256;" xml:space="preserve">
<style type="text/css">
<![CDATA[
	.st0{fill:#D1D1D1;}
	.st1{fill:#454545;}
]]>
</style>
<path class="st0" d="M214.254,241.229c-9.374,0-17-7.626-17-17v-24.101c0-2.455-0.984-7.063-1.987-9.302
	c-3.082-6.794-12.333-20.869-21.188-20.869c-8.949,0-18.14,14.06-21.188,20.869c-1.003,2.239-1.987,6.847-1.987,9.302v24.101
	c0,9.374-7.626,17-17,17H37.886c-15.344,0-17-8.188-17-11.708V108.476c0-1.653-1.19-5.163-2.195-6.474l-5.872-7.666
	C9.158,89.558,6.5,81.719,6.5,75.698V46.105c0-9.374,7.626-17,17-17h2.592c6.845,0,12.758,4.067,15.45,9.911
	c2.692-5.844,8.605-9.911,15.451-9.911h3.646c6.846,0,12.759,4.066,15.451,9.911c2.692-5.845,8.605-9.911,15.451-9.911h3.646
	c6.844,0,12.757,4.066,15.45,9.909c2.692-5.843,8.605-9.909,15.45-9.909h2.527c9.374,0,17,7.626,17,17v29.593
	c0,6.021-2.658,13.86-6.32,18.639L133.421,102c-0.42,0.548-1.342,1.751-1.796,6.621c6.138,0.592,11.33,4.46,13.805,9.83
	c2.692-5.843,8.604-9.909,15.449-9.909h3.646c6.846,0,12.759,4.066,15.451,9.911c2.691-5.845,8.604-9.911,15.45-9.911h3.646
	c6.845,0,12.757,4.066,15.449,9.909c2.693-5.843,8.605-9.909,15.45-9.909h2.527c9.374,0,17,7.626,17,17v98.687
	c0,9.374-7.626,17-17,17H214.254z"/>
<path class="st1" d="M229.973,118.542c-3.85,0-7,3.15-7,7v7.792c0,3.85-4.855,7.29-7.746,7.378c-3.12,0.095-9.153-3.528-9.153-7.378
	v-7.792c0-3.85-3.15-7-7-7h-3.646c-3.85,0-7,3.15-7,7v8.205c0,3.85-5.012,7.308-8.072,7.311c-3.123,0.003-8.829-3.461-8.829-7.311
	v-8.205c0-3.85-3.15-7-7-7h-3.646c-3.85,0-7,3.15-7,7v7.792c0,3.85-4.973,7.206-8.087,7.219c-3.121,0.013-8.813-3.369-8.813-7.219
	v-7.792c0-3.85-3.15-7-7-7h-1.753c-3.85,0-6.841,0.729-6.861-2.4c-0.083-12.958,1.777-17.168,4.118-20.224l5.872-7.664
	c2.342-3.056,4.258-8.706,4.258-12.556V46.105c0-3.85-3.15-7-7-7h-2.527c-3.85,0-7,3.15-7,7v7.793c0,3.85-5.104,7.389-8.209,7.368
	c-3.123-0.021-8.69-3.518-8.69-7.368v-7.793c0-3.85-3.15-7-7-7H91.54c-3.85,0-7,3.15-7,7v8.205c0,3.85-5.318,7.252-8.306,7.225
	c-3.122-0.029-8.595-3.375-8.595-7.225v-8.205c0-3.85-3.15-7-7-7h-3.646c-3.85,0-7,3.15-7,7v7.793c0,3.85-5.418,7.297-8.553,7.306
	c-3.123,0.009-8.348-3.456-8.348-7.306v-7.793c0-3.85-3.15-7-7-7H23.5c-3.85,0-7,3.15-7,7v29.593c0,3.85,1.916,9.5,4.257,12.557
	l5.871,7.664c2.342,3.056,4.257,8.707,4.257,12.557c0,0,0,22.728,0,37.591c0,27.25,0,74.747,0,74.747c0,3.85,0,7.769,0,8.708
	s3.15,1.708,7,1.708h48.577c3.85,0,10.15,0,14,0h12.652c3.85,0,10.15,0,14,0h6.787c3.85,0,7-3.15,7-7v-24.101
	c0-3.85,1.287-9.875,2.86-13.389c0,0,11.992-26.782,30.315-26.782c18.322,0,30.315,26.782,30.315,26.782
	c1.573,3.514,2.86,9.539,2.86,13.389v24.101c0,3.85,3.15,7,7,7H232.5c3.85,0,7-3.15,7-7v-55.525c0-3.85,0-9.503,0-12.562
	c0-3.058,0-8.711,0-12.561v-18.04c0-3.85-3.15-7-7-7H229.973z M89.602,194.022c0,3.85-3.15,7-7,7h-9.96c-3.85,0-7-3.15-7-7v-18.771
	c0-3.85,1.287-9.875,2.861-13.389c0,0,2.503-5.59,9.12-5.59c6.616,0,9.119,5.59,9.119,5.59c1.573,3.514,2.86,9.539,2.86,13.389
	V194.022z M89.602,128.167c0,3.85-3.15,7-7,7h-9.96c-3.85,0-7-3.15-7-7v-18.771c0-3.85,1.287-9.875,2.86-13.389
	c0,0,2.503-5.591,9.12-5.591c6.616,0,9.12,5.591,9.12,5.591c1.573,3.514,2.86,9.539,2.86,13.389V128.167z"/>
</svg>
