<?xml version="1.0" encoding="utf-8"?>
<!-- (c) mapshakers 2015, Licence: CC0 1.0 Universal, www.mapshakers.com  -->
<!DOCTYPE svg PUBLIC "-//W3C//DTD SVG 1.1//EN" "http://www.w3.org/Graphics/SVG/1.1/DTD/svg11.dtd">
<svg version="1.1" id="cave_entrance" xmlns="http://www.w3.org/2000/svg" xmlns:xlink="http://www.w3.org/1999/xlink" x="0px" y="0px"
	 width="256px" height="256px" viewBox="0 0 256 256" style="enable-background:new 0 0 256 256;" xml:space="preserve">
<style type="text/css">
<![CDATA[
	.st0{fill:#D1D1D1;}
	.st1{fill:#454545;}
]]>
</style>
<path class="st0" d="M235.341,207.071c-0.191-1.914-1.696-16.795-2.624-22.299c-1.128-6.687-4.663-23.844-13.125-38.705
	c-11.572-20.323-25.648-24.589-35.419-24.589c-1.159,0-2.326,0.06-3.501,0.179c-11.735-48.15-38.38-53.623-49.838-53.623
	c-18.438,0-36.555,12.997-45.644,31.876c-1.094-0.074-2.184-0.111-3.269-0.111c-22.101,0-41.104,14.748-52.136,40.462
	c-5.138,11.976-11.572,31.456-13.558,45.931c-0.546,3.979-0.876,11.602-0.681,15.685c0.604,12.555,10.637,21.668,23.858,21.668
	H75.83c8.187,0,15.375-2.597,19.723-7.124c3.065-3.191,4.659-7.259,4.489-11.452c-0.065-1.608-0.518-3.177-1.319-4.572
	c-2.507-4.369-3.833-9.409-3.833-14.574c0-15.328,11.587-27.799,25.83-27.799c14.242,0,25.829,12.471,25.829,27.799
	c0,5.299-1.268,11.452-3.11,15.202c-0.727,1.226-1.201,2.627-1.348,4.141c-0.1,1.033-0.038,2.046,0.164,3.012
	c1.591,9.098,11.292,15.368,24.01,15.368h43.346c6.095,0,17.138-0.919,22.62-7.077C234.603,213.804,235.704,210.471,235.341,207.071
	z"/>
<path class="st1" d="M225.396,208.115c0.348,2.985-6.755,5.43-15.785,5.43h-43.346c-7.903,0-13.739-3.198-14.205-7.416
	c2.887-5.449,4.489-13.621,4.489-20.307c0-20.876-16.042-37.799-35.829-37.799c-19.788,0-35.83,16.923-35.83,37.799
	c0,7.156,1.886,13.847,5.16,19.552c0.186,4.585-5.852,8.171-14.22,8.171H39.405c-8.167,0-13.539-5.262-13.87-12.148
	c-0.166-3.461,0.129-10.413,0.6-13.846c1.75-12.751,7.508-30.916,12.841-43.346c10.919-25.449,30.56-38.565,52.551-33.229
	c11.935-37.58,67.229-57.884,81.485,22.899c30.724-12.732,45.742,28.23,49.844,52.559
	C223.763,191.815,225.396,208.115,225.396,208.115z"/>
</svg>
