<?xml version="1.0" encoding="utf-8"?>
<!-- (c) mapshakers 2015, Licence: CC0 1.0 Universal, www.mapshakers.com  -->
<!DOCTYPE svg PUBLIC "-//W3C//DTD SVG 1.1//EN" "http://www.w3.org/Graphics/SVG/1.1/DTD/svg11.dtd">
<svg version="1.1" id="cemetery" xmlns="http://www.w3.org/2000/svg" xmlns:xlink="http://www.w3.org/1999/xlink" x="0px" y="0px"
	 width="256px" height="256px" viewBox="0 0 256 256" style="enable-background:new 0 0 256 256;" xml:space="preserve">
<style type="text/css">
<![CDATA[
	.st0{fill:#D1D1D1;}
	.st1{fill:#454545;}
]]>
</style>
<path class="st0" d="M42.453,253.896c-11.027,0-20-8.972-20-20V227.1c0-11.028,8.973-20,20-20h1.591v-1.311
	c0-9.972,6.04-18.022,14.235-19.685L50.141,39.243c-0.296-5.35,1.624-10.626,5.268-14.478c3.645-3.851,8.807-6.06,14.164-6.06h0.646
	c3.281,0,9.282-2.026,11.892-4.015C82.83,14.142,100,1.27,124.309,1.27c24.31,0,41.479,12.872,42.199,13.42
	c2.609,1.989,8.61,4.015,11.892,4.015h4.52c5.357,0,10.521,2.209,14.164,6.061s5.563,9.129,5.267,14.478l-8.147,147.041
	c7.505,2.001,12.953,9.854,12.953,19.505v1.311h1.592c11.028,0,20,8.972,20,20v6.797c0,11.028-8.972,20-20,20H42.453z"/>
<path class="st1" d="M208.747,217.1h-1.592c-5.5,0-10-4.5-10-10v-1.311c0-5.5-3.037-10-6.748-10s-6.499-4.493-6.194-9.984
	l8.152-147.115c0.305-5.492-3.946-9.985-9.446-9.985h-4.52c-5.5,0-13.579-2.728-17.953-6.062c0,0-14.925-11.374-36.138-11.374
	c-21.212,0-36.137,11.374-36.137,11.374c-4.374,3.334-12.453,6.062-17.953,6.062h-0.646c-5.5,0-9.751,4.493-9.446,9.985
	l8.151,147.115c0.305,5.491-2.773,9.984-6.84,9.984s-7.394,4.5-7.394,10v1.311c0,5.5-4.5,10-10,10h-1.591c-5.5,0-10,4.5-10,10v6.797
	c0,5.5,4.5,10,10,10h166.294c5.5,0,10-4.5,10-10V227.1C218.747,221.6,214.247,217.1,208.747,217.1z M124.309,27.736
	c8.202,0,14.853,8.601,14.853,19.21c0,10.61-6.649,19.21-14.853,19.21s-14.853-8.601-14.853-19.21
	C109.456,36.337,116.106,27.736,124.309,27.736z M148.766,182.5h-44.999c-4.142,0-7.5-3.357-7.5-7.5s3.358-7.5,7.5-7.5h44.999
	c4.143,0,7.5,3.357,7.5,7.5S152.908,182.5,148.766,182.5z M156.501,144.75H96.032c-4.142,0-7.5-3.357-7.5-7.5s3.358-7.5,7.5-7.5
	h60.469c4.143,0,7.5,3.357,7.5,7.5S160.644,144.75,156.501,144.75z M165.266,107H87.267c-4.142,0-7.5-3.358-7.5-7.5
	s3.358-7.5,7.5-7.5h77.999c4.143,0,7.5,3.358,7.5,7.5S169.408,107,165.266,107z"/>
</svg>
