<?xml version="1.0" encoding="utf-8"?>
<!-- (c) mapshakers 2015, Licence: CC0 1.0 Universal, www.mapshakers.com  -->
<!DOCTYPE svg PUBLIC "-//W3C//DTD SVG 1.1//EN" "http://www.w3.org/Graphics/SVG/1.1/DTD/svg11.dtd">
<svg version="1.1" id="chapel" xmlns="http://www.w3.org/2000/svg" xmlns:xlink="http://www.w3.org/1999/xlink" x="0px" y="0px"
	 width="256px" height="256px" viewBox="0 0 256 256" style="enable-background:new 0 0 256 256;" xml:space="preserve">
<style type="text/css">
<![CDATA[
	.st0{fill:#D1D1D1;}
	.st1{fill:#454545;}
]]>
</style>
<path class="st0" d="M192.273,152.898L164,116.607V99.879c0.061-0.661,0.096-1.347,0.096-2.063V63.278
	c0-7.228-2.723-17.399-6.332-23.658l-13.35-23.147c-3.145-5.451-8.122-8.577-13.658-8.577c-5.537,0-10.515,3.126-13.659,8.577
	l-13.349,23.146c-3.611,6.26-6.333,16.432-6.333,23.659v34.539v18.915L69.237,152.9c-4.785,6.142-8.257,16.25-8.257,24.033v56.727
	c0,11.027,8.972,20,20,20h20.166h59.22h20.163c11.029,0,20-8.973,20-20v-56.727C200.529,169.148,197.059,159.041,192.273,152.898z"
	/>
<path class="st1" d="M124.61,85.744c3.38-4.339,8.912-4.339,12.291,0l11.05,14.184c3.38,4.339,6.146,3.389,6.146-2.111V63.278
	c0-5.5-2.248-13.898-4.996-18.663l-13.348-23.146c-2.748-4.764-7.244-4.765-9.992,0l-13.349,23.146
	c-2.748,4.765-4.996,13.163-4.996,18.663v34.539c0,5.5,2.766,6.45,6.146,2.111L124.61,85.744z M184.385,159.045l-47.482-60.95
	c-3.381-4.339-8.911-4.339-12.292,0l-47.485,60.95c-3.38,4.339-6.146,12.389-6.146,17.889v56.727c0,5.5,4.5,10,10,10h20.166
	c5.5,0,10-4.5,10-10v-2.909h0.169V207.5c0-5.5,2.64-13.645,5.867-18.098l7.646-10.555c3.227-4.453,8.518-4.462,11.758-0.018
	l7.719,10.588c3.24,4.443,5.891,12.581,5.891,18.081v23.25h0.172v2.909c0,5.5,4.5,10,10,10h20.164c5.5,0,10-4.5,10-10v-56.727
	C190.529,171.434,187.766,163.384,184.385,159.045z M137.833,146.354c0,2.002-1.64,3.641-3.642,3.641h-6.874
	c-2.002,0-3.641-1.639-3.641-3.641v-8.467c0-2.002,0.961-4.968,2.136-6.589l2.785-3.843c1.176-1.622,3.102-1.624,4.28-0.006
	l2.81,3.854c1.181,1.618,2.146,4.581,2.146,6.583V146.354z"/>
</svg>
