<?xml version="1.0" encoding="utf-8"?>
<!-- (c) mapshakers 2015, Licence: CC0 1.0 Universal, www.mapshakers.com  -->
<!DOCTYPE svg PUBLIC "-//W3C//DTD SVG 1.1//EN" "http://www.w3.org/Graphics/SVG/1.1/DTD/svg11.dtd">
<svg version="1.1" id="christianism" xmlns="http://www.w3.org/2000/svg" xmlns:xlink="http://www.w3.org/1999/xlink"
	 x="0px" y="0px" width="256px" height="256px" viewBox="0 0 256 256" style="enable-background:new 0 0 256 256;"
	 xml:space="preserve">
<style type="text/css">
<![CDATA[
	.st0{fill:#D1D1D1;}
	.st1{fill:#454545;}
]]>
</style>
<path class="st0" d="M213.74,70.62c-1.176,0-2.37,0.109-3.549,0.326l-61.156,11.232c-1.736,0.319-3.338,0.707-4.831,1.146
	c0.243-1.056,0.471-2.151,0.665-3.319l8.622-51.833c0.913-5.491-0.55-10.984-4.015-15.072s-8.644-6.433-14.209-6.433h-16.845
	c-5.599,0-10.78,2.365-14.215,6.489s-4.825,9.646-3.813,15.153l9.53,51.892c0.132,0.719,0.274,1.414,0.425,2.091
	c-1.784-0.558-3.746-1.02-5.888-1.376l-61.1-10.164c-1.074-0.178-2.162-0.269-3.233-0.269c-10.246,0-18.272,8.123-18.272,18.493
	v21.615c0,10.292,7.947,18.354,18.093,18.354l0,0c1.176,0,2.37-0.108,3.549-0.325l61.157-11.232
	c0.678-0.125,1.333-0.261,1.975-0.404c-0.769,2.211-1.305,4.67-1.55,7.344L94.936,234.98c-0.496,5.402,1.277,10.756,4.863,14.687
	c3.587,3.931,8.756,6.187,14.182,6.187h27.73c5.459,0,10.631-2.275,14.189-6.244s5.26-9.355,4.668-14.781l-12.066-110.689
	c-0.229-2.083-0.628-4.039-1.176-5.846c0.619,0.127,1.25,0.25,1.902,0.358l61.101,10.164c1.073,0.18,2.161,0.27,3.231,0.27
	c10.246,0,18.272-8.123,18.272-18.493V88.975C231.834,78.683,223.887,70.62,213.74,70.62z"/>
<path class="st1" d="M133.018,115.282c-2.453,0-4.277,4.496-4.056,9.992l3.959,97.734c0.224,5.496-2.062,9.992-5.074,9.992
	c-3.013,0-5.383-4.499-5.266-9.998l2.079-97.722c0.117-5.499-1.794-9.998-4.247-9.998s-4.871,4.481-5.373,9.958l-10.145,110.655
	c-0.502,5.477,3.587,9.957,9.087,9.957h27.73c5.5,0,9.513-4.474,8.916-9.94l-12.065-110.688
	C137.964,119.756,135.471,115.282,133.018,115.282z"/>
<path class="st1" d="M124.012,88.229c1.344,0,2.212-4.494,1.928-9.987l-2.07-40.075c-0.284-5.493,1.055-9.987,2.975-9.987
	s3.352,4.498,3.182,9.995l-1.241,40.058c-0.17,5.497,0.79,9.995,2.135,9.995s3.183-4.439,4.085-9.864l8.622-51.833
	c0.901-5.425-2.858-9.864-8.358-9.864h-16.845c-5.5,0-9.187,4.426-8.193,9.835l9.53,51.891
	C120.754,83.803,122.667,88.229,124.012,88.229z"/>
<path class="st1" d="M141.006,96.582c0,1.519,4.494,2.528,9.986,2.245l47.852-2.472c5.491-0.284,9.985,1.258,9.985,3.427
	c0,2.169-4.498,3.804-9.995,3.634l-47.833-1.482c-5.497-0.17-9.995,0.933-9.995,2.451c0,1.518,4.439,3.499,9.864,4.401
	l61.101,10.164c5.424,0.902,9.863-2.859,9.863-8.359V88.975c0-5.5-4.426-9.187-9.836-8.193l-61.156,11.232
	C145.432,93.008,141.006,95.063,141.006,96.582z"/>
<path class="st1" d="M112.686,102.983c0-1.519-4.494-2.528-9.987-2.245l-47.85,2.472c-5.493,0.284-9.987-1.258-9.987-3.427
	c0-2.169,4.498-3.804,9.995-3.634l47.833,1.482c5.497,0.17,9.995-0.933,9.995-2.451c0-1.518-4.439-3.499-9.864-4.401l-61.1-10.164
	c-5.425-0.902-9.864,2.859-9.864,8.359v21.615c0,5.5,4.426,9.187,9.835,8.193l61.157-11.232
	C108.26,106.558,112.686,104.502,112.686,102.983z"/>
</svg>
