<?xml version="1.0" encoding="utf-8"?>
<!-- (c) mapshakers 2015, Licence: CC0 1.0 Universal, www.mapshakers.com  -->
<!DOCTYPE svg PUBLIC "-//W3C//DTD SVG 1.1//EN" "http://www.w3.org/Graphics/SVG/1.1/DTD/svg11.dtd">
<svg version="1.1" id="cinema_alt" xmlns="http://www.w3.org/2000/svg" xmlns:xlink="http://www.w3.org/1999/xlink" x="0px" y="0px"
	 width="256px" height="256px" viewBox="0 0 256 256" style="enable-background:new 0 0 256 256;" xml:space="preserve">
<style type="text/css">
<![CDATA[
	.st0{fill:#D1D1D1;}
	.st1{fill:#454545;}
]]>
</style>
<path class="st0" d="M238.741,112.184c-2.973,0-6.06,0.621-9.178,1.846l-35.709,14.025c12.157-11.832,19.729-28.352,19.729-46.615
	c0-35.884-29.194-65.078-65.078-65.078c-31.525,0-57.878,22.534-63.818,52.339c-8.426-8.814-20.283-14.321-33.41-14.321
	c-25.499,0-46.244,20.745-46.244,46.245c0,15.913,8.08,29.974,20.352,38.297c-0.599,0.237-1.186,0.512-1.738,0.867
	c-2.859,1.841-4.587,5.008-4.587,8.408v65.637c0,12.131,9.869,22,22,22h123c12.131,0,22-9.869,22-22V188.78
	c2.395,1.813,4.993,3.289,7.59,4.309l35.916,14.109c3.116,1.224,6.203,1.844,9.175,1.844c9.422,0,16.26-6.383,16.26-15.178v-66.503
	C255,118.566,248.162,112.184,238.741,112.184z"/>
<path class="st1" d="M246.333,193.531c0,4.759-5.301,6.569-11.78,4.025l-35.914-14.108c-6.479-2.544-11.78-8.521-11.78-13.278
	v-19.781c0-4.758,5.301-10.734,11.78-13.279l35.914-14.106c6.479-2.545,11.78-0.734,11.78,4.024V193.531z"/>
<path class="st1" d="M149.839,26.029c-30.419,0-55.078,24.66-55.078,55.078c0,30.417,24.659,55.081,55.078,55.081
	s55.078-24.663,55.078-55.081C204.917,50.688,180.258,26.029,149.839,26.029z M133.06,73.019
	c-7.592-3.983-16.477-10.521-18.887-12.932c-4.018-4.018-1.344-7.857,2.675-11.875c4.019-4.019,7.858-6.693,11.876-2.675
	c2.41,2.41,8.949,11.294,12.932,18.887c-1.901,0.725-3.688,1.842-5.221,3.375C134.902,69.331,133.786,71.118,133.06,73.019z
	 M149.839,92.834c-6.477,0-11.726-5.25-11.726-11.727c0-6.476,5.249-11.726,11.726-11.726c6.476,0,11.725,5.25,11.725,11.726
	C161.563,87.584,156.314,92.834,149.839,92.834z"/>
<path class="st1" d="M52.611,64.046c-20.017,0-36.245,16.227-36.245,36.245s16.228,36.244,36.245,36.244
	s36.244-16.227,36.244-36.244S72.627,64.046,52.611,64.046z M38.734,123.43c-2.824,2.824-5.524,0.943-8.348-1.881
	c-2.826-2.826-4.706-5.526-1.882-8.35c1.694-1.695,7.941-6.292,13.28-9.093c0.509,1.337,1.294,2.594,2.372,3.671
	c1.076,1.077,2.332,1.863,3.669,2.372C45.026,115.487,40.428,121.734,38.734,123.43z M52.611,108.072
	c-4.298,0-7.782-3.483-7.782-7.781c0-4.298,3.484-7.781,7.782-7.781c4.297,0,7.781,3.483,7.781,7.781
	C60.392,104.588,56.908,108.072,52.611,108.072z"/>
<path class="st1" d="M149.172,152.188c-19.768,0-37.668-8.118-50.564-21.188h-4.435c-9.508,13.039-24.891,21.535-42.229,21.535
	c-7.683,0-14.976-1.681-21.552-4.672V213.5c0,6.6,5.4,12,12,12h123c6.6,0,12-5.4,12-12v-67.17
	C168.736,150.091,159.195,152.188,149.172,152.188z"/>
</svg>
