<?xml version="1.0" encoding="utf-8"?>
<!-- (c) mapshakers 2015, Licence: CC0 1.0 Universal, www.mapshakers.com  -->
<!DOCTYPE svg PUBLIC "-//W3C//DTD SVG 1.1//EN" "http://www.w3.org/Graphics/SVG/1.1/DTD/svg11.dtd">
<svg version="1.1" id="cinema" xmlns="http://www.w3.org/2000/svg" xmlns:xlink="http://www.w3.org/1999/xlink" x="0px" y="0px"
	 width="256px" height="256px" viewBox="0 0 256 256" style="enable-background:new 0 0 256 256;" xml:space="preserve">
<style type="text/css">
<![CDATA[
	.st0{fill:#D1D1D1;}
	.st1{fill:#454545;}
]]>
</style>
<path class="st0" d="M60.999,232.525c-19.146,0-36.202-6.603-52.143-20.18c-3.342-2.842-6.721-8.175-6.721-13.671V67.555
	c0-6.396,4.859-11.407,11.063-11.407c2.09,0,5.283,0.596,8.621,3.435c12.176,10.371,24.99,15.411,39.174,15.411
	c0.003,0,0.003,0,0.006,0c20.043-0.002,40.686-9.578,62.54-19.717c22.863-10.606,46.505-21.573,70.962-21.573
	c19.146,0,36.2,6.601,52.144,20.18c3.344,2.842,6.723,8.175,6.723,13.67v131.121c0,6.396-4.859,11.407-11.063,11.407
	c-2.092,0-5.283-0.598-8.623-3.438c-12.177-10.371-24.99-15.41-39.18-15.41c-20.043,0-40.686,9.578-62.539,19.718
	c-22.861,10.604-46.501,21.573-70.957,21.573C61.003,232.525,61.002,232.525,60.999,232.525z"/>
<path class="st1" d="M12.135,198.676c0,1.762,1.442,4.559,3.206,6.059c74.94,63.83,149.88-69.533,224.82-5.705
	c1.764,1.5,3.206,1.412,3.206-0.354c0-43.707,0-87.414,0-131.121c0-1.761-1.442-4.558-3.206-6.058
	c-74.938-63.83-149.88,69.534-224.82,5.704c-1.763-1.5-3.206-1.411-3.206,0.354C12.135,111.262,12.135,154.969,12.135,198.676z
	 M234.379,169.498c1.764,1.268,3.206,3.867,3.206,5.629c0,2.182,0,4.361,0,6.541c0,1.766-1.442,2.051-3.206,0.783
	c-4.216-3.035-8.432-5.479-12.646-7.398c-1.764-0.806-3.205-2.803-3.205-4.568c0-2.18,0-4.359,0-6.541
	c0-1.762,1.441-2.648,3.205-1.844C225.947,164.021,230.163,166.463,234.379,169.498z M201.736,156.622
	c1.766,0.185,3.207,1.862,3.207,3.626c0,2.182,0,4.359,0,6.541c0,1.766-1.442,2.971-3.207,2.786
	c-4.215-0.447-8.43-0.483-12.645-0.181c-1.764,0.127-3.205-1.146-3.205-2.91c0-2.18,0-4.359,0-6.541
	c-0.002-1.762,1.441-3.375,3.205-3.502C193.309,156.139,197.521,156.175,201.736,156.622z M169.098,160.161
	c1.764-0.507,3.205,0.571,3.207,2.334c0,2.181,0,4.36,0,6.541c0,1.765-1.443,3.571-3.207,4.077
	c-4.216,1.205-8.432,2.641-12.646,4.234c-1.764,0.668-3.206-0.199-3.206-1.964c0-2.181,0-4.36,0-6.54
	c0-1.765,1.442-3.781,3.206-4.449C160.666,162.801,164.882,161.365,169.098,160.161z M136.457,172.873
	c1.764-0.805,3.206-0.01,3.206,1.755c0,2.181,0,4.36,0,6.541c0,1.765-1.442,3.853-3.206,4.657
	c-4.216,1.923-8.431,3.895-12.646,5.842c-1.763,0.814-3.206,0.034-3.206-1.729c0-2.18,0-4.36,0-6.541
	c0-1.764,1.442-3.867,3.206-4.684C128.026,176.768,132.241,174.796,136.457,172.873z M103.817,187.518
	c1.763-0.713,3.206,0.121,3.206,1.887c0,2.18,0,4.359,0,6.541c0,1.763-1.443,3.813-3.206,4.525
	c-4.215,1.704-8.431,3.275-12.646,4.645c-1.763,0.572-3.206-0.442-3.206-2.205c0-2.182,0-4.361,0-6.541
	c0-1.766,1.443-3.635,3.206-4.207C95.386,190.793,99.602,189.223,103.817,187.518z M71.178,196.852
	c1.763-0.229,3.206,0.963,3.206,2.729c0,2.182,0,4.359,0,6.541c0,1.763-1.443,3.455-3.206,3.686
	c-4.215,0.551-8.43,0.787-12.646,0.641c-1.764-0.061-3.206-1.631-3.206-3.395c0-2.181,0-4.359,0-6.541
	c0-1.765,1.442-3.078,3.206-3.019C62.748,197.639,66.963,197.402,71.178,196.852z M38.54,193.637
	c1.763,0.645,3.206,2.516,3.206,4.279c0,2.182,0,4.361,0,6.541c0,1.764-1.442,2.775-3.206,2.132
	c-4.216-1.538-8.432-3.571-12.648-6.17c-1.763-1.084-3.206-3.53-3.206-5.292c0-2.182,0-4.359,0-6.541
	c0-1.766,1.442-2.204,3.206-1.12C30.107,190.064,34.323,192.098,38.54,193.637z M217.93,81.637c1.764,0.673,3.205,2.769,3.205,4.53
	c0,20.253,0,40.507,0,60.761c0,1.766-1.441,2.555-3.205,1.881c-16.455-6.299-32.908-4.972-49.363-0.191
	c-1.764,0.512-3.205-0.469-3.205-2.23c0-20.255,0-40.508,0-60.762c0-1.762,1.441-3.667,3.205-4.179
	C185.021,76.667,201.475,75.339,217.93,81.637z M150.129,88.028c1.764-0.727,3.206,0.147,3.206,1.911c0,20.252,0,40.504,0,60.756
	c0,1.765-1.442,3.775-3.206,4.502c-16.455,6.775-32.91,15.443-49.365,21.83c-1.763,0.686-3.206-0.229-3.206-1.991
	c0-20.253,0-40.505,0-60.757c0-1.764,1.443-3.734,3.206-4.419C117.219,103.473,133.674,94.804,150.129,88.028z M82.33,115.841
	c1.763-0.438,3.206,0.596,3.206,2.359c0,20.253,0,40.507,0,60.76c0,1.763-1.442,3.612-3.206,4.054
	c-16.455,4.098-32.91,4.355-49.365-3.402c-1.763-0.83-3.206-3.059-3.206-4.82c0-20.254,0-40.507,0-60.76
	c0-1.765,1.442-2.421,3.206-1.592C49.419,120.198,65.875,119.94,82.33,115.841z M233.305,64.72c1.764,1.226,3.205,3.79,3.205,5.551
	c0,2.181,0,4.361,0,6.541c0,1.765-1.443,2.085-3.205,0.86c-4.217-2.935-8.432-5.283-12.646-7.116
	c-1.764-0.769-3.206-2.736-3.206-4.501c0-2.18,0-4.361,0-6.541c0-1.762,1.442-2.678,3.206-1.91
	C224.873,59.437,229.088,61.786,233.305,64.72z M200.662,52.5c1.764,0.156,3.206,1.81,3.206,3.572c0,2.18,0,4.361,0,6.541
	c0,1.764-1.442,2.995-3.206,2.839c-4.215-0.378-8.43-0.351-12.645,0.011c-1.765,0.15-3.207-1.103-3.207-2.867
	c0-2.181,0-4.361,0-6.541c0-1.762,1.442-3.394,3.207-3.544C192.232,52.149,196.447,52.122,200.662,52.5z M168.021,56.457
	c1.765-0.521,3.207,0.541,3.207,2.304c0,2.181,0,4.361,0,6.541c0,1.764-1.442,3.586-3.207,4.107
	c-4.215,1.244-8.431,2.711-12.646,4.332c-1.765,0.678-3.206-0.181-3.206-1.945c0-2.18,0-4.36,0-6.541
	c0-1.762,1.441-3.789,3.206-4.466C159.592,59.168,163.807,57.7,168.021,56.457z M135.383,69.348
	c1.764-0.808,3.206-0.016,3.206,1.747c0,2.18,0,4.36,0,6.541c0,1.763-1.442,3.856-3.206,4.664c-4.216,1.93-8.432,3.903-12.648,5.848
	c-1.763,0.814-3.206,0.03-3.206-1.733c0-2.181,0-4.361,0-6.541c0-1.763,1.442-3.864,3.206-4.678
	C126.951,73.25,131.167,71.278,135.383,69.348z M102.742,83.933c1.763-0.703,3.206,0.138,3.206,1.901c0,2.18,0,4.361,0,6.541
	c0,1.763-1.443,3.807-3.206,4.51c-4.215,1.681-8.43,3.223-12.646,4.557c-1.764,0.559-3.205-0.471-3.206-2.233c0-2.18,0-4.36,0-6.541
	c0-1.764,1.442-3.619,3.206-4.178C94.312,87.156,98.526,85.614,102.742,83.933z M70.103,92.968c1.763-0.207,3.206,1.003,3.206,2.767
	c0,2.18,0,4.361,0,6.541c0,1.762-1.442,3.438-3.206,3.644c-4.215,0.497-8.43,0.674-12.646,0.461
	c-1.763-0.087-3.206-1.682-3.206-3.444c0-2.18,0-4.36,0-6.541c0-1.764,1.442-3.054,3.206-2.967
	C61.673,93.643,65.888,93.465,70.103,92.968z M37.464,89.216c1.763,0.68,3.206,2.579,3.206,4.344c0,2.18,0,4.361,0,6.541
	c0,1.762-1.442,2.748-3.206,2.067c-4.216-1.622-8.432-3.746-12.647-6.441c-1.763-1.125-3.206-3.604-3.206-5.366
	c0-2.18,0-4.36,0-6.541c0-1.765,1.442-2.169,3.206-1.045C29.033,85.47,33.249,87.594,37.464,89.216z"/>
</svg>
