<?xml version="1.0" encoding="utf-8"?>
<!-- (c) mapshakers 2015, Licence: CC0 1.0 Universal, www.mapshakers.com  -->
<!DOCTYPE svg PUBLIC "-//W3C//DTD SVG 1.1//EN" "http://www.w3.org/Graphics/SVG/1.1/DTD/svg11.dtd">
<svg version="1.1" id="town_hall" xmlns="http://www.w3.org/2000/svg" xmlns:xlink="http://www.w3.org/1999/xlink" x="0px" y="0px"
	 width="256px" height="256px" viewBox="0 0 256 256" style="enable-background:new 0 0 256 256;" xml:space="preserve">
<style type="text/css">
<![CDATA[
	.st0{fill:#D1D1D1;}
	.st1{fill:#454545;}
]]>
</style>
<path class="st0" d="M245.438,176.995c0.95-3.487,0.312-8.243-4.186-11.997l-20.537-17.15c-3.403-2.845-8.671-4.757-13.107-4.757
	h-31.297V96.015c0-0.233-0.006-0.466-0.018-0.696c2.014-1.148,3.615-2.987,4.446-5.267c1.438-3.949,0.254-8.376-2.965-11.08
	l-25.344-21.288c0.786,0.103,1.59,0.158,2.411,0.158c4.483,0,11.017-1.693,16.685-9.76c1.184-1.684,1.818-3.691,1.818-5.75V19.614
	c0-4.361-2.826-8.22-6.984-9.535c-0.995-0.314-2.01-0.466-3.015-0.466c-3.195,0-6.274,1.536-8.183,4.251
	c-0.327,0.466-0.602,0.798-0.813,1.03c-1.412-0.645-3.8-2.343-5.324-3.428c-4.609-3.28-10.346-7.361-17.411-7.361
	c-4.109,0-9.94,1.423-15.25,7.872c-2.168,1.834-3.545,4.575-3.545,7.638v30.352l-34.67,28.993c-3.228,2.699-4.42,7.129-2.985,11.083
	c0.833,2.296,2.45,4.147,4.482,5.295c-0.011,0.225-0.017,0.45-0.017,0.678v47.076H48.267c-4.435,0-9.702,1.911-13.103,4.753
	l-20.538,17.151c-4.607,3.844-5.168,8.738-4.119,12.247c-1.431,2.172-2.264,4.771-2.264,7.562v53.485
	c0,7.603,6.185,13.787,13.787,13.787h88.448h35.053h88.549c7.603,0,13.787-6.185,13.787-13.787v-53.485
	C247.867,181.907,246.97,179.217,245.438,176.995z"/>
<path class="st1" d="M171.343,86.63H84.566l38.255-31.991V19.614h0.292c13.411-19.085,26.821,19.084,40.232,0
	c0,7.573,0,15.146,0,22.719c-10.029,14.273-20.059-3.474-30.088-5.349v17.655L171.343,86.63z M144.448,138.418
	c0-2.187-1.771-3.958-3.958-3.958h-9.385L118.2,122.859c-1.625-1.461-4.128-1.329-5.59,0.297c-1.462,1.626-1.329,4.129,0.297,5.59
	l14.033,12.616c0.727,0.652,1.669,1.013,2.647,1.013h10.902C142.677,142.376,144.448,140.604,144.448,138.418z M237.867,184.804
	v53.485c0,2.083-1.704,3.787-3.787,3.787h-88.549c0-14.2,0-28.399,0-42.6c-9.768-9.464-25.285-9.464-35.053,0
	c0,14.2,0,28.399,0,42.6H22.031c-2.083,0-3.787-1.704-3.787-3.787v-53.485c0-2.083,1.704-3.787,3.787-3.787h67.601v-5.916H21.913
	c-2.083,0-2.479-1.093-0.88-2.427l20.542-17.154c1.599-1.336,4.61-2.429,6.693-2.429h41.365V96.015c0-2.083,1.704-3.787,3.787-3.787
	h69.106c2.083,0,3.786,1.704,3.786,3.787v57.076h41.297c2.082,0,5.095,1.093,6.692,2.429l20.543,17.154
	c1.598,1.334,1.202,2.427-0.881,2.427h-67.651v5.916h67.77C236.163,181.017,237.867,182.721,237.867,184.804z M49.589,195.849
	H31.603v25.874h17.987V195.849z M83.353,195.849H65.366v25.874h17.986V195.849z M152.76,138.418
	c0-13.681-11.091-24.771-24.771-24.771s-24.771,11.09-24.771,24.771s11.091,24.771,24.771,24.771S152.76,152.099,152.76,138.418z
	 M193.795,195.849H175.81v25.874h17.985V195.849z M224.72,195.849h-17.987v25.874h17.987V195.849z"/>
</svg>
