<?xml version="1.0" encoding="utf-8"?>
<!-- (c) mapshakers 2015, Licence: CC0 1.0 Universal, www.mapshakers.com  -->
<!DOCTYPE svg PUBLIC "-//W3C//DTD SVG 1.1//EN" "http://www.w3.org/Graphics/SVG/1.1/DTD/svg11.dtd">
<svg version="1.1" id="data" xmlns="http://www.w3.org/2000/svg" xmlns:xlink="http://www.w3.org/1999/xlink" x="0px" y="0px"
	 width="256px" height="256px" viewBox="0 0 256 256" style="enable-background:new 0 0 256 256;" xml:space="preserve">
<style type="text/css">
<![CDATA[
	.st0{fill:#D1D1D1;}
	.st1{fill:#454545;}
]]>
</style>
<path class="st0" d="M223.396,158.772c0.139-9.267,0.128-16.947-0.034-24.162c-0.113-5.223-3.737-9.683-7.488-11.666
	c0.306-0.273,0.609-0.554,0.91-0.841c4.307-4.115,6.53-8.718,6.61-13.677c0.146-8.843,0.136-16.757-0.03-24.194
	c-0.124-5.517-4.169-10.187-8.129-11.973c0.593-0.533,1.178-1.091,1.751-1.677c8.464-8.643,8.619-19.988,0.402-28.897
	c-0.755-0.82-1.585-1.607-2.622-2.484c-6.114-5.163-13.017-7.971-18.346-9.84c-11.479-4.027-24.063-6.498-39.611-7.777l-9.759-0.805
	c-0.273-0.023-0.549-0.034-0.823-0.034h-16.531c-0.367,0-0.733,0.02-1.099,0.061c-0.433,0.048-0.865,0.102-1.298,0.156
	c-0.682,0.085-1.325,0.167-1.821,0.192c-15.268,0.812-28.434,2.895-40.248,6.365c-7.744,2.274-16.636,5.253-24.159,11.853
	c-3.38,2.961-6.017,6.648-7.423,10.374c-3.057,8.085-0.439,16.41,7.005,22.39c-0.132,0.06-0.264,0.121-0.395,0.185
	c-4.919,2.375-7.846,7.121-7.828,12.696c0.006,1.876,0.03,3.753,0.054,5.63c0.06,4.692,0.116,9.124-0.102,13.516
	c-0.369,7.449,2.174,13.715,7.572,18.688c-0.022,0.012-0.044,0.023-0.066,0.034c-4.673,2.415-7.458,7.066-7.448,12.44l0.007,3.772
	c0.013,5.896,0.025,11.994-0.022,17.965c-0.046,5.667,1.98,10.679,5.858,14.489l0.198,0.194c0.471,0.465,0.973,0.958,1.511,1.462
	c-2.699,1.373-7.621,4.993-7.57,13.114c0.01,1.467,0.025,2.935,0.04,4.402c0.054,5.267,0.105,10.242-0.072,15.241
	c-0.184,5.206,1.213,12.701,8.917,18.838c5.673,4.517,11.975,7.052,16.222,8.566c11.689,4.169,24.329,6.647,40.983,8.037
	c2.365,0.196,4.731,0.38,7.098,0.563l3.305,0.257c0.261,0.021,0.522,0.031,0.784,0.031h16.531c0.631,0,1.261-0.06,1.88-0.179
	c0.263-0.05,0.525-0.106,0.788-0.163l0.196-0.042c2.298-0.213,4.599-0.403,6.899-0.594c5.134-0.425,10.442-0.863,15.747-1.561
	c12.961-1.698,23.206-4.463,32.241-8.697c4.487-2.103,8.284-4.84,12.093-7.69c4.619-3.45,7.305-8.756,7.367-14.563
	c0.066-6.402,0.055-12.882,0.043-19.147l-0.007-4.205c-0.02-5.279-2.923-9.914-7.635-12.251c0.03-0.021,0.062-0.045,0.092-0.067
	C220.591,169.667,223.311,164.445,223.396,158.772z"/>
<path class="st1" d="M63.001,53.284c0.903-2.392,2.711-4.682,4.66-6.39c5.842-5.124,13.07-7.63,20.387-9.779
	c12.387-3.639,25.102-5.29,37.961-5.974c1.233-0.064,2.458-0.259,3.687-0.395c5.512,0,11.021,0,16.531,0
	c3.256,0.269,6.514,0.54,9.769,0.806c12.642,1.04,25.103,3.032,37.114,7.246c5.459,1.915,10.724,4.261,15.205,8.045
	c0.6,0.507,1.185,1.039,1.715,1.615c4.634,5.024,4.603,10.236-0.188,15.128c-4.425,4.521-10.069,7.035-15.872,9.159
	c-10.96,4.007-22.361,6.013-33.929,7.191c-11.569,1.178-23.16,1.484-34.77,0.749c-16.149-1.023-32.118-3.104-47.138-9.543
	c-3.863-1.656-7.542-3.981-10.888-6.543C63.66,61.852,61.215,58.008,63.001,53.284z M211.229,182.045
	c-1.49-0.656-2.865-0.393-4.233,0.594c-2.166,1.56-4.333,3.188-6.704,4.379c-6.535,3.281-13.566,5.144-20.676,6.719
	c-15.979,3.539-32.186,4.326-48.48,3.884c-13.387-0.364-26.703-1.449-39.739-4.718c-7.911-1.984-15.639-4.486-22.019-9.903
	c-1.434-1.218-2.956-1.729-4.701-0.95c-1.789,0.799-2.267,2.34-2.255,4.206c0.045,6.688,0.198,13.384-0.038,20.063
	c-0.163,4.604,1.726,7.933,5.152,10.662c4.001,3.186,8.584,5.271,13.352,6.971c12.436,4.436,25.362,6.398,38.453,7.49
	c3.451,0.287,6.906,0.545,10.357,0.816c5.511,0,11.021,0,16.531,0c0.571-0.109,1.141-0.267,1.719-0.32
	c7.5-0.701,15.031-1.152,22.492-2.133c10.088-1.322,20.035-3.496,29.299-7.838c3.686-1.727,7.07-4.191,10.351-6.646
	c2.076-1.551,3.323-3.961,3.353-6.654c0.08-7.737,0.045-15.475,0.035-23.213C213.471,183.854,212.66,182.678,211.229,182.045z
	 M211.133,131.752c-1.043-0.461-2.996-0.33-3.801,0.389c-4.339,3.863-9.57,5.892-14.904,7.691
	c-13.509,4.563-27.49,6.658-41.672,7.229c-19.293,0.774-38.54,0.232-57.477-4.103c-8.853-2.026-17.461-4.71-24.547-10.829
	c-1.238-1.07-2.792-1.115-4.255-0.359c-1.404,0.726-2.041,1.947-2.038,3.539c0.012,7.277,0.043,14.557-0.015,21.834
	c-0.023,2.854,0.876,5.319,2.87,7.279c1.531,1.506,3.127,3.119,5.009,4.057c4.611,2.297,9.263,4.664,14.147,6.228
	c17.398,5.565,35.412,6.912,58.838,7.237c5.72-0.518,16.708-1.221,27.614-2.58c9.949-1.241,19.767-3.479,28.896-7.803
	c3.622-1.715,6.959-4.119,10.203-6.512c2.034-1.499,3.356-3.824,3.396-6.427c0.119-7.931,0.146-15.866-0.033-23.796
	C213.34,133.742,212.161,132.209,211.133,131.752z M69.543,117.668c6.285,4.116,13.287,6.457,20.471,8.312
	c15.716,4.055,31.762,5.313,51.589,5.523c4.074-0.254,11.81-0.552,19.508-1.263c11.9-1.102,23.625-3.202,34.877-7.408
	c5.055-1.889,9.918-4.163,13.887-7.959c1.896-1.812,3.477-3.935,3.52-6.611c0.131-7.933,0.148-15.873-0.028-23.805
	c-0.024-1.085-1.2-2.616-2.229-3.075c-1.043-0.463-2.998-0.343-3.804,0.369c-4.401,3.892-9.677,5.972-15.095,7.762
	c-15.512,5.125-31.529,7.12-47.791,7.378c-17.275,0.274-34.49-0.417-51.403-4.357c-8.719-2.031-17.211-4.682-24.201-10.696
	c-1.25-1.075-2.755-1.23-4.239-0.511c-1.491,0.72-2.18,1.976-2.175,3.658c0.021,6.558,0.264,13.13-0.06,19.673
	C62.072,110.657,64.839,114.587,69.543,117.668z"/>
</svg>
