<?xml version="1.0" encoding="utf-8"?>
<!-- (c) mapshakers 2015, Licence: CC0 1.0 Universal, www.mapshakers.com  -->
<!DOCTYPE svg PUBLIC "-//W3C//DTD SVG 1.1//EN" "http://www.w3.org/Graphics/SVG/1.1/DTD/svg11.dtd">
<svg version="1.1" id="dislike" xmlns="http://www.w3.org/2000/svg" xmlns:xlink="http://www.w3.org/1999/xlink" x="0px" y="0px"
	 width="256px" height="256px" viewBox="0 0 256 256" style="enable-background:new 0 0 256 256;" xml:space="preserve">
<style type="text/css">
<![CDATA[
	.st0{fill:#464646;}
	.st1{fill:#D1D1D1;}
]]>
</style>
<path class="st1" d="M226.611,123.787c4.519-10.136,2.854-22.892-4.2-32.14c1.36-11.072-3.466-22.275-12.435-29.038
	c-0.064-10.859-5.914-16.928-18.83-19.925c-6.082-1.41-12.361-2.096-19.196-2.096c-1.753,0-3.578,0.046-5.446,0.139
	c-12.225,0.604-21.879,1.082-35.013,3.174c-0.735,0.117-1.56,0.237-2.448,0.367c-7.982,1.164-21.033,3.074-29.485,10.435
	c-1.542-2.028-4.375-4.376-9.39-4.941c-0.063-0.007-18.353-1.714-18.353-1.714c-1.76-0.23-3.52-0.465-5.279-0.7
	c-4.123-0.55-8.386-1.119-12.615-1.624c-0.968-0.116-1.938-0.175-2.881-0.175c-10.245,0-18.099,6.792-20.007,17.297
	c-4.566,25.061-4.227,51.376,1.009,78.214c2.416,12.401,11.936,20.416,24.253,20.416c0.001,0,0.001,0,0.002,0
	c1.063,0,2.154-0.062,3.235-0.182c6.229-0.688,12.455-1.396,18.682-2.104l9.978-1.131c2.764-0.312,7.39-0.832,10.514-4.998
	c0.177-0.236,0.338-0.475,0.49-0.713c0.936,0.506,1.895,0.893,2.831,1.129c2.731,0.703,3.682,1.66,4.306,2.598
	c0.884,1.324,1.779,2.574,2.645,3.783c0.563,0.787,1.127,1.574,1.688,2.386c4.648,6.7,10.428,12.293,17.674,17.097
	c10.908,7.229,18.956,17.631,24.803,26.068c0.055,0.26,0.117,0.591,0.168,0.859c0.082,0.43,0.164,0.855,0.254,1.28
	c0.488,2.272,0.891,4.554,1.195,6.793c2.061,14.915,12.75,21.593,22.43,21.593c3.83,0,7.711-1.009,11.22-2.914
	c9.202-4.996,10.797-11.791,12.202-17.785c0.111-0.475,0.228-0.967,0.352-1.48c3.352-13.887,0.482-32.131-6.82-43.382
	c-1.271-1.955-2.486-3.947-3.703-5.993c1.053-0.222,2.08-0.428,3.084-0.613c1.525-0.281,3.154-0.455,4.879-0.642
	c3.412-0.366,7.279-0.782,11.357-2.149c8.387-2.813,14.627-8.326,17.571-15.523C230.04,138.818,229.777,131.219,226.611,123.787z"/>
<path class="st0" d="M213.259,96.272c6.287,6.889,7.775,17.433,3.429,25c-1.039,1.817-0.924,3.067-0.025,4.825
	c5.643,11.086,1.688,21.449-10.084,25.397c-4.855,1.629-9.779,1.501-14.867,2.438c-5.229,0.965-10.813,2.416-16.465,3.459
	c0.729,1.633,1.079,2.692,1.636,3.639c2.923,4.953,5.744,9.977,8.872,14.791c5.969,9.193,8.066,24.893,5.486,35.59
	c-1.508,6.234-1.85,9.697-7.604,12.822c-7.762,4.218-17.325,0.647-18.971-11.258c-0.345-2.521-0.79-5.039-1.324-7.524
	c-0.371-1.735-0.571-3.695-1.532-5.089c-7.75-11.262-16.428-21.725-27.945-29.355c-5.928-3.931-10.947-8.646-14.98-14.46
	c-1.397-2.021-2.871-3.983-4.233-6.022c-2.447-3.67-5.932-5.647-10.131-6.729c-0.919-0.232-2.175-1.331-2.297-2.176
	c-1.342-9.051-2.96-18.087-3.582-27.192c-1.063-15.608-0.712-33.678,3.57-46.445c3.771-11.245,22.555-12.882,30.858-14.206
	c12.603-2.007,21.858-2.464,33.953-3.062c7.34-0.364,14.567,0.019,21.869,1.712c10.592,2.458,11.854,5.838,10.854,13.809
	c0.104,1.032,1.033,2.348,1.958,2.873c7.987,4.555,12.452,14.134,10.466,23.188C211.797,93.972,212.113,95.017,213.259,96.272z"/>
<path class="st0" d="M89.05,59.698l-18.348-1.712c-5.989-0.783-11.974-1.618-17.974-2.334c-6.297-0.756-10.708,2.656-11.858,8.986
	c-4.537,24.9-3.846,49.737,0.987,74.51c1.651,8.478,8.05,13.154,16.577,12.207c9.548-1.057,19.092-2.155,28.639-3.231
	c4.09-0.461,4.345-0.739,3.65-4.747c-4.625-26.732-5.602-53.416,1.081-79.995C92.422,60.917,91.481,59.972,89.05,59.698z
	 M70.019,139.159c-3.727,0.079-6.813-2.877-6.893-6.604s2.877-6.813,6.604-6.893s6.813,2.876,6.893,6.604
	C76.703,135.994,73.746,139.079,70.019,139.159z"/>
</svg>
