<?xml version="1.0" encoding="utf-8"?>
<!-- (c) mapshakers 2015, Licence: CC0 1.0 Universal, www.mapshakers.com  -->
<!DOCTYPE svg PUBLIC "-//W3C//DTD SVG 1.1//EN" "http://www.w3.org/Graphics/SVG/1.1/DTD/svg11.dtd">
<svg version="1.1" id="drop" xmlns="http://www.w3.org/2000/svg" xmlns:xlink="http://www.w3.org/1999/xlink" x="0px"
	 y="0px" width="256px" height="256px" viewBox="0 0 256 256" style="enable-background:new 0 0 256 256;" xml:space="preserve">
<style type="text/css">
<![CDATA[
	.st0{fill:#464646;}
	.st1{fill:#D1D1D1;}
]]>
</style>
<path class="st1" d="M200.92,161.22c-1.719-15.675-7.188-29.78-11.758-40.321c-12.295-28.336-29.04-53.468-42.255-72.198
	c-2.748-3.895-5.517-7.604-8.447-11.532c-1.321-1.772-2.66-3.565-4.013-5.398c-1.793-2.431-4.588-3.92-7.604-4.054
	c-0.148-0.006-0.295-0.01-0.443-0.01c-2.858,0-5.589,1.225-7.491,3.376c-0.229,0.26-0.415,0.463-0.568,0.632
	c-0.392,0.432-0.798,0.878-1.243,1.465c-13.113,17.289-23.883,33.004-32.926,48.045c-14.088,23.437-22.938,42.356-28.692,61.346
	c-6.162,20.331-5.921,38.327,0.734,55.021c11.583,29.053,39.107,47.825,70.122,47.829c0.004,0,0.005,0,0.009,0
	c20.824,0,40.237-8.412,54.66-23.687C196.789,205.018,203.49,184.656,200.92,161.22z"/>
<path class="st0" d="M190.979,162.311c-1.438-13.117-5.781-25.42-10.99-37.431c-10.904-25.131-25.516-48.109-41.252-70.413
	c-3.922-5.559-8.062-10.964-12.336-16.76c-0.716,0.81-1.052,1.143-1.335,1.516c-11.529,15.2-22.487,30.794-32.322,47.154
	c-11.266,18.741-21.318,38.058-27.692,59.094c-4.906,16.188-5.941,32.383,0.453,48.418c18.048,45.268,75.665,55.469,108.23,20.98
	C187.627,200.154,193.186,182.419,190.979,162.311z M114.462,204.1c-2.313,3.596-6.677,5.295-11.323,4.355
	c-5.597-1.132-10.022-4.076-13.071-8.938c-8.08-12.889-10.28-26.658-6.68-41.512c3.103-12.798,8.474-24.646,14.242-36.366
	c0.136-0.276,0.378-0.501,0.22-0.296c-0.678,7.883-1.899,16.166-1.993,24.463c-0.164,14.517,4.584,27.7,12.528,39.768
	c1.65,2.505,3.413,4.936,5.089,7.424C115.839,196.508,116.993,200.168,114.462,204.1z"/>
</svg>
