<?xml version="1.0" encoding="utf-8"?>
<!-- (c) mapshakers 2015, Licence: CC0 1.0 Universal, www.mapshakers.com  -->
<!DOCTYPE svg PUBLIC "-//W3C//DTD SVG 1.1//EN" "http://www.w3.org/Graphics/SVG/1.1/DTD/svg11.dtd">
<svg version="1.1" id="fishing" xmlns="http://www.w3.org/2000/svg" xmlns:xlink="http://www.w3.org/1999/xlink" x="0px" y="0px"
	 width="256px" height="256px" viewBox="0 0 256 256" style="enable-background:new 0 0 256 256;" xml:space="preserve">
<style type="text/css">
<![CDATA[
	.st0{fill:#D1D1D1;}
	.st1{fill:#454545;}
]]>
</style>
<path class="st0" d="M239.544,202.91c-3.863-12.883-13.14-23.24-25.027-28.679c2.222-5.648,3.958-11.988,5.17-18.884
	c0.834,0.948,1.534,1.993,1.924,2.745c1.646,3.565,5.163,5.719,8.986,5.719c0.548,0,1.103-0.044,1.659-0.135
	c4.449-0.726,7.818-4.434,8.291-8.917c0.341-3.239,7.618-78.117-42.412-95.594c-14.132-16.299-33.685-29.7-47.304-35.963
	c-1.332-0.612-2.757-0.915-4.178-0.915c-1.906,0-3.803,0.544-5.451,1.616c-2.877,1.87-4.594,5.084-4.549,8.515
	c0.011,0.858-0.025,1.69-0.099,2.491c-0.37-0.456-0.73-0.938-1.075-1.446c-1.868-2.75-4.971-4.381-8.271-4.381
	c-0.181,0-0.363,0.005-0.545,0.015c-3.501,0.191-6.646,2.201-8.29,5.297c-6.211,11.703-12.445,32.927-13.051,55.121
	c-13.165,16.58-5.801,38.366,1.094,49.179c0.857,1.344,1.995,2.426,3.301,3.203c-0.423-0.058-0.852-0.088-1.284-0.09
	c-0.018,0-0.035,0-0.052,0c-3.377,0-6.529,1.705-8.375,4.536l-18.437,28.261c-1.449,2.222-1.957,4.928-1.41,7.523
	s2.102,4.868,4.323,6.317l0.892,0.581c-3.418,6.838-10.533,11.499-18.437,11.499c-11.546,0-20.603-9.069-20.619-20.647
	c-0.013-9.877,2.867-12.505,15.195-19.454c9.777-5.514,26.14-14.74,26.14-35.291V93.858c9.313-6.806,15.063-17.802,15.063-29.517
	c0-20.146-16.39-36.537-36.537-36.537s-36.537,16.39-36.537,36.537c0,12.56,6.328,23.951,16.577,30.603v26.429
	c-1.646,1.036-3.881,2.296-5.058,2.96c-12.695,7.158-36.325,20.483-36.277,55.601c0.048,34.779,27.305,62.023,62.052,62.023
	c30.152,0,55.546-21.407,60.982-50.555l4.057-2.586c2.236-1.426,3.814-3.682,4.388-6.271s0.095-5.301-1.331-7.537l20.037,18.85
	c-5.91,10.702-7.415,23.49-3.809,35.525c1.517,5.057,3.863,9.771,6.975,14.01c1.9,2.59,4.907,4.083,8.06,4.083
	c0.511,0,1.025-0.039,1.54-0.119c3.688-0.574,6.751-3.155,7.94-6.694c3.275-9.742,11.089-17.313,20.905-20.255
	c2.97-0.891,6.027-1.342,9.088-1.342c7.012,0,13.942,2.4,19.513,6.759c1.792,1.401,3.968,2.124,6.163,2.124
	c1.409,0,2.827-0.298,4.154-0.904c3.397-1.553,5.646-4.868,5.832-8.599C241.693,213.188,241.059,207.962,239.544,202.91z"/>
<path class="st1" d="M229.966,205.783c-4.195-13.988-16.123-23.536-29.712-25.39c5.837-9.004,9.526-22.009,10.868-36.454h0.001
	c12.485-4.735,19.479,9.773,19.479,9.773s7.643-72.574-38.254-85.902c-13.91-16.937-33.765-30.037-45.695-35.524
	c0.143,10.888-5.062,18.592-5.062,18.592s-8.5-3.135-14.384-11.797c-6.029,11.36-11.999,32.864-11.931,54.294
	c-15.888,15.692-0.427,39.942-0.427,39.942s0.317-10.609,4.29-13.271c9.729,31.279,30.529,62.255,50.556,70.777
	c-8.931,9.082-12.77,22.62-8.854,35.686c1.217,4.057,3.088,7.736,5.458,10.966c4.16-12.375,14.051-22.613,27.511-26.646
	c13.458-4.037,27.35-0.929,37.636,7.119C231.644,213.947,231.183,209.842,229.966,205.783z M155.198,59.732
	c5.761-1.727,11.829,1.543,13.557,7.303c1.728,5.762-1.541,11.831-7.303,13.558c-5.76,1.727-11.829-1.543-13.559-7.303
	C146.169,67.53,149.438,61.461,155.198,59.732z M159.8,105.265c-16.19,4.853-34.235-7.631-34.235-7.631s15.224,3.074,31.412-1.778
	c13.266-3.979,23.057-12.04,26.162-14.824c0.02,0.38,0.047,0.77,0.072,1.162C180.609,87.539,172.771,101.375,159.8,105.265z
	 M108.381,151.808l18.22,28.577l-7.908,5.041c-2.765,26.116-24.919,46.532-51.756,46.532c-29.147,0-52.012-22.859-52.052-52.037
	c-0.04-29.267,18.752-39.864,31.189-46.877c6.129-3.457,10.146-5.874,10.146-7.911V88.928c-9.717-3.94-16.577-13.456-16.577-24.586
	c0-14.656,11.881-26.537,26.537-26.537c14.655,0,26.537,11.88,26.537,26.537c0,10.54-6.161,19.617-15.063,23.899v36.892
	c0,14.709-11.672,21.291-21.052,26.58c-12.59,7.098-20.305,12.259-20.284,28.179c0.024,17.178,13.473,30.634,30.619,30.634
	c15.228,0,27.859-11.188,30.196-25.77l-7.188-4.688L108.381,151.808z"/>
</svg>
