<?xml version="1.0" encoding="utf-8"?>
<!-- (c) mapshakers 2015, Licence: CC0 1.0 Universal, www.mapshakers.com  -->
<!DOCTYPE svg PUBLIC "-//W3C//DTD SVG 1.1//EN" "http://www.w3.org/Graphics/SVG/1.1/DTD/svg11.dtd">
<svg version="1.1" id="forbidden" xmlns="http://www.w3.org/2000/svg" xmlns:xlink="http://www.w3.org/1999/xlink" x="0px" y="0px"
	 width="256px" height="256px" viewBox="0 0 256 256" style="enable-background:new 0 0 256 256;" xml:space="preserve">
<style type="text/css">
<![CDATA[
	.st0{fill:#464646;}
	.st1{fill:#D1D1D1;}
]]>
</style>
<path class="st1" d="M129,248.607c-64.297,0-116.607-52.311-116.607-116.607S64.703,15.393,129,15.393
	c64.298,0,116.607,52.31,116.607,116.607C245.607,196.298,193.298,248.607,129,248.607z"/>
<path class="st0" d="M129,25.393C70.217,25.393,22.393,73.216,22.393,132c0,58.783,47.824,106.607,106.607,106.607
	S235.607,190.783,235.607,132C235.607,73.216,187.783,25.393,129,25.393z M129,63.946c11.867,0,23.029,3.06,32.752,8.422
	l-91.24,94.373c-6.068-10.179-9.567-22.056-9.567-34.741C60.946,94.475,91.475,63.946,129,63.946z M129,200.055
	c-10.621,0-20.677-2.449-29.643-6.808l89.845-92.93c5.004,9.47,7.853,20.247,7.853,31.682
	C197.055,169.525,166.525,200.055,129,200.055z"/>
</svg>
