<?xml version="1.0" encoding="utf-8"?>
<!-- (c) mapshakers 2015, Licence: CC0 1.0 Universal, www.mapshakers.com  -->
<!DOCTYPE svg PUBLIC "-//W3C//DTD SVG 1.1//EN" "http://www.w3.org/Graphics/SVG/1.1/DTD/svg11.dtd">
<svg version="1.1" id="fountain" xmlns="http://www.w3.org/2000/svg" xmlns:xlink="http://www.w3.org/1999/xlink" x="0px" y="0px"
	 width="256px" height="256px" viewBox="0 0 256 256" style="enable-background:new 0 0 256 256;" xml:space="preserve">
<style type="text/css">
<![CDATA[
	.st0{fill:#D1D1D1;}
	.st1{fill:#454545;}
]]>
</style>
<path class="st0" d="M82.188,251.904c-2.761,0-5.398-1.142-7.289-3.153c-1.891-2.014-2.865-4.719-2.691-7.475l0.291-4.617
	c0.012-0.189,0.029-0.379,0.052-0.568c1.333-11.062,10.452-17.191,18.356-17.343c11.699-0.224,13.795-2.938,13.815-2.966
	c0.827-1.143-0.281-5.551-1.125-8.459c-2.149-0.647-6.289-1.223-9.461-1.663c-14.629-2.034-39.114-5.438-48.393-30.77
	c-1.798-4.91-5.455-10.547-17.873-10.547c-2,0-3.779,0.152-5.078,0.264c-0.602,0.051-1.112,0.093-1.515,0.117
	c-0.457,0.027-0.896,0.04-1.323,0.04c-10.17,0-15.492-7.266-15.493-14.441c-0.001-9.616,9.138-20.334,22.253-20.337l81.647-0.016
	v-20.385c-0.002-4.196-3.422-7.615-7.624-7.615c-4.204,0-7.624,3.42-7.624,7.625c0,10.872-8.845,19.718-19.717,19.718
	c-10.873,0-19.718-8.846-19.718-19.718c0-25.948,21.11-47.059,47.059-47.059c0.492,0,0.985,0.008,1.476,0.023
	c-4.935-5.959-12.385-9.746-20.616-9.746c-14.757,0-26.763,12.006-26.763,26.764c0,10.872-8.845,19.717-19.718,19.717
	c-10.872,0-19.717-8.845-19.717-19.717c0-36.501,29.696-66.198,66.197-66.198c17.562,0,34.198,6.973,46.48,19.1
	c12.284-12.127,28.919-19.1,46.481-19.1c36.501,0,66.197,29.696,66.197,66.198c0,10.872-8.845,19.717-19.717,19.717
	s-19.717-8.845-19.717-19.717c0-14.757-12.006-26.764-26.764-26.764c-8.23,0-15.681,3.787-20.615,9.746
	c0.491-0.016,0.983-0.023,1.476-0.023c25.948,0,47.06,21.11,47.06,47.059c0,10.872-8.846,19.718-19.718,19.718
	s-19.717-8.846-19.717-19.718c0-4.204-3.421-7.625-7.625-7.625c-4.2,0-7.62,3.418-7.623,7.619c0,0.043-0.001,20.26-0.001,20.26
	l80.028,0.016c13.116,0.002,22.256,10.72,22.255,20.337c-0.001,7.176-5.323,14.441-15.494,14.441c0,0,0,0-0.001,0
	c-0.425,0-0.866-0.013-1.321-0.04c-0.404-0.024-0.914-0.066-1.517-0.117c-1.298-0.111-3.076-0.264-5.077-0.264
	c-12.417,0-16.074,5.637-17.873,10.547c-9.278,25.332-33.763,28.735-48.393,30.77c-3.172,0.44-7.313,1.016-9.461,1.663
	c-0.844,2.907-1.952,7.315-1.125,8.459c0.02,0.027,2.117,2.742,13.815,2.966c9.107,0.174,18.784,7.074,18.86,19.528l0.09,3.468
	c0.069,2.695-0.952,5.305-2.834,7.236s-4.464,3.021-7.16,3.022C172.589,251.882,82.188,251.904,82.188,251.904z"/>
<g>
	<path class="st1" d="M128.079,89.295c-5.367,0-9.717-4.351-9.717-9.717c0-20.271-16.492-36.764-36.764-36.764
		c-20.271,0-36.763,16.492-36.763,36.764c0,5.367-4.351,9.717-9.718,9.717c-5.366,0-9.717-4.351-9.717-9.717
		c0-30.987,25.21-56.198,56.197-56.198c30.988,0,56.198,25.21,56.198,56.198C137.796,84.945,133.445,89.295,128.079,89.295z"/>
</g>
<g>
	<path class="st1" d="M221.04,89.295c-5.366,0-9.717-4.351-9.717-9.717c0-20.271-16.492-36.764-36.764-36.764
		s-36.764,16.492-36.764,36.764c0,5.367-4.351,9.717-9.717,9.717c-5.367,0-9.717-4.351-9.717-9.717
		c0-30.987,25.209-56.198,56.198-56.198c30.987,0,56.197,25.21,56.197,56.198C230.757,84.945,226.406,89.295,221.04,89.295z"/>
</g>
<g>
	<path class="st1" d="M128.08,119.313c-5.367,0-9.717-4.351-9.717-9.717c0-9.718-7.906-17.625-17.625-17.625
		c-9.718,0-17.624,7.906-17.624,17.625c0,5.367-4.351,9.717-9.717,9.717c-5.367,0-9.718-4.351-9.718-9.717
		c0-20.434,16.625-37.059,37.059-37.059s37.059,16.625,37.059,37.059C137.797,114.962,133.446,119.313,128.08,119.313z"/>
</g>
<g>
	<path class="st1" d="M182.762,119.313c-5.366,0-9.717-4.351-9.717-9.717c0-9.718-7.907-17.625-17.625-17.625
		c-9.717,0-17.624,7.906-17.624,17.625c0,5.367-4.35,9.717-9.716,9.717c-5.367,0-9.717-4.351-9.717-9.717
		c0-20.434,16.623-37.059,37.058-37.059s37.06,16.625,37.06,37.059C192.479,114.962,188.129,119.313,182.762,119.313z"/>
</g>
<g>
	<path class="st1" d="M128.079,149.859c-5.367,0-9.717-4.351-9.717-9.717V68.642c0-5.367,4.351-9.718,9.717-9.718
		c5.366,0,9.717,4.351,9.717,9.718v71.501C137.796,145.509,133.445,149.859,128.079,149.859z"/>
</g>
<path class="st1" d="M227.822,139.865l-102.47-0.02v0.122l-98.635,0.019c-11.58,0.003-17.591,15.442-6.033,14.756
	c4.716-0.28,26.938-3.796,34.449,16.709c11.635,31.765,53.78,19.145,57.434,30.979c3.462,11.22,7.479,25.763-21.468,26.316
	c-2.137,0.041-7.809,1.804-8.62,8.541l-0.291,4.617l90.398-0.022l-0.093-3.579c0-8.123-6.747-9.634-9.052-9.678
	c-28.948-0.554-24.932-15.098-21.469-26.316c3.653-11.834,45.799,0.786,57.434-30.979c7.511-20.505,29.732-16.989,34.449-16.709
	C245.413,155.308,239.4,139.867,227.822,139.865z"/>
</svg>
