<?xml version="1.0" encoding="utf-8"?>
<!-- (c) mapshakers 2015, Licence: CC0 1.0 Universal, www.mapshakers.com  -->
<!DOCTYPE svg PUBLIC "-//W3C//DTD SVG 1.1//EN" "http://www.w3.org/Graphics/SVG/1.1/DTD/svg11.dtd">
<svg version="1.1" id="fuel" xmlns="http://www.w3.org/2000/svg" xmlns:xlink="http://www.w3.org/1999/xlink" x="0px" y="0px"
	 width="256px" height="256px" viewBox="0 0 256 256" style="enable-background:new 0 0 256 256;" xml:space="preserve">
<style type="text/css">
<![CDATA[
	.st0{fill:#464646;}
	.st1{fill:#D1D1D1;}
]]>
</style>
<path class="st1" d="M44.656,241.007c-14.974,0-27.156-11.226-27.156-25.024c0-8.113,4.36-15.707,11.413-20.356
	c-0.271-1.428-0.413-2.899-0.413-4.403V42.043c0-13.001,10.577-23.578,23.577-23.578h78c9.155,0,17.108,5.245,21.013,12.888
	c3.441-3.103,7.963-4.88,12.674-4.88c4.023,0,7.871,1.255,11.127,3.629l47.129,34.384c4.836,3.528,7.736,9.209,7.758,15.195
	l0.332,93.23c0.135,4.919-0.363,21.069-11.496,32.685c-6.701,6.985-15.672,10.678-25.944,10.678
	c-22.791,0-35.979-19.063-38.658-36.893l-0.354-1.727v13.564c0,1.506-0.141,2.979-0.411,4.404
	c7.053,4.648,11.413,12.244,11.413,20.357c0,13.799-12.184,25.023-27.157,25.023H44.656V241.007z M191.346,173.55
	c0.143,0.89,0.434,1.908,0.777,2.815c0.141-0.864,0.225-1.725,0.22-2.37c-0.01-0.238-0.015-0.478-0.015-0.716l-0.18-49.989
	c-9.01-2.329-16.025-7.021-20.922-14.011c-6.863-9.795-8.365-22.941-4.447-38.323l-13.123-9.573v57.185
	c28.232,8.455,33.404,33.811,36.855,50.734l0.616,2.996C191.21,172.68,191.284,173.111,191.346,173.55z"/>
<path class="st0" d="M52.078,204.798h78c7.468,0,13.578-6.108,13.578-13.577v-46.606v-18.05v-84.52
	c0-7.468-6.11-13.578-13.578-13.578h-78c-7.467,0-13.577,6.109-13.577,13.578v149.177C38.5,198.688,44.61,204.798,52.078,204.798z
	 M59.512,58.051c0-6.009,4.915-10.924,10.924-10.924h41.287c6.009,0,10.924,4.915,10.924,10.924v26.761l0,0
	c0,6.009-4.916,10.924-10.924,10.924H70.436c-6.009,0-10.924-4.916-10.924-10.924V58.051z M220.111,173.075l-0.334-93.358
	c-0.01-2.829-1.366-5.484-3.651-7.151l-47.128-34.383c-3.967-2.894-9.529-2.024-12.424,1.943c-2.896,3.968-2.025,9.53,1.941,12.425
	l19.879,14.501c-3.772,10.862-6.506,25.746,1.022,36.491c4.67,6.667,12.285,10.444,22.701,11.281l0.209,58.455
	c0,0.113,0.002,0.228,0.008,0.341c0.069,1.675-0.381,9.204-3.778,12.747c-0.875,0.91-2.436,2.121-5.89,2.121
	c-9.171,0-11.149-13.012-11.222-13.514c-0.028-0.219-0.064-0.437-0.11-0.651c-0.209-1.011-0.416-2.019-0.621-3.022
	c-3.466-16.994-7.655-37.471-31.786-43.668V146.4c9.463,4.496,11.454,14.209,14.361,28.455c0.189,0.927,0.38,1.856,0.572,2.791
	c1.451,10.109,9.227,28.627,28.807,28.627c7.482,0,13.958-2.627,18.727-7.599C220.217,189.473,220.186,175.463,220.111,173.075z
	 M191.068,95.377c-2.738-3.908-2.848-10.969-0.53-19.467l11.471,8.37l0.058,16.236C197.542,99.992,193.302,98.564,191.068,95.377z
	 M154.657,215.982c0,8.264-7.722,15.023-17.157,15.023H44.656c-9.436,0-17.156-6.761-17.156-15.023
	c0-5.869,3.907-10.967,9.547-13.436c3.444,4.559,8.891,7.521,15.03,7.521h78.002c6.14,0,11.586-2.963,15.03-7.521
	C150.749,205.016,154.657,210.113,154.657,215.982z"/>
</svg>
