<?xml version="1.0" encoding="utf-8"?>
<!-- (c) mapshakers 2015, Licence: CC0 1.0 Universal, www.mapshakers.com  -->
<!DOCTYPE svg PUBLIC "-//W3C//DTD SVG 1.1//EN" "http://www.w3.org/Graphics/SVG/1.1/DTD/svg11.dtd">
<svg version="1.1" id="gallery" xmlns="http://www.w3.org/2000/svg" xmlns:xlink="http://www.w3.org/1999/xlink" x="0px" y="0px"
	 width="256px" height="256px" viewBox="0 0 256 256" style="enable-background:new 0 0 256 256;" xml:space="preserve">
<style type="text/css">
<![CDATA[
	.st0{fill:#464646;}
	.st1{fill:#D1D1D1;}
]]>
</style>
<path class="st1" d="M237.87,195.809c-0.997-2.228-2.127-4.752-3.7-7.24c-2.802-4.424-2.895-7.849-0.329-12.209
	c1.283-2.184,2.077-4.297,2.777-6.161c0.146-0.388,0.29-0.773,0.437-1.149c4.955-12.693,4.737-25.593-0.646-38.338
	c-1.109-2.624-2.306-5.416-3.644-8.159c-1.279-2.627-1.258-4.552,0.078-7.104c2.024-3.869,4.545-8.685,6.461-13.753
	c3.594-9.513-0.543-21.051-9.836-27.435c-4.363-3-8.638-4.458-13.064-4.458c-3.191,0-6.355,0.816-9.463,2.401
	c3.986-10.083,1.433-20.766-6.937-27.884c-4.754-4.043-9.571-6.009-14.728-6.009c-5.16,0-10.305,2.042-15.728,6.242
	c-2.215,1.717-4.163,2.552-5.954,2.552c-1.431,0-2.986-0.511-4.766-1.565c-0.771-0.456-1.557-0.891-2.339-1.325
	c-1.019-0.562-1.978-1.093-2.738-1.603c-4.335-2.898-9.022-4.367-13.935-4.367c-3.877,0-7.854,0.938-11.821,2.787
	c-3.449,1.608-7.12,3.313-10.753,4.932c-1.701,0.757-3.311,1.125-4.923,1.125c-1.598,0-3.213-0.36-4.938-1.101
	c-0.607-0.261-1.219-0.516-1.832-0.771c-1.755-0.731-3.414-1.422-4.702-2.176c-5.374-3.142-10.843-4.735-16.258-4.735
	c-6.048,0-11.829,1.957-17.179,5.814c-2.286,1.647-4.254,2.449-6.019,2.449c-2.064,0-4.563-1.147-7.428-3.41
	c-4.161-3.287-8.933-5.024-13.8-5.024c-5.293,0-10.564,2.047-15.239,5.919c-8.621,7.137-11.492,18.621-7.148,28.568
	c1.023,2.348,2.296,5.27,4.057,8.1c2.877,4.623,2.917,8.206,0.147,13.218c-6.366,11.519-8.159,23.822-5.185,35.583
	c1.653,6.537,4.399,12.705,6.607,17.664c1.383,3.104,1.068,4.883,0.111,6.746c-2.038,3.969-3.666,7.211-5.125,10.202
	c-5.264,10.812-2.48,22.945,6.924,30.195c4.793,3.694,9.758,5.569,14.757,5.567c3.15,0,6.19-0.738,9.099-2.17
	c-0.002,0.006-0.005,0.016-0.008,0.021c-0.259,0.652-0.581,1.467-0.872,2.438c-2.813,9.385,0.816,19.881,9.032,26.119
	c4.523,3.434,9.253,5.176,14.057,5.176c5,0,9.807-1.863,14.287-5.539c2.583-2.116,4.868-3.146,6.988-3.146
	c1.759,0,3.773,0.717,5.989,2.132c1.093,0.698,2.153,1.284,3.088,1.802c0.683,0.379,1.329,0.733,1.855,1.063
	c3.978,2.479,8.269,3.734,12.755,3.734c3.012,0,6.077-0.577,9.116-1.725c2.683-1.013,5.559-2.177,8.398-3.82
	c3.545-2.049,6.84-3.045,10.072-3.045c3.199,0,6.418,0.981,9.844,3.006c0.869,0.514,1.645,0.836,2.123,1.033
	c5.115,2.979,10.379,4.489,15.653,4.488c5.985,0,11.733-1.921,17.084-5.709c2.347-1.662,4.372-2.47,6.19-2.47
	c2.091,0,4.599,1.125,7.451,3.342c4.184,3.25,8.951,4.968,13.791,4.968c5.494,0,10.916-2.188,15.68-6.328
	c8.468-7.353,11.013-18.599,6.482-28.65L237.87,195.809z"/>
<g>
	<path class="st0" d="M71.64,184.458c1.481,0.901,3.094,1.603,4.518,2.582c5.264,3.623,10.666,3.646,16.299,0.94
		c1.68-0.81,3.562-1.486,5.113-2.523c1.323-0.884,2.327-2.203,3.626-3.111c1.339-0.936,2.836-1.535,4.346-2.138
		c2.752-1.097,5.031-1.496,7.861-1.539c0.29-0.004,0.586-0.005,0.889-0.001c6.471,0.059,12.023,3.68,16.241,8.17
		c4.589,4.887,14.277,3.373,19.193-0.074c9.735-6.828,18.768-6.795,28.061,0.905c1.961,1.625,5.572,2.312,8.188,1.907
		c10.66-1.65,15.82-12.159,10.896-21.821c-9.76-19.147-7.957-16.516-1.2-32.733c4.419-10.606,4.42-21.281-0.054-31.914
		c-6.559-15.582-8.721-13.847,1.203-32.747c3.611-6.873,2.289-13.676-3.295-18.426c-5.827-4.959-10.883-4.876-17.848,0.52
		c-6.986,5.415-14.229,6.258-21.943,1.686c-1.836-1.089-3.766-2.033-5.535-3.218c-5.184-3.465-10.493-3.384-15.973-0.831
		c-3.627,1.691-7.258,3.377-10.914,5.004c-5.937,2.643-11.915,2.637-17.875,0.077c-2.574-1.106-5.229-2.096-7.634-3.503
		c-7.679-4.491-15.286-4.672-22.542,0.559c-8.952,6.453-17.074,5.422-25.492-1.227c-5.411-4.275-11.244-3.573-16.464,0.75
		c-5.212,4.315-6.956,10.92-4.357,16.872c1.011,2.323,2.045,4.666,3.378,6.81c4.814,7.734,4.911,15.193,0.41,23.339
		c-4.825,8.73-6.742,18.41-4.243,28.293c1.392,5.508,3.722,10.827,6.046,16.045c2.343,5.257,2.5,10.268-0.127,15.384
		c-1.706,3.323-3.393,6.657-5.029,10.014c-3.143,6.454-1.653,13.509,4.04,17.898c5.008,3.862,10.706,5.431,16.957-0.136
		C55.476,179.954,63.442,179.471,71.64,184.458z M48.945,155.947c-0.041-24.582-0.042-49.166,0-73.748
		c0.014-7.928,2.948-10.718,11.029-10.724c17.501-0.012,35.003-0.004,52.505-0.004c17.369,0,34.735-0.01,52.103,0.004
		c8.34,0.006,10.975,2.671,10.977,11.078c0.006,24.449,0.008,48.898-0.002,73.346c-0.004,7.953-2.604,10.621-10.529,10.627
		c-35.137,0.024-70.273,0.022-105.41,0.002C51.771,166.521,48.958,163.76,48.945,155.947z"/>
	<path class="st0" d="M225.723,193.916c-4.736-7.48-5.019-14.943-0.5-22.628c1.072-1.823,1.744-3.892,2.52-5.879
		c4.035-10.341,3.764-20.616-0.543-30.808c-1.092-2.58-2.195-5.158-3.422-7.676c-2.645-5.429-2.613-10.728,0.207-16.119
		c2.162-4.13,4.322-8.302,5.968-12.651c1.985-5.258-0.912-12.064-6.146-15.659c-5.371-3.691-9.857-3.601-15.018,0.298
		c-6.667,5.039-6.712,5.059-3.098,12.988c5.697,12.505,6.633,25.214,3.195,38.629c-2.111,8.242-2.855,16.896-1.253,25.296
		c1.438,7.539,4.79,14.599,4.532,22.424c-0.116,3.53-1.063,7.332-3.158,10.19c-2.244,3.066-4.13,4.953-7.887,6.138
		c-2.234,0.704-4.5,0.569-6.768,1c-1.502,0.287-2.77,1.075-4.215,1.517c-4.277,1.308-9.918,0.853-14.091-0.636
		c-6.569-2.339-13.55-3.013-20.419-1.751c-5.91,1.085-10.555,4.867-16.928,4.574c-2.922-0.134-5.855-0.547-8.541-1.828
		c-5.625-2.684-10.865-4.689-17.13-5.509c-7.978-1.044-14.34,3.552-21.653,5.373c-7.349,1.83-14.776,0.331-21.213-3.538
		c-1.112-0.669-2.283-0.979-3.364-1.654c-1.177-0.734-2.776-1.396-4.23-1.314c-1.061,0.061-2.045,0.519-2.73,1.633
		c-0.484,0.787-0.426,1.822-0.598,2.699c-0.277,1.414-0.962,2.652-1.373,4.023c-1.707,5.693,0.88,11.777,5.499,15.284
		c5.447,4.135,10.577,4.282,15.958-0.131c7.922-6.495,16.031-7.246,24.698-1.711c1.575,1.005,3.268,1.819,4.853,2.806
		c4.167,2.6,8.551,2.838,13.049,1.145c2.367-0.895,4.743-1.859,6.928-3.123c10.03-5.799,19.998-5.903,30,0.005
		c0.571,0.337,1.242,0.509,1.811,0.85c7.525,4.49,15.068,4.459,22.191-0.585c8.951-6.336,17.076-5.451,25.558,1.139
		c5.597,4.35,11.544,3.532,16.778-1.017c5.1-4.428,6.637-10.966,3.922-16.991C228.074,198.409,227.07,196.048,225.723,193.916z"/>
</g>
</svg>
