<?xml version="1.0" encoding="utf-8"?>
<!-- (c) mapshakers 2015, Licence: CC0 1.0 Universal, www.mapshakers.com  -->
<!DOCTYPE svg PUBLIC "-//W3C//DTD SVG 1.1//EN" "http://www.w3.org/Graphics/SVG/1.1/DTD/svg11.dtd">
<svg version="1.1" id="gear" xmlns="http://www.w3.org/2000/svg" xmlns:xlink="http://www.w3.org/1999/xlink" x="0px"
	 y="0px" width="256px" height="256px" viewBox="0 0 256 256" style="enable-background:new 0 0 256 256;" xml:space="preserve">
<style type="text/css">
<![CDATA[
	.st0{fill:#464646;}
	.st1{fill:#D1D1D1;}
]]>
</style>
<path class="st1" d="M120.502,243.45c-7.057,0-12.089-3.771-14.169-10.614c-1.694-5.572-3.675-11.136-5.488-16.045
	c-5.033-2.337-9.632-4.373-13.972-6.186c-4.677,2.092-9.771,4.521-15.837,7.556c-2.135,1.067-4.202,1.588-6.317,1.588
	c-3.589,0-6.82-1.467-9.604-4.36c-4.43-4.604-9.104-9.281-14.287-14.297c-4.448-4.31-5.426-9.978-2.688-15.554
	c1.102-2.242,2.145-4.495,3.249-6.881c1.337-2.888,2.713-5.86,4.208-8.822c-2.522-5.034-4.6-9.745-6.319-14.332
	c-2.427-0.81-4.823-1.636-7.154-2.44c-3.288-1.136-6.688-2.31-10.001-3.367c-6.163-1.965-9.636-6.771-9.523-13.18
	c0.124-7.103,0.123-13.59-0.005-19.833c-0.134-6.536,3.387-11.449,9.659-13.479c6.262-2.027,11.917-3.97,17.224-5.915
	c2.284-4.716,4.417-9.365,6.36-13.856c-2.061-4.599-4.436-9.577-7.541-15.818c-2.843-5.714-1.837-11.523,2.758-15.938
	C46.52,46.429,50.95,41.993,55,37.711c3.443-3.639,7.163-4.403,9.677-4.403c2.871,0,5.152,0.971,6.618,1.701
	c4.749,2.363,10.278,5.081,15.908,7.647c4.799-1.814,9.421-3.674,13.775-5.543c2.271-5.772,4.281-11.491,5.816-15.945
	c2.024-5.87,6.725-9.237,12.897-9.237l0.31,0.003c3.223,0.055,6.583,0.083,9.99,0.083c3.291,0,6.745-0.026,10.269-0.077
	c0.049,0,0.194-0.001,0.243-0.001c6.031,0,10.636,3.337,12.63,9.156c1.055,3.074,2.201,6.225,3.311,9.271
	c0.795,2.187,1.613,4.432,2.412,6.691c2.826,0.999,5.541,2.074,8.184,3.121c2.01,0.797,3.929,1.558,5.841,2.265
	c4.817-2.154,9.992-4.623,15.752-7.515c2.28-1.143,4.438-1.698,6.609-1.698c2.517,0,6.241,0.768,9.702,4.428
	c2.16,2.287,4.453,4.602,6.668,6.84c2.535,2.56,5.156,5.208,7.707,7.933c3.396,3.634,4.416,9.831,2.375,14.418
	c-1.459,3.273-2.996,6.502-4.481,9.625c-1.196,2.517-2.344,4.923-3.444,7.339c0.735,1.95,1.518,3.902,2.334,5.944
	c1.01,2.531,2.051,5.135,3.029,7.801c2.512,0.871,4.971,1.789,7.365,2.682c2.755,1.028,5.355,1.999,7.988,2.889
	c6.246,2.11,9.748,7.138,9.604,13.795c-0.169,7.626-0.163,13.473,0.019,18.958c0.129,3.931-0.979,10.978-9.853,14.025
	c-5.563,1.92-10.539,3.747-15.132,5.561c-1.771,4.445-3.51,9.075-5.18,13.81c1.066,2.322,2.188,4.671,3.274,6.955
	c1.501,3.149,3.054,6.406,4.526,9.703c1.855,4.139,1.73,10.467-2.109,14.534c-1.955,2.072-4.064,4.261-6.449,6.688
	c-0.813,0.83-1.635,1.658-2.453,2.486c-2.225,2.248-4.323,4.373-6.383,6.566c-1.941,2.07-4.404,3.368-7.123,3.753
	c-0.545,0.078-1.113,0.119-1.68,0.119c-3.387,0-5.902-1.405-7.254-2.16c-0.12-0.065-0.238-0.136-0.355-0.194
	c-0.918-0.447-1.864-0.879-2.813-1.312c-0.58-0.265-1.161-0.526-1.738-0.798c-2.637-1.227-5.269-2.457-7.888-3.721
	c-0.771-0.371-1.542-0.746-2.313-1.125c-4.754,2.231-9.517,4.287-14.189,6.129c-0.671,1.979-1.355,3.938-2.025,5.85
	c-1.308,3.725-2.539,7.24-3.646,10.813c-1.938,6.263-6.806,9.853-13.354,9.854l-0.438-0.005c-2.704-0.056-6.269-0.115-9.788-0.115
	c-3.08,0-5.842,0.045-8.444,0.14C121.024,243.445,120.759,243.45,120.502,243.45z"/>
<path class="st0" d="M195.82,210.063c-1.146,0.164-2.348-0.763-3.484-1.314c-1.563-0.764-3.158-1.462-4.734-2.195
	c-2.595-1.205-5.186-2.418-7.763-3.658c-1.417-0.685-2.831-1.375-4.237-2.08c-1.968-0.986-3.306-0.686-5.166,0.203
	c-5.42,2.586-10.939,4.983-16.541,7.145c-1.967,0.76-3.1,1.723-3.75,3.688c-2.078,6.271-4.424,12.457-6.375,18.767
	c-0.709,2.295-1.832,2.849-4.035,2.804c-6.262-0.124-12.534-0.195-18.792,0.026c-2.833,0.102-4.19-0.716-5.041-3.515
	c-1.92-6.315-4.158-12.543-6.466-18.729c-0.411-1.104-1.624-2.188-2.735-2.709c-5.756-2.697-11.562-5.3-17.441-7.72
	c-1.314-0.539-3.216-0.726-4.457-0.184c-6.159,2.697-12.223,5.622-18.239,8.631c-1.796,0.897-2.866,0.67-4.243-0.763
	c-4.754-4.94-9.613-9.783-14.539-14.55c-1.334-1.293-1.469-2.322-0.666-3.959c2.758-5.613,5.207-11.383,8.085-16.932
	c1.313-2.533,0.983-4.408-0.252-6.845c-2.554-5.034-4.889-10.216-6.802-15.521c-0.84-2.329-2.021-3.426-4.199-4.137
	c-6.281-2.056-12.488-4.334-18.782-6.346c-1.899-0.604-2.604-1.463-2.568-3.479c0.118-6.736,0.132-13.479-0.006-20.213
	c-0.044-2.168,0.733-3.111,2.741-3.761c6.51-2.108,12.989-4.324,19.401-6.71c1.215-0.451,2.441-1.693,3.024-2.883
	c2.793-5.71,5.458-11.489,7.95-17.336c0.544-1.278,0.704-3.164,0.168-4.385c-2.704-6.158-5.63-12.22-8.627-18.243
	c-0.883-1.774-0.723-2.874,0.733-4.272c4.86-4.666,9.653-9.411,14.282-14.305c1.564-1.654,2.781-1.514,4.571-0.623
	c6.022,2.997,12.071,5.948,18.21,8.695c1.161,0.521,2.918,0.394,4.163-0.07c5.737-2.141,11.432-4.416,17.047-6.859
	c1.308-0.569,2.758-1.778,3.269-3.045c2.421-6.014,4.61-12.124,6.724-18.254c0.65-1.885,1.604-2.528,3.586-2.495
	c6.855,0.117,13.716,0.105,20.57,0.006c1.871-0.026,2.682,0.685,3.27,2.399c2.064,6.024,4.348,11.975,6.434,17.993
	c0.677,1.947,1.73,2.908,3.799,3.598c5.693,1.901,11.197,4.361,16.853,6.383c1.339,0.478,3.195,0.587,4.447,0.037
	c6.048-2.657,12.009-5.52,17.913-8.484c1.857-0.932,3.043-0.94,4.559,0.663c4.709,4.98,9.657,9.733,14.342,14.737
	c0.688,0.735,0.957,2.579,0.539,3.518c-2.832,6.357-5.986,12.571-8.813,18.931c-0.513,1.147-0.353,2.879,0.104,4.12
	c2.023,5.527,4.396,10.929,6.366,16.474c0.729,2.046,1.563,3.333,3.759,4.061c5.819,1.93,11.504,4.272,17.313,6.236
	c2.182,0.737,2.855,1.861,2.807,4.104c-0.145,6.498-0.193,13.007,0.021,19.504c0.082,2.53-0.924,3.489-3.106,4.239
	c-5.909,2.039-11.786,4.188-17.583,6.523c-1.191,0.479-2.386,1.806-2.879,3.023c-2.385,5.891-4.609,11.85-6.693,17.852
	c-0.396,1.146-0.278,2.766,0.227,3.883c2.764,6.132,5.798,12.142,8.542,18.281c0.444,0.995,0.401,2.897-0.252,3.592
	c-2.08,2.205-4.188,4.382-6.313,6.543c-3.01,3.065-6.059,6.091-8.996,9.225C196.652,209.797,196.24,210.004,195.82,210.063z
	 M172.083,126.68c0.065-23.207-18.606-42.196-41.567-42.272c-23.586-0.079-42.52,18.377-42.604,41.532
	c-0.087,23.701,18.489,42.607,41.895,42.64C153.2,168.614,172.018,149.965,172.083,126.68z"/>
</svg>
