<?xml version="1.0" encoding="utf-8"?>
<!-- (c) mapshakers 2015, Licence: CC0 1.0 Universal, www.mapshakers.com  -->
<!DOCTYPE svg PUBLIC "-//W3C//DTD SVG 1.1//EN" "http://www.w3.org/Graphics/SVG/1.1/DTD/svg11.dtd">
<svg version="1.1" id="helicopter" xmlns="http://www.w3.org/2000/svg" xmlns:xlink="http://www.w3.org/1999/xlink" x="0px" y="0px"
	 width="256px" height="256px" viewBox="0 0 256 256" style="enable-background:new 0 0 256 256;" xml:space="preserve">
<style type="text/css">
<![CDATA[
	.st0{fill:#464646;}
	.st1{fill:#D1D1D1;}
]]>
</style>
<path class="st1" d="M244.123,96.609V86.29c0.001-3.957-1.498-7.65-4.223-10.398c-2.737-2.764-6.42-4.285-10.364-4.285
	c-0.716,0-1.44,0.051-2.156,0.153l-70.196,10.016c-2.591-2.133-5.908-3.391-9.506-3.391c-3.57,0-6.906,1.294-9.515,3.459
	L67.265,71.727c-0.706-0.101-1.422-0.152-2.129-0.152c-8.064,0-14.381,6.355-14.381,14.469v10.804l-5.091-11.005
	c-2-5.908-7.979-10.196-14.216-10.196h-5.746c-3.801,0-7.407,1.609-9.894,4.415c-2.486,2.806-3.649,6.58-3.191,10.358l3.631,29.821
	c-3.045,2.439-4.858,6.041-4.837,10.092c0.02,3.942,1.838,7.526,4.815,10.013l-1.909,14.295c-0.506,3.791,0.627,7.592,3.108,10.426
	c2.48,2.832,6.096,4.457,9.92,4.457h1.758c5.479,0,11.098-3.129,13.985-7.787l7.412-11.971c18.548,4.479,37.754,9.316,45.625,11.59
	c0.259,0.953,0.529,1.99,0.762,2.886c2.561,9.84,6.209,23.862,15.676,28.426c-0.529,1.435-0.819,2.981-0.819,4.599v1.066
	c0,7.335,5.967,13.302,13.301,13.302h96.211c7.334,0,13.301-5.967,13.301-13.302v-1.066c0-2.152-0.515-4.188-1.427-5.988
	c5.646-3.664,7.896-9.775,7.912-15.293c0.045-14.754-14.56-33.912-28.239-46.922c-4.352-4.137-12.162-10.987-21.732-16.875
	l37.713-0.167C237.242,111.981,244.123,105.068,244.123,96.609z"/>
<path class="st0" d="M228.792,81.66l-76.244,10.878c-0.377-2.354-2.411-4.154-4.87-4.154c-2.482,0-4.531,1.834-4.882,4.221
	L65.849,81.626c-2.802-0.401-5.094,1.588-5.094,4.417v10.804c0,2.83,2.316,5.155,5.146,5.168l76.839,0.34v8.212
	c-11.818-0.427-25.956-0.67-33.918,1.461c-3.415,0.914-3.334,7.6-4.336,8.36c-5.655,4.292-54.244,3.501-56.501,3.462L36.191,89.049
	c-0.633-1.871-2.768-3.402-4.744-3.402h-5.746c-1.976,0-3.396,1.604-3.158,3.565l4.567,37.509c-1.056,0.143-2.03,0.292-2.619,0.423
	c-4.339,0.965-3.984,5.645,0.364,6.566c0.532,0.112,1.39,0.265,2.328,0.423c-0.031,0.126-0.073,0.249-0.09,0.381l-2.864,21.449
	c-0.261,1.959,1.141,3.563,3.116,3.563h1.758c1.976,0,4.443-1.375,5.483-3.053l11.219-18.119c0.661,0.16,1.289,0.312,1.864,0.447
	c0,0,51.986,12.446,55.915,14.516c2.801,1.475,5.457,30.709,15.634,30.849c28.654,0.394,80.228,0.188,100.831,0.431
	c35.582,0.413-23.306-73.294-62.141-73.519c-1.499-0.009-3.294-0.058-5.293-0.128v-8.591l76.121-0.336
	c2.964-0.014,5.386-2.449,5.386-5.411V86.286C234.124,83.323,231.725,81.242,228.792,81.66z M143.465,157.189
	c-8.504,0-12.01,0-22.708-0.078c-6.137-0.045-7.87-32.727-4.962-34.625c2.922-1.908,26.326-2.485,27.278,1.178
	C147.674,141.361,148.581,157.189,143.465,157.189z M162.098,120.99c16.58,0.199,59.201,40.764,44.008,40.765
	c-9.438,0.001-31.664,0.118-43.899-0.098c-4.349-0.077-6.169-23.704-7.552-34.974C153.861,120.233,156.218,120.92,162.098,120.99z
	 M224.557,197.266v1.066c0,1.814-1.482,3.302-3.3,3.302h-96.211c-1.815,0-3.301-1.485-3.301-3.302v-1.066
	c0-1.814,1.486-3.302,3.301-3.302h96.211C223.07,193.964,224.557,195.448,224.557,197.266z"/>
</svg>
