<?xml version="1.0" encoding="utf-8"?>
<!-- (c) mapshakers 2015, Licence: CC0 1.0 Universal, www.mapshakers.com  -->
<!DOCTYPE svg PUBLIC "-//W3C//DTD SVG 1.1//EN" "http://www.w3.org/Graphics/SVG/1.1/DTD/svg11.dtd">
<svg version="1.1" id="hospital" xmlns="http://www.w3.org/2000/svg" xmlns:xlink="http://www.w3.org/1999/xlink" x="0px" y="0px"
	 width="256px" height="256px" viewBox="0 0 256 256" style="enable-background:new 0 0 256 256;" xml:space="preserve">
<style type="text/css">
<![CDATA[
	.st0{fill:#D1D1D1;}
	.st1{fill:#454545;}
]]>
</style>
<path class="st0" d="M128.127,253.385c-69.046,0-125.219-56.172-125.219-125.217c0-69.046,56.173-125.219,125.219-125.219
	s125.219,56.173,125.219,125.219C253.346,197.213,197.173,253.385,128.127,253.385z"/>
<path class="st1" d="M192.966,118.705c0-5.5-4.5-10-10-10h-26.995c-5.5,0-10-4.5-10-10V71.71c0-5.5-4.5-10-10-10h-15.916
	c-5.5,0-10,4.5-10,10v26.995c0,5.5-4.5,10-10,10H73.059c-5.5,0-10,4.5-10,10v15.916c0,5.5,4.5,10,10,10h26.996c5.5,0,10,4.5,10,10
	v26.994c0,5.5,4.5,10,10,10h15.916c5.5,0,10-4.5,10-10v-26.994c0-5.5,4.5-10,10-10h26.995c5.5,0,10-4.5,10-10V118.705z"/>
<g>
	<path class="st1" d="M128.127,243.385c-63.531,0-115.219-51.688-115.219-115.218c0-63.531,51.687-115.219,115.219-115.219
		c63.532,0,115.219,51.688,115.219,115.219C243.346,191.697,191.659,243.385,128.127,243.385z M128.127,37.702
		c-49.883,0-90.465,40.582-90.465,90.465s40.582,90.466,90.465,90.466c49.882,0,90.467-40.583,90.467-90.466
		S178.01,37.702,128.127,37.702z"/>
</g>
</svg>
