<?xml version="1.0" encoding="utf-8"?>
<!-- (c) mapshakers 2015, Licence: CC0 1.0 Universal, www.mapshakers.com  -->
<!DOCTYPE svg PUBLIC "-//W3C//DTD SVG 1.1//EN" "http://www.w3.org/Graphics/SVG/1.1/DTD/svg11.dtd">
<svg version="1.1" id="hostel" xmlns="http://www.w3.org/2000/svg" xmlns:xlink="http://www.w3.org/1999/xlink" x="0px" y="0px"
	 width="256px" height="256px" viewBox="0 0 256 256" style="enable-background:new 0 0 256 256;" xml:space="preserve">
<style type="text/css">
<![CDATA[
	.st0{fill:#D1D1D1;}
	.st1{fill:#454545;}
]]>
</style>
<path class="st0" d="M221.834,57.925c-11.579,0-21,9.42-21,21v18.908h-74.528c0.681-1.153,1.074-2.298,1.286-3.263
	c0.775-3.522,0.504-10.156-10.015-15.02l-43.26-20.004c-2.87-1.327-5.784-2-8.662-2c-2.464,0-4.76,0.481-6.821,1.364V47.093
	c0-11.079-9.42-20.093-21-20.093s-21,9.014-21,20.093v195.74c0,5.522,4.477,10,10,10h22c5.523,0,10-4.478,10-10v-13.666h142v13.666
	c0,5.522,4.479,10,10,10h22c5.521,0,10-4.478,10-10V78.925C242.834,67.346,233.413,57.925,221.834,57.925z M137.833,187.167h-8.521
	c0.637-3.603-0.031-9.883-10.141-14.438l-43.127-19.439c-2.791-1.258-5.625-1.896-8.425-1.896c-3.285,0-6.261,0.863-8.786,2.387
	v-13.944h78.999V187.167z"/>
<path class="st1" d="M71.302,94h40.896c7.042,0,7.573-2.418,1.182-5.373L70.12,68.623c-6.391-2.955-11.62,0.388-11.62,7.429v5.146
	C58.5,88.239,64.261,94,71.302,94z"/>
<path class="st1" d="M115.063,181.846l-43.127-19.439c-6.29-2.836-11.437,0.49-11.437,7.39v4.66c0,6.899,5.645,12.545,12.545,12.545
	h40.91C120.855,187,121.354,184.68,115.063,181.846z"/>
<g>
	<path class="st1" d="M221.834,67.925c-6.075,0-8.14,4.611-8.14,4.611c-1.573,3.514-2.86,9.539-2.86,13.389v14.908
		c0,3.85-3.15,7-7,7h-148c-3.85,0-7-3.15-7-7v-46.74c0-3.85-1.381-9.831-3.069-13.291c0,0-1.855-3.802-7.931-3.802
		s-7.93,3.802-7.93,3.802c-1.688,3.46-3.07,9.441-3.07,13.291v181.74c0,3.85,3.15,7,7,7h8c3.85,0,7-3.15,7-7v-9.666
		c0-3.85,3.15-7,7-7h148c3.85,0,7,3.15,7,7v9.666c0,3.85,3.15,7,7,7h8c3.85,0,7-3.15,7-7V85.925c0-3.85-1.287-9.875-2.86-13.389
		C229.974,72.536,227.909,67.925,221.834,67.925z M190.5,169.835c0,3.85-3.15,7-7,7h-18.667c-3.85,0-7-3.15-7-7v-3
		c0-3.85,3.15-7,7-7H183.5c3.85,0,7,3.15,7,7V169.835z M157.833,192.001c0-2.841,3.15-5.166,7-5.166H183.5c3.85,0,7,2.325,7,5.166
		s-3.15,5.166-7,5.166h-18.667C160.983,197.167,157.833,194.842,157.833,192.001z M190.5,142.835c0,3.85-3.15,7-7,7h-18.667
		c-3.85,0-7-3.15-7-7v-6.001c0-3.85,3.15-7,7-7H183.5c3.85,0,7,3.15,7,7V142.835z M48.834,136.834c0-3.85,3.15-7,7-7h84.999
		c3.85,0,7,3.15,7,7v53.333c0,3.85-3.15,7-7,7H55.834c-3.85,0-7-3.15-7-7V136.834z M205.667,197.167c-2.842,0-5.167-3.15-5.167-7
		v-53.333c0-3.85,2.325-7,5.167-7s5.167,3.15,5.167,7v53.333C210.834,194.017,208.509,197.167,205.667,197.167z"/>
</g>
</svg>
