<?xml version="1.0" encoding="utf-8"?>
<!-- (c) mapshakers 2015, Licence: CC0 1.0 Universal, www.mapshakers.com  -->
<!DOCTYPE svg PUBLIC "-//W3C//DTD SVG 1.1//EN" "http://www.w3.org/Graphics/SVG/1.1/DTD/svg11.dtd">
<svg version="1.1" id="ice_ring" xmlns="http://www.w3.org/2000/svg" xmlns:xlink="http://www.w3.org/1999/xlink" x="0px" y="0px"
	 width="256px" height="256px" viewBox="0 0 256 256" style="enable-background:new 0 0 256 256;" xml:space="preserve">
<style type="text/css">
<![CDATA[
	.st0{fill:#D1D1D1;}
	.st1{fill:#454545;}
]]>
</style>
<path class="st0" d="M228.788,181.665c0.69-2.421,1.063-5.187,0.994-8.33c-0.359-16.292-12.52-34.358-34.35-35.753
	c-0.167-0.011-16.957-1.225-33.331-14.534c-17.821-14.485-27.318-36.924-28.229-66.692c-0.088-2.872-1.586-12.242-17.175-12.242
	c-14.442,0-48.19,8.146-64.033,24.379c-7.56,7.747-9.002,15.324-8.881,20.316c0.357,14.71-0.395,18.654-1.642,25.188
	c-1.034,5.418-2.451,12.838-3.72,28.145c-2.539,30.613,0.941,46.125,1.091,46.771c0.534,2.305,1.842,4.265,3.61,5.638
	c-10.346,1.3-17.079,13.485-19.577,18.894c-1.43,3.097-1.183,6.709,0.654,9.582c1.838,2.873,5.014,4.611,8.424,4.611h151.785
	c19.822,0,40.319,0,47.631-18.942C235.871,198.771,234.811,189.909,228.788,181.665z M130.67,197.896
	c-8.272,0-17.327-0.865-25.496-2.438c-0.878-0.169-1.685-0.352-2.456-0.541c0.508-0.364,0.989-0.771,1.426-1.231
	c1.894-1.987,2.888-4.666,2.748-7.407c-0.163-3.194-0.051-6.914,0.233-9.702c6.425,0.724,9.171,2.83,13.188,5.911
	c7.145,5.479,14.711,10.297,29.552,12.699c0.038,0.201,0.073,0.404,0.104,0.608C144.789,197.175,138.188,197.896,130.67,197.896z"/>
<path class="st1" d="M219.79,186.37l-8.69,1.258c8.384,11.661,0.967,22.056-27.763,18.38c-10.091-1.291-12.244-15.431-12.244-15.431
	h-12.106c0,0,3.944,11.435-3.154,13.883c-14.962,5.159-37.469,3.721-52.547,0.819c-20.941-4.027-20.97-14.702-20.97-14.702
	l-24.764,0.156c0,0,10.023,8.595,8.124,11.575c-1.289,2.022-12.999,3.005-20.249,2.151c-6.369-0.75-12.802,13.178-12.802,13.178
	h151.785c20.595,0,33.659-0.517,38.302-12.545C224.884,199.466,225.51,193.363,219.79,186.37z"/>
<path class="st1" d="M194.796,147.562c-11.812-0.754-68.555-13.622-70.919-90.9c-0.27-8.834-70.723,6.153-70.097,31.905
	c0.682,28.044-2.591,20.615-5.393,54.402c-2.439,29.407,0.867,43.688,0.867,43.688l47.65,0.131c0,0-1.044-20.488,4.57-20.488
	c38.866,0,9.097,29.163,112.681,17.941C224.613,183.108,221.792,149.286,194.796,147.562z M98.322,76.289
	c0-5.177,4.196-9.373,9.374-9.373c5.176,0,9.373,4.196,9.373,9.373s-4.197,9.373-9.373,9.373
	C102.519,85.662,98.322,81.465,98.322,76.289z M116.244,117.702c-5.177,0-9.373-4.196-9.373-9.373s4.196-9.374,9.373-9.374
	s9.373,4.197,9.373,9.374S121.421,117.702,116.244,117.702z M132.996,144.598c-5.178,0-9.374-4.196-9.374-9.374
	c0-5.177,4.196-9.373,9.374-9.373c5.177,0,9.373,4.196,9.373,9.373C142.369,140.401,138.173,144.598,132.996,144.598z"/>
</svg>
