<?xml version="1.0" encoding="utf-8"?>
<!-- (c) mapshakers 2015, Licence: CC0 1.0 Universal, www.mapshakers.com  -->
<!DOCTYPE svg PUBLIC "-//W3C//DTD SVG 1.1//EN" "http://www.w3.org/Graphics/SVG/1.1/DTD/svg11.dtd">
<svg version="1.1" id="information" xmlns="http://www.w3.org/2000/svg" xmlns:xlink="http://www.w3.org/1999/xlink" x="0px"
	 y="0px" width="256px" height="256px" viewBox="0 0 256 256" style="enable-background:new 0 0 256 256;" xml:space="preserve">
<style type="text/css">
<![CDATA[
	.st0{fill:#D1D1D1;}
	.st1{fill:#454545;}
]]>
</style>
<path class="st0" d="M107.328,65.772c3.092,2.371,6.659,4.144,10.602,5.27c3.436,0.981,7.128,1.479,10.973,1.479
	c3.693,0,7.314-0.491,10.763-1.46c3.941-1.107,7.518-2.852,10.628-5.185c3.46-2.594,6.247-5.902,8.285-9.834
	c2.106-4.067,3.174-8.663,3.174-13.66c0-5.058-1.069-9.688-3.18-13.767c-2.068-3.987-4.909-7.318-8.454-9.906
	c-3.129-2.278-6.721-3.966-10.688-5.021c-3.383-0.895-6.924-1.348-10.527-1.348c-3.762,0-7.378,0.46-10.754,1.37
	c-3.95,1.067-7.531,2.783-10.647,5.102c-3.573,2.662-6.392,6.1-8.379,10.22c-1.908,3.959-2.875,8.452-2.875,13.351
	c0,4.842,0.968,9.303,2.875,13.253C101.075,59.688,103.838,63.101,107.328,65.772z"/>
<path class="st0" d="M182.779,216.849c-3.32-2.14-7.015-2.14-9.459-2.14c0,0-0.655,0-0.721-0.001
	c-1.004-0.148-2.538-0.43-3.473-0.643c-0.513-0.37-1.172-0.881-1.647-1.283c-0.449-0.956-1.05-2.448-1.272-3.23
	c-0.116-1.957-0.262-8.937-0.262-17.325v-86.03c0-13.785-11.215-25-25-25h-35.199c-14.486,0-25,7.313-25,17.388
	c0,3.795,0,11.692,7.622,15.553c1.5,0.761,3.565,1.341,6.142,1.726c3.274,0.489,5.382,0.887,6.198,1.15
	c0.429,0.262,1.15,0.793,1.655,1.212c0.401,0.804,0.938,2.043,1.173,2.753c0.114,2.046,0.252,8.82,0.252,16.937v54.311
	c0,7.735-0.351,15.923-0.627,18.766c-0.358,0.665-0.89,1.556-1.307,2.193c-0.628,0.371-1.462,0.823-1.991,1.076
	c-1.125,0.22-3.524,0.575-4.138,0.624h-0.87c-1.564,0-4.819,0-7.852,1.931c-6.26,3.981-6.26,10.826-6.26,15.824
	c0,10.074,10.514,17.387,25,17.387h58.244c14.486,0,25-7.313,25-17.387C188.988,227.666,188.988,220.853,182.779,216.849z"/>
<path class="st1" d="M128.903,63.846c-3.04,0-5.93-0.386-8.591-1.146c-2.892-0.826-5.484-2.109-7.706-3.813
	c-2.403-1.839-4.312-4.201-5.668-7.019c-1.336-2.769-2.015-5.962-2.015-9.488c0-3.586,0.679-6.811,2.015-9.584
	c1.374-2.848,3.307-5.212,5.747-7.029c2.233-1.662,4.832-2.901,7.726-3.683c2.638-0.71,5.492-1.069,8.493-1.069
	c2.856,0,5.652,0.356,8.311,1.059c2.92,0.777,5.54,2.003,7.799,3.648c2.442,1.783,4.413,4.099,5.858,6.886
	c1.466,2.832,2.206,6.117,2.206,9.773c0,3.594-0.74,6.848-2.202,9.671c-1.432,2.763-3.377,5.077-5.784,6.882
	c-2.248,1.686-4.861,2.957-7.771,3.774C134.635,63.462,131.802,63.846,128.903,63.846z"/>
<g>
	<path class="st1" d="M177.361,225.254c-1.236-0.797-4.588-0.43-5.83-0.598s-5.573-0.891-6.697-1.469s-4.648-3.252-5.456-4.395
		c-0.808-1.144-2.926-6.032-3.105-7.996s-0.327-10.32-0.327-18.57v-86.03c0-8.25-6.75-15-15-15h-35.199c-8.25,0-15,3.325-15,7.388
		s0.409,5.755,2.145,6.634c0.624,0.316,2.307,0.637,3.094,0.754c2.44,0.365,6.753,1.009,8.823,1.909
		c1.591,0.691,4.719,3.109,5.533,4.19s2.938,5.68,3.118,7.512s0.329,10.082,0.329,18.332v54.311c0,8.25-0.442,20.218-0.983,21.732
		c-0.541,1.516-3.096,5.798-4.078,6.643s-4.697,2.901-5.915,3.242c-1.217,0.341-5.451,0.976-6.625,1.031
		c-1.174,0.057-3.023-0.126-3.816,0.379c-1.595,1.015-1.627,3.324-1.627,7.387s6.75,7.387,15,7.387h58.244c8.25,0,15-3.324,15-7.387
		S178.95,226.278,177.361,225.254z"/>
</g>
</svg>
