<?xml version="1.0" encoding="utf-8"?>
<!-- (c) mapshakers 2015, Licence: CC0 1.0 Universal, www.mapshakers.com  -->
<!DOCTYPE svg PUBLIC "-//W3C//DTD SVG 1.1//EN" "http://www.w3.org/Graphics/SVG/1.1/DTD/svg11.dtd">
<svg version="1.1" id="internet" xmlns="http://www.w3.org/2000/svg" xmlns:xlink="http://www.w3.org/1999/xlink" x="0px" y="0px"
	 width="256px" height="256px" viewBox="0 0 256 256" style="enable-background:new 0 0 256 256;" xml:space="preserve">
<style type="text/css">
<![CDATA[
	.st0{fill:#D1D1D1;}
	.st1{fill:#454545;}
]]>
</style>
<path class="st0" d="M237.69,59.641c-9.545-16.854-23.27-30.022-40.794-39.139C179.673,11.543,159.942,7,138.251,7
	C112.975,7,90.09,12.685,70.23,23.897C50.235,35.188,34.569,51.108,23.668,71.214C12.877,91.122,7.406,113.494,7.406,137.709
	c0,35.346,10.888,63.514,32.36,83.719c21.3,20.051,51.012,30.217,88.31,30.217c25.34,0,48.625-4.43,69.21-13.168
	c3.693-1.566,6.093-5.191,6.093-9.205v-26.533c0-1.92-0.551-3.768-1.548-5.346c8.1-1.611,15.508-5.07,22.117-10.342
	c9.075-7.236,16.133-17.313,20.977-29.951c4.636-12.1,6.986-25.514,6.986-39.872C251.911,95.69,247.127,76.316,237.69,59.641z"/>
<g>
	<path class="st1" d="M241.911,117.832c0,13.198-2.11,25.296-6.324,36.294c-4.216,10.998-10.174,19.57-17.873,25.71
		c-7.699,6.141-16.635,9.211-26.809,9.211c-6.784,0-12.81-1.627-18.079-4.881c-5.273-3.253-9.006-7.538-11.206-12.855h-2.197
		c-4.492,5.498-9.947,9.829-16.36,12.992c-6.417,3.162-13.565,4.742-21.447,4.742c-16.224,0-29.008-4.881-38.357-14.641
		c-9.349-9.762-14.023-23.075-14.023-39.938c0-19.154,6.071-34.69,18.216-46.606c12.144-11.914,28.253-17.873,48.324-17.873
		c7.424,0,15.994,0.711,25.709,2.131c9.714,1.422,17.643,3.231,23.784,5.431l-3.162,67.228c0,12.832,3.482,19.248,10.448,19.248
		c5.865,0,10.539-4.284,14.022-12.856c3.482-8.567,5.226-19.772,5.226-33.613c0-14.756-3.049-27.792-9.144-39.113
		c-6.097-11.319-14.71-19.979-25.847-25.984c-11.135-6.001-23.9-9.005-38.288-9.005c-18.422,0-34.507,3.85-48.255,11.548
		C76.521,62.7,66.025,73.698,58.786,87.996c-7.241,14.298-10.861,30.795-10.861,49.492c0,25.389,6.758,44.843,20.278,58.361
		c13.519,13.521,33.109,20.278,58.773,20.278c10.265,0,21.263-1.147,32.996-3.437c11.73-2.292,22.867-5.409,33.407-9.35v26.534
		c-19.431,8.247-41.198,12.372-65.303,12.372c-34.829,0-61.981-9.166-81.456-27.497c-19.477-18.329-29.214-43.81-29.214-76.438
		c0-22.637,5.018-43.214,15.054-61.729c10.037-18.512,24.265-32.972,42.688-43.375c18.423-10.401,39.458-15.604,63.104-15.604
		c20.162,0,38.172,4.124,54.03,12.374c15.855,8.248,28.092,19.981,36.707,35.195C237.602,80.392,241.911,97.944,241.911,117.832z
		 M101.13,135.017c0,19.34,7.881,29.009,23.647,29.009c8.157,0,14.413-2.909,18.767-8.73c4.353-5.818,6.988-15.329,7.906-28.528
		l1.786-30.383c-4.216-0.915-9.485-1.375-15.81-1.375c-11.459,0-20.371,3.574-26.74,10.723
		C104.314,112.882,101.13,122.643,101.13,135.017z"/>
</g>
</svg>
