<?xml version="1.0" encoding="utf-8"?>
<!-- (c) mapshakers 2015, Licence: CC0 1.0 Universal, www.mapshakers.com  -->
<!DOCTYPE svg PUBLIC "-//W3C//DTD SVG 1.1//EN" "http://www.w3.org/Graphics/SVG/1.1/DTD/svg11.dtd">
<svg version="1.1" id="island" xmlns="http://www.w3.org/2000/svg" xmlns:xlink="http://www.w3.org/1999/xlink" x="0px" y="0px"
	 width="256px" height="256px" viewBox="0 0 256 256" style="enable-background:new 0 0 256 256;" xml:space="preserve">
<style type="text/css">
<![CDATA[
	.st0{fill:#D1D1D1;}
	.st1{fill:#454545;}
]]>
</style>
<path class="st0" d="M250.781,208.093c-40.969-50.747-96.38-67.26-138.492-71.742c-0.219-4.833-0.201-9.71,0.053-14.607
	c2.614,0.893,5.539,1.454,8.763,1.454c6.581,0,13.091-2.382,19.35-7.082c0.552-0.415,1.06-0.885,1.515-1.404
	c6.072-6.924,9.416-16.029,9.416-25.637c0-1.579-0.092-3.157-0.274-4.721c3.241-5.794,4.993-12.524,4.993-19.368
	c0-16.134-9.621-30.209-23.203-35.149c-5.611-12.476-17.443-20.769-30.453-20.769c-7.157,0-14.032,2.454-19.727,6.908
	c-4.299-1.702-8.897-2.582-13.606-2.582c-20.424,0-37.04,16.616-37.04,37.04c0,0.703,0.02,1.407,0.061,2.11
	c-5.527,6.496-8.615,14.615-8.615,22.963c0,12.969,8.14,26.699,23.8,31.238c1.154,3.416,3.082,6.622,5.715,9.43
	c5.368,5.726,13.098,9.144,20.676,9.144c0.679,0,1.352-0.027,2.018-0.081c-0.226,3.123-0.516,6.427-0.819,9.655
	c-37.739,1.098-61.472,15.878-70.573,43.973c-0.827,2.553-0.593,5.33,0.648,7.709c0.505,0.968,1.167,1.83,1.939,2.573
	c-0.021,0.021-0.045,0.038-0.066,0.059c-3.246,3.175-3.946,8.138-1.704,12.087c7.466,13.151,16.686,23.353,28.185,31.188
	c7.553,5.146,14.84,8.707,22.276,10.888c7.799,2.287,15.88,3.447,24.017,3.447c8.618,0,17.473-1.301,26.32-3.866
	c9.639-2.796,19.069-6.271,28.189-9.63c1.93-0.711,3.86-1.415,5.791-2.12c-3.489,2.74-4.778,7.477-3.089,11.628
	c1.551,3.812,5.246,6.23,9.257,6.23c0.533,0,1.072-0.043,1.612-0.131l3.196-0.522c14.48-2.371,28.157-4.61,41.875-4.61
	c11.633,0,21.938,1.679,31.503,5.133c1.113,0.402,2.261,0.596,3.395,0.596c3.198,0,6.29-1.539,8.201-4.275
	c2.172-3.111,2.357-7.118,0.646-10.374c2.988-0.039,5.902-1.411,7.822-3.926c1.606-2.104,2.253-4.67,1.984-7.146
	c1.129-0.399,2.205-1.006,3.167-1.829C253.613,218.453,254.18,212.303,250.781,208.093z"/>
<g>
	<path class="st1" d="M102.942,145.554c-0.905-8.873-1.431-21.579,0.559-36.986c0.826-3.604,1.515-4.378,1.515-4.378
		s11.603,17.317,29.436,3.929c4.285-4.887,6.935-11.614,6.935-19.043c0-2.364-0.271-4.656-0.773-6.841
		c3.429-4.681,5.492-10.692,5.492-17.248c0-13.75-9.071-25.096-20.809-26.809c-2.995-11.064-12.09-19.11-22.848-19.11
		c-7.136,0-13.536,3.544-17.915,9.158c-4.374-3.043-9.686-4.832-15.418-4.832c-14.933,0-27.04,12.106-27.04,27.04
		c0,1.935,0.207,3.821,0.593,5.64c-5.638,4.917-9.148,11.803-9.148,19.434c0,8.769,6.056,21.43,22.566,22.693
		c-0.736,11.41,12.745,19.855,22.411,16.294c0.603-11.533,0.443-39.277-12.21-63.512c21.127,19.673,20.618,53.757,19.899,64.288
		c-0.017,7.747-1.236,19.931-2.207,29.567c-1.648-0.011-3.146-0.012-4.46-0.012c-41.967,0-59.079,16.774-65.67,37.121
		c1.222,0.372,2.416,0.887,3.551,1.564c8.631,5.157,17.902,9.124,28.342,12.128c10.444,3.004,21.787,4.464,34.677,4.464
		c2.651,0,5.427-0.063,8.25-0.187c15.117-0.664,31.288-3.418,49.437-8.418c9.206-2.537,20.228-5.213,32.165-5.828
		c1.518-0.078,3.054-0.118,4.565-0.118c14.418,0,28.719,3.597,42.505,10.691c8.386,4.315,16.34,9.737,23.643,16.117
		c0.916,0.8,1.578,1.53,2.016,2.013C199.133,160.036,138.771,148.152,102.942,145.554z"/>
	<path class="st1" d="M235.114,223.52c-6.256-5.464-13.051-10.139-20.438-13.94c-12.215-6.285-25.111-9.533-38.926-8.821
		c-9.816,0.506-19.322,2.68-28.738,5.274c-17.363,4.784-34.928,8.185-52.986,8.978c-16.285,0.715-32.332-0.364-48.052-4.886
		c-11.268-3.241-22.006-7.723-32.125-13.769c6.34,11.167,14.472,20.606,25.119,27.86c6.061,4.129,12.427,7.494,19.46,9.557
		c14.951,4.385,30.001,3.846,44.737-0.428c12.083-3.505,23.851-8.123,35.701-12.403c14.949-5.398,30.16-9.412,46.158-10.013
		c14.088-0.529,27.521,1.993,40.246,8.074c3.617,1.73,7.104,3.74,11.131,5.877C235.739,224.176,235.454,223.816,235.114,223.52z"/>
	<path class="st1" d="M198.233,222.865c-18.805-4.194-35.658,4.638-52.129,16.191c27.094-4.412,54.168-9.433,81.578,0.465
		c-0.494-0.589-0.695-0.872-0.924-1.096C218.101,229.98,208.497,225.155,198.233,222.865z"/>
</g>
</svg>
