<?xml version="1.0" encoding="utf-8"?>
<!-- (c) mapshakers 2015, Licence: CC0 1.0 Universal, www.mapshakers.com  -->
<!DOCTYPE svg PUBLIC "-//W3C//DTD SVG 1.1//EN" "http://www.w3.org/Graphics/SVG/1.1/DTD/svg11.dtd">
<svg version="1.1" id="linkedin" xmlns="http://www.w3.org/2000/svg" xmlns:xlink="http://www.w3.org/1999/xlink" x="0px" y="0px"
	 width="256px" height="256px" viewBox="0 0 256 256" style="enable-background:new 0 0 256 256;" xml:space="preserve">
<style type="text/css">
<![CDATA[
	.st0{fill:#464646;}
	.st1{fill:#D1D1D1;}
]]>
</style>
<g>
	<path class="st1" d="M71.739,25.579c-0.049-0.021-0.098-0.041-0.147-0.06C67.414,23.847,63.029,23,58.561,23
		c-18.308,0-26.6,9.68-30.341,17.956c-2.241,4.322-3.385,8.888-3.402,13.579c-0.245,13.762,6.228,24.566,18.151,30.388
		c0.652,0.326,1.348,0.623,2.09,0.892h-7.236c-5.487,0-9.949,4.446-10,9.933c-0.005,0.499-0.105,7.284-0.3,20.355
		c0,0.049-0.001,108.045-0.001,108.045c0,0.818,0.101,1.634,0.299,2.428l0.301,1.202c1.113,4.45,5.113,7.572,9.701,7.572h40.574
		c5.523,0,10-4.478,10-10V95.814c0-5.523-4.477-10-10-10h-8.409c0.237-0.075,0.471-0.159,0.702-0.251
		c8.58-3.432,14.899-10.001,18.272-18.998c0.071-0.188,0.136-0.378,0.195-0.571c1.008-3.277,1.651-6.515,1.91-9.622
		c0.029-0.342,0.04-0.686,0.033-1.028C90.823,41.26,83.947,30.689,71.739,25.579z"/>
	<path class="st1" d="M237.166,149.448c-0.223-13.588-2.968-26.085-8.159-37.146c-0.05-0.105-0.101-0.209-0.153-0.312
		c-9.877-19.27-26.963-29.464-49.412-29.482c-0.264-0.003-0.525-0.004-0.786-0.004c-10.789,0-20.261,2.64-28.134,7.761
		c-1.06-1.495-2.45-2.651-3.938-3.395c-1.389-0.694-2.92-1.056-4.472-1.056h-40.574c-4.303,0-8.124,2.753-9.486,6.835l-0.301,0.901
		c-0.34,1.021-0.514,2.089-0.514,3.165c0,0,0,3.084,0,3.125c0.199,16.738,0.3,27.922,0.3,33.242l0,49.509l-0.301,37.049v4.207
		c0,2.169,0.458,4.182,1.361,5.983c1.695,3.383,5.156,5.52,8.94,5.52h40.574c3.788,0,7.25-2.14,8.944-5.528
		c1.224-2.446,1.356-4.59,1.356-11.985v-67.958c0.16-2.82,0.607-4.354,0.898-5.077c1.446-2.259,2.016-3.055,2.146-3.229
		c3.406-4.442,6.466-5.08,8.772-5.101c4.361,0.125,11.461,0.55,11.461,19.152v69.727c0,5.522,4.478,10,10,10h30.213
		c3.563,0.101,6.241,0.15,8.182,0.15c3.185,0,5.252-0.059,7.545-1.202c3.393-1.691,5.536-5.157,5.536-8.948
		C237.167,225.35,237.167,149.503,237.166,149.448z"/>
</g>
<path id="linkedin" class="st0" d="M68.21,34.729c8.615,3.606,13.023,10.519,13.224,20.738c-0.201,2.404-0.702,4.909-1.503,7.514
	c-2.404,6.412-6.612,10.82-12.623,13.224c-2.605,0.801-4.909,1.302-6.913,1.502c-6.011,0-10.218-0.601-12.623-1.803
	c-8.616-4.208-12.823-11.32-12.623-21.339c0-3.206,0.801-6.312,2.404-9.317c3.606-8.215,10.719-12.322,21.339-12.322
	C62.099,32.926,65.205,33.527,68.21,34.729z M77.828,225.275H38.156l-0.301-1.202V116.178c0.2-13.425,0.301-20.237,0.301-20.438
	c13.625,0,27.149,0,40.574,0v0.901v128.634H77.828z M186.024,155.549c0-19.035-7.113-28.752-21.339-29.153
	c-6.612,0-12.222,3.006-16.83,9.017c-0.602,0.801-1.604,2.304-3.006,4.508c-1.202,2.404-1.903,5.61-2.104,9.618v68.224
	c0,4.608-0.101,7.113-0.301,7.514c-13.625,0-27.149,0-40.574,0c-0.201-0.4-0.301-0.901-0.301-1.503v-4.207l0.301-36.968v-49.59
	c0-5.41-0.101-16.53-0.301-33.361v-3.005l0.301-0.901c13.625,0,27.149,0,40.574,0c0.4,0.2,0.501,0.701,0.301,1.502v16.23
	c0.4-0.201,0.801-0.701,1.202-1.503c7.613-13.224,19.535-19.736,35.765-19.536c18.834,0,32.358,8.014,40.574,24.043
	c4.608,9.817,7.013,20.838,7.213,33.061v75.737c-0.401,0.2-4.107,0.2-11.12,0h-30.355V155.549z"/>
</svg>
