<?xml version="1.0" encoding="utf-8"?>
<!-- (c) mapshakers 2015, Licence: CC0 1.0 Universal, www.mapshakers.com  -->
<!DOCTYPE svg PUBLIC "-//W3C//DTD SVG 1.1//EN" "http://www.w3.org/Graphics/SVG/1.1/DTD/svg11.dtd">
<svg version="1.1" id="mapkey" xmlns="http://www.w3.org/2000/svg" xmlns:xlink="http://www.w3.org/1999/xlink" x="0px" y="0px"
	 width="256px" height="256px" viewBox="0 0 256 256" style="enable-background:new 0 0 256 256;" xml:space="preserve">
<style type="text/css">
<![CDATA[
	.st0{fill:#D1D1D1;}
	.st1{fill:#454545;}
]]>
</style>
<path class="st0" d="M193.561,63.14c-8.693-7.39-19.02-13.162-30.441-17.05c1.188-2.811,2.235-5.676,3.109-8.274
	c1.507-4.476-0.327-9.393-4.393-11.795c-1.584-0.936-3.34-1.39-5.081-1.39c-2.729,0-5.426,1.115-7.376,3.238
	c-1.552,1.69-3.363,3.435-5.117,4.971c-0.065-0.881-0.119-1.762-0.157-2.611c-0.211-4.818-3.83-8.799-8.605-9.467
	c-0.467-0.065-0.932-0.097-1.392-0.097c-4.249,0-8.106,2.712-9.481,6.841c-0.7,2.103-1.56,4.397-2.34,6.297
	c-0.854-0.336-1.637-0.718-2.155-1.027c-1.612-0.996-3.435-1.493-5.256-1.493c-1.907,0-3.813,0.545-5.474,1.631
	c-3.247,2.124-4.973,5.934-4.427,9.775c0.006,0.042,0.013,0.09,0.022,0.146c-16.005,3.444-30.595,10.43-42.223,20.306
	c-24.516,3.129-43.226,24.061-43.226,49.167c0,22.028,14.224,41.045,34.999,47.385c1.482,1.674,3.049,3.297,4.693,4.864
	c-0.84,3.114-0.126,6.453,1.933,8.957c1.377,1.675,2.984,3.223,4.766,4.663c-0.665,1.462-1.001,3.078-0.898,4.743
	c0.919,14.901,10.299,39.899,62.796,39.899c17.229,0,31.32-2.713,41.881-8.063c13.724-6.952,21.313-18.256,21.947-32.689
	c0.074-1.687-0.301-3.314-1.007-4.776c1.894-1.655,3.557-3.448,4.934-5.395c1.554-2.196,2.145-4.906,1.684-7.515
	c1.578-1.512,3.083-3.075,4.508-4.684c20.784-6.334,35.018-25.353,35.018-47.39C236.801,87.195,218.086,66.262,193.561,63.14z"/>
<g>
	<path class="st1" d="M84.74,187.463c-3.855-1.597-7.058-3.336-9.72-5.157c1.385,22.458,24.244,30.515,52.815,30.515
		c28.857,0,52.829-8.226,53.838-31.192c-12.342,9.007-33.147,13.202-53.837,13.202C111.51,194.83,96.205,192.214,84.74,187.463z"/>
	<path class="st1" d="M189.383,72.797c-10.752-9.931-25.198-17.217-41.62-20.489c0.206-0.135,0.397-0.271,0.56-0.408
		c3.662-3.112,8.429-17.274,8.429-17.274s-13.256,14.489-19.326,12.629c-2.62-0.801-3.311-16.59-3.311-16.59
		s-4.479,13.451-6.636,13.805c-5.892,0.96-12.604-3.187-12.604-3.187s0.589,4.147,3.605,8.458c0.228,0.325,0.561,0.67,0.965,1.025
		c-20.899,1.794-39.423,9.959-52.495,22.031c-20.847,1.127-37.403,18.384-37.403,39.511c0,18.771,13.074,34.477,30.609,38.542
		c3.156,3.893,6.814,7.498,10.906,10.756c-0.847,1.805-1.578,3.656-2.167,5.555c9.031,10.978,34.56,16.813,58.866,16.813
		c25.062,0,51.427-6.204,59.667-17.853c-0.545-1.604-1.194-3.169-1.925-4.705c3.996-3.207,7.578-6.746,10.673-10.563
		c17.544-4.059,30.625-19.766,30.625-38.545C226.801,91.178,210.238,73.918,189.383,72.797z M134.206,135.992
		c3.082-1.776,7.021-0.719,8.798,2.362l6.176,10.708c1.774,3.083,0.718,7.021-2.365,8.801c-1.013,0.586-2.119,0.862-3.21,0.862
		c-2.229,0-4.395-1.158-5.587-3.226l-6.176-10.708C130.066,141.71,131.124,137.771,134.206,135.992z M123.543,144.792l-6.174,10.708
		c-1.192,2.067-3.359,3.226-5.586,3.226c-1.092,0-2.199-0.276-3.212-0.862c-3.082-1.775-4.141-5.718-2.363-8.801l6.173-10.708
		c1.778-3.081,5.718-4.139,8.799-2.362C124.261,137.768,125.321,141.71,123.543,144.792z M181.881,138.004
		c-1.188,4.05-2.8,7.81-4.76,11.184c-11.201-12.028-28.877-19.799-48.785-19.799c-20.029,0-37.806,7.863-49,20.017
		c-2.026-3.446-3.687-7.302-4.9-11.462c-12.989-1.327-23.122-12.297-23.122-25.635c0-14.231,11.537-25.769,25.769-25.769
		c2.287,0,4.506,0.302,6.619,0.862c5.836-6.79,13.431-10.908,21.744-10.908c8.784,0,16.77,4.594,22.723,12.089
		c5.953-7.495,13.939-12.089,22.722-12.089c8.387,0,16.044,4.19,21.9,11.092c2.309-0.677,4.746-1.046,7.271-1.046
		c14.231,0,25.77,11.537,25.77,25.769C205.831,125.93,195.263,137.071,181.881,138.004z"/>
	<path class="st1" d="M159.583,97.774c-21.771-2.713-25.623,19.944-25.623,19.944s11.035-5.423,23.618-3.855
		c12.583,1.568,21.951,9.535,21.951,9.535S181.353,100.486,159.583,97.774z"/>
	<path class="st1" d="M98.051,97.584c-21.697,3.234-19.324,26.094-19.324,26.094s9.246-7.699,21.788-9.568
		c12.543-1.869,23.631,2.798,23.631,2.798S119.751,94.351,98.051,97.584z"/>
</g>
</svg>
