<?xml version="1.0" encoding="utf-8"?>
<!-- (c) mapshakers 2015, Licence: CC0 1.0 Universal, www.mapshakers.com  -->
<!DOCTYPE svg PUBLIC "-//W3C//DTD SVG 1.1//EN" "http://www.w3.org/Graphics/SVG/1.1/DTD/svg11.dtd">
<svg version="1.1" id="market_place" xmlns="http://www.w3.org/2000/svg" xmlns:xlink="http://www.w3.org/1999/xlink" x="0px"
	 y="0px" width="256px" height="256px" viewBox="0 0 256 256" style="enable-background:new 0 0 256 256;" xml:space="preserve">
<style type="text/css">
<![CDATA[
	.st0{fill:#D1D1D1;}
	.st1{fill:#454545;}
]]>
</style>
<path class="st0" d="M248.749,84.778c0-0.108-0.002-0.216-0.005-0.324c-0.066-2.026-0.992-5.191-3.61-7.356
	c0.101-0.196,0.188-0.383,0.265-0.551c1.084-2.441,2.912-8.888-3.519-16.004l-36.604-40.496
	c-5.609-6.208-15.756-10.713-24.123-10.713H73.846c-8.368,0-18.514,4.506-24.125,10.713L13.119,60.542
	c-5.923,6.553-4.84,12.531-3.785,15.343c-4.042,1.983-5.395,6.061-5.493,8.488c-0.005,0.134-0.008,0.324-0.008,0.458
	c0,17.936,14.592,32.528,32.527,32.528c0.484,0,0.958-0.024,1.43-0.049c-0.289,1.243-0.291,2.166-0.291,2.742v43.645
	c0,1.508,0.229,2.963,0.645,4.337c-9.758,1.319-17.312,9.685-17.312,19.798V230.5c0,11.027,8.972,20,20,20h172.666
	c11.027,0,20-8.973,20-20v-42.667c0-10.78-8.58-19.573-19.27-19.963c0.385-1.326,0.604-2.724,0.604-4.173V120.12
	c0-0.633-0.002-1.574-0.294-2.816c0.555,0.034,1.112,0.057,1.685,0.057C234.158,117.36,248.749,102.769,248.749,84.778z
	 M79.198,117.27c0.698,0.055,1.405,0.09,2.128,0.09c10.082,0,17.704-5.507,22.483-11.074c4.779,5.567,12.401,11.074,22.482,11.074
	c10.083,0,17.704-5.507,22.482-11.075c4.779,5.567,12.401,11.075,22.483,11.075c0.634,0,1.257-0.022,1.87-0.064
	c-0.292,1.25-0.295,2.179-0.295,2.757v43.644c0,1.438,0.215,2.82,0.593,4.136H78.907c0.378-1.315,0.593-2.699,0.593-4.136V120.12
	C79.5,119.481,79.497,118.529,79.198,117.27z"/>
<path class="st1" d="M223.499,230.5c0,5.5-4.5,10-10,10H40.833c-5.5,0-10-4.5-10-10v-42.667c0-5.5,4.5-10,10-10h172.666
	c5.5,0,10,4.5,10,10V230.5z"/>
<path class="st1" d="M234.461,67.248c3.688,4.081,2.205,7.419-3.295,7.419H23.833c-5.5,0-6.982-3.338-3.294-7.419L57.14,26.751
	c3.688-4.081,11.206-7.419,16.706-7.419h107.306c5.5,0,13.019,3.338,16.705,7.418L234.461,67.248z"/>
<path class="st1" d="M23.837,84.667c-5.5,0-10.002,0.049-10.004,0.109c0,0,0,0,0,0.056c0,12.441,10.085,22.528,22.527,22.528
	c11.986,0,18.041-12.216,18.041-12.216c2.443-4.928,6.44-4.928,8.882,0c0,0,6.055,12.215,18.042,12.215
	c11.988,0,18.042-12.218,18.042-12.218c2.442-4.928,6.438-4.928,8.88,0c0,0,6.055,12.218,18.042,12.218
	c11.99,0,18.044-12.221,18.044-12.221c2.44-4.928,6.438-4.928,8.879,0c0,0,6.056,12.221,18.044,12.221
	c11.987,0,18.042-12.215,18.042-12.215c2.442-4.928,6.438-4.928,8.882,0c0,0,6.055,12.215,18.041,12.215
	c12.441,0,22.526-10.085,22.526-22.527c0-0.056,0-0.056,0-0.056c-0.002-0.061-4.504-0.11-10.004-0.11L23.837,84.667L23.837,84.667z"
	/>
<path class="st1" d="M196.986,110.854c-1.785-1.411-4.686-1.426-6.442-0.033c-1.757,1.393-7.711,6.483-7.711,9.233v43.645
	c0,2.75,2.25,5,5,5h12c2.75,0,5-2.25,5-5V120.12C204.833,117.37,198.773,112.265,196.986,110.854z"/>
<path class="st1" d="M61.654,110.854c-1.786-1.411-4.686-1.426-6.443-0.033c-1.757,1.393-7.711,6.483-7.711,9.233v43.645
	c0,2.75,2.25,5,5,5h12c2.75,0,5-2.25,5-5V120.12C69.5,117.37,63.44,112.265,61.654,110.854z"/>
</svg>
