<?xml version="1.0" encoding="utf-8"?>
<!-- (c) mapshakers 2015, Licence: CC0 1.0 Universal, www.mapshakers.com  -->
<!DOCTYPE svg PUBLIC "-//W3C//DTD SVG 1.1//EN" "http://www.w3.org/Graphics/SVG/1.1/DTD/svg11.dtd">
<svg version="1.1" id="mine" xmlns="http://www.w3.org/2000/svg" xmlns:xlink="http://www.w3.org/1999/xlink" x="0px" y="0px"
	 width="256px" height="256px" viewBox="0 0 256 256" style="enable-background:new 0 0 256 256;" xml:space="preserve">
<style type="text/css">
<![CDATA[
	.st0{fill:#464646;}
	.st1{fill:#D1D1D1;}
]]>
</style>
<path class="st1" d="M39.234,241.289c-4.747,0-9.214-1.854-12.581-5.221l-12.148-12.147c-3.429-3.43-5.282-7.981-5.218-12.817
	c0.064-4.834,2.037-9.336,5.556-12.672L138.046,81.555C108.549,57.073,84.241,50.96,69.622,47.283
	c-9.792-2.463-16.867-4.242-19.853-11.326c-1.21-2.873-1.938-7.529,1.474-13.395c1.42-2.442,3.807-4.169,6.571-4.755
	c0.474-0.1,11.774-2.458,27.327-2.458c20.704,0,38.776,4.003,53.714,11.897c8.752,4.624,18.371,11.673,31.194,22.857
	c0.159,0.139,0.313,0.282,0.462,0.429c0.031-0.026,0.063-0.052,0.096-0.078c3.215-2.595,7.281-4.024,11.449-4.024
	c4.883,0,9.453,1.884,12.875,5.304l3.536,3.539c6.597,6.594,7.146,17.051,1.281,24.322c-0.506,0.626-1.08,1.184-1.708,1.664
	c0.587,0.421,1.132,0.909,1.621,1.457c9.756,10.913,20.582,23.711,26.911,35.898c18.163,34.968,8.778,78.252,8.37,80.077
	c-0.604,2.699-2.297,5.026-4.68,6.432c-2.902,1.712-5.654,2.544-8.41,2.544l0,0c-3.309,0-9.379-1.235-12.881-9.517
	c-1.264-2.984-2.135-6.615-3.236-11.213c-3.735-15.571-9.978-41.59-38.072-72.98L52.142,235.732
	C48.792,239.266,44.088,241.289,39.234,241.289L39.234,241.289z"/>
<path class="st0" d="M185.046,83.743l-11.7,11.702c-0.951,0.951-2.219,1.474-3.568,1.474s-2.616-0.523-3.566-1.474l-10.885-10.886
	c-1.967-1.966-1.967-5.167,0-7.134l11.701-11.702c0.949-0.951,2.217-1.474,3.565-1.474s2.616,0.523,3.567,1.474l10.886,10.887
	C187.014,78.575,187.014,81.776,185.046,83.743z M146.939,87.394c-0.084-0.085-0.158-0.177-0.24-0.265L21.723,205.688
	c-3.192,3.027-3.258,8.052-0.147,11.162l12.148,12.148c3.111,3.111,8.134,3.045,11.162-0.146l118.59-125.012
	c-0.285-0.228-0.562-0.467-0.822-0.729L146.939,87.394z M191.396,62.342l-3.535-3.537c-2.959-2.958-7.764-3.159-10.973-0.569
	l15.077,15.079C194.557,70.105,194.354,65.3,191.396,62.342z M217.699,123.221c-5.506-10.601-15.045-22.156-25.492-33.842
	l-17.479,17.477c50.51,56.136,35.557,98.436,50.457,89.65C225.186,196.507,234.391,155.355,217.699,123.221z M145.969,75.147
	l17.508-17.508c-10.143-8.847-20.086-16.688-29.293-21.552c-32.747-17.304-74.295-8.498-74.295-8.498
	C51.449,42.1,91.216,28.837,145.969,75.147z"/>
</svg>
