<?xml version="1.0" encoding="utf-8"?>
<!-- (c) mapshakers 2015, Licence: CC0 1.0 Universal, www.mapshakers.com  -->
<!DOCTYPE svg PUBLIC "-//W3C//DTD SVG 1.1//EN" "http://www.w3.org/Graphics/SVG/1.1/DTD/svg11.dtd">
<svg version="1.1" id="nocamera" xmlns="http://www.w3.org/2000/svg" xmlns:xlink="http://www.w3.org/1999/xlink" x="0px" y="0px"
	 width="256px" height="256px" viewBox="0 0 256 256" style="enable-background:new 0 0 256 256;" xml:space="preserve">
<style type="text/css">
<![CDATA[
	.st0{fill:#464646;}
	.st1{fill:#D1D1D1;}
]]>
</style>
<path class="st1" d="M244.998,105.015c-0.016-0.12-0.035-0.237-0.055-0.356c-0.045-0.287-0.103-0.57-0.172-0.848
	c-0.028-0.118-0.057-0.235-0.09-0.351c-0.098-0.338-0.209-0.669-0.341-0.992c-0.016-0.037-0.026-0.075-0.041-0.112
	c-0.149-0.355-0.323-0.697-0.511-1.03c-0.02-0.032-0.031-0.068-0.051-0.1c0.02-0.032,0.031-0.068,0.051-0.101
	c0.188-0.332,0.359-0.672,0.509-1.025c0.019-0.042,0.029-0.085,0.046-0.126c0.129-0.318,0.239-0.644,0.336-0.977
	c0.033-0.117,0.063-0.236,0.092-0.354c0.067-0.277,0.125-0.559,0.17-0.846c0.02-0.119,0.041-0.236,0.055-0.356
	c0.049-0.398,0.081-0.801,0.081-1.212v-7.976c0-0.706-0.032-1.406-0.082-2.102c-0.009-0.123-0.017-0.245-0.024-0.368
	c-0.057-0.667-0.135-1.328-0.234-1.982c-0.019-0.125-0.039-0.248-0.061-0.371c-0.111-0.673-0.238-1.342-0.394-2.001
	c-0.007-0.024-0.013-0.048-0.019-0.072c-0.156-0.649-0.338-1.288-0.533-1.921c-0.033-0.104-0.063-0.209-0.098-0.313
	c-0.201-0.624-0.425-1.237-0.665-1.843c-0.046-0.115-0.094-0.229-0.141-0.343c-0.254-0.615-0.521-1.222-0.813-1.816
	c-0.021-0.043-0.045-0.084-0.065-0.127c-0.286-0.574-0.593-1.137-0.913-1.69c-0.051-0.087-0.1-0.175-0.15-0.262
	c-0.33-0.557-0.681-1.101-1.046-1.635c-0.071-0.104-0.146-0.208-0.217-0.311c-0.376-0.535-0.765-1.06-1.174-1.569
	c-0.043-0.053-0.089-0.104-0.132-0.157c-0.396-0.486-0.81-0.959-1.233-1.42c-0.063-0.068-0.123-0.137-0.187-0.204
	c-0.442-0.471-0.901-0.924-1.375-1.366c-0.096-0.089-0.19-0.178-0.287-0.267c-0.479-0.437-0.969-0.86-1.475-1.265
	c-0.068-0.056-0.142-0.108-0.212-0.164c-0.485-0.383-0.983-0.751-1.495-1.104c-0.07-0.049-0.14-0.1-0.209-0.148
	c-0.537-0.364-1.089-0.708-1.648-1.038c-0.118-0.069-0.235-0.137-0.354-0.205c-0.562-0.32-1.134-0.625-1.718-0.91
	c-0.096-0.046-0.193-0.089-0.29-0.135c-0.565-0.268-1.142-0.52-1.726-0.753c-0.051-0.02-0.099-0.044-0.148-0.064l10.072-10.072
	c0.359-0.36,0.697-0.736,1.017-1.125c0.071-0.087,0.132-0.181,0.2-0.269c0.24-0.309,0.479-0.62,0.691-0.943
	c0.045-0.066,0.08-0.136,0.121-0.203c0.228-0.354,0.444-0.712,0.64-1.083c0.015-0.027,0.024-0.055,0.039-0.082
	c0.877-1.689,1.428-3.536,1.608-5.462c0.006-0.044,0.004-0.089,0.008-0.133c0.037-0.433,0.063-0.867,0.063-1.307
	c0-0.477-0.025-0.949-0.068-1.418c0-0.007,0-0.014-0.002-0.021c-0.183-1.935-0.735-3.789-1.619-5.484
	c-0.01-0.02-0.018-0.041-0.027-0.06c-0.198-0.377-0.42-0.743-0.651-1.103c-0.038-0.06-0.069-0.123-0.108-0.182
	c-0.219-0.329-0.459-0.645-0.703-0.958c-0.065-0.083-0.122-0.172-0.189-0.255c-0.318-0.389-0.656-0.766-1.018-1.126l-7.063-7.061
	c-2.828-2.835-6.599-4.396-10.615-4.396c-0.502,0-0.998,0.024-1.489,0.072c-3.443,0.337-6.638,1.838-9.117,4.314l-34.701,34.699
	l-2.909-7.288c-3.328-8.34-12.611-14.629-21.593-14.629h-41.428c-8.979,0-18.261,6.288-21.592,14.627l-1.566,3.923
	c-2.828-2.519-6.553-4.05-10.628-4.05h-19.5c-6.322,0-11.8,3.686-14.396,9.021C23.421,58.877,10.58,72.093,10.58,88.252v7.978
	c0,0.412,0.032,0.815,0.081,1.213c0.014,0.12,0.035,0.236,0.054,0.354c0.045,0.288,0.103,0.572,0.172,0.852
	c0.029,0.116,0.056,0.232,0.089,0.348c0.098,0.341,0.211,0.675,0.344,1c0.014,0.034,0.023,0.069,0.037,0.102
	c0.149,0.356,0.323,0.698,0.512,1.032c0.018,0.032,0.03,0.067,0.049,0.099c-0.019,0.032-0.031,0.067-0.049,0.099
	c-0.188,0.333-0.362,0.676-0.512,1.032c-0.014,0.033-0.023,0.068-0.037,0.102c-0.133,0.325-0.246,0.66-0.344,1
	c-0.033,0.115-0.061,0.231-0.089,0.348c-0.07,0.28-0.127,0.563-0.172,0.852c-0.019,0.118-0.04,0.235-0.054,0.354
	c-0.049,0.398-0.081,0.802-0.081,1.213v80.021c0,8.69,3.741,16.865,10.3,22.587l-0.013,0.014l-0.899,0.898
	c-2.83,2.83-4.388,6.598-4.388,10.605c0,4.01,1.558,7.776,4.387,10.605l7.07,7.071c2.829,2.829,6.596,4.389,10.609,4.389
	c0.501,0,0.999-0.024,1.491-0.071c3.446-0.338,6.64-1.84,9.117-4.314l24.712-24.713c0.036,0.037,0.077,0.068,0.114,0.104
	c0.159,0.154,0.323,0.303,0.492,0.445c0.065,0.057,0.13,0.111,0.197,0.166c0.213,0.171,0.432,0.336,0.658,0.488
	c0.016,0.012,0.03,0.022,0.046,0.033c0.241,0.162,0.49,0.31,0.744,0.448c0.076,0.042,0.154,0.08,0.231,0.12
	c0.19,0.1,0.383,0.189,0.579,0.275c0.082,0.037,0.164,0.074,0.247,0.106c0.258,0.105,0.519,0.202,0.786,0.285
	c0.014,0.004,0.027,0.011,0.041,0.015c0.28,0.086,0.565,0.155,0.853,0.217c0.086,0.019,0.172,0.033,0.259,0.05
	c0.216,0.04,0.434,0.071,0.653,0.099c0.088,0.012,0.177,0.021,0.266,0.03c0.299,0.026,0.6,0.045,0.904,0.045H215.08
	c16.542,0,30-13.458,30-30v-80.021C245.079,105.816,245.047,105.413,244.998,105.015z"/>
<path class="st0" d="M103.402,169.241l-62.221,62.222c-0.973,0.973-2.254,1.458-3.536,1.458c-1.282,0-2.564-0.485-3.536-1.458
	l-7.071-7.072c-1.945-1.945-1.945-5.125,0-7.07l10.785-10.783h-0.001l40.303-40.305l0,0l14.846-14.846l0,0l45.826-45.827
	c0,0,0,0,0.001,0l14.513-14.512h-0.002l22.297-22.298h0.002l39.211-39.211c0.975-0.972,2.255-1.458,3.535-1.458
	c1.281,0,2.564,0.485,3.535,1.458l7.072,7.071c1.945,1.945,1.945,5.126,0,7.071L203.893,68.75l0,0l-8.168,8.169l-39.072,39.072
	c0,0,0,0,0,0.001L103.402,169.241C103.403,169.241,103.403,169.241,103.402,169.241z M125.621,104.594
	c-17.694,1.815-31.801,15.922-33.616,33.616L125.621,104.594z M129.495,179.773c20.78,0,37.688-16.907,37.688-37.688
	c0-6.487-1.648-12.599-4.551-17.935l-51.075,51.075C116.896,178.124,123.007,179.773,129.495,179.773z M27.974,202.241
	l46.345-46.345c-1.174-4.522-1.801-9.266-1.801-14.146c0-13.23,4.598-25.4,12.264-35.021H20.579v80.021
	C20.579,192.98,23.471,198.566,27.974,202.241z M180.057,106.729l-4.168,4.167c5.84,8.868,9.252,19.465,9.252,30.854
	c0,31.05-25.262,56.313-56.312,56.313c-11.389,0-21.991-3.41-30.861-9.246L80.035,206.75h135.044c11,0,20-9,20-20v-80.021H180.057z
	 M217.822,68.962l-27.766,27.766h45.021V88.75C235.079,78.683,227.533,70.313,217.822,68.962z M128.829,85.438
	c4.884,0,9.621,0.631,14.142,1.806l22.381-22.38l-4.502-11.278c-1.83-4.585-7.367-8.336-12.306-8.336h-41.428
	c-4.937,0-10.474,3.752-12.305,8.336l-4.923,12.328c-0.398,0.996-0.578,1.948-0.583,2.836h-9.976v-3c0-3.3-2.7-6-6-6h-19.5
	c-3.3,0-6,2.7-6,6v3h-7.25c-11,0-20,9-20,20v7.978h74.468C104.464,89.644,116.164,85.438,128.829,85.438z"/>
<path class="st0" d="M27.038,217.32l10.785-10.784h-0.001l40.303-40.304l0,0l14.846-14.847l0,0l45.826-45.827c0,0,0,0,0.001,0
	l14.513-14.512h-0.002l22.297-22.298h0.002l39.211-39.211c0.975-0.972,2.255-1.458,3.535-1.458c1.281,0,2.564,0.485,3.535,1.458
	l7.072,7.071c1.945,1.945,1.945,5.126,0,7.071l-25.068,25.07l0,0l-8.168,8.169l-39.072,39.072c0,0,0,0,0,0.001l-53.25,53.249
	c0.001,0,0.001,0,0,0l-62.221,62.222c-0.973,0.973-2.254,1.458-3.536,1.458c-1.282,0-2.564-0.485-3.536-1.458"/>
<path class="st0" d="M125.621,104.594c-17.694,1.815-31.801,15.922-33.616,33.616L125.621,104.594z"/>
<path class="st0" d="M129.495,179.773c20.78,0,37.688-16.907,37.688-37.688c0-6.487-1.648-12.599-4.551-17.935l-51.075,51.075
	C116.896,178.124,123.007,179.773,129.495,179.773z"/>
<path class="st0" d="M27.974,202.241l46.345-46.345c-1.174-4.522-1.801-9.266-1.801-14.146c0-13.23,4.598-25.4,12.264-35.021H20.579
	"/>
<path class="st0" d="M180.057,106.729l-4.168,4.167c5.84,8.868,9.252,19.465,9.252,30.854c0,31.05-25.262,56.313-56.312,56.313
	c-11.389,0-21.991-3.41-30.861-9.246L80.035,206.75h135.044c11,0,20-9,20-20v-80.021H180.057z"/>
<path class="st0" d="M217.822,68.962l-27.766,27.766h45.021V88.75C235.079,78.683,227.533,70.313,217.822,68.962z"/>
<path class="st0" d="M20.579,96.728h74.468c9.417-7.084,21.117-11.29,33.782-11.29c4.884,0,9.621,0.631,14.142,1.806l22.381-22.38
	l-4.502-11.278c-1.83-4.585-7.367-8.336-12.306-8.336h-41.428c-4.937,0-10.474,3.752-12.305,8.336l-4.923,12.328
	c-0.398,0.996-0.578,1.948-0.583,2.836h-9.976v-3c0-3.3-2.7-6-6-6h-19.5c-3.3,0-6,2.7-6,6v3h-7.25c-11,0-20,9-20,20"/>
</svg>
