<?xml version="1.0" encoding="utf-8"?>
<!-- (c) mapshakers 2015, Licence: CC0 1.0 Universal, www.mapshakers.com  -->
<!DOCTYPE svg PUBLIC "-//W3C//DTD SVG 1.1//EN" "http://www.w3.org/Graphics/SVG/1.1/DTD/svg11.dtd">
<svg version="1.1" id="nonsmoking" xmlns="http://www.w3.org/2000/svg" xmlns:xlink="http://www.w3.org/1999/xlink" x="0px" y="0px"
	 width="256px" height="256px" viewBox="0 0 256 256" style="enable-background:new 0 0 256 256;" xml:space="preserve">
<style type="text/css">
<![CDATA[
	.st0{fill:#464646;}
	.st1{fill:#D1D1D1;}
]]>
</style>
<path class="st1" d="M43.433,246.996c-4.016,0-7.784-1.561-10.612-4.393l-7.066-7.067c-2.827-2.822-4.387-6.591-4.387-10.603
	c0-0.492,0.023-0.979,0.069-1.461h-3.11c-7.083,0-12.844-5.763-12.844-12.845v-32.981c0-7.084,5.762-12.846,12.844-12.846h49.78
	c2.005,0,3.912,0.6,5.514,1.657l48.194-48.194c-7.682-1.64-15.473-3.417-23.126-5.626c-18.428-5.317-33.447-15.119-44.641-29.132
	c-5.14-6.438-9.262-14.096-12.604-23.415c-4.418-12.322-6.167-25.271-5.345-39.585c0.175-3.055,1.739-5.861,4.245-7.617
	c1.701-1.192,3.708-1.811,5.739-1.811c0.961,0,1.927,0.139,2.869,0.42c4.394,1.316,8.491,4.52,10.961,8.57l1.283,2.109
	c4.102,6.748,7.975,13.121,12.592,18.833c9.125,11.296,21.057,21.276,36.479,30.51c11.12,6.655,23.442,12.328,37.67,17.341
	c0.78,0.275,1.516,0.643,2.189,1.089l13.729-13.728c-13.722-9.523-28.357-16.822-43.559-21.714
	c-1.796-0.578-3.392-1.652-4.602-3.098c-1.809-2.113-2.696-4.612-2.643-7.434c0.049-2.864,1.292-5.647,3.409-7.621
	c0.382-0.356,0.792-0.682,1.225-0.974c2.579-1.74,5.71-2.586,9.573-2.586c0.554,0,1.088,0.017,1.58,0.039
	c0.765,0.034,1.313,0.076,2.379,0.221c22.026,3.005,41.232,8.91,57.087,17.55c0.25,0.137,0.493,0.283,0.729,0.438l24.501-24.501
	c2.831-2.83,6.598-4.387,10.605-4.387c4.016,0,7.783,1.56,10.611,4.392l7.066,7.065c5.847,5.848,5.848,15.362,0.005,21.21
	l-21.712,21.711c25.928,31.551,25.509,70.068,22.918,90.333c-0.102,0.797-0.297,1.565-0.574,2.296
	c2.902,2.211,4.775,5.669,4.775,9.549v30.848c0,6.659-5.518,12.078-12.297,12.078h-5.404c-1.143,0-2.248-0.154-3.299-0.441
	c-1.049,0.287-2.155,0.441-3.297,0.441h-5.404c-0.377,0-0.75-0.018-1.117-0.051c-1.949,1.194-4.241,1.885-6.689,1.885H80.349
	c-2.005,0-3.912-0.6-5.514-1.658L54.04,242.609C51.211,245.438,47.444,246.996,43.433,246.996z M208.771,164.802
	c-6.285-11.128-14.879-19.909-26.244-26.815c-4.385-2.666-9.021-5.018-14.172-7.188c-0.576-0.242-1.121-0.535-1.633-0.874
	l-34.877,34.877H208.771z"/>
<path class="st0" d="M225.23,178.714v30.847c0,1.146-1.032,2.078-2.297,2.078h-5.404c-1.264,0-2.297-0.936-2.297-2.078v-30.847
	c0-1.144,1.033-2.078,2.297-2.078h5.404C224.198,176.636,225.23,177.57,225.23,178.714z M234.934,176.636h-5.404
	c-1.264,0-2.297,0.935-2.297,2.078v30.847c0,1.145,1.033,2.078,2.297,2.078h5.404c1.267,0,2.297-0.935,2.297-2.078v-30.847
	C237.23,177.57,236.198,176.636,234.934,176.636z M18.326,174.802c-1.564,0-2.844,1.28-2.844,2.845v32.982
	c0,1.564,1.28,2.844,2.844,2.844h11.11l38.67-38.671H18.326z M209.723,174.802h-90.704L108.91,184.91h91.904
	c1.328,0,2.416,1.088,2.416,2.418v13.619c0,1.33-1.088,2.418-2.416,2.418H90.456l-10.107,10.107h129.374
	c1.564,0,2.844-1.279,2.844-2.848v-32.98C212.564,176.08,211.286,174.802,209.723,174.802z M61.861,77.266
	c10.344,12.95,23.917,21.24,39.599,25.765c10.203,2.944,20.677,5.099,31.138,7.279l12.016-12.015
	c-13.725-4.836-26.961-10.699-39.483-18.193c-14.771-8.844-28.187-19.269-39.12-32.804C60.461,40.433,56,32.864,51.374,25.277
	c-1.389-2.278-3.594-3.688-5.293-4.197c-0.708,12.337,0.681,24.221,4.775,35.637C53.547,64.22,56.995,71.172,61.861,77.266z
	 M186.064,114.255c-1.381-0.811-2.785-1.566-4.203-2.297l-9.623,9.625c5.313,2.238,10.488,4.82,15.482,7.856
	c12.723,7.731,22.922,18.015,30.229,31.289c0.869,1.582,1.686,3.207,2.502,4.875c0.16-0.457,0.344-0.91,0.574-1.362
	c0.203-0.397,0.43-0.779,0.646-1.171c-1.829-6.09-4.149-11.959-7.019-17.577C207.926,132.316,198.663,121.654,186.064,114.255z
	 M233.111,165.602c2.146-16.793,3.406-54.025-21.385-83.509l-12.15,12.151c2.291,2.581,4.191,4.936,5.662,6.957
	c14.486,19.892,24.632,45.093,26.462,62.619C232.213,164.37,232.682,164.968,233.111,165.602z M172.682,70.226l10.838-10.838
	c-13.893-7.571-31.461-13.395-53.649-16.422c-0.746-0.102-0.988-0.118-1.479-0.14c-1.566-0.07-3.732-0.084-5.111,0.847
	c-0.115,0.107-0.226,0.294-0.229,0.493c-0.01,0.52,0.122,0.595,0.311,0.825C142.775,51.24,159.389,60.595,172.682,70.226z
	 M97.597,184.91L97.597,184.91l10.108-10.108l0,0l56.359-56.36l0,0l10.067-10.068l0,0l60.616-60.617
	c1.941-1.944,1.941-5.126-0.001-7.07l-7.072-7.071c-0.972-0.973-2.254-1.458-3.534-1.458c-1.281,0-2.563,0.486-3.535,1.458
	L79.421,174.802H79.42l-36.615,36.616l-9.979,9.979c-1.945,1.943-1.945,5.127,0,7.069l7.071,7.072
	c0.972,0.974,2.254,1.458,3.536,1.458c1.282,0,2.563-0.485,3.536-1.458l22.065-22.065h0.001l10.216-10.217l0,0L97.597,184.91z"/>
</svg>
