<?xml version="1.0" encoding="utf-8"?>
<!-- (c) mapshakers 2015, Licence: CC0 1.0 Universal, www.mapshakers.com  -->
<!DOCTYPE svg PUBLIC "-//W3C//DTD SVG 1.1//EN" "http://www.w3.org/Graphics/SVG/1.1/DTD/svg11.dtd">
<svg version="1.1" id="north_alt_II" xmlns="http://www.w3.org/2000/svg" xmlns:xlink="http://www.w3.org/1999/xlink" x="0px" y="0px"
	 width="256px" height="256px" viewBox="0 0 256 256" style="enable-background:new 0 0 256 256;" xml:space="preserve">
<style type="text/css">
<![CDATA[
	.st0{fill:#464646;}
	.st1{fill:#D1D1D1;}
]]>
</style>
<path class="st1" d="M189.749,116.256l-49.992-98.682c-2.213-4.369-6.233-6.977-10.757-6.977c-4.523,0-8.544,2.608-10.757,6.976
	l-49.989,98.682c-2.056,4.061-1.944,8.664,0.298,12.313c2.137,3.478,5.919,5.619,10.207,5.814c-1.941,2.022-3.135,4.768-3.135,7.785
	v93.913c0,6.204,5.048,11.252,11.254,11.252h24.412c6.206,0,11.254-5.048,11.254-11.252v-16.058l12.246,20.326
	c0.469,0.773,0.826,1.368,1.101,1.834c1.797,3.051,5.073,4.922,8.614,4.922l26.617,0.004c6.205,0,11.253-5.049,11.253-11.258
	v-93.908c0-2.911-1.111-5.569-2.934-7.569c4.203-0.252,7.899-2.38,10.004-5.801C191.689,124.927,191.807,120.325,189.749,116.256z"
	/>
<path class="st0" d="M130.836,22.093c-1.01-1.994-2.662-1.994-3.672,0l-49.988,98.68c-1.01,1.994-0.008,3.625,2.227,3.625
	l41.593,0.002c2.235,0,5.892,0,8.127,0H178.6c2.234,0,3.236-1.631,2.229-3.625L130.836,22.093z M118.469,193.881l24.872,41.284
	c0.497,0.819,0.875,1.45,1.165,1.942c0.596,0,1.365,0.004,2.203,0.004h24.414c0.68,0,1.253-0.575,1.253-1.258v-93.908
	c0-0.682-0.573-1.254-1.253-1.254h-24.414c-0.678,0-1.252,0.572-1.252,1.254v40.953c0,3.634-2.379,3.816-2.855,3.816
	c-1.168,0-2.199-0.729-3.068-2.172l-24.872-41.286c-0.608-1.009-1.039-1.741-1.349-2.298c-0.488-0.021-1.166-0.045-2.019-0.045
	H86.879c-0.68,0-1.254,0.574-1.254,1.254v93.913c0,0.685,0.574,1.252,1.254,1.252h24.412c0.679,0,1.254-0.567,1.254-1.252v-40.558
	c0-3.633,2.377-3.816,2.854-3.816C116.568,191.71,117.6,192.439,118.469,193.881z"/>
</svg>
