<?xml version="1.0" encoding="utf-8"?>
<!-- (c) mapshakers 2015, Licence: CC0 1.0 Universal, www.mapshakers.com  -->
<!DOCTYPE svg PUBLIC "-//W3C//DTD SVG 1.1//EN" "http://www.w3.org/Graphics/SVG/1.1/DTD/svg11.dtd">
<svg version="1.1" id="north" xmlns="http://www.w3.org/2000/svg" xmlns:xlink="http://www.w3.org/1999/xlink" x="0px" y="0px"
	 width="256px" height="256px" viewBox="0 0 256 256" style="enable-background:new 0 0 256 256;" xml:space="preserve">
<style type="text/css">
<![CDATA[
	.st0{fill:#464646;}
	.st1{fill:#D1D1D1;}
]]>
</style>
<path class="st1" d="M127.999,251.85c-3.502,0-6.856-1.236-9.443-3.482l-47.535-41.465c-5.14-4.481-6.497-12.348-3.153-18.295
	l45.042-80.13c-0.054,0-21.183,0.001-21.183,0.001c-6.109,0-11.079-4.97-11.079-11.079V16.53c0-6.109,4.97-11.08,11.079-11.08
	h21.021c0.945,0,1.697,0.024,2.238,0.051c3.445,0.172,6.559,2.108,8.237,5.122c0.226,0.405,0.545,0.944,0.99,1.683l7.956,13.205
	v-9.176c0-6.109,4.97-11.079,11.079-11.079h21.021c6.109,0,11.08,4.97,11.08,11.079v80.867c0,6.11-4.971,11.081-11.08,11.081H142.98
	l45.149,80.328c3.343,5.943,1.986,13.809-3.155,18.293l-47.517,41.447C134.854,250.613,131.501,251.85,127.999,251.85z"/>
<path class="st0" d="M118.93,61.057l21.419,35.55c0.426,0.708,0.752,1.25,1.002,1.672c0.512,0.002,1.178,0.004,1.896,0.004h21.021
	c0.584,0,1.08-0.495,1.08-1.081V16.335c0-0.585-0.496-1.079-1.08-1.079h-21.021c-0.586,0-1.079,0.494-1.079,1.079v35.264
	c0,3.131-2.048,3.289-2.458,3.289c-1.007,0-1.896-0.629-2.645-1.871l-21.418-35.551c-0.522-0.867-0.896-1.501-1.161-1.978
	c-0.42-0.021-1.005-0.039-1.739-0.039h-21.02c-0.585,0-1.079,0.495-1.079,1.08v80.868c0,0.585,0.494,1.079,1.079,1.079h21.021
	c0.585,0,1.08-0.494,1.08-1.079V62.475c0-3.13,2.047-3.289,2.458-3.289C117.292,59.187,118.182,59.816,118.93,61.057z
	 M179.414,193.51l-49.537-88.132c-1.031-1.836-2.722-1.836-3.754,0l-49.538,88.13c-1.033,1.838-0.579,4.473,1.01,5.857
	l47.518,41.449c1.588,1.379,4.186,1.379,5.774,0l47.518-41.447C179.991,197.982,180.447,195.348,179.414,193.51z M128,219.521
	c-0.648,0-1.297-0.213-1.788-0.643l-29.419-25.662c-0.983-0.857-1.264-2.49-0.625-3.627l30.67-54.564
	c0.319-0.568,0.74-0.854,1.162-0.854V219.521z"/>
</svg>
