<?xml version="1.0" encoding="utf-8"?>
<!-- (c) mapshakers 2015, Licence: CC0 1.0 Universal, www.mapshakers.com  -->
<!DOCTYPE svg PUBLIC "-//W3C//DTD SVG 1.1//EN" "http://www.w3.org/Graphics/SVG/1.1/DTD/svg11.dtd">
<svg version="1.1" id="north_alt" xmlns="http://www.w3.org/2000/svg" xmlns:xlink="http://www.w3.org/1999/xlink" x="0px" y="0px"
	 width="256px" height="256px" viewBox="0 0 256 256" style="enable-background:new 0 0 256 256;" xml:space="preserve">
<style type="text/css">
<![CDATA[
	.st0{fill:#464646;}
	.st1{fill:#D1D1D1;}
]]>
</style>
<path class="st1" d="M197.982,223.17l-58.836-104.668c-0.279-0.5-0.586-0.973-0.914-1.423l1.744,0.004h20.002
	c6.08,0,11.026-4.947,11.026-11.028V29.111c0-6.081-4.946-11.027-11.026-11.027h-20.002c-6.08,0-11.027,4.947-11.027,11.027v6.984
	l-6.669-11.071c-0.419-0.695-0.72-1.203-0.933-1.585c-1.679-3.013-4.791-4.948-8.236-5.121c-0.521-0.026-1.245-0.049-2.155-0.049
	H90.955c-6.081,0-11.027,4.947-11.027,11.027v76.945c0,6.08,4.947,11.027,11.027,11.027h20.001l7.002-0.018L58.419,223.168
	c-3.286,5.842-1.346,10.396-0.359,12.084c1.95,3.336,5.479,5.326,9.44,5.326c1.847,0,3.757-0.441,5.677-1.311l51.361-23.281
	c0.11-0.019,0.3-0.039,0.542-0.039c0.17,0,0.306,0.012,0.391,0.021l58.041,23.619c1.776,0.724,3.54,1.09,5.245,1.09c0,0,0,0,0.002,0
	c4.015,0,7.587-2.01,9.558-5.372C199.311,233.607,201.27,229.027,197.982,223.17z"/>
<path class="st0" d="M130.229,123.436c-1.227-2.182-3.232-2.182-4.461,0L66.935,228.105c-1.227,2.182-0.365,3.121,1.915,2.088
	l51.593-23.385c2.279-1.033,6.041-1.106,8.359-0.164l58.277,23.715c2.317,0.943,3.211-0.07,1.985-2.254L130.229,123.436z"/>
<path class="st0" d="M116.637,71.698l20.38,33.826c0.404,0.673,0.717,1.188,0.953,1.59c0.487,0.002,1.12,0.004,1.805,0.004h20.004
	c0.557,0,1.027-0.471,1.027-1.028V29.146c0-0.557-0.472-1.027-1.027-1.027h-20.004c-0.555,0-1.025,0.471-1.025,1.027v33.553
	c0,2.979-1.948,3.13-2.338,3.13c-0.958,0-1.803-0.599-2.518-1.78l-20.378-33.826c-0.498-0.825-0.852-1.429-1.104-1.882
	c-0.4-0.02-0.956-0.036-1.655-0.036H90.754c-0.557,0-1.027,0.47-1.027,1.027v76.945c0,0.557,0.471,1.027,1.027,1.027h20.001
	c0.557,0,1.027-0.47,1.027-1.027V73.048c0-2.979,1.948-3.129,2.338-3.129C115.079,69.918,115.925,70.518,116.637,71.698z"/>
</svg>
