<?xml version="1.0" encoding="utf-8"?>
<!-- (c) mapshakers 2015, Licence: CC0 1.0 Universal, www.mapshakers.com  -->
<!DOCTYPE svg PUBLIC "-//W3C//DTD SVG 1.1//EN" "http://www.w3.org/Graphics/SVG/1.1/DTD/svg11.dtd">
<svg version="1.1" id="pharmacy" xmlns="http://www.w3.org/2000/svg" xmlns:xlink="http://www.w3.org/1999/xlink" x="0px" y="0px"
	 width="256px" height="256px" viewBox="0 0 256 256" style="enable-background:new 0 0 256 256;" xml:space="preserve">
<style type="text/css">
<![CDATA[
	.st0{fill:#D1D1D1;}
	.st1{fill:#454545;}
]]>
</style>
<path class="st0" d="M106.612,250.517c-6.295,0-12.222-2.461-16.692-6.93c-4.471-4.47-6.933-10.397-6.933-16.693l-0.001-8.654
	l-17.74,12.248c-3.951,2.728-8.582,4.17-13.391,4.17c-7.789,0-15.069-3.81-19.474-10.189l-21.505-31.149
	c-3.577-5.18-4.919-11.457-3.78-17.676c1.139-6.218,4.62-11.611,9.8-15.188l33.73-23.288l-33.731-23.288
	c-10.721-7.403-13.42-22.146-6.019-32.865l21.504-31.146c4.404-6.38,11.685-10.189,19.474-10.189c4.809,0,9.439,1.442,13.391,4.17
	l17.723,12.235l0-11.621c-0.001-13.026,10.595-23.626,23.623-23.627l37.85-0.004c13.026-0.001,23.625,10.596,23.627,23.623
	l0.001,11.632l17.727-12.238c3.951-2.728,8.582-4.17,13.391-4.17c7.789,0,15.069,3.809,19.474,10.189l21.503,31.147
	c3.577,5.179,4.92,11.457,3.781,17.675c-1.139,6.217-4.619,11.612-9.8,15.189l-33.731,23.288l33.731,23.288
	c5.181,3.576,8.661,8.97,9.8,15.188c1.139,6.218-0.204,12.496-3.782,17.676l-21.502,31.147c-4.404,6.381-11.685,10.19-19.474,10.19
	c0,0,0.001,0,0,0c-4.809,0-9.439-1.442-13.391-4.17l-17.709-12.227l0.001,8.625c0.002,6.295-2.459,12.225-6.93,16.694
	c-4.47,4.47-10.397,6.932-16.693,6.933l-37.849,0.004C106.615,250.517,106.613,250.517,106.612,250.517z"/>
<path class="st1" d="M228.462,168.685l-34.438-23.776c-6.166-4.257-6.166-11.224,0-15.481l34.438-23.777
	c6.167-4.258,7.729-12.788,3.471-18.954L210.43,55.549c-4.257-6.167-12.786-7.729-18.953-3.471l-22.193,15.321
	c-6.167,4.258-11.212,1.61-11.215-5.884l-0.001-17.059c-0.001-7.494-6.132-13.625-13.626-13.624l-37.849,0.004
	c-7.494,0.001-13.625,6.133-13.624,13.627l0.001,17.053c0.001,7.495-5.044,10.142-11.21,5.884L59.564,52.078
	c-6.167-4.258-14.696-2.695-18.954,3.471L19.106,86.696c-4.258,6.167-2.695,14.696,3.472,18.954l34.438,23.777
	c6.167,4.258,6.167,11.225,0,15.481l-34.438,23.776c-6.167,4.257-7.729,12.786-3.472,18.952l21.504,31.149
	c4.258,6.167,12.787,7.729,18.954,3.472l22.207-15.332c6.167-4.259,11.213-1.61,11.213,5.884l0.002,14.083
	c0,7.494,6.133,13.625,13.627,13.624l37.849-0.004c7.494-0.001,13.626-6.132,13.624-13.626l-0.002-14.058
	c-0.001-7.494,5.045-10.143,11.212-5.884l22.18,15.313c6.167,4.258,14.696,2.695,18.953-3.472l21.503-31.149
	C236.191,181.471,234.629,172.941,228.462,168.685z M136.707,214.929c0,4.889-3.963,8.851-8.851,8.851
	c-4.292,0-7.868-3.055-8.677-7.107l17.528-5.566V214.929z M118.232,213.063c-1.597,0.734-3.273,1.081-4.922,1.081
	c-4.468,0.001-8.741-2.548-10.729-6.873c-2.723-5.922-0.129-12.93,5.792-15.652c3.919-1.803,7.448-3.504,10.634-5.108V154.18
	c-0.197-0.069-0.411-0.145-0.602-0.211c-21.441-7.488-41.693-14.563-41.853-31.625c-0.122-13.03,11.839-23.953,42.455-37.363V62.302
	c0-4.888,3.963-8.851,8.851-8.851s8.851,3.962,8.851,8.851V77.73c2.786-1.076,5.675-2.17,8.685-3.285
	c6.104-2.263,12.9,0.854,15.165,6.967c2.265,6.111-0.854,12.901-6.966,15.166c-6.353,2.353-11.94,4.536-16.884,6.562v0.126
	l-17.701,7.891V111c-10.361,5.074-15.164,8.55-17.374,10.609c3.682,2.364,10.831,5.164,17.374,7.535v-13.702l17.701-3.356v23.35
	c0.001,0,0.001,0.001,0.003,0.001v25.405c-0.002,0-0.002-0.001-0.003-0.001v15.637c7.487-4.948,10.096-8.068,10.973-9.447
	c-0.996-1.059-2.767-2.211-5.004-3.392l-2.897-27.039c16.811,6.497,31.15,14.502,31.846,29.128
	C172.376,181.566,156.907,195.28,118.232,213.063z"/>
</svg>
