<?xml version="1.0" encoding="utf-8"?>
<!-- (c) mapshakers 2015, Licence: CC0 1.0 Universal, www.mapshakers.com  -->
<!DOCTYPE svg PUBLIC "-//W3C//DTD SVG 1.1//EN" "http://www.w3.org/Graphics/SVG/1.1/DTD/svg11.dtd">
<svg version="1.1" id="pinterest" xmlns="http://www.w3.org/2000/svg" xmlns:xlink="http://www.w3.org/1999/xlink" x="0px" y="0px"
	 width="256px" height="256px" viewBox="0 0 256 256" style="enable-background:new 0 0 256 256;" xml:space="preserve">
<style type="text/css">
<![CDATA[
	.st0{fill:#464646;}
	.st1{fill:#D1D1D1;}
]]>
</style>
<circle class="st1" cx="128.339" cy="128.538" r="124.462"/>
<path class="st0" d="M128.339,15.076c-62.663,0-113.462,50.799-113.462,113.462c0,44.959,26.151,83.81,64.071,102.173
	c0.141-4.016,0.455-8.036,0.954-12.021c0.35-2.785,1.222-5.504,1.839-8.256c0.52-2.328,0.971-4.674,1.522-6.992
	c0.882-3.717,1.841-7.416,2.729-11.131c0.567-2.369,1.042-4.76,1.601-7.129c0.546-2.313,1.176-4.603,1.718-6.914
	c0.692-2.949,1.313-5.914,2.002-8.861c0.575-2.447,1.22-4.877,1.808-7.319c0.399-1.657,0.742-3.33,1.135-4.989
	c0.405-1.714,0.851-3.418,1.259-5.134c0.36-1.517,0.896-3.03,0.965-4.563c0.043-0.979-0.64-1.986-0.964-2.991
	c-0.436-1.351-0.931-2.688-1.235-4.069c-0.514-2.322-1.053-4.656-1.295-7.015c-0.248-2.431-0.359-4.913-0.155-7.34
	c0.245-2.933,0.848-5.84,1.364-8.746c0.728-4.101,2.598-7.733,4.955-11.089c2.508-3.57,5.705-6.341,9.845-8.008
	c4.429-1.783,8.886-1.901,13.316-0.375c3.886,1.338,6.576,4.129,8.221,7.908c1.379,3.171,2.043,6.538,1.782,9.932
	c-0.267,3.477-1.022,6.922-1.674,10.361c-0.398,2.112-0.935,4.205-1.526,6.272c-0.841,2.934-1.8,5.83-2.691,8.75
	c-0.71,2.326-1.4,4.658-2.085,6.992c-0.582,1.98-1.21,3.951-1.701,5.957c-0.81,3.315-1.936,6.604-1.504,10.101
	c0.932,7.546,4.831,12.801,11.98,15.636c5.025,1.994,10.091,1.815,15.128,0.373c5.131-1.471,9.379-4.461,13.091-8.277
	c4.833-4.967,8.279-10.824,10.908-17.149c1.424-3.427,2.462-7.031,3.449-10.617c0.85-3.073,1.468-6.22,2.021-9.362
	c0.448-2.541,0.801-5.117,0.924-7.69c0.242-5.03,0.456-10.073,0.358-15.104c-0.05-2.507-0.638-5.049-1.3-7.489
	c-0.782-2.88-1.723-5.749-2.918-8.479c-3.285-7.494-8.584-13.324-15.479-17.661c-4.012-2.524-8.301-4.511-12.963-5.561
	c-2.273-0.513-4.572-0.919-6.854-1.411c-4.937-1.064-9.939-1.08-14.932-0.784c-2.977,0.177-5.944,0.712-8.881,1.27
	c-2.509,0.476-5.014,1.077-7.438,1.872c-2.514,0.825-5.014,1.782-7.365,2.985c-2.727,1.396-5.342,3.04-7.906,4.727
	c-3.546,2.333-6.57,5.265-9.41,8.423c-3.927,4.367-6.963,9.295-9.381,14.596c-1.071,2.346-1.696,4.894-2.543,7.343
	c-1.328,3.843-1.957,7.834-2.28,11.854c-0.344,4.277-0.376,8.594,0.473,12.82c1.185,5.897,3.391,11.385,7.543,15.875
	c2.121,2.295,2.239,4.797,1.373,7.588c-0.522,1.684-0.864,3.42-1.323,5.125c-0.401,1.494-0.786,3-1.299,4.459
	c-0.747,2.119-3.128,3.158-5.553,2.175c-3.005-1.22-5.771-2.793-8.323-4.765c-3.472-2.683-6.288-5.957-8.613-9.664
	c-2.032-3.235-3.698-6.68-4.765-10.32c-1.075-3.672-1.756-7.463-2.474-11.229c-0.974-5.113-0.802-10.298-0.522-15.451
	c0.149-2.767,0.727-5.522,1.255-8.255c0.44-2.266,0.941-4.543,1.684-6.724c1.029-3.021,2.188-6.013,3.506-8.92
	c3.201-7.06,7.507-13.401,12.7-19.162c5.877-6.519,12.678-11.878,20.356-16.067c3.536-1.928,7.296-3.461,11.011-5.04
	c4.54-1.929,9.311-3.181,14.138-4.098c4.003-0.761,8.065-1.337,12.127-1.624c5.015-0.354,10.06-0.5,15.083-0.392
	c3.176,0.068,6.351,0.691,9.502,1.204c2.479,0.403,4.947,0.922,7.377,1.565c2.729,0.724,5.48,1.462,8.088,2.523
	c3.42,1.39,6.781,2.965,10.035,4.707c4.592,2.458,8.785,5.516,12.725,8.952c3.996,3.484,7.497,7.396,10.611,11.651
	c3.211,4.388,5.938,9.082,7.809,14.211c1.205,3.308,2.266,6.669,3.341,10.023c0.274,0.859,0.401,1.773,0.517,2.672
	c0.213,1.698,0.465,3.398,0.531,5.104c0.172,4.456,0.402,8.919,0.319,13.374c-0.062,3.333-0.453,6.674-0.921,9.983
	c-0.46,3.259-1.045,6.52-1.859,9.705c-0.908,3.559-2.146,7.031-3.228,10.546c-1.306,4.242-3.232,8.209-5.317,12.108
	c-3.326,6.227-7.459,11.861-12.474,16.824c-4.048,4.006-8.5,7.522-13.638,10.029c-3.174,1.551-6.433,2.982-9.772,4.114
	c-2.817,0.954-5.781,1.567-8.728,2.021c-3.104,0.476-6.263,0.807-9.396,0.801c-6.878-0.012-13.335-1.818-19.287-5.299
	c-3.883-2.271-7.247-5.125-9.64-9.007c-0.052-0.085-0.172-0.128-0.519-0.372c-0.336,1.256-0.646,2.393-0.945,3.53
	c-0.592,2.254-1.188,4.508-1.766,6.767c-0.358,1.4-0.67,2.813-1.03,4.215c-0.627,2.432-1.296,4.851-1.91,7.285
	c-0.544,2.164-0.991,4.353-1.566,6.508c-1.16,4.347-2.248,8.718-4.167,12.817c-1.29,2.755-2.362,5.63-3.856,8.269
	c-0.221,0.391-0.449,0.775-0.672,1.166c9.691,2.693,19.901,4.139,30.45,4.139c62.663,0,113.463-50.799,113.463-113.462
	S191.002,15.076,128.339,15.076z"/>
</svg>
