<?xml version="1.0" encoding="utf-8"?>
<!-- (c) mapshakers 2015, Licence: CC0 1.0 Universal, www.mapshakers.com  -->
<!DOCTYPE svg PUBLIC "-//W3C//DTD SVG 1.1//EN" "http://www.w3.org/Graphics/SVG/1.1/DTD/svg11.dtd">
<svg version="1.1" id="post_office" xmlns="http://www.w3.org/2000/svg" xmlns:xlink="http://www.w3.org/1999/xlink" x="0px"
	 y="0px" width="256px" height="256px" viewBox="0 0 256 256" style="enable-background:new 0 0 256 256;" xml:space="preserve">
<style type="text/css">
<![CDATA[
	.st0{fill:#D1D1D1;}
	.st1{fill:#454545;}
]]>
</style>
<path class="st0" d="M249.543,195.132c0,8.373-7.114,15.225-15.806,15.225H20.683c-8.693,0-15.807-6.852-15.807-15.225V70.35
	c0-8.374,7.113-15.225,15.807-15.225h213.055c8.691,0,15.806,6.851,15.806,15.225V195.132z"/>
<g>
	<g>
		<path class="st1" d="M215.118,199.697c5.299,0,6.47-2.964,2.604-6.587l-49.189-46.092c-3.866-3.623-10.382-3.837-14.479-0.477
			l-13.285,10.899c-4.097,3.36-9.224,7.095-11.393,8.297c0,0,0,0-2.166,0c-2.168,0-2.168,0-2.168,0
			c-2.168-1.202-7.294-4.937-11.391-8.297l-13.846-11.359c-4.097-3.36-10.612-3.146-14.478,0.477L35.649,193.11
			c-3.866,3.623-2.694,6.587,2.604,6.587H215.118z"/>
	</g>
	<g>
		<path class="st1" d="M40.761,65.785c-5.298,0-6.282,2.75-2.186,6.11l81.187,66.6c4.097,3.36,10.8,3.36,14.896,0l81.185-66.6
			c4.097-3.361,3.113-6.11-2.186-6.11H40.761z"/>
	</g>
	<g>
		<path class="st1" d="M15.938,178.182c0,5.299,3.164,6.67,7.03,3.047l48.837-45.761c3.867-3.623,3.679-9.336-0.418-12.697
			L23.386,83.394c-4.097-3.361-7.448-1.775-7.448,3.523V178.182z"/>
	</g>
	<g>
		<path class="st1" d="M238.481,86.917c0-5.298-3.352-6.884-7.448-3.523l-48.561,39.836c-4.097,3.361-4.285,9.074-0.418,12.697
			l49.396,46.285c3.867,3.623,7.03,2.252,7.03-3.047V86.917z"/>
	</g>
</g>
</svg>
