<?xml version="1.0" encoding="utf-8"?>
<!-- (c) mapshakers 2015, Licence: CC0 1.0 Universal, www.mapshakers.com  -->
<!DOCTYPE svg PUBLIC "-//W3C//DTD SVG 1.1//EN" "http://www.w3.org/Graphics/SVG/1.1/DTD/svg11.dtd">
<svg version="1.1" id="ruins" xmlns="http://www.w3.org/2000/svg" xmlns:xlink="http://www.w3.org/1999/xlink" x="0px" y="0px"
	 width="256px" height="256px" viewBox="0 0 256 256" style="enable-background:new 0 0 256 256;" xml:space="preserve">
<style type="text/css">
<![CDATA[
	.st0{fill:#D1D1D1;}
	.st1{fill:#454545;}
]]>
</style>
<path class="st0" d="M171.762,234.229c-2.674,0-5.235-1.07-7.114-2.973s-2.918-4.478-2.885-7.15
	c0.244-19.819-2.767-31.968-5.667-34.868c-4.387-4.388-11.915-7.824-17.139-7.824c-1.811,0-3.118,0.39-3.886,1.157
	c-2.309,2.309-5.313,15.472-3.547,40.967c0.191,2.766-0.773,5.487-2.665,7.514c-1.891,2.027-4.539,3.178-7.311,3.178H40.886
	c-3.207,0-6.313-0.229-8.746-0.645c-10.157-1.734-11.254-8.314-11.254-11.063V104.476c0-3.274-2.029-9.257-4.02-11.856l-2.223-2.901
	C9.925,83.559,6.5,73.457,6.5,65.698V42.105c0-11.028,8.208-20,18.296-20c7.855,0,12.943,6.554,15.712,13.245
	c1.979-7.587,9.437-13.245,18.308-13.245c8.02,0,13.296,6.804,16.169,13.629c1.869-7.788,9.399-13.629,18.378-13.629
	c13.035,0,18.823,17.774,18.823,24.529c0,0.194,0.037,0.417,0.089,0.626c0.526,0.519,1.001,1.098,1.415,1.732
	c2.068,3.172,2.8,7.318-0.35,17.221c6.431,2.854,12.902,8.97,15.601,14.818c3.161,6.854,4.056,11.595,2.753,15.362
	c-0.122,1.165-0.257,3.255-0.351,5.299c0.76,0.031,1.481,0.066,2.119,0.103c6.6,0.382,9.598,5.786,11.024,9.881
	c0.559-2.191,1.633-4.348,3.695-6.409c2.635-2.631,5.784-3.91,9.63-3.91c0.598,0,1.287,0.034,2.112,0.083
	c0.828,0.05,1.685,0.101,2.812,0.101c11.97,0,17.817,15.208,18.677,22.962c0.012,0.009,0.022,0.018,0.034,0.027
	c3.426,0.451,6.494,2.136,8.608,4.776c2.414,3.013,3.307,6.938,2.45,10.768c-0.188,0.89-0.65,4.799-0.982,9.675l9.345-3.397
	c2.142-0.779,4.372-1.174,6.629-1.174c5.024,0,9.77,1.998,13.019,5.481c3.09,3.312,4.614,7.68,4.292,12.301
	c-0.303,4.353-2.751,12.689-4.203,17.329c0.625,2.739,1.917,6.568,3.15,9.285c0.119-0.053,0.235-0.104,0.346-0.153
	c3.438-1.521,6.993-3.095,10.856-3.095c5.995,0,10.837,3.924,12.05,9.764l0.211,1.021c1.104,5.317,1.9,9.111,2.003,9.572
	l-0.085,0.02c0.35,1.627,0.354,3.209,0.357,4.457c0.004,1.395,0.007,3.315,0.007,5.428c0,9.728-8.972,17.641-20,17.641H171.762z"/>
<path class="st1" d="M188.531,111.542c-0.058,0-0.104,0.141-0.104,0.312c0,0.172,0.047,0.414,0.104,0.156
	S188.589,111.542,188.531,111.542z"/>
<path class="st1" d="M239.479,208.938c-0.012-0.006-0.936-4.417-2.054-9.802l-0.209-1.012c-1.118-5.385-11.66,3.083-16.466,2.751
	s-9.785-15.828-10.417-21.292c0,0,4.188-12.854,4.499-17.316c0.382-5.487-5.378-8.396-10.546-6.517l-14.205,5.166
	c-5.168,1.879-9.147-1.076-8.843-6.567l0.164-2.938c0.305-5.491,0.91-11.575,1.345-13.519s-1.02-3.511-3.231-3.482
	c-2.211,0.028-7.99-3.994-7.99-8.064c0-4.071-3.955-14.803-8.789-14.803c-4.833,0-5.926-0.757-7.486,0.801
	c-1.287,1.286-1.371,2.532-1.371,6.514s-2.545,14.704-5.654,14.981s-11.245-3.701-11.245-7.609s-1.843-14.319-4.095-14.45
	c-2.251-0.13-5.796-0.237-7.876-0.237c-2.081,0-3.783-2.56-3.783-5.689s0.408-11.911,0.906-12.561s-0.523-4.282-2.271-8.071
	c-1.748-3.789-6.707-8.313-11.02-10.055s-6.585-7.109-5.048-11.928c1.537-4.818,2.132-8.833,1.323-8.919
	c-0.809-0.087-2.93-3.69-2.93-7.685s-3.971-14.529-8.823-14.529s-8.823,3.331-8.823,7.402c0,4.071-2.545,15.03-5.655,15.307
	c-3.11,0.277-11.246-3.834-11.246-7.905s-3.97-14.804-8.823-14.804s-8.823,3.269-8.823,7.265s-2.544,14.755-5.655,15.032
	c-3.11,0.277-11.246-3.772-11.246-7.767s-3.733-14.529-8.296-14.529c-4.563,0-8.296,4.5-8.296,10v23.593
	c0,5.5,2.737,13.572,6.082,17.938l2.223,2.901c3.345,4.366,6.082,12.438,6.082,17.938c0,0,0,19.728,0,34.591
	c0,27.25,0,71.747,0,71.747c0,5.5,0,10.769,0,11.708s4.5,1.708,10,1.708h42.577c5.5,0,14.5,0,20,0h4.704c5.5,0,10.438,0,10.974,0
	c0.209,0,1.091,0,2.408,0c-0.918-13.25-1.711-40.567,6.452-48.729c8.721-8.721,26.446-2.054,35.167,6.667
	c7.919,7.919,8.739,30.349,8.595,42.063h25.492c5.5,0,11.405,0,13.123,0s7.623,0,13.123,0h6c5.5,0,10-3.438,10-7.641
	S239.49,208.943,239.479,208.938z M89.602,184.022c0,5.5-4.5,10-10,10h-3.96c-5.5,0-10-4.5-10-10v-12.771
	c0-5.5,1.839-14.107,4.087-19.127c0,0,1.277-2.852,7.894-2.852c6.616,0,7.893,2.852,7.893,2.852
	c2.248,5.02,4.086,13.627,4.086,19.127V184.022z M89.602,118.167c0,5.5-4.5,10-10,10h-3.96c-5.5,0-10-4.5-10-10v-12.771
	c0-5.5,1.839-14.107,4.086-19.127c0,0,1.277-2.853,7.894-2.853c6.616,0,7.894,2.853,7.894,2.853
	c2.248,5.02,4.086,13.627,4.086,19.127V118.167z M200.88,207.738l-0.382,0.958c-2.033,5.11-4.925,6.624-6.426,3.362
	c-1.501-3.261-5.975-7.728-9.941-9.926c-3.966-2.198-4.031-7.182-0.146-11.073l1.661-1.664c3.886-3.892,9.732-3.451,12.991,0.979
	l0.013,0.018C201.909,194.821,202.913,202.628,200.88,207.738z"/>
</svg>
