<?xml version="1.0" encoding="utf-8"?>
<!-- (c) mapshakers 2015, Licence: CC0 1.0 Universal, www.mapshakers.com  -->
<!DOCTYPE svg PUBLIC "-//W3C//DTD SVG 1.1//EN" "http://www.w3.org/Graphics/SVG/1.1/DTD/svg11.dtd">
<svg version="1.1" id="saddle" xmlns="http://www.w3.org/2000/svg" xmlns:xlink="http://www.w3.org/1999/xlink" x="0px" y="0px"
	 width="256px" height="256px" viewBox="0 0 256 256" style="enable-background:new 0 0 256 256;" xml:space="preserve">
<style type="text/css">
<![CDATA[
	.st0{fill:#D1D1D1;}
	.st1{fill:#454545;}
]]>
</style>
<g>
	<path class="st0" d="M203.455,226.564c-2.893,0-5.822-0.951-8.473-2.75c-2.359-1.603-57.771-39.844-57.771-93.011
		s55.413-91.406,57.771-93.008c2.649-1.799,5.579-2.75,8.473-2.75c7.347,0,12.894,5.767,13.19,13.713l0.299,7.994
		c0.258,6.918-3.433,15.134-8.775,19.537c-0.274,0.228-28.958,24.414-28.958,54.515c0,30.103,28.685,54.289,28.975,54.529
		c5.327,4.391,9.017,12.606,8.759,19.524l-0.299,7.995C216.349,220.798,210.802,226.564,203.455,226.564z"/>
</g>
<g>
	<path class="st0" d="M55.018,226.544c-7.322,0-12.855-5.756-13.157-13.685l-0.305-7.994c-0.262-6.881,3.369-15.096,8.634-19.534
		c0.265-0.226,28.226-24.357,28.226-54.526s-27.96-54.301-28.243-54.541c-5.248-4.423-8.879-12.638-8.617-19.519l0.304-7.994
		c0.302-7.93,5.835-13.686,13.158-13.686c2.919,0,5.873,0.972,8.54,2.81c2.322,1.601,56.858,39.811,56.858,92.929
		c0,53.118-54.536,91.328-56.857,92.929C60.892,225.572,57.938,226.544,55.018,226.544z"/>
</g>
<g>
	<path class="st0" d="M27.5,155.305c-13.233,0-24-10.99-24-24.5s10.767-24.5,24-24.5s24,10.99,24,24.5S40.733,155.305,27.5,155.305z
		"/>
</g>
<g>
	<path class="st0" d="M230,155.305c-13.233,0-24-10.99-24-24.5c0-13.509,10.767-24.5,24-24.5s24,10.991,24,24.5
		C254,144.314,243.233,155.305,230,155.305z"/>
</g>
<g>
	<path class="st1" d="M206.652,212.479c-0.144,3.848-2.867,5.226-6.053,3.063c0,0-53.389-36.256-53.389-84.737
		c0-48.481,53.39-84.735,53.39-84.735c3.185-2.163,5.908-0.785,6.052,3.063l0.299,7.994c0.144,3.847-2.171,8.998-5.142,11.446
		c0,0-32.599,26.855-32.599,62.232c0,35.378,32.6,62.234,32.6,62.234c2.971,2.448,5.284,7.599,5.141,11.446L206.652,212.479z"/>
</g>
<g>
	<path class="st1" d="M57.883,215.5c-3.17,2.186-5.883,0.826-6.029-3.021l-0.305-7.994c-0.146-3.848,2.142-9.025,5.086-11.507
		c0,0,31.781-26.792,31.781-62.173c0-35.381-31.781-62.173-31.781-62.173c-2.944-2.481-5.232-7.659-5.086-11.507l0.304-7.994
		c0.146-3.848,2.859-5.207,6.029-3.022c0,0,52.534,36.218,52.534,84.696C110.416,179.281,57.883,215.5,57.883,215.5z"/>
</g>
<g>
	<path class="st1" d="M27.5,145.305c-7.72,0-14-6.505-14-14.5s6.28-14.5,14-14.5s14,6.505,14,14.5S35.22,145.305,27.5,145.305z"/>
</g>
<g>
	<path class="st1" d="M230,145.305c-7.72,0-14-6.505-14-14.5s6.28-14.5,14-14.5s14,6.505,14,14.5S237.72,145.305,230,145.305z"/>
</g>
</svg>
