<?xml version="1.0" encoding="utf-8"?>
<!-- (c) mapshakers 2015, Licence: CC0 1.0 Universal, www.mapshakers.com  -->
<!DOCTYPE svg PUBLIC "-//W3C//DTD SVG 1.1//EN" "http://www.w3.org/Graphics/SVG/1.1/DTD/svg11.dtd">
<svg version="1.1" id="school" xmlns="http://www.w3.org/2000/svg" xmlns:xlink="http://www.w3.org/1999/xlink" x="0px" y="0px"
	 width="256px" height="256px" viewBox="0 0 256 256" style="enable-background:new 0 0 256 256;" xml:space="preserve">
<style type="text/css">
<![CDATA[
	.st0{fill:#464646;}
	.st1{fill:#D1D1D1;}
]]>
</style>
<path class="st1" d="M208.525,88.463c4.998-17.362-0.194-49.09-0.816-52.725c-0.48-2.812-2.139-5.284-4.559-6.795
	c-1.604-1.003-3.442-1.52-5.299-1.52c-0.939,0-1.885,0.133-2.806,0.401c-0.399,0.117-8.784,2.58-19.267,6.552
	c-14.01-7.708-31.106-11.911-48.739-11.911c-17.649,0-34.758,4.209-48.773,11.93c-10.505-3.983-18.916-6.453-19.317-6.57
	c-0.92-0.269-1.865-0.401-2.805-0.401c-1.856,0-3.695,0.517-5.3,1.52c-2.418,1.511-4.077,3.983-4.557,6.794
	c-0.631,3.694-5.896,35.9-0.672,53.194c1.318,11.168,6.695,21.781,15.438,30.693c-14.562,23.001-13.113,58.693-11.128,70.785
	c0.591,3.602,1.58,9.629,6.97,12.297c1.7,0.84,3.534,1.266,5.452,1.266c2.532,0,4.676-0.738,6.59-1.594
	c3.897,9.68,9.525,18.294,16.579,25.314c0.681,10.299,6.734,17.584,14.9,17.584c2.426,0,4.655-0.662,6.624-1.836
	c1.968,1.174,4.197,1.836,6.623,1.836c1.329,0,2.593-0.215,3.796-0.582c0.181,0.041,0.358,0.095,0.543,0.125
	c3.024,0.498,6.063,0.75,9.03,0.75c3.171,0,6.389-0.282,9.563-0.84c0.113-0.021,0.221-0.058,0.332-0.08
	c1.246,0.396,2.561,0.627,3.941,0.627c2.426,0,4.654-0.662,6.624-1.836c1.968,1.174,4.196,1.836,6.623,1.836
	c8.286,0,14.389-7.508,14.916-18.049c6.09-6.189,11.129-13.65,14.856-21.961c1.701,0.694,3.588,1.238,5.76,1.238
	c1.922,0,3.76-0.428,5.457-1.27c5.095-2.52,6.295-7.828,7.086-13.049c1.982-13.063,3.05-47.866-11.434-70.35
	C201.005,112.385,207.197,100.838,208.525,88.463z"/>
<circle class="st0" cx="95.012" cy="83.46" r="12.514"/>
<circle class="st0" cx="160.311" cy="83.46" r="12.513"/>
<path class="st0" d="M132.523,225.743c0,3.641,0.881,6.834,2.345,9.137c-2.56,0.449-5.173,0.688-7.834,0.688
	c-2.513,0-4.985-0.219-7.407-0.616c1.488-2.31,2.384-5.533,2.384-9.209c0-0.304-0.015-0.601-0.027-0.898
	c1.646,0.397,3.332,0.604,5.05,0.604c1.882,0,3.726-0.26,5.521-0.734C132.539,225.055,132.523,225.395,132.523,225.743z
	 M176.465,120.409l0.225-0.086c21.979,20.917,16.85,74.532,13.983,75.95c-2.299,1.139-5.354-2.187-12.549-4.168
	c-3.3,11.119-9.013,20.848-16.37,28.268c-1.27-4.527-4.133-7.543-7.637-7.543c-2.762,0-5.123,1.877-6.623,4.885
	c-0.364-0.729-0.773-1.398-1.232-1.982c8.135-9.205,13.424-24.09,13.424-40.897c0-27.953-14.619-32.172-32.651-32.172
	c-18.033,0-32.652,4.219-32.652,32.172c0,16.987,5.404,32.008,13.686,41.188c-0.376,0.514-0.713,1.09-1.021,1.705
	c-1.501-3.016-3.864-4.896-6.629-4.896c-3.594,0-6.518,3.17-7.735,7.891c-8.165-8.084-14.355-18.977-17.532-31.475
	c-8.119,1.912-11.393,5.695-13.823,4.494c-2.841-1.406-7.9-54.086,13.414-75.384C63.7,110.006,56.579,99.015,55.453,86.854
	c-5.189-15.027,0.693-49.431,0.693-49.431s10.773,3.149,23.024,8.055c12.7-8.088,29.474-13.013,47.871-13.013
	c18.381,0,35.143,4.916,47.838,12.992c12.23-4.894,22.975-8.034,22.975-8.034s5.793,33.877,0.813,49.083
	C197.561,99.833,189.25,111.775,176.465,120.409z M121.071,83.459c0-14.392-11.667-26.059-26.059-26.059
	c-14.392,0-26.059,11.667-26.059,26.059c0,14.393,11.666,26.06,26.059,26.06C109.404,109.519,121.071,97.852,121.071,83.459z
	 M137.986,113.345l-7.121-6.2c-2.102-1.83-5.543-1.83-7.645,0l-7.122,6.2c-2.103,1.83-2.456,5.153-0.785,7.384l8.69,11.604
	c1.671,2.229,4.406,2.229,6.077,0l8.689-11.604C140.439,118.498,140.088,115.174,137.986,113.345z M186.172,83.459
	c0-14.392-11.668-26.059-26.061-26.059c-14.391,0-26.06,11.667-26.06,26.059c0,14.393,11.669,26.06,26.06,26.06
	C174.504,109.519,186.172,97.852,186.172,83.459z M113.664,216.211c-2.744,0-4.968,4.268-4.968,9.533
	c0,5.265,2.225,9.533,4.968,9.533s4.968-4.269,4.968-9.533C118.632,220.479,116.408,216.211,113.664,216.211z M100.417,216.211
	c-2.744,0-4.968,4.268-4.968,9.533c0,5.265,2.224,9.533,4.968,9.533s4.968-4.269,4.968-9.533
	C105.385,220.479,103.161,216.211,100.417,216.211z M154.117,216.211c-2.744,0-4.969,4.268-4.969,9.533
	c0,5.265,2.225,9.533,4.969,9.533s4.968-4.269,4.968-9.533C159.085,220.479,156.861,216.211,154.117,216.211z M140.87,216.211
	c-2.743,0-4.968,4.268-4.968,9.533c0,5.265,2.225,9.533,4.968,9.533s4.968-4.269,4.968-9.533
	C145.838,220.479,143.613,216.211,140.87,216.211z"/>
</svg>
