<?xml version="1.0" encoding="utf-8"?>
<!-- (c) mapshakers 2015, Licence: CC0 1.0 Universal, www.mapshakers.com  -->
<!DOCTYPE svg PUBLIC "-//W3C//DTD SVG 1.1//EN" "http://www.w3.org/Graphics/SVG/1.1/DTD/svg11.dtd">
<svg version="1.1" id="seal" xmlns="http://www.w3.org/2000/svg" xmlns:xlink="http://www.w3.org/1999/xlink" x="0px" y="0px"
	 width="256px" height="256px" viewBox="0 0 256 256" style="enable-background:new 0 0 256 256;" xml:space="preserve">
<style type="text/css">
<![CDATA[
	.st0{fill:#474747;}
	.st1{fill:#D1D1D1;}
]]>
</style>
<path class="st1" d="M117.699,234.643c-6.837,0-10.74-1.611-13.052-5.392c-3.641-5.987-0.303-11.069,4.202-16.718
	c-7.927-0.883-15.429-1.701-22.816-1.701c-2.601,0-4.986,0.102-7.293,0.311c-4.337,0.392-9.306,2.771-14.567,5.291
	c-2.695,1.291-5.482,2.627-8.393,3.797c-1.464,0.59-2.947,1.246-4.517,1.94c-3.385,1.497-6.884,3.046-10.786,4.187l-7.509,2.193
	c-0.22,0.063-0.443,0.121-0.667,0.17c-2.265,0.495-4.488,0.746-6.607,0.746c-6.574,0-12.047-2.398-15.411-6.752
	c-3.027-3.919-3.958-8.902-2.619-14.031c0.663-2.541,2.3-4.721,4.558-6.064l4.452-2.652c8.586-5.115,16.379-12.109,24.525-22.008
	c11.605-14.104,27.471-23.498,48.501-28.715c7.997-1.985,17.404-4.395,26.535-7.203c10.936-3.366,19.4-10.314,25.875-21.243
	c2.652-4.473,5.596-8.63,8.439-12.651c1.924-2.716,3.739-5.282,5.449-7.909c8.26-12.69,20.523-20.042,37.494-22.47
	c0.717-0.103,1.435-0.21,2.154-0.322c-4.344-5.136-6.963-11.772-6.963-19.009c0-16.257,13.227-29.484,29.483-29.484
	S247.65,42.18,247.65,58.437c0,12.813-8.215,23.743-19.654,27.8c0.316,2.034,0.199,4.197-0.368,6.401
	c-1.633,6.324-4.683,12.636-8.815,18.257c-2.238,3.047-4.912,5.196-7.271,7.093c-1.529,1.231-3.113,2.503-3.719,3.417
	c-2.999,4.528-5.584,10.061-7.475,16c-4.816,15.138-8.291,27.578-10.93,39.15c-1.421,6.229-1.539,8.836-1.545,9.422
	c0.04,0.34,0.063,0.681,0.066,1.021c0.055,3.648,4.543,8.059,7.514,10.979c3.382,3.321,8.492,8.342,5.617,15.365
	c-1.053,2.575-3.98,6.895-11.745,6.895c-0.001,0-0.002,0-0.003,0c-3.381,0-8.721-0.703-19.047-2.51
	c-1.465-0.256-2.854-0.834-4.064-1.694c-0.016-0.011-1.913-1.353-6.195-4.193c-0.566-0.376-1.05-0.685-1.457-0.938
	c-0.078,0.111-0.158,0.23-0.242,0.355c-7.721,11.532-18.611,18.835-33.292,22.326l-2.89,0.688c-0.44,0.104-0.886,0.18-1.336,0.225
	C119.795,234.593,118.752,234.643,117.699,234.643z"/>
<path class="st0" d="M218.168,38.952c10.762,0,19.484,8.723,19.484,19.484s-8.726,19.484-19.484,19.484s-19.484-8.723-19.484-19.484
	S207.407,38.952,218.168,38.952z M211.18,84.763c-5.4,1.084-10.82,2.124-16.271,2.903c-12.688,1.816-23.308,6.929-30.531,18.028
	c-4.437,6.813-9.526,13.22-13.665,20.201c-7.416,12.516-17.623,21.419-31.538,25.703c-8.933,2.748-17.995,5.1-27.068,7.353
	c-16.928,4.198-31.931,11.683-43.188,25.362c-7.82,9.502-16.406,17.854-27.128,24.244c-4.452,2.652-4.452,2.652-4.452,2.652
	c-1.605,6.15,4.167,9.635,12.826,7.742c0,0,0,0,7.505-2.191c4.936-1.443,9.58-3.877,14.378-5.807
	c8.574-3.449,16.973-8.975,25.793-9.771c12.712-1.146,25.773,0.781,38.611,2.123c7.658,0.801,8.561,3.905,3.925,10.453
	c-2.366,3.344-2.366,3.344-2.366,3.344c-2.843,3.51-5.017,6.629-4.833,6.933c0.185,0.302,3.359,0.832,6.642,0.509
	c0,0,0,0,2.892-0.688c11.302-2.688,20.521-8.041,27.297-18.162c5.097-7.61,8.087-7.129,15.534-2.188
	c4.52,2.997,6.457,4.372,6.457,4.372c40.75,7.125,6.211-2.482,5.943-20.73c0,0-0.596-2.631,1.727-12.813
	c3.072-13.472,6.958-26.787,11.15-39.961c2.054-6.452,4.938-12.862,8.666-18.488c2.818-4.255,8.216-6.755,11.271-10.913
	c3.22-4.377,5.835-9.586,7.188-14.827C219.079,85.742,215.748,83.845,211.18,84.763z M188.637,105.672
	c-2.736,0-4.953-2.217-4.953-4.953c0-2.735,2.217-4.953,4.953-4.953c2.735,0,4.953,2.218,4.953,4.953
	C193.59,103.455,191.372,105.672,188.637,105.672z"/>
</svg>
