<?xml version="1.0" encoding="utf-8"?>
<!-- (c) mapshakers 2015, Licence: CC0 1.0 Universal, www.mapshakers.com  -->
<!DOCTYPE svg PUBLIC "-//W3C//DTD SVG 1.1//EN" "http://www.w3.org/Graphics/SVG/1.1/DTD/svg11.dtd">
<svg version="1.1" id="shelter" xmlns="http://www.w3.org/2000/svg" xmlns:xlink="http://www.w3.org/1999/xlink" x="0px"
	 y="0px" width="256px" height="256px" viewBox="0 0 256 256" style="enable-background:new 0 0 256 256;" xml:space="preserve">
<style type="text/css">
<![CDATA[
	.st0{fill:#D1D1D1;}
	.st1{fill:#454545;}
]]>
</style>
<path class="st0" d="M150.195,129.774c1.251-2.984,1.947-6.277,1.947-9.734c0-13.462-10.533-24.415-23.479-24.415
	s-23.479,10.952-23.479,24.415c0,3.457,0.694,6.746,1.945,9.729c-7.339,2.205-12.72,9.223-12.72,17.515v44.222
	c0,6.95,5.495,12.396,12.51,12.396c0.049,0,0.098,0,0.146-0.001v22.122c0,10.724,8.419,19.447,18.767,19.447h0.735
	c0.92,0,1.825-0.143,2.687-0.417c0.849,0.271,1.754,0.417,2.693,0.417h0.121c10.35,0,18.769-8.724,18.769-19.447v-22.371
	c2.926-0.044,5.72-1.075,7.887-2.916c2.704-2.296,4.193-5.574,4.193-9.23v-44.222C162.917,139.077,157.611,131.994,150.195,129.774z
	"/>
<path class="st0" d="M236.559,97.815l-93.902-71.814c-3.993-3.057-8.963-4.74-13.993-4.74s-10,1.683-13.991,4.736L20.768,97.816
	c-10.085,7.714-12.016,22.197-4.302,32.286c4.393,5.743,11.063,9.037,18.299,9.037c0.855,0,1.7-0.063,2.539-0.154v87.766
	c0,10.675,8.685,19.359,19.36,19.359s19.36-8.685,19.36-19.359V120.476c0-2.315-0.811-4.498-2.203-6.239
	c16.32-13.026,36.89-29.233,49.403-38.305c0.004-0.002,0.008-0.005,0.012-0.007c0.134-0.087,0.266-0.177,0.396-0.271
	c1.337-0.96,3.116-1.489,5.009-1.489c1.859,0,3.611,0.506,4.934,1.424c0.174,0.121,0.352,0.236,0.532,0.346
	c12.466,9.032,33.061,25.259,49.401,38.303c-1.393,1.741-2.203,3.924-2.203,6.239V226.75c0,10.675,8.685,19.359,19.359,19.359
	s19.359-8.685,19.359-19.359v-87.766c0.838,0.091,1.682,0.154,2.537,0.154c7.233,0,13.903-3.294,18.303-9.042
	C248.573,120.011,246.643,105.53,236.559,97.815z"/>
<path class="st1" d="M143.274,120.04c0-8.572-6.555-15.547-14.611-15.547c-8.056,0-14.611,6.974-14.611,15.547
	c0,8.574,6.553,15.548,14.611,15.548C136.72,135.588,143.274,128.614,143.274,120.04z M146.337,137.99
	c-0.149-0.043-0.305-0.074-0.477-0.074h-5.682c-3.279,2.563-7.245,4.068-11.516,4.068c-4.271,0-8.238-1.505-11.516-4.068h-5.106
	c-4.84,0-8.763,4.195-8.763,9.367v44.222c0,4.657,7.235,4.755,7.235-0.012l0.111-34.617c0-1.477,1.197-2.674,2.674-2.674
	c1.477,0,2.674,1.197,2.674,2.674v44.017c0,0.131-0.02,0.256-0.038,0.382v24.748c0,5.843,4.433,10.579,9.899,10.579h0.735
	l-0.066-41.336c-0.003-1.484,1.199-2.691,2.686-2.693c0.001,0,0.002,0,0.004,0c1.483,0,2.688,1.201,2.689,2.686l0.067,41.344h0.121
	c5.468,0,9.9-4.736,9.9-10.579v-25.15h0.011v-43.918c0-1.477,1.198-2.674,2.674-2.674c1.477,0,2.675,1.197,2.675,2.674
	l-0.069,34.761c0,4.046,6.79,4.211,6.79-0.21v-44.222C154.049,142.491,150.681,138.548,146.337,137.99z"/>
<path class="st1" d="M232.918,124.023c-2.489,3.252-6.264,5.116-10.358,5.116c-2.881,0-5.615-0.929-7.908-2.682
	c0,0-51.82-42.115-75.121-58.941c-0.084-0.061-0.168-0.092-0.252-0.14c-2.885-2.004-6.592-3.211-10.639-3.211
	c-4.146,0-7.928,1.273-10.843,3.367c-0.036,0.023-0.071,0.034-0.106,0.06c-23.352,16.877-75.018,58.866-75.018,58.866
	c-2.292,1.753-5.027,2.681-7.908,2.681c-4.096,0-7.871-1.863-10.356-5.113c-4.364-5.708-3.272-13.902,2.435-18.267l93.904-71.818
	c2.26-1.729,5.07-2.68,7.916-2.68s5.656,0.952,7.915,2.681l93.905,71.817C236.188,110.123,237.281,118.316,232.918,124.023z"/>
<path class="st1" d="M48.979,134.219c-0.076,0.062-0.153,0.123-0.231,0.183c-0.471,0.359-0.954,0.695-1.445,1.016v91.333
	c0,5.169,4.19,9.359,9.36,9.359s9.36-4.19,9.36-9.359V120.476C56.139,128.404,49.168,134.065,48.979,134.219z"/>
<path class="st1" d="M208.578,134.401c-0.079-0.061-0.157-0.121-0.233-0.184c-0.188-0.153-7.16-5.816-17.041-13.742V226.75
	c0,5.169,4.19,9.359,9.359,9.359s9.359-4.19,9.359-9.359v-91.333C209.532,135.097,209.049,134.761,208.578,134.401z"/>
</svg>
