<?xml version="1.0" encoding="utf-8"?>
<!-- (c) mapshakers 2015, Licence: CC0 1.0 Universal, www.mapshakers.com  -->
<!DOCTYPE svg PUBLIC "-//W3C//DTD SVG 1.1//EN" "http://www.w3.org/Graphics/SVG/1.1/DTD/svg11.dtd">
<svg version="1.1" id="skype" xmlns="http://www.w3.org/2000/svg" xmlns:xlink="http://www.w3.org/1999/xlink" x="0px" y="0px"
	 width="256px" height="256px" viewBox="0 0 256 256" style="enable-background:new 0 0 256 256;" xml:space="preserve">
<style type="text/css">
<![CDATA[
	.st0{fill:#464646;}
	.st1{fill:#D1D1D1;}
]]>
</style>
<path class="st1" d="M176.946,242.423c-9.913,0-19.479-2.116-28.487-6.296c-5.655,0.853-11.163,1.283-16.414,1.283
	c-29.634,0-55.341-10.682-76.409-31.749s-31.75-46.846-31.75-76.617c0-5.958,0.482-11.983,1.434-17.957
	c-4.834-9.601-7.282-19.842-7.282-30.495c0-18.408,6.606-34.349,19.636-47.378c13.031-13.03,28.971-19.636,47.378-19.636
	c11.416,0,22.234,2.792,32.214,8.307c4.585-0.663,9.538-0.998,14.777-0.998c29.771,0,55.549,10.682,76.616,31.75
	s31.749,46.775,31.749,76.408c0,6.455-0.629,13.141-1.872,19.916c3.601,8.573,5.423,17.454,5.423,26.448
	c0,18.408-6.607,34.349-19.638,47.378C211.294,235.816,195.354,242.423,176.946,242.423z"/>
<path class="st0" d="M28.039,80.592c0-15.733,5.569-29.168,16.708-40.307c11.139-11.138,24.574-16.708,40.307-16.708
	c10.86,0,20.954,2.924,30.283,8.771c5.012-0.975,10.582-1.462,16.708-1.462c27.149,0,50.331,9.607,69.545,28.821
	s28.82,42.326,28.82,69.336c0,6.822-0.766,13.854-2.297,21.094c3.898,8.215,5.848,16.638,5.848,25.271
	c0,15.732-5.569,29.169-16.708,40.307c-11.139,11.139-24.574,16.708-40.307,16.708c-9.468,0-18.448-2.228-26.941-6.683
	c-6.266,1.113-12.252,1.67-17.96,1.67c-27.012,0-50.124-9.606-69.337-28.82s-28.821-42.396-28.821-69.546
	c0-6.544,0.626-13.087,1.879-19.631C30.615,100.363,28.039,90.756,28.039,80.592z M74.194,157.029
	c0,5.709,2.088,11.626,6.266,17.752c9.885,14.48,27.01,21.72,51.376,21.72c6.961,0,13.679-0.766,20.153-2.297
	c6.474-1.531,12.565-3.898,18.273-7.101c5.709-3.202,10.304-7.623,13.784-13.262s5.221-12.218,5.221-19.736
	c0-8.075-2.054-14.897-6.16-20.467c-4.107-5.569-9.225-9.607-15.351-12.113c-6.126-2.506-12.774-4.769-19.944-6.788
	c-7.171-2.019-13.819-3.62-19.945-4.803c-6.126-1.184-11.243-2.994-15.35-5.43s-6.161-5.534-6.161-9.293
	c0-4.595,2.541-8.006,7.623-10.234c5.082-2.228,10.268-3.341,15.559-3.341c5.569,0,10.164,0.87,13.784,2.611
	c3.619,1.74,6.265,3.829,7.936,6.265s3.133,4.873,4.386,7.31s2.959,4.525,5.117,6.266c2.158,1.74,4.907,2.61,8.249,2.61
	c3.76,0,7.066-1.323,9.92-3.968c2.854-2.645,4.281-5.848,4.281-9.607c0-3.759-1.044-7.518-3.132-11.277
	c-4.178-7.658-10.791-13.227-19.841-16.708c-9.05-3.481-18.657-5.221-28.82-5.221c-6.405,0-12.601,0.626-18.587,1.879
	c-5.987,1.253-11.765,3.272-17.334,6.057s-10.06,6.718-13.47,11.8c-3.412,5.082-5.117,11.104-5.117,18.065
	c0,9.189,2.784,16.604,8.354,22.242c5.569,5.638,12.322,9.607,20.258,11.904c7.936,2.298,15.907,4.281,23.913,5.952
	s14.793,4.003,20.362,6.997c5.569,2.993,8.354,7.065,8.354,12.217c0,4.038-1.602,7.449-4.804,10.233
	c-3.202,2.785-6.718,4.664-10.547,5.64c-3.829,0.975-7.763,1.461-11.8,1.461c-5.291,0-9.781-0.73-13.471-2.192
	s-6.37-3.342-8.041-5.639c-1.67-2.298-3.237-4.734-4.699-7.31c-1.462-2.576-2.715-5.013-3.759-7.31
	c-1.044-2.298-2.611-4.177-4.699-5.639s-4.665-2.193-7.727-2.193c-3.899,0-7.275,1.184-10.129,3.551
	C75.621,149.998,74.194,153.131,74.194,157.029z"/>
</svg>
