<?xml version="1.0" encoding="utf-8"?>
<!-- (c) mapshakers 2015, Licence: CC0 1.0 Universal, www.mapshakers.com  -->
<!DOCTYPE svg PUBLIC "-//W3C//DTD SVG 1.1//EN" "http://www.w3.org/Graphics/SVG/1.1/DTD/svg11.dtd">
<svg version="1.1" id="smartphone" xmlns="http://www.w3.org/2000/svg" xmlns:xlink="http://www.w3.org/1999/xlink" x="0px"
	 y="0px" width="256px" height="256px" viewBox="0 0 256 256" style="enable-background:new 0 0 256 256;" xml:space="preserve">
<style type="text/css">
<![CDATA[
	.st0{fill:#464646;}
	.st1{fill:#D1D1D1;}
]]>
</style>
<path class="st1" d="M177.242,7H85.737C71.821,7,60.5,18.321,60.5,32.237v194.525C60.5,240.68,71.821,252,85.737,252h91.505
	c13.916,0,25.236-11.32,25.236-25.236V32.237C202.479,18.321,191.158,7,177.242,7z"/>
<path class="st0" d="M177.242,17H85.737C77.356,17,70.5,23.856,70.5,32.237v194.525c0,8.381,6.856,15.237,15.237,15.237h91.505
	c8.381,0,15.236-6.856,15.236-15.237V32.237C192.479,23.856,185.623,17,177.242,17z M107.228,31.333h48.524
	c2.368,0,4.307,1.725,4.307,3.833s-1.938,3.833-4.307,3.833h-48.524c-2.368,0-4.306-1.725-4.306-3.833
	C102.922,33.059,104.859,31.333,107.228,31.333z M133.984,231.5h-4.988c-4.758,0-8.616-4.253-8.616-9.5s3.858-9.5,8.616-9.5h4.988
	c4.758,0,8.615,4.253,8.615,9.5S138.742,231.5,133.984,231.5z M182.813,200.786c0,2.593-2.121,4.714-4.713,4.714H84.881
	c-2.592,0-4.713-2.121-4.713-4.714V54.713c0-2.592,2.121-4.713,4.713-4.713H178.1c2.592,0,4.713,2.121,4.713,4.713V200.786z"/>
</svg>
