<?xml version="1.0" encoding="utf-8"?>
<!-- (c) mapshakers 2015, Licence: CC0 1.0 Universal, www.mapshakers.com  -->
<!DOCTYPE svg PUBLIC "-//W3C//DTD SVG 1.1//EN" "http://www.w3.org/Graphics/SVG/1.1/DTD/svg11.dtd">
<svg version="1.1" id="sport_centre" xmlns="http://www.w3.org/2000/svg" xmlns:xlink="http://www.w3.org/1999/xlink" x="0px"
	 y="0px" width="256px" height="256px" viewBox="0 0 256 256" style="enable-background:new 0 0 256 256;" xml:space="preserve">
<style type="text/css">
<![CDATA[
	.st0{fill:#D1D1D1;}
	.st1{fill:#454545;}
]]>
</style>
<path class="st0" d="M44.052,216.585c46.289,46.289,121.606,46.29,167.896,0c46.289-46.288,46.289-121.606,0-167.895
	C165.66,2.401,90.343,2.401,44.053,48.69C-2.236,94.979-2.236,170.297,44.052,216.585z"/>
<g>
	<path class="st1" d="M164.811,83.255L139.006,71.64c-5.016-2.257-12.145-0.773-15.842,3.299l-19.027,20.954
		c-3.697,4.072-4.489,11.31-1.758,16.084l14.049,24.565c2.73,4.774,9.37,7.765,14.753,6.642l27.709-5.77
		c5.385-1.122,10.278-6.514,10.877-11.98l3.075-28.133C173.439,91.833,169.826,85.513,164.811,83.255z"/>
	<path class="st1" d="M204.876,55.762c-42.39-42.39-111.363-42.39-153.753,0c-42.39,42.389-42.39,111.362,0,153.751
		c42.39,42.392,111.363,42.392,153.753,0.002C247.266,167.125,247.268,98.152,204.876,55.762z M185.746,183.621
		c-0.303-0.512-0.51-0.813-0.549-0.766c-0.082,0.1-2.467-3.592-5.104-8.418l-0.103-0.188c-2.638-4.826-9.22-7.942-14.624-6.929
		l-21.26,3.998c-5.405,1.017-10.403,6.312-11.107,11.767l-2.036,15.795c-0.704,5.455-1.411,9.919-1.573,9.92
		c-0.067,0-0.203,0.308-0.348,0.802c-19.07,0.258-38.202-6.492-53.173-20.271c0.19-0.276,0.322-0.49,0.308-0.502
		c-0.017-0.015,2.906-3.438,6.534-7.572l10.355-11.801c3.628-4.134,4.298-11.384,1.487-16.112l-11.053-18.598
		c-2.81-4.729-9.498-7.605-14.862-6.394l-7.299,1.649c-5.364,1.212-9.747,1.953-9.739,1.647c0.002-0.063-0.221-0.112-0.583-0.149
		c0.282-19.349,7.77-38.611,22.501-53.343c30.041-30.04,78.92-30.04,108.961,0C211.384,107.061,212.462,153.396,185.746,183.621z"/>
</g>
</svg>
