<?xml version="1.0" encoding="utf-8"?>
<!-- (c) mapshakers 2015, Licence: CC0 1.0 Universal, www.mapshakers.com  -->
<!DOCTYPE svg PUBLIC "-//W3C//DTD SVG 1.1//EN" "http://www.w3.org/Graphics/SVG/1.1/DTD/svg11.dtd">
<svg version="1.1" id="spring" xmlns="http://www.w3.org/2000/svg" xmlns:xlink="http://www.w3.org/1999/xlink" x="0px" y="0px"
	 width="256px" height="256px" viewBox="0 0 256 256" style="enable-background:new 0 0 256 256;" xml:space="preserve">
<style type="text/css">
<![CDATA[
	.st0{fill:#D1D1D1;}
	.st1{fill:#454545;}
]]>
</style>
<path class="st0" d="M127,251.832c-43.378,0-78.668-35.29-78.668-78.668c0-21.238,10.397-38.313,23.561-59.931
	c13.69-22.482,30.728-50.461,45.598-96.16c1.31-4.026,5.014-6.791,9.246-6.902c0.089-0.002,0.177-0.003,0.266-0.003
	c4.127,0,7.843,2.54,9.331,6.409c16.53,42.958,32.3,70.141,44.972,91.982c14.144,24.38,24.363,41.996,24.363,64.605
	C205.668,216.542,170.378,251.832,127,251.832z"/>
<path class="st1" d="M127,20.168C97.363,111.242,58.332,135.24,58.332,173.164S89.075,241.832,127,241.832
	c37.923,0,68.668-30.744,68.668-68.668S162.417,112.207,127,20.168z M127,212.05c-21.148,0-38.292-17.144-38.292-38.291
	s17.144-38.291,38.292-38.291c21.147,0,38.291,17.144,38.291,38.291S148.147,212.05,127,212.05z"/>
<g>
	<path class="st1" d="M151.176,172.01c-16.117-0.023-32.232,26.127-48.35,26.104c-5.886-0.009-11.771-3.507-17.657-13.045
		c-0.002-7.539-0.002-15.075-0.004-22.613c13.945,22.607,27.891,11.307,41.836,0c13.945-11.305,27.888-22.606,41.832-0.007
		c0,7.538,0.002,15.075,0.004,22.613C162.949,175.521,157.063,172.019,151.176,172.01z"/>
</g>
</svg>
