<?xml version="1.0" encoding="utf-8"?>
<!-- (c) mapshakers 2015, Licence: CC0 1.0 Universal, www.mapshakers.com  -->
<!DOCTYPE svg PUBLIC "-//W3C//DTD SVG 1.1//EN" "http://www.w3.org/Graphics/SVG/1.1/DTD/svg11.dtd">
<svg version="1.1" id="square" xmlns="http://www.w3.org/2000/svg" xmlns:xlink="http://www.w3.org/1999/xlink" x="0px"
	 y="0px" width="256px" height="256px" viewBox="0 0 256 256" style="enable-background:new 0 0 256 256;" xml:space="preserve">
<style type="text/css">
<![CDATA[
	.st0{fill:#464646;}
	.st1{fill:#D1D1D1;}
]]>
</style>
<path class="st1" d="M230.408,186.003l-38.113-38.114c-2.813-2.813-6.555-4.361-10.54-4.361c-0.637,0-1.265,0.055-1.887,0.133
	l0.489-0.49c8.547-8.547,8.664-22.356,0.392-31.072c2.825-0.531,5.423-1.889,7.496-3.962l25.019-25.019
	c3.92-3.92,6.114-10.489,5.34-15.971l-2.153-15.27c-0.968-6.857-6.647-12.535-13.502-13.5l-15.265-2.152
	c-0.746-0.106-1.522-0.159-2.308-0.159c-4.964,0-10.329,2.157-13.67,5.498L146.688,66.58c-2.121,2.124-3.44,4.75-3.961,7.499
	c-4.143-3.917-9.537-6.085-15.284-6.085c-2.241,0-4.431,0.328-6.513,0.959c-0.434-3.781-2.104-7.281-4.828-10.005L76.871,19.715
	c-4.227-4.227-11.064-6.958-17.42-6.958c-0.964,0-1.914,0.065-2.817,0.193l-23.943,3.375c-8.165,1.151-15.19,8.176-16.341,16.34
	L12.974,56.61c-0.964,6.841,1.882,15.351,6.766,20.235l39.231,39.232c2.728,2.728,6.231,4.397,10.017,4.829
	c-1.667,5.484-1.175,11.482,1.472,16.66c-4.027,0.06-7.803,1.642-10.652,4.488l-14.223,14.225c-2.136-1.182-4.542-1.815-7.048-1.815
	c-0.642,0-1.29,0.043-1.944,0.129c-7.995,1.067-13.633,8.44-12.57,16.439l0.82,6.153l-8.131,8.131
	c-5.28,5.283-5.28,13.882,0.002,19.168l2.517,2.518c2.558,2.559,5.962,3.966,9.585,3.966c0.176,0,0.35-0.019,0.525-0.024
	l0.234,1.759c0.42,3.171,1.898,6.163,4.157,8.42c2.259,2.261,5.249,3.737,8.418,4.161l41.678,5.554
	c0.639,0.085,1.289,0.128,1.932,0.128l0,0c7.303,0,13.539-5.461,14.502-12.689c0.425-3.163-0.197-6.279-1.693-8.986l14.233-14.232
	c2.849-2.85,4.432-6.627,4.489-10.656c3.102,1.589,6.556,2.442,10.149,2.442c5.96,0,11.554-2.313,15.751-6.51l0.496-0.496
	c-0.562,4.419,0.836,9.044,4.222,12.437l38.12,38.117c2.81,2.808,6.55,4.354,10.531,4.354c0,0,0,0,0.002,0
	c3.981,0,7.724-1.547,10.539-4.357l23.307-23.308C236.219,201.266,236.217,191.813,230.408,186.003z"/>
<g>
	<path class="st0" d="M66.044,109.005c2.697,2.697,7.109,2.696,9.805,0l33.183-33.184c2.698-2.698,2.697-7.109,0-9.805
		l-39.233-39.23c-2.695-2.696-7.992-4.469-11.769-3.934l-23.942,3.375c-3.777,0.533-7.303,4.059-7.835,7.834l-3.375,23.943
		c-0.532,3.777,1.237,9.071,3.935,11.769L66.044,109.005z M69.965,62.095l9.808-9.808c1.078-1.078,2.844-1.079,3.923,0l4.903,4.904
		c1.078,1.078,1.079,2.843-0.001,3.922l-9.808,9.808c-1.078,1.079-2.843,1.078-3.921,0l-4.904-4.904
		C68.886,64.939,68.886,63.174,69.965,62.095z M63.755,88.902l9.807-9.807c1.08-1.079,2.845-1.08,3.925,0l4.902,4.902
		c1.079,1.079,1.078,2.845-0.001,3.924l-9.807,9.808c-1.079,1.079-2.844,1.079-3.923,0l-4.903-4.903
		C62.676,91.747,62.676,89.981,63.755,88.902z M36.457,63.238l9.807-9.807c1.08-1.08,2.844-1.08,3.923-0.001l4.904,4.904
		c1.079,1.078,1.079,2.845,0,3.924l-9.807,9.806c-1.079,1.08-2.846,1.08-3.924,0.001l-4.905-4.904
		C35.376,66.082,35.377,64.317,36.457,63.238z"/>
	<path class="st0" d="M174.921,101.064c1.722,1.72,4.533,1.72,6.253,0l25.018-25.017c1.719-1.72,2.85-5.096,2.509-7.505
		l-2.153-15.269c-0.34-2.408-2.588-4.657-4.994-4.996l-15.27-2.152c-2.41-0.341-5.785,0.788-7.506,2.508L153.762,73.65
		c-1.721,1.72-1.721,4.534-0.002,6.253L174.921,101.064z M189.932,84.908l-3.129,3.128c-0.688,0.687-1.814,0.688-2.502,0
		l-6.254-6.255c-0.688-0.688-0.688-1.814-0.001-2.501l3.128-3.128c0.688-0.688,1.814-0.688,2.501,0l6.257,6.254
		C190.618,83.094,190.618,84.22,189.932,84.908z M177.318,57.91l3.125-3.126c0.688-0.689,1.813-0.688,2.502,0l6.254,6.253
		c0.689,0.689,0.689,1.814,0.001,2.502l-3.126,3.126c-0.688,0.688-1.814,0.689-2.504,0l-6.254-6.253
		C176.629,59.725,176.629,58.599,177.318,57.91z M160.951,75.318l3.128-3.127c0.688-0.688,1.813-0.688,2.502,0l6.254,6.254
		c0.688,0.687,0.688,1.814,0,2.502l-3.126,3.128c-0.689,0.688-1.814,0.686-2.502-0.001l-6.255-6.255
		C160.264,77.131,160.264,76.006,160.951,75.318z"/>
	<path class="st0" d="M85.619,160.252l-13.141,13.143c-1.13,1.131-2.977,1.129-4.106,0l-4.635-4.637
		c-1.129-1.128-1.129-2.976,0-4.104l13.141-13.143l-2.384-2.385c-2.094-2.094-5.52-2.094-7.614,0l-16.256,16.257
		c-2.095,2.093-3.487,6.208-3.096,9.144l3.144,23.609c0.393,2.938,3.115,5.659,6.048,6.051l23.613,3.146
		c2.936,0.394,7.05-1.001,9.146-3.095l16.255-16.258c2.093-2.092,2.093-5.521-0.001-7.613L85.619,160.252z M89.433,191.564
		l-6.53,6.528c-0.936,0.937-2.468,0.937-3.403,0l-7.98-7.978c-0.936-0.936-0.937-2.469,0-3.404l6.53-6.529
		c0.937-0.937,2.469-0.937,3.405,0.002l7.979,7.978C90.369,189.098,90.37,190.628,89.433,191.564z"/>
	<path class="st0" d="M23.787,192.385c-1.383,1.385-1.382,3.646,0,5.029l2.516,2.516c1.384,1.385,3.646,1.385,5.029,0l3.935-3.935
		l-1.775-13.313L23.787,192.385z"/>
	<path class="st0" d="M86.373,211.736c0,0-23.552-2.432-33.669-4.063c-0.016,0-0.027-0.008-0.042-0.01
		c-1.259-0.208-2.532-0.838-3.574-1.882c-1.018-1.019-1.646-2.253-1.867-3.482c-0.01-0.032-0.023-0.063-0.029-0.101
		c-1.628-10.09-4.069-33.713-4.069-33.713c-0.137-1.017-0.59-1.938-1.315-2.662c-1.03-1.03-2.447-1.51-3.893-1.319
		c-2.53,0.338-4.315,2.673-3.978,5.206l5.554,41.678c0.133,1.004,0.601,1.949,1.316,2.664c0.716,0.717,1.663,1.184,2.666,1.317
		l41.675,5.553c2.534,0.337,4.869-1.448,5.206-3.981c0.194-1.441-0.288-2.858-1.318-3.89
		C88.311,212.328,87.39,211.872,86.373,211.736z"/>
	<path class="st0" d="M223.337,193.074l-38.114-38.116c-1.906-1.907-5.027-1.907-6.935,0l-14.317,14.317l0.899,0.898l2.622,2.622
		l10.703,10.705c0.765,0.765,0.765,2.011,0,2.774l-5.373,5.373c-0.764,0.764-2.012,0.764-2.774,0l-13.325-13.328
		c-0.029-0.026-0.05-0.06-0.074-0.088l-0.816-0.817l-0.848,0.847c-1.906,1.907-1.906,5.027,0,6.938l38.115,38.113
		c1.906,1.905,5.025,1.905,6.934,0l23.305-23.306C225.244,198.1,225.244,194.982,223.337,193.074z M198.154,176.893l5.373,5.375
		c0.763,0.762,0.763,2.01,0,2.772l-5.375,5.375c-0.762,0.761-2.01,0.761-2.771,0l-5.374-5.375c-0.764-0.765-0.763-2.011-0.001-2.772
		l5.375-5.375C196.143,176.129,197.391,176.129,198.154,176.893z M178.305,173.34c-0.763-0.764-0.762-2.011,0-2.773l5.375-5.375
		c0.762-0.762,2.012-0.762,2.773,0l5.373,5.375c0.763,0.764,0.763,2.011,0,2.771l-5.375,5.375c-0.762,0.764-2.01,0.764-2.771,0
		L178.305,173.34z M182.098,203.697l-5.375-5.373c-0.763-0.764-0.762-2.012,0-2.774l5.375-5.375c0.762-0.761,2.01-0.764,2.772,0
		l5.374,5.375c0.763,0.763,0.763,2.011,0,2.772l-5.374,5.375C184.107,204.461,182.859,204.461,182.098,203.697z M202.378,210.459
		l-5.373,5.373c-0.763,0.764-2.013,0.764-2.774,0l-5.373-5.375c-0.764-0.762-0.764-2.012,0-2.771l5.375-5.375
		c0.762-0.762,2.011-0.762,2.771,0l5.374,5.375C203.141,208.447,203.143,209.695,202.378,210.459z M215.663,197.175l-5.374,5.375
		c-0.764,0.763-2.012,0.763-2.773,0l-5.375-5.375c-0.763-0.764-0.763-2.011,0-2.772l5.375-5.375c0.764-0.764,2.01-0.764,2.773,0
		l5.374,5.373C216.425,195.165,216.425,196.414,215.663,197.175z"/>
	<path class="st0" d="M173.287,118.736l-37.163-37.163c-4.774-4.774-12.587-4.774-17.361,0L81.6,118.736
		c-4.774,4.774-4.774,12.587,0,17.362l37.163,37.161c4.774,4.774,12.586,4.774,17.361,0l37.163-37.161
		C178.063,131.323,178.063,123.511,173.287,118.736z M141.918,130.157l-11.734,11.733c-1.506,1.506-3.974,1.506-5.479,0
		l-11.734-11.733c-1.507-1.509-1.507-3.974,0-5.481l11.734-11.733c1.507-1.507,3.974-1.507,5.479,0l11.734,11.733
		C143.425,126.183,143.425,128.648,141.918,130.157z"/>
</g>
</svg>
