<?xml version="1.0" encoding="utf-8"?>
<!-- (c) mapshakers 2015, Licence: CC0 1.0 Universal, www.mapshakers.com  -->
<!DOCTYPE svg PUBLIC "-//W3C//DTD SVG 1.1//EN" "http://www.w3.org/Graphics/SVG/1.1/DTD/svg11.dtd">
<svg version="1.1" id="stadium" xmlns="http://www.w3.org/2000/svg" xmlns:xlink="http://www.w3.org/1999/xlink" x="0px"
	 y="0px" width="256px" height="256px" viewBox="0 0 256 256" style="enable-background:new 0 0 256 256;" xml:space="preserve">
<style type="text/css">
<![CDATA[
	.st0{fill:#D1D1D1;}
	.st1{fill:#454545;}
]]>
</style>
<path class="st0" d="M110.365,242.74c-6.149,0-11.536-3.328-14.454-8.278c-0.694,0.151-1.406,0.229-2.124,0.229
	c-0.287,0-0.575-0.013-0.863-0.037c-17.857-1.546-33.275-4.34-44.589-8.08c-5.083-1.68-19.285-6.374-22.673-16.941
	c-0.22-0.408-0.413-0.834-0.578-1.277L3.85,151.009c-1.136-3.069-0.699-6.5,1.17-9.186c0.089-0.128,0.181-0.254,0.276-0.377
	c-0.953-2.258-1.464-4.677-1.464-7.263c0-0.2,0.004-0.4,0.012-0.6c-0.008-0.19-0.012-0.373-0.012-0.557
	c0-3.234,0.87-7.781,4.547-12.544V70.126c0-3.378,1.706-6.527,4.534-8.374c1.46-0.954,3.12-1.493,4.808-1.604
	c0.499-0.076,1.002-0.114,1.506-0.114c1.447,0,2.898,0.313,4.249,0.948c4.047,1.9,8.195,2.454,12.997,3.095
	c8.166,1.09,18.329,2.448,27.869,11.645c3.121,3.009,3.948,7.686,2.048,11.582c-1.692,3.471-5.204,5.618-8.984,5.618
	c-0.464,0-0.932-0.032-1.401-0.099c-0.126-0.018-0.261-0.027-0.402-0.027c-3.146,0-8.578,3.756-13.369,7.07
	c-2.038,1.41-4.111,2.843-6.252,4.192c18.208-6.11,43.305-10.129,71.424-11.323l-0.391-23.257c-0.064-0.457-0.097-0.921-0.097-1.389
	v-4.365l-0.438-26.038c-0.06-3.544,1.762-6.855,4.788-8.703c1.597-0.975,3.402-1.465,5.211-1.465c0.073,0,0.366,0,0.439,0
	c1.447,0,2.897,0.313,4.248,0.947c4.047,1.899,8.194,2.453,12.995,3.094c8.166,1.091,18.328,2.448,27.869,11.646
	c3.121,3.008,3.948,7.685,2.048,11.582c-1.691,3.47-5.204,5.618-8.984,5.618c-0.464,0-0.932-0.032-1.401-0.099
	c-0.127-0.018-0.259-0.027-0.401-0.027c-3.146,0-8.578,3.757-13.37,7.072c-1.835,1.269-3.701,2.56-5.623,3.792v21.32
	c23.013,0.506,44.542,2.889,62.503,6.893v-29.23c0-3.352,1.68-6.481,4.474-8.334c1.474-0.978,3.155-1.531,4.868-1.645
	c0.499-0.076,1.003-0.114,1.506-0.114c1.547,0,3.096,0.358,4.521,1.08c3.575,1.812,7.318,2.351,11.652,2.976
	c7.736,1.116,17.364,2.504,26.393,11.903c2.968,3.09,3.638,7.727,1.666,11.53c-1.737,3.35-5.184,5.397-8.875,5.397
	c-0.499,0-1.004-0.038-1.509-0.115c-0.047-0.007-0.102-0.011-0.161-0.011c-2.484,0-7.793,3.965-11.67,6.86
	c-1.993,1.489-4.024,3.005-6.134,4.426v3.653c15.014,6.684,22.613,15.175,22.613,25.294c0,0.19-0.005,0.38-0.013,0.569
	c0.008,0.199,0.013,0.394,0.013,0.587c0,2.586-0.512,5.005-1.465,7.263c0.095,0.123,0.187,0.249,0.275,0.377
	c1.87,2.686,2.307,6.116,1.171,9.186l-21.234,57.346c-0.189,0.512-0.419,1.002-0.682,1.466
	c-3.494,10.432-17.548,15.079-22.598,16.749c-11.305,3.738-26.714,6.532-44.56,8.079c-0.288,0.024-0.576,0.037-0.864,0.037
	c-0.717,0-1.428-0.077-2.12-0.228c-2.918,4.952-8.306,8.282-14.457,8.282H110.365z"/>
<path class="st1" d="M146.375,213.517v12.457c0,3.737-3.029,6.767-6.766,6.767h-29.245c-3.736,0-6.765-3.029-6.765-6.767v-12.457
	c0-3.736,3.029-6.766,6.765-6.766h29.245C143.346,206.751,146.375,209.78,146.375,213.517z M243,82.92
	c-9.607-1.463-19.431,10.312-29.471,15.528v5.621v10.419c14.186,5.149,22.613,11.572,22.613,18.54c0,0.186-0.018,0.369-0.029,0.554
	c0.014,0.2,0.029,0.401,0.029,0.603c0,15.198-43.297,27.707-98.936,29.323c-4.014,0.12-8.09,0.186-12.219,0.186
	c-4.129,0-8.202-0.065-12.214-0.186c-55.642-1.614-98.941-14.125-98.941-29.323c0-0.201,0.013-0.402,0.029-0.603
	c-0.012-0.185-0.029-0.368-0.029-0.554c0-3.022,1.593-5.943,4.547-8.701v-54.2c0.283,0.125,0.565,0.239,0.848,0.359v-0.451
	C32.743,76.378,45.383,71.335,57.4,82.92c-10.522-1.485-21.286,10.657-32.292,15.75v0.801v5.986v14.1
	c17.05-9.604,51.761-16.386,92.46-17.126l-0.577-34.358c-0.025,0.004-0.05,0.011-0.075,0.016V63.64l-0.439-26.123
	c0.139,0.074,0.292,0.146,0.439,0.218v-0.218c13.516,6.343,26.154,1.301,38.172,12.886c-10.043-1.417-20.309,9.583-30.792,15.017
	v7.822v7.288v21.834c0.231,0,0.461-0.002,0.692-0.002c32.366,0,61.497,3.817,81.811,9.908V70.126
	c0.283,0.12,0.564,0.217,0.848,0.333v-0.425C220.164,76.377,231.872,71.335,243,82.92z M203.881,140.309
	c0-7.704-35.322-13.948-78.893-13.948c-43.572,0-78.895,6.244-78.895,13.948c0,7.703,35.322,13.948,78.895,13.948
	C168.559,154.257,203.881,148.012,203.881,140.309z M236.115,148.055c0,11.993-49.766,21.713-111.156,21.713
	c-61.389,0-111.154-9.72-111.154-21.713c0-0.174,0.012-0.348,0.033-0.519h-0.61l21.234,57.346h0.467
	c0,9.089,24.499,16.834,58.857,19.809v-28.032c0-2.944,2.388-5.333,5.334-5.333h51.734c2.943,0,5.332,2.389,5.332,5.333v28.027
	c34.336-2.976,58.814-10.719,58.814-19.804h0.51l21.234-57.346h-0.662C236.104,147.707,236.115,147.881,236.115,148.055z"/>
</svg>
