<?xml version="1.0" encoding="utf-8"?>
<!-- (c) mapshakers 2015, Licence: CC0 1.0 Universal, www.mapshakers.com  -->
<!DOCTYPE svg PUBLIC "-//W3C//DTD SVG 1.1//EN" "http://www.w3.org/Graphics/SVG/1.1/DTD/svg11.dtd">
<svg version="1.1" id="stop" xmlns="http://www.w3.org/2000/svg" xmlns:xlink="http://www.w3.org/1999/xlink" x="0px" y="0px"
	 width="256px" height="256px" viewBox="0 0 256 256" style="enable-background:new 0 0 256 256;" xml:space="preserve">
<style type="text/css">
<![CDATA[
	.st0{fill:#464646;}
	.st1{fill:#D1D1D1;}
]]>
</style>
<path class="st1" d="M79.494,244.284c-8.714,0-18.202-5.478-22.559-13.024L8.429,147.245c-4.357-7.545-4.357-18.499,0-26.047
	L56.936,37.18c4.356-7.546,13.844-13.023,22.558-13.023h97.012c8.715,0,18.202,5.477,22.559,13.023l48.508,84.017
	c4.357,7.547,4.357,18.502,0,26.048l-48.508,84.015c-4.355,7.547-13.844,13.024-22.559,13.024H79.494z"/>
<path class="st0" d="M239.314,125.964l-48.508-84.017c-2.621-4.541-9.058-8.256-14.302-8.256H79.494
	c-5.244,0-11.679,3.715-14.301,8.256l-48.507,84.017c-2.622,4.542-2.622,11.974,0,16.513l48.507,84.017
	c2.622,4.542,9.058,8.257,14.301,8.257h97.012c5.244,0,11.68-3.715,14.303-8.257l48.506-84.017
	C241.938,137.938,241.938,130.506,239.314,125.964z M150.957,134.693l37.891,37.89l-21.51,21.508L129.449,156.2l-37.89,37.891
	l-21.506-21.508l37.889-37.89L70.053,96.803L91.56,75.296l37.891,37.891l38.834-38.835l21.507,21.507L150.957,134.693z"/>
</svg>
