<?xml version="1.0" encoding="utf-8"?>
<!-- (c) mapshakers 2015, Licence: CC0 1.0 Universal, www.mapshakers.com  -->
<!DOCTYPE svg PUBLIC "-//W3C//DTD SVG 1.1//EN" "http://www.w3.org/Graphics/SVG/1.1/DTD/svg11.dtd">
<svg version="1.1" id="stupa" xmlns="http://www.w3.org/2000/svg" xmlns:xlink="http://www.w3.org/1999/xlink" x="0px"
	 y="0px" width="256px" height="256px" viewBox="0 0 256 256" style="enable-background:new 0 0 256 256;" xml:space="preserve">
<style type="text/css">
<![CDATA[
	.st0{fill-rule:evenodd;clip-rule:evenodd;fill:#454545;}
	.st1{fill-rule:evenodd;clip-rule:evenodd;fill:#D1D1D1;}
]]>
</style>
<path class="st1" d="M200.525,246.859c-12.229,1.388-24.148,2.379-36.08,3.043c-11.925,0.661-23.863,0.996-36.141,0.999
	c-12.279,0.001-24.259-0.332-36.227-0.994c-11.974-0.665-23.935-1.659-36.165-3.048c-2.536-0.288-4.92-2.091-6.423-4.834
	c-1.504-2.744-1.948-6.098-1.197-9.043c0.321-1.255,0.377-2.037,0.456-3.12c0.373-5.16,1.605-9.117,6.601-13.09
	c2.797-2.229,5.481-3.378,7.639-4.31c0.739-0.319,1.683-0.73,2.256-1.059c0.057-0.54,0.11-1.191,0.151-1.693
	c0.244-2.969,0.549-6.66,2.087-9.901c1.712-3.591,4.544-5.271,7.043-6.771c0.121-0.072,0.252-0.151,0.391-0.234
	c0.068-2.254,0.242-5.139,1.372-7.912c1.219-2.983,2.965-5.185,4.507-7.135c0.63-0.798,1.566-1.983,1.873-2.568
	c1.55-6.087,1.88-13.005,2.23-20.322c0.826-17.337,1.843-38.534,21.027-54.302c-0.188-1.369-0.159-2.788,0.1-4.18
	c4.831-25.975,9.659-52.023,14.484-78.093c0.853-4.61,4.08-7.867,7.792-7.867c0.003,0,0.006,0,0.009,0
	c3.717,0.005,6.941,3.273,7.787,7.89c1.43,7.801,2.86,15.6,4.291,23.396c3.303,17.987,6.512,35.437,10.032,54.711
	c0.255,1.375,0.282,2.782,0.095,4.144c19.184,15.767,20.199,36.963,21.026,54.3c0.35,7.315,0.679,14.23,2.23,20.322
	c0.306,0.586,1.241,1.771,1.872,2.569c1.541,1.95,3.289,4.152,4.503,7.128c1.133,2.779,1.308,5.664,1.375,7.919
	c0.139,0.083,0.27,0.161,0.391,0.233c2.501,1.502,5.334,3.183,7.04,6.766c1.542,3.247,1.847,6.939,2.091,9.908
	c0.042,0.501,0.094,1.153,0.151,1.693c0.573,0.328,1.519,0.739,2.256,1.059c2.157,0.933,4.842,2.081,7.64,4.31
	c4.995,3.973,6.229,7.93,6.601,13.09c0.078,1.083,0.135,1.865,0.455,3.12c0.751,2.945,0.307,6.299-1.196,9.043
	C205.446,244.769,203.063,246.571,200.525,246.859z"/>
<path class="st0" d="M196.445,224.784c-4.976-3.7-10.185-3.024-12.385-7.819c-1.221-2.657-0.67-8.735-2.001-11.504
	c-1.114-2.304-6.721-3.727-7.879-6.233c-1.005-2.161-0.218-6.736-1.147-9.005c-1.5-3.652-5.717-6.706-6.781-10.789
	c-6.225-24.074,3.751-52.656-22.506-71.75c-14.666-10.843-0.829-6.945-1.12-8.537c-5.021-27.675-9.403-51.625-14.326-78.722
	c-4.823,26.27-9.653,52.541-14.488,78.722c-0.294,1.592,13.545-2.307-1.121,8.537c-26.257,19.095-16.282,47.676-22.507,71.75
	c-1.064,4.083-5.281,7.138-6.782,10.788c-0.93,2.27-0.142,6.845-1.147,9.006c-1.158,2.507-6.763,3.93-7.879,6.233
	c-1.331,2.769-0.781,8.847-2,11.504c-2.201,4.795-7.41,4.119-12.385,7.819c-4.572,3.38-2.4,4.688-4.053,11.118
	c24.341,4.217,47.76,6.182,72.365,6.208c24.605-0.041,47.853-1.995,72.193-6.208C198.846,229.473,201.017,228.164,196.445,224.784z"
	/>
</svg>
