<?xml version="1.0" encoding="utf-8"?>
<!-- (c) mapshakers 2015, Licence: CC0 1.0 Universal, www.mapshakers.com  -->
<!DOCTYPE svg PUBLIC "-//W3C//DTD SVG 1.1//EN" "http://www.w3.org/Graphics/SVG/1.1/DTD/svg11.dtd">
<svg version="1.1" id="supermarket" xmlns="http://www.w3.org/2000/svg" xmlns:xlink="http://www.w3.org/1999/xlink" x="0px" y="0px"
	 width="256px" height="256px" viewBox="0 0 256 256" style="enable-background:new 0 0 256 256;" xml:space="preserve">
<style type="text/css">
<![CDATA[
	.st0{fill:#D1D1D1;}
	.st1{fill:#454545;}
]]>
</style>
<path class="st0" d="M164.477,236.059c-13.711,0-25.166-9.151-27.688-21.237c-3.029,11.455-14.16,19.976-27.388,19.976
	c-15.551,0-28.204-11.776-28.204-26.25c0-2.089,0.264-4.158,0.787-6.176c-4.754-2.362-8.491-6.631-10.04-11.926L34.325,61.799
	l-13.621-2.668c-10.491-2.057-17.355-12.265-15.3-22.756c1.777-9.076,9.78-15.663,19.027-15.663c1.242,0,2.492,0.12,3.716,0.359
	l25.208,4.938c7.138,1.399,12.84,6.604,14.882,13.585l4.136,14.144l154.73-0.033c9.374,0,16.783,3.879,20.327,10.643
	c3.493,6.662,2.534,14.764-2.631,22.23l-45.496,65.776c-3.695,5.34-9.307,10.064-15.681,13.572c4.557,0.394,8.787,2.362,12.05,5.643
	c3.655,3.673,5.659,8.55,5.644,13.731c-0.018,7.203-3.997,13.5-9.866,16.828c0.815,2.48,1.229,5.052,1.229,7.678
	C192.678,224.281,180.026,236.059,164.477,236.059z"/>
<path class="st1" d="M227.104,65.077L63.851,65.111l-6.528-22.324c-0.842-2.875-3.215-5.042-6.155-5.618l-25.194-4.937
	c-4.345-0.846-8.561,1.982-9.412,6.328c-0.851,4.346,1.982,8.56,6.328,9.411l20.408,3.998l39.561,135.282
	c0.998,3.412,4.122,5.76,7.676,5.768l91.37,0.243c0.009,0,0.015,0,0.021,0c4.421,0,8.007-3.576,8.018-7.998
	c0.014-4.429-3.568-8.028-7.997-8.04l-85.376-0.227l-4.703-16.082l57.528,0.007c0.029,0,0.06,0,0.089,0h11.332
	c10.306-0.005,23.415-6.771,29.134-15.038l45.497-65.776C241.166,71.841,237.413,65.077,227.104,65.077z M104.36,145.756
	l-5.703-0.001c-6.254,0-12.791-4.917-14.525-10.925l-11.5-39.841c-1.588-5.503,1.386-10.078,6.7-10.814
	c1.658-0.078,3.283-0.106,4.68-0.116l2.833,0c0.166,0,0.321,0,0.458,0c3.576,0,7.799,4.949,9.383,11l10.396,39.698
	C108.559,140.397,106.954,145.118,104.36,145.756z M133.697,143.485h-1.445c-6.253-0.002-12.665-4.953-14.25-11.002l-10.397-39.701
	c-1.585-6.05,2.236-11.001,8.49-11.003h2.081c6.254-0.001,12.617,4.96,14.141,11.026l9.961,39.653
	C143.799,138.519,139.939,143.474,133.697,143.485z M173.611,137.419c-0.873,0.856-1.669,1.563-2.349,2.083
	c-0.082,0.049-0.144,0.09-0.232,0.143c-0.789,0.472-1.663,0.852-2.49,1.153c-1.021,0.335-2.243,0.65-3.575,0.939
	c-6.083,0.656-11.864-3.538-13.363-9.5l-9.905-39.434c-1.523-6.066,2.347-11.03,8.602-11.032l4.419,0
	c6.254-0.001,12.66,4.95,14.234,11.002l7.179,27.606C177.604,126.042,176.465,133.425,173.611,137.419z M207.25,88.728
	c-0.941,2.421-3.29,6.595-6.847,11.738l-8.025,12.02c-3.558,5.144-7.756,4.4-9.33-1.652l-4.697-18.062
	c-1.575-6.053,2.255-11.006,8.509-11.007l0.063-0.001l14.771-0.004C211.508,82.758,208.04,86.694,207.25,88.728z M125.491,204.174
	c0.479,1.383,0.741,2.852,0.741,4.373c0,8.217-7.535,14.878-16.831,14.878c-9.297,0-16.833-6.661-16.833-14.878
	c0-1.521,0.261-2.99,0.741-4.373H125.491z M148.9,204.174c-0.805,1.737-1.256,3.641-1.256,5.632c0,8.221,7.535,14.881,16.832,14.881
	c9.295,0,16.83-6.66,16.83-14.881c0-1.991-0.45-3.895-1.257-5.632H148.9z"/>
</svg>
