<?xml version="1.0" encoding="utf-8"?>
<!-- (c) mapshakers 2015, Licence: CC0 1.0 Universal, www.mapshakers.com  -->
<!DOCTYPE svg PUBLIC "-//W3C//DTD SVG 1.1//EN" "http://www.w3.org/Graphics/SVG/1.1/DTD/svg11.dtd">
<svg version="1.1" id="swimming_pool" xmlns="http://www.w3.org/2000/svg" xmlns:xlink="http://www.w3.org/1999/xlink" x="0px"
	 y="0px" width="256px" height="256px" viewBox="0 0 256 256" style="enable-background:new 0 0 256 256;" xml:space="preserve">
<style type="text/css">
<![CDATA[
	.st0{fill:#464646;}
	.st1{fill:#D1D1D1;}
]]>
</style>
<path class="st1" d="M235.197,215.633c-0.168-0.178-0.299-0.324-0.412-0.449c-0.362-0.398-0.814-0.896-1.451-1.455
	c-3.248-2.836-6.646-5.446-10.164-7.826c1.014-0.479,1.96-1.125,2.785-1.949c3.166-3.164,3.843-8.049,1.658-11.953
	c-0.397-0.711-9.993-17.492-32.479-24.797c-4.629-1.504-9.608-2.268-14.805-2.268c-15.733,0-32.261,6.92-45.332,18.984
	c-0.231,0.216-0.451,0.441-0.66,0.676c-0.276-28.984-0.579-62.4-0.714-95.116c-0.02-4.476,2.895-8.272,6.629-8.643
	c0.275-0.027,0.559-0.042,0.834-0.042c2.68,0,5.225,1.331,6.92,3.59c3.708,7.661,11.453,12.547,20.057,12.547
	c12.278,0,22.271-9.962,22.271-22.214c-0.003-5.258-1.86-10.293-5.253-14.298c-9.281-14.667-24.077-23.917-40.732-25.426
	c-1.412-0.128-2.847-0.193-4.262-0.193c-5.104,0-10.08,0.848-14.795,2.429c-0.559-2.551-1.558-4.999-2.967-7.249
	c-0.208-0.376-0.44-0.742-0.7-1.095c-0.17-0.231-0.346-0.455-0.561-0.718c-0.169-0.223-0.344-0.443-0.523-0.659
	C109.544,13.654,95.375,6.331,79.556,6.331c-1.074,0-2.169,0.034-3.255,0.101C48.417,8.148,28.188,31.093,28.199,60.991
	c0.01,25.619,0.28,51.651,0.542,76.827c0.072,6.941,0.145,13.887,0.211,20.83c0.127,13.064,9.293,23.47,21.33,24.199
	c0.43,0.024,0.857,0.037,1.28,0.037c11.887,0,21.003-9.709,21.433-22.693c5.779,2.438,11.41,4.828,17.011,7.256
	c0.04,2.503,0.055,5.025,0.07,7.488c0.026,4.264,0.053,8.672,0.201,13.074c0.206,6.11,2.432,11.604,5.963,15.736
	c-1.405,0.035-2.792,0.059-4.141,0.059c-11.986,0-22.564-1.367-32.338-4.18c-9.737-2.8-18.394-6.507-26.467-11.331
	c-1.593-0.952-3.365-1.416-5.127-1.416c-2.549,0-5.075,0.974-6.995,2.853c-3.246,3.175-3.946,8.138-1.705,12.086
	c6.781,11.944,15.159,21.213,25.612,28.334c6.871,4.681,13.505,7.922,20.281,9.908c7.093,2.08,14.442,3.137,21.842,3.137
	c7.832,0,15.877-1.182,23.91-3.512c6.593-1.912,13.066-4.175,19.39-6.475c-2.773,2.992-3.481,7.418-1.665,11.158
	c1.696,3.492,5.222,5.633,8.993,5.633c0.646,0,1.3-0.063,1.952-0.191c4.327-0.859,8.599-1.865,12.729-2.838
	c11.381-2.679,22.131-5.207,34.896-5.207c10.406,0,21.021,1.729,32.449,5.283c0.981,0.307,1.981,0.453,2.972,0.453
	c3.403,0,6.662-1.744,8.521-4.762c2.074-3.375,1.936-7.598-0.211-10.801c1.82-0.621,3.479-1.767,4.717-3.391
	C238.826,224.662,238.547,219.197,235.197,215.633z"/>
<path class="st0" d="M177.035,66.417c-7.355-12.027-19.574-20.194-33.59-21.464c-19.938-1.808-38.181,12.666-42.703,33.93
	c-0.553,2.594-0.876,5.254-1.352,8.157c-1.146-0.383-1.981-0.607-2.783-0.942c-8.277-3.46-16.537-6.979-24.829-10.405
	c-10.184-4.208-10.194-4.177-9.493-15.859c0.789-13.098,13.68-21.391,24.924-15.744c2.79,1.4,5.254,3.6,7.585,5.453
	c2.238,2.53,5.429,4.19,8.97,4.319c6.711,0.244,12.105-5.076,12.051-11.881c-0.021-2.636-0.861-5.102-2.27-7.157
	c0.008-0.006,0.014-0.012,0.02-0.019c-0.127-0.173-0.266-0.333-0.398-0.502c-0.123-0.166-0.254-0.329-0.388-0.488
	c-9.354-11.831-21.351-18.297-35.863-17.402C54.119,17.816,38.19,36.246,38.199,60.987c0.013,32.511,0.439,65.04,0.753,97.564
	c0.077,7.924,5.196,13.906,11.927,14.314c6.828,0.408,12.043-5.313,12.131-13.424c0.048-4.51-0.058-9.027-0.1-14.35
	c12.272,5.178,23.89,10.018,35.429,15.076c0.842,0.369,1.559,2.383,1.594,3.621c0.213,7.959,0.072,15.922,0.34,23.883
	c0.334,9.896,8.856,16.355,16.808,12.805c5.55-2.48,7.34-7.486,7.278-13.801c-0.311-32.391-0.6-64.777-0.732-97.156
	c-0.041-9.806,6.91-17.77,15.643-18.636c6.994-0.693,13.612,2.654,17.467,8.535c1.853,4.411,6.226,7.512,11.328,7.512
	c6.776,0,12.271-5.465,12.271-12.208C180.332,71.511,179.076,68.597,177.035,66.417z M64.45,122.395
	c-0.774-0.338-1.607-1.857-1.631-2.815c-0.193-7.933-0.202-15.859-0.271-24.469c2.491,1.033,4.58,1.887,6.662,2.765
	c9.094,3.833,18.155,7.763,27.296,11.442c2.306,0.927,3.202,2.048,3.164,4.733c-0.114,7.508,0.062,15.037,0.13,23.357
	C87.577,132.25,75.985,127.4,64.45,122.395z"/>
<path class="st0" d="M28.165,196.879c9.082,5.428,18.72,9.449,28.833,12.357c14.11,4.059,28.512,5.027,43.128,4.387
	c16.208-0.713,31.974-3.764,47.558-8.059c8.449-2.328,16.981-4.279,25.793-4.734c12.398-0.639,23.975,2.277,34.938,7.918
	c6.629,3.412,12.729,7.607,18.343,12.512c0.307,0.268,0.563,0.59,1.154,1.221c-3.614-1.918-6.743-3.721-9.989-5.273
	c-11.421-5.457-23.479-7.723-36.123-7.246c-14.356,0.539-28.011,4.143-41.428,8.988c-10.636,3.84-21.197,7.984-32.042,11.131
	c-13.226,3.836-26.734,4.318-40.152,0.385c-6.313-1.854-12.026-4.873-17.466-8.578C41.154,215.375,33.855,206.902,28.165,196.879z"
	/>
<path class="st0" d="M191,223.625c-17.293-2.619-38.383,3.723-53.166,16.375c24.316-4.833,46.707-14.417,84.999-2.5
	C222.833,237.5,212.555,226.891,191,223.625z"/>
<path class="st0" d="M192.047,176.712c-15.257-4.955-35.175,0.63-50.266,14.558c22.623-3.418,44.164-12.826,77.104,5.609
	C218.887,196.879,211.063,182.891,192.047,176.712z"/>
</svg>
