<?xml version="1.0" encoding="utf-8"?>
<!-- (c) mapshakers 2015, Licence: CC0 1.0 Universal, www.mapshakers.com  -->
<!DOCTYPE svg PUBLIC "-//W3C//DTD SVG 1.1//EN" "http://www.w3.org/Graphics/SVG/1.1/DTD/svg11.dtd">
<svg version="1.1" id="telephone" xmlns="http://www.w3.org/2000/svg" xmlns:xlink="http://www.w3.org/1999/xlink" x="0px" y="0px"
	 width="256px" height="256px" viewBox="0 0 256 256" style="enable-background:new 0 0 256 256;" xml:space="preserve">
<style type="text/css">
<![CDATA[
	.st0{fill:#D1D1D1;}
	.st1{fill:#454545;}
]]>
</style>
<path class="st0" d="M228.45,197.304c-0.471-1.753-2.467-5.763-4.409-7.814c-1.593-1.68-7.636-6.503-9.449-7.941
	c-0.039-0.03-12.97-9.975-12.97-9.975c-2.256-1.73-9.331-7.081-10.961-8.091c-1.639-1.013-4.716-2.447-6.275-3.135
	c-1.172-0.517-2.433-0.803-3.712-0.845l-2.028-0.065c0,0-0.694-0.019-0.792-0.019c-1.252,0-2.495,0.235-3.662,0.694
	c-0.839,0.33-4.22,2.054-10.048,5.122c-2.975,1.565-4.742,2.459-5.198,2.811c-2.499,1.928-6.514,6.997-9.213,8.634
	c-1.492,0.904-6.654,2.097-6.654,2.097c-0.152,0.008-0.303,0.012-0.452,0.012c-1.723,0-2.918-0.521-4.153-1.828
	c-0.838-0.88-1.642-2.108-2.673-3.728c-3.914-6.179-7.564-12.743-10.92-18.906c-7.786-14.338-16.022-30.169-25.916-49.813
	c-0.009-0.022-0.059-0.175-0.071-0.212c-0.828-2.554-1.127-4.837-0.915-6.983c0.125-1.261,0.441-2.344,0.967-3.311
	c0.733-1.348,1.843-2.45,3.392-3.37c0.029-0.018,0.058-0.035,0.087-0.052c0.457-0.278,0.937-0.527,1.415-0.782
	c0.344-0.184,0.656-0.443,1.029-0.555c1.601-0.479,5.01-0.763,6.665-0.531c2.009,0.281,4.151,0.606,4.573,0.606
	c0.52,0,1.003-0.029,1.479-0.09c1.061-0.136,4.655-0.993,6.6-1.893c0.924-0.428,4.778-2.474,6.568-3.884
	c1.558-1.228,4.635-4.432,5.46-5.396c3.207-3.745,3.831-5.983,4.027-7.844c0.06-0.571,0.107-1.023-0.022-10.112
	c-0.033-2.321-0.118-8.579-0.189-13.898l-0.14-11.209c-0.167-13.409-0.973-14.885-1.896-16.579
	c-0.566-1.042-1.958-3.106-3.091-4.266c-1.469-1.506-8.063-6.026-11.657-7.313c-1.132-0.406-4.928-1.75-6.242-2.012
	c-1.177-0.235-2.435-0.27-3.079-0.27L96.885,4.814c-4.471,0.276-8.862,0.905-13.075,1.873c-8.573,1.99-15.891,5.05-22.38,9.359
	c-6.525,4.342-11.72,9.819-15.434,16.268c-3.693,6.395-5.9,13.707-6.561,21.735c-0.029,0.216-0.078,0.435-0.119,0.653l-0.07,0.371
	c-0.113,0.605-0.17,1.22-0.17,1.836v6.124c0,0.295,0.013,0.591,0.039,0.885l0.094,1.023c0.068,0.731,0.138,1.464,0.18,2.106
	c0.099,1.75,0.186,3.502,0.273,5.255c0.175,3.526,0.357,7.172,0.631,10.8c0.425,5.67,0.895,10.381,1.479,14.827
	c0.676,5.14,1.512,10.526,2.556,16.466c1.462,8.328,3.506,16.787,6.079,25.154c2.244,7.263,4.734,13.801,7.64,20.041
	c2.411,5.1,5.358,10.186,9.291,16.027c5.996,8.855,12.529,18.275,19.661,27.146c7.914,9.879,15.54,18.036,23.337,24.959
	c6.627,5.845,12.918,10.448,19.223,14.069c7.263,4.178,14.238,6.952,21.268,8.468c1.827,0.405,4.103,0.91,6.731,1.007
	c1.517,0.046,3.121,0.066,5.05,0.066c1.337,0,2.677-0.01,4.018-0.021l2.373-0.016c1.137,0,2.176-0.113,3.268-0.368
	c7.416-1.8,14.536-4.049,21.168-6.687c0,0,14.552-6.411,18.813-9.511c2.218-1.613,5.82-5.816,7.727-7.787
	c1.705-1.763,2.871-3.785,4.107-6.933c0.143-0.363,0.143-0.363,1.77-5.443l0.469-1.461c0.545-1.701,1.674-5.376,1.965-6.423
	c0.778-2.804,0.778-4.231,0.778-4.7C229.064,200.821,228.749,198.416,228.45,197.304z"/>
<path class="st1" d="M49.077,56.909c0.119-0.638,0.255-1.284,0.315-1.913c0.5-6.277,2.101-12.205,5.264-17.681
	c3.062-5.316,7.228-9.559,12.314-12.944c5.852-3.886,12.288-6.362,19.101-7.943c3.776-0.868,7.577-1.395,11.431-1.633
	c0.169-0.009,0.339,0,0.595,0c0.033,0.323,0.084,0.621,0.084,0.902c0.12,4.065,0.239,8.121,0.357,12.162
	c0.281,9.355,0.553,18.701,0.834,28.047c0.127,4.516,0.254,9.015,0.374,13.505c0.101,3.147,0.203,6.302,0.288,9.44
	c0.017,0.545,0.017,1.08,0.017,1.633c-0.944,0.519-1.914,1.003-2.823,1.556c-2.977,1.769-5.4,4.125-7.067,7.187
	c-1.208,2.22-1.888,4.601-2.136,7.11c-0.374,3.775,0.187,7.45,1.353,11.048c0.161,0.518,0.357,1.019,0.587,1.497
	c8.487,16.855,17.119,33.635,26.125,50.218c3.589,6.592,7.246,13.148,11.26,19.485c1.174,1.844,2.357,3.674,3.879,5.272
	c3.351,3.546,7.492,5.154,12.354,4.907c3.728-0.18,7.162-1.318,10.437-3.045c0.256-0.119,0.502-0.256,0.79-0.426
	c17.35,13.634,34.691,27.283,52.109,40.975c-0.324,0.204-0.553,0.374-0.774,0.528c-5.204,3.257-10.717,5.885-16.415,8.156
	c-6.454,2.567-11.21,4.156-17.971,5.797c-0.298,0.069-2.461,0.501-2.762,0.547c-4.041,0.621-6.458,0.663-11.143-0.025
	c-1.616-0.237-3.257-0.418-4.863-0.774c-6.549-1.412-12.653-4.04-18.446-7.373c-6.354-3.648-12.128-8.079-17.596-12.901
	c-8.123-7.212-15.368-15.249-22.147-23.711c-6.845-8.513-13.071-17.469-19.185-26.5c-3.172-4.712-6.099-9.55-8.531-14.695
	c-2.823-6.063-5.153-12.332-7.126-18.719c-2.416-7.858-4.362-15.836-5.784-23.932c-0.936-5.324-1.785-10.674-2.49-16.04
	c-0.622-4.728-1.064-9.5-1.422-14.27c-0.399-5.273-0.594-10.581-0.892-15.87c-0.076-1.157-0.196-2.305-0.298-3.453
	C49.077,60.991,49.077,58.958,49.077,56.909z"/>
<g>
	<path class="st1" d="M219.064,201.983c0,0.294-0.187,1.205-0.414,2.024s-1.308,4.349-1.852,6.045s-1.991,6.219-2.023,6.301
		c-0.031,0.082-3.355-2.259-7.311-5.377l-36.184-28.665c-3.939-3.138-7.074-5.761-6.967-5.829c0.108-0.068,2.237-1.214,4.486-2.397
		c2.248-1.184,8.571-4.477,9.053-4.666c0,0,0,0,0.498,0.015c2,0.064,2,0.064,2,0.064c1.965,0.866,4.237,1.987,5.051,2.49
		c0.813,0.504,6.137,4.453,10.132,7.519l12.845,9.877c3.946,3.129,7.729,6.272,8.404,6.985c0.676,0.714,1.934,3.246,2.009,3.526
		S219.064,201.689,219.064,201.983z"/>
</g>
<g>
	<path class="st1" d="M113.924,14.557c0.407,0,0.912,0.035,1.123,0.077c0.21,0.042,2.588,0.818,4.827,1.62
		c2.238,0.802,7.599,4.604,7.871,4.882c0.272,0.278,1.164,1.509,1.463,2.059c0.3,0.549,0.617,6.595,0.684,11.928l0.14,11.209
		c0.071,5.332,0.156,11.595,0.189,13.917c0.033,2.323,0.104,8.652,0.076,8.921c-0.028,0.269-0.979,1.572-1.677,2.386
		c-0.696,0.814-3.26,3.421-4.056,4.048c-0.795,0.626-3.757,2.283-4.575,2.661c-0.818,0.379-3.365,1.011-3.674,1.051
		c-0.309,0.04-1.493-0.052-1.935-0.184c-0.442-0.131-0.997-2.221-1.11-3.273c-0.112-1.053-0.391-7.018-0.536-10.907
		c-0.145-3.889-0.498-18.526-0.588-23.858l-0.272-15.531c-0.074-5.332-0.134-9.848-0.134-10.035c0-0.188,0.107-0.723,0.238-0.774
		C112.108,14.701,113.517,14.557,113.924,14.557z"/>
</g>
</svg>
