<?xml version="1.0" encoding="utf-8"?>
<!-- (c) mapshakers 2015, Licence: CC0 1.0 Universal, www.mapshakers.com  -->
<!DOCTYPE svg PUBLIC "-//W3C//DTD SVG 1.1//EN" "http://www.w3.org/Graphics/SVG/1.1/DTD/svg11.dtd">
<svg version="1.1" id="ticket" xmlns="http://www.w3.org/2000/svg" xmlns:xlink="http://www.w3.org/1999/xlink" x="0px" y="0px"
	 width="256px" height="256px" viewBox="0 0 256 256" style="enable-background:new 0 0 256 256;" xml:space="preserve">
<style type="text/css">
<![CDATA[
	.st0{fill:#464646;}
	.st1{fill:#D1D1D1;}
]]>
</style>
<path class="st1" d="M244.146,77.729c-1.859-1.945-3.754-3.825-5.584-5.643c-1.205-1.197-2.408-2.391-3.631-3.633
	c-1.242-1.254-2.513-2.611-3.738-3.922l-0.918-0.979c-2.207-2.354-5.211-3.564-8.236-3.564c-2.352,0-4.717,0.731-6.729,2.228
	c-3.477,2.583-7.021,3.891-10.535,3.891c-3.771,0-7.649-1.579-10.385-4.22c-4.336-4.194-7.357-9.815-0.162-22.428
	c2.525-4.425,1.771-9.995-1.838-13.592L179.293,12.83c-4.584-4.556-9.65-6.865-15.063-6.865c-5.426,0-10.498,2.319-15.072,6.892
	c-6.383,6.375-12.768,12.759-19.135,19.143c-2.162,2.166-3.351,5.114-3.294,8.172c0.054,3.058,1.347,5.964,3.583,8.052
	c0.057,0.053,0.115,0.107,0.174,0.162c0.053,0.071,0.106,0.183,0.109,0.346c0,0.249-0.129,0.376-0.183,0.429
	c-0.05,0.047-0.175,0.174-0.423,0.174c-0.157,0-0.268-0.051-0.336-0.096c-0.045-0.051-0.09-0.1-0.137-0.151
	c-2.083-2.256-4.998-3.566-8.067-3.627c-0.075-0.001-0.15-0.002-0.225-0.002c-2.991,0-5.863,1.187-7.982,3.306
	c-33.829,33.82-67.656,67.643-101.502,101.493l-0.177,0.178c-0.365,0.362-0.729,0.733-1.147,1.194
	c-7.263,8.134-7.129,19.642,0.318,27.361c3.245,3.362,6.613,6.666,9.872,9.862c1.522,1.489,3.058,2.996,4.604,4.531
	c2.189,2.174,5.065,3.275,7.954,3.275c2.517,0,5.041-0.838,7.126-2.534c3.131-2.551,6.356-3.79,9.861-3.79l0.193,0.002
	c3.869,0.037,7.041,1.266,9.955,3.839c2.643,2.349,4.255,5.158,4.92,8.56c0.885,4.595-0.277,8.766-3.656,13.127
	c-3.477,4.486-3.082,10.854,0.923,14.879c1.284,1.291,2.554,2.572,3.817,3.847c3.458,3.491,7.036,7.101,10.616,10.586
	c2.065,2.044,4.658,3.647,7.557,4.661c2.141,0.738,4.32,1.112,6.478,1.112c5.465,0,10.561-2.345,15.12-6.938
	c33.717-33.754,67.436-67.471,101.172-101.202c4.401-4.404,4.409-11.543,0.014-15.956c-0.233-0.235-0.233-0.616,0-0.851
	c0.05-0.047,0.175-0.173,0.416-0.173c0.244,0,0.37,0.123,0.421,0.169c2.184,2.089,4.993,3.131,7.803,3.13
	c2.854,0,5.715-1.078,7.908-3.231l3.692-3.621c5.667-5.548,11.524-11.284,17.169-17.077
	C252.084,97.581,251.854,85.766,244.146,77.729z"/>
<path class="st0" d="M235.991,87.793c-2.964-3.098-6.07-6.076-9.074-9.131c-1.681-1.694-3.301-3.45-4.871-5.125
	c-13.862,10.302-27.961,6.013-35.5-1.277c-9.788-9.467-10.563-21.339-2.119-36.138c-4.325-4.312-8.719-8.672-13.089-13.024
	c-4.809-4.778-9.41-4.778-14.195,0.005c-6.377,6.371-12.76,12.75-19.121,19.129c0.125,0.117,0.258,0.225,0.381,0.349
	c4.646,4.644,4.647,12.176,0,16.82c-4.641,4.645-12.172,4.645-16.815,0c-0.125-0.126-0.235-0.263-0.354-0.393
	c-33.83,33.82-67.657,67.642-101.474,101.463c-0.305,0.307-0.619,0.611-0.916,0.938c-3.31,3.706-3.422,8.433,0.021,12.002
	c4.6,4.769,9.391,9.348,14.303,14.223c5.057-4.116,10.81-6.396,17.29-6.323c6.563,0.063,12.391,2.313,17.346,6.688
	c4.494,3.994,7.354,8.971,8.507,14.862c1.598,8.295-0.755,15.644-5.816,22.179c4.871,4.894,9.558,9.685,14.346,14.345
	c0.905,0.904,2.122,1.621,3.318,2.04c4.031,1.388,7.121-0.294,9.934-3.129c33.721-33.754,67.438-67.475,101.178-101.208
	c-4.633-4.648-4.629-12.168,0.013-16.809c4.583-4.58,11.963-4.634,16.622-0.179c7.011-6.879,13.947-13.603,20.676-20.507
	C239.854,96.223,239.418,91.364,235.991,87.793z M165.688,86.687c-4.645,4.645-12.172,4.644-16.818,0
	c-4.646-4.645-4.646-12.175,0-16.82c4.645-4.645,12.175-4.645,16.818,0C170.329,74.512,170.329,82.042,165.688,86.687z
	 M191.92,112.919c-4.643,4.646-12.175,4.645-16.818,0c-4.642-4.644-4.642-12.174,0-16.82c4.646-4.645,12.176-4.645,16.818,0
	C196.564,100.744,196.566,108.275,191.92,112.919z"/>
</svg>
