<?xml version="1.0" encoding="utf-8"?>
<!-- (c) mapshakers 2015, Licence: CC0 1.0 Universal, www.mapshakers.com  -->
<!DOCTYPE svg PUBLIC "-//W3C//DTD SVG 1.1//EN" "http://www.w3.org/Graphics/SVG/1.1/DTD/svg11.dtd">
<svg version="1.1" id="town" xmlns="http://www.w3.org/2000/svg" xmlns:xlink="http://www.w3.org/1999/xlink" x="0px" y="0px"
	 width="256px" height="256px" viewBox="0 0 256 256" style="enable-background:new 0 0 256 256;" xml:space="preserve">
<style type="text/css">
<![CDATA[
	.st0{fill:#464646;}
	.st1{fill:#D1D1D1;}
]]>
</style>
<path class="st1" d="M200.553,65.648L169.872,42.55c-4.063-3.058-9.324-4.742-14.813-4.742c-5.488,0-10.748,1.684-14.814,4.743
	l-30.681,23.098c-7.408,5.578-12.784,16.355-12.784,25.627v25.352l-5.024-3.783c-3.203-2.411-7.314-3.738-11.579-3.738
	c-4.265,0-8.376,1.328-11.579,3.739l-19.4,14.605c-5.533,4.166-9.549,12.216-9.549,19.141v55.719c0,9.354,7.61,16.963,16.964,16.963
	h47.127c9.354,0,16.964-7.609,16.964-16.963v-2.412c0.985,0.324,2.035,0.507,3.129,0.507h68.488
	c11.588,0,21.015-9.429,21.015-21.017V91.28C213.338,82.005,207.962,71.226,200.553,65.648z"/>
<g>
	<path class="st0" d="M194.538,73.637L163.857,50.54c-4.84-3.643-12.758-3.643-17.6,0l-30.68,23.097
		c-4.839,3.644-8.799,11.581-8.799,17.639v26.864l8.713,6.562c4.832,3.637,8.34,10.668,8.34,16.717v15.869
		c0.118-0.013,0.237-0.021,0.357-0.021h21.741c2.393,0,4.348,1.957,4.348,4.35v10.869c0,2.392-1.955,4.35-4.348,4.35h-21.741
		c-0.12,0-0.239-0.009-0.357-0.02v13.586h68.488c6.06,0,11.015-4.957,11.015-11.016V91.276
		C203.337,85.218,199.378,77.28,194.538,73.637z M150.277,107.211c0,2.391-1.955,4.348-4.348,4.348h-21.741
		c-2.391,0-4.348-1.957-4.348-4.348V96.34c0-2.391,1.957-4.348,4.348-4.348h21.741c2.393,0,4.348,1.957,4.348,4.348V107.211z
		 M160.947,107.211V96.34c0-2.391,1.955-4.348,4.349-4.348h21.738c2.394,0,4.35,1.957,4.35,4.348v10.871
		c0,2.391-1.956,4.348-4.35,4.348h-21.738C162.902,111.558,160.947,109.601,160.947,107.211z M193.146,141.375
		c0,2.393-1.955,4.35-4.351,4.35h-21.737c-2.394,0-4.351-1.957-4.351-4.35v-10.87c0-2.391,1.957-4.348,4.351-4.348h21.737
		c2.396,0,4.351,1.957,4.351,4.348V141.375z"/>
	<path class="st0" d="M105.139,135.439L85.74,120.834c-3.06-2.304-8.068-2.304-11.128,0l-19.4,14.605
		c-3.06,2.304-5.564,7.319-5.564,11.15v55.719c0,3.83,3.134,6.963,6.964,6.963h47.127c3.831,0,6.964-3.133,6.964-6.963V146.59
		C110.703,142.762,108.2,137.742,105.139,135.439z M58.354,158.549v-6.965c0-1.532,1.253-2.785,2.786-2.785h13.929
		c1.532,0,2.786,1.253,2.786,2.785v6.965c0,1.531-1.253,2.786-2.786,2.786H61.14C59.607,161.335,58.354,160.08,58.354,158.549z
		 M79.015,196.157c0,1.532-1.253,2.786-2.786,2.786H62.3c-1.533,0-2.786-1.254-2.786-2.786v-6.964c0-1.533,1.253-2.787,2.786-2.787
		h13.929c1.533,0,2.786,1.254,2.786,2.787V196.157z M102.462,181.531c0,1.531-1.253,2.785-2.786,2.785H85.747
		c-1.532,0-2.786-1.254-2.786-2.785v-6.965c0-1.532,1.254-2.785,2.786-2.785h13.929c1.532,0,2.786,1.253,2.786,2.785V181.531z"/>
</g>
</svg>
