<?xml version="1.0" encoding="utf-8"?>
<!-- (c) mapshakers 2015, Licence: CC0 1.0 Universal, www.mapshakers.com  -->
<!DOCTYPE svg PUBLIC "-//W3C//DTD SVG 1.1//EN" "http://www.w3.org/Graphics/SVG/1.1/DTD/svg11.dtd">
<svg version="1.1" id="traffic_signal" xmlns="http://www.w3.org/2000/svg" xmlns:xlink="http://www.w3.org/1999/xlink" x="0px" y="0px"
	 width="256px" height="256px" viewBox="0 0 256 256" style="enable-background:new 0 0 256 256;" xml:space="preserve">
<style type="text/css">
<![CDATA[
	.st0{fill:#D1D1D1;}
	.st1{fill:#454545;}
]]>
</style>
<path class="st0" d="M230.263,169.385c-2.234-4.7-7.086-7.507-12.98-7.507H193.63l33.428-36.684c0.125-0.137,0.246-0.276,0.363-0.42
	c5.92-7.271,3.959-13.527,2.841-15.88c-2.233-4.7-7.086-7.507-12.979-7.507H193.63l33.428-36.684
	c0.125-0.137,0.246-0.276,0.363-0.42c5.92-7.271,3.959-13.527,2.841-15.88c-2.233-4.7-7.087-7.507-12.979-7.507h-36.77
	c-0.531,0-1.049,0.054-1.559,0.134c-4.539-9.495-14.238-16.071-25.445-16.071h-51.833c-11.171,0-20.845,6.532-25.403,15.978
	c-0.26-0.021-0.52-0.04-0.784-0.04h-36.77c-5.894,0-10.746,2.807-12.98,7.507c-1.118,2.353-3.08,8.61,2.841,15.88
	c0.117,0.144,0.238,0.283,0.363,0.42l33.429,36.684H38.719c-5.894,0-10.746,2.807-12.98,7.507c-1.118,2.353-3.08,8.609,2.841,15.88
	c0.117,0.144,0.238,0.283,0.362,0.42l33.429,36.684H38.718c-5.894,0-10.746,2.807-12.98,7.507c-1.118,2.353-3.08,8.609,2.841,15.88
	c0.117,0.144,0.238,0.283,0.362,0.42l39.154,42.967c1.933,2.121,4.634,3.265,7.394,3.265c0.425,0,0.852-0.037,1.277-0.092
	c4.738,8.92,14.123,15.011,24.908,15.011h51.833c10.834,0,20.255-6.148,24.972-15.135c0.673,0.14,1.353,0.216,2.03,0.216
	c2.76,0,5.461-1.144,7.395-3.265l39.154-42.967c0.124-0.137,0.244-0.276,0.361-0.42
	C233.343,177.994,231.381,171.737,230.263,169.385z"/>
<g>
	<path class="st1" d="M153.917,34.959h-51.833c-10.044,0-18.187,8.143-18.187,18.187v165.503c0,10.044,8.143,18.186,18.187,18.186
		h51.833c10.046,0,18.188-8.142,18.188-18.186V53.146C172.104,43.102,163.963,34.959,153.917,34.959z M128.001,224.53
		c-13.886,0-25.141-11.255-25.141-25.141s11.255-25.142,25.141-25.142c13.885,0,25.142,11.256,25.142,25.142
		S141.886,224.53,128.001,224.53z M128.001,162.743c-13.886,0-25.141-11.256-25.141-25.142c0-13.885,11.255-25.141,25.141-25.141
		c13.885,0,25.142,11.255,25.142,25.141C153.143,151.487,141.886,162.743,128.001,162.743z M128.001,100.956
		c-13.885,0-25.141-11.256-25.141-25.141c0-13.885,11.256-25.141,25.141-25.141c13.885,0,25.142,11.256,25.142,25.141
		C153.143,89.699,141.886,100.956,128.001,100.956z"/>
	<path class="st1" d="M36.743,57.969l39.155,42.967V50.897h-36.77C34.648,50.897,33.575,54.08,36.743,57.969z"/>
	<path class="st1" d="M36.743,118.459l39.154,42.967v-50.038h-36.77C34.648,111.388,33.575,114.569,36.743,118.459z"/>
	<path class="st1" d="M36.742,178.949l39.154,42.967v-50.038h-36.77C34.646,171.878,33.574,175.06,36.742,178.949z"/>
	<path class="st1" d="M217.69,50.897h-36.77v50.038l39.154-42.967C223.243,54.08,222.17,50.897,217.69,50.897z"/>
	<path class="st1" d="M217.69,111.388h-36.77v50.038l39.154-42.967C223.243,114.569,222.171,111.388,217.69,111.388z"/>
	<path class="st1" d="M217.691,171.878h-36.77v50.038l39.154-42.967C223.244,175.06,222.172,171.878,217.691,171.878z"/>
</g>
</svg>
