<?xml version="1.0" encoding="utf-8"?>
<!-- (c) mapshakers 2015, Licence: CC0 1.0 Universal, www.mapshakers.com  -->
<!DOCTYPE svg PUBLIC "-//W3C//DTD SVG 1.1//EN" "http://www.w3.org/Graphics/SVG/1.1/DTD/svg11.dtd">
<svg version="1.1" id="tram_stop" xmlns="http://www.w3.org/2000/svg" xmlns:xlink="http://www.w3.org/1999/xlink" x="0px" y="0px"
	 width="256px" height="256px" viewBox="0 0 256 256" style="enable-background:new 0 0 256 256;" xml:space="preserve">
<style type="text/css">
<![CDATA[
	.st0{fill:#D1D1D1;}
	.st1{fill:#454545;}
]]>
</style>
<path class="st0" d="M77.862,252.271c-8.207,0-14.883-6.676-14.883-14.883s6.677-14.884,14.883-14.884h19.152V58.178
	C90.412,52.324,86.48,43.81,86.48,34.851c0-17.161,13.962-31.122,31.123-31.122c17.162,0,31.123,13.961,31.123,31.122
	c0,7.011-2.408,13.75-6.619,19.154h42.66c17.968,0,32.588,14.619,32.588,32.587v79.951c0,8.597-3.321,16.708-9.351,22.842
	c-6.178,6.285-14.432,9.746-23.237,9.746h-46.575v23.373h22.345c8.207,0,14.883,6.677,14.883,14.884s-6.676,14.883-14.883,14.883
	H77.862z"/>
<g>
	<rect x="107.608" y="30.107" class="st1" width="22.025" height="206.846"/>
</g>
<circle class="st1" cx="118.621" cy="35.853" r="21.546"/>
<g>
	<path class="st1" d="M161.554,243.696H78.879c-2.931,0-5.307-2.376-5.307-5.307c0-2.933,2.376-5.308,5.307-5.308h82.674
		c2.931,0,5.307,2.375,5.307,5.308C166.86,241.32,164.484,243.696,161.554,243.696z"/>
</g>
<path class="st1" d="M185.784,64.583H131.1c-12.709,0-23.012,10.303-23.012,23.012v79.951c0,12.709,10.303,23.012,23.012,23.012
	h54.685c12.709,0,23.012-10.303,23.012-23.012V87.594C208.796,74.886,198.493,64.583,185.784,64.583z M194.271,101.645h-23.638
	v71.196h-18.456v-71.196H128.54V86.388h65.731V101.645z"/>
</svg>