<?xml version="1.0" encoding="utf-8"?>
<!-- (c) mapshakers 2015, Licence: CC0 1.0 Universal, www.mapshakers.com  -->
<!DOCTYPE svg PUBLIC "-//W3C//DTD SVG 1.1//EN" "http://www.w3.org/Graphics/SVG/1.1/DTD/svg11.dtd">
<svg version="1.1" id="university" xmlns="http://www.w3.org/2000/svg" xmlns:xlink="http://www.w3.org/1999/xlink" x="0px" y="0px"
	 width="256px" height="256px" viewBox="0 0 256 256" style="enable-background:new 0 0 256 256;" xml:space="preserve">
<style type="text/css">
<![CDATA[
	.st0{fill:#D1D1D1;}
	.st1{fill:#454545;}
]]>
</style>
<path class="st0" d="M241.767,93.769c-0.254-2.651-1.812-9.157-10.764-12.305l-85.778-30.159c-3.613-1.27-8.233-1.97-13.01-1.97
	c-3.217,0-7.98,0.314-12.413,1.81L30.06,81.433c-9.03,3.047-10.635,9.546-10.906,12.199c-0.264,2.581-0.005,8.975,7.579,13.751
	c-4.046,2.518-7.191,7.591-7.191,15.564v41.605c0,2.837-0.545,5.391-0.92,6.468c-1.442,1.771-2.246,3.997-2.246,6.314v3.228
	c0,0.894,0.12,1.777,0.352,2.629c-0.047,0.141-0.105,0.293-0.177,0.443c-2.086,4.415-1.989,10.264,0.256,15.266
	c2.145,4.779,5.985,8.193,10.814,9.611c1.28,0.376,2.626,0.566,3.999,0.566c0,0,0,0,0,0c8.52,0,16.283-7.389,19.422-12.354
	c3.739-5.915,2.58-10.555,1.518-12.842c0.342-1.018,0.52-2.091,0.52-3.181v-1.334c2.112,3.779,5.056,7.109,8.56,9.401
	c0.467,0.306,0.959,0.571,1.471,0.795l53.396,23.322c4.714,2.164,9.752,2.62,13.162,2.62c3.411,0,8.454-0.457,13.171-2.624
	l53.351-23.412c0.475-0.209,0.933-0.453,1.37-0.733c7.842-5.016,12.956-15.146,12.162-24.088
	c-0.332-3.733-2.151-11.172-4.232-17.304c-1.587-4.674-4.552-12.47-7.614-18.595l35.66-20.854
	C241.728,103.104,242.021,96.42,241.767,93.769z"/>
<path class="st1" d="M32.415,99.154c-4.748-2.777-4.369-6.487,0.843-8.246L123,60.62c5.211-1.759,13.72-1.705,18.909,0.119
	l85.777,30.159c5.188,1.824,5.549,5.588,0.801,8.365l-89.311,52.229c-4.748,2.776-12.518,2.776-17.265,0L32.415,99.154z
	 M145.514,164.519c-4.748,2.776-10.256,5.997-12.239,7.157s-5.229,1.16-7.213,0s-7.491-4.381-12.239-7.158l-42.829-25.047
	c-4.748-2.777-9.033-0.566-9.522,4.911c0,0-1.436,15.985-1.895,21.151s2.932,11.855,7.535,14.866l53.492,23.364
	c4.985,2.323,13.142,2.323,18.127,0l53.439-23.451c4.634-2.964,8.049-9.613,7.59-14.779c-0.459-5.165-6.669-28.839-11.417-26.063
	L145.514,164.519z M43.488,188.09c-1.308-2.754-1.492-6.078-0.409-7.389c0,0,0,0,0-1.469c0-1.897,0-1.897,0-1.897
	c-1.742-1.53-3.167-7.283-3.167-12.783v-35.687c0-5.5-2.333-11.332-5.186-12.959s-5.186,1.542-5.186,7.042v41.605
	c0,5.5-1.425,11.252-3.166,12.782c0,0,0,0,0,1.897c0,1.33,0,1.33,0,1.33c0.902,1.22,0.549,4.525-0.784,7.346
	c-1.333,2.821-0.317,9.492,4.847,11.009S44.796,190.843,43.488,188.09z"/>
</svg>
