<?xml version="1.0" encoding="utf-8"?>
<!-- (c) mapshakers 2015, Licence: CC0 1.0 Universal, www.mapshakers.com  -->
<!DOCTYPE svg PUBLIC "-//W3C//DTD SVG 1.1//EN" "http://www.w3.org/Graphics/SVG/1.1/DTD/svg11.dtd">
<svg version="1.1" id="viewtower" xmlns="http://www.w3.org/2000/svg" xmlns:xlink="http://www.w3.org/1999/xlink" x="0px" y="0px"
	 width="256px" height="256px" viewBox="0 0 256 256" style="enable-background:new 0 0 256 256;" xml:space="preserve">
<style type="text/css">
<![CDATA[
	.st0{fill:#D1D1D1;}
	.st1{fill:#454545;}
]]>
</style>
<path class="st0" d="M184.752,7.145c-1.617,0-3.243,0.275-4.84,0.818c-3.456,1.18-7.001,2.26-10.542,3.211
	c-7.349,1.979-12.89,9.302-12.89,17.036v7.893c-2.362,0.437-4.744,0.823-7.129,1.157v-4.89c0-8.645-6.901-15.679-15.384-15.679
	c-0.214,0-0.428,0.004-0.647,0.014c-2.317,0.098-4.668,0.147-6.988,0.147c-2.09,0-4.208-0.041-6.302-0.12
	c-0.193-0.007-0.387-0.011-0.579-0.011c-8.496,0-15.407,7.043-15.407,15.701v4.938c-2.389-0.324-4.775-0.701-7.143-1.127v-7.856
	c0.001-7.753-5.559-15.073-12.938-17.027c-3.746-0.989-7.504-2.125-11.179-3.379c-2.074-0.706-4.118-1.063-6.077-1.063
	c-2.666,0-5.156,0.689-7.201,1.995c-3.325,2.123-5.31,5.738-5.309,9.67c0,1.352-0.003,2.493-0.008,2.801h0.012
	c-0.013,0.224-0.02,0.451-0.021,0.682l-0.007,5.568c0,0-0.002,8.966-0.006,9.32h0.011c-0.009,0.191-0.014,0.384-0.014,0.581
	c0,0-0.002,12.247,0.001,13.344c0.006,1.862,0.019,6.177,3.211,9.116c0.792,0.869,2.294,2.513,4.01,4.35
	c5.974,6.396,12.174,12.617,18.427,18.486c0.606,0.57,1.109,1.132,1.477,1.585v2.828c0,2.281,0.691,4.434,1.913,6.34
	c-2.187,2.5-3.495,5.83-3.495,9.6v15.902c0,4.316,1.729,8.576,4.531,11.895c-2.808,2.574-4.531,6.327-4.531,10.66v13.65
	c0,4.316,1.729,8.574,4.53,11.895c-2.808,2.574-4.53,6.327-4.53,10.659v13.649c0,4.315,1.729,8.576,4.53,11.895
	c-2.808,2.574-4.53,6.328-4.53,10.66v16.545c0,7.727,5.533,15.275,12.859,17.561c11.264,3.524,22.963,5.313,34.773,5.313
	c0,0,0,0,0.001,0c2.589,0,5.214-0.088,7.788-0.261c5.316-0.352,10.014-3.389,12.785-7.711c2.566,2.23,5.833,3.449,9.337,3.449
	c0.001,0,0.001,0,0.002,0c1.537,0,3.084-0.238,4.552-0.694l0.297-0.093c7.334-2.287,12.867-9.836,12.869-17.563V214.04
	c0-4.333-1.724-8.087-4.531-10.66c2.802-3.319,4.529-7.577,4.531-11.894v-13.65c0-4.333-1.724-8.086-4.531-10.66
	c2.802-3.318,4.529-7.576,4.531-11.893v-13.651c0-4.333-1.724-8.087-4.533-10.661c2.804-3.319,4.531-7.578,4.533-11.894v-15.902
	c0-4.347-1.734-8.11-4.559-10.685c0.646-1.396,0.988-2.91,0.988-4.508v-3.926c0.463-0.429,0.955-0.887,1.465-1.363
	c6.244-5.827,12.438-12.004,18.406-18.359c1.705-1.814,3.195-3.438,3.996-4.313c3.229-2.937,3.235-7.289,3.237-9.169l0.003-29.356
	C198.507,13.314,192.592,7.145,184.752,7.145z"/>
<g>
	<g>
		<path class="st1" d="M107.551,108.194c0.001-3.303-2.713-6.492-5.991-7.313c-2.015-0.503-4.018-1.065-6.007-1.688
			c-3.24-1.009-5.845,0.681-5.845,3.983c0,5.301,0,10.602,0,15.902c0,3.297,2.606,7.007,5.845,8.017
			c1.989,0.623,3.993,1.186,6.007,1.688c3.279,0.82,5.992-1.391,5.991-4.688C107.551,118.795,107.551,113.495,107.551,108.194z"/>
	</g>
	<g>
		<path class="st1" d="M124.6,104.013c-3.354-0.083-6.092,2.366-6.092,5.668c0,5.301,0,10.602,0,15.902
			c0,3.297,2.738,6.249,6.092,6.332c11.63,0.299,23.296-1.31,34.525-4.821c3.238-1.01,5.844-4.72,5.846-8.017
			c0-5.301,0-10.602,0-15.902c0-3.303-2.607-4.993-5.846-3.983C147.896,102.706,136.229,104.313,124.6,104.013z"/>
	</g>
</g>
<g>
	<g>
		<path class="st1" d="M138.105,147.96c0-3.304-2.734-5.7-6.088-5.558c-12.271,0.539-24.613-1.045-36.465-4.754
			c-3.24-1.01-5.845,0.682-5.845,3.983c0,4.552,0,9.101,0,13.651c0,3.297,2.606,7.007,5.845,8.017
			c11.853,3.71,24.195,5.294,36.465,4.753c3.354-0.144,6.088-3.146,6.088-6.441C138.105,157.061,138.105,152.512,138.105,147.96z"/>
	</g>
	<g>
		<path class="st1" d="M155.012,138.846c-3.267,0.883-5.973,4.123-5.973,7.426c0,4.551,0,9.101,0,13.65
			c0,3.297,2.706,5.458,5.973,4.575c1.377-0.37,2.748-0.769,4.113-1.196c3.238-1.01,5.844-4.72,5.846-8.017
			c0-4.552,0-9.101,0-13.651c0-3.303-2.607-4.992-5.846-3.982C157.76,138.076,156.389,138.477,155.012,138.846z"/>
	</g>
</g>
<g>
	<g>
		<path class="st1" d="M116.979,184.204c0-3.304-2.738-6.246-6.063-6.769c-5.181-0.81-10.317-2.004-15.364-3.582
			c-3.24-1.01-5.845,0.681-5.845,3.982c0,4.551,0,9.102,0,13.65c0,3.297,2.606,7.007,5.845,8.017
			c5.047,1.579,10.183,2.772,15.364,3.582c3.325,0.522,6.063-1.935,6.063-5.231C116.979,193.305,116.979,188.755,116.979,184.204z"
			/>
	</g>
	<g>
		<path class="st1" d="M135.63,178.387c-3.349,0.266-6.095,2.998-6.094,6.301c0,4.551,0,9.101,0,13.649
			c0,3.298,2.746,5.966,6.094,5.7c7.937-0.62,15.817-2.131,23.495-4.533c3.238-1.01,5.844-4.72,5.846-8.018c0-4.549,0-9.1,0-13.649
			c0-3.303-2.607-4.993-5.846-3.983C151.447,176.256,143.564,177.768,135.63,178.387z"/>
	</g>
</g>
<g>
	<g>
		<path class="st1" d="M140.547,220.092c0-3.303-2.729-5.639-6.078-5.417c-13.076,0.878-26.274-0.661-38.917-4.616
			c-3.24-1.011-5.845,0.68-5.845,3.982c0,5.516,0,11.029,0,16.545c0,3.297,2.606,7.007,5.845,8.018
			c12.642,3.955,25.841,5.494,38.917,4.617c3.35-0.223,6.078-3.287,6.078-6.584C140.547,231.121,140.547,225.605,140.547,220.092z"
			/>
	</g>
	<g>
		<path class="st1" d="M158.877,210.135c-3.238,1.01-5.93,4.352-5.93,7.653c0,5.515,0,11.028,0,16.545
			c0,3.297,2.689,5.354,5.93,4.347c0.083-0.025,0.165-0.051,0.248-0.076c3.238-1.01,5.844-4.721,5.846-8.018
			c0-5.516,0-11.029,0-16.545c0-3.303-2.607-4.993-5.846-3.982C159.042,210.084,158.96,210.109,158.877,210.135z"/>
	</g>
</g>
<path class="st1" d="M171.971,20.831c-3.01,0.81-5.488,4.079-5.488,7.38c0,3.337,0,6.675,0,10.013c0,3.298-2.478,6.591-5.521,7.201
	c-5.305,1.065-10.646,1.883-16.009,2.454c-3.077,0.33-5.603-2.196-5.601-5.494c0-3.338,0-6.675,0-10.013
	c0-3.302-2.523-5.802-5.61-5.674c-4.693,0.198-9.392,0.208-14.085,0.029c-3.088-0.116-5.612,2.396-5.612,5.697
	c0,3.337,0,6.675,0,10.013c0,3.298-2.524,5.834-5.602,5.518c-5.364-0.548-10.709-1.344-16.018-2.387
	c-3.046-0.597-5.523-3.879-5.524-7.178c0-3.337,0-6.675,0-10.013c0-3.301-2.481-6.56-5.493-7.357
	c-3.979-1.051-7.93-2.245-11.846-3.58c-2.964-1.008-5.366-0.551-5.365,1.134c0,1.684-0.006,3.059-0.013,3.057
	c-0.006-0.002-0.012,2.696-0.012,5.996c0,1.151,0,2.302,0,3.454c0,3.3-0.003,5.999-0.007,5.998
	c-0.003-0.001-0.006,2.697-0.006,5.998c0,1.175,0,2.35,0,3.525c0,3.3,0.008,6.003,0.019,6.007c0.01,0.002,2.033,2.246,4.516,4.903
	c5.915,6.333,11.912,12.341,17.965,18.024c2.54,2.386,4.63,5.336,4.629,6.636c0,1.299,0,3.579,0,5.065
	c0,1.484,2.488,3.218,5.546,3.737c19.532,3.322,39.489,3.321,59.021-0.004c3.058-0.519,5.545-1.915,5.545-2.985
	c0-1.073,0-3.352,0-5.065s0-3.151,0-3.196c0-0.046,2.097-1.962,4.643-4.339c6.045-5.641,12.034-11.606,17.941-17.896
	c2.488-2.648,4.512-4.883,4.517-4.884c0.004-0.001,0.008-2.703,0.008-6.003c0-1.175,0-2.35,0-3.525c0-3.3,0-8.7,0-12
	c0-3.192,0-6.384,0-9.577c-0.001-3.301-2.401-5.081-5.366-4.071C179.447,18.688,175.723,19.823,171.971,20.831z"/>
</svg>
