<?xml version="1.0" encoding="utf-8"?>
<!-- (c) mapshakers 2015, Licence: CC0 1.0 Universal, www.mapshakers.com  -->
<!DOCTYPE svg PUBLIC "-//W3C//DTD SVG 1.1//EN" "http://www.w3.org/Graphics/SVG/1.1/DTD/svg11.dtd">
<svg version="1.1" id="vineyard" xmlns="http://www.w3.org/2000/svg" xmlns:xlink="http://www.w3.org/1999/xlink" x="0px" y="0px"
	 width="256px" height="256px" viewBox="0 0 256 256" style="enable-background:new 0 0 256 256;" xml:space="preserve">
<style type="text/css">
<![CDATA[
	.st0{fill:#D1D1D1;}
	.st1{fill:#454545;}
]]>
</style>
<path class="st0" d="M221.864,78.557C193.923,51.893,156.842,37.8,114.632,37.8c-0.85,0-1.705,0.005-2.563,0.017
	c-0.468-2.992-0.815-6.024-1.039-9.073c-0.371-5.065-4.48-9.048-9.555-9.26c-0.926-0.039-1.857-0.092-2.791-0.144
	c-2.049-0.116-4.168-0.235-6.385-0.235c-1.63,0-3.114,0.065-4.535,0.199c-2.648,0.249-5.089,1.543-6.781,3.596
	c-1.692,2.053-2.496,4.696-2.234,7.343c0.297,3.003,0.502,6.785,0.655,10.561c-27.836,5.002-44.041,18.863-48.2,41.258
	c-0.49,2.638,0.101,5.363,1.64,7.561s3.897,3.686,6.543,4.128c0.176,0.029,0.335,0.074,0.47,0.133
	c1.348,0.584,2.712,1.125,4.085,1.645c-7.22,6.097-11.419,14.994-11.419,24.662c0,17.842,14.516,32.358,32.359,32.358
	c1.364,0,2.705-0.095,4.025-0.26c-0.744,2.72-1.149,5.577-1.149,8.528c0,17.843,14.515,32.358,32.357,32.358
	c1.414,0,2.804-0.102,4.171-0.278c-0.808,2.824-1.249,5.801-1.249,8.88c0,17.842,14.516,32.357,32.357,32.357
	c17.843,0,32.358-14.516,32.358-32.357c0-6.216-1.766-12.024-4.815-16.96c8.464-1.229,15.962-5.647,21.134-12.471
	c5.221-6.889,7.446-15.398,6.267-23.962c-0.62-4.497-2.164-8.683-4.421-12.373c0.252,0.006,0.502,0.018,0.755,0.018
	c1.548,0,3.113-0.107,4.654-0.32c8.958-1.234,16.898-5.883,22.36-13.091c5.462-7.208,7.79-16.111,6.556-25.07
	c-0.137-0.996-0.329-1.979-0.553-2.954c0.987-0.531,1.905-1.229,2.697-2.107C226.013,88.465,225.78,82.292,221.864,78.557z"/>
<circle class="st1" cx="100.118" cy="160.817" r="22.357"/>
<path class="st1" d="M180.435,149.75c1.686,12.232-6.866,23.515-19.098,25.199c-12.234,1.687-23.515-6.864-25.199-19.095
	c-1.686-12.234,6.863-23.516,19.095-25.201C167.466,128.969,178.747,137.516,180.435,149.75z"/>
<circle class="st1" cx="135.397" cy="201.776" r="22.357"/>
<path class="st1" d="M103.897,48.11c-1.119-4.755-2.284-11.053-2.84-18.636c-4.097-0.171-8.287-0.599-12.356-0.216
	c0.568,5.748,0.806,13.708,0.995,20.159c-1.229,0.152-2.346,0.297-3.325,0.425c-31.275,4.077-42.4,18.24-45.334,34.044
	c0.947,0.158,1.887,0.426,2.798,0.821c6.934,3.004,14.229,5.061,22.301,6.285c8.075,1.224,16.67,1.211,26.276-0.041
	c1.976-0.258,4.039-0.575,6.13-0.942c11.202-1.963,22.985-5.586,36.025-11.076c6.614-2.785,14.569-5.851,23.404-7.468
	c1.125-0.206,2.265-0.385,3.392-0.531c10.745-1.401,21.753-0.11,32.715,3.838c6.671,2.401,13.124,5.669,19.186,9.713
	c0.759,0.508,1.324,0.988,1.697,1.305C176.99,49.558,130.852,46.565,103.897,48.11z"/>
<path class="st1" d="M208.155,91.722c-4.739-2.865-9.693-5.244-14.777-7.075c-5.791-2.085-11.603-3.357-17.339-3.82
	c-8.897,4.446-14.402,14.196-12.97,24.596c1.8,13.053,13.837,22.177,26.895,20.378c13.05-1.798,22.174-13.837,20.375-26.891
	C209.985,96.344,209.23,93.932,208.155,91.722z"/>
<path class="st1" d="M133.731,90.58c-10.407,4.165-20.149,7.245-29.517,9.325c-1.744,3.184-2.737,6.837-2.737,10.724
	c0,12.348,10.01,22.358,22.357,22.358c12.349,0,22.357-10.01,22.357-22.358C146.192,101.834,141.114,94.23,133.731,90.58z"/>
<path class="st1" d="M79.477,103.258c-1.601,0.068-3.19,0.113-4.763,0.113c-5.029,0-9.969-0.362-14.684-1.077
	c-2.297-0.349-4.541-0.758-6.741-1.225c-6.454,3.921-10.764,11.018-10.764,19.121c0,12.348,10.01,22.358,22.359,22.358
	c12.348,0,22.358-10.01,22.358-22.358C87.242,113.42,84.229,107.358,79.477,103.258z"/>
</svg>
