<?xml version="1.0" encoding="utf-8"?>
<!-- (c) mapshakers 2015, Licence: CC0 1.0 Universal, www.mapshakers.com  -->
<!DOCTYPE svg PUBLIC "-//W3C//DTD SVG 1.1//EN" "http://www.w3.org/Graphics/SVG/1.1/DTD/svg11.dtd">
<svg version="1.1" id="water_tower" xmlns="http://www.w3.org/2000/svg" xmlns:xlink="http://www.w3.org/1999/xlink" x="0px"
	 y="0px" width="256px" height="256px" viewBox="0 0 256 256" style="enable-background:new 0 0 256 256;" xml:space="preserve">
<style type="text/css">
<![CDATA[
	.st0{fill:#D1D1D1;}
	.st1{fill:#454545;}
]]>
</style>
<path class="st0" d="M195.906,40.338c0.394-2.558,0.318-8.939-8.768-12.911C173.682,21.465,160,13.899,147.229,6.613
	c-3.74-2.135-8.518-3.31-13.457-3.31c-4.893,0-9.631,1.157-13.337,3.256c-12.975,7.338-26.849,14.947-40.365,20.869
	c-9.157,3.961-9.245,10.343-8.857,12.903c0.247,1.632,0.969,3.868,2.922,5.813c-2.136,3.384-2.822,7.646-1.87,11.934
	c0.624,2.822,1.246,5.663,1.868,8.527c1.022,4.69,3.517,8.321,6.868,10.35c-1.825,4.211-2.471,8.938-1.582,13.179
	c0.911,4.338,3.377,7.785,6.719,9.755c-1.99,4.211-2.696,9.191-1.712,13.994l1.346,6.583c1.64,8.026,8.112,15.392,15.417,17.817
	c-3.728,2.758-5.856,6.886-5.856,11.422v10.865c0,4.591,2.202,8.92,5.741,12.181c-3.658,2.757-5.742,6.849-5.741,11.337v10.867
	c0,4.59,2.202,8.918,5.741,12.18c-3.658,2.758-5.742,6.85-5.741,11.34v10.864c0,8.702,7.862,16.503,17.887,17.757
	c6.8,0.858,13.721,1.295,20.572,1.295c6.854,0,13.773-0.437,20.564-1.293c10.033-1.256,17.896-9.057,17.896-17.76v-10.863
	c0-4.621-2.203-8.613-5.782-11.305c3.563-3.266,5.782-7.607,5.782-12.216v-10.866c0-4.619-2.203-8.611-5.78-11.302
	c3.563-3.265,5.78-7.608,5.78-12.218v-10.863c0-4.714-2.287-8.781-5.997-11.471c7.479-2.293,14.182-9.813,15.854-17.996l0.268-1.311
	c0.787-3.856,1.439-9.779-0.426-14.545c2.662-2.659,4.688-6.587,5.699-11.423c1.056-5.046,0.231-9.643-2.28-13.045
	c3.769-4.073,6.748-9.339,7.819-14.228c0.555-2.55,1.11-5.086,1.666-7.598c0.955-4.296,0.27-8.56-1.867-11.944
	C194.934,44.202,195.656,41.969,195.906,40.338z"/>
<path class="st1" d="M172.422,106.79c1.373,0.842,1.686,5.413,0.697,10.247c-0.09,0.439-0.18,0.877-0.27,1.316
	c-0.986,4.828-5.391,9.951-9.854,10.997c-1.142,0.269-2.284,0.52-3.429,0.756c-1.479,0.305-2.963,0.582-4.447,0.834
	c-14.01,2.379-28.318,2.42-42.34,0.129c-2.64-0.43-5.27-0.944-7.886-1.541c-4.469-1.018-8.879-6.121-9.867-10.952
	c-0.449-2.202-0.898-4.398-1.348-6.588c-0.987-4.817,1.073-10.198,4.618-12.286c0.001,0.021,3.612-2.155,8.643,7.539
	c10.598,20.72,21.478-16.406,32.224,2.157c10.833,18.356,21.452-20.521,32.003-4.444
	C172.422,106.797,172.422,106.786,172.422,106.79z"/>
<path class="st1" d="M183.313,36.065c-13.488-5.976-27.179-13.497-40.769-21.249c-4.801-2.742-12.649-2.759-17.46-0.035
	c-13.755,7.779-27.612,15.334-41.265,21.317c-4.763,2.06-4.274,4.083,1.072,4.661c32.124,3.248,65.208,3.248,97.333,0
	C187.57,40.181,188.066,38.143,183.313,36.065z"/>
<path class="st1" d="M179.465,48.939c-30.259,3.689-61.549,3.689-91.809,0c-4.41-0.514-7.167,2.601-6.168,7.1
	c0.626,2.833,1.25,5.685,1.874,8.554c0.995,4.563,4.214,6.164,7.191,3.269c-0.01,0.142,8.94-9.014,16.14,4.286
	c10.575,20.058,21.371-17.307,32.045,1.406c10.762,18.526,21.328-19.805,31.918-2.746c3.873,6.022,4.099,5.792,4.103,5.816
	c4.083-2.512,8.202-8.4,9.199-12.948c0.558-2.561,1.116-5.106,1.676-7.638C186.634,51.54,183.872,48.425,179.465,48.939z"/>
<path class="st1" d="M174.075,84.546c-0.003-0.016,0.004,0.041-3.097-4.705c-10.58-16.787-21.158,21.685-31.938,3.219
	c-10.692-18.669-21.512,18.644-32.095-1.583c-6.61-12.345-14.232-5.092-14.227-5.193c-3.059,2.793-4.868,8.032-4.055,11.909
	c0.812,3.871,4.165,5.307,7.49,2.893c-0.001,0.043,5.131-3.822,10.728,6.841c10.592,20.546,21.449-16.64,32.178,1.962
	c10.813,18.402,21.418-20.327,31.979-3.989c1.871,2.794,1.868,2.772,1.87,2.778c2.047,0.545,4.511-2.958,5.492-7.653
	C179.384,86.334,177.452,83.491,174.075,84.546z"/>
<path class="st1" d="M162.807,149.704c0-3.779-4.311-6.005-9.625-5.339c-12.875,1.623-25.904,1.623-38.78,0
	c-5.313-0.666-9.624,1.56-9.623,5.339c0,3.621,0,7.243,0,10.864c0,3.771,4.311,7.721,9.623,8.387c12.876,1.624,25.905,1.624,38.78,0
	c5.314-0.666,9.625-4.616,9.625-8.387C162.807,156.947,162.807,153.325,162.807,149.704z"/>
<path class="st1" d="M162.807,184.087c0-3.778-4.311-6.004-9.625-5.338c-12.875,1.624-25.904,1.624-38.78,0
	c-5.313-0.666-9.624,1.56-9.623,5.338c0,3.622,0,7.244,0,10.866c0,3.77,4.311,7.721,9.623,8.387c12.876,1.624,25.905,1.624,38.78,0
	c5.314-0.666,9.625-4.617,9.625-8.387C162.807,191.331,162.807,187.709,162.807,184.087z"/>
<path class="st1" d="M162.807,218.473c0-3.779-4.311-6.004-9.625-5.339c-12.875,1.624-25.904,1.624-38.78,0
	c-5.313-0.665-9.624,1.56-9.623,5.339c0,3.621,0,7.243,0,10.864c0,3.771,4.311,7.722,9.623,8.388c12.876,1.623,25.905,1.623,38.78,0
	c5.314-0.666,9.625-4.617,9.625-8.388C162.807,225.716,162.807,222.094,162.807,218.473z"/>
</svg>
