<?xml version="1.0" encoding="utf-8"?>
<!-- (c) mapshakers 2015, Licence: CC0 1.0 Universal, www.mapshakers.com  -->
<!DOCTYPE svg PUBLIC "-//W3C//DTD SVG 1.1//EN" "http://www.w3.org/Graphics/SVG/1.1/DTD/svg11.dtd">
<svg version="1.1" id="waterpark" xmlns="http://www.w3.org/2000/svg" xmlns:xlink="http://www.w3.org/1999/xlink" x="0px" y="0px"
	 width="256px" height="256px" viewBox="0 0 256 256" style="enable-background:new 0 0 256 256;" xml:space="preserve">
<style type="text/css">
<![CDATA[
	.st0{fill:#464646;}
	.st1{fill:#D1D1D1;}
]]>
</style>
<path class="st1" d="M250.801,42.436c-2.344-1.669-5.035-2.574-7.76-3.28c-5.963-1.578-53.279,3.922-57.486-4.668
	c-3.291-6.705-9.975-10.87-17.445-10.87c-2.939,0-5.895,0.687-8.539,1.984L35.475,86.444c-6.693,3.281-10.959,10.217-10.87,17.669
	c0.033,2.756,0.022,6.029,0.011,9.194l-0.001,0.316c-0.007,1.566-0.012,3.071-0.012,4.429c0,30.296,25.605,55.892,55.914,55.892
	c9.606,0,19.072-2.518,27.403-7.282l66.131-31.699c0.915-0.291,1.797-0.644,2.639-1.055l16.694-8.21l32.152-15.411
	c0.624-0.299,1.216-0.662,1.765-1.083c11.055-8.48,18.723-19.906,22.176-33.041c0.949-3.61,1.695-7.325,2.418-10.917
	c0.842-4.188,1.637-8.144,2.717-11.901C255.782,49.267,254.255,44.896,250.801,42.436z"/>
<path class="st1" d="M233.747,199.78c-0.362-0.4-0.813-0.898-1.451-1.455c-6.289-5.493-13.134-10.16-20.346-13.873
	c-11.753-6.046-23.919-9.112-36.155-9.112c-1.281,0-2.585,0.034-3.873,0.102c-10.297,0.531-19.898,2.865-27.936,5.08
	c-16.603,4.574-31.432,7.098-45.336,7.709c-2.594,0.112-5.147,0.17-7.588,0.17c-11.986,0-22.564-1.365-32.338-4.178
	c-9.737-2.8-18.394-6.507-26.467-11.33c-1.593-0.953-3.365-1.416-5.127-1.416c-2.549,0-5.075,0.973-6.995,2.851
	c-3.246,3.175-3.946,8.138-1.705,12.087c6.781,11.943,15.159,21.212,25.612,28.333c6.871,4.681,13.505,7.922,20.281,9.909
	c7.093,2.08,14.442,3.136,21.842,3.136c7.832,0,15.877-1.183,23.91-3.512c6.593-1.912,13.066-4.173,19.39-6.474
	c-2.773,2.992-3.481,7.418-1.664,11.158c1.695,3.493,5.221,5.633,8.992,5.633c0.646,0,1.3-0.063,1.952-0.191
	c4.327-0.86,8.599-1.865,12.729-2.838c11.381-2.678,22.131-5.209,34.897-5.209c10.407,0,21.022,1.729,32.45,5.285
	c0.982,0.307,1.982,0.453,2.971,0.453c3.404,0,6.662-1.744,8.52-4.762c2.076-3.375,1.936-7.597-0.211-10.8
	c1.821-0.621,3.479-1.767,4.717-3.39c2.97-3.889,2.689-9.354-0.659-12.918C233.992,200.052,233.859,199.904,233.747,199.78z"/>
<path class="st1" d="M74.09,132.736"/>
<g>
	<path class="st0" d="M235.393,49.784l-123.109,60.371c-3.227,1.583-5.272,4.864-5.272,8.458c0,9.667-5.208,18.139-12.963,22.765
		c-0.031,0.019-0.063,0.034-0.093,0.054c-3.942,2.33-8.534,3.674-13.436,3.674c-14.675,0-27.073-12.389-27.073-27.052
		c0-1.323,0.005-2.79,0.01-4.316c0.005-1.285,0.01-2.637,0.013-3.994l118.794-58.247c4.672-2.29,6.602-7.934,4.313-12.605
		c-2.292-4.671-7.938-6.6-12.604-4.311L39.877,95.423c-3.264,1.6-5.316,4.936-5.272,8.57c0.035,2.93,0.022,6.359,0.011,9.675
		c-0.007,1.551-0.012,3.04-0.012,4.385c0,24.877,21.026,45.891,45.914,45.891c8.282,0,16.048-2.239,22.737-6.135l67.209-32.216
		c0.612-0.158,1.222-0.37,1.813-0.66l16.74-8.232l32.197-15.433c8.977-6.886,15.643-16.434,18.592-27.651
		c1.926-7.319,3.01-15.434,5.193-23.036C242.273,48.64,238.605,48.206,235.393,49.784z"/>
	<path class="st0" d="M225.719,205.857c-5.615-4.905-11.714-9.101-18.343-12.513c-10.964-5.641-22.539-8.557-34.938-7.918
		c-8.811,0.455-17.342,2.406-25.793,4.734c-15.584,4.295-31.349,7.346-47.557,8.059c-14.616,0.64-29.018-0.327-43.128-4.387
		c-10.113-2.908-19.751-6.929-28.833-12.356c5.69,10.022,12.989,18.496,22.546,25.006c5.44,3.705,11.153,6.727,17.466,8.578
		c13.418,3.936,26.926,3.451,40.152-0.385c10.845-3.145,21.407-7.291,32.042-11.131c13.417-4.847,27.071-8.449,41.429-8.988
		c12.645-0.475,24.701,1.789,36.122,7.246c3.246,1.555,6.375,3.357,9.989,5.275C226.281,206.447,226.025,206.125,225.719,205.857z"
		/>
	<path class="st0" d="M189.962,208.223c-17.293-2.619-38.383,3.721-53.166,16.375c24.315-4.834,46.707-14.418,84.999-2.5
		C221.795,222.098,211.518,211.486,189.962,208.223z"/>
</g>
</svg>
