<?xml version="1.0" encoding="utf-8"?>
<!-- (c) mapshakers 2015, Licence: CC0 1.0 Universal, www.mapshakers.com  -->
<!DOCTYPE svg PUBLIC "-//W3C//DTD SVG 1.1//EN" "http://www.w3.org/Graphics/SVG/1.1/DTD/svg11.dtd">
<svg version="1.1" id="water_well" xmlns="http://www.w3.org/2000/svg" xmlns:xlink="http://www.w3.org/1999/xlink" x="0px" y="0px"
	 width="256px" height="256px" viewBox="0 0 256 256" style="enable-background:new 0 0 256 256;" xml:space="preserve">
<style type="text/css">
<![CDATA[
	.st0{fill:#D1D1D1;}
	.st1{fill:#454545;}
]]>
</style>
<path class="st0" d="M231.001,63.962l-54.448-41.237c-3.417-2.632-8.637-4.396-13.023-4.396c-0.11,0-72.823,0-72.933,0
	c-4.387,0-9.608,1.764-13.024,4.396L23.124,63.964c-5.042,3.751-5.75,8.915-4.726,12.51c1.029,3.611,4.382,7.648,10.703,8.145
	c0.26,0.021,0.522,0.031,0.783,0.031h26.09c-0.028,0.357-0.055,0.714-0.055,1.078v62.574c0,0.683,0.065,1.352,0.161,2.013
	l-5.155-0.689c-0.64-0.09-1.289-0.135-1.93-0.135c-7.51,0-13.394,5.913-13.394,13.463v15.649c0,2.546,0.682,4.962,1.864,7.077
	c-1.179,2.017-1.863,4.375-1.863,6.929v13.396c0,2.286,0.571,4.485,1.574,6.455c-1.006,1.9-1.575,4.086-1.575,6.43v11.893
	c0,7.226,5.395,13.444,12.548,14.464c0.052,0.008,24.512,3.104,24.563,3.109c0.509,0.057,1.026,0.085,1.536,0.085
	c1.739,0,3.421-0.33,4.985-0.943c1.899,1.141,4.087,1.853,6.435,1.998c0.081,0.005,42.855,1.607,42.855,1.607
	c0.08,0.003,0.428,0.007,0.428,0.007c2.3,0,4.513-0.557,6.49-1.6c1.802,0.866,3.811,1.366,5.938,1.366h0.001
	c0.253,0,0.507-0.007,0.764-0.021c0.113-0.007,0.227-0.015,0.34-0.024l62.954-5.597c0.113-0.011,0.227-0.022,0.339-0.036
	c7.147-0.882,12.745-7.214,12.745-14.415v-11.896c0-2.323-0.56-4.49-1.547-6.382c0.989-1.971,1.549-4.182,1.549-6.501v-13.396
	c0-2.554-0.685-4.912-1.865-6.928c1.182-2.115,1.863-4.53,1.863-7.074v-15.65c0-7.546-5.879-13.457-13.385-13.457
	c-0.677,0-1.362,0.051-1.94,0.137l-5.156,0.713c0.099-0.671,0.165-1.351,0.165-2.043V85.729c0-0.365-0.026-0.723-0.055-1.08h26.091
	c0.262,0,0.523-0.01,0.784-0.031c6.321-0.497,9.673-4.534,10.702-8.146C236.754,72.877,236.045,67.712,231.001,63.962z"/>
<path class="st1" d="M129.887,185.007c0,2.199-1.791,4.223-3.983,4.441c-15.47,1.146-31.11,0.415-46.58-2.19
	c-2.188-0.426-3.973-2.617-3.973-4.816c0-5.217,0-10.434,0-15.65c0-2.201,1.786-3.609,3.973-3.184
	c15.47,2.606,31.11,3.337,46.58,2.191c2.193-0.219,3.983,1.357,3.983,3.559C129.887,174.574,129.887,179.79,129.887,185.007z"/>
<path class="st1" d="M183.65,166.279c0-2.201-1.783-3.586-3.97-3.141c-13.436,2.435-27.012,3.276-40.447,2.524
	c-2.191-0.173-3.981,1.436-3.981,3.637c0,5.217,0,10.434,0,15.65c0,2.199,1.79,4.19,3.981,4.363
	c13.436,0.752,27.012-0.09,40.447-2.524c2.187-0.445,3.969-2.66,3.97-4.859C183.65,176.713,183.65,171.496,183.65,166.279z"/>
<path class="st1" d="M192.106,161.713c-2.183,0.094-3.958,1.854-3.958,4.057c0,5.217,0,10.433,0,15.649
	c0,2.198,1.775,4.037,3.958,3.944c4.148-0.214,8.321-0.788,12.47-1.721c2.177-0.508,3.947-2.839,3.947-5.037
	c0-5.217,0-10.434,0-15.65c0-2.202-1.771-3.472-3.947-2.963C200.428,160.925,196.255,161.499,192.106,161.713z"/>
<path class="st1" d="M86.271,220.138c-2.189-0.396-3.977,1.031-3.977,3.232c0,3.965,0,7.931,0,11.896
	c0,2.199,1.787,4.371,3.977,4.768c14.164,2.227,28.479,2.759,42.644,1.597c2.194-0.232,3.984-2.27,3.984-4.469
	c0-3.965,0-7.931,0-11.896c0-2.201-1.79-3.764-3.984-3.531C114.75,222.896,100.435,222.364,86.271,220.138z"/>
<path class="st1" d="M99.396,198.284c0-2.201-1.785-3.884-3.972-3.794c-15.235,0.23-30.636-1.383-45.871-4.84
	c-2.175-0.55-3.951,0.756-3.95,2.957c0,4.466,0,8.931,0,13.396c0,2.199,1.775,4.493,3.95,5.043
	c15.235,3.457,30.636,5.071,45.871,4.841c2.187-0.09,3.972-2.007,3.972-4.206C99.396,207.216,99.396,202.75,99.396,198.284z"/>
<path class="st1" d="M108.458,195.118c-2.193-0.301-3.984,1.21-3.983,3.411c0,4.466,0,8.931,0,13.396
	c0,2.199,1.791,4.287,3.983,4.589c16.667,1.833,33.521,1.624,50.188-0.626c2.191-0.358,3.98-2.49,3.98-4.689
	c0-4.466,0-8.931,0-13.396c0-2.201-1.79-3.668-3.98-3.311C141.979,196.742,125.125,196.951,108.458,195.118z"/>
<path class="st1" d="M45.602,230.781c0,2.199,1.773,4.515,3.947,5.057c8.07,1.886,16.209,2.909,24.279,3.07
	c2.183,0.011,3.962-1.854,3.962-4.053c0-3.965,0-7.931,0-11.896c0-2.201-1.779-3.937-3.962-3.947
	c-8.07-0.16-16.209-1.184-24.279-3.068c-2.174-0.541-3.947,0.743-3.947,2.944C45.602,222.853,45.602,226.817,45.602,230.781z"/>
<path class="st1" d="M167.889,210.814c0,2.199,1.781,4.083,3.966,4.117c10.873-0.05,21.851-1.341,32.724-3.873
	c2.174-0.549,3.947-2.855,3.947-5.055c0-4.466,0-8.931,0-13.396c0-2.201-1.773-3.495-3.947-2.945
	c-10.873,2.532-21.851,3.822-32.724,3.872c-2.185-0.034-3.966,1.682-3.966,3.883C167.889,201.883,167.889,206.349,167.889,210.814z"
	/>
<path class="st1" d="M137.716,237.537c0.028,2.203,1.835,4.145,4.023,4.271c20.891,0.498,42.027-1.634,62.916-6.395
	c2.172-0.569,3.925-2.866,3.898-5.062c-0.048-3.958-0.096-7.916-0.144-11.874c-0.027-2.197-1.822-3.496-3.996-2.929
	c-20.891,4.74-42.026,6.853-62.915,6.335c-2.188-0.13-3.953,1.533-3.927,3.738C137.62,229.594,137.668,233.565,137.716,237.537z"/>
<path class="st1" d="M70.662,166.303c0-2.201-1.777-3.953-3.959-4.008c-5.705-0.212-11.449-0.976-17.154-2.293
	c-2.175-0.526-3.946,0.749-3.947,2.95c0,5.217,0,10.433,0,15.649c0,2.199,1.772,4.522,3.947,5.05
	c5.705,1.316,11.449,2.08,17.154,2.291c2.182,0.055,3.959-1.793,3.959-3.992C70.662,176.734,70.662,171.519,70.662,166.303z"/>
<path class="st1" d="M170.477,30.826c-1.735-1.44-4.955-2.566-7.154-2.493c-24.173,0-48.346,0-72.519,0
	c-2.199-0.073-5.418,1.052-7.154,2.493c-18.184,14.67-36.378,28.762-54.53,41.225c-1.77,1.173-1.427,2.401,0.763,2.746
	c64.692,4.994,129.673,4.994,194.364,0c2.189-0.345,2.533-1.573,0.763-2.746C206.855,59.588,188.661,45.496,170.477,30.826z"/>
<path class="st1" d="M112.602,118.65c-2.188-0.427-3.622,0.977-3.194,3.199c1.558,8.05,3.12,16.069,4.683,24.061
	c0.432,2.204,2.582,4.278,4.781,4.531c5.456,0.356,10.928,0.356,16.384,0c2.199-0.253,4.349-2.327,4.781-4.531
	c1.563-7.99,3.125-16.011,4.684-24.061c0.428-2.222-1.007-3.626-3.193-3.199C131.917,119.762,122.211,119.762,112.602,118.65z"/>
<path class="st1" d="M79.284,153.576c2.192,0.187,3.986-1.461,3.986-3.661v-39.692c0-2.2,1.8-4,4-4h79.587c2.2,0,4,1.8,4,4v39.692
	c0,2.2,1.794,3.848,3.985,3.661l9.384-0.872c2.189-0.22,3.98-2.199,3.98-4.399V85.729c0-2.2-1.791-3.82-3.979-3.599l-9.385,0.872
	c-2.191,0.187-3.985,2.139-3.985,4.339v4.432c0,2.2-1.8,4-4,4H87.27c-2.2,0-4-1.8-4-4V87.34c0-2.2-1.793-4.153-3.986-4.339
	L69.9,82.128c-2.189-0.221-3.98,1.399-3.98,3.599v62.574c0,2.2,1.791,4.181,3.98,4.401L79.284,153.576z"/>
</svg>
