<?xml version="1.0" encoding="utf-8"?>
<!-- (c) mapshakers 2015, Licence: CC0 1.0 Universal, www.mapshakers.com  -->
<!DOCTYPE svg PUBLIC "-//W3C//DTD SVG 1.1//EN" "http://www.w3.org/Graphics/SVG/1.1/DTD/svg11.dtd">
<svg version="1.1" id="wayside_cross" xmlns="http://www.w3.org/2000/svg" xmlns:xlink="http://www.w3.org/1999/xlink" x="0px"
	 y="0px" width="256px" height="256px" viewBox="0 0 256 256" style="enable-background:new 0 0 256 256;" xml:space="preserve">
<style type="text/css">
<![CDATA[
	.st0{fill:#D1D1D1;}
	.st1{fill:#454545;}
]]>
</style>
<path class="st0" d="M81.683,254.807c-6.234,0-11.43-2.722-14.255-7.467s-2.743-10.609,0.227-16.09
	c0.322-0.594,0.703-1.153,1.138-1.671l36.766-43.731v-73.885H58.5c-11.028,0-20-8.972-20-20v-9.396c0-11.028,8.972-20,20-20h47.058
	V24.695c0-11.028,8.972-20,20-20h6.639c11.028,0,20,8.972,20,20v37.872H196.5c11.028,0,20,8.972,20,20v9.396
	c0,11.028-8.972,20-20,20h-44.303v73.884l36.768,43.732c0.435,0.518,0.816,1.077,1.138,1.672c2.97,5.48,3.053,11.345,0.227,16.09
	c-2.825,4.744-8.021,7.466-14.255,7.466H81.683z"/>
<path class="st1" d="M196.5,72.567h-44.303c-5.5,0-10-4.5-10-10V24.695c0-5.5-4.5-10-10-10h-6.639c-5.5,0-10,4.5-10,10v37.872
	c0,5.5-4.5,10-10,10H58.5c-5.5,0-10,4.5-10,10v9.396c0,5.5,4.5,10,10,10h47.058c5.5,0,10,4.5,10,10v77.53l-39.111,46.521
	c-2.62,4.835-0.264,8.792,5.236,8.792h94.391c5.5,0,7.856-3.956,5.236-8.792l-39.113-46.522v-77.529c0-5.5,4.5-10,10-10H196.5
	c5.5,0,10-4.5,10-10v-9.396C206.5,77.067,202,72.567,196.5,72.567z"/>
</svg>
