<?xml version="1.0" encoding="utf-8"?>
<!-- (c) mapshakers 2015, Licence: CC0 1.0 Universal, www.mapshakers.com  -->
<!DOCTYPE svg PUBLIC "-//W3C//DTD SVG 1.1//EN" "http://www.w3.org/Graphics/SVG/1.1/DTD/svg11.dtd">
<svg version="1.1" id="windmill" xmlns="http://www.w3.org/2000/svg" xmlns:xlink="http://www.w3.org/1999/xlink" x="0px" y="0px"
	 width="256px" height="256px" viewBox="0 0 256 256" style="enable-background:new 0 0 256 256;" xml:space="preserve">
<style type="text/css">
<![CDATA[
	.st0{fill:#D1D1D1;}
	.st1{fill:#454545;}
]]>
</style>
<path class="st0" d="M189.443,178.158c10.939-2.071,29.486-19.719,31.023-32.229c1.123-9.131-5.915-14.4-11.57-18.635
	c-0.765-0.572-1.568-1.174-2.403-1.815l-41.957-32.232c-0.356-0.274-0.538-0.495-0.624-0.624c0.086-0.129,0.267-0.351,0.622-0.625
	l41.486-32.069c4.46-3.448,14.903-11.521,13.048-22.46c-1.103-6.497-7.403-13.759-12.496-18.708
	c-7.748-7.53-14.483-11.456-20.021-11.669c-0.21-0.008-0.418-0.012-0.624-0.012c-8.4,0-12.673,5.993-16.104,10.809
	c-0.778,1.091-1.582,2.219-2.486,3.396l-33.494,43.603c-0.273,0.356-0.494,0.537-0.623,0.624c-0.13-0.086-0.351-0.267-0.625-0.622
	L98.931,21.34C94.539,15.658,86.183,9.023,77.089,9.023c-3.229,0-6.272,0.89-8.802,2.575c-5.444,3.625-14.287,12.122-17.972,18.067
	c-5.965,9.624,0.386,22.992,9.972,30.355l42.026,32.283c0.356,0.274,0.538,0.495,0.624,0.624c-0.086,0.129-0.267,0.351-0.622,0.625
	L60.76,125.674c-0.973,0.752-1.909,1.448-2.79,2.102c-5.342,3.972-12.658,9.41-11.08,18.708
	c1.703,10.039,19.724,29.079,31.765,31.18c0.574,0.1,1.154,0.166,1.732,0.198L55.297,211.9c-4.122,5.592-5.359,12.237-3.393,18.23
	c1.966,5.994,6.897,10.616,13.53,12.682c0.938,0.292,23.49,7.154,67.557,7.154c44.063,0,66.616-6.861,67.556-7.154
	c6.624-2.063,11.559-6.681,13.539-12.672c1.979-5.989,0.771-12.639-3.318-18.24l-24.442-33.501c0.16,0.005,0.321,0.007,0.483,0.007
	C187.688,178.406,188.575,178.323,189.443,178.158z"/>
<path class="st1" d="M141.643,134.123c-4.539-6.221-11.99-6.239-16.559-0.041l-61.737,83.752c-4.569,6.198-2.292,13.142,5.06,15.431
	c0,0,21.532,6.702,64.585,6.702c43.049,0,64.583-6.702,64.583-6.702c7.352-2.289,9.654-9.251,5.115-15.471L141.643,134.123z
	 M135.375,216.25c-7.7,0.059-21.901,0.522-21-7.125c1.237-10.492,9.025-37.746,19-37.75c9.978-0.004,16.226,28.193,19.125,37.375
	C154.75,215.875,143.563,216.188,135.375,216.25z M210.542,144.708c-0.954,7.761-15.63,22.237-22.959,23.625
	c-3.902,0.739-7.114-4.201-11.823-10.293l-33.623-43.494c-4.709-6.092-12.4-6.08-17.091,0.026L91.51,158.229
	c-4.691,6.106-7.24,10.264-11.135,9.584c-7.664-1.337-22.599-16.949-23.625-23c-0.665-3.916,4.034-6.517,10.126-11.227
	l41.555-32.122c6.092-4.709,6.081-12.4-0.026-17.091L66.379,52.09c-6.106-4.691-10.266-12.797-7.563-17.157
	c2.796-4.512,10.596-12.07,15.014-15.012c4.269-2.843,12.48,1.443,17.189,7.535l33.663,43.548c4.709,6.092,12.4,6.08,17.091-0.026
	l33.494-43.602c4.69-6.106,6.565-10.459,10.899-10.292c6.134,0.236,22.016,16.006,23.042,22.057
	c0.664,3.916-3.213,8.167-9.305,12.876l-41.486,32.069c-6.092,4.709-6.08,12.4,0.026,17.091l41.957,32.232
	C206.508,138.1,211.026,140.769,210.542,144.708z"/>
</svg>
